<?xml version="1.0" encoding="utf-8"?>
<!-- Generator: Adobe Illustrator 26.0.1, SVG Export Plug-In . SVG Version: 6.00 Build 0)  -->
<svg version="1.1" id="Layer_2" xmlns="http://www.w3.org/2000/svg" xmlns:xlink="http://www.w3.org/1999/xlink" x="0px" y="0px"
	 viewBox="0 0 250 250" style="enable-background:new 0 0 250 250;" xml:space="preserve">
<style type="text/css">
	.st0{fill:#4D4D4F;}
	.st1{fill:none;stroke:#5C5B59;stroke-width:1.6;}
	.st2{fill:none;stroke:#B19E4E;stroke-width:1.6;}
	.st3{fill:none;stroke:#BCBEC0;stroke-width:0.5;}
	.st4{fill:#B19E4E;}
	.st5{fill:#FFFFFF;}
	.st6{fill:none;stroke:#5C5B59;stroke-linecap:round;stroke-linejoin:round;stroke-miterlimit:10;}
</style>
<g>
	<g>
		<path class="st0" d="M8.9,232.8h2.7v0.5H9.6v1.7h1.9v0.5H9.6v2h2.2v0.5H8.9V232.8z"/>
		<path class="st0" d="M12.4,237.2c0-1,1.1-1.3,2-1.3h0.2v-0.4c0-0.6-0.2-0.8-0.8-0.8c-0.4,0-0.7,0.1-1,0.4l-0.3-0.4
			c0.4-0.4,0.8-0.5,1.4-0.5c0.8,0,1.3,0.4,1.3,1.3v1.8c0,0.4,0,0.7,0.1,0.9h-0.6c0-0.1,0-0.3-0.1-0.5c-0.3,0.3-0.7,0.6-1.2,0.6
			C12.8,238.2,12.4,237.8,12.4,237.2z M14.6,237.1v-0.9h-0.2c-0.8,0-1.4,0.2-1.4,0.9c0,0.4,0.3,0.5,0.6,0.5
			C14,237.7,14.4,237.5,14.6,237.1z"/>
		<path class="st0" d="M16.3,234.3h0.6v0.6c0.2-0.3,0.5-0.7,1-0.7c0.2,0,0.4,0.1,0.4,0.1l-0.1,0.6c0,0-0.1-0.1-0.3-0.1
			c-0.6,0-0.9,0.7-0.9,0.8v2.6h-0.6V234.3z"/>
		<path class="st0" d="M18.9,234.3h0.6v0.6c0.3-0.4,0.8-0.6,1.2-0.6c0.8,0,1.1,0.5,1.1,1.2v2.7h-0.6v-2.6c0-0.5-0.2-0.8-0.7-0.8
			c-0.4,0-0.8,0.3-1.1,0.7v2.7h-0.6V234.3z"/>
		<path class="st0" d="M22.9,233.1c0-0.2,0.2-0.4,0.4-0.4c0.2,0,0.4,0.2,0.4,0.4c0,0.2-0.2,0.4-0.4,0.4
			C23.1,233.5,22.9,233.4,22.9,233.1z M23.1,234.3h0.6v3.8h-0.6V234.3z"/>
		<path class="st0" d="M24.8,234.3h0.6v0.6c0.3-0.4,0.8-0.6,1.2-0.6c0.8,0,1.1,0.5,1.1,1.2v2.7h-0.6v-2.6c0-0.5-0.2-0.8-0.7-0.8
			c-0.4,0-0.8,0.3-1.1,0.7v2.7h-0.6V234.3z"/>
		<path class="st0" d="M28.7,238.9c0-0.4,0.3-0.8,0.7-1c-0.2-0.1-0.3-0.3-0.3-0.6c0-0.3,0.2-0.5,0.4-0.6c-0.4-0.2-0.7-0.7-0.7-1.2
			c0-0.8,0.6-1.4,1.5-1.4c0.2,0,0.4,0,0.6,0.1h1.2v0.5h-0.6c0.2,0.2,0.3,0.5,0.3,0.8c0,0.8-0.6,1.4-1.5,1.4c-0.2,0-0.3,0-0.4,0
			c-0.2,0.1-0.3,0.2-0.3,0.3c0,0.2,0.2,0.3,0.5,0.3c0.8,0,2,0,2,1.2c0,0.8-0.9,1.3-1.9,1.3C29.3,240,28.7,239.7,28.7,238.9z
			 M31.5,238.8c0-0.6-0.5-0.6-1-0.6c-0.2,0-0.5,0-0.7-0.1c-0.4,0.2-0.5,0.5-0.5,0.8c0,0.4,0.3,0.7,1,0.7
			C31,239.5,31.5,239.2,31.5,238.8z M31.1,235.6c0-0.5-0.3-0.9-0.9-0.9c-0.6,0-0.9,0.4-0.9,0.9s0.3,0.9,0.9,0.9
			C30.8,236.5,31.1,236.1,31.1,235.6z"/>
		<path class="st0" d="M32.5,237.8l0.3-0.4c0.1,0.1,0.5,0.3,1,0.3c0.5,0,0.8-0.2,0.8-0.6s-0.3-0.5-0.8-0.7c-0.6-0.3-1.1-0.5-1.1-1.2
			c0-0.6,0.4-1.1,1.2-1.1c0.6,0,1,0.3,1.1,0.4l-0.3,0.4c-0.1-0.1-0.4-0.3-0.9-0.3c-0.4,0-0.6,0.2-0.6,0.5c0,0.4,0.3,0.5,0.7,0.7
			c0.6,0.3,1.2,0.5,1.2,1.2c0,0.7-0.5,1.1-1.4,1.1C33.2,238.2,32.7,238,32.5,237.8z"/>
		<path class="st0" d="M37.3,238.9c0-0.4,0.3-0.8,0.7-1c-0.2-0.1-0.3-0.3-0.3-0.6c0-0.3,0.2-0.5,0.4-0.6c-0.4-0.2-0.7-0.7-0.7-1.2
			c0-0.8,0.6-1.4,1.5-1.4c0.2,0,0.4,0,0.6,0.1h1.2v0.5h-0.6c0.2,0.2,0.3,0.5,0.3,0.8c0,0.8-0.6,1.4-1.5,1.4c-0.2,0-0.3,0-0.4,0
			c-0.2,0.1-0.3,0.2-0.3,0.3c0,0.2,0.2,0.3,0.5,0.3c0.8,0,2,0,2,1.2c0,0.8-0.9,1.3-1.9,1.3C38,240,37.3,239.7,37.3,238.9z
			 M40.1,238.8c0-0.6-0.5-0.6-1-0.6c-0.2,0-0.5,0-0.7-0.1c-0.4,0.2-0.5,0.5-0.5,0.8c0,0.4,0.3,0.7,1,0.7
			C39.6,239.5,40.1,239.2,40.1,238.8z M39.8,235.6c0-0.5-0.3-0.9-0.9-0.9c-0.6,0-0.9,0.4-0.9,0.9s0.3,0.9,0.9,0.9
			C39.4,236.5,39.8,236.1,39.8,235.6z"/>
		<path class="st0" d="M41.5,234.3h0.6v0.6c0.2-0.3,0.5-0.7,1-0.7c0.2,0,0.4,0.1,0.4,0.1l-0.1,0.6c0,0-0.1-0.1-0.3-0.1
			c-0.6,0-0.9,0.7-0.9,0.8v2.6h-0.6V234.3z"/>
		<path class="st0" d="M43.7,236.2c0-0.9,0.5-2,1.8-2c1.3,0,1.8,1.1,1.8,2c0,0.9-0.5,2-1.8,2S43.7,237.1,43.7,236.2z M46.7,236.2
			c0-0.8-0.4-1.5-1.2-1.5s-1.1,0.7-1.1,1.5c0,0.8,0.4,1.5,1.2,1.5S46.7,237,46.7,236.2z"/>
		<path class="st0" d="M47.6,234.3h0.6l0.8,2.9h0l0.9-2.9h0.6l0.9,2.9h0l0.8-2.9h0.6l-1.2,3.8h-0.5l-1-3h0l-1,3h-0.5L47.6,234.3z"/>
		<path class="st0" d="M53.8,237.2v-2.5h-0.6v-0.5h0.6v-1.1h0.6v1.1h1v0.5h-1v2.4c0,0.4,0.1,0.6,0.4,0.6c0.2,0,0.5-0.1,0.5-0.2
			l0.2,0.4c-0.1,0.1-0.4,0.2-0.8,0.2C54.2,238.2,53.8,237.8,53.8,237.2z"/>
		<path class="st0" d="M56.3,232.3h0.6v2.5c0.2-0.2,0.6-0.6,1.2-0.6c0.8,0,1.1,0.5,1.1,1.2v2.7h-0.6v-2.6c0-0.5-0.2-0.8-0.7-0.8
			c-0.6,0-1,0.6-1.1,0.7v2.7h-0.6V232.3z"/>
		<path class="st0" d="M61.4,239.9l0.1-0.5c0.1,0,0.1,0,0.3,0c0.5,0,0.8-0.3,1-0.9l0.2-0.5l-1.4-3.8h0.7l1.1,3.1h0l1.1-3.1H65
			l-1.6,4.3c-0.3,0.7-0.6,1.3-1.5,1.3C61.6,240,61.5,239.9,61.4,239.9z"/>
		<path class="st0" d="M65.2,236.2c0-1.1,0.7-2,1.7-2c1,0,1.5,0.7,1.5,1.7c0,0.1,0,0.2,0,0.3h-2.6c0,0.8,0.3,1.5,1.2,1.5
			c0.5,0,0.9-0.2,1.1-0.3l0.2,0.5c-0.2,0.1-0.6,0.4-1.3,0.4C65.8,238.2,65.2,237.3,65.2,236.2z M67.8,235.7c0-0.5-0.3-1-0.9-1
			c-0.6,0-1,0.4-1.1,1H67.8z"/>
		<path class="st0" d="M69,237.2c0-1,1.1-1.3,2-1.3h0.2v-0.4c0-0.6-0.2-0.8-0.8-0.8c-0.4,0-0.7,0.1-1,0.4l-0.3-0.4
			c0.4-0.4,0.8-0.5,1.4-0.5c0.8,0,1.3,0.4,1.3,1.3v1.8c0,0.4,0,0.7,0.1,0.9h-0.6c0-0.1,0-0.3-0.1-0.5c-0.3,0.3-0.7,0.6-1.2,0.6
			C69.5,238.2,69,237.8,69,237.2z M71.2,237.1v-0.9h-0.2c-0.8,0-1.4,0.2-1.4,0.9c0,0.4,0.3,0.5,0.6,0.5
			C70.6,237.7,71,237.5,71.2,237.1z"/>
		<path class="st0" d="M72.9,234.3h0.6v0.6c0.2-0.3,0.5-0.7,1-0.7c0.2,0,0.4,0.1,0.4,0.1l-0.1,0.6c0,0-0.1-0.1-0.3-0.1
			c-0.6,0-0.9,0.7-0.9,0.8v2.6h-0.6V234.3z"/>
		<path class="st0" d="M75.2,235.6h1.6v0.5h-1.6V235.6z"/>
		<path class="st0" d="M77.4,236.2c0-0.9,0.5-2,1.8-2s1.8,1.1,1.8,2c0,0.9-0.5,2-1.8,2C77.9,238.2,77.4,237.1,77.4,236.2z
			 M80.3,236.2c0-0.8-0.4-1.5-1.2-1.5s-1.1,0.7-1.1,1.5c0,0.8,0.4,1.5,1.2,1.5C80,237.7,80.3,237,80.3,236.2z"/>
		<path class="st0" d="M81.8,234.3h0.6v0.6c0.3-0.4,0.8-0.6,1.2-0.6c0.8,0,1.1,0.5,1.1,1.2v2.7h-0.6v-2.6c0-0.5-0.2-0.8-0.7-0.8
			c-0.4,0-0.8,0.3-1.1,0.7v2.7h-0.6V234.3z"/>
		<path class="st0" d="M85.6,235.6h1.6v0.5h-1.6V235.6z"/>
		<path class="st0" d="M87.6,239.9l0.1-0.5c0.1,0,0.1,0,0.3,0c0.5,0,0.8-0.3,1-0.9l0.2-0.5l-1.4-3.8h0.7l1.1,3.1h0l1.1-3.1h0.6
			l-1.6,4.3c-0.3,0.7-0.6,1.3-1.5,1.3C87.8,240,87.7,239.9,87.6,239.9z"/>
		<path class="st0" d="M91.4,236.2c0-1.1,0.7-2,1.7-2c1,0,1.5,0.7,1.5,1.7c0,0.1,0,0.2,0,0.3H92c0,0.8,0.3,1.5,1.2,1.5
			c0.5,0,0.9-0.2,1.1-0.3l0.2,0.5c-0.2,0.1-0.6,0.4-1.3,0.4C92,238.2,91.4,237.3,91.4,236.2z M94,235.7c0-0.5-0.3-1-0.9-1
			c-0.6,0-1,0.4-1.1,1H94z"/>
		<path class="st0" d="M95.2,237.2c0-1,1.1-1.3,2-1.3h0.2v-0.4c0-0.6-0.2-0.8-0.8-0.8c-0.4,0-0.7,0.1-1,0.4l-0.3-0.4
			c0.4-0.4,0.8-0.5,1.4-0.5c0.8,0,1.3,0.4,1.3,1.3v1.8c0,0.4,0,0.7,0.1,0.9h-0.6c0-0.1,0-0.3-0.1-0.5c-0.3,0.3-0.7,0.6-1.2,0.6
			C95.7,238.2,95.2,237.8,95.2,237.2z M97.4,237.1v-0.9h-0.2c-0.8,0-1.4,0.2-1.4,0.9c0,0.4,0.3,0.5,0.6,0.5
			C96.8,237.7,97.2,237.5,97.4,237.1z"/>
		<path class="st0" d="M99.1,234.3h0.6v0.6c0.2-0.3,0.5-0.7,1-0.7c0.2,0,0.4,0.1,0.4,0.1l-0.1,0.6c0,0-0.1-0.1-0.3-0.1
			c-0.6,0-0.9,0.7-0.9,0.8v2.6h-0.6V234.3z"/>
	</g>
	<path class="st0" d="M102.8,234c0-0.6,0.4-1.3,1.4-1.3c1,0,1.4,0.7,1.4,1.3c0,0.6-0.4,1.3-1.4,1.3
		C103.2,235.4,102.8,234.6,102.8,234z M105,234c0-0.5-0.3-0.9-0.9-0.9s-0.9,0.4-0.9,0.9c0,0.5,0.3,0.9,0.9,0.9
		C104.7,234.9,105,234.5,105,234z M107.3,232.8h0.6l-3.4,5.3h-0.6L107.3,232.8z M106.1,236.8c0-0.6,0.4-1.3,1.4-1.3
		c1,0,1.4,0.7,1.4,1.3c0,0.6-0.4,1.3-1.4,1.3C106.5,238.2,106.1,237.4,106.1,236.8z M108.4,236.8c0-0.5-0.3-0.9-0.9-0.9
		s-0.9,0.4-0.9,0.9c0,0.5,0.3,0.9,0.9,0.9C108,237.7,108.4,237.3,108.4,236.8z"/>
	<g>
		<path class="st0" d="M109.7,238.4c0-0.3-0.4-0.3-0.4-0.7c0-0.2,0.2-0.4,0.4-0.4c0.3,0,0.5,0.2,0.5,0.6c0,0.4-0.2,0.9-0.5,1.4h-0.4
			C109.6,238.9,109.7,238.6,109.7,238.4z"/>
		<path class="st0" d="M113,232.8h1.4c1.1,0,1.8,0.5,1.8,1.4c0,0.9-0.6,1.3-1.5,1.4v0c0.1,0.1,0.2,0.2,0.6,0.7l1.3,1.8h-0.7
			l-1.1-1.5c-0.6-0.9-0.7-0.9-1.1-0.9h-0.1v2.5H113V232.8z M114.4,235.1c0.8,0,1.2-0.3,1.2-0.9s-0.4-0.9-1.2-0.9h-0.8v1.8H114.4z"/>
		<path class="st0" d="M117,237.7c0-0.3,0.2-0.5,0.5-0.5s0.5,0.2,0.5,0.5c0,0.3-0.2,0.5-0.5,0.5S117,238,117,237.7z"/>
		<path class="st0" d="M119,232.8h0.6v2.3h3v-2.3h0.6v5.3h-0.6v-2.5h-3v2.5H119V232.8z"/>
		<path class="st0" d="M124.3,237.7c0-0.3,0.2-0.5,0.5-0.5s0.5,0.2,0.5,0.5c0,0.3-0.2,0.5-0.5,0.5S124.3,238,124.3,237.7z"/>
		<path class="st0" d="M125.9,237.7l0.3-0.4c0.1,0.1,0.5,0.5,1.2,0.5c0.7,0,1.1-0.4,1.1-0.9c0-0.6-0.6-0.9-1.2-1.2
			c-0.6-0.3-1.2-0.7-1.2-1.5c0-0.9,0.7-1.4,1.6-1.4c0.8,0,1.2,0.3,1.4,0.4l-0.3,0.5c-0.2-0.1-0.5-0.4-1.1-0.4
			c-0.5,0-0.9,0.3-0.9,0.8c0,0.5,0.4,0.8,1,1c0.7,0.3,1.5,0.7,1.5,1.7c0,0.8-0.7,1.4-1.7,1.4C126.6,238.2,126.1,237.8,125.9,237.7z"
			/>
		<path class="st0" d="M129.7,237.7c0-0.3,0.2-0.5,0.5-0.5c0.3,0,0.5,0.2,0.5,0.5c0,0.3-0.2,0.5-0.5,0.5
			C130,238.2,129.7,238,129.7,237.7z"/>
	</g>
	<line class="st1" x1="0" y1="235.6" x2="6" y2="235.6"/>
	<g>
		<path class="st0" d="M8.9,222.8h2.7v0.5H9.6v1.7h1.9v0.5H9.6v2h2.2v0.5H8.9V222.8z"/>
		<path class="st0" d="M12.4,227.2c0-1,1.1-1.3,2-1.3h0.2v-0.4c0-0.6-0.2-0.8-0.8-0.8c-0.4,0-0.7,0.1-1,0.4l-0.3-0.4
			c0.4-0.4,0.8-0.5,1.4-0.5c0.8,0,1.3,0.4,1.3,1.3v1.8c0,0.4,0,0.7,0.1,0.9h-0.6c0-0.1,0-0.3-0.1-0.5c-0.3,0.3-0.7,0.6-1.2,0.6
			C12.8,228.3,12.4,227.9,12.4,227.2z M14.6,227.2v-0.9h-0.2c-0.8,0-1.4,0.2-1.4,0.9c0,0.4,0.3,0.5,0.6,0.5
			C14,227.8,14.4,227.5,14.6,227.2z"/>
		<path class="st0" d="M16.3,224.3h0.6v0.6c0.2-0.3,0.5-0.7,1-0.7c0.2,0,0.4,0.1,0.4,0.1l-0.1,0.6c0,0-0.1-0.1-0.3-0.1
			c-0.6,0-0.9,0.7-0.9,0.8v2.6h-0.6V224.3z"/>
		<path class="st0" d="M18.9,224.3h0.6v0.6c0.3-0.4,0.8-0.6,1.2-0.6c0.8,0,1.1,0.5,1.1,1.2v2.7h-0.6v-2.6c0-0.5-0.2-0.8-0.7-0.8
			c-0.4,0-0.8,0.3-1.1,0.7v2.7h-0.6V224.3z"/>
		<path class="st0" d="M22.9,223.2c0-0.2,0.2-0.4,0.4-0.4c0.2,0,0.4,0.2,0.4,0.4c0,0.2-0.2,0.4-0.4,0.4
			C23.1,223.6,22.9,223.4,22.9,223.2z M23.1,224.3h0.6v3.8h-0.6V224.3z"/>
		<path class="st0" d="M24.8,224.3h0.6v0.6c0.3-0.4,0.8-0.6,1.2-0.6c0.8,0,1.1,0.5,1.1,1.2v2.7h-0.6v-2.6c0-0.5-0.2-0.8-0.7-0.8
			c-0.4,0-0.8,0.3-1.1,0.7v2.7h-0.6V224.3z"/>
		<path class="st0" d="M28.7,229c0-0.4,0.3-0.8,0.7-1c-0.2-0.1-0.3-0.3-0.3-0.6c0-0.3,0.2-0.5,0.4-0.6c-0.4-0.2-0.7-0.7-0.7-1.2
			c0-0.8,0.6-1.4,1.5-1.4c0.2,0,0.4,0,0.6,0.1h1.2v0.5h-0.6c0.2,0.2,0.3,0.5,0.3,0.8c0,0.8-0.6,1.4-1.5,1.4c-0.2,0-0.3,0-0.4,0
			c-0.2,0.1-0.3,0.2-0.3,0.3c0,0.2,0.2,0.3,0.5,0.3c0.8,0,2,0,2,1.2c0,0.8-0.9,1.3-1.9,1.3C29.3,230.1,28.7,229.8,28.7,229z
			 M31.5,228.8c0-0.6-0.5-0.6-1-0.6c-0.2,0-0.5,0-0.7-0.1c-0.4,0.2-0.5,0.5-0.5,0.8c0,0.4,0.3,0.7,1,0.7
			C31,229.6,31.5,229.3,31.5,228.8z M31.1,225.6c0-0.5-0.3-0.9-0.9-0.9c-0.6,0-0.9,0.4-0.9,0.9s0.3,0.9,0.9,0.9
			C30.8,226.6,31.1,226.2,31.1,225.6z"/>
		<path class="st0" d="M32.5,227.9l0.3-0.4c0.1,0.1,0.5,0.3,1,0.3c0.5,0,0.8-0.2,0.8-0.6s-0.3-0.5-0.8-0.7c-0.6-0.3-1.1-0.5-1.1-1.2
			c0-0.6,0.4-1.1,1.2-1.1c0.6,0,1,0.3,1.1,0.4l-0.3,0.4c-0.1-0.1-0.4-0.3-0.9-0.3c-0.4,0-0.6,0.2-0.6,0.5c0,0.4,0.3,0.5,0.7,0.7
			c0.6,0.3,1.2,0.5,1.2,1.2c0,0.7-0.5,1.1-1.4,1.1C33.2,228.3,32.7,228.1,32.5,227.9z"/>
		<path class="st0" d="M37.6,224.3h0.6v0.4c0.2-0.2,0.6-0.5,1.1-0.5c0.9,0,1.6,0.7,1.6,2c0,1.2-0.7,2-1.7,2c-0.5,0-0.8-0.2-1-0.3v2
			h-0.6V224.3z M40.2,226.3c0-0.9-0.3-1.5-1.1-1.5c-0.5,0-0.9,0.4-1,0.5v2.1c0.2,0.2,0.4,0.4,0.9,0.4
			C39.8,227.8,40.2,227.1,40.2,226.3z"/>
		<path class="st0" d="M41.3,226.2c0-1.1,0.7-2,1.7-2c1,0,1.5,0.7,1.5,1.7c0,0.1,0,0.2,0,0.3h-2.6c0,0.8,0.3,1.5,1.2,1.5
			c0.5,0,0.9-0.2,1.1-0.3l0.2,0.5c-0.2,0.1-0.6,0.4-1.3,0.4C41.9,228.3,41.3,227.4,41.3,226.2z M44,225.8c0-0.5-0.3-1-0.9-1
			c-0.6,0-1,0.4-1.1,1H44z"/>
		<path class="st0" d="M45.4,224.3H46v0.6c0.2-0.3,0.5-0.7,1-0.7c0.2,0,0.4,0.1,0.4,0.1l-0.1,0.6c0,0-0.1-0.1-0.3-0.1
			c-0.6,0-0.9,0.7-0.9,0.8v2.6h-0.6V224.3z"/>
		<path class="st0" d="M49.4,227.9l0.3-0.4c0.1,0.1,0.5,0.3,1,0.3c0.5,0,0.8-0.2,0.8-0.6s-0.3-0.5-0.8-0.7c-0.6-0.3-1.1-0.5-1.1-1.2
			c0-0.6,0.4-1.1,1.2-1.1c0.6,0,1,0.3,1.1,0.4l-0.3,0.4c-0.1-0.1-0.4-0.3-0.9-0.3c-0.4,0-0.6,0.2-0.6,0.5c0,0.4,0.3,0.5,0.7,0.7
			c0.6,0.3,1.2,0.5,1.2,1.2c0,0.7-0.5,1.1-1.4,1.1C50,228.3,49.6,228.1,49.4,227.9z"/>
		<path class="st0" d="M52.8,222.4h0.6v2.5c0.2-0.2,0.6-0.6,1.2-0.6c0.8,0,1.1,0.5,1.1,1.2v2.7h-0.6v-2.6c0-0.5-0.2-0.8-0.7-0.8
			c-0.6,0-1,0.6-1.1,0.7v2.7h-0.6V222.4z"/>
		<path class="st0" d="M56.6,227.2c0-1,1.1-1.3,2-1.3h0.2v-0.4c0-0.6-0.2-0.8-0.8-0.8c-0.4,0-0.7,0.1-1,0.4l-0.3-0.4
			c0.4-0.4,0.8-0.5,1.4-0.5c0.8,0,1.3,0.4,1.3,1.3v1.8c0,0.4,0,0.7,0.1,0.9h-0.6c0-0.1,0-0.3-0.1-0.5c-0.3,0.3-0.7,0.6-1.2,0.6
			C57,228.3,56.6,227.9,56.6,227.2z M58.8,227.2v-0.9h-0.2c-0.8,0-1.4,0.2-1.4,0.9c0,0.4,0.3,0.5,0.6,0.5
			C58.2,227.8,58.5,227.5,58.8,227.2z"/>
		<path class="st0" d="M60.5,224.3h0.6v0.6c0.2-0.3,0.5-0.7,1-0.7c0.2,0,0.4,0.1,0.4,0.1l-0.1,0.6c0,0-0.1-0.1-0.3-0.1
			c-0.6,0-0.9,0.7-0.9,0.8v2.6h-0.6V224.3z"/>
		<path class="st0" d="M62.7,226.2c0-1.1,0.7-2,1.7-2c1,0,1.5,0.7,1.5,1.7c0,0.1,0,0.2,0,0.3h-2.6c0,0.8,0.3,1.5,1.2,1.5
			c0.5,0,0.9-0.2,1.1-0.3l0.2,0.5c-0.2,0.1-0.6,0.4-1.3,0.4C63.3,228.3,62.7,227.4,62.7,226.2z M65.4,225.8c0-0.5-0.3-1-0.9-1
			c-0.6,0-1,0.4-1.1,1H65.4z"/>
		<path class="st0" d="M68.3,225.9c0-1.3,0.6-2.6,1.4-3.5h0.6c-0.7,0.7-1.4,1.9-1.4,3.5c0,1.5,0.5,2.7,1.4,3.7h-0.6
			C68.8,228.6,68.3,227.3,68.3,225.9z"/>
		<path class="st0" d="M70.8,226.2v-3.3h0.6v3.3c0,1.1,0.5,1.6,1.5,1.6c1,0,1.4-0.6,1.4-1.5v-3.4h0.6v3.3c0,1.3-0.6,2.1-2,2.1
			C71.5,228.3,70.8,227.4,70.8,226.2z"/>
		<path class="st0" d="M75.7,227.7l0.3-0.4c0.1,0.1,0.5,0.5,1.2,0.5c0.7,0,1.1-0.4,1.1-0.9c0-0.6-0.6-0.9-1.2-1.2
			c-0.6-0.3-1.2-0.7-1.2-1.5c0-0.9,0.7-1.4,1.6-1.4c0.8,0,1.2,0.3,1.4,0.4l-0.3,0.5c-0.2-0.1-0.5-0.4-1.1-0.4
			c-0.5,0-0.9,0.3-0.9,0.8c0,0.5,0.4,0.8,1,1c0.7,0.3,1.5,0.7,1.5,1.7c0,0.8-0.7,1.4-1.7,1.4C76.4,228.3,75.9,227.9,75.7,227.7z"/>
		<path class="st0" d="M80,222.8h1.2c2.1,0,3,1.1,3,2.6s-0.9,2.7-3.1,2.7H80V222.8z M81.2,227.7c1.5,0,2.3-0.8,2.3-2.2
			c0-1.4-0.8-2.1-2.4-2.1h-0.6v4.3H81.2z"/>
		<path class="st0" d="M85.9,226.1c0-1.5-0.5-2.7-1.4-3.7h0.6c0.9,1,1.4,2.3,1.4,3.7c0,1.4-0.6,2.6-1.4,3.5h-0.6
			C85.2,228.9,85.9,227.7,85.9,226.1z"/>
		<path class="st0" d="M87.6,228.4c0-0.3-0.4-0.3-0.4-0.7c0-0.2,0.2-0.4,0.4-0.4c0.3,0,0.5,0.2,0.5,0.6c0,0.4-0.2,0.9-0.5,1.4h-0.4
			C87.4,229,87.6,228.7,87.6,228.4z"/>
		<path class="st0" d="M90.8,222.8h0.6v4.8h2.1v0.5h-2.7V222.8z"/>
		<path class="st0" d="M94.2,227.8c0-0.3,0.2-0.5,0.5-0.5c0.3,0,0.5,0.2,0.5,0.5c0,0.3-0.2,0.5-0.5,0.5
			C94.4,228.2,94.2,228,94.2,227.8z"/>
		<path class="st0" d="M96.2,222.8h0.6v2.3h3v-2.3h0.6v5.3h-0.6v-2.5h-3v2.5h-0.6V222.8z"/>
		<path class="st0" d="M101.4,227.8c0-0.3,0.2-0.5,0.5-0.5c0.3,0,0.5,0.2,0.5,0.5c0,0.3-0.2,0.5-0.5,0.5
			C101.6,228.2,101.4,228,101.4,227.8z"/>
		<path class="st0" d="M103,227.7l0.3-0.4c0.1,0.1,0.5,0.5,1.2,0.5c0.7,0,1.1-0.4,1.1-0.9c0-0.6-0.6-0.9-1.2-1.2
			c-0.6-0.3-1.2-0.7-1.2-1.5c0-0.9,0.7-1.4,1.6-1.4c0.8,0,1.2,0.3,1.4,0.4l-0.3,0.5c-0.2-0.1-0.5-0.4-1.1-0.4
			c-0.5,0-0.9,0.3-0.9,0.8c0,0.5,0.4,0.8,1,1c0.7,0.3,1.5,0.7,1.5,1.7c0,0.8-0.7,1.4-1.7,1.4C103.7,228.3,103.2,227.9,103,227.7z"/>
		<path class="st0" d="M106.9,227.8c0-0.3,0.2-0.5,0.5-0.5c0.3,0,0.5,0.2,0.5,0.5c0,0.3-0.2,0.5-0.5,0.5
			C107.1,228.2,106.9,228,106.9,227.8z"/>
	</g>
	<line class="st2" x1="0" y1="225.7" x2="6" y2="225.7"/>
</g>
<path class="st0" d="M42.5,198.7c0.9-0.9,2.5-2.4,2.5-3.6c0-0.7-0.4-1-0.9-1c-0.6,0-0.9,0.3-1.2,0.5l-0.3-0.4
	c0.3-0.4,0.8-0.7,1.5-0.7c0.9,0,1.6,0.5,1.6,1.4c0,1.2-1.3,2.5-2.3,3.5c0,0,0.3,0,0.6,0h1.8v0.5h-3.3V198.7z M46.7,196.4
	c0-1.3,0.5-2.8,2-2.8c1.4,0,2,1.4,2,2.8s-0.6,2.8-2,2.8C47.2,199.1,46.7,197.7,46.7,196.4z M50,196.4c0-1.3-0.4-2.3-1.4-2.3
	c-1,0-1.4,1-1.4,2.3s0.4,2.3,1.4,2.3C49.6,198.6,50,197.6,50,196.4z M52.5,194.3l-1,0.3l-0.1-0.5l1.3-0.4h0.5v5.3h-0.6V194.3z
	 M54.5,198.7c0.8,0,1.5-0.2,1.9-0.8c0.3-0.4,0.5-0.8,0.6-1.5c-0.3,0.3-0.7,0.5-1.2,0.5c-1,0-1.6-0.7-1.6-1.6s0.6-1.7,1.7-1.7
	c1.3,0,1.8,1.2,1.8,2.3c0,2-1,3.3-3,3.3L54.5,198.7z M57.1,196v-0.1c0-1.1-0.4-1.8-1.2-1.8c-0.7,0-1,0.6-1,1.2
	c0,0.8,0.4,1.2,1.1,1.2C56.4,196.5,56.8,196.3,57.1,196z"/>
<path class="st0" d="M90.2,198.8c0.9-0.9,2.5-2.4,2.5-3.6c0-0.7-0.4-1-0.9-1c-0.6,0-0.9,0.3-1.2,0.5l-0.3-0.4
	c0.3-0.4,0.8-0.7,1.5-0.7c0.9,0,1.6,0.5,1.6,1.4c0,1.2-1.3,2.5-2.3,3.5c0,0,0.3,0,0.6,0h1.8v0.5h-3.3V198.8z M94.2,196.4
	c0-1.3,0.5-2.8,2-2.8c1.4,0,2,1.4,2,2.8s-0.6,2.8-2,2.8C94.8,199.2,94.2,197.8,94.2,196.4z M97.6,196.4c0-1.3-0.4-2.3-1.4-2.3
	c-1,0-1.4,1-1.4,2.3s0.4,2.3,1.4,2.3C97.2,198.7,97.6,197.7,97.6,196.4z M98.9,198.8c0.9-0.9,2.5-2.4,2.5-3.6c0-0.7-0.4-1-0.9-1
	c-0.6,0-0.9,0.3-1.2,0.5l-0.3-0.4c0.3-0.4,0.8-0.7,1.5-0.7c0.9,0,1.6,0.5,1.6,1.4c0,1.2-1.3,2.5-2.3,3.5c0,0,0.3,0,0.6,0h1.8v0.5
	h-3.3V198.8z M102.9,196.4c0-1.3,0.5-2.8,2-2.8c1.4,0,2,1.4,2,2.8s-0.6,2.8-2,2.8C103.5,199.2,102.9,197.8,102.9,196.4z
	 M106.3,196.4c0-1.3-0.4-2.3-1.4-2.3c-1,0-1.4,1-1.4,2.3s0.4,2.3,1.4,2.3C105.9,198.7,106.3,197.7,106.3,196.4z"/>
<path class="st0" d="M137.9,198.8c0.9-0.9,2.5-2.4,2.5-3.6c0-0.7-0.4-1-0.9-1c-0.6,0-0.9,0.3-1.2,0.5l-0.3-0.4
	c0.3-0.4,0.8-0.7,1.5-0.7c0.9,0,1.6,0.5,1.6,1.4c0,1.2-1.3,2.5-2.3,3.5c0,0,0.3,0,0.6,0h1.8v0.5h-3.3V198.8z M142.1,196.4
	c0-1.3,0.5-2.8,2-2.8c1.4,0,2,1.4,2,2.8s-0.6,2.8-2,2.8C142.6,199.2,142.1,197.8,142.1,196.4z M145.5,196.4c0-1.3-0.4-2.3-1.4-2.3
	c-1,0-1.4,1-1.4,2.3s0.4,2.3,1.4,2.3C145,198.7,145.5,197.7,145.5,196.4z M146.8,198.8c0.9-0.9,2.5-2.4,2.5-3.6c0-0.7-0.4-1-0.9-1
	c-0.6,0-0.9,0.3-1.2,0.5l-0.3-0.4c0.3-0.4,0.8-0.7,1.5-0.7c0.9,0,1.6,0.5,1.6,1.4c0,1.2-1.3,2.5-2.3,3.5c0,0,0.3,0,0.6,0h1.8v0.5
	h-3.3V198.8z M151.9,194.3l-1,0.3l-0.1-0.5l1.3-0.4h0.5v5.3h-0.6V194.3z M154.2,193.8h2.7v0.5h-2.1v1.7h1.9v0.5h-1.9v2h2.2v0.5h-2.8
	V193.8z"/>
<path class="st0" d="M185.7,198.8c0.9-0.9,2.5-2.4,2.5-3.6c0-0.7-0.4-1-0.9-1c-0.6,0-0.9,0.3-1.2,0.5l-0.3-0.4
	c0.3-0.4,0.8-0.7,1.5-0.7c0.9,0,1.6,0.5,1.6,1.4c0,1.2-1.3,2.5-2.3,3.5c0,0,0.3,0,0.6,0h1.8v0.5h-3.3V198.8z M189.9,196.4
	c0-1.3,0.5-2.8,2-2.8c1.4,0,2,1.4,2,2.8s-0.6,2.8-2,2.8C190.5,199.2,189.9,197.8,189.9,196.4z M193.3,196.4c0-1.3-0.4-2.3-1.4-2.3
	c-1,0-1.4,1-1.4,2.3s0.4,2.3,1.4,2.3C192.8,198.7,193.3,197.7,193.3,196.4z M194.7,198.8c0.9-0.9,2.5-2.4,2.5-3.6c0-0.7-0.4-1-0.9-1
	c-0.6,0-0.9,0.3-1.2,0.5l-0.3-0.4c0.3-0.4,0.8-0.7,1.5-0.7c0.9,0,1.6,0.5,1.6,1.4c0,1.2-1.3,2.5-2.3,3.5c0,0,0.3,0,0.6,0h1.8v0.5
	h-3.3V198.8z M198.7,198.8c0.9-0.9,2.5-2.4,2.5-3.6c0-0.7-0.4-1-0.9-1c-0.6,0-0.9,0.3-1.2,0.5l-0.3-0.4c0.3-0.4,0.8-0.7,1.5-0.7
	c0.9,0,1.6,0.5,1.6,1.4c0,1.2-1.3,2.5-2.3,3.5c0,0,0.3,0,0.6,0h1.8v0.5h-3.3V198.8z M203.3,193.8h2.7v0.5h-2.1v1.7h1.9v0.5h-1.9v2
	h2.2v0.5h-2.8V193.8z"/>
<line class="st3" x1="26.3" y1="24.4" x2="26.3" y2="192.6"/>
<line class="st3" x1="50.2" y1="185.8" x2="50.2" y2="192"/>
<line class="st3" x1="98.6" y1="185.8" x2="98.6" y2="192"/>
<line class="st3" x1="147.6" y1="185.8" x2="147.6" y2="192"/>
<line class="st3" x1="196" y1="185.8" x2="196" y2="192"/>
<line class="st3" x1="220.7" y1="24.4" x2="220.7" y2="186.3"/>
<line class="st3" x1="24.6" y1="186.4" x2="222.3" y2="186.4"/>
<path class="st0" d="M223.5,25c0-2,1.2-3.3,3.1-3.3l0.1,0.5c-0.8,0-1.4,0.2-1.9,0.6c-0.4,0.4-0.6,0.9-0.7,1.6
	c0.3-0.3,0.7-0.5,1.2-0.5c1,0,1.6,0.7,1.6,1.6s-0.6,1.7-1.7,1.7C224,27.3,223.5,26.1,223.5,25z M226.4,25.6c0-0.8-0.4-1.2-1.1-1.2
	c-0.5,0-0.8,0.2-1.1,0.5V25c0,1.1,0.4,1.8,1.2,1.8C226,26.8,226.4,26.2,226.4,25.6z M227.7,24.5c0-1.3,0.5-2.8,2-2.8
	c1.4,0,2,1.4,2,2.8s-0.6,2.8-2,2.8C228.3,27.3,227.7,25.8,227.7,24.5z M231.1,24.5c0-1.3-0.4-2.3-1.4-2.3c-1,0-1.4,1-1.4,2.3
	s0.4,2.3,1.4,2.3C230.7,26.8,231.1,25.8,231.1,24.5z M232.5,23.1c0-0.6,0.4-1.3,1.4-1.3c1,0,1.4,0.7,1.4,1.3c0,0.6-0.4,1.3-1.4,1.3
	C232.9,24.5,232.5,23.7,232.5,23.1z M234.7,23.1c0-0.5-0.3-0.9-0.9-0.9s-0.9,0.4-0.9,0.9c0,0.5,0.3,0.9,0.9,0.9
	C234.4,24,234.7,23.6,234.7,23.1z M236.9,21.9h0.6l-3.4,5.3h-0.6L236.9,21.9z M235.8,25.9c0-0.6,0.4-1.3,1.4-1.3
	c1,0,1.4,0.7,1.4,1.3c0,0.6-0.4,1.3-1.4,1.3C236.2,27.2,235.8,26.5,235.8,25.9z M238.1,25.9c0-0.5-0.3-0.9-0.9-0.9s-0.9,0.4-0.9,0.9
	c0,0.5,0.3,0.9,0.9,0.9C237.7,26.8,238.1,26.4,238.1,25.9z"/>
<path class="st0" d="M223.6,185.7h1.6v0.5h-1.6V185.7z M226,188.4c0.9-0.9,2.5-2.4,2.5-3.6c0-0.7-0.4-1-0.9-1
	c-0.6,0-0.9,0.3-1.2,0.5L226,184c0.3-0.4,0.8-0.7,1.5-0.7c0.9,0,1.6,0.5,1.6,1.4c0,1.2-1.3,2.5-2.3,3.5c0,0,0.3,0,0.6,0h1.8v0.5H226
	V188.4z M230.1,186.1c0-1.3,0.5-2.8,2-2.8c1.4,0,2,1.4,2,2.8s-0.6,2.8-2,2.8C230.7,188.9,230.1,187.4,230.1,186.1z M233.5,186.1
	c0-1.3-0.4-2.3-1.4-2.3c-1,0-1.4,1-1.4,2.3s0.4,2.3,1.4,2.3C233.1,188.4,233.5,187.4,233.5,186.1z M234.9,184.7
	c0-0.6,0.4-1.3,1.4-1.3c1,0,1.4,0.7,1.4,1.3c0,0.6-0.4,1.3-1.4,1.3C235.3,186,234.9,185.3,234.9,184.7z M237.1,184.7
	c0-0.5-0.3-0.9-0.9-0.9s-0.9,0.4-0.9,0.9c0,0.5,0.3,0.9,0.9,0.9C236.8,185.6,237.1,185.2,237.1,184.7z M239.3,183.4h0.6l-3.4,5.3
	h-0.6L239.3,183.4z M238.2,187.5c0-0.6,0.4-1.3,1.4-1.3c1,0,1.4,0.7,1.4,1.3c0,0.6-0.4,1.3-1.4,1.3
	C238.6,188.8,238.2,188.1,238.2,187.5z M240.4,187.5c0-0.5-0.3-0.9-0.9-0.9s-0.9,0.4-0.9,0.9c0,0.5,0.3,0.9,0.9,0.9
	C240.1,188.4,240.4,188,240.4,187.5z"/>
<path class="st0" d="M225.8,68.6h-2.5v-0.5l2.4-3.6h0.6V68h0.8v0.5h-0.8v1.2h-0.6V68.6z M224.6,68h1.2v-2.7h0l-1.8,2.8
	C224.1,68.1,224.4,68,224.6,68z M227.8,67.1c0-1.3,0.5-2.8,2-2.8c1.4,0,2,1.4,2,2.8s-0.6,2.8-2,2.8
	C228.4,69.9,227.8,68.4,227.8,67.1z M231.2,67.1c0-1.3-0.4-2.3-1.4-2.3c-1,0-1.4,1-1.4,2.3s0.4,2.3,1.4,2.3
	C230.8,69.4,231.2,68.4,231.2,67.1z M232.6,65.7c0-0.6,0.4-1.3,1.4-1.3c1,0,1.4,0.7,1.4,1.3c0,0.6-0.4,1.3-1.4,1.3
	C233,67,232.6,66.3,232.6,65.7z M234.8,65.7c0-0.5-0.3-0.9-0.9-0.9s-0.9,0.4-0.9,0.9c0,0.5,0.3,0.9,0.9,0.9
	C234.5,66.6,234.8,66.2,234.8,65.7z M237,64.5h0.6l-3.4,5.3h-0.6L237,64.5z M235.9,68.5c0-0.6,0.4-1.3,1.4-1.3c1,0,1.4,0.7,1.4,1.3
	c0,0.6-0.4,1.3-1.4,1.3C236.3,69.8,235.9,69.1,235.9,68.5z M238.1,68.5c0-0.5-0.3-0.9-0.9-0.9s-0.9,0.4-0.9,0.9
	c0,0.5,0.3,0.9,0.9,0.9C237.8,69.4,238.1,69,238.1,68.5z"/>
<path class="st0" d="M223.4,108.1c0.9-0.9,2.5-2.4,2.5-3.6c0-0.7-0.4-1-0.9-1c-0.6,0-0.9,0.3-1.2,0.5l-0.3-0.4
	c0.3-0.4,0.8-0.7,1.5-0.7c0.9,0,1.6,0.5,1.6,1.4c0,1.2-1.3,2.5-2.3,3.5c0,0,0.3,0,0.6,0h1.8v0.5h-3.3V108.1z M227.6,105.7
	c0-1.3,0.5-2.8,2-2.8c1.4,0,2,1.4,2,2.8s-0.6,2.8-2,2.8C228.1,108.5,227.6,107.1,227.6,105.7z M230.9,105.7c0-1.3-0.4-2.3-1.4-2.3
	c-1,0-1.4,1-1.4,2.3s0.4,2.3,1.4,2.3C230.5,108,230.9,107,230.9,105.7z M232.3,104.3c0-0.6,0.4-1.3,1.4-1.3c1,0,1.4,0.7,1.4,1.3
	c0,0.6-0.4,1.3-1.4,1.3C232.7,105.7,232.3,104.9,232.3,104.3z M234.5,104.3c0-0.5-0.3-0.9-0.9-0.9s-0.9,0.4-0.9,0.9
	c0,0.5,0.3,0.9,0.9,0.9C234.2,105.2,234.5,104.8,234.5,104.3z M236.8,103.1h0.6l-3.4,5.3h-0.6L236.8,103.1z M235.6,107.1
	c0-0.6,0.4-1.3,1.4-1.3c1,0,1.4,0.7,1.4,1.3c0,0.6-0.4,1.3-1.4,1.3C236,108.5,235.6,107.7,235.6,107.1z M237.9,107.1
	c0-0.5-0.3-0.9-0.9-0.9s-0.9,0.4-0.9,0.9c0,0.5,0.3,0.9,0.9,0.9C237.5,108,237.9,107.6,237.9,107.1z"/>
<path class="st0" d="M223.5,146.1c0-1.3,0.5-2.8,2-2.8c1.4,0,2,1.4,2,2.8s-0.6,2.8-2,2.8C224.1,148.9,223.5,147.4,223.5,146.1z
	 M226.9,146.1c0-1.3-0.4-2.3-1.4-2.3c-1,0-1.4,1-1.4,2.3s0.4,2.3,1.4,2.3C226.5,148.4,226.9,147.4,226.9,146.1z M228.3,144.7
	c0-0.6,0.4-1.3,1.4-1.3c1,0,1.4,0.7,1.4,1.3c0,0.6-0.4,1.3-1.4,1.3C228.7,146.1,228.3,145.3,228.3,144.7z M230.5,144.7
	c0-0.5-0.3-0.9-0.9-0.9s-0.9,0.4-0.9,0.9c0,0.5,0.3,0.9,0.9,0.9C230.2,145.6,230.5,145.2,230.5,144.7z M232.7,143.5h0.6l-3.4,5.3
	h-0.6L232.7,143.5z M231.6,147.5c0-0.6,0.4-1.3,1.4-1.3c1,0,1.4,0.7,1.4,1.3c0,0.6-0.4,1.3-1.4,1.3
	C232,148.9,231.6,148.1,231.6,147.5z M233.8,147.5c0-0.5-0.3-0.9-0.9-0.9s-0.9,0.4-0.9,0.9c0,0.5,0.3,0.9,0.9,0.9
	C233.5,148.4,233.8,148,233.8,147.5z"/>
<line class="st3" x1="24.7" y1="65.8" x2="222" y2="65.8"/>
<line class="st3" x1="24.7" y1="24.7" x2="222" y2="24.7"/>
<line class="st3" x1="24.7" y1="105.8" x2="222" y2="105.8"/>
<line class="st3" x1="24.7" y1="146.6" x2="222" y2="146.6"/>
<path class="st0" d="M10.2,26.8c0.9-0.9,2.5-2.4,2.5-3.6c0-0.7-0.4-1-0.9-1c-0.6,0-0.9,0.3-1.2,0.5l-0.3-0.4
	c0.3-0.4,0.8-0.7,1.5-0.7c0.9,0,1.6,0.5,1.6,1.4c0,1.2-1.3,2.5-2.3,3.5c0,0,0.3,0,0.6,0h1.8v0.5h-3.3V26.8z M16.6,26h-2.5v-0.5
	l2.4-3.6h0.6v3.6H18V26h-0.8v1.2h-0.6V26z M15.5,25.4h1.2v-2.7h0l-1.8,2.8C14.9,25.5,15.2,25.4,15.5,25.4z M18.6,24.5
	c0-1.3,0.5-2.8,2-2.8c1.4,0,2,1.4,2,2.8s-0.6,2.8-2,2.8C19.2,27.3,18.6,25.8,18.6,24.5z M22,24.5c0-1.3-0.4-2.3-1.4-2.3
	c-1,0-1.4,1-1.4,2.3s0.4,2.3,1.4,2.3C21.6,26.8,22,25.8,22,24.5z"/>
<path class="st0" d="M12.8,65l-1,0.3l-0.1-0.5l1.3-0.4h0.5v5.3h-0.6V65z M14.6,68.5c0-0.7,0.7-1.2,1.1-1.5c-0.5-0.3-1-0.7-1-1.3
	c0-0.8,0.7-1.3,1.5-1.3c0.9,0,1.5,0.5,1.5,1.3c0,0.7-0.6,1-1.1,1.3c0.5,0.3,1.2,0.7,1.2,1.5c0,0.8-0.6,1.4-1.6,1.4
	C15.1,69.9,14.6,69.2,14.6,68.5z M17.2,68.4c0-0.6-0.6-1-1.1-1.2c-0.4,0.2-0.9,0.6-0.9,1.2c0,0.5,0.3,0.9,1,0.9
	C16.8,69.4,17.2,69,17.2,68.4z M17.1,65.7c0-0.4-0.3-0.8-0.8-0.8s-0.9,0.3-0.9,0.8c0,0.5,0.5,0.8,0.9,1
	C16.6,66.4,17.1,66.2,17.1,65.7z M18.6,67.1c0-1.3,0.5-2.8,2-2.8c1.4,0,2,1.4,2,2.8s-0.6,2.8-2,2.8C19.2,69.9,18.6,68.4,18.6,67.1z
	 M22,67.1c0-1.3-0.4-2.3-1.4-2.3c-1,0-1.4,1-1.4,2.3s0.4,2.3,1.4,2.3C21.6,69.4,22,68.4,22,67.1z"/>
<path class="st0" d="M18.6,186.1c0-1.3,0.5-2.8,2-2.8c1.4,0,2,1.4,2,2.8s-0.6,2.8-2,2.8C19.2,188.9,18.6,187.4,18.6,186.1z
	 M22,186.1c0-1.3-0.4-2.3-1.4-2.3c-1,0-1.4,1-1.4,2.3s0.4,2.3,1.4,2.3C21.6,188.4,22,187.4,22,186.1z"/>
<path class="st0" d="M12.7,103.6l-1,0.3l-0.1-0.5l1.3-0.4h0.5v5.3h-0.6V103.6z M14.5,108.1c0.9-0.9,2.5-2.4,2.5-3.6
	c0-0.7-0.4-1-0.9-1c-0.6,0-0.9,0.3-1.2,0.5l-0.3-0.4c0.3-0.4,0.8-0.7,1.5-0.7c0.9,0,1.6,0.5,1.6,1.4c0,1.2-1.3,2.5-2.3,3.5
	c0,0,0.3,0,0.6,0h1.8v0.5h-3.3V108.1z M18.6,105.7c0-1.3,0.5-2.8,2-2.8c1.4,0,2,1.4,2,2.8s-0.6,2.8-2,2.8
	C19.2,108.5,18.6,107.1,18.6,105.7z M22,105.7c0-1.3-0.4-2.3-1.4-2.3c-1,0-1.4,1-1.4,2.3s0.4,2.3,1.4,2.3C21.6,108,22,107,22,105.7z
	"/>
<path class="st0" d="M14.4,146.6c0-2,1.2-3.3,3.1-3.3l0.1,0.5c-0.8,0-1.4,0.2-1.9,0.6c-0.4,0.4-0.6,0.9-0.7,1.6
	c0.3-0.3,0.7-0.5,1.2-0.5c1,0,1.6,0.7,1.6,1.6s-0.6,1.7-1.7,1.7C14.9,148.9,14.4,147.7,14.4,146.6z M17.3,147.2
	c0-0.8-0.4-1.2-1.1-1.2c-0.5,0-0.8,0.2-1.1,0.5v0.1c0,1.1,0.4,1.8,1.2,1.8C17,148.4,17.3,147.8,17.3,147.2z M18.6,146.1
	c0-1.3,0.5-2.8,2-2.8c1.4,0,2,1.4,2,2.8s-0.6,2.8-2,2.8C19.2,148.9,18.6,147.4,18.6,146.1z M22,146.1c0-1.3-0.4-2.3-1.4-2.3
	c-1,0-1.4,1-1.4,2.3s0.4,2.3,1.4,2.3C21.6,148.4,22,147.4,22,146.1z"/>
<rect x="38" y="76.9" class="st4" width="24.2" height="109.5"/>
<rect x="135.5" y="49.3" class="st4" width="24.2" height="137.1"/>
<rect x="86.5" y="92" class="st4" width="24.2" height="94.4"/>
<rect x="183.9" y="38.6" class="st4" width="24.2" height="147.8"/>
<path class="st5" d="M47.2,137.2l-1,0.3l-0.1-0.5l1.3-0.4h0.5v5.3h-0.6V137.2z M48.9,137.9c0-0.6,0.4-1.3,1.4-1.3
	c1,0,1.4,0.7,1.4,1.3c0,0.6-0.4,1.3-1.4,1.3C49.3,139.3,48.9,138.5,48.9,137.9z M51.1,137.9c0-0.5-0.3-0.9-0.9-0.9s-0.9,0.4-0.9,0.9
	c0,0.5,0.3,0.9,0.9,0.9C50.8,138.8,51.1,138.4,51.1,137.9z M53.4,136.7h0.6l-3.4,5.3h-0.6L53.4,136.7z M52.2,140.7
	c0-0.6,0.4-1.3,1.4-1.3c1,0,1.4,0.7,1.4,1.3c0,0.6-0.4,1.3-1.4,1.3C52.6,142.1,52.2,141.3,52.2,140.7z M54.5,140.7
	c0-0.5-0.3-0.9-0.9-0.9s-0.9,0.4-0.9,0.9c0,0.5,0.3,0.9,0.9,0.9C54.1,141.6,54.5,141.2,54.5,140.7z"/>
<path class="st5" d="M92.6,178.6h1.6v0.5h-1.6V178.6z M96,176.9l-1,0.3l-0.1-0.5l1.3-0.4h0.5v5.3H96V176.9z M100.2,180.5h-2.5V180
	l2.4-3.6h0.6v3.6h0.8v0.5h-0.8v1.2h-0.6V180.5z M99,179.9h1.2v-2.7h0l-1.8,2.8C98.5,180,98.8,179.9,99,179.9z M102,177.6
	c0-0.6,0.4-1.3,1.4-1.3c1,0,1.4,0.7,1.4,1.3c0,0.6-0.4,1.3-1.4,1.3C102.4,178.9,102,178.2,102,177.6z M104.3,177.6
	c0-0.5-0.3-0.9-0.9-0.9s-0.9,0.4-0.9,0.9c0,0.5,0.3,0.9,0.9,0.9C104,178.5,104.3,178.1,104.3,177.6z M106.5,176.4h0.6l-3.4,5.3h-0.6
	L106.5,176.4z M105.4,180.4c0-0.6,0.4-1.3,1.4-1.3c1,0,1.4,0.7,1.4,1.3c0,0.6-0.4,1.3-1.4,1.3C105.8,181.7,105.4,181,105.4,180.4z
	 M107.6,180.4c0-0.5-0.3-0.9-0.9-0.9s-0.9,0.4-0.9,0.9c0,0.5,0.3,0.9,0.9,0.9C107.3,181.3,107.6,180.9,107.6,180.4z"/>
<path class="st5" d="M193.4,136.5c0-0.7,0.7-1.2,1.1-1.5c-0.5-0.3-1-0.7-1-1.3c0-0.8,0.7-1.3,1.5-1.3c0.9,0,1.5,0.5,1.5,1.3
	c0,0.7-0.6,1-1.1,1.3c0.5,0.3,1.2,0.7,1.2,1.5c0,0.8-0.6,1.4-1.6,1.4C193.9,137.9,193.4,137.2,193.4,136.5z M196,136.5
	c0-0.6-0.6-1-1.1-1.2c-0.4,0.2-0.9,0.6-0.9,1.2c0,0.5,0.3,0.9,1,0.9C195.6,137.4,196,137,196,136.5z M195.9,133.7
	c0-0.4-0.3-0.8-0.8-0.8s-0.9,0.3-0.9,0.8c0,0.5,0.5,0.8,0.9,1C195.4,134.5,195.9,134.2,195.9,133.7z M197.3,133.7
	c0-0.6,0.4-1.3,1.4-1.3c1,0,1.4,0.7,1.4,1.3c0,0.6-0.4,1.3-1.4,1.3C197.7,135.1,197.3,134.4,197.3,133.7z M199.5,133.7
	c0-0.5-0.3-0.9-0.9-0.9s-0.9,0.4-0.9,0.9c0,0.5,0.3,0.9,0.9,0.9C199.2,134.7,199.5,134.3,199.5,133.7z M201.8,132.5h0.6l-3.4,5.3
	h-0.6L201.8,132.5z M200.6,136.5c0-0.6,0.4-1.3,1.4-1.3c1,0,1.4,0.7,1.4,1.3c0,0.6-0.4,1.3-1.4,1.3
	C201,137.9,200.6,137.1,200.6,136.5z M202.9,136.5c0-0.5-0.3-0.9-0.9-0.9s-0.9,0.4-0.9,0.9c0,0.5,0.3,0.9,0.9,0.9
	C202.5,137.4,202.9,137.1,202.9,136.5z"/>
<polyline class="st6" points="50.5,144.4 99.1,174.5 147.7,53.8 196.3,130.1 "/>
<path class="st0" d="M143.9,46.4h-2.5v-0.5l2.4-3.6h0.6v3.6h0.8v0.5h-0.8v1.2h-0.6V46.4z M142.7,45.9h1.2v-2.7h0l-1.8,2.8
	C142.1,45.9,142.4,45.9,142.7,45.9z M145.9,45.4c0-2,1.2-3.3,3.1-3.3l0.1,0.5c-0.8,0-1.4,0.2-1.9,0.6c-0.4,0.4-0.6,0.9-0.7,1.6
	c0.3-0.3,0.7-0.5,1.2-0.5c1,0,1.6,0.7,1.6,1.6s-0.6,1.7-1.7,1.7C146.4,47.7,145.9,46.5,145.9,45.4z M148.7,46c0-0.8-0.4-1.2-1.1-1.2
	c-0.5,0-0.8,0.2-1.1,0.5v0.1c0,1.1,0.4,1.8,1.2,1.8C148.4,47.2,148.7,46.6,148.7,46z M149.9,43.5c0-0.6,0.4-1.3,1.4-1.3
	c1,0,1.4,0.7,1.4,1.3c0,0.6-0.4,1.3-1.4,1.3C150.3,44.9,149.9,44.1,149.9,43.5z M152.2,43.5c0-0.5-0.3-0.9-0.9-0.9s-0.9,0.4-0.9,0.9
	c0,0.5,0.3,0.9,0.9,0.9C151.9,44.4,152.2,44,152.2,43.5z M154.4,42.3h0.6l-3.4,5.3H151L154.4,42.3z M153.3,46.3
	c0-0.6,0.4-1.3,1.4-1.3c1,0,1.4,0.7,1.4,1.3c0,0.6-0.4,1.3-1.4,1.3C153.7,47.7,153.3,46.9,153.3,46.3z M155.5,46.3
	c0-0.5-0.3-0.9-0.9-0.9s-0.9,0.4-0.9,0.9c0,0.5,0.3,0.9,0.9,0.9C155.2,47.2,155.5,46.8,155.5,46.3z"/>
</svg>
