<?xml version="1.0" encoding="utf-8"?>
<!-- Generator: Adobe Illustrator 26.0.1, SVG Export Plug-In . SVG Version: 6.00 Build 0)  -->
<svg version="1.1" id="Layer_3" xmlns="http://www.w3.org/2000/svg" xmlns:xlink="http://www.w3.org/1999/xlink" x="0px" y="0px"
	 viewBox="0 0 250 250" style="enable-background:new 0 0 250 250;" xml:space="preserve">
<style type="text/css">
	.st0{fill:#4D4D4F;}
	.st1{fill:none;stroke:#BCBEC0;stroke-width:0.5;}
	.st2{fill:none;stroke:#555555;stroke-width:2;}
	.st3{fill:none;stroke:#B19E4E;stroke-linecap:round;stroke-linejoin:round;stroke-miterlimit:10;}
</style>
<path class="st0" d="M59.7,224.8c0.9-0.9,2.5-2.4,2.5-3.6c0-0.7-0.4-1-0.9-1c-0.6,0-0.9,0.3-1.2,0.5l-0.3-0.4
	c0.3-0.4,0.8-0.7,1.5-0.7c0.9,0,1.6,0.5,1.6,1.4c0,1.2-1.3,2.5-2.3,3.5c0,0,0.3,0,0.6,0H63v0.5h-3.3V224.8z M63.9,222.5
	c0-1.3,0.5-2.8,2-2.8c1.4,0,2,1.4,2,2.8s-0.6,2.8-2,2.8C64.4,225.3,63.9,223.8,63.9,222.5z M67.3,222.5c0-1.3-0.4-2.3-1.4-2.3
	s-1.4,1-1.4,2.3s0.4,2.3,1.4,2.3C66.8,224.8,67.3,223.8,67.3,222.5z M69.7,220.4l-1,0.3l-0.1-0.5l1.3-0.4h0.5v5.3h-0.6v-4.7H69.7z
	 M71.8,225.2l1.9-4.8h-2.4v-0.5h3v0.4l-2,5.1L71.8,225.2z"/>
<path class="st0" d="M17.6,224.8c0.9-0.9,2.5-2.4,2.5-3.6c0-0.7-0.4-1-0.9-1c-0.6,0-0.9,0.3-1.2,0.5l-0.3-0.4
	c0.3-0.4,0.8-0.7,1.5-0.7c0.9,0,1.6,0.5,1.6,1.4c0,1.2-1.3,2.5-2.3,3.5c0,0,0.3,0,0.6,0h1.8v0.5h-3.3
	C17.6,225,17.6,224.8,17.6,224.8z M21.8,222.5c0-1.3,0.5-2.8,2-2.8c1.4,0,2,1.4,2,2.8s-0.6,2.8-2,2.8S21.8,223.8,21.8,222.5z
	 M25.2,222.5c0-1.3-0.4-2.3-1.4-2.3s-1.4,1-1.4,2.3s0.4,2.3,1.4,2.3C24.7,224.8,25.2,223.8,25.2,222.5z M27.6,220.4l-1,0.3l-0.1-0.5
	l1.3-0.4h0.5v5.3h-0.6L27.6,220.4L27.6,220.4z M29.5,223c0-2,1.2-3.3,3.1-3.3l0.1,0.5c-0.8,0-1.4,0.2-1.9,0.6
	c-0.4,0.4-0.6,0.9-0.7,1.6c0.3-0.3,0.7-0.5,1.2-0.5c1,0,1.6,0.7,1.6,1.6s-0.6,1.7-1.7,1.7C30,225.3,29.5,224.1,29.5,223z
	 M32.3,223.6c0-0.8-0.4-1.2-1.1-1.2c-0.5,0-0.8,0.2-1.1,0.5v0.1c0,1.1,0.4,1.8,1.2,1.8C32,224.8,32.3,224.2,32.3,223.6z"/>
<path class="st0" d="M13.2,208l-1,0.3l-0.1-0.5l1.3-0.4h0.5v5.3h-0.6L13.2,208L13.2,208z M14.9,212.4c0.9-0.9,2.5-2.4,2.5-3.6
	c0-0.7-0.4-1-0.9-1c-0.6,0-0.9,0.3-1.2,0.5L15,208c0.3-0.4,0.8-0.7,1.5-0.7c0.9,0,1.6,0.5,1.6,1.4c0,1.2-1.3,2.5-2.3,3.5
	c0,0,0.3,0,0.6,0h1.8v0.5h-3.3C14.9,212.7,14.9,212.4,14.9,212.4z"/>
<path class="st0" d="M13.6,160.2l-1,0.3l-0.1-0.5l1.3-0.4h0.5v5.3h-0.6L13.6,160.2L13.6,160.2z M15.4,165l0.1-0.5c0.1,0,0.2,0,0.5,0
	c0.9,0,1.7-0.4,1.7-1.3c0-0.9-0.7-1.2-1.6-1.2c-0.2,0-0.4,0-0.4,0l0.2-2.5h2.4v0.5h-1.8l-0.1,1.4c1.3,0,2,0.6,2,1.6
	c0,1.2-1,1.8-2.4,1.8C15.7,165,15.5,165,15.4,165z"/>
<path class="st0" d="M13.3,112l-1,0.3l-0.1-0.5l1.3-0.4H14v5.3h-0.6L13.3,112L13.3,112z M15.1,115.5c0-0.7,0.7-1.2,1.1-1.5
	c-0.5-0.3-1-0.7-1-1.3c0-0.8,0.7-1.3,1.5-1.3c0.9,0,1.5,0.5,1.5,1.3c0,0.7-0.6,1-1.1,1.3c0.5,0.3,1.2,0.7,1.2,1.5s-0.6,1.4-1.6,1.4
	C15.6,116.8,15.1,116.2,15.1,115.5z M17.7,115.4c0-0.6-0.6-1-1.1-1.2c-0.4,0.2-0.9,0.6-0.9,1.2c0,0.5,0.3,0.9,1,0.9
	C17.3,116.3,17.7,115.9,17.7,115.4z M17.6,112.6c0-0.4-0.3-0.8-0.8-0.8s-0.9,0.3-0.9,0.8s0.5,0.8,0.9,1
	C17.1,113.4,17.6,113.1,17.6,112.6z"/>
<path class="st0" d="M12.1,67.9c0.9-0.9,2.5-2.4,2.5-3.6c0-0.7-0.4-1-0.9-1c-0.6,0-0.9,0.3-1.2,0.5l-0.3-0.4
	c0.3-0.4,0.8-0.7,1.5-0.7c0.9,0,1.6,0.5,1.6,1.4c0,1.2-1.3,2.5-2.3,3.5c0,0,0.3,0,0.6,0h1.8v0.5h-3.3C12.1,68.1,12.1,67.9,12.1,67.9
	z M17.2,63.4l-1,0.3l-0.1-0.5l1.3-0.4h0.5v5.3h-0.6L17.2,63.4L17.2,63.4z"/>
<path class="st0" d="M10.6,20.7c0.9-0.9,2.5-2.4,2.5-3.6c0-0.7-0.4-1-0.9-1c-0.6,0-0.9,0.3-1.2,0.5l-0.3-0.4
	c0.3-0.4,0.8-0.7,1.5-0.7c0.9,0,1.6,0.5,1.6,1.4c0,1.2-1.3,2.5-2.3,3.5c0,0,0.3,0,0.6,0h1.8v0.5h-3.3C10.6,20.9,10.6,20.7,10.6,20.7
	z M17.1,19.9h-2.5v-0.5l2.4-3.6h0.6v3.6h0.8v0.5h-0.8v1.2H17v-1.2H17.1z M15.9,19.3h1.2v-2.7l0,0l-1.8,2.8
	C15.4,19.4,15.7,19.3,15.9,19.3z"/>
<path class="st0" d="M101.7,224.8c0.9-0.9,2.5-2.4,2.5-3.6c0-0.7-0.4-1-0.9-1c-0.6,0-0.9,0.3-1.2,0.5l-0.3-0.4
	c0.3-0.4,0.8-0.7,1.5-0.7c0.9,0,1.6,0.5,1.6,1.4c0,1.2-1.3,2.5-2.3,3.5c0,0,0.3,0,0.6,0h1.8v0.5h-3.3
	C101.7,225,101.7,224.8,101.7,224.8z M105.8,222.5c0-1.3,0.5-2.8,2-2.8c1.4,0,2,1.4,2,2.8s-0.6,2.8-2,2.8S105.8,223.8,105.8,222.5z
	 M109.2,222.5c0-1.3-0.4-2.3-1.4-2.3s-1.4,1-1.4,2.3s0.4,2.3,1.4,2.3C108.8,224.8,109.2,223.8,109.2,222.5z M111.6,220.4l-1,0.3
	l-0.1-0.5l1.3-0.4h0.5v5.3h-0.6v-4.7H111.6z M113.4,223.9c0-0.7,0.7-1.2,1.1-1.5c-0.5-0.3-1-0.7-1-1.3c0-0.8,0.7-1.3,1.5-1.3
	c0.9,0,1.5,0.5,1.5,1.3c0,0.7-0.6,1-1.1,1.3c0.5,0.3,1.2,0.7,1.2,1.5s-0.6,1.4-1.6,1.4C113.9,225.3,113.4,224.6,113.4,223.9z
	 M116,223.8c0-0.6-0.6-1-1.1-1.2c-0.4,0.2-0.9,0.6-0.9,1.2c0,0.5,0.3,0.9,1,0.9C115.7,224.8,116,224.4,116,223.8z M115.9,221.1
	c0-0.4-0.3-0.8-0.8-0.8s-0.9,0.3-0.9,0.8s0.5,0.8,0.9,1C115.5,221.8,115.9,221.5,115.9,221.1z"/>
<path class="st0" d="M144,224.8c0.9-0.9,2.5-2.4,2.5-3.6c0-0.7-0.4-1-0.9-1c-0.6,0-0.9,0.3-1.2,0.5l-0.3-0.4
	c0.3-0.4,0.8-0.7,1.5-0.7c0.9,0,1.6,0.5,1.6,1.4c0,1.2-1.3,2.5-2.3,3.5c0,0,0.3,0,0.6,0h1.8v0.5H144V224.8z M148.1,222.5
	c0-1.3,0.5-2.8,2-2.8c1.4,0,2,1.4,2,2.8s-0.6,2.8-2,2.8C148.7,225.3,148.1,223.8,148.1,222.5z M151.5,222.5c0-1.3-0.4-2.3-1.4-2.3
	s-1.4,1-1.4,2.3s0.4,2.3,1.4,2.3S151.5,223.8,151.5,222.5z M154,220.4l-1,0.3l-0.1-0.5l1.3-0.4h0.5v5.3H154V220.4z M156,224.8
	c0.8,0,1.5-0.2,1.9-0.8c0.3-0.4,0.5-0.8,0.6-1.5c-0.3,0.3-0.7,0.5-1.2,0.5c-1,0-1.6-0.7-1.6-1.6s0.6-1.7,1.7-1.7
	c1.3,0,1.8,1.2,1.8,2.3c0,2-1,3.3-3,3.3L156,224.8z M158.6,222.1V222c0-1.1-0.4-1.8-1.2-1.8c-0.7,0-1,0.6-1,1.2
	c0,0.8,0.4,1.2,1.1,1.2C157.9,222.6,158.2,222.4,158.6,222.1z"/>
<path class="st0" d="M185.3,224.8c0.9-0.9,2.5-2.4,2.5-3.6c0-0.7-0.4-1-0.9-1c-0.6,0-0.9,0.3-1.2,0.5l-0.3-0.4
	c0.3-0.4,0.8-0.7,1.5-0.7c0.9,0,1.6,0.5,1.6,1.4c0,1.2-1.3,2.5-2.3,3.5c0,0,0.3,0,0.6,0h1.8v0.5h-3.3L185.3,224.8L185.3,224.8z
	 M189.4,222.5c0-1.3,0.5-2.8,2-2.8c1.4,0,2,1.4,2,2.8s-0.6,2.8-2,2.8C189.9,225.3,189.4,223.8,189.4,222.5z M192.7,222.5
	c0-1.3-0.4-2.3-1.4-2.3s-1.4,1-1.4,2.3s0.4,2.3,1.4,2.3S192.7,223.8,192.7,222.5z M194,224.8c0.9-0.9,2.5-2.4,2.5-3.6
	c0-0.7-0.4-1-0.9-1c-0.6,0-0.9,0.3-1.2,0.5l-0.3-0.4c0.3-0.4,0.8-0.7,1.5-0.7c0.9,0,1.6,0.5,1.6,1.4c0,1.2-1.3,2.5-2.3,3.5
	c0,0,0.3,0,0.6,0h1.8v0.5H194V224.8z M198.1,222.5c0-1.3,0.5-2.8,2-2.8c1.4,0,2,1.4,2,2.8s-0.6,2.8-2,2.8
	C198.6,225.3,198.1,223.8,198.1,222.5z M201.4,222.5c0-1.3-0.4-2.3-1.4-2.3s-1.4,1-1.4,2.3s0.4,2.3,1.4,2.3S201.4,223.8,201.4,222.5
	z"/>
<path class="st0" d="M229.2,224.8c0.9-0.9,2.5-2.4,2.5-3.6c0-0.7-0.4-1-0.9-1c-0.6,0-0.9,0.3-1.2,0.5l-0.3-0.4
	c0.3-0.4,0.8-0.7,1.5-0.7c0.9,0,1.6,0.5,1.6,1.4c0,1.2-1.3,2.5-2.3,3.5c0,0,0.3,0,0.6,0h1.8v0.5h-3.3L229.2,224.8L229.2,224.8z
	 M233.3,222.5c0-1.3,0.5-2.8,2-2.8c1.4,0,2,1.4,2,2.8s-0.6,2.8-2,2.8C233.9,225.3,233.3,223.8,233.3,222.5z M236.7,222.5
	c0-1.3-0.4-2.3-1.4-2.3s-1.4,1-1.4,2.3s0.4,2.3,1.4,2.3S236.7,223.8,236.7,222.5z M238.1,224.8c0.9-0.9,2.5-2.4,2.5-3.6
	c0-0.7-0.4-1-0.9-1c-0.6,0-0.9,0.3-1.2,0.5l-0.3-0.4c0.3-0.4,0.8-0.7,1.5-0.7c0.9,0,1.6,0.5,1.6,1.4c0,1.2-1.3,2.5-2.3,3.5
	c0,0,0.3,0,0.6,0h1.8v0.5h-3.3L238.1,224.8L238.1,224.8z M243.2,220.4l-1,0.3l-0.1-0.5l1.3-0.4h0.5v5.3h-0.6L243.2,220.4
	L243.2,220.4z"/>
<line class="st1" x1="24.9" y1="17.4" x2="236.4" y2="17.4"/>
<line class="st1" x1="25.2" y1="17.2" x2="25.2" y2="210.5"/>
<line class="st1" x1="236.7" y1="17.2" x2="236.7" y2="210.5"/>
<line class="st1" x1="24.9" y1="65.9" x2="236.4" y2="65.9"/>
<line class="st1" x1="24.9" y1="162.2" x2="236.4" y2="162.2"/>
<line class="st2" x1="24.9" y1="114.5" x2="236.4" y2="114.5"/>
<line class="st1" x1="24.9" y1="210.4" x2="236.4" y2="210.4"/>
<path class="st0" d="M107.1,107.9l0.2-0.9c0.1,0,0.3,0.1,0.6,0.1c0.7,0,1.3-0.3,1.3-1s-0.5-0.9-1.3-0.9c-0.2,0-0.4,0-0.5,0l0.2-2.8
	h2.7v0.9h-1.7l-0.1,1c1.2,0,1.9,0.6,1.9,1.7c0,1.2-1,1.9-2.5,1.9C107.4,108,107.2,107.9,107.1,107.9z"/>
<g>
	<path class="st0" d="M111.1,105.2h1.8v0.9h-1.8V105.2z"/>
	<path class="st0" d="M113.4,109.7l0.2-0.8c0.1,0,0.1,0,0.4,0c0.5,0,0.7-0.3,0.9-0.7l0.1-0.4l-1.5-3.8h1.1l0.9,2.6l0,0l0.8-2.6h1.1
		l-1.6,4.3c-0.3,0.9-0.8,1.5-1.8,1.5C113.6,109.8,113.5,109.7,113.4,109.7z"/>
	<path class="st0" d="M117.7,105.9c0-1.2,0.8-2,1.9-2s1.7,0.7,1.7,1.9c0,0.1,0,0.2,0,0.4h-2.5c0,0.6,0.3,1,1,1c0.5,0,0.8-0.2,1-0.3
		l0.3,0.7c-0.3,0.1-0.7,0.4-1.5,0.4C118.4,108,117.7,107.2,117.7,105.9z M120.3,105.5c0-0.4-0.2-0.8-0.7-0.8s-0.7,0.3-0.8,0.8H120.3
		z"/>
	<path class="st0" d="M121.9,106.9c0-1,1-1.4,2.1-1.4h0.1v-0.2c0-0.4-0.2-0.5-0.6-0.5s-0.8,0.2-1,0.4l-0.5-0.6
		c0.3-0.3,0.8-0.6,1.6-0.6c1.1,0,1.6,0.4,1.6,1.4v1.4c0,0.5,0.1,0.9,0.1,1.2h-1c0-0.1-0.1-0.3-0.1-0.4c-0.2,0.3-0.6,0.5-1.1,0.5
		C122.4,108,121.9,107.6,121.9,106.9z M124.2,106.9v-0.7H124c-0.6,0-1.1,0.2-1.1,0.6c0,0.3,0.2,0.4,0.5,0.4
		C123.8,107.2,124,107,124.2,106.9z"/>
	<path class="st0" d="M126.3,104h1.1v0.5c0.2-0.3,0.5-0.6,1-0.6c0.3,0,0.4,0.1,0.5,0.1l-0.3,0.9c-0.1,0-0.2-0.1-0.4-0.1
		c-0.5,0-0.8,0.4-0.8,0.6v2.5h-1.1C126.3,107.9,126.3,104,126.3,104z"/>
	<path class="st0" d="M130.9,106.9c0-1,1-1.4,2.1-1.4h0.1v-0.2c0-0.4-0.2-0.5-0.6-0.5c-0.4,0-0.8,0.2-1,0.4l-0.5-0.6
		c0.3-0.3,0.8-0.6,1.6-0.6c1.1,0,1.6,0.4,1.6,1.4v1.4c0,0.5,0.1,0.9,0.1,1.2h-1c0-0.1-0.1-0.3-0.1-0.4c-0.2,0.3-0.6,0.5-1.1,0.5
		C131.4,108,130.9,107.6,130.9,106.9z M133.1,106.9v-0.7H133c-0.6,0-1.1,0.2-1.1,0.6c0,0.3,0.2,0.4,0.5,0.4
		C132.7,107.2,132.9,107,133.1,106.9z"/>
	<path class="st0" d="M134.7,104h1.2l0.8,2.6l0,0l0.8-2.6h1.1l-1.4,3.9h-1L134.7,104z"/>
	<path class="st0" d="M138.9,105.9c0-1.2,0.8-2,1.9-2c1.1,0,1.7,0.7,1.7,1.9c0,0.1,0,0.2,0,0.4H140c0,0.6,0.3,1,1,1
		c0.5,0,0.8-0.2,1-0.3l0.3,0.7c-0.3,0.1-0.7,0.4-1.5,0.4C139.6,108,138.9,107.2,138.9,105.9z M141.5,105.5c0-0.4-0.2-0.8-0.7-0.8
		s-0.7,0.3-0.8,0.8H141.5z"/>
	<path class="st0" d="M143.4,104h1.1v0.5c0.2-0.3,0.5-0.6,1-0.6c0.3,0,0.4,0.1,0.5,0.1l-0.3,0.9c-0.1,0-0.2-0.1-0.4-0.1
		c-0.5,0-0.8,0.4-0.8,0.6v2.5h-1.1V104z"/>
	<path class="st0" d="M146.3,106.9c0-1,1-1.4,2.1-1.4h0.1v-0.2c0-0.4-0.2-0.5-0.6-0.5c-0.4,0-0.8,0.2-1,0.4l-0.5-0.6
		c0.3-0.3,0.8-0.6,1.6-0.6c1.1,0,1.6,0.4,1.6,1.4v1.4c0,0.5,0.1,0.9,0.1,1.2h-1c0-0.1-0.1-0.3-0.1-0.4c-0.2,0.3-0.6,0.5-1.1,0.5
		C146.9,108,146.3,107.6,146.3,106.9z M148.6,106.9v-0.7h-0.1c-0.6,0-1.1,0.2-1.1,0.6c0,0.3,0.2,0.4,0.5,0.4
		C148.2,107.2,148.4,107,148.6,106.9z"/>
	<path class="st0" d="M150.4,108.8c0-0.4,0.3-0.7,0.7-1c-0.2-0.1-0.3-0.3-0.3-0.6c0-0.4,0.2-0.6,0.4-0.7c-0.4-0.2-0.7-0.7-0.7-1.2
		c0-0.8,0.6-1.4,1.7-1.4c0.3,0,0.5,0,0.7,0.1h1.4v0.7h-0.5c0.1,0.2,0.2,0.4,0.2,0.6c0,0.8-0.6,1.4-1.7,1.4c-0.2,0-0.3,0-0.5,0
		c-0.1,0.1-0.1,0.1-0.1,0.2c0,0.2,0.2,0.2,0.8,0.3c0.8,0,1.8,0,1.8,1.2c0,0.8-0.9,1.4-2.1,1.4C151,109.8,150.4,109.5,150.4,108.8z
		 M153.2,108.5c0-0.4-0.4-0.4-0.9-0.4c-0.2,0-0.4,0-0.5-0.1c-0.2,0.1-0.3,0.3-0.3,0.5c0,0.3,0.2,0.5,0.8,0.5
		C152.8,109.1,153.2,108.8,153.2,108.5z M152.9,105.3c0-0.5-0.3-0.7-0.7-0.7s-0.7,0.3-0.7,0.7c0,0.4,0.3,0.7,0.7,0.7
		S152.9,105.8,152.9,105.3z"/>
	<path class="st0" d="M154.7,105.9c0-1.2,0.8-2,1.9-2c1.1,0,1.7,0.7,1.7,1.9c0,0.1,0,0.2,0,0.4h-2.5c0,0.6,0.3,1,1,1
		c0.5,0,0.8-0.2,1-0.3l0.3,0.7c-0.3,0.1-0.7,0.4-1.5,0.4C155.5,108,154.7,107.2,154.7,105.9z M157.3,105.5c0-0.4-0.2-0.8-0.7-0.8
		s-0.7,0.3-0.8,0.8H157.3z"/>
</g>
<line class="st1" x1="67.1" y1="210.3" x2="67.1" y2="217.3"/>
<line class="st1" x1="25.3" y1="210.3" x2="25.3" y2="217.3"/>
<line class="st1" x1="109.2" y1="210.3" x2="109.2" y2="217.3"/>
<line class="st1" x1="151.6" y1="210.3" x2="151.6" y2="217.3"/>
<line class="st1" x1="193.7" y1="210.3" x2="193.7" y2="217.3"/>
<line class="st1" x1="236.7" y1="210.3" x2="236.7" y2="217.3"/>
<polyline class="st3" points="25.3,142.1 25.8,139.8 26.8,136.4 27.8,138.7 28.9,130.7 28.9,131.8 29.9,130.7 30.9,133 31.9,152.4 
	33,152.4 34,148.9 35,150.1 36.1,146.7 37.1,143.2 37.1,141 38.1,138.7 39.2,139.8 40.2,139.8 40.2,143.2 41.2,141 42.3,142.1 
	43.3,145.5 44.3,143.2 44.3,139.8 45.3,138.7 46.4,139.8 47.4,139.8 48.4,136.4 48.4,134.1 49.5,135.3 50.5,134.1 51.5,134.1 
	51.5,136.4 52.6,136.4 53.6,133 54.6,130.7 55.7,130.7 55.7,129.5 56.7,134.1 57.7,135.3 58.7,134.1 59.8,129.5 59.8,131.8 
	60.8,127.3 61.8,126.1 62.9,125 62.9,123.8 63.9,123.8 64.9,120.4 66,120.4 67,120.4 68,121.6 69.1,119.3 70.1,114.7 71.1,114.7 
	71.1,111.3 72.1,113.6 73.2,114.7 74.2,134.1 74.2,133 75.2,134.1 76.3,129.5 77.3,145.5 78.3,159.2 78.3,148.9 79.4,147.8 
	80.4,152.4 81.4,144.4 82.4,147.8 82.4,162.6 83.5,156.9 84.5,160.4 85.5,155.8 85.5,154.7 86.6,156.9 87.6,158.1 88.6,152.4 
	89.7,153.5 90.7,152.4 91.7,148.9 92.8,148.9 92.8,151.2 93.8,154.7 94.8,152.4 95.8,148.9 96.9,148.9 97.9,147.8 98.9,147.8 
	100,146.7 101,144.4 101,142.1 102,144.4 103.1,142.1 104.1,139.8 104.1,141 105.1,145.5 106.2,155.8 107.2,155.8 108.2,166.1 
	108.2,159.2 109.2,153.5 110.3,156.9 111.3,166.1 112.3,154.7 112.3,166.1 113.4,168.3 114.4,183.2 115.4,176.3 115.4,188.9 
	116.5,182 117.5,174.1 118.5,174.1 119.6,170.6 120.6,163.8 121.6,162.6 122.6,161.5 123.7,166.1 123.7,159.2 124.7,160.4 
	125.7,158.1 126.8,152.4 126.8,151.2 127.8,151.2 128.8,148.9 129.9,147.8 130.9,153.5 130.9,155.8 131.9,158.1 132.9,164.9 
	134,153.5 135,152.4 135,146.7 136,146.7 137.1,143.2 138.1,141 138.1,143.2 139.1,138.7 140.2,146.7 141.2,147.8 142.2,150.1 
	142.2,153.5 143.3,145.5 144.3,142.1 145.3,138.7 146.3,139.8 146.3,142.1 147.4,145.5 148.4,143.2 149.4,139.8 149.4,136.4 
	150.5,133 151.5,129.5 152.5,127.3 153.6,127.3 153.6,123.8 154.6,123.8 155.6,121.6 156.7,117 157.7,113.6 157.7,134.1 
	158.7,131.8 159.7,126.1 160.8,129.5 160.8,136.4 161.8,127.3 162.8,122.7 163.9,126.1 164.9,158.1 164.9,154.7 165.9,174.1 
	167,203.6 168,176.3 169,175.2 169,139.8 170.1,127.3 171.1,127.3 172.1,126.1 172.1,114.7 173.1,118.1 174.2,109 175.2,99.9 
	176.2,86.2 176.2,101 177.3,96.5 178.3,103.3 179.3,94.2 179.3,88.5 180.4,85 181.4,87.3 182.4,85 183.4,78.2 183.4,75.9 
	184.5,74.8 185.5,63.4 186.5,72.5 187.6,80.5 187.6,82.8 188.6,85 189.6,83.9 190.7,72.5 190.7,71.3 191.7,73.6 192.7,93 
	193.8,72.5 194.8,64.5 194.8,69.1 195.8,61.1 196.8,57.7 197.9,61.1 198.9,57.7 198.9,53.1 199.9,48.3 201,83.9 202,89.6 202,85 
	203,97.6 204.1,87.3 205.1,83.9 206.1,86.2 206.1,94.2 207.2,93 208.2,85 209.2,88.5 210.2,82.8 210.2,80.5 211.3,72.5 212.3,69.1 
	213.3,71.3 213.3,78.2 214.4,77.1 215.4,82.8 216.4,85 217.5,82.8 217.5,81.6 218.5,80.5 219.5,86.2 220.6,78.2 221.6,77.1 
	221.6,75.9 222.6,79.3 223.6,73.6 224.7,80.5 224.7,78.2 225.7,77.1 226.7,79.3 227.8,74.8 228.8,73.6 228.8,79.3 229.8,80.5 
	230.9,78.2 231.9,87.3 232.9,86.2 232.9,80.5 234,75.9 235,70.2 236,65.6 236,70.2 236.5,70.2 "/>
</svg>
