<?xml version="1.0" encoding="utf-8"?>
<!-- Generator: Adobe Illustrator 26.0.1, SVG Export Plug-In . SVG Version: 6.00 Build 0)  -->
<svg version="1.1" id="Layer_2_00000100350701658612623180000003691251117332355757_"
	 xmlns="http://www.w3.org/2000/svg" xmlns:xlink="http://www.w3.org/1999/xlink" x="0px" y="0px" viewBox="0 0 250 250"
	 style="enable-background:new 0 0 250 250;" xml:space="preserve">
<style type="text/css">
	.st0{fill:none;stroke:#BCBEC0;stroke-width:0.5;}
	.st1{fill:#4D4D4F;}
	.st2{fill:none;stroke:#555555;stroke-width:2;}
	.st3{fill:none;stroke:#B19E4E;stroke-linecap:round;stroke-linejoin:round;stroke-miterlimit:10;}
	.st4{fill:none;stroke:#555555;stroke-width:1.6;}
	.st5{fill:none;stroke:#B19E4E;stroke-width:1.6;}
</style>
<line class="st0" x1="21.8" y1="17.6" x2="232.8" y2="17.6"/>
<line class="st0" x1="22" y1="17.3" x2="22" y2="179.3"/>
<line class="st0" x1="232.8" y1="17.3" x2="232.8" y2="179.3"/>
<line class="st0" x1="21.8" y1="44.8" x2="232.8" y2="44.8"/>
<line class="st0" x1="21.8" y1="71.3" x2="232.8" y2="71.3"/>
<line class="st0" x1="21.8" y1="98.3" x2="232.8" y2="98.3"/>
<line class="st0" x1="21.8" y1="125.7" x2="233.1" y2="125.7"/>
<line class="st0" x1="21.8" y1="153.2" x2="232.8" y2="153.2"/>
<line class="st0" x1="21.8" y1="179.4" x2="232.8" y2="179.4"/>
<g>
	<path class="st1" d="M12.4,186.9H13l2.5,3.6c0.2,0.4,0.4,0.6,0.5,0.8l0,0c0-0.1,0-0.3,0-0.7v-3.7h0.6v5.3H16l-2.6-3.8
		c-0.2-0.2-0.3-0.5-0.4-0.7l0,0c0,0.1,0,0.3,0,0.6v3.9h-0.6V186.9z"/>
</g>
<g>
	<path class="st1" d="M17.7,190.3c0-0.9,0.5-2,1.8-2s1.8,1.1,1.8,2s-0.5,2-1.8,2C18.1,192.3,17.7,191.2,17.7,190.3z M20.6,190.3
		c0-0.8-0.4-1.5-1.2-1.5c-0.8,0-1.1,0.7-1.1,1.5s0.4,1.5,1.2,1.5C20.2,191.8,20.6,191.1,20.6,190.3z"/>
	<path class="st1" d="M21.6,188.4h0.6l1.1,3.1l0,0l1.1-3.1H25l-1.4,3.8h-0.5L21.6,188.4z"/>
</g>
<path class="st1" d="M28.3,187.4l-1,0.3l-0.1-0.5l1.3-0.4H29v5.3h-0.6L28.3,187.4L28.3,187.4z M31,187.4l-1,0.3l-0.1-0.5l1.3-0.4
	h0.5v5.3H31V187.4z"/>
<g>
	<path class="st1" d="M54.2,186.9h0.6l2.5,3.6c0.2,0.4,0.4,0.6,0.5,0.8l0,0c0-0.1,0-0.3,0-0.7v-3.7h0.6v5.3h-0.6l-2.6-3.8
		c-0.2-0.2-0.3-0.5-0.4-0.7l0,0c0,0.1,0,0.3,0,0.6v3.9h-0.6V186.9z"/>
</g>
<g>
	<path class="st1" d="M59.5,190.3c0-0.9,0.5-2,1.8-2s1.8,1.1,1.8,2s-0.5,2-1.8,2S59.5,191.2,59.5,190.3z M62.5,190.3
		c0-0.8-0.4-1.5-1.2-1.5s-1.1,0.7-1.1,1.5s0.4,1.5,1.2,1.5C62.1,191.8,62.5,191.1,62.5,190.3z"/>
	<path class="st1" d="M63.5,188.4h0.6l1.1,3.1l0,0l1.1-3.1h0.6l-1.4,3.8H65L63.5,188.4z"/>
</g>
<path class="st1" d="M70.2,187.4l-1,0.3l-0.1-0.5l1.3-0.4h0.5v5.3h-0.6v-4.7L70.2,187.4L70.2,187.4z M71.9,192.2l0.1-0.5
	c0.1,0,0.3,0.1,0.7,0.1c1,0,1.5-0.4,1.5-1.1c0-0.8-0.7-1.1-1.7-1.1v-0.4c0.8,0,1.6-0.4,1.6-1.1c0-0.4-0.3-0.7-0.9-0.7
	c-0.5,0-0.8,0.2-1.1,0.4l-0.3-0.4c0.3-0.2,0.8-0.5,1.4-0.5c1,0,1.5,0.5,1.5,1.2s-0.6,1.1-1.2,1.3l0,0c0.7,0.1,1.3,0.6,1.3,1.4
	c0,1.1-0.9,1.7-2.1,1.7C72.2,192.3,72,192.3,71.9,192.2z"/>
<g>
	<path class="st1" d="M96.7,186.9h0.6l2.5,3.6c0.2,0.4,0.4,0.6,0.5,0.8l0,0c0-0.1,0-0.3,0-0.7v-3.7h0.6v5.3h-0.6l-2.6-3.8
		c-0.2-0.2-0.3-0.5-0.4-0.7l0,0c0,0.1,0,0.3,0,0.6v3.9h-0.6V186.9z"/>
</g>
<g>
	<path class="st1" d="M102,190.3c0-0.9,0.5-2,1.8-2s1.8,1.1,1.8,2s-0.5,2-1.8,2S102,191.2,102,190.3z M104.9,190.3
		c0-0.8-0.4-1.5-1.2-1.5c-0.8,0-1.1,0.7-1.1,1.5s0.4,1.5,1.2,1.5C104.5,191.8,104.9,191.1,104.9,190.3z"/>
	<path class="st1" d="M105.9,188.4h0.6l1.1,3.1l0,0l1.1-3.1h0.6l-1.4,3.8h-0.5L105.9,188.4z"/>
</g>
<path class="st1" d="M112.6,187.4l-1,0.3l-0.1-0.5l1.3-0.4h0.5v5.3h-0.6v-4.7L112.6,187.4L112.6,187.4z M114.3,192.3l0.1-0.5
	c0.1,0,0.2,0,0.5,0c0.9,0,1.7-0.4,1.7-1.3c0-0.9-0.7-1.2-1.6-1.2c-0.2,0-0.4,0-0.4,0l0.2-2.5h2.4v0.5h-1.8l-0.1,1.4
	c1.3,0,2,0.6,2,1.6c0,1.2-1,1.8-2.4,1.8C114.6,192.3,114.4,192.3,114.3,192.3z"/>
<g>
	<path class="st1" d="M138.2,186.9h0.6l2.5,3.6c0.2,0.4,0.4,0.6,0.5,0.8l0,0c0-0.1,0-0.3,0-0.7v-3.7h0.6v5.3h-0.6l-2.6-3.8
		c-0.2-0.2-0.3-0.5-0.4-0.7l0,0c0,0.1,0,0.3,0,0.6v3.9h-0.6V186.9z"/>
</g>
<g>
	<path class="st1" d="M143.5,190.3c0-0.9,0.5-2,1.8-2s1.8,1.1,1.8,2s-0.5,2-1.8,2S143.5,191.2,143.5,190.3z M146.4,190.3
		c0-0.8-0.4-1.5-1.2-1.5s-1.1,0.7-1.1,1.5s0.4,1.5,1.2,1.5C146.1,191.8,146.4,191.1,146.4,190.3z"/>
	<path class="st1" d="M147.4,188.4h0.6l1.1,3.1l0,0l1.1-3.1h0.6l-1.4,3.8h-0.5L147.4,188.4z"/>
</g>
<path class="st1" d="M154.1,187.4l-1,0.3l-0.1-0.5l1.3-0.4h0.5v5.3h-0.6L154.1,187.4L154.1,187.4z M156.2,192.2l1.9-4.8h-2.4v-0.5h3
	v0.4l-2,5.1L156.2,192.2z"/>
<g>
	<path class="st1" d="M180.3,186.9h0.6l2.5,3.6c0.2,0.4,0.4,0.6,0.5,0.8l0,0c0-0.1,0-0.3,0-0.7v-3.7h0.6v5.3h-0.6l-2.6-3.8
		c-0.2-0.2-0.3-0.5-0.4-0.7l0,0c0,0.1,0,0.3,0,0.6v3.9h-0.6V186.9z"/>
</g>
<g>
	<path class="st1" d="M185.6,190.3c0-0.9,0.5-2,1.8-2s1.8,1.1,1.8,2s-0.5,2-1.8,2S185.6,191.2,185.6,190.3z M188.5,190.3
		c0-0.8-0.4-1.5-1.2-1.5s-1.1,0.7-1.1,1.5s0.4,1.5,1.2,1.5S188.5,191.1,188.5,190.3z"/>
	<path class="st1" d="M189.5,188.4h0.6l1.1,3.1l0,0l1.1-3.1h0.6l-1.4,3.8H191L189.5,188.4z"/>
</g>
<path class="st1" d="M196.2,187.4l-1,0.3l-0.1-0.5l1.3-0.4h0.5v5.3h-0.6L196.2,187.4L196.2,187.4z M198.2,191.9
	c0.8,0,1.5-0.2,1.9-0.8c0.3-0.4,0.5-0.8,0.6-1.5c-0.3,0.3-0.7,0.5-1.2,0.5c-1,0-1.6-0.7-1.6-1.6s0.6-1.7,1.7-1.7
	c1.3,0,1.8,1.2,1.8,2.3c0,2-1,3.3-3,3.3L198.2,191.9z M200.7,189.2V189c0-1.1-0.4-1.8-1.2-1.8c-0.7,0-1,0.6-1,1.2
	c0,0.8,0.4,1.2,1.1,1.2C200.1,189.6,200.4,189.5,200.7,189.2z"/>
<g>
	<path class="st1" d="M222.6,186.9h0.6l2.5,3.6c0.2,0.4,0.4,0.6,0.5,0.8l0,0c0-0.1,0-0.3,0-0.7v-3.7h0.6v5.3h-0.6l-2.6-3.8
		c-0.2-0.2-0.3-0.5-0.4-0.7l0,0c0,0.1,0,0.3,0,0.6v3.9h-0.6V186.9z"/>
</g>
<g>
	<path class="st1" d="M227.9,190.3c0-0.9,0.5-2,1.8-2s1.8,1.1,1.8,2s-0.5,2-1.8,2S227.9,191.2,227.9,190.3z M230.8,190.3
		c0-0.8-0.4-1.5-1.2-1.5s-1.1,0.7-1.1,1.5s0.4,1.5,1.2,1.5S230.8,191.1,230.8,190.3z"/>
	<path class="st1" d="M231.8,188.4h0.6l1.1,3.1l0,0l1.1-3.1h0.6l-1.4,3.8h-0.5L231.8,188.4z"/>
</g>
<path class="st1" d="M237.5,191.9c0.9-0.9,2.5-2.4,2.5-3.6c0-0.7-0.4-1-0.9-1c-0.6,0-0.9,0.3-1.2,0.5l-0.3-0.4
	c0.3-0.4,0.8-0.7,1.5-0.7c0.9,0,1.6,0.5,1.6,1.4c0,1.2-1.3,2.5-2.3,3.5c0,0,0.3,0,0.6,0h1.8v0.5h-3.3L237.5,191.9L237.5,191.9z
	 M242.5,187.4l-1,0.3l-0.1-0.5l1.3-0.4h0.5v5.3h-0.6L242.5,187.4L242.5,187.4z"/>
<path class="st1" d="M7.1,179.4c0-1.3,0.5-2.8,2-2.8c1.4,0,2,1.4,2,2.8s-0.6,2.8-2,2.8C7.6,182.1,7.1,180.7,7.1,179.4z M10.5,179.4
	c0-1.3-0.4-2.3-1.4-2.3s-1.4,1-1.4,2.3s0.4,2.3,1.4,2.3C10,181.6,10.5,180.6,10.5,179.4z M12,181.6c0-0.3,0.2-0.5,0.5-0.5
	s0.5,0.2,0.5,0.5s-0.2,0.5-0.5,0.5S12,181.9,12,181.6z M13.8,179.4c0-1.3,0.5-2.8,2-2.8c1.4,0,2,1.4,2,2.8s-0.6,2.8-2,2.8
	C14.4,182.1,13.8,180.7,13.8,179.4z M17.2,179.4c0-1.3-0.4-2.3-1.4-2.3s-1.4,1-1.4,2.3s0.4,2.3,1.4,2.3
	C16.7,181.6,17.2,180.6,17.2,179.4z"/>
<path class="st1" d="M10.1,151.1l-1,0.3L9,150.9l1.3-0.4h0.5v5.3h-0.6L10.1,151.1L10.1,151.1z M12,155.4c0-0.3,0.2-0.5,0.5-0.5
	s0.5,0.2,0.5,0.5s-0.2,0.5-0.5,0.5S12,155.7,12,155.4z M13.8,153.2c0-1.3,0.5-2.8,2-2.8c1.4,0,2,1.4,2,2.8s-0.6,2.8-2,2.8
	S13.8,154.5,13.8,153.2z M17.2,153.2c0-1.3-0.4-2.3-1.4-2.3s-1.4,1-1.4,2.3s0.4,2.3,1.4,2.3C16.7,155.4,17.2,154.4,17.2,153.2z"/>
<path class="st1" d="M7.8,128c0.9-0.9,2.5-2.4,2.5-3.6c0-0.7-0.4-1-0.9-1c-0.6,0-0.9,0.3-1.2,0.5l-0.3-0.4c0.3-0.4,0.8-0.7,1.5-0.7
	c0.9,0,1.6,0.5,1.6,1.4c0,1.2-1.3,2.5-2.3,3.5c0,0,0.3,0,0.6,0h1.8v0.5H7.8V128z M12,128c0-0.3,0.2-0.5,0.5-0.5s0.5,0.2,0.5,0.5
	s-0.2,0.5-0.5,0.5S12,128.2,12,128z M13.8,125.7c0-1.3,0.5-2.8,2-2.8c1.4,0,2,1.4,2,2.8s-0.6,2.8-2,2.8S13.8,127,13.8,125.7z
	 M17.2,125.7c0-1.3-0.4-2.3-1.4-2.3s-1.4,1-1.4,2.3s0.4,2.3,1.4,2.3C16.7,128,17.2,127,17.2,125.7z"/>
<path class="st1" d="M8.1,101l0.1-0.5c0.1,0,0.3,0.1,0.7,0.1c1,0,1.5-0.4,1.5-1.1c0-0.8-0.7-1.1-1.7-1.1V98c0.8,0,1.6-0.4,1.6-1.1
	c0-0.4-0.3-0.7-0.9-0.7c-0.5,0-0.8,0.2-1.1,0.4L8,96.1c0.3-0.2,0.8-0.5,1.4-0.5c1,0,1.5,0.5,1.5,1.2s-0.6,1.1-1.2,1.3l0,0
	c0.7,0.1,1.3,0.6,1.3,1.4c0,1.1-0.9,1.7-2.1,1.7C8.5,101,8.2,101,8.1,101z M12,100.5c0-0.3,0.2-0.5,0.5-0.5s0.5,0.2,0.5,0.5
	s-0.2,0.5-0.5,0.5S12,100.8,12,100.5z M13.8,98.3c0-1.3,0.5-2.8,2-2.8c1.4,0,2,1.4,2,2.8s-0.6,2.8-2,2.8
	C14.4,101,13.8,99.6,13.8,98.3z M17.2,98.3c0-1.3-0.4-2.3-1.4-2.3s-1.4,1-1.4,2.3s0.4,2.3,1.4,2.3C16.7,100.5,17.2,99.5,17.2,98.3z"
	/>
<path class="st1" d="M10,72.7H7.5v-0.5l2.4-3.6h0.6v3.6h0.8v0.5h-0.8v1.2H10V72.7z M8.8,72.2H10v-2.7l0,0l-1.8,2.8
	C8.2,72.2,8.5,72.2,8.8,72.2z M12,73.5c0-0.3,0.2-0.5,0.5-0.5s0.5,0.2,0.5,0.5S12.7,74,12.4,74S12,73.8,12,73.5z M13.8,71.3
	c0-1.3,0.5-2.8,2-2.8c1.4,0,2,1.4,2,2.8s-0.6,2.8-2,2.8C14.4,74,13.8,72.6,13.8,71.3z M17.2,71.3c0-1.3-0.4-2.3-1.4-2.3
	s-1.4,1-1.4,2.3s0.4,2.3,1.4,2.3C16.7,73.5,17.2,72.5,17.2,71.3z"/>
<path class="st1" d="M8.3,47.5V47c0.1,0,0.2,0,0.5,0c0.9,0,1.7-0.4,1.7-1.3c0-0.9-0.7-1.2-1.6-1.2c-0.2,0-0.4,0-0.4,0L8.7,42H11v0.5
	H9.2l-0.1,1.4c1.3,0,2,0.6,2,1.6c0,1.2-1,1.8-2.4,1.8C8.5,47.6,8.3,47.5,8.3,47.5z M12,47c0-0.3,0.2-0.5,0.5-0.5S13,46.7,13,47
	s-0.2,0.5-0.5,0.5S12,47.3,12,47z M13.8,44.8c0-1.3,0.5-2.8,2-2.8c1.4,0,2,1.4,2,2.8s-0.6,2.8-2,2.8S13.8,46.1,13.8,44.8z
	 M17.2,44.8c0-1.3-0.4-2.3-1.4-2.3s-1.4,1-1.4,2.3s0.4,2.3,1.4,2.3C16.7,47.1,17.2,46.1,17.2,44.8z"/>
<path class="st1" d="M7.7,18.1c0-2,1.2-3.3,3.1-3.3l0.1,0.5c-0.8,0-1.4,0.2-1.9,0.6c-0.4,0.4-0.6,0.9-0.7,1.6
	C8.7,17.2,9.1,17,9.6,17c1,0,1.6,0.7,1.6,1.6s-0.6,1.7-1.7,1.7C8.3,20.3,7.7,19.1,7.7,18.1z M10.6,18.7c0-0.8-0.4-1.2-1.1-1.2
	c-0.5,0-0.8,0.2-1.1,0.5v0.1c0,1.1,0.4,1.8,1.2,1.8C10.3,19.8,10.6,19.2,10.6,18.7z M12,19.8c0-0.3,0.2-0.5,0.5-0.5s0.5,0.2,0.5,0.5
	s-0.2,0.5-0.5,0.5S12,20.1,12,19.8z M13.8,17.6c0-1.3,0.5-2.8,2-2.8c1.4,0,2,1.4,2,2.8s-0.6,2.8-2,2.8
	C14.4,20.3,13.8,18.9,13.8,17.6z M17.2,17.6c0-1.3-0.4-2.3-1.4-2.3s-1.4,1-1.4,2.3s0.4,2.3,1.4,2.3C16.7,19.8,17.2,18.8,17.2,17.6z"
	/>
<line class="st0" x1="22" y1="179.4" x2="22" y2="185.9"/>
<line class="st0" x1="64.3" y1="179.4" x2="64.3" y2="185.9"/>
<line class="st0" x1="106.7" y1="179.4" x2="106.7" y2="185.9"/>
<line class="st0" x1="148.2" y1="179.1" x2="148.2" y2="185.9"/>
<line class="st0" x1="190.6" y1="179.4" x2="190.6" y2="185.9"/>
<line class="st0" x1="232.8" y1="179.4" x2="232.8" y2="185.9"/>
<line class="st2" x1="21.8" y1="96.3" x2="233.1" y2="96.3"/>
<polyline class="st3" points="22.8,112.1 22.9,114.2 23.8,112.1 23.8,114.2 24.6,121.5 25.4,108.9 25.4,116.3 26.3,114.2 
	26.3,107.9 27.1,106.8 27.1,115.2 27.9,114.2 27.9,119.4 28.8,118.4 28.8,120.5 29.6,119.4 29.6,118.4 30.4,117.3 30.4,127.8 
	31.3,120.5 31.3,117.3 32.1,113.1 32.1,110 32.1,112.1 32.9,112.1 32.9,105.8 33.7,102.7 33.7,94.3 34.6,94.3 34.6,84.9 35.4,93.2 
	35.4,97.4 36.2,102.7 36.2,104.8 37.1,98.5 37.1,97.4 37.9,95.3 37.9,103.7 38.7,107.9 38.7,108.9 39.6,112.1 39.6,108.9 
	40.4,107.9 40.4,116.3 41.2,122.6 41.2,120.5 42.1,113.1 42.1,117.3 42.9,113.1 42.9,119.4 43.7,116.3 43.7,115.2 44.6,111 
	44.6,107.9 45.4,115.2 46.2,114.2 46.2,116.3 47.1,117.3 47.1,114.2 47.1,117.3 47.9,119.4 48.7,122.6 48.7,124.7 49.6,121.5 
	49.6,122.6 50.4,120.5 50.4,116.3 51.2,120.5 51.2,119.4 52.1,116.3 52.1,113.1 52.9,108.9 52.9,112.1 53.7,108.9 53.7,112.1 
	54.6,114.2 54.6,119.4 55.4,119.4 55.4,120.5 56.2,121.5 57.1,119.4 57.1,120.5 57.9,122.6 58.7,122.6 58.7,121.5 59.6,125.7 
	59.6,126.8 60.4,128.8 60.4,134.1 61.2,135.1 61.2,129.9 62.1,135.1 62.1,138.3 62.9,133 62.9,134.1 63.7,135.1 63.7,136.2 
	64.6,135.1 64.6,134.1 65.4,135.1 65.4,134.1 66.2,135.1 67.1,136.2 67.1,134.1 67.9,138.3 67.9,142.7 68.7,136.2 68.7,134.1 
	69.6,134.1 69.6,127.8 70.4,126.8 70.4,127.8 71.2,130.9 72.1,129.9 72.9,124.7 72.9,128.8 73.7,127.8 73.7,129.9 74.6,124.7 
	74.6,125.7 75.4,125.7 76.2,125.7 76.2,122.6 77.1,125.7 77.1,124.7 77.1,125.7 77.9,125.7 77.9,124.7 78.7,121.5 78.7,122.6 
	79.6,118.4 80.4,118.4 80.4,115.2 81.2,111 81.2,110 82.1,112.1 82.1,111 82.9,113.1 82.9,116.3 83.7,116.3 83.7,112.1 84.6,108.9 
	84.6,103.7 85.4,102.7 85.4,105.8 86.2,106.8 86.2,105.8 87.1,105.8 87.1,107.9 87.9,106.8 87.9,108.9 88.7,99.5 88.7,101.6 
	89.6,101.6 89.6,92.2 90.4,91.1 90.4,93.2 91.2,94.3 91.2,92.2 92.1,96.4 92.1,98.5 92.9,99.5 92.9,100.6 93.7,95.3 93.7,96.4 
	94.6,96.4 94.6,95.3 95.4,97.4 95.4,93.2 96.2,96.4 96.2,100.6 97.1,105.8 97.1,106.8 97.9,107.9 97.9,102.7 98.7,111 99.6,107.9 
	99.6,114.2 100.4,106.8 100.4,112.1 101.2,111 101.2,106.8 102.1,105.8 102.1,106.8 102.9,104.8 102.9,96.4 103.7,101.6 103.7,96.4 
	104.6,98.5 105.4,96.4 105.4,92.2 106.2,100.6 106.2,98.5 107.1,99.5 107.1,104.8 107.9,98.5 107.9,99.5 108.7,98.5 108.7,102.7 
	109.6,95.3 109.6,97.4 110.4,100.6 110.4,96.4 111.2,86.9 111.2,84.9 112.1,85.9 112.1,83.8 112.9,78.6 112.9,74.4 113.7,76.5 
	113.7,77.5 114.6,82.8 114.6,84.9 115.4,83.8 115.4,80.7 116.2,78.6 116.2,77.5 117.1,81.7 117.1,85.9 117.9,84.9 117.9,78.6 
	118.7,79.6 118.7,80.7 119.6,82.8 119.6,79.6 120.4,76.5 120.4,73.3 121.2,71.2 121.2,73.3 122.1,70.2 122.1,78.6 122.9,76.5 
	122.9,77.5 123.7,78.6 123.7,79.6 124.6,79.6 124.6,81.7 125.4,80.7 125.4,78.6 126.2,78.6 126.2,77.5 127.1,80.7 127.1,81.7 
	127.9,80.7 127.9,84.9 128.7,79.6 128.7,86.9 129.6,85.9 129.6,84.9 130.4,85.9 130.4,92.2 131.2,92.2 131.2,89 132.1,89 
	132.9,90.1 132.9,91.1 133.7,93.2 133.7,91.1 134.5,90.1 135.4,86.9 135.4,92.2 136.2,95.3 137,94.3 137,93.2 137,90.1 137.9,88 
	137.9,89 138.7,94.3 138.7,98.5 139.5,98.5 139.5,96.4 140.4,96.4 140.4,95.3 141.2,94.3 142,93.2 142,97.4 142.9,100.6 
	142.9,102.7 143.7,99.5 143.7,100.6 144.5,99.5 144.5,94.3 145.4,95.3 146.2,95.3 146.2,94.3 147,97.4 147,99.5 147.9,99.5 
	147.9,100.6 148.7,99.5 148.7,100.6 149.5,98.5 150.4,98.5 150.4,96.4 151.2,97.4 151.2,95.3 152,96.4 152,100.6 152.9,100.6 
	152.9,97.4 153.7,101.6 154.5,102.7 154.5,103.7 155.4,97.4 155.4,100.6 156.2,98.5 156.2,95.3 157,98.5 157,96.4 157.9,91.1 
	157.9,92.2 158.7,93.2 158.7,94.3 159.5,97.4 160.4,97.4 160.4,98.5 161.2,99.5 161.2,93.2 162,92.2 162,93.2 162.9,92.2 
	162.9,90.1 163.7,88 164.5,90.1 164.5,91.1 165.4,93.2 166.2,89 166.2,88 167,90.1 167,89 167,88 167.9,91.1 167.9,93.2 168.7,93.2 
	169.5,86.9 170.4,80.7 170.4,85.9 171.2,85.9 171.2,82.8 172,80.7 172,81.7 172.9,76.5 173.7,73.3 173.7,72.3 174.5,68.1 
	174.5,70.2 175.4,73.3 175.4,71.2 176.2,72.3 176.2,69.1 177,73.3 177.9,76.5 177.9,72.3 178.7,75.4 178.7,72.3 179.5,70.2 
	179.5,75.4 180.4,76.5 181.2,75.4 181.2,76.5 182,71.2 182,69.1 182.9,65 182.9,67 183.7,67 183.7,68.1 184.5,67 185.4,71.2 
	185.4,68.1 186.2,67 186.2,60.8 187,57.6 187,53.4 187.9,54.5 187.9,55.5 188.7,59.7 188.7,65 189.5,63.9 189.5,61.8 190.4,58.7 
	190.4,66 191.2,68.1 191.2,70.2 192,70.2 192,74.4 192.9,73.3 192.9,72.3 193.7,72.3 193.7,74.4 194.5,75.4 194.5,77.5 195.4,78.6 
	195.4,74.4 196.2,76.5 196.2,77.5 197,73.3 197,68.1 197.9,72.3 197.9,71.2 198.7,54.5 198.7,50.3 199.5,29.9 199.5,35.6 200.4,43 
	200.4,48.2 201.2,62.9 201.2,61.8 202,62.9 202,66 202.9,70.2 202.9,68.1 203.7,73.3 203.7,78.6 204.5,91.1 204.5,81.7 205.4,85.9 
	205.4,82.8 206.2,84.9 207,86.9 207.9,82.8 207.9,84.9 208.7,89 208.7,85.9 209.5,89 209.5,85.9 210.4,88 210.4,86.9 211.2,82.8 
	211.2,83.8 212,85.9 212,82.8 212.9,82.8 212.9,76.5 212.9,81.7 213.7,88 214.5,88 214.5,90.1 215.4,86.9 215.4,90.1 216.2,90.1 
	216.2,81.7 217,85.9 217,83.8 217.9,83.8 217.9,80.7 218.7,84.9 218.7,85.9 219.5,89 219.5,88 220.4,88 220.4,90.1 221.2,90.1 
	221.2,89 222,89 222,91.1 222.9,93.2 223.7,93.2 223.7,94.3 224.5,95.3 225.4,95.3 225.4,94.3 226.2,94.3 227,96.4 227,93.2 
	227.9,91.1 227.9,89 227.9,88 228.7,86.9 229.5,86.9 229.5,84.9 230.4,88 230.4,89 231.2,88 231.2,89 232,90.1 232,88 232.7,91.1 
	"/>
<line class="st4" x1="-0.2" y1="238.2" x2="5.4" y2="238.2"/>
<path class="st1" d="M9.3,236l-1,0.3l-0.1-0.5l1.3-0.4H10v5.3H9.3V236z M11.1,238.2c0-1.3,0.5-2.8,2-2.8c1.4,0,2,1.4,2,2.8
	s-0.6,2.8-2,2.8C11.7,240.9,11.1,239.5,11.1,238.2z M14.5,238.2c0-1.3-0.4-2.3-1.4-2.3s-1.4,1-1.4,2.3s0.4,2.3,1.4,2.3
	C14.1,240.4,14.5,239.4,14.5,238.2z M16,237.8h1.6v0.5H16V237.8z"/>
<g>
	<path class="st1" d="M18.2,242.6l0.1-0.5c0.1,0,0.1,0,0.3,0c0.5,0,0.8-0.3,1-0.9l0.2-0.5l-1.4-3.8H19l1.1,3.1l0,0l1.1-3.1h0.6
		l-1.6,4.4c-0.3,0.7-0.6,1.3-1.5,1.3C18.4,242.7,18.3,242.7,18.2,242.6z"/>
	<path class="st1" d="M22.3,238.9c0-1.1,0.7-2,1.7-2s1.5,0.7,1.5,1.7c0,0.1,0,0.2,0,0.3h-2.6c0,0.8,0.3,1.5,1.2,1.5
		c0.5,0,0.9-0.2,1.1-0.3l0.2,0.5c-0.2,0.1-0.6,0.4-1.3,0.4C22.9,240.9,22.3,240,22.3,238.9z M24.9,238.4c0-0.5-0.3-1-0.9-1
		s-1,0.4-1.1,1H24.9z"/>
	<path class="st1" d="M26.3,239.9c0-1,1.1-1.3,2-1.3h0.2v-0.4c0-0.6-0.2-0.8-0.8-0.8c-0.4,0-0.7,0.1-1,0.4l-0.3-0.4
		c0.4-0.4,0.8-0.5,1.4-0.5c0.8,0,1.3,0.4,1.3,1.3v1.8c0,0.4,0,0.7,0.1,0.9h-0.6c0-0.1,0-0.3-0.1-0.5c-0.3,0.3-0.7,0.6-1.2,0.6
		C26.7,240.9,26.3,240.5,26.3,239.9z M28.5,239.9V239h-0.2c-0.8,0-1.4,0.2-1.4,0.9c0,0.4,0.3,0.5,0.6,0.5
		C27.9,240.4,28.2,240.2,28.5,239.9z"/>
	<path class="st1" d="M30.4,237H31v0.6c0.2-0.3,0.5-0.7,1-0.7c0.2,0,0.4,0.1,0.4,0.1l-0.1,0.6c0,0-0.1-0.1-0.3-0.1
		c-0.6,0-0.9,0.7-0.9,0.8v2.6h-0.6V237H30.4z"/>
</g>
<g>
	<path class="st1" d="M34.9,239.9c0-1,1.1-1.3,2-1.3h0.2v-0.4c0-0.6-0.2-0.8-0.8-0.8c-0.4,0-0.7,0.1-1,0.4l-0.3-0.4
		c0.4-0.4,0.8-0.5,1.4-0.5c0.8,0,1.3,0.4,1.3,1.3v1.8c0,0.4,0,0.7,0.1,0.9h-0.6c0-0.1,0-0.3-0.1-0.5c-0.3,0.3-0.7,0.6-1.2,0.6
		C35.3,240.9,34.9,240.5,34.9,239.9z M37.1,239.9V239h-0.2c-0.8,0-1.4,0.2-1.4,0.9c0,0.4,0.3,0.5,0.6,0.5
		C36.5,240.4,36.8,240.2,37.1,239.9z"/>
	<path class="st1" d="M38.5,237h0.6l1.1,3.1l0,0l1.1-3.1h0.6l-1.4,3.8H40L38.5,237z"/>
	<path class="st1" d="M42.4,238.9c0-1.1,0.7-2,1.7-2s1.5,0.7,1.5,1.7c0,0.1,0,0.2,0,0.3H43c0,0.8,0.3,1.5,1.2,1.5
		c0.5,0,0.9-0.2,1.1-0.3l0.2,0.5c-0.2,0.1-0.6,0.4-1.3,0.4C43,240.9,42.4,240,42.4,238.9z M45,238.4c0-0.5-0.3-1-0.9-1
		c-0.6,0-1,0.4-1.1,1H45z"/>
	<path class="st1" d="M46.7,237h0.6v0.6c0.2-0.3,0.5-0.7,1-0.7c0.2,0,0.4,0.1,0.4,0.1l-0.1,0.6c0,0-0.1-0.1-0.3-0.1
		c-0.6,0-0.9,0.7-0.9,0.8v2.6h-0.6V237H46.7z"/>
	<path class="st1" d="M49.3,239.9c0-1,1.1-1.3,2-1.3h0.2v-0.4c0-0.6-0.2-0.8-0.8-0.8c-0.4,0-0.7,0.1-1,0.4l-0.3-0.4
		c0.4-0.4,0.8-0.5,1.4-0.5c0.8,0,1.3,0.4,1.3,1.3v1.8c0,0.4,0,0.7,0.1,0.9h-0.6c0-0.1,0-0.3-0.1-0.5c-0.3,0.3-0.7,0.6-1.2,0.6
		C49.7,240.9,49.3,240.5,49.3,239.9z M51.5,239.9V239h-0.2c-0.8,0-1.4,0.2-1.4,0.9c0,0.4,0.3,0.5,0.6,0.5
		C50.9,240.4,51.2,240.2,51.5,239.9z"/>
	<path class="st1" d="M53.1,241.6c0-0.4,0.3-0.8,0.7-1c-0.2-0.1-0.3-0.3-0.3-0.6s0.2-0.5,0.4-0.6c-0.4-0.2-0.7-0.7-0.7-1.2
		c0-0.8,0.6-1.4,1.5-1.4c0.2,0,0.4,0,0.6,0.1h1.2v0.5h-0.6c0.2,0.2,0.3,0.5,0.3,0.8c0,0.8-0.6,1.4-1.5,1.4c-0.2,0-0.3,0-0.4,0
		c-0.2,0.1-0.3,0.2-0.3,0.3c0,0.2,0.2,0.3,0.5,0.3c0.8,0,2,0,2,1.2c0,0.8-0.9,1.3-1.9,1.3C53.8,242.7,53.1,242.4,53.1,241.6z
		 M55.9,241.5c0-0.6-0.5-0.6-1-0.6c-0.2,0-0.5,0-0.7-0.1c-0.4,0.2-0.5,0.5-0.5,0.8c0,0.4,0.3,0.7,1,0.7
		C55.4,242.3,55.9,241.9,55.9,241.5z M55.6,238.3c0-0.5-0.3-0.9-0.9-0.9c-0.6,0-0.9,0.4-0.9,0.9s0.3,0.9,0.9,0.9
		C55.2,239.2,55.6,238.8,55.6,238.3z"/>
	<path class="st1" d="M57.2,238.9c0-1.1,0.7-2,1.7-2s1.5,0.7,1.5,1.7c0,0.1,0,0.2,0,0.3h-2.6c0,0.8,0.3,1.5,1.2,1.5
		c0.5,0,0.9-0.2,1.1-0.3l0.2,0.5c-0.2,0.1-0.6,0.4-1.3,0.4C57.8,240.9,57.2,240,57.2,238.9z M59.8,238.4c0-0.5-0.3-1-0.9-1
		c-0.6,0-1,0.4-1.1,1H59.8z"/>
</g>
<g>
	<path class="st1" d="M63.2,238.6c0-1.3,0.6-2.6,1.4-3.5h0.6c-0.7,0.7-1.4,1.9-1.4,3.5c0,1.5,0.5,2.7,1.4,3.7h-0.6
		C63.7,241.2,63.2,240,63.2,238.6z"/>
</g>
<path class="st1" d="M65.5,236.8c0-0.6,0.4-1.3,1.4-1.3s1.4,0.7,1.4,1.3s-0.4,1.3-1.4,1.3S65.5,237.4,65.5,236.8z M67.8,236.8
	c0-0.5-0.3-0.9-0.9-0.9s-0.9,0.4-0.9,0.9s0.3,0.9,0.9,0.9C67.4,237.7,67.8,237.3,67.8,236.8z M70,235.5h0.6l-3.4,5.3h-0.6L70,235.5z
	 M68.9,239.5c0-0.6,0.4-1.3,1.4-1.3s1.4,0.7,1.4,1.3s-0.4,1.3-1.4,1.3C69.3,240.9,68.9,240.2,68.9,239.5z M71.1,239.5
	c0-0.5-0.3-0.9-0.9-0.9s-0.9,0.4-0.9,0.9s0.3,0.9,0.9,0.9C70.8,240.4,71.1,240.1,71.1,239.5z"/>
<g>
	<path class="st1" d="M73.4,238.7c0-1.5-0.5-2.7-1.4-3.7h0.6c0.9,1,1.4,2.3,1.4,3.7s-0.6,2.6-1.4,3.5H72
		C72.7,241.6,73.4,240.3,73.4,238.7z"/>
</g>
<g>
	<path class="st1" d="M8,223.5l0.3-0.4c0.1,0.1,0.5,0.5,1.2,0.5s1.1-0.4,1.1-0.9c0-0.6-0.6-0.9-1.2-1.2c-0.6-0.3-1.2-0.7-1.2-1.5
		c0-0.9,0.7-1.4,1.6-1.4c0.8,0,1.2,0.3,1.4,0.4l-0.3,0.5c-0.2-0.1-0.5-0.4-1.1-0.4c-0.5,0-0.9,0.3-0.9,0.8s0.4,0.8,1,1
		c0.7,0.3,1.5,0.7,1.5,1.7c0,0.8-0.7,1.4-1.7,1.4C8.7,224,8.2,223.7,8,223.5z"/>
	<path class="st1" d="M12.4,220.1H13v0.4c0.2-0.2,0.6-0.5,1.1-0.5c0.9,0,1.6,0.7,1.6,2c0,1.2-0.7,2-1.7,2c-0.5,0-0.8-0.2-1-0.3v2
		h-0.6C12.4,225.7,12.4,220.1,12.4,220.1z M15,222c0-0.9-0.3-1.5-1.1-1.5c-0.5,0-0.9,0.4-1,0.5v2.1c0.2,0.2,0.4,0.4,0.9,0.4
		C14.6,223.5,15,222.9,15,222z"/>
	<path class="st1" d="M16.7,220.1h0.6v0.6c0.2-0.3,0.5-0.7,1-0.7c0.2,0,0.4,0.1,0.4,0.1l-0.1,0.6c0,0-0.1-0.1-0.3-0.1
		c-0.6,0-0.9,0.7-0.9,0.8v2.6h-0.6v-3.9L16.7,220.1L16.7,220.1z"/>
	<path class="st1" d="M19.2,222c0-1.1,0.7-2,1.7-2s1.5,0.7,1.5,1.7c0,0.1,0,0.2,0,0.3h-2.6c0,0.8,0.3,1.5,1.2,1.5
		c0.5,0,0.9-0.2,1.1-0.3l0.2,0.5c-0.2,0.1-0.6,0.4-1.3,0.4C19.8,224,19.2,223.1,19.2,222z M21.8,221.5c0-0.5-0.3-1-0.9-1
		s-1,0.4-1.1,1H21.8z"/>
	<path class="st1" d="M23.2,223c0-1,1.1-1.3,2-1.3h0.2v-0.4c0-0.6-0.2-0.8-0.8-0.8c-0.4,0-0.7,0.1-1,0.4l-0.3-0.4
		c0.4-0.4,0.8-0.5,1.4-0.5c0.8,0,1.3,0.4,1.3,1.3v1.8c0,0.4,0,0.7,0.1,0.9h-0.6c0-0.1,0-0.3-0.1-0.5c-0.3,0.3-0.7,0.6-1.2,0.6
		C23.7,224,23.2,223.6,23.2,223z M25.4,223v-0.9h-0.2c-0.8,0-1.4,0.2-1.4,0.9c0,0.4,0.3,0.5,0.6,0.5C24.8,223.5,25.2,223.3,25.4,223
		z"/>
	<path class="st1" d="M27,222c0-1.2,0.7-2,1.7-2c0.4,0,0.7,0.1,1,0.3v-2.2h0.6v5c0,0.3,0,0.6,0.1,0.8h-0.6c0-0.1-0.1-0.3-0.1-0.4
		c-0.3,0.3-0.6,0.5-1.1,0.5C27.7,224,27,223.3,27,222z M29.7,223v-2.1c-0.2-0.2-0.5-0.4-0.9-0.4c-0.7,0-1.1,0.6-1.1,1.5
		s0.3,1.5,1.1,1.5C29.1,223.5,29.5,223.3,29.7,223z"/>
	<path class="st1" d="M33.5,223.7v-5.6h0.6v2.2c0.2-0.2,0.6-0.4,1-0.4c1,0,1.7,0.8,1.7,2s-0.8,2-1.9,2
		C34.2,224,33.8,223.9,33.5,223.7z M36.1,222c0-0.8-0.3-1.5-1.1-1.5c-0.3,0-0.7,0.2-0.8,0.4v2.5c0.2,0.1,0.4,0.1,0.7,0.1
		C35.6,223.5,36.1,222.8,36.1,222z"/>
	<path class="st1" d="M37.4,222c0-1.1,0.7-2,1.7-2s1.5,0.7,1.5,1.7c0,0.1,0,0.2,0,0.3H38c0,0.8,0.3,1.5,1.2,1.5
		c0.5,0,0.9-0.2,1.1-0.3l0.2,0.5c-0.2,0.1-0.6,0.4-1.3,0.4C38,224,37.4,223.1,37.4,222z M40,221.5c0-0.5-0.3-1-0.9-1
		c-0.6,0-1,0.4-1.1,1H40z"/>
	<path class="st1" d="M41.9,223v-2.5h-0.6V220h0.6v-1h0.6v1.1h1v0.5h-1v2.4c0,0.4,0.1,0.6,0.4,0.6c0.2,0,0.5-0.1,0.5-0.2l0.2,0.4
		c-0.1,0.1-0.4,0.2-0.8,0.2C42.2,224,41.9,223.6,41.9,223z"/>
	<path class="st1" d="M44.2,220.1h0.6l0.8,2.9l0,0l0.9-2.9h0.6L48,223l0,0l0.8-2.9h0.6l-1.2,3.8h-0.5l-1-3l0,0l-1,3h-0.5L44.2,220.1
		z"/>
	<path class="st1" d="M50,222c0-1.1,0.7-2,1.7-2s1.5,0.7,1.5,1.7c0,0.1,0,0.2,0,0.3h-2.6c0,0.8,0.3,1.5,1.2,1.5
		c0.5,0,0.9-0.2,1.1-0.3l0.2,0.5c-0.2,0.1-0.6,0.4-1.3,0.4C50.6,224,50,223.1,50,222z M52.6,221.5c0-0.5-0.3-1-0.9-1
		c-0.6,0-1,0.4-1.1,1H52.6z"/>
	<path class="st1" d="M54,222c0-1.1,0.7-2,1.7-2s1.5,0.7,1.5,1.7c0,0.1,0,0.2,0,0.3h-2.6c0,0.8,0.3,1.5,1.2,1.5
		c0.5,0,0.9-0.2,1.1-0.3l0.2,0.5c-0.2,0.1-0.6,0.4-1.3,0.4C54.6,224,54,223.1,54,222z M56.6,221.5c0-0.5-0.3-1-0.9-1
		c-0.6,0-1,0.4-1.1,1H56.6z"/>
	<path class="st1" d="M58.3,220.1h0.6v0.6c0.3-0.4,0.8-0.6,1.2-0.6c0.8,0,1.1,0.5,1.1,1.2v2.7h-0.6v-2.6c0-0.5-0.2-0.8-0.7-0.8
		c-0.4,0-0.8,0.3-1.1,0.7v2.7h-0.6L58.3,220.1L58.3,220.1z"/>
	<path class="st1" d="M65,218.6h0.6l1.3,3.6c0.2,0.4,0.2,0.7,0.3,1l0,0c0.1-0.3,0.2-0.5,0.3-1l1.3-3.6h0.6l0.7,5.3h-0.6l-0.5-3.5
		c0-0.4-0.1-0.6-0.1-0.7l0,0c-0.1,0.2-0.1,0.4-0.2,0.7l-1.3,3.5h-0.6l-1.3-3.5c-0.1-0.3-0.2-0.6-0.3-0.7l0,0c0,0.2,0,0.4-0.1,0.8
		l-0.4,3.5h-0.6L65,218.6z"/>
	<path class="st1" d="M71.1,223.5l0.3-0.4c0.1,0.1,0.5,0.5,1.2,0.5s1.1-0.4,1.1-0.9c0-0.6-0.6-0.9-1.2-1.2s-1.2-0.7-1.2-1.5
		c0-0.9,0.7-1.4,1.6-1.4c0.8,0,1.2,0.3,1.4,0.4l-0.3,0.5c-0.2-0.1-0.5-0.4-1.1-0.4c-0.5,0-0.9,0.3-0.9,0.8s0.4,0.8,1,1
		c0.7,0.3,1.5,0.7,1.5,1.7c0,0.8-0.7,1.4-1.7,1.4C71.8,224,71.2,223.7,71.1,223.5z"/>
	<path class="st1" d="M75.2,221.2c0-1.4,1-2.7,2.6-2.7c0.7,0,1.1,0.2,1.5,0.4l-0.3,0.5c-0.3-0.2-0.7-0.4-1.2-0.4
		c-1.3,0-1.9,1.1-1.9,2.2c0,1.2,0.6,2.3,2,2.3c0.6,0,1-0.2,1.3-0.5l0.3,0.4c-0.3,0.3-0.9,0.5-1.6,0.5
		C76.1,224,75.2,222.7,75.2,221.2z"/>
	<path class="st1" d="M80.6,218.6h0.6v5.3h-0.6V218.6z"/>
	<path class="st1" d="M84.8,218.6h2.7v0.5h-2.1v1.7h1.9v0.5h-1.9v2h2.2v0.5h-2.8C84.8,223.8,84.8,218.6,84.8,218.6z"/>
	<path class="st1" d="M88.6,222.8v-2.7h0.6v2.6c0,0.5,0.2,0.8,0.7,0.8c0.6,0,1-0.6,1.1-0.7v-2.7h0.6v3c0,0.3,0,0.7,0.1,0.8H91
		c0-0.1,0-0.4-0.1-0.6c-0.2,0.2-0.6,0.7-1.2,0.7C88.9,224,88.6,223.5,88.6,222.8z"/>
	<path class="st1" d="M92.9,220.1h0.6v0.6c0.2-0.3,0.5-0.7,1-0.7c0.2,0,0.4,0.1,0.4,0.1l-0.1,0.6c0,0-0.1-0.1-0.3-0.1
		c-0.6,0-0.9,0.7-0.9,0.8v2.6H93L92.9,220.1L92.9,220.1z"/>
	<path class="st1" d="M95.4,222c0-0.9,0.5-2,1.8-2s1.8,1.1,1.8,2s-0.5,2-1.8,2S95.4,222.9,95.4,222z M98.4,222
		c0-0.8-0.4-1.5-1.2-1.5c-0.8,0-1.1,0.7-1.1,1.5s0.4,1.5,1.2,1.5C98,223.5,98.4,222.8,98.4,222z"/>
	<path class="st1" d="M100.1,220.1h0.6v0.4c0.2-0.2,0.6-0.5,1.1-0.5c0.9,0,1.6,0.7,1.6,2c0,1.2-0.7,2-1.7,2c-0.5,0-0.8-0.2-1-0.3v2
		h-0.6V220.1z M102.7,222c0-0.9-0.3-1.5-1.1-1.5c-0.5,0-0.9,0.4-1,0.5v2.1c0.2,0.2,0.4,0.4,0.9,0.4
		C102.3,223.5,102.7,222.9,102.7,222z"/>
	<path class="st1" d="M104,222c0-1.1,0.7-2,1.7-2s1.5,0.7,1.5,1.7c0,0.1,0,0.2,0,0.3h-2.6c0,0.8,0.3,1.5,1.2,1.5
		c0.5,0,0.9-0.2,1.1-0.3l0.2,0.5c-0.2,0.1-0.6,0.4-1.3,0.4C104.6,224,104,223.1,104,222z M106.7,221.5c0-0.5-0.3-1-0.9-1
		s-1,0.4-1.1,1H106.7z"/>
	<path class="st1" d="M109.9,222c0-1.2,0.7-2,1.7-2c0.4,0,0.7,0.1,1,0.3v-2.2h0.6v5c0,0.3,0,0.6,0.1,0.8h-0.6c0-0.1-0.1-0.3-0.1-0.4
		c-0.3,0.3-0.6,0.5-1.1,0.5C110.6,224,109.9,223.3,109.9,222z M112.6,223v-2.1c-0.2-0.2-0.5-0.4-0.9-0.4c-0.7,0-1.1,0.6-1.1,1.5
		s0.3,1.5,1.1,1.5C112,223.5,112.3,223.3,112.6,223z"/>
	<path class="st1" d="M114.4,218.9c0-0.2,0.2-0.4,0.4-0.4s0.4,0.2,0.4,0.4s-0.2,0.4-0.4,0.4S114.4,219.2,114.4,218.9z M114.6,220.1
		h0.6v3.8h-0.6V220.1z"/>
	<path class="st1" d="M116.1,220.1h0.6l1.1,3.1l0,0l1.1-3.1h0.6l-1.4,3.8h-0.5L116.1,220.1z"/>
	<path class="st1" d="M120.3,218.9c0-0.2,0.2-0.4,0.4-0.4s0.4,0.2,0.4,0.4s-0.2,0.4-0.4,0.4S120.3,219.2,120.3,218.9z M120.4,220.1
		h0.6v3.8h-0.6V220.1z"/>
	<path class="st1" d="M122.1,222c0-1.2,0.7-2,1.7-2c0.4,0,0.7,0.1,1,0.3v-2.2h0.6v5c0,0.3,0,0.6,0.1,0.8h-0.6c0-0.1-0.1-0.3-0.1-0.4
		c-0.3,0.3-0.6,0.5-1.1,0.5C122.8,224,122.1,223.3,122.1,222z M124.8,223v-2.1c-0.2-0.2-0.5-0.4-0.9-0.4c-0.7,0-1.1,0.6-1.1,1.5
		s0.3,1.5,1.1,1.5C124.2,223.5,124.5,223.3,124.8,223z"/>
	<path class="st1" d="M126.4,222c0-1.1,0.7-2,1.7-2c1,0,1.5,0.7,1.5,1.7c0,0.1,0,0.2,0,0.3H127c0,0.8,0.3,1.5,1.2,1.5
		c0.5,0,0.9-0.2,1.1-0.3l0.2,0.5c-0.2,0.1-0.6,0.4-1.3,0.4C127,224,126.4,223.1,126.4,222z M129,221.5c0-0.5-0.3-1-0.9-1
		c-0.6,0-1,0.4-1.1,1H129z"/>
	<path class="st1" d="M130.7,220.1h0.6v0.6c0.3-0.4,0.8-0.6,1.2-0.6c0.8,0,1.1,0.5,1.1,1.2v2.7H133v-2.6c0-0.5-0.2-0.8-0.7-0.8
		c-0.4,0-0.8,0.3-1.1,0.7v2.7h-0.6v-3.9L130.7,220.1L130.7,220.1z"/>
	<path class="st1" d="M134.7,222c0-1.2,0.7-2,1.7-2c0.4,0,0.7,0.1,1,0.3v-2.2h0.6v5c0,0.3,0,0.6,0.1,0.8h-0.6c0-0.1-0.1-0.3-0.1-0.4
		c-0.3,0.3-0.6,0.5-1.1,0.5C135.4,224,134.7,223.3,134.7,222z M137.4,223v-2.1c-0.2-0.2-0.5-0.4-0.9-0.4c-0.7,0-1.1,0.6-1.1,1.5
		s0.3,1.5,1.1,1.5C136.8,223.5,137.1,223.3,137.4,223z"/>
	<path class="st1" d="M140.6,225.7l0.1-0.5c0.1,0,0.1,0,0.3,0c0.5,0,0.8-0.3,1-0.9l0.2-0.5l-1.4-3.8h0.7l1.1,3.1l0,0l1.1-3.1h0.6
		l-1.6,4.3c-0.3,0.7-0.6,1.3-1.5,1.3C140.8,225.8,140.7,225.8,140.6,225.7z"/>
	<path class="st1" d="M144.9,218.9c0-0.2,0.2-0.4,0.4-0.4s0.4,0.2,0.4,0.4s-0.2,0.4-0.4,0.4C145.1,219.4,144.9,219.2,144.9,218.9z
		 M145.1,220.1h0.6v3.8h-0.6V220.1z"/>
	<path class="st1" d="M146.8,222c0-1.1,0.7-2,1.7-2s1.5,0.7,1.5,1.7c0,0.1,0,0.2,0,0.3h-2.6c0,0.8,0.3,1.5,1.2,1.5
		c0.5,0,0.9-0.2,1.1-0.3l0.2,0.5c-0.2,0.1-0.6,0.4-1.3,0.4C147.4,224,146.8,223.1,146.8,222z M149.4,221.5c0-0.5-0.3-1-0.9-1
		c-0.6,0-1,0.4-1.1,1H149.4z"/>
	<path class="st1" d="M151.1,218.2h0.6v5.8h-0.6V218.2z"/>
	<path class="st1" d="M152.8,222c0-1.2,0.7-2,1.7-2c0.4,0,0.7,0.1,1,0.3v-2.2h0.6v5c0,0.3,0,0.6,0.1,0.8h-0.6c0-0.1-0.1-0.3-0.1-0.4
		c-0.3,0.3-0.6,0.5-1.1,0.5C153.4,224,152.8,223.3,152.8,222z M155.4,223v-2.1c-0.2-0.2-0.5-0.4-0.9-0.4c-0.7,0-1.1,0.6-1.1,1.5
		s0.3,1.5,1.1,1.5C154.8,223.5,155.2,223.3,155.4,223z"/>
	<path class="st1" d="M158.9,223c0-1,1.1-1.3,2-1.3h0.2v-0.4c0-0.6-0.2-0.8-0.8-0.8c-0.4,0-0.7,0.1-1,0.4l-0.3-0.4
		c0.4-0.4,0.8-0.5,1.4-0.5c0.8,0,1.3,0.4,1.3,1.3v1.8c0,0.4,0,0.7,0.1,0.9h-0.6c0-0.1,0-0.3-0.1-0.5c-0.3,0.3-0.7,0.6-1.2,0.6
		C159.4,224,158.9,223.6,158.9,223z M161.2,223v-0.9H161c-0.8,0-1.4,0.2-1.4,0.9c0,0.4,0.3,0.5,0.6,0.5
		C160.6,223.5,160.9,223.3,161.2,223z"/>
	<path class="st1" d="M163.1,220.1h0.6v0.6c0.3-0.4,0.8-0.6,1.2-0.6c0.8,0,1.1,0.5,1.1,1.2v2.7h-0.6v-2.6c0-0.5-0.2-0.8-0.7-0.8
		c-0.4,0-0.8,0.3-1.1,0.7v2.7H163v-3.9L163.1,220.1L163.1,220.1z"/>
	<path class="st1" d="M167.1,222c0-1.2,0.7-2,1.7-2c0.4,0,0.7,0.1,1,0.3v-2.2h0.6v5c0,0.3,0,0.6,0.1,0.8h-0.6c0-0.1-0.1-0.3-0.1-0.4
		c-0.3,0.3-0.6,0.5-1.1,0.5C167.7,224,167.1,223.3,167.1,222z M169.8,223v-2.1c-0.2-0.2-0.5-0.4-0.9-0.4c-0.7,0-1.1,0.6-1.1,1.5
		s0.3,1.5,1.1,1.5C169.1,223.5,169.5,223.3,169.8,223z"/>
</g>
<path class="st1" d="M9,228l-1,0.3l-0.1-0.5l1.3-0.4h0.5v5.3H9V228z M10.9,230.1c0-1.3,0.5-2.8,2-2.8c1.4,0,2,1.4,2,2.8
	s-0.6,2.8-2,2.8C11.4,232.8,10.9,231.4,10.9,230.1z M14.2,230.1c0-1.3-0.4-2.3-1.4-2.3s-1.4,1-1.4,2.3s0.4,2.3,1.4,2.3
	C13.8,232.3,14.2,231.3,14.2,230.1z M15.8,229.7h1.6v0.5h-1.6C15.8,230.2,15.8,229.7,15.8,229.7z"/>
<g>
	<path class="st1" d="M18,234.5l0.1-0.5c0.1,0,0.1,0,0.3,0c0.5,0,0.8-0.3,1-0.9l0.2-0.5l-1.4-3.8h0.7l1.1,3.1l0,0l1.1-3.1h0.6
		l-1.6,4.3c-0.3,0.7-0.6,1.3-1.5,1.3C18.2,234.6,18.1,234.6,18,234.5z"/>
	<path class="st1" d="M22,230.8c0-1.1,0.7-2,1.7-2s1.5,0.7,1.5,1.7c0,0.1,0,0.2,0,0.3h-2.6c0,0.8,0.3,1.5,1.2,1.5
		c0.5,0,0.9-0.2,1.1-0.3l0.2,0.5c-0.2,0.1-0.6,0.4-1.3,0.4C22.6,232.8,22,231.9,22,230.8z M24.6,230.3c0-0.5-0.3-1-0.9-1
		s-1,0.4-1.1,1H24.6z"/>
	<path class="st1" d="M26,231.8c0-1,1.1-1.3,2-1.3h0.2v-0.4c0-0.6-0.2-0.8-0.8-0.8c-0.4,0-0.7,0.1-1,0.4l-0.3-0.4
		c0.4-0.4,0.8-0.5,1.4-0.5c0.8,0,1.3,0.4,1.3,1.3v1.8c0,0.4,0,0.7,0.1,0.9h-0.6c0-0.1,0-0.3-0.1-0.5c-0.3,0.3-0.7,0.6-1.2,0.6
		C26.5,232.8,26,232.4,26,231.8z M28.2,231.8v-0.9H28c-0.8,0-1.4,0.2-1.4,0.9c0,0.4,0.3,0.5,0.6,0.5C27.7,232.3,28,232.1,28.2,231.8
		z"/>
	<path class="st1" d="M30.2,228.9h0.6v0.6c0.2-0.3,0.5-0.7,1-0.7c0.2,0,0.4,0.1,0.4,0.1l-0.1,0.6c0,0-0.1-0.1-0.3-0.1
		c-0.6,0-0.9,0.7-0.9,0.8v2.6h-0.6v-3.9L30.2,228.9L30.2,228.9z"/>
	<path class="st1" d="M34.7,230c0-1.4,1-2.7,2.7-2.7c0.7,0,1.2,0.2,1.7,0.5l-0.3,0.5c-0.4-0.3-0.8-0.4-1.4-0.4c-1.4,0-2,1.1-2,2.2
		c0,1.2,0.6,2.3,2,2.3c0.6,0,1-0.1,1.3-0.3v-1.5h-1.1v-0.5h1.8v2.3c-0.4,0.3-1.1,0.6-2,0.6C35.6,232.8,34.7,231.5,34.7,230z"/>
	<path class="st1" d="M40.3,230.8c0-1.1,0.7-2,1.7-2s1.5,0.7,1.5,1.7c0,0.1,0,0.2,0,0.3h-2.6c0,0.8,0.3,1.5,1.2,1.5
		c0.5,0,0.9-0.2,1.1-0.3l0.2,0.5c-0.2,0.1-0.6,0.4-1.3,0.4C40.9,232.8,40.3,231.9,40.3,230.8z M43,230.3c0-0.5-0.3-1-0.9-1
		c-0.6,0-1,0.4-1.1,1H43z"/>
	<path class="st1" d="M44.6,228.9h0.6v0.6c0.2-0.3,0.5-0.7,1-0.7c0.2,0,0.4,0.1,0.4,0.1l-0.1,0.6c0,0-0.1-0.1-0.3-0.1
		c-0.6,0-0.9,0.7-0.9,0.8v2.6h-0.6v-3.9L44.6,228.9L44.6,228.9z"/>
	<path class="st1" d="M47.5,228.9h0.6v0.5c0.2-0.2,0.5-0.6,1.2-0.6c0.6,0,0.9,0.3,1,0.6c0.3-0.3,0.7-0.6,1.2-0.6
		c0.8,0,1.1,0.5,1.1,1.2v2.7H52v-2.6c0-0.5-0.1-0.8-0.6-0.8s-0.8,0.4-1,0.6v2.8h-0.6v-2.6c0-0.5-0.2-0.8-0.6-0.8c-0.6,0-1,0.6-1,0.7
		v2.7h-0.6v-3.8L47.5,228.9L47.5,228.9z"/>
	<path class="st1" d="M53.6,231.8c0-1,1.1-1.3,2-1.3h0.2v-0.4c0-0.6-0.2-0.8-0.8-0.8c-0.4,0-0.7,0.1-1,0.4l-0.3-0.4
		c0.4-0.4,0.8-0.5,1.4-0.5c0.8,0,1.3,0.4,1.3,1.3v1.8c0,0.4,0,0.7,0.1,0.9h-0.6c0-0.1,0-0.3-0.1-0.5c-0.3,0.3-0.7,0.6-1.2,0.6
		C54.1,232.8,53.6,232.4,53.6,231.8z M55.8,231.8v-0.9h-0.2c-0.8,0-1.4,0.2-1.4,0.9c0,0.4,0.3,0.5,0.6,0.5
		C55.2,232.3,55.6,232.1,55.8,231.8z"/>
	<path class="st1" d="M57.8,228.9h0.6v0.6c0.3-0.4,0.8-0.6,1.2-0.6c0.8,0,1.1,0.5,1.1,1.2v2.7h-0.6v-2.6c0-0.5-0.2-0.8-0.7-0.8
		c-0.4,0-0.8,0.3-1.1,0.7v2.7h-0.6L57.8,228.9L57.8,228.9z"/>
	<path class="st1" d="M63.7,233.6c0-0.4,0.3-0.8,0.7-1c-0.2-0.1-0.3-0.3-0.3-0.6s0.2-0.5,0.4-0.6c-0.4-0.2-0.7-0.7-0.7-1.2
		c0-0.8,0.6-1.4,1.5-1.4c0.2,0,0.4,0,0.6,0.1h1.2v0.5h-0.6c0.2,0.2,0.3,0.5,0.3,0.8c0,0.8-0.6,1.4-1.5,1.4c-0.2,0-0.3,0-0.4,0
		c-0.2,0.1-0.3,0.2-0.3,0.3c0,0.2,0.2,0.3,0.5,0.3c0.8,0,2,0,2,1.2c0,0.8-0.9,1.3-1.9,1.3C64.4,234.6,63.7,234.3,63.7,233.6z
		 M66.5,233.4c0-0.6-0.5-0.6-1-0.6c-0.2,0-0.5,0-0.7-0.1c-0.4,0.2-0.5,0.5-0.5,0.8c0,0.4,0.3,0.7,1,0.7
		C66,234.2,66.5,233.8,66.5,233.4z M66.2,230.2c0-0.5-0.3-0.9-0.9-0.9s-0.9,0.4-0.9,0.9s0.3,0.9,0.9,0.9
		C65.8,231.1,66.2,230.7,66.2,230.2z"/>
	<path class="st1" d="M67.7,230.8c0-0.9,0.5-2,1.8-2s1.8,1.1,1.8,2s-0.5,2-1.8,2S67.7,231.7,67.7,230.8z M70.7,230.8
		c0-0.8-0.4-1.5-1.2-1.5c-0.8,0-1.1,0.7-1.1,1.5s0.4,1.5,1.2,1.5C70.3,232.3,70.7,231.6,70.7,230.8z"/>
	<path class="st1" d="M71.8,228.9h0.6l1.1,3.1l0,0l1.1-3.1h0.6l-1.4,3.8h-0.5L71.8,228.9z"/>
	<path class="st1" d="M75.7,230.8c0-1.1,0.7-2,1.7-2s1.5,0.7,1.5,1.7c0,0.1,0,0.2,0,0.3h-2.6c0,0.8,0.3,1.5,1.2,1.5
		c0.5,0,0.9-0.2,1.1-0.3l0.2,0.5c-0.2,0.1-0.6,0.4-1.3,0.4C76.3,232.8,75.7,231.9,75.7,230.8z M78.3,230.3c0-0.5-0.3-1-0.9-1
		s-1,0.4-1.1,1H78.3z"/>
	<path class="st1" d="M80,228.9h0.6v0.6c0.2-0.3,0.5-0.7,1-0.7c0.2,0,0.4,0.1,0.4,0.1l-0.1,0.6c0,0-0.1-0.1-0.3-0.1
		c-0.6,0-0.9,0.7-0.9,0.8v2.6H80V228.9z"/>
	<path class="st1" d="M82.9,228.9h0.6v0.6c0.3-0.4,0.8-0.6,1.2-0.6c0.8,0,1.1,0.5,1.1,1.2v2.7h-0.6v-2.6c0-0.5-0.2-0.8-0.7-0.8
		c-0.4,0-0.8,0.3-1.1,0.7v2.7h-0.6L82.9,228.9L82.9,228.9z"/>
	<path class="st1" d="M87.2,228.9h0.6v0.5c0.2-0.2,0.5-0.6,1.2-0.6c0.6,0,0.9,0.3,1,0.6c0.3-0.3,0.7-0.6,1.2-0.6
		c0.8,0,1.1,0.5,1.1,1.2v2.7h-0.6v-2.6c0-0.5-0.1-0.8-0.6-0.8s-0.8,0.4-1,0.6v2.8h-0.6v-2.6c0-0.5-0.2-0.8-0.6-0.8
		c-0.6,0-1,0.6-1,0.7v2.7h-0.6L87.2,228.9L87.2,228.9z"/>
	<path class="st1" d="M93.3,230.8c0-1.1,0.7-2,1.7-2s1.5,0.7,1.5,1.7c0,0.1,0,0.2,0,0.3h-2.6c0,0.8,0.3,1.5,1.2,1.5
		c0.5,0,0.9-0.2,1.1-0.3l0.2,0.5c-0.2,0.1-0.6,0.4-1.3,0.4C93.9,232.8,93.3,231.9,93.3,230.8z M95.9,230.3c0-0.5-0.3-1-0.9-1
		s-1,0.4-1.1,1H95.9z"/>
	<path class="st1" d="M97.6,228.9h0.6v0.6c0.3-0.4,0.8-0.6,1.2-0.6c0.8,0,1.1,0.5,1.1,1.2v2.7H100v-2.6c0-0.5-0.2-0.8-0.7-0.8
		c-0.4,0-0.8,0.3-1.1,0.7v2.7h-0.6C97.6,232.8,97.6,228.9,97.6,228.9z"/>
	<path class="st1" d="M102.1,231.8v-2.5h-0.6v-0.5h0.6v-1.1h0.6v1.1h1v0.5h-1v2.4c0,0.4,0.1,0.6,0.4,0.6c0.2,0,0.5-0.1,0.5-0.2
		l0.2,0.4c-0.1,0.1-0.4,0.2-0.8,0.2C102.4,232.8,102.1,232.4,102.1,231.8z"/>
	<path class="st1" d="M106.7,232.5V227h0.6v2.2c0.2-0.2,0.6-0.4,1-0.4c1,0,1.7,0.8,1.7,2s-0.8,2-1.9,2
		C107.4,232.8,106.9,232.7,106.7,232.5z M109.2,230.8c0-0.8-0.3-1.5-1.1-1.5c-0.3,0-0.7,0.2-0.8,0.4v2.5c0.2,0.1,0.4,0.1,0.7,0.1
		C108.8,232.3,109.2,231.6,109.2,230.8z"/>
	<path class="st1" d="M110.6,230.8c0-0.9,0.5-2,1.8-2s1.8,1.1,1.8,2s-0.5,2-1.8,2S110.6,231.7,110.6,230.8z M113.5,230.8
		c0-0.8-0.4-1.5-1.2-1.5c-0.8,0-1.1,0.7-1.1,1.5s0.4,1.5,1.2,1.5S113.5,231.6,113.5,230.8z"/>
	<path class="st1" d="M115.2,228.9h0.6v0.6c0.3-0.4,0.8-0.6,1.2-0.6c0.8,0,1.1,0.5,1.1,1.2v2.7h-0.6v-2.6c0-0.5-0.2-0.8-0.7-0.8
		c-0.4,0-0.8,0.3-1.1,0.7v2.7h-0.6L115.2,228.9L115.2,228.9z"/>
	<path class="st1" d="M119.2,230.8c0-1.2,0.7-2,1.7-2c0.4,0,0.7,0.1,1,0.3V227h0.6v5c0,0.3,0,0.6,0.1,0.8H122c0-0.1-0.1-0.3-0.1-0.4
		c-0.3,0.3-0.6,0.5-1.1,0.5C119.9,232.8,119.2,232.1,119.2,230.8z M121.9,231.8v-2.1c-0.2-0.2-0.5-0.4-0.9-0.4
		c-0.7,0-1.1,0.6-1.1,1.5s0.3,1.5,1.1,1.5C121.2,232.3,121.6,232.1,121.9,231.8z"/>
	<path class="st1" d="M125.1,234.5l0.1-0.5c0.1,0,0.1,0,0.3,0c0.5,0,0.8-0.3,1-0.9l0.2-0.5l-1.4-3.8h0.7l1.1,3.1l0,0l1.1-3.1h0.6
		l-1.6,4.3c-0.3,0.7-0.6,1.3-1.5,1.3C125.3,234.6,125.2,234.6,125.1,234.5z"/>
	<path class="st1" d="M129.4,227.7c0-0.2,0.2-0.4,0.4-0.4s0.4,0.2,0.4,0.4s-0.2,0.4-0.4,0.4C129.6,228.2,129.4,228,129.4,227.7z
		 M129.6,228.9h0.6v3.8h-0.6V228.9z"/>
	<path class="st1" d="M131.2,230.8c0-1.1,0.7-2,1.7-2s1.5,0.7,1.5,1.7c0,0.1,0,0.2,0,0.3h-2.6c0,0.8,0.3,1.5,1.2,1.5
		c0.5,0,0.9-0.2,1.1-0.3l0.2,0.5c-0.2,0.1-0.6,0.4-1.3,0.4C131.8,232.8,131.2,231.9,131.2,230.8z M133.9,230.3c0-0.5-0.3-1-0.9-1
		c-0.6,0-1,0.4-1.1,1H133.9z"/>
	<path class="st1" d="M135.6,227h0.6v5.8h-0.6V227z"/>
	<path class="st1" d="M137.2,230.8c0-1.2,0.7-2,1.7-2c0.4,0,0.7,0.1,1,0.3V227h0.6v5c0,0.3,0,0.6,0.1,0.8H140c0-0.1-0.1-0.3-0.1-0.4
		c-0.3,0.3-0.6,0.5-1.1,0.5C137.9,232.8,137.2,232.1,137.2,230.8z M139.9,231.8v-2.1c-0.2-0.2-0.5-0.4-0.9-0.4
		c-0.7,0-1.1,0.6-1.1,1.5s0.3,1.5,1.1,1.5C139.3,232.3,139.7,232.1,139.9,231.8z"/>
	<path class="st1" d="M143.5,230.5c0-1.3,0.6-2.6,1.4-3.5h0.6c-0.7,0.7-1.4,1.9-1.4,3.5c0,1.5,0.5,2.7,1.4,3.7H145
		C144,233.1,143.5,231.9,143.5,230.5z"/>
</g>
<path class="st1" d="M145.9,228.7c0-0.6,0.4-1.3,1.4-1.3s1.4,0.7,1.4,1.3s-0.4,1.3-1.4,1.3C146.3,230,145.9,229.3,145.9,228.7z
	 M148.2,228.7c0-0.5-0.3-0.9-0.9-0.9s-0.9,0.4-0.9,0.9s0.3,0.9,0.9,0.9C147.8,229.6,148.2,229.2,148.2,228.7z M150.4,227.4h0.6
	l-3.4,5.3H147L150.4,227.4z M149.3,231.4c0-0.6,0.4-1.3,1.4-1.3s1.4,0.7,1.4,1.3s-0.4,1.3-1.4,1.3
	C149.7,232.8,149.3,232.1,149.3,231.4z M151.5,231.4c0-0.5-0.3-0.9-0.9-0.9s-0.9,0.4-0.9,0.9s0.3,0.9,0.9,0.9
	C151.2,232.4,151.5,232,151.5,231.4z"/>
<g>
	<path class="st1" d="M153.8,230.6c0-1.5-0.5-2.7-1.4-3.7h0.6c0.9,1,1.4,2.3,1.4,3.7s-0.6,2.6-1.4,3.5h-0.6
		C153.1,233.5,153.8,232.2,153.8,230.6z"/>
</g>
<line class="st5" x1="-0.2" y1="221.2" x2="5.4" y2="221.2"/>
</svg>
