<?xml version="1.0" encoding="utf-8"?>
<!-- Generator: Adobe Illustrator 26.0.1, SVG Export Plug-In . SVG Version: 6.00 Build 0)  -->
<svg version="1.1" id="Layer_3" xmlns="http://www.w3.org/2000/svg" xmlns:xlink="http://www.w3.org/1999/xlink" x="0px" y="0px"
	 viewBox="0 0 250 250" style="enable-background:new 0 0 250 250;" xml:space="preserve">
<style type="text/css">
	.st0{fill:none;stroke:#555555;stroke-width:1.6;}
	.st1{fill:#4D4D4F;}
	.st2{fill:none;stroke:#B19E4E;stroke-width:1.6;}
	.st3{fill:none;stroke:#BCBEC0;stroke-width:0.5;}
	.st4{fill:none;stroke:#555555;stroke-width:2;}
	.st5{fill:none;stroke:#B19E4E;stroke-linecap:round;stroke-linejoin:round;stroke-miterlimit:10;}
</style>
<line class="st0" x1="0" y1="235.5" x2="5.6" y2="235.5"/>
<path class="st1" d="M8.4,238.2l0.1-0.5c0.1,0,0.2,0,0.5,0c0.9,0,1.7-0.4,1.7-1.3c0-0.9-0.7-1.2-1.6-1.2c-0.2,0-0.4,0-0.4,0l0.2-2.5
	h2.4v0.5H9.4l-0.1,1.4c1.3,0,2,0.6,2,1.6c0,1.2-1,1.8-2.4,1.8C8.7,238.2,8.5,238.2,8.4,238.2z M12.2,235h1.6v0.5h-1.6V235z"/>
<g>
	<path class="st1" d="M14.4,239.9l0.1-0.5c0.1,0,0.1,0,0.3,0c0.5,0,0.8-0.3,1-0.9L16,238l-1.4-3.8h0.7l1.1,3.1l0,0l1.1-3.1h0.6
		l-1.6,4.4c-0.3,0.7-0.6,1.3-1.5,1.3C14.5,240,14.4,239.9,14.4,239.9z"/>
	<path class="st1" d="M18.4,236.2c0-1.1,0.7-2,1.7-2s1.5,0.7,1.5,1.7c0,0.1,0,0.2,0,0.3H19c0,0.8,0.3,1.5,1.2,1.5
		c0.5,0,0.9-0.2,1.1-0.3l0.2,0.5c-0.2,0.1-0.6,0.4-1.3,0.4C19,238.2,18.4,237.3,18.4,236.2z M21,235.7c0-0.5-0.3-1-0.9-1
		s-1,0.4-1.1,1H21z"/>
	<path class="st1" d="M22.4,237.2c0-1,1.1-1.3,2-1.3h0.2v-0.4c0-0.6-0.2-0.8-0.8-0.8c-0.4,0-0.7,0.1-1,0.4l-0.3-0.4
		c0.4-0.4,0.8-0.5,1.4-0.5c0.8,0,1.3,0.4,1.3,1.3v1.8c0,0.4,0,0.7,0.1,0.9h-0.6c0-0.1,0-0.3-0.1-0.5c-0.3,0.3-0.7,0.6-1.2,0.6
		C22.9,238.2,22.4,237.8,22.4,237.2z M24.6,237.1v-0.9h-0.2c-0.8,0-1.4,0.2-1.4,0.9c0,0.4,0.3,0.5,0.6,0.5
		C24,237.7,24.4,237.5,24.6,237.1z"/>
	<path class="st1" d="M26.6,234.3h0.6v0.6c0.2-0.3,0.5-0.7,1-0.7c0.2,0,0.4,0.1,0.4,0.1l-0.1,0.6c0,0-0.1-0.1-0.3-0.1
		c-0.6,0-0.9,0.7-0.9,0.8v2.6h-0.6v-3.9L26.6,234.3L26.6,234.3z"/>
</g>
<g>
	<path class="st1" d="M31,237.2c0-1,1.1-1.3,2-1.3h0.2v-0.4c0-0.6-0.2-0.8-0.8-0.8c-0.4,0-0.7,0.1-1,0.4l-0.3-0.4
		c0.4-0.4,0.8-0.5,1.4-0.5c0.8,0,1.3,0.4,1.3,1.3v1.8c0,0.4,0,0.7,0.1,0.9h-0.6c0-0.1,0-0.3-0.1-0.5c-0.3,0.3-0.7,0.6-1.2,0.6
		C31.5,238.2,31,237.8,31,237.2z M33.2,237.1v-0.9H33c-0.8,0-1.4,0.2-1.4,0.9c0,0.4,0.3,0.5,0.6,0.5C32.6,237.7,33,237.5,33.2,237.1
		z"/>
	<path class="st1" d="M34.6,234.3h0.6l1.1,3.1l0,0l1.1-3.1H38l-1.4,3.8h-0.5L34.6,234.3z"/>
	<path class="st1" d="M38.5,236.2c0-1.1,0.7-2,1.7-2s1.5,0.7,1.5,1.7c0,0.1,0,0.2,0,0.3h-2.6c0,0.8,0.3,1.5,1.2,1.5
		c0.5,0,0.9-0.2,1.1-0.3l0.2,0.5c-0.2,0.1-0.6,0.4-1.3,0.4C39.1,238.2,38.5,237.3,38.5,236.2z M41.2,235.7c0-0.5-0.3-1-0.9-1
		c-0.6,0-1,0.4-1.1,1H41.2z"/>
	<path class="st1" d="M42.9,234.3h0.6v0.6c0.2-0.3,0.5-0.7,1-0.7c0.2,0,0.4,0.1,0.4,0.1l-0.1,0.6c0,0-0.1-0.1-0.3-0.1
		c-0.6,0-0.9,0.7-0.9,0.8v2.6H43L42.9,234.3L42.9,234.3L42.9,234.3z"/>
	<path class="st1" d="M45.4,237.2c0-1,1.1-1.3,2-1.3h0.2v-0.4c0-0.6-0.2-0.8-0.8-0.8c-0.4,0-0.7,0.1-1,0.4l-0.3-0.4
		c0.4-0.4,0.8-0.5,1.4-0.5c0.8,0,1.3,0.4,1.3,1.3v1.8c0,0.4,0,0.7,0.1,0.9h-0.6c0-0.1,0-0.3-0.1-0.5c-0.3,0.3-0.7,0.6-1.2,0.6
		C45.9,238.2,45.4,237.8,45.4,237.2z M47.6,237.1v-0.9h-0.2c-0.8,0-1.4,0.2-1.4,0.9c0,0.4,0.3,0.5,0.6,0.5
		C47,237.7,47.4,237.5,47.6,237.1z"/>
	<path class="st1" d="M49.2,238.9c0-0.4,0.3-0.8,0.7-1c-0.2-0.1-0.3-0.3-0.3-0.6s0.2-0.5,0.4-0.6c-0.4-0.2-0.7-0.7-0.7-1.2
		c0-0.8,0.6-1.4,1.5-1.4c0.2,0,0.4,0,0.6,0.1h1.2v0.5H52c0.2,0.2,0.3,0.5,0.3,0.8c0,0.8-0.6,1.4-1.5,1.4c-0.2,0-0.3,0-0.4,0
		c-0.2,0.1-0.3,0.2-0.3,0.3c0,0.2,0.2,0.3,0.5,0.3c0.8,0,2,0,2,1.2c0,0.8-0.9,1.3-1.9,1.3C49.9,240,49.2,239.7,49.2,238.9z
		 M52.1,238.8c0-0.6-0.5-0.6-1-0.6c-0.2,0-0.5,0-0.7-0.1c-0.4,0.2-0.5,0.5-0.5,0.8c0,0.4,0.3,0.7,1,0.7
		C51.6,239.5,52.1,239.2,52.1,238.8z M51.7,235.6c0-0.5-0.3-0.9-0.9-0.9c-0.6,0-0.9,0.4-0.9,0.9s0.3,0.9,0.9,0.9
		S51.7,236.1,51.7,235.6z"/>
	<path class="st1" d="M53.3,236.2c0-1.1,0.7-2,1.7-2s1.5,0.7,1.5,1.7c0,0.1,0,0.2,0,0.3h-2.6c0,0.8,0.3,1.5,1.2,1.5
		c0.5,0,0.9-0.2,1.1-0.3l0.2,0.5c-0.2,0.1-0.6,0.4-1.3,0.4C53.9,238.2,53.3,237.3,53.3,236.2z M55.9,235.7c0-0.5-0.3-1-0.9-1
		c-0.6,0-1,0.4-1.1,1H55.9z"/>
</g>
<g>
	<path class="st1" d="M59.3,235.9c0-1.3,0.6-2.6,1.4-3.5h0.6c-0.7,0.7-1.4,1.9-1.4,3.5c0,1.5,0.5,2.7,1.4,3.7h-0.6
		C59.8,238.5,59.3,237.2,59.3,235.9z"/>
</g>
<path class="st1" d="M61.7,234c0-0.6,0.4-1.3,1.4-1.3c1,0,1.4,0.7,1.4,1.3s-0.4,1.3-1.4,1.3C62.1,235.4,61.7,234.6,61.7,234z
	 M63.9,234c0-0.5-0.3-0.9-0.9-0.9s-0.9,0.4-0.9,0.9s0.3,0.9,0.9,0.9C63.6,234.9,63.9,234.5,63.9,234z M66.1,232.8h0.6l-3.4,5.3h-0.6
	L66.1,232.8z M65,236.8c0-0.6,0.4-1.3,1.4-1.3s1.4,0.7,1.4,1.3s-0.4,1.3-1.4,1.3C65.4,238.2,65,237.4,65,236.8z M67.3,236.8
	c0-0.5-0.3-0.9-0.9-0.9s-0.9,0.4-0.9,0.9s0.3,0.9,0.9,0.9C66.9,237.7,67.3,237.3,67.3,236.8z"/>
<g>
	<path class="st1" d="M69.5,236c0-1.5-0.5-2.7-1.4-3.7h0.6c0.9,1,1.4,2.3,1.4,3.7s-0.6,2.6-1.4,3.5h-0.6
		C68.8,238.8,69.5,237.6,69.5,236z"/>
</g>
<g>
	<g>
		<path class="st1" d="M9,222.8h0.6l1.3,3.6c0.2,0.4,0.2,0.7,0.3,1l0,0c0.1-0.3,0.2-0.5,0.3-1l1.3-3.6h0.6l0.7,5.3h-0.6l-0.5-3.5
			c0-0.4-0.1-0.6-0.1-0.7l0,0c-0.1,0.2-0.1,0.4-0.2,0.7l-1.3,3.5H11l-1.3-3.5c-0.1-0.3-0.2-0.6-0.3-0.7l0,0c0,0.2,0,0.4-0.1,0.8
			l-0.4,3.5H8.3L9,222.8z"/>
		<path class="st1" d="M15.1,227.7l0.3-0.4c0.1,0.1,0.5,0.5,1.2,0.5c0.7,0,1.1-0.4,1.1-0.9c0-0.6-0.6-0.9-1.2-1.2s-1.2-0.7-1.2-1.5
			c0-0.9,0.7-1.4,1.6-1.4c0.8,0,1.2,0.3,1.4,0.4l-0.3,0.5c-0.2-0.1-0.5-0.4-1.1-0.4c-0.5,0-0.9,0.3-0.9,0.8s0.4,0.8,1,1
			c0.7,0.3,1.5,0.7,1.5,1.7c0,0.8-0.7,1.4-1.7,1.4C15.8,228.2,15.3,227.8,15.1,227.7z"/>
		<path class="st1" d="M19.2,225.4c0-1.4,1-2.7,2.6-2.7c0.7,0,1.1,0.2,1.5,0.4l-0.3,0.5c-0.3-0.2-0.7-0.4-1.2-0.4
			c-1.3,0-1.9,1.1-1.9,2.2c0,1.2,0.6,2.3,2,2.3c0.6,0,1-0.2,1.3-0.5l0.3,0.4c-0.3,0.3-0.9,0.5-1.6,0.5
			C20.2,228.2,19.2,226.9,19.2,225.4z"/>
		<path class="st1" d="M24.6,222.8h0.6v5.3h-0.6V222.8z"/>
		<path class="st1" d="M27.8,229.5l0.1-0.5c0.1,0,0.2,0.1,0.3,0.1c0.4,0,0.6-0.3,0.6-0.9v-5.3h0.6v5.4c0,0.9-0.4,1.4-1.2,1.4
			C28.1,229.6,27.9,229.6,27.8,229.5z"/>
		<path class="st1" d="M30.7,227.2c0-1,1.1-1.3,2-1.3h0.2v-0.4c0-0.6-0.2-0.8-0.8-0.8c-0.4,0-0.7,0.1-1,0.4l-0.3-0.4
			c0.4-0.4,0.8-0.5,1.4-0.5c0.8,0,1.3,0.4,1.3,1.3v1.8c0,0.4,0,0.7,0.1,0.9H33c0-0.1,0-0.3-0.1-0.5c-0.3,0.3-0.7,0.6-1.2,0.6
			C31.2,228.2,30.7,227.8,30.7,227.2z M32.9,227.1v-0.9h-0.2c-0.8,0-1.4,0.2-1.4,0.9c0,0.4,0.3,0.5,0.6,0.5
			C32.3,227.7,32.7,227.5,32.9,227.1z"/>
		<path class="st1" d="M34.9,224.3h0.6v0.4c0.2-0.2,0.6-0.5,1.1-0.5c0.9,0,1.6,0.7,1.6,2c0,1.2-0.7,2-1.7,2c-0.5,0-0.8-0.2-1-0.3v2
			h-0.6C34.9,229.9,34.9,224.3,34.9,224.3z M37.5,226.2c0-0.9-0.3-1.5-1.1-1.5c-0.5,0-0.9,0.4-1,0.5v2.1c0.2,0.2,0.4,0.4,0.9,0.4
			C37.1,227.7,37.5,227.1,37.5,226.2z"/>
		<path class="st1" d="M38.9,227.2c0-1,1.1-1.3,2-1.3h0.2v-0.4c0-0.6-0.2-0.8-0.8-0.8c-0.4,0-0.7,0.1-1,0.4l-0.3-0.4
			c0.4-0.4,0.8-0.5,1.4-0.5c0.8,0,1.3,0.4,1.3,1.3v1.8c0,0.4,0,0.7,0.1,0.9h-0.6c0-0.1,0-0.3-0.1-0.5c-0.3,0.3-0.7,0.6-1.2,0.6
			C39.3,228.2,38.9,227.8,38.9,227.2z M41.1,227.1v-0.9h-0.2c-0.8,0-1.4,0.2-1.4,0.9c0,0.4,0.3,0.5,0.6,0.5
			C40.5,227.7,40.8,227.5,41.1,227.1z"/>
		<path class="st1" d="M43,224.3h0.6v0.6c0.3-0.4,0.8-0.6,1.2-0.6c0.8,0,1.1,0.5,1.1,1.2v2.7h-0.6v-2.6c0-0.5-0.2-0.8-0.7-0.8
			c-0.4,0-0.8,0.3-1.1,0.7v2.7H43V224.3z"/>
		<path class="st1" d="M49.2,224.3h0.6v0.4c0.2-0.2,0.6-0.5,1.1-0.5c0.9,0,1.6,0.7,1.6,2c0,1.2-0.7,2-1.7,2c-0.5,0-0.8-0.2-1-0.3v2
			h-0.6C49.2,229.9,49.2,224.3,49.2,224.3z M51.9,226.2c0-0.9-0.3-1.5-1.1-1.5c-0.5,0-0.9,0.4-1,0.5v2.1c0.2,0.2,0.4,0.4,0.9,0.4
			C51.5,227.7,51.9,227.1,51.9,226.2z"/>
		<path class="st1" d="M53.5,224.3h0.6v0.6c0.2-0.3,0.5-0.7,1-0.7c0.2,0,0.4,0.1,0.4,0.1l-0.1,0.6c0,0-0.1-0.1-0.3-0.1
			c-0.6,0-0.9,0.7-0.9,0.8v2.6h-0.6v-3.9L53.5,224.3L53.5,224.3z"/>
		<path class="st1" d="M56.3,223.1c0-0.2,0.2-0.4,0.4-0.4s0.4,0.2,0.4,0.4s-0.2,0.4-0.4,0.4C56.5,223.6,56.3,223.4,56.3,223.1z
			 M56.4,224.3H57v3.8h-0.6V224.3z"/>
		<path class="st1" d="M58.1,226.2c0-1.3,0.8-2,1.8-2c0.6,0,1,0.2,1.2,0.4l-0.3,0.4c-0.2-0.2-0.5-0.3-0.9-0.3
			c-0.8,0-1.1,0.7-1.1,1.5s0.4,1.5,1.2,1.5c0.5,0,0.8-0.2,0.9-0.3l0.2,0.4c-0.2,0.1-0.5,0.4-1.2,0.4
			C58.7,228.2,58.1,227.2,58.1,226.2z"/>
		<path class="st1" d="M61.7,226.2c0-1.1,0.7-2,1.7-2s1.5,0.7,1.5,1.7c0,0.1,0,0.2,0,0.3h-2.6c0,0.8,0.3,1.5,1.2,1.5
			c0.5,0,0.9-0.2,1.1-0.3l0.2,0.5c-0.2,0.1-0.6,0.4-1.3,0.4C62.3,228.2,61.7,227.3,61.7,226.2z M64.4,225.7c0-0.5-0.3-1-0.9-1
			s-1,0.4-1.1,1H64.4z"/>
		<path class="st1" d="M65.8,225.6h1.6v0.5h-1.6V225.6z"/>
		<path class="st1" d="M68.8,227.2v-2.5h-0.6v-0.5h0.6v-1.1h0.6v1.1h1v0.5h-1v2.4c0,0.4,0.1,0.6,0.4,0.6c0.2,0,0.5-0.1,0.5-0.2
			l0.2,0.4c-0.1,0.1-0.4,0.2-0.8,0.2C69.1,228.2,68.8,227.8,68.8,227.2z"/>
		<path class="st1" d="M71.1,226.2c0-0.9,0.5-2,1.8-2s1.8,1.1,1.8,2s-0.5,2-1.8,2S71.1,227.1,71.1,226.2z M74.1,226.2
			c0-0.8-0.4-1.5-1.2-1.5c-0.8,0-1.1,0.7-1.1,1.5s0.4,1.5,1.2,1.5C73.7,227.7,74.1,227,74.1,226.2z"/>
		<path class="st1" d="M75.6,225.6h1.6v0.5h-1.6V225.6z"/>
		<path class="st1" d="M78,226.2c0-1.1,0.7-2,1.7-2s1.5,0.7,1.5,1.7c0,0.1,0,0.2,0,0.3h-2.6c0,0.8,0.3,1.5,1.2,1.5
			c0.5,0,0.9-0.2,1.1-0.3l0.2,0.5c-0.2,0.1-0.6,0.4-1.3,0.4C78.6,228.2,78,227.3,78,226.2z M80.6,225.7c0-0.5-0.3-1-0.9-1
			s-1,0.4-1.1,1H80.6z"/>
		<path class="st1" d="M82,227.2c0-1,1.1-1.3,2-1.3h0.2v-0.4c0-0.6-0.2-0.8-0.8-0.8c-0.4,0-0.7,0.1-1,0.4l-0.3-0.4
			c0.4-0.4,0.8-0.5,1.4-0.5c0.8,0,1.3,0.4,1.3,1.3v1.8c0,0.4,0,0.7,0.1,0.9h-0.6c0-0.1,0-0.3-0.1-0.5c-0.3,0.3-0.7,0.6-1.2,0.6
			C82.5,228.2,82,227.8,82,227.2z M84.2,227.1v-0.9H84c-0.8,0-1.4,0.2-1.4,0.9c0,0.4,0.3,0.5,0.6,0.5
			C83.6,227.7,84,227.5,84.2,227.1z"/>
		<path class="st1" d="M86.2,224.3h0.6v0.6c0.2-0.3,0.5-0.7,1-0.7c0.2,0,0.4,0.1,0.4,0.1l-0.1,0.6c0,0-0.1-0.1-0.3-0.1
			c-0.6,0-0.9,0.7-0.9,0.8v2.6h-0.6L86.2,224.3L86.2,224.3z"/>
		<path class="st1" d="M89,224.3h0.6v0.6c0.3-0.4,0.8-0.6,1.2-0.6c0.8,0,1.1,0.5,1.1,1.2v2.7h-0.6v-2.6c0-0.5-0.2-0.8-0.7-0.8
			c-0.4,0-0.8,0.3-1.1,0.7v2.7H89V224.3z"/>
		<path class="st1" d="M93.3,223.1c0-0.2,0.2-0.4,0.4-0.4s0.4,0.2,0.4,0.4s-0.2,0.4-0.4,0.4S93.3,223.4,93.3,223.1z M93.4,224.3H94
			v3.8h-0.6V224.3z"/>
		<path class="st1" d="M95.4,224.3H96v0.6c0.3-0.4,0.8-0.6,1.2-0.6c0.8,0,1.1,0.5,1.1,1.2v2.7h-0.6v-2.6c0-0.5-0.2-0.8-0.7-0.8
			c-0.4,0-0.8,0.3-1.1,0.7v2.7h-0.6L95.4,224.3L95.4,224.3z"/>
		<path class="st1" d="M99.5,228.9c0-0.4,0.3-0.8,0.7-1c-0.2-0.1-0.3-0.3-0.3-0.6s0.2-0.5,0.4-0.6c-0.4-0.2-0.7-0.7-0.7-1.2
			c0-0.8,0.6-1.4,1.5-1.4c0.2,0,0.4,0,0.6,0.1h1.2v0.5h-0.6c0.2,0.2,0.3,0.5,0.3,0.8c0,0.8-0.6,1.4-1.5,1.4c-0.2,0-0.3,0-0.4,0
			c-0.2,0.1-0.3,0.2-0.3,0.3c0,0.2,0.2,0.3,0.5,0.3c0.8,0,2,0,2,1.2c0,0.8-0.9,1.3-1.9,1.3C100.1,230,99.5,229.7,99.5,228.9z
			 M102.3,228.8c0-0.6-0.5-0.6-1-0.6c-0.2,0-0.5,0-0.7-0.1c-0.4,0.2-0.5,0.5-0.5,0.8c0,0.4,0.3,0.7,1,0.7
			C101.8,229.5,102.3,229.2,102.3,228.8z M102,225.6c0-0.5-0.3-0.9-0.9-0.9s-0.9,0.4-0.9,0.9s0.3,0.9,0.9,0.9
			C101.6,226.5,102,226.1,102,225.6z"/>
		<path class="st1" d="M103.5,227.8l0.3-0.4c0.1,0.1,0.5,0.3,1,0.3s0.8-0.2,0.8-0.6s-0.3-0.5-0.8-0.7c-0.6-0.3-1.1-0.5-1.1-1.2
			c0-0.6,0.4-1.1,1.2-1.1c0.6,0,1,0.3,1.1,0.4l-0.3,0.4c-0.1-0.1-0.4-0.3-0.9-0.3c-0.4,0-0.6,0.2-0.6,0.5c0,0.4,0.3,0.5,0.7,0.7
			c0.6,0.3,1.2,0.5,1.2,1.2s-0.5,1.1-1.4,1.1C104.2,228.2,103.8,228,103.5,227.8z"/>
		<path class="st1" d="M109.1,224.3h0.6v0.6c0.2-0.3,0.5-0.7,1-0.7c0.2,0,0.4,0.1,0.4,0.1l-0.1,0.6c0,0-0.1-0.1-0.3-0.1
			c-0.6,0-0.9,0.7-0.9,0.8v2.6h-0.6L109.1,224.3L109.1,224.3z"/>
		<path class="st1" d="M111.6,227.2c0-1,1.1-1.3,2-1.3h0.2v-0.4c0-0.6-0.2-0.8-0.8-0.8c-0.4,0-0.7,0.1-1,0.4l-0.3-0.4
			c0.4-0.4,0.8-0.5,1.4-0.5c0.8,0,1.3,0.4,1.3,1.3v1.8c0,0.4,0,0.7,0.1,0.9h-0.6c0-0.1,0-0.3-0.1-0.5c-0.3,0.3-0.7,0.6-1.2,0.6
			C112.1,228.2,111.6,227.8,111.6,227.2z M113.8,227.1v-0.9h-0.2c-0.8,0-1.4,0.2-1.4,0.9c0,0.4,0.3,0.5,0.6,0.5
			C113.2,227.7,113.6,227.5,113.8,227.1z"/>
		<path class="st1" d="M115.9,227.2v-2.5h-0.6v-0.5h0.6v-1.1h0.6v1.1h1v0.5h-1v2.4c0,0.4,0.1,0.6,0.4,0.6c0.2,0,0.5-0.1,0.5-0.2
			l0.2,0.4c-0.1,0.1-0.4,0.2-0.8,0.2C116.2,228.2,115.9,227.8,115.9,227.2z"/>
		<path class="st1" d="M118.5,223.1c0-0.2,0.2-0.4,0.4-0.4s0.4,0.2,0.4,0.4s-0.2,0.4-0.4,0.4S118.5,223.4,118.5,223.1z M118.7,224.3
			h0.6v3.8h-0.6V224.3z"/>
		<path class="st1" d="M120.3,226.2c0-0.9,0.5-2,1.8-2s1.8,1.1,1.8,2s-0.5,2-1.8,2S120.3,227.1,120.3,226.2z M123.3,226.2
			c0-0.8-0.4-1.5-1.2-1.5c-0.8,0-1.1,0.7-1.1,1.5s0.4,1.5,1.2,1.5C122.9,227.7,123.3,227,123.3,226.2z"/>
		<path class="st1" d="M126.9,224.3h0.6v0.6c0.2-0.3,0.5-0.7,1-0.7c0.2,0,0.4,0.1,0.4,0.1l-0.1,0.6c0,0-0.1-0.1-0.3-0.1
			c-0.6,0-0.9,0.7-0.9,0.8v2.6H127L126.9,224.3L126.9,224.3z"/>
		<path class="st1" d="M129.3,226.2c0-1.1,0.7-2,1.7-2s1.5,0.7,1.5,1.7c0,0.1,0,0.2,0,0.3h-2.6c0,0.8,0.3,1.5,1.2,1.5
			c0.5,0,0.9-0.2,1.1-0.3l0.2,0.5c-0.2,0.1-0.6,0.4-1.3,0.4C129.9,228.2,129.3,227.3,129.3,226.2z M132,225.7c0-0.5-0.3-1-0.9-1
			c-0.6,0-1,0.4-1.1,1H132z"/>
		<path class="st1" d="M133.7,222.4h0.6v5.8h-0.6V222.4z"/>
		<path class="st1" d="M135.4,227.2c0-1,1.1-1.3,2-1.3h0.2v-0.4c0-0.6-0.2-0.8-0.8-0.8c-0.4,0-0.7,0.1-1,0.4l-0.3-0.4
			c0.4-0.4,0.8-0.5,1.4-0.5c0.8,0,1.3,0.4,1.3,1.3v1.8c0,0.4,0,0.7,0.1,0.9h-0.6c0-0.1,0-0.3-0.1-0.5c-0.3,0.3-0.7,0.6-1.2,0.6
			C135.8,228.2,135.4,227.8,135.4,227.2z M137.6,227.1v-0.9h-0.2c-0.8,0-1.4,0.2-1.4,0.9c0,0.4,0.3,0.5,0.6,0.5
			C137,227.7,137.3,227.5,137.6,227.1z"/>
		<path class="st1" d="M139.7,227.2v-2.5H139v-0.5h0.6v-1.1h0.6v1.1h1v0.5h-1v2.4c0,0.4,0.1,0.6,0.4,0.6c0.2,0,0.5-0.1,0.5-0.2
			l0.2,0.4c-0.1,0.1-0.4,0.2-0.8,0.2C140,228.2,139.7,227.8,139.7,227.2z"/>
		<path class="st1" d="M142.3,223.1c0-0.2,0.2-0.4,0.4-0.4s0.4,0.2,0.4,0.4s-0.2,0.4-0.4,0.4C142.5,223.6,142.3,223.4,142.3,223.1z
			 M142.4,224.3h0.6v3.8h-0.6V224.3z"/>
		<path class="st1" d="M143.9,224.3h0.6l1.1,3.1l0,0l1.1-3.1h0.6l-1.4,3.8h-0.5L143.9,224.3z"/>
		<path class="st1" d="M147.8,226.2c0-1.1,0.7-2,1.7-2s1.5,0.7,1.5,1.7c0,0.1,0,0.2,0,0.3h-2.6c0,0.8,0.3,1.5,1.2,1.5
			c0.5,0,0.9-0.2,1.1-0.3l0.2,0.5c-0.2,0.1-0.6,0.4-1.3,0.4C148.4,228.2,147.8,227.3,147.8,226.2z M150.5,225.7c0-0.5-0.3-1-0.9-1
			c-0.6,0-1,0.4-1.1,1H150.5z"/>
		<path class="st1" d="M154.2,227.2v-2.5h-0.6v-0.5h0.6v-1.1h0.6v1.1h1v0.5h-1v2.4c0,0.4,0.1,0.6,0.4,0.6c0.2,0,0.5-0.1,0.5-0.2
			l0.2,0.4c-0.1,0.1-0.4,0.2-0.8,0.2C154.5,228.2,154.2,227.8,154.2,227.2z"/>
		<path class="st1" d="M156.6,226.2c0-0.9,0.5-2,1.8-2s1.8,1.1,1.8,2s-0.5,2-1.8,2S156.6,227.1,156.6,226.2z M159.5,226.2
			c0-0.8-0.4-1.5-1.2-1.5s-1.1,0.7-1.1,1.5s0.4,1.5,1.2,1.5S159.5,227,159.5,226.2z"/>
		<path class="st1" d="M163.6,222.8h0.6l1.3,3.6c0.2,0.4,0.2,0.7,0.3,1l0,0c0.1-0.3,0.2-0.5,0.3-1l1.3-3.6h0.6l0.7,5.3h-0.6
			l-0.5-3.5c0-0.4-0.1-0.6-0.1-0.7l0,0c-0.1,0.2-0.1,0.4-0.2,0.7l-1.3,3.5h-0.6l-1.3-3.5c-0.1-0.3-0.2-0.6-0.3-0.7l0,0
			c0,0.2,0,0.4-0.1,0.8l-0.4,3.5h-0.6L163.6,222.8z"/>
		<path class="st1" d="M169.6,227.7l0.3-0.4c0.1,0.1,0.5,0.5,1.2,0.5s1.1-0.4,1.1-0.9c0-0.6-0.6-0.9-1.2-1.2
			c-0.6-0.3-1.2-0.7-1.2-1.5c0-0.9,0.7-1.4,1.6-1.4c0.8,0,1.2,0.3,1.4,0.4l-0.3,0.5c-0.2-0.1-0.5-0.4-1.1-0.4
			c-0.5,0-0.9,0.3-0.9,0.8s0.4,0.8,1,1c0.7,0.3,1.5,0.7,1.5,1.7c0,0.8-0.7,1.4-1.7,1.4C170.3,228.2,169.8,227.8,169.6,227.7z"/>
		<path class="st1" d="M173.8,225.4c0-1.4,1-2.7,2.6-2.7c0.7,0,1.1,0.2,1.5,0.4l-0.3,0.5c-0.3-0.2-0.7-0.4-1.2-0.4
			c-1.3,0-1.9,1.1-1.9,2.2c0,1.2,0.6,2.3,2,2.3c0.6,0,1-0.2,1.3-0.5l0.3,0.4c-0.3,0.3-0.9,0.5-1.6,0.5
			C174.7,228.2,173.8,226.9,173.8,225.4z"/>
		<path class="st1" d="M179.2,222.8h0.6v5.3h-0.6V222.8z"/>
	</g>
	<g>
		<path class="st1" d="M185.6,222.8h0.6l2,5.3h-0.7l-0.5-1.3h-2.4l-0.4,1.3h-0.7L185.6,222.8z M186.9,226.3l-0.7-1.8
			c-0.2-0.4-0.2-0.7-0.3-0.9l0,0c-0.1,0.3-0.2,0.5-0.3,0.9l-0.7,1.8H186.9z"/>
		<path class="st1" d="M188.7,225.4c0-1.4,1-2.7,2.6-2.7c0.7,0,1.1,0.2,1.5,0.4l-0.3,0.5c-0.3-0.2-0.7-0.4-1.2-0.4
			c-1.3,0-1.9,1.1-1.9,2.2c0,1.2,0.6,2.3,2,2.3c0.6,0,1-0.2,1.3-0.5l0.3,0.4c-0.3,0.3-0.9,0.5-1.6,0.5
			C189.6,228.2,188.7,226.9,188.7,225.4z"/>
		<path class="st1" d="M195.3,222.8h0.7l0.9,3.6c0.1,0.4,0.2,0.9,0.2,0.9l0,0c0,0,0.1-0.5,0.2-0.9l1-3.6h0.6l1,3.5
			c0.1,0.4,0.2,0.9,0.2,0.9l0,0c0,0,0.1-0.5,0.2-0.9l0.9-3.5h0.6l-1.3,5.3h-0.6l-1-3.6c-0.1-0.4-0.2-1-0.2-1l0,0c0,0-0.1,0.6-0.3,1
			l-1.1,3.6h-0.6L195.3,222.8z"/>
		<path class="st1" d="M202.3,226.2c0-0.9,0.5-2,1.8-2s1.8,1.1,1.8,2s-0.5,2-1.8,2S202.3,227.1,202.3,226.2z M205.2,226.2
			c0-0.8-0.4-1.5-1.2-1.5s-1.1,0.7-1.1,1.5s0.4,1.5,1.2,1.5S205.2,227,205.2,226.2z"/>
		<path class="st1" d="M206.9,224.3h0.6v0.6c0.2-0.3,0.5-0.7,1-0.7c0.2,0,0.4,0.1,0.4,0.1l-0.1,0.6c0,0-0.1-0.1-0.3-0.1
			c-0.6,0-0.9,0.7-0.9,0.8v2.6H207v-3.9L206.9,224.3L206.9,224.3z"/>
		<path class="st1" d="M209.8,222.4h0.6v5.8h-0.6V222.4z"/>
		<path class="st1" d="M211.4,226.2c0-1.2,0.7-2,1.7-2c0.4,0,0.7,0.1,1,0.3v-2.2h0.6v5c0,0.3,0,0.6,0.1,0.8h-0.6
			c0-0.1-0.1-0.3-0.1-0.4c-0.3,0.3-0.6,0.5-1.1,0.5C212.1,228.2,211.4,227.5,211.4,226.2z M214.1,227.1V225
			c-0.2-0.2-0.5-0.4-0.9-0.4c-0.7,0-1.1,0.6-1.1,1.5s0.3,1.5,1.1,1.5C213.5,227.7,213.8,227.5,214.1,227.1z"/>
	</g>
	<line class="st2" x1="0" y1="225.4" x2="5.6" y2="225.4"/>
</g>
<path class="st1" d="M13.1,10.2l-1,0.3L12,10l1.3-0.4h0.5V15h-0.6L13.1,10.2L13.1,10.2z M14.9,14.6c0-0.3,0.2-0.5,0.5-0.5
	s0.5,0.2,0.5,0.5s-0.2,0.5-0.5,0.5S14.9,14.9,14.9,14.6z M17.7,10.2l-1,0.3L16.6,10l1.3-0.4h0.5V15h-0.6L17.7,10.2L17.7,10.2z"/>
<path class="st1" d="M11,52.3l-1,0.3l-0.1-0.5l1.3-0.4h0.5V57H11V52.3z M12.9,56.7c0-0.3,0.2-0.5,0.5-0.5s0.5,0.2,0.5,0.5
	s-0.2,0.5-0.5,0.5S12.9,57,12.9,56.7z M14.7,54.4c0-1.3,0.5-2.8,2-2.8c1.4,0,2,1.4,2,2.8s-0.6,2.8-2,2.8
	C15.2,57.2,14.7,55.8,14.7,54.4z M18.1,54.4c0-1.3-0.4-2.3-1.4-2.3s-1.4,1-1.4,2.3s0.4,2.3,1.4,2.3C17.6,56.7,18.1,55.7,18.1,54.4z"
	/>
<path class="st1" d="M8.6,96.2c0-1.3,0.5-2.8,2-2.8c1.4,0,2,1.4,2,2.8S12,99,10.6,99S8.6,97.6,8.6,96.2z M12,96.2
	c0-1.3-0.4-2.3-1.4-2.3s-1.4,1-1.4,2.3s0.4,2.3,1.4,2.3S12,97.5,12,96.2z M13.5,98.5c0-0.3,0.2-0.5,0.5-0.5s0.5,0.2,0.5,0.5
	S14.3,99,14,99S13.5,98.8,13.5,98.5z M15.5,98.6c0.8,0,1.5-0.2,1.9-0.8c0.3-0.4,0.5-0.8,0.6-1.5c-0.3,0.3-0.7,0.5-1.2,0.5
	c-1,0-1.6-0.7-1.6-1.6s0.6-1.7,1.7-1.7c1.3,0,1.8,1.2,1.8,2.3c0,2-1,3.3-3,3.3L15.5,98.6z M18.1,95.9L18.1,95.9
	c0-1.2-0.4-1.9-1.2-1.9c-0.7,0-1,0.6-1,1.2c0,0.8,0.4,1.2,1.1,1.2C17.4,96.3,17.8,96.2,18.1,95.9z"/>
<path class="st1" d="M8.9,138.6c0-1.3,0.5-2.8,2-2.8c1.4,0,2,1.4,2,2.8s-0.6,2.8-2,2.8C9.4,141.4,8.9,140,8.9,138.6z M12.2,138.6
	c0-1.3-0.4-2.3-1.4-2.3s-1.4,1-1.4,2.3s0.4,2.3,1.4,2.3C11.8,140.9,12.2,139.9,12.2,138.6z M13.7,140.9c0-0.3,0.2-0.5,0.5-0.5
	s0.5,0.2,0.5,0.5s-0.2,0.5-0.5,0.5S13.7,141.2,13.7,140.9z M15.5,140c0-0.7,0.7-1.2,1.1-1.5c-0.5-0.3-1-0.7-1-1.3
	c0-0.8,0.7-1.3,1.5-1.3c0.9,0,1.5,0.5,1.5,1.3c0,0.7-0.6,1-1.1,1.3c0.5,0.3,1.2,0.7,1.2,1.5s-0.6,1.4-1.6,1.4
	C16,141.4,15.5,140.7,15.5,140z M18.1,140c0-0.6-0.6-1-1.1-1.2c-0.4,0.2-0.9,0.6-0.9,1.2c0,0.5,0.3,0.9,1,0.9
	C17.7,140.9,18.1,140.5,18.1,140z M18,137.2c0-0.4-0.3-0.8-0.8-0.8s-0.9,0.3-0.9,0.8s0.5,0.8,0.9,1C17.5,138,18,137.7,18,137.2z"/>
<path class="st1" d="M9.2,181.7c0-1.3,0.5-2.8,2-2.8c1.4,0,2,1.4,2,2.8s-0.6,2.8-2,2.8S9.2,183,9.2,181.7z M12.6,181.7
	c0-1.3-0.4-2.3-1.4-2.3s-1.4,1-1.4,2.3s0.4,2.3,1.4,2.3C12.1,184,12.6,183,12.6,181.7z M14.1,184c0-0.3,0.2-0.5,0.5-0.5
	s0.5,0.2,0.5,0.5s-0.2,0.5-0.5,0.5S14.1,184.3,14.1,184z M16.2,184.4l1.9-4.8h-2.4v-0.5h3v0.4l-2,5.1L16.2,184.4z"/>
<line class="st3" x1="22.6" y1="12" x2="236.2" y2="12"/>
<line class="st3" x1="22.8" y1="11.8" x2="22.8" y2="181.2"/>
<line class="st3" x1="236" y1="11.8" x2="236" y2="181.2"/>
<line class="st3" x1="22.6" y1="55" x2="236.2" y2="55"/>
<line class="st3" x1="22.6" y1="139.1" x2="236.2" y2="139.1"/>
<line class="st3" x1="22.6" y1="181.3" x2="236.2" y2="181.3"/>
<path class="st1" d="M15.6,194.8c0.9-0.9,2.5-2.4,2.5-3.6c0-0.7-0.4-1-0.9-1c-0.6,0-0.9,0.3-1.2,0.5l-0.3-0.4
	c0.3-0.4,0.8-0.7,1.5-0.7c0.9,0,1.6,0.5,1.6,1.4c0,1.2-1.3,2.5-2.3,3.5c0,0,0.3,0,0.6,0h1.8v0.5h-3.3
	C15.6,195,15.6,194.8,15.6,194.8z M19.7,192.5c0-1.3,0.5-2.8,2-2.8c1.4,0,2,1.4,2,2.8s-0.6,2.8-2,2.8
	C20.2,195.2,19.7,193.8,19.7,192.5z M23.1,192.5c0-1.3-0.4-2.3-1.4-2.3s-1.4,1-1.4,2.3s0.4,2.3,1.4,2.3
	C22.6,194.7,23.1,193.7,23.1,192.5z M25.4,190.4l-1,0.3l-0.1-0.5l1.3-0.4H26v5.3h-0.6V190.4z M27.2,193c0-2,1.2-3.3,3.1-3.3l0.1,0.5
	c-0.8,0-1.4,0.2-1.9,0.6c-0.4,0.4-0.6,0.9-0.7,1.6c0.3-0.3,0.7-0.5,1.2-0.5c1,0,1.6,0.7,1.6,1.6s-0.6,1.7-1.7,1.7
	C27.7,195.2,27.2,194,27.2,193z M30,193.6c0-0.8-0.4-1.2-1.1-1.2c-0.5,0-0.8,0.2-1.1,0.5v0.1c0,1.1,0.4,1.8,1.2,1.8
	C29.7,194.7,30,194.1,30,193.6z"/>
<path class="st1" d="M58.5,194.8c0.9-0.9,2.5-2.4,2.5-3.6c0-0.7-0.4-1-0.9-1c-0.6,0-0.9,0.3-1.2,0.5l-0.3-0.4
	c0.3-0.4,0.8-0.7,1.5-0.7c0.9,0,1.6,0.5,1.6,1.4c0,1.2-1.3,2.5-2.3,3.5c0,0,0.3,0,0.6,0h1.8v0.5h-3.3
	C58.5,195,58.5,194.8,58.5,194.8z M62.5,192.5c0-1.3,0.5-2.8,2-2.8c1.4,0,2,1.4,2,2.8s-0.6,2.8-2,2.8
	C63.1,195.2,62.5,193.8,62.5,192.5z M65.9,192.5c0-1.3-0.4-2.3-1.4-2.3s-1.4,1-1.4,2.3s0.4,2.3,1.4,2.3
	C65.5,194.7,65.9,193.7,65.9,192.5z M68.3,190.4l-1,0.3l-0.1-0.5l1.3-0.4H69v5.3h-0.6L68.3,190.4L68.3,190.4L68.3,190.4z
	 M70.3,195.1l1.9-4.8h-2.4v-0.5h3v0.4l-2,5.1L70.3,195.1z"/>
<path class="st1" d="M101.5,194.8c0.9-0.9,2.5-2.4,2.5-3.6c0-0.7-0.4-1-0.9-1c-0.6,0-0.9,0.3-1.2,0.5l-0.3-0.4
	c0.3-0.4,0.8-0.7,1.5-0.7c0.9,0,1.6,0.5,1.6,1.4c0,1.2-1.3,2.5-2.3,3.5c0,0,0.3,0,0.6,0h1.8v0.5h-3.3
	C101.5,195,101.5,194.8,101.5,194.8z M105.5,192.5c0-1.3,0.5-2.8,2-2.8c1.4,0,2,1.4,2,2.8s-0.6,2.8-2,2.8
	C106.1,195.2,105.5,193.8,105.5,192.5z M108.9,192.5c0-1.3-0.4-2.3-1.4-2.3s-1.4,1-1.4,2.3s0.4,2.3,1.4,2.3
	C108.5,194.7,108.9,193.7,108.9,192.5z M111.3,190.4l-1,0.3l-0.1-0.5l1.3-0.4h0.5v5.3h-0.6v-4.7L111.3,190.4L111.3,190.4z
	 M113,193.8c0-0.7,0.7-1.2,1.1-1.5c-0.5-0.3-1-0.7-1-1.3c0-0.8,0.7-1.3,1.5-1.3c0.9,0,1.5,0.5,1.5,1.3c0,0.7-0.6,1-1.1,1.3
	c0.5,0.3,1.2,0.7,1.2,1.5s-0.6,1.4-1.6,1.4C113.5,195.2,113,194.6,113,193.8z M115.6,193.8c0-0.6-0.6-1-1.1-1.2
	c-0.4,0.2-0.9,0.6-0.9,1.2c0,0.5,0.3,0.9,1,0.9C115.2,194.7,115.6,194.3,115.6,193.8z M115.5,191c0-0.4-0.3-0.8-0.8-0.8
	s-0.9,0.3-0.9,0.8s0.5,0.8,0.9,1C115,191.8,115.5,191.5,115.5,191z"/>
<path class="st1" d="M143.3,194.8c0.9-0.9,2.5-2.4,2.5-3.6c0-0.7-0.4-1-0.9-1c-0.6,0-0.9,0.3-1.2,0.5l-0.3-0.4
	c0.3-0.4,0.8-0.7,1.5-0.7c0.9,0,1.6,0.5,1.6,1.4c0,1.2-1.3,2.5-2.3,3.5c0,0,0.3,0,0.6,0h1.8v0.5h-3.3L143.3,194.8L143.3,194.8z
	 M147.4,192.5c0-1.3,0.5-2.8,2-2.8c1.4,0,2,1.4,2,2.8s-0.6,2.8-2,2.8C147.9,195.2,147.4,193.8,147.4,192.5z M150.8,192.5
	c0-1.3-0.4-2.3-1.4-2.3s-1.4,1-1.4,2.3s0.4,2.3,1.4,2.3C150.3,194.7,150.8,193.7,150.8,192.5z M153.1,190.4l-1,0.3l-0.1-0.5l1.3-0.4
	h0.5v5.3h-0.6L153.1,190.4L153.1,190.4z M155.1,194.8c0.8,0,1.5-0.2,1.9-0.8c0.3-0.4,0.5-0.8,0.6-1.5c-0.3,0.3-0.7,0.5-1.2,0.5
	c-1,0-1.6-0.7-1.6-1.6s0.6-1.7,1.7-1.7c1.3,0,1.8,1.2,1.8,2.3c0,2-1,3.3-3,3.3L155.1,194.8z M157.6,192.1V192c0-1.1-0.4-1.8-1.2-1.8
	c-0.7,0-1,0.6-1,1.2c0,0.8,0.4,1.2,1.1,1.2C157,192.5,157.3,192.4,157.6,192.1z"/>
<path class="st1" d="M185.3,194.8c0.9-0.9,2.5-2.4,2.5-3.6c0-0.7-0.4-1-0.9-1c-0.6,0-0.9,0.3-1.2,0.5l-0.3-0.4
	c0.3-0.4,0.8-0.7,1.5-0.7c0.9,0,1.6,0.5,1.6,1.4c0,1.2-1.3,2.5-2.3,3.5c0,0,0.3,0,0.6,0h1.8v0.5h-3.3L185.3,194.8L185.3,194.8z
	 M189.4,192.5c0-1.3,0.5-2.8,2-2.8c1.4,0,2,1.4,2,2.8s-0.6,2.8-2,2.8C189.9,195.2,189.4,193.8,189.4,192.5z M192.8,192.5
	c0-1.3-0.4-2.3-1.4-2.3s-1.4,1-1.4,2.3s0.4,2.3,1.4,2.3C192.3,194.7,192.8,193.7,192.8,192.5z M194.1,194.8c0.9-0.9,2.5-2.4,2.5-3.6
	c0-0.7-0.4-1-0.9-1c-0.6,0-0.9,0.3-1.2,0.5l-0.3-0.4c0.3-0.4,0.8-0.7,1.5-0.7c0.9,0,1.6,0.5,1.6,1.4c0,1.2-1.3,2.5-2.3,3.5
	c0,0,0.3,0,0.6,0h1.8v0.5h-3.3L194.1,194.8L194.1,194.8z M198.1,192.5c0-1.3,0.5-2.8,2-2.8c1.4,0,2,1.4,2,2.8s-0.6,2.8-2,2.8
	C198.7,195.2,198.1,193.8,198.1,192.5z M201.5,192.5c0-1.3-0.4-2.3-1.4-2.3s-1.4,1-1.4,2.3s0.4,2.3,1.4,2.3
	C201.1,194.7,201.5,193.7,201.5,192.5z"/>
<path class="st1" d="M228.7,194.8c0.9-0.9,2.5-2.4,2.5-3.6c0-0.7-0.4-1-0.9-1c-0.6,0-0.9,0.3-1.2,0.5l-0.3-0.4
	c0.3-0.4,0.8-0.7,1.5-0.7c0.9,0,1.6,0.5,1.6,1.4c0,1.2-1.3,2.5-2.3,3.5c0,0,0.3,0,0.6,0h1.8v0.5h-3.3L228.7,194.8L228.7,194.8z
	 M232.8,192.5c0-1.3,0.5-2.8,2-2.8c1.4,0,2,1.4,2,2.8s-0.6,2.8-2,2.8C233.4,195.2,232.8,193.8,232.8,192.5z M236.2,192.5
	c0-1.3-0.4-2.3-1.4-2.3s-1.4,1-1.4,2.3s0.4,2.3,1.4,2.3C235.7,194.7,236.2,193.7,236.2,192.5z M237.5,194.8c0.9-0.9,2.5-2.4,2.5-3.6
	c0-0.7-0.4-1-0.9-1c-0.6,0-0.9,0.3-1.2,0.5l-0.3-0.4c0.3-0.4,0.8-0.7,1.5-0.7c0.9,0,1.6,0.5,1.6,1.4c0,1.2-1.3,2.5-2.3,3.5
	c0,0,0.3,0,0.6,0h1.8v0.5h-3.3L237.5,194.8L237.5,194.8z M242.5,190.4l-1,0.3l-0.1-0.5l1.3-0.4h0.5v5.3h-0.6L242.5,190.4
	L242.5,190.4z"/>
<line class="st3" x1="22.8" y1="181.2" x2="22.8" y2="187.2"/>
<line class="st3" x1="65.4" y1="181.2" x2="65.4" y2="187.2"/>
<line class="st3" x1="108.6" y1="181.2" x2="108.6" y2="187.2"/>
<line class="st3" x1="150.5" y1="181.2" x2="150.5" y2="187.2"/>
<line class="st3" x1="193.5" y1="181.2" x2="193.5" y2="187.2"/>
<line class="st3" x1="235.9" y1="181.2" x2="235.9" y2="187.2"/>
<line class="st4" x1="23.2" y1="96.8" x2="236.1" y2="96.8"/>
<polyline class="st5" points="23.2,96 23.5,98 24.5,92 25.5,80 26.5,89 27.5,75.9 28.5,72.9 28.5,76.9 29.5,58.9 30.5,51.9 
	31.5,53.9 32.5,63.9 32.5,58.9 33.5,72.9 34.5,70.9 35.5,73.9 36.5,76.9 37.5,76.9 37.5,77.9 38.5,75.9 39.5,83 40.5,86 41.5,114.1 
	41.5,122.1 42.5,121.1 43.5,114.1 44.5,110 45.5,100 45.5,109 46.5,109 47.5,96 48.5,101 49.5,102 50.5,97 50.5,95 51.5,106 
	52.5,102 53.5,101 54.5,104 54.5,97 55.5,101 56.5,108 57.5,113.1 58.5,107 59.5,116.1 59.5,110 60.5,103 61.5,104 62.5,103 
	63.5,101 63.5,96 64.5,90 65.5,85 66.5,83 67.5,96 68.5,96 68.5,95 69.5,98 70.5,102 71.5,95 72.5,75.9 72.5,64.9 73.5,66.9 
	74.5,67.9 75.5,52.9 76.5,33.7 76.5,84 77.5,81 78.5,68.9 79.5,95 80.5,90 81.5,67.9 81.5,89 82.5,71.9 83.5,105 84.5,104 85.5,100 
	85.5,94 86.5,103 87.5,96 88.5,90 89.5,100 90.5,107 90.5,99 91.5,94 92.5,99 93.5,104 94.5,116.1 94.5,108 95.5,108 96.5,101 
	97.5,105 98.5,110 98.5,119.1 99.5,118.1 100.5,107 101.5,122.1 102.5,118.1 103.5,99 103.5,89 104.5,76.9 105.5,97 106.5,86 
	107.5,119.1 107.5,109 108.5,101 109.5,100 110.5,112.1 111.5,91 112.5,98 112.5,86 113.5,115.1 114.5,95 115.5,114.1 116.5,107 
	116.5,100 117.5,101 118.5,100 119.5,115.1 120.5,108 121.5,101 121.5,92 122.5,111.1 123.5,100 124.5,100 125.5,111.1 125.5,116.1 
	126.5,120.1 127.5,118.1 128.5,118.1 129.5,124.1 129.5,119.1 130.5,118.1 131.5,121.1 132.5,127.1 133.5,124.1 134.5,130.1 
	134.5,128.1 135.5,123.1 136.5,127.1 137.5,128.1 138.5,128.1 138.5,127.1 139.5,130.1 140.5,129.1 141.5,123.1 142.5,128.1 
	143.5,127.1 143.5,116.1 144.5,113.1 145.5,112.1 146.5,114.1 147.5,113.1 147.5,109 148.5,109 149.5,108 150.5,105 151.5,108 
	152.5,110 153.5,108 154.5,105 155.5,112.1 156.5,114.1 156.5,89 157.5,92 158.5,97 159.5,95 160.5,95 161.5,105 162.5,107 
	163.5,102 164.5,112.1 165.5,123.1 165.5,86 166.5,72.9 167.5,129.1 168.5,139.1 169.5,143.2 169.5,144.2 170.5,145.2 171.5,148.8 
	172.5,142.2 173.5,144.2 173.5,132.1 174.5,136.1 175.5,126.1 176.5,125.1 177.5,118.1 178.5,132.1 178.5,138.1 179.5,132.1 
	180.5,129.1 181.5,144.2 182.5,139.1 182.5,124.1 183.5,128.1 184.5,135.1 185.5,124.1 186.5,116.1 187.5,116.1 187.5,112.1 
	188.5,119.1 189.5,122.1 190.5,127.1 191.5,123.1 191.5,114.1 192.5,120.1 193.5,117.1 194.5,113.1 195.5,107 196.5,112.1 
	196.5,110 197.5,112.1 198.5,115.1 199.5,71.9 200.5,75.9 200.5,69.9 201.5,74.9 202.5,69.9 203.5,68.9 204.5,66.9 204.5,67.9 
	205.5,69.9 206.5,70.9 207.5,72.9 208.5,60.9 209.5,69.9 209.5,114.1 210.5,123.1 211.5,127.1 212.5,131.1 213.5,128.1 213.5,124.1 
	214.5,130.1 215.5,127.1 216.5,121.1 217.5,122.1 218.5,126.1 218.5,122.1 219.5,128.1 220.5,129.1 221.5,137.1 222.5,133.1 
	222.5,141.1 223.5,139.1 224.5,136.1 225.5,138.1 226.5,147.2 227.5,138.1 228.5,123.1 229.5,120.1 230.5,122.1 231.5,131.1 
	231.5,139.1 232.5,134.1 233.5,142.2 234.5,143.2 235.5,141.1 235.5,142.2 235.9,142.2 "/>
</svg>
