<?xml version="1.0" encoding="utf-8"?>
<!-- Generator: Adobe Illustrator 26.0.1, SVG Export Plug-In . SVG Version: 6.00 Build 0)  -->
<svg version="1.1" id="Layer_2_00000162328791145332082450000012525546575667426963_"
	 xmlns="http://www.w3.org/2000/svg" xmlns:xlink="http://www.w3.org/1999/xlink" x="0px" y="0px" viewBox="0 0 250 250"
	 style="enable-background:new 0 0 250 250;" xml:space="preserve">
<style type="text/css">
	.st0{fill:#4D4D4F;}
	.st1{fill:none;stroke:#B19E4E;stroke-width:1.6;}
	.st2{fill:none;stroke:#5C5B59;stroke-width:1.6;}
	.st3{fill:none;stroke:#BCBEC0;stroke-width:0.5;}
	.st4{fill:none;stroke:#5C5B59;stroke-width:1.3;stroke-linecap:round;stroke-linejoin:round;stroke-miterlimit:10;}
	.st5{fill:none;stroke:#B19E4E;stroke-width:1.3;stroke-linecap:round;stroke-linejoin:round;stroke-miterlimit:10;}
</style>
<g>
	<g>
		<path class="st0" d="M8.9,222.7h2.8v0.5H9.6v1.7h1.9v0.5H9.6v2.6H8.9V222.7z"/>
		<path class="st0" d="M12.6,223.1c0-0.2,0.2-0.4,0.4-0.4s0.4,0.2,0.4,0.4s-0.2,0.4-0.4,0.4S12.6,223.3,12.6,223.1z M12.7,224.2h0.6
			v3.8h-0.6V224.2z"/>
		<path class="st0" d="M14.3,227.8l0.3-0.4c0.1,0.1,0.5,0.3,1,0.3s0.8-0.2,0.8-0.6s-0.3-0.5-0.8-0.7c-0.6-0.3-1.1-0.5-1.1-1.2
			c0-0.6,0.4-1.1,1.2-1.1c0.6,0,1,0.3,1.1,0.4l-0.3,0.4c-0.1-0.1-0.4-0.3-0.9-0.3c-0.4,0-0.6,0.2-0.6,0.5c0,0.4,0.3,0.5,0.7,0.7
			c0.6,0.3,1.2,0.5,1.2,1.2s-0.5,1.1-1.4,1.1C15,228.1,14.6,227.9,14.3,227.8z"/>
		<path class="st0" d="M17.6,226.1c0-1.3,0.8-2,1.8-2c0.6,0,1,0.2,1.2,0.4l-0.3,0.4c-0.2-0.2-0.5-0.3-0.9-0.3
			c-0.8,0-1.1,0.7-1.1,1.5s0.4,1.5,1.2,1.5c0.5,0,0.8-0.2,0.9-0.3l0.2,0.4c-0.2,0.1-0.5,0.4-1.2,0.4
			C18.2,228.1,17.6,227.2,17.6,226.1z"/>
		<path class="st0" d="M21.2,227.1c0-1,1.1-1.3,2-1.3h0.2v-0.4c0-0.6-0.2-0.8-0.8-0.8c-0.4,0-0.7,0.1-1,0.4l-0.3-0.4
			c0.4-0.4,0.8-0.5,1.4-0.5c0.8,0,1.3,0.4,1.3,1.3v1.8c0,0.4,0,0.7,0.1,0.9h-0.6c0-0.1,0-0.3-0.1-0.5c-0.3,0.3-0.7,0.6-1.2,0.6
			C21.6,228.1,21.2,227.7,21.2,227.1z M23.4,227.1v-0.9h-0.2c-0.8,0-1.4,0.2-1.4,0.9c0,0.4,0.3,0.5,0.6,0.5
			C22.8,227.6,23.2,227.4,23.4,227.1z"/>
		<path class="st0" d="M25.3,222.3h0.6v5.8h-0.6V222.3z"/>
		<path class="st0" d="M29.1,222.7h1.4c1.1,0,1.8,0.5,1.8,1.4s-0.6,1.3-1.5,1.4l0,0c0.1,0.1,0.2,0.2,0.6,0.7l1.3,1.8H32l-1.1-1.5
			c-0.6-0.9-0.7-0.9-1.1-0.9h-0.1v2.5h-0.6C29.1,228.1,29.1,222.7,29.1,222.7z M30.5,225.1c0.8,0,1.2-0.3,1.2-0.9
			c0-0.6-0.4-0.9-1.2-0.9h-0.8v1.8L30.5,225.1L30.5,225.1z"/>
		<path class="st0" d="M33.1,226.1c0-1.1,0.7-2,1.7-2s1.5,0.7,1.5,1.7c0,0.1,0,0.2,0,0.3h-2.6c0,0.8,0.3,1.5,1.2,1.5
			c0.5,0,0.9-0.2,1.1-0.3l0.2,0.5c-0.2,0.1-0.6,0.4-1.3,0.4C33.7,228.1,33.1,227.2,33.1,226.1z M35.7,225.6c0-0.5-0.3-1-0.9-1
			c-0.6,0-1,0.4-1.1,1H35.7z"/>
		<path class="st0" d="M36.8,224.2h0.6l1.1,3.1l0,0l1.1-3.1h0.6l-1.4,3.8h-0.5L36.8,224.2z"/>
		<path class="st0" d="M40.7,226.1c0-1.1,0.7-2,1.7-2s1.5,0.7,1.5,1.7c0,0.1,0,0.2,0,0.3h-2.6c0,0.8,0.3,1.5,1.2,1.5
			c0.5,0,0.9-0.2,1.1-0.3l0.2,0.5c-0.2,0.1-0.6,0.4-1.3,0.4C41.3,228.1,40.7,227.2,40.7,226.1z M43.3,225.6c0-0.5-0.3-1-0.9-1
			c-0.6,0-1,0.4-1.1,1H43.3z"/>
		<path class="st0" d="M44.9,224.2h0.6v0.6c0.3-0.4,0.8-0.6,1.2-0.6c0.8,0,1.1,0.5,1.1,1.2v2.7h-0.6v-2.6c0-0.5-0.2-0.8-0.7-0.8
			c-0.4,0-0.8,0.3-1.1,0.7v2.7h-0.6L44.9,224.2L44.9,224.2z"/>
		<path class="st0" d="M49.1,226.9v-2.7h0.6v2.6c0,0.5,0.2,0.8,0.7,0.8c0.6,0,1-0.6,1.1-0.7v-2.7h0.6v3c0,0.3,0,0.7,0.1,0.8h-0.6
			c0-0.1,0-0.4-0.1-0.6c-0.2,0.2-0.6,0.7-1.2,0.7C49.5,228.1,49.1,227.6,49.1,226.9z"/>
		<path class="st0" d="M53.1,226.1c0-1.1,0.7-2,1.7-2s1.5,0.7,1.5,1.7c0,0.1,0,0.2,0,0.3h-2.6c0,0.8,0.3,1.5,1.2,1.5
			c0.5,0,0.9-0.2,1.1-0.3l0.2,0.5c-0.2,0.1-0.6,0.4-1.3,0.4C53.7,228.1,53.1,227.2,53.1,226.1z M55.7,225.6c0-0.5-0.3-1-0.9-1
			c-0.6,0-1,0.4-1.1,1H55.7z"/>
		<path class="st0" d="M60.1,223.2h-1.5v-0.5h3.7v0.5h-1.5v4.8h-0.6v-4.8H60.1z"/>
		<path class="st0" d="M62.2,227.1c0-1,1.1-1.3,2-1.3h0.2v-0.4c0-0.6-0.2-0.8-0.8-0.8c-0.4,0-0.7,0.1-1,0.4l-0.3-0.4
			c0.4-0.4,0.8-0.5,1.4-0.5c0.8,0,1.3,0.4,1.3,1.3v1.8c0,0.4,0,0.7,0.1,0.9h-0.6c0-0.1,0-0.3-0.1-0.5c-0.3,0.3-0.7,0.6-1.2,0.6
			C62.6,228.1,62.2,227.7,62.2,227.1z M64.4,227.1v-0.9h-0.2c-0.8,0-1.4,0.2-1.4,0.9c0,0.4,0.3,0.5,0.6,0.5
			C63.8,227.6,64.1,227.4,64.4,227.1z"/>
		<path class="st0" d="M67.1,226l-1.2-1.8h0.7c0,0,0.9,1.3,0.9,1.4l0.9-1.4H69l-1.2,1.8l1.4,2h-0.7l-1.1-1.6l-1,1.6h-0.6L67.1,226z"
			/>
		<path class="st0" d="M69.5,226.1c0-1.1,0.7-2,1.7-2s1.5,0.7,1.5,1.7c0,0.1,0,0.2,0,0.3h-2.6c0,0.8,0.3,1.5,1.2,1.5
			c0.5,0,0.9-0.2,1.1-0.3l0.2,0.5c-0.2,0.1-0.6,0.4-1.3,0.4C70.1,228.1,69.5,227.2,69.5,226.1z M72.1,225.6c0-0.5-0.3-1-0.9-1
			s-1,0.4-1.1,1H72.1z"/>
		<path class="st0" d="M73.4,227.8l0.3-0.4c0.1,0.1,0.5,0.3,1,0.3s0.8-0.2,0.8-0.6s-0.3-0.5-0.8-0.7c-0.6-0.3-1.1-0.5-1.1-1.2
			c0-0.6,0.4-1.1,1.2-1.1c0.6,0,1,0.3,1.1,0.4l-0.3,0.4c-0.1-0.1-0.4-0.3-0.9-0.3c-0.4,0-0.6,0.2-0.6,0.5c0,0.4,0.3,0.5,0.7,0.7
			c0.6,0.3,1.2,0.5,1.2,1.2s-0.5,1.1-1.4,1.1C74.1,228.1,73.7,227.9,73.4,227.8z"/>
		<path class="st0" d="M77.1,228.3c0-0.3-0.4-0.3-0.4-0.7c0-0.2,0.2-0.4,0.4-0.4c0.3,0,0.5,0.2,0.5,0.6c0,0.4-0.2,0.9-0.5,1.4h-0.4
			C77,228.8,77.1,228.5,77.1,228.3z"/>
		<path class="st0" d="M80,229.9l0.1-0.5c0.1,0,0.1,0,0.3,0c0.5,0,0.8-0.3,1-0.9l0.2-0.5l-1.4-3.8h0.7l1.1,3.1l0,0l1.1-3.1h0.6
			l-1.6,4.3c-0.3,0.7-0.6,1.3-1.5,1.3C80.2,229.9,80.1,229.9,80,229.9z"/>
		<path class="st0" d="M83.9,226.1c0-1.1,0.7-2,1.7-2s1.5,0.7,1.5,1.7c0,0.1,0,0.2,0,0.3h-2.6c0,0.8,0.3,1.5,1.2,1.5
			c0.5,0,0.9-0.2,1.1-0.3l0.2,0.5c-0.2,0.1-0.6,0.4-1.3,0.4C84.5,228.1,83.9,227.2,83.9,226.1z M86.6,225.6c0-0.5-0.3-1-0.9-1
			s-1,0.4-1.1,1H86.6z"/>
		<path class="st0" d="M87.9,227.1c0-1,1.1-1.3,2-1.3h0.2v-0.4c0-0.6-0.2-0.8-0.8-0.8c-0.4,0-0.7,0.1-1,0.4l-0.3-0.4
			c0.4-0.4,0.8-0.5,1.4-0.5c0.8,0,1.3,0.4,1.3,1.3v1.8c0,0.4,0,0.7,0.1,0.9h-0.6c0-0.1,0-0.3-0.1-0.5c-0.3,0.3-0.7,0.6-1.2,0.6
			C88.3,228.1,87.9,227.7,87.9,227.1z M90.1,227.1v-0.9h-0.2c-0.8,0-1.4,0.2-1.4,0.9c0,0.4,0.3,0.5,0.6,0.5
			C89.5,227.6,89.9,227.4,90.1,227.1z"/>
		<path class="st0" d="M92,224.2h0.6v0.6c0.2-0.3,0.5-0.7,1-0.7c0.2,0,0.4,0.1,0.4,0.1l-0.1,0.6c0,0-0.1-0.1-0.3-0.1
			c-0.6,0-0.9,0.7-0.9,0.8v2.6H92V224.2z"/>
		<path class="st0" d="M94.4,225.5H96v0.5h-1.6V225.5z"/>
		<path class="st0" d="M96.7,226.1c0-0.9,0.5-2,1.8-2s1.8,1.1,1.8,2s-0.5,2-1.8,2S96.7,227,96.7,226.1z M99.7,226.1
			c0-0.8-0.4-1.5-1.2-1.5c-0.8,0-1.1,0.7-1.1,1.5s0.4,1.5,1.2,1.5C99.3,227.6,99.7,227,99.7,226.1z"/>
		<path class="st0" d="M101.3,224.2h0.6v0.6c0.3-0.4,0.8-0.6,1.2-0.6c0.8,0,1.1,0.5,1.1,1.2v2.7h-0.6v-2.6c0-0.5-0.2-0.8-0.7-0.8
			c-0.4,0-0.8,0.3-1.1,0.7v2.7h-0.6L101.3,224.2L101.3,224.2z"/>
		<path class="st0" d="M105.3,225.5h1.6v0.5h-1.6V225.5z"/>
		<path class="st0" d="M107.4,229.9l0.1-0.5c0.1,0,0.1,0,0.3,0c0.5,0,0.8-0.3,1-0.9l0.2-0.5l-1.4-3.8h0.7l1.1,3.1l0,0l1.1-3.1h0.6
			l-1.6,4.3c-0.3,0.7-0.6,1.3-1.5,1.3C107.6,229.9,107.5,229.9,107.4,229.9z"/>
		<path class="st0" d="M111.4,226.1c0-1.1,0.7-2,1.7-2s1.5,0.7,1.5,1.7c0,0.1,0,0.2,0,0.3H112c0,0.8,0.3,1.5,1.2,1.5
			c0.5,0,0.9-0.2,1.1-0.3l0.2,0.5c-0.2,0.1-0.6,0.4-1.3,0.4C112,228.1,111.4,227.2,111.4,226.1z M114,225.6c0-0.5-0.3-1-0.9-1
			s-1,0.4-1.1,1H114z"/>
		<path class="st0" d="M115.3,227.1c0-1,1.1-1.3,2-1.3h0.2v-0.4c0-0.6-0.2-0.8-0.8-0.8c-0.4,0-0.7,0.1-1,0.4l-0.3-0.4
			c0.4-0.4,0.8-0.5,1.4-0.5c0.8,0,1.3,0.4,1.3,1.3v1.8c0,0.4,0,0.7,0.1,0.9h-0.6c0-0.1,0-0.3-0.1-0.5c-0.3,0.3-0.7,0.6-1.2,0.6
			C115.8,228.1,115.3,227.7,115.3,227.1z M117.5,227.1v-0.9h-0.2c-0.8,0-1.4,0.2-1.4,0.9c0,0.4,0.3,0.5,0.6,0.5
			C116.9,227.6,117.3,227.4,117.5,227.1z"/>
		<path class="st0" d="M119.4,224.2h0.6v0.6c0.2-0.3,0.5-0.7,1-0.7c0.2,0,0.4,0.1,0.4,0.1l-0.1,0.6c0,0-0.1-0.1-0.3-0.1
			c-0.6,0-0.9,0.7-0.9,0.8v2.6h-0.6L119.4,224.2L119.4,224.2z"/>
	</g>
	<path class="st0" d="M123.5,224c0-0.6,0.4-1.3,1.4-1.3s1.4,0.7,1.4,1.3s-0.4,1.3-1.4,1.3S123.5,224.6,123.5,224z M125.8,224
		c0-0.5-0.3-0.9-0.9-0.9s-0.9,0.4-0.9,0.9s0.3,0.9,0.9,0.9C125.4,224.9,125.8,224.5,125.8,224z M128,222.7h0.6l-3.4,5.3h-0.6
		L128,222.7z M126.9,226.8c0-0.6,0.4-1.3,1.4-1.3s1.4,0.7,1.4,1.3s-0.4,1.3-1.4,1.3C127.3,228.1,126.9,227.4,126.9,226.8z
		 M129.1,226.8c0-0.5-0.3-0.9-0.9-0.9s-0.9,0.4-0.9,0.9s0.3,0.9,0.9,0.9C128.8,227.7,129.1,227.3,129.1,226.8z"/>
	<g>
		<path class="st0" d="M130.6,228.3c0-0.3-0.4-0.3-0.4-0.7c0-0.2,0.2-0.4,0.4-0.4c0.3,0,0.5,0.2,0.5,0.6c0,0.4-0.2,0.9-0.5,1.4h-0.4
			C130.5,228.8,130.6,228.5,130.6,228.3z"/>
	</g>
	<path class="st0" d="M134.1,228.1l0.1-0.5c0.1,0,0.3,0.1,0.7,0.1c1,0,1.5-0.4,1.5-1.1c0-0.8-0.7-1.1-1.7-1.1v-0.4
		c0.8,0,1.6-0.4,1.6-1.1c0-0.4-0.3-0.7-0.9-0.7c-0.5,0-0.8,0.2-1.1,0.4l-0.3-0.4c0.3-0.2,0.8-0.5,1.4-0.5c1,0,1.5,0.5,1.5,1.2
		s-0.6,1.1-1.2,1.3l0,0c0.7,0.1,1.3,0.6,1.3,1.4c0,1.1-0.9,1.7-2.1,1.7C134.5,228.1,134.2,228.1,134.1,228.1z"/>
	<g>
		<path class="st0" d="M137.9,225.5h1.6v0.5h-1.6V225.5z"/>
		<path class="st0" d="M140.6,224.2h0.6v0.5c0.2-0.2,0.5-0.6,1.2-0.6c0.6,0,0.9,0.3,1,0.6c0.3-0.3,0.7-0.6,1.2-0.6
			c0.8,0,1.1,0.5,1.1,1.2v2.7h-0.6v-2.6c0-0.5-0.1-0.8-0.6-0.8s-0.8,0.4-1,0.6v2.8h-0.6v-2.6c0-0.5-0.2-0.8-0.6-0.8
			c-0.6,0-1,0.6-1,0.7v2.7h-0.7L140.6,224.2L140.6,224.2z"/>
		<path class="st0" d="M146.6,226.1c0-0.9,0.5-2,1.8-2s1.8,1.1,1.8,2s-0.5,2-1.8,2S146.6,227,146.6,226.1z M149.6,226.1
			c0-0.8-0.4-1.5-1.2-1.5s-1.1,0.7-1.1,1.5s0.4,1.5,1.2,1.5C149.2,227.6,149.6,227,149.6,226.1z"/>
		<path class="st0" d="M151.2,224.2h0.6v0.6c0.3-0.4,0.8-0.6,1.2-0.6c0.8,0,1.1,0.5,1.1,1.2v2.7h-0.6v-2.6c0-0.5-0.2-0.8-0.7-0.8
			c-0.4,0-0.8,0.3-1.1,0.7v2.7h-0.6v-3.9L151.2,224.2L151.2,224.2z"/>
		<path class="st0" d="M155.6,227.1v-2.4H155v-0.5h0.6v-1.1h0.6v1.1h1v0.5h-1v2.4c0,0.4,0.1,0.6,0.4,0.6c0.2,0,0.5-0.1,0.5-0.2
			l0.2,0.4c-0.1,0.1-0.4,0.2-0.8,0.2C155.9,228.1,155.6,227.8,155.6,227.1z"/>
		<path class="st0" d="M158.2,222.3h0.6v2.5c0.2-0.2,0.6-0.6,1.2-0.6c0.8,0,1.1,0.5,1.1,1.2v2.7h-0.6v-2.6c0-0.5-0.2-0.8-0.7-0.8
			c-0.6,0-1,0.6-1.1,0.7v2.7h-0.6v-5.8L158.2,222.3L158.2,222.3z"/>
		<path class="st0" d="M164.2,224.2h0.6v0.5c0.2-0.2,0.5-0.6,1.2-0.6c0.6,0,0.9,0.3,1,0.6c0.3-0.3,0.7-0.6,1.2-0.6
			c0.8,0,1.1,0.5,1.1,1.2v2.7h-0.6v-2.6c0-0.5-0.1-0.8-0.6-0.8s-0.8,0.4-1,0.6v2.8h-0.6v-2.6c0-0.5-0.2-0.8-0.6-0.8
			c-0.6,0-1,0.6-1,0.7v2.7h-0.6L164.2,224.2L164.2,224.2L164.2,224.2z"/>
		<path class="st0" d="M170.2,226.1c0-0.9,0.5-2,1.8-2s1.8,1.1,1.8,2s-0.5,2-1.8,2S170.2,227,170.2,226.1z M173.2,226.1
			c0-0.8-0.4-1.5-1.2-1.5s-1.1,0.7-1.1,1.5s0.4,1.5,1.2,1.5C172.8,227.6,173.2,227,173.2,226.1z"/>
		<path class="st0" d="M174.2,224.2h0.6l1.1,3.1l0,0l1.1-3.1h0.6l-1.4,3.8h-0.6L174.2,224.2z"/>
		<path class="st0" d="M178.3,223.1c0-0.2,0.2-0.4,0.4-0.4s0.4,0.2,0.4,0.4s-0.2,0.4-0.4,0.4S178.3,223.3,178.3,223.1z M178.5,224.2
			h0.6v3.8h-0.6V224.2z"/>
		<path class="st0" d="M180.4,224.2h0.6v0.6c0.3-0.4,0.8-0.6,1.2-0.6c0.8,0,1.1,0.5,1.1,1.2v2.7h-0.6v-2.6c0-0.5-0.2-0.8-0.7-0.8
			c-0.4,0-0.8,0.3-1.1,0.7v2.7h-0.6v-3.9L180.4,224.2L180.4,224.2z"/>
		<path class="st0" d="M184.4,228.9c0-0.4,0.3-0.8,0.7-1c-0.2-0.1-0.3-0.3-0.3-0.6s0.2-0.5,0.4-0.6c-0.4-0.2-0.7-0.7-0.7-1.2
			c0-0.8,0.6-1.4,1.5-1.4c0.2,0,0.4,0,0.6,0.1h1.2v0.5h-0.6c0.2,0.2,0.3,0.5,0.3,0.8c0,0.8-0.6,1.4-1.5,1.4c-0.2,0-0.3,0-0.4,0
			c-0.2,0.1-0.3,0.2-0.3,0.3c0,0.2,0.2,0.3,0.5,0.3c0.8,0,2,0,2,1.2c0,0.8-0.9,1.3-1.9,1.3C185,229.9,184.4,229.6,184.4,228.9z
			 M187.2,228.7c0-0.6-0.5-0.6-1-0.6c-0.2,0-0.5,0-0.7-0.1c-0.4,0.2-0.5,0.5-0.5,0.8c0,0.4,0.3,0.7,1,0.7
			C186.7,229.5,187.2,229.2,187.2,228.7z M186.9,225.5c0-0.5-0.3-0.9-0.9-0.9c-0.6,0-0.9,0.4-0.9,0.9s0.3,0.9,0.9,0.9
			C186.5,226.4,186.9,226.1,186.9,225.5z"/>
		<path class="st0" d="M190.2,227.1c0-1,1.1-1.3,2-1.3h0.2v-0.4c0-0.6-0.2-0.8-0.8-0.8c-0.4,0-0.7,0.1-1,0.4l-0.3-0.4
			c0.4-0.4,0.8-0.5,1.4-0.5c0.8,0,1.3,0.4,1.3,1.3v1.8c0,0.4,0,0.7,0.1,0.9h-0.6c0-0.1,0-0.3-0.1-0.5c-0.3,0.3-0.7,0.6-1.2,0.6
			C190.6,228.1,190.2,227.7,190.2,227.1z M192.4,227.1v-0.9h-0.2c-0.8,0-1.4,0.2-1.4,0.9c0,0.4,0.3,0.5,0.6,0.5
			C191.8,227.6,192.1,227.4,192.4,227.1z"/>
		<path class="st0" d="M193.7,224.2h0.6l1.1,3.1l0,0l1.1-3.1h0.6l-1.4,3.8h-0.5L193.7,224.2z"/>
		<path class="st0" d="M197.5,226.1c0-1.1,0.7-2,1.7-2s1.5,0.7,1.5,1.7c0,0.1,0,0.2,0,0.3h-2.6c0,0.8,0.3,1.5,1.2,1.5
			c0.5,0,0.9-0.2,1.1-0.3l0.2,0.5c-0.2,0.1-0.6,0.4-1.3,0.4C198.2,228.1,197.5,227.2,197.5,226.1z M200.2,225.6c0-0.5-0.3-1-0.9-1
			c-0.6,0-1,0.4-1.1,1H200.2z"/>
		<path class="st0" d="M201.8,224.2h0.6v0.6c0.2-0.3,0.5-0.7,1-0.7c0.2,0,0.4,0.1,0.4,0.1l-0.1,0.6c0,0-0.1-0.1-0.3-0.1
			c-0.6,0-0.9,0.7-0.9,0.8v2.6h-0.6L201.8,224.2L201.8,224.2L201.8,224.2z"/>
		<path class="st0" d="M204.3,227.1c0-1,1.1-1.3,2-1.3h0.2v-0.4c0-0.6-0.2-0.8-0.8-0.8c-0.4,0-0.7,0.1-1,0.4l-0.3-0.4
			c0.4-0.4,0.8-0.5,1.4-0.5c0.8,0,1.3,0.4,1.3,1.3v1.8c0,0.4,0,0.7,0.1,0.9h-0.6c0-0.1,0-0.3-0.1-0.5c-0.3,0.3-0.7,0.6-1.2,0.6
			C204.7,228.1,204.3,227.7,204.3,227.1z M206.5,227.1v-0.9h-0.2c-0.8,0-1.4,0.2-1.4,0.9c0,0.4,0.3,0.5,0.6,0.5
			C205.9,227.6,206.2,227.4,206.5,227.1z"/>
		<path class="st0" d="M208,228.9c0-0.4,0.3-0.8,0.7-1c-0.2-0.1-0.3-0.3-0.3-0.6s0.2-0.5,0.4-0.6c-0.4-0.2-0.7-0.7-0.7-1.2
			c0-0.8,0.6-1.4,1.5-1.4c0.2,0,0.4,0,0.6,0.1h1.2v0.5h-0.6c0.2,0.2,0.3,0.5,0.3,0.8c0,0.8-0.6,1.4-1.5,1.4c-0.2,0-0.3,0-0.4,0
			c-0.2,0.1-0.3,0.2-0.3,0.3c0,0.2,0.2,0.3,0.5,0.3c0.8,0,2,0,2,1.2c0,0.8-0.9,1.3-1.9,1.3C208.7,229.9,208,229.6,208,228.9z
			 M210.9,228.7c0-0.6-0.5-0.6-1-0.6c-0.2,0-0.5,0-0.7-0.1c-0.4,0.2-0.5,0.5-0.5,0.8c0,0.4,0.3,0.7,1,0.7
			C210.3,229.5,210.9,229.2,210.9,228.7z M210.5,225.5c0-0.5-0.3-0.9-0.9-0.9c-0.6,0-0.9,0.4-0.9,0.9s0.3,0.9,0.9,0.9
			S210.5,226.1,210.5,225.5z"/>
		<path class="st0" d="M212,226.1c0-1.1,0.7-2,1.7-2s1.5,0.7,1.5,1.7c0,0.1,0,0.2,0,0.3h-2.6c0,0.8,0.3,1.5,1.2,1.5
			c0.5,0,0.9-0.2,1.1-0.3l0.2,0.5c-0.2,0.1-0.6,0.4-1.3,0.4C212.6,228.1,212,227.2,212,226.1z M214.6,225.6c0-0.5-0.3-1-0.9-1
			c-0.6,0-1,0.4-1.1,1H214.6z"/>
	</g>
	<line class="st1" x1="0" y1="225.4" x2="6" y2="225.4"/>
</g>
<g>
	<g>
		<path class="st0" d="M8.9,232.7h2.8v0.5H9.6v1.7h1.9v0.5H9.6v2.6H8.9V232.7z"/>
		<path class="st0" d="M12.6,233c0-0.2,0.2-0.4,0.4-0.4s0.4,0.2,0.4,0.4s-0.2,0.4-0.4,0.4S12.6,233.3,12.6,233z M12.7,234.2h0.6v3.8
			h-0.6V234.2z"/>
		<path class="st0" d="M14.3,237.7l0.3-0.4c0.1,0.1,0.5,0.3,1,0.3s0.8-0.2,0.8-0.6s-0.3-0.5-0.8-0.7c-0.6-0.3-1.1-0.5-1.1-1.2
			c0-0.6,0.4-1.1,1.2-1.1c0.6,0,1,0.3,1.1,0.4l-0.3,0.4c-0.1-0.1-0.4-0.3-0.9-0.3c-0.4,0-0.6,0.2-0.6,0.5c0,0.4,0.3,0.5,0.7,0.7
			c0.6,0.3,1.2,0.5,1.2,1.2s-0.5,1.1-1.4,1.1C15,238.1,14.6,237.9,14.3,237.7z"/>
		<path class="st0" d="M17.6,236.1c0-1.3,0.8-2,1.8-2c0.6,0,1,0.2,1.2,0.4l-0.3,0.4c-0.2-0.2-0.5-0.3-0.9-0.3
			c-0.8,0-1.1,0.7-1.1,1.5s0.4,1.5,1.2,1.5c0.5,0,0.8-0.2,0.9-0.3l0.2,0.4c-0.2,0.1-0.5,0.4-1.2,0.4
			C18.2,238.1,17.6,237.1,17.6,236.1z"/>
		<path class="st0" d="M21.2,237.1c0-1,1.1-1.3,2-1.3h0.2v-0.4c0-0.6-0.2-0.8-0.8-0.8c-0.4,0-0.7,0.1-1,0.4l-0.3-0.4
			c0.4-0.4,0.8-0.5,1.4-0.5c0.8,0,1.3,0.4,1.3,1.3v1.8c0,0.4,0,0.7,0.1,0.9h-0.6c0-0.1,0-0.3-0.1-0.5c-0.3,0.3-0.7,0.6-1.2,0.6
			C21.6,238.1,21.2,237.7,21.2,237.1z M23.4,237v-0.9h-0.2c-0.8,0-1.4,0.2-1.4,0.9c0,0.4,0.3,0.5,0.6,0.5
			C22.8,237.6,23.2,237.4,23.4,237z"/>
		<path class="st0" d="M25.3,232.2h0.6v5.8h-0.6V232.2z"/>
		<path class="st0" d="M29.1,232.7h2.7v0.5h-2.1v1.7h1.9v0.5h-1.9v2h2.2v0.5h-2.8C29.1,237.9,29.1,232.7,29.1,232.7z"/>
		<path class="st0" d="M33.9,236l-1.2-1.8h0.7c0,0,0.9,1.3,0.9,1.4l0.9-1.4h0.6l-1.2,1.8l1.4,2h-0.7l-1.1-1.6l-1,1.6h-0.6L33.9,236z
			"/>
		<path class="st0" d="M36.7,234.2h0.6v0.4c0.2-0.2,0.6-0.5,1.1-0.5c0.9,0,1.6,0.7,1.6,2c0,1.2-0.7,2-1.7,2c-0.5,0-0.8-0.2-1-0.3v2
			h-0.6C36.7,239.8,36.7,234.2,36.7,234.2z M39.3,236.1c0-0.9-0.3-1.5-1.1-1.5c-0.5,0-0.9,0.4-1,0.5v2.1c0.2,0.2,0.4,0.4,0.9,0.4
			C39,237.6,39.3,237,39.3,236.1z"/>
		<path class="st0" d="M40.6,236.1c0-1.1,0.7-2,1.7-2s1.5,0.7,1.5,1.7c0,0.1,0,0.2,0,0.3h-2.6c0,0.8,0.3,1.5,1.2,1.5
			c0.5,0,0.9-0.2,1.1-0.3l0.2,0.5c-0.2,0.1-0.6,0.4-1.3,0.4C41.2,238.1,40.6,237.2,40.6,236.1z M43.2,235.6c0-0.5-0.3-1-0.9-1
			c-0.6,0-1,0.4-1.1,1H43.2z"/>
		<path class="st0" d="M44.9,234.2h0.6v0.6c0.3-0.4,0.8-0.6,1.2-0.6c0.8,0,1.1,0.5,1.1,1.2v2.7h-0.6v-2.6c0-0.5-0.2-0.8-0.7-0.8
			c-0.4,0-0.8,0.3-1.1,0.7v2.7h-0.6L44.9,234.2L44.9,234.2z"/>
		<path class="st0" d="M48.8,236.1c0-1.2,0.7-2,1.7-2c0.4,0,0.7,0.1,1,0.3v-2.2H52v5c0,0.3,0,0.6,0.1,0.8h-0.6
			c0-0.1-0.1-0.3-0.1-0.4c-0.3,0.3-0.6,0.5-1.1,0.5C49.4,238.1,48.8,237.4,48.8,236.1z M51.4,237v-2.1c-0.2-0.2-0.5-0.4-0.9-0.4
			c-0.7,0-1.1,0.6-1.1,1.5s0.3,1.5,1.1,1.5C50.8,237.6,51.2,237.4,51.4,237z"/>
		<path class="st0" d="M53.2,233c0-0.2,0.2-0.4,0.4-0.4s0.4,0.2,0.4,0.4s-0.2,0.4-0.4,0.4S53.2,233.3,53.2,233z M53.3,234.2h0.6v3.8
			h-0.6V234.2z"/>
		<path class="st0" d="M55.5,237.1v-2.5h-0.6v-0.5h0.6V233h0.6v1.1h1v0.5h-1v2.4c0,0.4,0.1,0.6,0.4,0.6c0.2,0,0.5-0.1,0.5-0.2
			l0.2,0.4c-0.1,0.1-0.4,0.2-0.8,0.2C55.8,238.1,55.5,237.7,55.5,237.1z"/>
		<path class="st0" d="M58,236.9v-2.7h0.6v2.6c0,0.5,0.2,0.8,0.7,0.8c0.6,0,1-0.6,1.1-0.7v-2.7H61v3c0,0.3,0,0.7,0.1,0.8h-0.6
			c0-0.1,0-0.4-0.1-0.6c-0.2,0.2-0.6,0.7-1.2,0.7C58.3,238.1,58,237.6,58,236.9z"/>
		<path class="st0" d="M62.3,234.2h0.6v0.6c0.2-0.3,0.5-0.7,1-0.7c0.2,0,0.4,0.1,0.4,0.1l-0.1,0.6c0,0-0.1-0.1-0.3-0.1
			c-0.6,0-0.9,0.7-0.9,0.8v2.6h-0.6L62.3,234.2L62.3,234.2z"/>
		<path class="st0" d="M64.7,236.1c0-1.1,0.7-2,1.7-2s1.5,0.7,1.5,1.7c0,0.1,0,0.2,0,0.3h-2.6c0,0.8,0.3,1.5,1.2,1.5
			c0.5,0,0.9-0.2,1.1-0.3l0.2,0.5c-0.2,0.1-0.6,0.4-1.3,0.4C65.3,238.1,64.7,237.2,64.7,236.1z M67.3,235.6c0-0.5-0.3-1-0.9-1
			s-1,0.4-1.1,1H67.3z"/>
		<path class="st0" d="M69,238.3c0-0.3-0.4-0.3-0.4-0.7c0-0.2,0.2-0.4,0.4-0.4c0.3,0,0.5,0.2,0.5,0.6c0,0.4-0.2,0.9-0.5,1.4h-0.4
			C68.9,238.8,69,238.5,69,238.3z"/>
		<path class="st0" d="M71.9,239.8l0.1-0.5c0.1,0,0.1,0,0.3,0c0.5,0,0.8-0.3,1-0.9l0.2-0.5l-1.4-3.8h0.7l1.1,3.1l0,0l1.1-3.1h0.6
			l-1.6,4.4c-0.3,0.7-0.6,1.3-1.5,1.3C72.1,239.9,72,239.8,71.9,239.8z"/>
		<path class="st0" d="M75.8,236.1c0-1.1,0.7-2,1.7-2s1.5,0.7,1.5,1.7c0,0.1,0,0.2,0,0.3h-2.6c0,0.8,0.3,1.5,1.2,1.5
			c0.5,0,0.9-0.2,1.1-0.3l0.2,0.5c-0.2,0.1-0.6,0.4-1.3,0.4C76.4,238.1,75.8,237.2,75.8,236.1z M78.5,235.6c0-0.5-0.3-1-0.9-1
			s-1,0.4-1.1,1H78.5z"/>
		<path class="st0" d="M79.8,237.1c0-1,1.1-1.3,2-1.3H82v-0.4c0-0.6-0.2-0.8-0.8-0.8c-0.4,0-0.7,0.1-1,0.4l-0.3-0.4
			c0.4-0.4,0.8-0.5,1.4-0.5c0.8,0,1.3,0.4,1.3,1.3v1.8c0,0.4,0,0.7,0.1,0.9h-0.6c0-0.1,0-0.3-0.1-0.5c-0.3,0.3-0.7,0.6-1.2,0.6
			C80.2,238.1,79.8,237.7,79.8,237.1z M82,237v-0.9h-0.2c-0.8,0-1.4,0.2-1.4,0.9c0,0.4,0.3,0.5,0.6,0.5
			C81.4,237.6,81.8,237.4,82,237z"/>
		<path class="st0" d="M83.9,234.2h0.6v0.6c0.2-0.3,0.5-0.7,1-0.7c0.2,0,0.4,0.1,0.4,0.1l-0.1,0.6c0,0-0.1-0.1-0.3-0.1
			c-0.6,0-0.9,0.7-0.9,0.8v2.6H84L83.9,234.2L83.9,234.2z"/>
		<path class="st0" d="M86.2,235.5h1.6v0.5h-1.6V235.5z"/>
		<path class="st0" d="M88.6,236.1c0-0.9,0.5-2,1.8-2s1.8,1.1,1.8,2s-0.5,2-1.8,2S88.6,237,88.6,236.1z M91.6,236.1
			c0-0.8-0.4-1.5-1.2-1.5c-0.8,0-1.1,0.7-1.1,1.5s0.4,1.5,1.2,1.5C91.2,237.6,91.6,236.9,91.6,236.1z"/>
		<path class="st0" d="M93.2,234.2h0.6v0.6c0.3-0.4,0.8-0.6,1.2-0.6c0.8,0,1.1,0.5,1.1,1.2v2.7h-0.6v-2.6c0-0.5-0.2-0.8-0.7-0.8
			c-0.4,0-0.8,0.3-1.1,0.7v2.7h-0.6L93.2,234.2L93.2,234.2z"/>
		<path class="st0" d="M97.2,235.5h1.6v0.5h-1.6V235.5z"/>
		<path class="st0" d="M99.3,239.8l0.1-0.5c0.1,0,0.1,0,0.3,0c0.5,0,0.8-0.3,1-0.9l0.2-0.5l-1.4-3.8h0.7l1.1,3.1l0,0l1.1-3.1h0.6
			l-1.6,4.4c-0.3,0.7-0.6,1.3-1.5,1.3C99.5,239.9,99.4,239.8,99.3,239.8z"/>
		<path class="st0" d="M103.3,236.1c0-1.1,0.7-2,1.7-2s1.5,0.7,1.5,1.7c0,0.1,0,0.2,0,0.3h-2.6c0,0.8,0.3,1.5,1.2,1.5
			c0.5,0,0.9-0.2,1.1-0.3l0.2,0.5c-0.2,0.1-0.6,0.4-1.3,0.4C103.9,238.1,103.3,237.2,103.3,236.1z M105.9,235.6c0-0.5-0.3-1-0.9-1
			s-1,0.4-1.1,1H105.9z"/>
		<path class="st0" d="M107.2,237.1c0-1,1.1-1.3,2-1.3h0.2v-0.4c0-0.6-0.2-0.8-0.8-0.8c-0.4,0-0.7,0.1-1,0.4l-0.3-0.4
			c0.4-0.4,0.8-0.5,1.4-0.5c0.8,0,1.3,0.4,1.3,1.3v1.8c0,0.4,0,0.7,0.1,0.9h-0.6c0-0.1,0-0.3-0.1-0.5c-0.3,0.3-0.7,0.6-1.2,0.6
			C107.7,238.1,107.2,237.7,107.2,237.1z M109.4,237v-0.9h-0.2c-0.8,0-1.4,0.2-1.4,0.9c0,0.4,0.3,0.5,0.6,0.5
			C108.8,237.6,109.2,237.4,109.4,237z"/>
		<path class="st0" d="M111.3,234.2h0.6v0.6c0.2-0.3,0.5-0.7,1-0.7c0.2,0,0.4,0.1,0.4,0.1l-0.1,0.6c0,0-0.1-0.1-0.3-0.1
			c-0.6,0-0.9,0.7-0.9,0.8v2.6h-0.6L111.3,234.2L111.3,234.2z"/>
	</g>
	<path class="st0" d="M115.4,233.9c0-0.6,0.4-1.3,1.4-1.3s1.4,0.7,1.4,1.3s-0.4,1.3-1.4,1.3C115.8,235.3,115.4,234.5,115.4,233.9z
		 M117.7,233.9c0-0.5-0.3-0.9-0.9-0.9s-0.9,0.4-0.9,0.9s0.3,0.9,0.9,0.9C117.3,234.8,117.7,234.4,117.7,233.9z M119.9,232.7h0.6
		l-3.4,5.3h-0.6L119.9,232.7z M118.8,236.7c0-0.6,0.4-1.3,1.4-1.3s1.4,0.7,1.4,1.3s-0.4,1.3-1.4,1.3
		C119.2,238.1,118.8,237.3,118.8,236.7z M121,236.7c0-0.5-0.3-0.9-0.9-0.9s-0.9,0.4-0.9,0.9s0.3,0.9,0.9,0.9S121,237.2,121,236.7z
		 M122.5,238.3c0-0.3-0.4-0.3-0.4-0.7c0-0.2,0.2-0.4,0.4-0.4c0.3,0,0.5,0.2,0.5,0.6c0,0.4-0.2,0.9-0.5,1.4h-0.4
		C122.4,238.8,122.5,238.5,122.5,238.3z"/>
	<path class="st0" d="M125.8,238.1l0.1-0.5c0.1,0,0.3,0.1,0.7,0.1c1,0,1.5-0.4,1.5-1.1c0-0.8-0.7-1.1-1.7-1.1V235
		c0.8,0,1.6-0.4,1.6-1.1c0-0.4-0.3-0.7-0.9-0.7c-0.5,0-0.8,0.2-1.1,0.4l-0.3-0.4c0.3-0.2,0.8-0.5,1.4-0.5c1,0,1.5,0.5,1.5,1.2
		s-0.6,1.1-1.2,1.3l0,0c0.7,0.1,1.3,0.6,1.3,1.4c0,1.1-0.9,1.7-2.1,1.7C126.2,238.2,125.9,238.2,125.8,238.1z"/>
	<g>
		<path class="st0" d="M129.6,235.6h1.6v0.5h-1.6V235.6z"/>
		<path class="st0" d="M132.3,234.3h0.6v0.5c0.2-0.2,0.5-0.6,1.2-0.6c0.6,0,0.9,0.3,1,0.6c0.3-0.3,0.7-0.6,1.2-0.6
			c0.8,0,1.1,0.5,1.1,1.2v2.7h-0.6v-2.6c0-0.5-0.1-0.8-0.6-0.8s-0.8,0.4-1,0.6v2.8h-0.6v-2.6c0-0.5-0.2-0.8-0.6-0.8
			c-0.6,0-1,0.6-1,0.7v2.7h-0.7L132.3,234.3L132.3,234.3z"/>
		<path class="st0" d="M138.3,236.2c0-0.9,0.5-2,1.8-2s1.8,1.1,1.8,2s-0.5,2-1.8,2S138.3,237.1,138.3,236.2z M141.3,236.2
			c0-0.8-0.4-1.5-1.2-1.5s-1.1,0.7-1.1,1.5s0.4,1.5,1.2,1.5C140.9,237.7,141.3,237,141.3,236.2z"/>
		<path class="st0" d="M142.9,234.3h0.6v0.6c0.3-0.4,0.8-0.6,1.2-0.6c0.8,0,1.1,0.5,1.1,1.2v2.7h-0.6v-2.6c0-0.5-0.2-0.8-0.7-0.8
			c-0.4,0-0.8,0.3-1.1,0.7v2.7h-0.6v-3.9L142.9,234.3L142.9,234.3z"/>
		<path class="st0" d="M147.3,237.2v-2.5h-0.6v-0.5h0.6v-1.1h0.6v1.1h1v0.5h-1v2.4c0,0.4,0.1,0.6,0.4,0.6c0.2,0,0.5-0.1,0.5-0.2
			l0.2,0.4c-0.1,0.1-0.4,0.2-0.8,0.2C147.6,238.2,147.3,237.8,147.3,237.2z"/>
		<path class="st0" d="M149.9,232.3h0.6v2.5c0.2-0.2,0.6-0.6,1.2-0.6c0.8,0,1.1,0.5,1.1,1.2v2.7h-0.6v-2.6c0-0.5-0.2-0.8-0.7-0.8
			c-0.6,0-1,0.6-1.1,0.7v2.7h-0.6L149.9,232.3L149.9,232.3z"/>
		<path class="st0" d="M155.9,234.3h0.6v0.5c0.2-0.2,0.5-0.6,1.2-0.6c0.6,0,0.9,0.3,1,0.6c0.3-0.3,0.7-0.6,1.2-0.6
			c0.8,0,1.1,0.5,1.1,1.2v2.7h-0.6v-2.6c0-0.5-0.1-0.8-0.6-0.8s-0.8,0.4-1,0.6v2.8h-0.6v-2.6c0-0.5-0.2-0.8-0.6-0.8
			c-0.6,0-1,0.6-1,0.7v2.7H156v-3.8L155.9,234.3L155.9,234.3z"/>
		<path class="st0" d="M161.9,236.2c0-0.9,0.5-2,1.8-2s1.8,1.1,1.8,2s-0.5,2-1.8,2S161.9,237.1,161.9,236.2z M164.9,236.2
			c0-0.8-0.4-1.5-1.2-1.5s-1.1,0.7-1.1,1.5s0.4,1.5,1.2,1.5C164.5,237.7,164.9,237,164.9,236.2z"/>
		<path class="st0" d="M165.9,234.3h0.6l1.1,3.1l0,0l1.1-3.1h0.6l-1.4,3.8h-0.6L165.9,234.3z"/>
		<path class="st0" d="M170,233.1c0-0.2,0.2-0.4,0.4-0.4s0.4,0.2,0.4,0.4s-0.2,0.4-0.4,0.4C170.2,233.5,170,233.4,170,233.1z
			 M170.2,234.3h0.6v3.8h-0.6V234.3z"/>
		<path class="st0" d="M172.1,234.3h0.6v0.6c0.3-0.4,0.8-0.6,1.2-0.6c0.8,0,1.1,0.5,1.1,1.2v2.7h-0.6v-2.6c0-0.5-0.2-0.8-0.7-0.8
			c-0.4,0-0.8,0.3-1.1,0.7v2.7H172v-3.9L172.1,234.3L172.1,234.3z"/>
		<path class="st0" d="M176.1,238.9c0-0.4,0.3-0.8,0.7-1c-0.2-0.1-0.3-0.3-0.3-0.6s0.2-0.5,0.4-0.6c-0.4-0.2-0.7-0.7-0.7-1.2
			c0-0.8,0.6-1.4,1.5-1.4c0.2,0,0.4,0,0.6,0.1h1.2v0.5h-0.6c0.2,0.2,0.3,0.5,0.3,0.8c0,0.8-0.6,1.4-1.5,1.4c-0.2,0-0.3,0-0.4,0
			c-0.2,0.1-0.3,0.2-0.3,0.3c0,0.2,0.2,0.3,0.5,0.3c0.8,0,2,0,2,1.2c0,0.8-0.9,1.3-1.9,1.3C176.7,240,176.1,239.7,176.1,238.9z
			 M178.9,238.8c0-0.6-0.5-0.6-1-0.6c-0.2,0-0.5,0-0.7-0.1c-0.4,0.2-0.5,0.5-0.5,0.8c0,0.4,0.3,0.7,1,0.7
			C178.4,239.5,178.9,239.2,178.9,238.8z M178.6,235.6c0-0.5-0.3-0.9-0.9-0.9c-0.6,0-0.9,0.4-0.9,0.9s0.3,0.9,0.9,0.9
			C178.2,236.5,178.6,236.1,178.6,235.6z"/>
		<path class="st0" d="M181.9,237.2c0-1,1.1-1.3,2-1.3h0.2v-0.4c0-0.6-0.2-0.8-0.8-0.8c-0.4,0-0.7,0.1-1,0.4l-0.3-0.4
			c0.4-0.4,0.8-0.5,1.4-0.5c0.8,0,1.3,0.4,1.3,1.3v1.8c0,0.4,0,0.7,0.1,0.9h-0.6c0-0.1,0-0.3-0.1-0.5c-0.3,0.3-0.7,0.6-1.2,0.6
			C182.3,238.2,181.9,237.8,181.9,237.2z M184.1,237.1v-0.9h-0.2c-0.8,0-1.4,0.2-1.4,0.9c0,0.4,0.3,0.5,0.6,0.5
			C183.5,237.7,183.8,237.5,184.1,237.1z"/>
		<path class="st0" d="M185.4,234.3h0.6l1.1,3.1l0,0l1.1-3.1h0.6l-1.4,3.8h-0.5L185.4,234.3z"/>
		<path class="st0" d="M189.2,236.2c0-1.1,0.7-2,1.7-2s1.5,0.7,1.5,1.7c0,0.1,0,0.2,0,0.3h-2.6c0,0.8,0.3,1.5,1.2,1.5
			c0.5,0,0.9-0.2,1.1-0.3l0.2,0.5c-0.2,0.1-0.6,0.4-1.3,0.4C189.9,238.2,189.2,237.3,189.2,236.2z M191.9,235.7c0-0.5-0.3-1-0.9-1
			c-0.6,0-1,0.4-1.1,1H191.9z"/>
		<path class="st0" d="M193.5,234.3h0.6v0.6c0.2-0.3,0.5-0.7,1-0.7c0.2,0,0.4,0.1,0.4,0.1l-0.1,0.6c0,0-0.1-0.1-0.3-0.1
			c-0.6,0-0.9,0.7-0.9,0.8v2.6h-0.6L193.5,234.3L193.5,234.3z"/>
		<path class="st0" d="M196,237.2c0-1,1.1-1.3,2-1.3h0.2v-0.4c0-0.6-0.2-0.8-0.8-0.8c-0.4,0-0.7,0.1-1,0.4l-0.3-0.4
			c0.4-0.4,0.8-0.5,1.4-0.5c0.8,0,1.3,0.4,1.3,1.3v1.8c0,0.4,0,0.7,0.1,0.9h-0.6c0-0.1,0-0.3-0.1-0.5c-0.3,0.3-0.7,0.6-1.2,0.6
			C196.4,238.2,196,237.8,196,237.2z M198.2,237.1v-0.9H198c-0.8,0-1.4,0.2-1.4,0.9c0,0.4,0.3,0.5,0.6,0.5
			C197.6,237.7,197.9,237.5,198.2,237.1z"/>
		<path class="st0" d="M199.7,238.9c0-0.4,0.3-0.8,0.7-1c-0.2-0.1-0.3-0.3-0.3-0.6s0.2-0.5,0.4-0.6c-0.4-0.2-0.7-0.7-0.7-1.2
			c0-0.8,0.6-1.4,1.5-1.4c0.2,0,0.4,0,0.6,0.1h1.2v0.5h-0.6c0.2,0.2,0.3,0.5,0.3,0.8c0,0.8-0.6,1.4-1.5,1.4c-0.2,0-0.3,0-0.4,0
			c-0.2,0.1-0.3,0.2-0.3,0.3c0,0.2,0.2,0.3,0.5,0.3c0.8,0,2,0,2,1.2c0,0.8-0.9,1.3-1.9,1.3C200.4,240,199.7,239.7,199.7,238.9z
			 M202.6,238.8c0-0.6-0.5-0.6-1-0.6c-0.2,0-0.5,0-0.7-0.1c-0.4,0.2-0.5,0.5-0.5,0.8c0,0.4,0.3,0.7,1,0.7
			C202,239.5,202.6,239.2,202.6,238.8z M202.2,235.6c0-0.5-0.3-0.9-0.9-0.9c-0.6,0-0.9,0.4-0.9,0.9s0.3,0.9,0.9,0.9
			C201.9,236.5,202.2,236.1,202.2,235.6z"/>
		<path class="st0" d="M203.7,236.2c0-1.1,0.7-2,1.7-2s1.5,0.7,1.5,1.7c0,0.1,0,0.2,0,0.3h-2.6c0,0.8,0.3,1.5,1.2,1.5
			c0.5,0,0.9-0.2,1.1-0.3l0.2,0.5c-0.2,0.1-0.6,0.4-1.3,0.4C204.3,238.2,203.7,237.3,203.7,236.2z M206.3,235.7c0-0.5-0.3-1-0.9-1
			c-0.6,0-1,0.4-1.1,1H206.3z"/>
	</g>
	<line class="st2" x1="0" y1="235.3" x2="6" y2="235.3"/>
</g>
<path class="st0" d="M12.3,11.6c0-2,1.2-3.3,3.1-3.3l0.1,0.5c-0.8,0-1.4,0.2-1.9,0.6c-0.4,0.4-0.6,0.9-0.7,1.6
	c0.3-0.3,0.7-0.5,1.2-0.5c1,0,1.6,0.7,1.6,1.6s-0.6,1.7-1.7,1.7C12.8,13.8,12.3,12.6,12.3,11.6z M15.1,12.2c0-0.8-0.4-1.2-1.1-1.2
	c-0.5,0-0.8,0.2-1.1,0.5v0.1c0,1.1,0.4,1.8,1.2,1.8C14.8,13.3,15.1,12.7,15.1,12.2z M16.5,11.1c0-1.3,0.5-2.8,2-2.8
	c1.4,0,2,1.4,2,2.8s-0.6,2.8-2,2.8C17,13.8,16.5,12.4,16.5,11.1z M19.9,11.1c0-1.3-0.4-2.3-1.4-2.3s-1.4,1-1.4,2.3s0.4,2.3,1.4,2.3
	C19.4,13.3,19.9,12.3,19.9,11.1z"/>
<path class="st0" d="M12.6,71.3l0.1-0.5c0.1,0,0.3,0.1,0.7,0.1c1,0,1.5-0.4,1.5-1.1c0-0.8-0.7-1.1-1.7-1.1v-0.4
	c0.8,0,1.6-0.4,1.6-1.1c0-0.4-0.3-0.7-0.9-0.7c-0.5,0-0.8,0.2-1.1,0.4l-0.3-0.4c0.3-0.2,0.8-0.5,1.4-0.5c1,0,1.5,0.5,1.5,1.2
	s-0.6,1.1-1.2,1.3l0,0c0.7,0.1,1.3,0.6,1.3,1.4c0,1.1-0.9,1.7-2.1,1.7C13,71.4,12.7,71.3,12.6,71.3z M16.5,68.6c0-1.3,0.5-2.8,2-2.8
	c1.4,0,2,1.4,2,2.8s-0.6,2.8-2,2.8C17,71.4,16.5,69.9,16.5,68.6z M19.9,68.6c0-1.3-0.4-2.3-1.4-2.3s-1.4,1-1.4,2.3s0.4,2.3,1.4,2.3
	C19.4,70.9,19.9,69.9,19.9,68.6z"/>
<path class="st0" d="M16.5,124.8c0-1.3,0.5-2.8,2-2.8c1.4,0,2,1.4,2,2.8s-0.6,2.8-2,2.8C17,127.5,16.5,126.1,16.5,124.8z
	 M19.9,124.8c0-1.3-0.4-2.3-1.4-2.3s-1.4,1-1.4,2.3s0.4,2.3,1.4,2.3C19.4,127,19.9,126,19.9,124.8z"/>
<path class="st0" d="M10.2,181h1.6v0.5h-1.6V181z M12.6,184.1l0.1-0.5c0.1,0,0.3,0.1,0.7,0.1c1,0,1.5-0.4,1.5-1.1
	c0-0.8-0.7-1.1-1.7-1.1V181c0.8,0,1.6-0.4,1.6-1.1c0-0.4-0.3-0.7-0.9-0.7c-0.5,0-0.8,0.2-1.1,0.4l-0.3-0.4c0.3-0.2,0.8-0.5,1.4-0.5
	c1,0,1.5,0.5,1.5,1.2s-0.6,1.1-1.2,1.3l0,0c0.7,0.1,1.3,0.6,1.3,1.4c0,1.1-0.9,1.7-2.1,1.7C13,184.2,12.7,184.2,12.6,184.1z
	 M16.5,181.4c0-1.3,0.5-2.8,2-2.8c1.4,0,2,1.4,2,2.8s-0.6,2.8-2,2.8C17,184.2,16.5,182.8,16.5,181.4z M19.9,181.4
	c0-1.3-0.4-2.3-1.4-2.3s-1.4,1-1.4,2.3s0.4,2.3,1.4,2.3C19.4,183.7,19.9,182.7,19.9,181.4z"/>
<g>
	<path class="st0" d="M16.1,187.6h0.6l2.5,3.6c0.2,0.4,0.4,0.6,0.5,0.8l0,0c0-0.1,0-0.3,0-0.7v-3.7h0.6v5.3h-0.6l-2.6-3.8
		c-0.2-0.2-0.3-0.5-0.4-0.7l0,0c0,0.1,0,0.3,0,0.6v3.9h-0.6V187.6z"/>
	<path class="st0" d="M21.4,191c0-0.9,0.5-2,1.8-2s1.8,1.1,1.8,2s-0.5,2-1.8,2S21.4,191.9,21.4,191z M24.4,191
		c0-0.8-0.4-1.5-1.2-1.5c-0.8,0-1.1,0.7-1.1,1.5s0.4,1.5,1.2,1.5C24,192.5,24.4,191.8,24.4,191z"/>
	<path class="st0" d="M25.4,189.1H26l1.1,3.1l0,0l1.1-3.1h0.6l-1.4,3.8h-0.5L25.4,189.1z"/>
	<path class="st0" d="M29.5,190.3h1.6v0.5h-1.6V190.3z"/>
</g>
<path class="st0" d="M33,188.1l-1,0.3l-0.1-0.5l1.3-0.4h0.5v5.3H33V188.1z M35.8,188.1l-1,0.3l-0.1-0.5l1.3-0.4h0.5v5.3h-0.6v-4.7
	L35.8,188.1L35.8,188.1z"/>
<g>
	<path class="st0" d="M56.7,187.6h0.6l2.5,3.6c0.2,0.4,0.4,0.6,0.5,0.8l0,0c0-0.1,0-0.3,0-0.7v-3.7h0.6v5.3h-0.6l-2.6-3.8
		c-0.2-0.2-0.3-0.5-0.4-0.7l0,0c0,0.1,0,0.3,0,0.6v3.9h-0.6V187.6z"/>
	<path class="st0" d="M62,191c0-0.9,0.5-2,1.8-2s1.8,1.1,1.8,2s-0.5,2-1.8,2S62,191.9,62,191z M65,191c0-0.8-0.4-1.5-1.2-1.5
		s-1.1,0.7-1.1,1.5s0.4,1.5,1.2,1.5C64.6,192.5,65,191.8,65,191z"/>
	<path class="st0" d="M66,189.1h0.6l1.1,3.1l0,0l1.1-3.1h0.6l-1.4,3.8h-0.5L66,189.1z"/>
	<path class="st0" d="M70.1,190.3h1.6v0.5h-1.6V190.3z"/>
</g>
<path class="st0" d="M73.6,188.1l-1,0.3l-0.1-0.5l1.3-0.4h0.5v5.3h-0.6v-4.7L73.6,188.1L73.6,188.1z M75.4,192.9l0.1-0.5
	c0.1,0,0.3,0.1,0.7,0.1c1,0,1.5-0.4,1.5-1.1c0-0.8-0.7-1.1-1.7-1.1v-0.4c0.8,0,1.6-0.4,1.6-1.1c0-0.4-0.3-0.7-0.9-0.7
	c-0.5,0-0.8,0.2-1.1,0.4l-0.3-0.4c0.3-0.2,0.8-0.5,1.4-0.5c1,0,1.5,0.5,1.5,1.2s-0.6,1.1-1.2,1.3l0,0c0.7,0.1,1.3,0.6,1.3,1.4
	c0,1.1-0.9,1.7-2.1,1.7C75.7,193,75.5,192.9,75.4,192.9z"/>
<g>
	<path class="st0" d="M97.9,187.6h0.6l2.5,3.6c0.2,0.4,0.4,0.6,0.5,0.8l0,0c0-0.1,0-0.3,0-0.7v-3.7h0.6v5.3h-0.6l-2.6-3.8
		c-0.2-0.2-0.3-0.5-0.4-0.7l0,0c0,0.1,0,0.3,0,0.6v3.9h-0.6V187.6z"/>
	<path class="st0" d="M103.2,191c0-0.9,0.5-2,1.8-2s1.8,1.1,1.8,2s-0.5,2-1.8,2S103.2,191.9,103.2,191z M106.2,191
		c0-0.8-0.4-1.5-1.2-1.5c-0.8,0-1.1,0.7-1.1,1.5s0.4,1.5,1.2,1.5C105.8,192.5,106.2,191.8,106.2,191z"/>
	<path class="st0" d="M107.2,189.1h0.6l1.1,3.1l0,0l1.1-3.1h0.6l-1.4,3.8h-0.5L107.2,189.1z"/>
	<path class="st0" d="M111.3,190.3h1.6v0.5h-1.6V190.3z"/>
</g>
<path class="st0" d="M114.8,188.1l-1,0.3l-0.1-0.5l1.3-0.4h0.5v5.3h-0.6v-4.7L114.8,188.1L114.8,188.1z M116.6,192.9l0.1-0.5
	c0.1,0,0.2,0,0.5,0c0.9,0,1.7-0.4,1.7-1.3c0-0.9-0.7-1.2-1.6-1.2c-0.2,0-0.4,0-0.4,0l0.2-2.5h2.4v0.5h-1.8l-0.1,1.4
	c1.3,0,2,0.6,2,1.6c0,1.2-1,1.8-2.4,1.8C116.8,193,116.6,193,116.6,192.9z"/>
<g>
	<path class="st0" d="M139,187.6h0.6l2.5,3.6c0.2,0.4,0.4,0.6,0.5,0.8l0,0c0-0.1,0-0.3,0-0.7v-3.7h0.6v5.3h-0.6l-2.6-3.8
		c-0.2-0.2-0.3-0.5-0.4-0.7l0,0c0,0.1,0,0.3,0,0.6v3.9H139V187.6z"/>
	<path class="st0" d="M144.3,191c0-0.9,0.5-2,1.8-2s1.8,1.1,1.8,2s-0.5,2-1.8,2S144.3,191.9,144.3,191z M147.3,191
		c0-0.8-0.4-1.5-1.2-1.5s-1.1,0.7-1.1,1.5s0.4,1.5,1.2,1.5C146.9,192.5,147.3,191.8,147.3,191z"/>
	<path class="st0" d="M148.4,189.1h0.6l1.1,3.1l0,0l1.1-3.1h0.6l-1.4,3.8h-0.5L148.4,189.1z"/>
	<path class="st0" d="M152.4,190.3h1.6v0.5h-1.6V190.3z"/>
</g>
<path class="st0" d="M155.9,188.1l-1,0.3l-0.1-0.5l1.3-0.4h0.5v5.3H156L155.9,188.1L155.9,188.1z M158,192.9l1.9-4.8h-2.4v-0.5h3
	v0.4l-2,5.1L158,192.9z"/>
<g>
	<path class="st0" d="M179.8,187.6h0.6l2.5,3.6c0.2,0.4,0.4,0.6,0.5,0.8l0,0c0-0.1,0-0.3,0-0.7v-3.7h0.6v5.3h-0.6l-2.6-3.8
		c-0.2-0.2-0.3-0.5-0.4-0.7l0,0c0,0.1,0,0.3,0,0.6v3.9h-0.6V187.6z"/>
	<path class="st0" d="M185.2,191c0-0.9,0.5-2,1.8-2s1.8,1.1,1.8,2s-0.5,2-1.8,2C185.6,193,185.2,191.9,185.2,191z M188.1,191
		c0-0.8-0.4-1.5-1.2-1.5s-1.1,0.7-1.1,1.5s0.4,1.5,1.2,1.5C187.7,192.5,188.1,191.8,188.1,191z"/>
	<path class="st0" d="M189.2,189.1h0.6l1.1,3.1l0,0l1.1-3.1h0.6l-1.4,3.8h-0.5L189.2,189.1z"/>
	<path class="st0" d="M193.3,190.3h1.6v0.5h-1.6V190.3z"/>
</g>
<path class="st0" d="M196.7,188.1l-1,0.3l-0.1-0.5l1.3-0.4h0.5v5.3h-0.6L196.7,188.1L196.7,188.1z M198.8,192.6
	c0.8,0,1.5-0.2,1.9-0.8c0.3-0.4,0.5-0.8,0.6-1.5c-0.3,0.3-0.7,0.5-1.2,0.5c-1,0-1.6-0.7-1.6-1.6s0.6-1.7,1.7-1.7
	c1.3,0,1.8,1.2,1.8,2.3c0,2-1,3.3-3,3.3L198.8,192.6z M201.3,189.8v-0.1c0-1.1-0.4-1.8-1.2-1.8c-0.7,0-1,0.6-1,1.2
	c0,0.8,0.4,1.2,1.1,1.2C200.7,190.3,201,190.1,201.3,189.8z"/>
<g>
	<path class="st0" d="M221,187.6h0.6l2.5,3.6c0.2,0.4,0.4,0.6,0.5,0.8l0,0c0-0.1,0-0.3,0-0.7v-3.7h0.6v5.3h-0.6l-2.6-3.8
		c-0.2-0.2-0.3-0.5-0.4-0.7l0,0c0,0.1,0,0.3,0,0.6v3.9H221V187.6z"/>
	<path class="st0" d="M226.4,191c0-0.9,0.5-2,1.8-2s1.8,1.1,1.8,2s-0.5,2-1.8,2C226.8,193,226.4,191.9,226.4,191z M229.3,191
		c0-0.8-0.4-1.5-1.2-1.5s-1.1,0.7-1.1,1.5s0.4,1.5,1.2,1.5C228.9,192.5,229.3,191.8,229.3,191z"/>
	<path class="st0" d="M230.4,189.1h0.6l1.1,3.1l0,0l1.1-3.1h0.6l-1.4,3.8h-0.5L230.4,189.1z"/>
	<path class="st0" d="M234.5,190.3h1.6v0.5h-1.6V190.3z"/>
</g>
<path class="st0" d="M236.9,192.5c0.9-0.9,2.5-2.4,2.5-3.6c0-0.7-0.4-1-0.9-1c-0.6,0-0.9,0.3-1.2,0.5L237,188
	c0.3-0.4,0.8-0.7,1.5-0.7c0.9,0,1.6,0.5,1.6,1.4c0,1.2-1.3,2.5-2.3,3.5c0,0,0.3,0,0.6,0h1.8v0.5h-3.3L236.9,192.5L236.9,192.5z
	 M242,188.1l-1,0.3l-0.1-0.5l1.3-0.4h0.5v5.3H242V188.1z"/>
<line class="st3" x1="67.3" y1="181.7" x2="67.3" y2="183.9"/>
<line class="st3" x1="26.2" y1="181.7" x2="26.2" y2="183.9"/>
<line class="st3" x1="108.5" y1="181.6" x2="108.5" y2="183.7"/>
<line class="st3" x1="149.6" y1="181.6" x2="149.6" y2="183.7"/>
<line class="st3" x1="190.7" y1="181.6" x2="190.7" y2="183.7"/>
<line class="st3" x1="231.8" y1="181.6" x2="231.8" y2="183.7"/>
<line class="st3" x1="26" y1="11.8" x2="232.1" y2="11.8"/>
<line class="st3" x1="26" y1="68.5" x2="232.1" y2="68.5"/>
<line class="st3" x1="26" y1="125.2" x2="232.1" y2="125.2"/>
<line class="st3" x1="26.2" y1="11.5" x2="26.2" y2="181.8"/>
<line class="st3" x1="231.8" y1="11.5" x2="231.8" y2="181.8"/>
<line class="st3" x1="26" y1="181.6" x2="232.1" y2="181.6"/>
<polyline class="st4" points="26.3,93.6 28.1,98.2 29.8,107.7 31.5,68.6 33.2,53.7 34.9,54.8 36.6,91.8 38.3,102.3 40,84 41.8,83.4 
	43.4,84.2 45.2,103.5 46.9,106.5 48.6,114.3 50.3,106.5 52,103.1 53.7,101.2 55.4,101.8 57.2,102 58.9,104.6 60.6,117.1 62.3,120.6 
	64,116.1 65.7,101.2 67.4,102.8 69.1,96.1 70.8,96.5 72.5,105.9 74.3,104.6 76,117.5 77.7,95.2 79.4,92.7 81.1,87.4 82.8,98.9 
	84.5,109.7 86.2,119.4 87.9,122.8 89.6,127.7 91.3,136.6 93,102.3 94.7,100.4 96.5,67 98.1,100.1 99.9,94 101.6,99.9 103.3,85.1 
	105,77 106.7,69.4 108.4,69.2 110.1,85.9 111.9,93.1 113.6,107.7 115.3,95.4 117,107.8 118.7,98.6 120.4,98.6 122.1,101.2 
	123.8,105.7 125.5,111.4 127.2,119.4 129,118.2 130.7,134.2 132.4,102.8 134.1,111.2 135.8,86.4 137.5,107.5 139.2,100.8 
	140.9,104.8 142.6,103.7 144.3,107.7 146.1,118.5 147.8,125.8 149.5,133 151.2,129.5 152.9,130.2 154.6,94.8 156.3,97.3 158,87.8 
	159.8,117.5 161.4,115.8 163.2,118.6 164.9,116.9 166.6,113.9 168.3,110.9 170,113.3 171.7,106.5 173.4,97.4 175.2,82.5 176.9,87.2 
	178.6,91.4 180.3,104.4 182,110.5 183.7,118.5 185.4,120 187.1,115.2 188.8,117.7 190.5,119.8 192.3,120.9 194,113.5 195.7,104.3 
	197.4,117.3 199.1,119.6 200.8,129 202.5,132.3 204.2,125.3 205.9,117.3 207.6,109 209.4,108.6 211.1,104.1 212.8,93.1 214.5,94.6 
	216.2,94.4 217.9,104.6 219.6,117.1 221.3,125.6 223,120.9 224.7,121.9 226.4,119.8 228.1,127.9 229.9,123 231.6,123 "/>
<polyline class="st5" points="26.3,67.4 28.1,88.2 29.8,104.8 31.5,60.9 33.2,33.7 34.9,38.8 36.6,73.6 38.3,84.5 40,64.9 
	41.8,68.5 43.4,73.1 45.2,87.4 46.9,81.7 48.6,57.9 50.3,55.1 52,59.8 53.7,89.3 55.4,87.8 57.2,87.9 58.9,86.3 60.6,96.1 
	62.3,99.7 64,93.9 65.7,76.2 67.4,75.3 69.1,73.2 70.8,74 72.5,85 74.3,87.2 76,104.3 77.7,83.6 79.4,79.5 81.1,74 82.8,88.5 
	84.5,101.2 86.2,111.4 87.9,111.6 89.6,110.2 91.3,122.7 93,94.4 94.7,98.8 96.5,63.2 98.1,94.6 99.9,83.2 101.6,86.3 103.3,69.7 
	105,66.1 106.7,63.7 108.4,60.6 110.1,72.8 111.9,77.5 113.6,92.1 115.3,79.6 117,84.8 118.7,75.5 120.4,80.8 122.1,92.3 
	123.8,100.8 125.5,108.4 127.2,114.1 129,115.7 130.7,140.7 132.4,101.2 134.1,101.4 135.8,60.9 137.5,91.4 139.2,87.6 140.9,90 
	142.6,83.6 144.3,81.5 146.1,88.7 147.8,98.3 149.5,113.9 151.2,119.3 152.9,114.8 154.6,69.7 156.3,65.1 158,58.1 159.8,91.2 
	161.4,93.4 163.2,98.2 164.9,100.4 166.6,98.5 168.3,106.1 170,118 171.7,121.6 173.4,116.1 175.2,102.7 176.9,99.5 178.6,95.4 
	180.3,106.1 182,117 183.7,128.4 185.4,128.2 187.1,122.4 188.8,118 190.5,116.3 192.3,107.1 194,97.2 195.7,81.4 197.4,122.4 
	199.1,143.2 200.8,164.7 202.5,142 204.2,120.5 205.9,103.7 207.6,95.7 209.4,91.9 211.1,84.2 212.8,64.7 214.5,59.6 216.2,53.6 
	217.9,46.9 219.6,52 221.3,61.9 223,81.7 224.7,95.5 226.4,100.4 228.1,112 229.9,116.7 231.6,116.7 "/>
</svg>
