<?xml version="1.0" encoding="utf-8"?>
<!-- Generator: Adobe Illustrator 26.0.1, SVG Export Plug-In . SVG Version: 6.00 Build 0)  -->
<svg version="1.1" id="Layer_2_00000128456514774489613260000013114508298649695367_"
	 xmlns="http://www.w3.org/2000/svg" xmlns:xlink="http://www.w3.org/1999/xlink" x="0px" y="0px" viewBox="0 0 250 250"
	 style="enable-background:new 0 0 250 250;" xml:space="preserve">
<style type="text/css">
	.st0{fill:#4D4D4F;}
	.st1{fill:none;stroke:#5C5B59;stroke-width:1.6;}
	.st2{fill:none;stroke:#B19E4E;stroke-width:1.6;}
	.st3{fill:none;stroke:#BCBEC0;stroke-width:0.5;}
	.st4{fill:none;stroke:#5C5B59;stroke-linecap:round;stroke-linejoin:round;stroke-miterlimit:10;}
	.st5{fill:none;stroke:#B19E4E;stroke-linecap:round;stroke-linejoin:round;stroke-miterlimit:10;}
</style>
<g>
	<g>
		<path class="st0" d="M9.3,219.7h0.6l1.3,3.6c0.2,0.4,0.2,0.7,0.3,1l0,0c0.1-0.3,0.2-0.5,0.3-1l1.3-3.6h0.6l0.7,5.3h-0.6l-0.5-3.5
			c0-0.4-0.1-0.6-0.1-0.7l0,0c-0.1,0.2-0.1,0.4-0.2,0.7l-1.3,3.5h-0.6l-1.3-3.5c-0.1-0.3-0.2-0.6-0.3-0.7l0,0c0,0.2,0,0.4-0.1,0.8
			L9.2,225H8.6L9.3,219.7z"/>
		<path class="st0" d="M15,224.6l0.3-0.4c0.1,0.1,0.5,0.5,1.2,0.5c0.7,0,1.1-0.4,1.1-0.9c0-0.6-0.6-0.9-1.2-1.2s-1.2-0.7-1.2-1.5
			c0-0.9,0.7-1.4,1.6-1.4c0.8,0,1.2,0.3,1.4,0.4l-0.3,0.5c-0.2-0.1-0.5-0.4-1.1-0.4c-0.5,0-0.9,0.3-0.9,0.8s0.4,0.8,1,1
			c0.7,0.3,1.5,0.7,1.5,1.7c0,0.8-0.7,1.4-1.7,1.4C15.7,225.1,15.2,224.7,15,224.6z"/>
		<path class="st0" d="M18.8,222.3c0-1.4,1-2.7,2.6-2.7c0.7,0,1.1,0.2,1.5,0.4l-0.3,0.5c-0.3-0.2-0.7-0.4-1.2-0.4
			c-1.3,0-1.9,1.1-1.9,2.2c0,1.2,0.6,2.3,2,2.3c0.6,0,1-0.2,1.3-0.5l0.3,0.4c-0.3,0.3-0.9,0.5-1.6,0.5
			C19.7,225.1,18.8,223.8,18.8,222.3z"/>
		<path class="st0" d="M23.8,219.7h0.6v5.3h-0.6V219.7z"/>
		<path class="st0" d="M27.3,219.7H28v5.3h-0.6v-5.3H27.3z"/>
		<path class="st0" d="M29.2,221.2h0.6v0.6c0.3-0.4,0.8-0.6,1.2-0.6c0.8,0,1.1,0.5,1.1,1.2v2.7h-0.6v-2.6c0-0.5-0.2-0.8-0.7-0.8
			c-0.4,0-0.8,0.3-1.1,0.7v2.7h-0.6v-3.9H29.2z"/>
		<path class="st0" d="M32.8,223.1c0-1.2,0.7-2,1.7-2c0.4,0,0.7,0.1,1,0.3v-2.2h0.6v5c0,0.3,0,0.6,0.1,0.8h-0.6
			c0-0.1-0.1-0.3-0.1-0.4c-0.3,0.3-0.6,0.5-1.1,0.5C33.5,225.1,32.8,224.4,32.8,223.1z M35.5,224v-2.1c-0.2-0.2-0.5-0.4-0.9-0.4
			c-0.7,0-1.1,0.6-1.1,1.5s0.3,1.5,1.1,1.5C34.9,224.6,35.2,224.4,35.5,224z"/>
		<path class="st0" d="M37,220c0-0.2,0.2-0.4,0.4-0.4s0.4,0.2,0.4,0.4s-0.2,0.4-0.4,0.4C37.1,220.4,37,220.3,37,220z M37.1,221.2
			h0.6v3.8h-0.6V221.2z"/>
		<path class="st0" d="M38.5,224.1c0-1,1.1-1.3,2-1.3h0.2v-0.4c0-0.6-0.2-0.8-0.8-0.8c-0.4,0-0.7,0.1-1,0.4l-0.3-0.4
			c0.4-0.4,0.8-0.5,1.4-0.5c0.8,0,1.3,0.4,1.3,1.3v1.8c0,0.4,0,0.7,0.1,0.9h-0.6c0-0.1,0-0.3-0.1-0.5c-0.3,0.3-0.7,0.6-1.2,0.6
			C38.9,225.1,38.5,224.7,38.5,224.1z M40.7,224v-0.9h-0.2c-0.8,0-1.4,0.2-1.4,0.9c0,0.4,0.3,0.5,0.6,0.5
			C40.1,224.6,40.4,224.4,40.7,224z"/>
		<path class="st0" d="M43.3,221.2h0.6l1.1,3.1l0,0l1.1-3.1h0.6l-1.4,3.8h-0.5L43.3,221.2z"/>
		<path class="st0" d="M46.9,223.1c0-1.1,0.7-2,1.7-2s1.5,0.7,1.5,1.7c0,0.1,0,0.2,0,0.3h-2.6c0,0.8,0.3,1.5,1.2,1.5
			c0.5,0,0.9-0.2,1.1-0.3l0.2,0.5c-0.2,0.1-0.6,0.4-1.3,0.4C47.5,225.1,46.9,224.2,46.9,223.1z M49.5,222.6c0-0.5-0.3-1-0.9-1
			c-0.6,0-1,0.4-1.1,1H49.5z"/>
		<path class="st0" d="M50.8,221.2h0.6v0.6c0.2-0.3,0.5-0.7,1-0.7c0.2,0,0.4,0.1,0.4,0.1l-0.1,0.6c0,0-0.1-0.1-0.3-0.1
			c-0.6,0-0.9,0.7-0.9,0.8v2.6h-0.6v-3.9H50.8z"/>
		<path class="st0" d="M53,224.7l0.3-0.4c0.1,0.1,0.5,0.3,1,0.3s0.8-0.2,0.8-0.6s-0.3-0.5-0.8-0.7c-0.6-0.3-1.1-0.5-1.1-1.2
			c0-0.6,0.4-1.1,1.2-1.1c0.6,0,1,0.3,1.1,0.4l-0.3,0.4c-0.1-0.1-0.4-0.3-0.9-0.3c-0.4,0-0.6,0.2-0.6,0.5c0,0.4,0.3,0.5,0.7,0.7
			c0.6,0.3,1.2,0.5,1.2,1.2s-0.5,1.1-1.4,1.1C53.7,225.1,53.2,224.9,53,224.7z"/>
		<path class="st0" d="M56.3,223.9v-2.7h0.6v2.6c0,0.5,0.2,0.8,0.7,0.8c0.6,0,1-0.6,1.1-0.7v-2.7h0.6v3c0,0.3,0,0.7,0.1,0.8h-0.6
			c0-0.1,0-0.4-0.1-0.6c-0.2,0.2-0.6,0.7-1.2,0.7C56.6,225.1,56.3,224.6,56.3,223.9z"/>
		<path class="st0" d="M59.9,224.7l0.3-0.4c0.1,0.1,0.5,0.3,1,0.3s0.8-0.2,0.8-0.6s-0.3-0.5-0.8-0.7c-0.6-0.3-1.1-0.5-1.1-1.2
			c0-0.6,0.4-1.1,1.2-1.1c0.6,0,1,0.3,1.1,0.4l-0.3,0.4c-0.1-0.1-0.4-0.3-0.9-0.3c-0.4,0-0.6,0.2-0.6,0.5c0,0.4,0.3,0.5,0.7,0.7
			c0.6,0.3,1.2,0.5,1.2,1.2S62,225,61.1,225C60.6,225.1,60.2,224.9,59.9,224.7z"/>
		<path class="st0" d="M65.3,219.7h0.6l1.3,3.6c0.2,0.4,0.2,0.7,0.3,1l0,0c0.1-0.3,0.2-0.5,0.3-1l1.3-3.6h0.6l0.7,5.3h-0.6l-0.5-3.5
			c0-0.4-0.1-0.6-0.1-0.7l0,0c-0.1,0.2-0.1,0.4-0.2,0.7l-1.3,3.5h-0.6l-1.3-3.5c-0.1-0.3-0.2-0.6-0.3-0.7l0,0c0,0.2,0,0.4-0.1,0.8
			l-0.4,3.5h-0.6L65.3,219.7z"/>
		<path class="st0" d="M71,224.6l0.3-0.4c0.1,0.1,0.5,0.5,1.2,0.5s1.1-0.4,1.1-0.9c0-0.6-0.6-0.9-1.2-1.2s-1.2-0.7-1.2-1.5
			c0-0.9,0.7-1.4,1.6-1.4c0.8,0,1.2,0.3,1.4,0.4l-0.3,0.5c-0.2-0.1-0.5-0.4-1.1-0.4c-0.5,0-0.9,0.3-0.9,0.8s0.4,0.8,1,1
			c0.7,0.3,1.5,0.7,1.5,1.7c0,0.8-0.7,1.4-1.7,1.4C71.7,225.1,71.2,224.7,71,224.6z"/>
		<path class="st0" d="M74.8,222.3c0-1.4,1-2.7,2.6-2.7c0.7,0,1.1,0.2,1.5,0.4l-0.3,0.5c-0.3-0.2-0.7-0.4-1.2-0.4
			c-1.3,0-1.9,1.1-1.9,2.2c0,1.2,0.6,2.3,2,2.3c0.6,0,1-0.2,1.3-0.5l0.3,0.4c-0.3,0.3-0.9,0.5-1.6,0.5
			C75.7,225.1,74.8,223.8,74.8,222.3z"/>
		<path class="st0" d="M79.8,219.7h0.6v5.3h-0.6V219.7z"/>
		<path class="st0" d="M84.7,219.7h0.6l2,5.3h-0.7l-0.5-1.3h-2.4l-0.5,1.3h-0.6L84.7,219.7z M86,223.2l-0.7-1.8
			c-0.2-0.4-0.2-0.7-0.3-0.9l0,0c-0.1,0.3-0.2,0.5-0.3,0.9l-0.7,1.8H86z"/>
		<path class="st0" d="M87.6,224.7l0.3-0.4c0.1,0.1,0.5,0.3,1,0.3s0.8-0.2,0.8-0.6s-0.3-0.5-0.8-0.7c-0.6-0.3-1.1-0.5-1.1-1.2
			c0-0.6,0.4-1.1,1.2-1.1c0.6,0,1,0.3,1.1,0.4l-0.3,0.4c-0.1-0.1-0.4-0.3-0.9-0.3c-0.4,0-0.6,0.2-0.6,0.5c0,0.4,0.3,0.5,0.7,0.7
			c0.6,0.3,1.2,0.5,1.2,1.2s-0.5,1.1-1.4,1.1C88.2,225.1,87.8,224.9,87.6,224.7z"/>
		<path class="st0" d="M90.8,220c0-0.2,0.2-0.4,0.4-0.4c0.2,0,0.4,0.2,0.4,0.4s-0.2,0.4-0.4,0.4S90.8,220.3,90.8,220z M91,221.2h0.6
			v3.8H91V221.2z"/>
		<path class="st0" d="M92.3,224.1c0-1,1.1-1.3,2-1.3h0.2v-0.4c0-0.6-0.2-0.8-0.8-0.8c-0.4,0-0.7,0.1-1,0.4l-0.3-0.4
			c0.4-0.4,0.8-0.5,1.4-0.5c0.8,0,1.3,0.4,1.3,1.3v1.8c0,0.4,0,0.7,0.1,0.9h-0.6c0-0.1,0-0.3-0.1-0.5c-0.3,0.3-0.7,0.6-1.2,0.6
			C92.8,225.1,92.3,224.7,92.3,224.1z M94.5,224v-0.9h-0.2c-0.8,0-1.4,0.2-1.4,0.9c0,0.4,0.3,0.5,0.6,0.5
			C94,224.6,94.3,224.4,94.5,224z"/>
		<path class="st0" d="M97.3,223.1c0-1.1,0.7-2,1.7-2s1.5,0.7,1.5,1.7c0,0.1,0,0.2,0,0.3H98c0,0.8,0.3,1.5,1.2,1.5
			c0.5,0,0.9-0.2,1.1-0.3l0.2,0.5c-0.2,0.1-0.6,0.4-1.3,0.4C97.9,225.1,97.3,224.2,97.3,223.1z M100,222.6c0-0.5-0.3-1-0.9-1
			s-1,0.4-1.1,1H100z"/>
		<path class="st0" d="M102.1,223l-1.2-1.8h0.7c0,0,0.9,1.3,0.9,1.4l0.9-1.4h0.6l-1.2,1.8l1.4,2h-0.7l-1.1-1.6l-1,1.6h-0.6
			L102.1,223z"/>
		<path class="st0" d="M104.2,222.4h1.6v0.5h-1.6V222.4z"/>
		<path class="st0" d="M105.8,226.4l0.1-0.5c0.1,0,0.2,0.1,0.3,0.1c0.4,0,0.6-0.3,0.6-0.9v-5.3h0.6v5.4c0,0.9-0.4,1.4-1.2,1.4
			C106.1,226.5,105.9,226.5,105.8,226.4z"/>
		<path class="st0" d="M108.3,224.1c0-1,1.1-1.3,2-1.3h0.2v-0.4c0-0.6-0.2-0.8-0.8-0.8c-0.4,0-0.7,0.1-1,0.4l-0.3-0.4
			c0.4-0.4,0.8-0.5,1.4-0.5c0.8,0,1.3,0.4,1.3,1.3v1.8c0,0.4,0,0.7,0.1,0.9h-0.6c0-0.1,0-0.3-0.1-0.5c-0.3,0.3-0.7,0.6-1.2,0.6
			C108.8,225.1,108.3,224.7,108.3,224.1z M110.6,224v-0.9h-0.2c-0.8,0-1.4,0.2-1.4,0.9c0,0.4,0.3,0.5,0.6,0.5
			C110,224.6,110.3,224.4,110.6,224z"/>
		<path class="st0" d="M112.2,221.2h0.6v0.4c0.2-0.2,0.6-0.5,1.1-0.5c0.9,0,1.6,0.7,1.6,2c0,1.2-0.7,2-1.7,2c-0.5,0-0.8-0.2-1-0.3v2
			h-0.6V221.2z M114.8,223.1c0-0.9-0.3-1.5-1.1-1.5c-0.5,0-0.9,0.4-1,0.5v2.1c0.2,0.2,0.4,0.4,0.9,0.4
			C114.4,224.6,114.8,224,114.8,223.1z"/>
		<path class="st0" d="M115.8,224.1c0-1,1.1-1.3,2-1.3h0.2v-0.4c0-0.6-0.2-0.8-0.8-0.8c-0.4,0-0.7,0.1-1,0.4l-0.3-0.4
			c0.4-0.4,0.8-0.5,1.4-0.5c0.8,0,1.3,0.4,1.3,1.3v1.8c0,0.4,0,0.7,0.1,0.9h-0.6c0-0.1,0-0.3-0.1-0.5c-0.3,0.3-0.7,0.6-1.2,0.6
			C116.3,225.1,115.8,224.7,115.8,224.1z M118,224v-0.9h-0.2c-0.8,0-1.4,0.2-1.4,0.9c0,0.4,0.3,0.5,0.6,0.5
			C117.4,224.6,117.8,224.4,118,224z"/>
		<path class="st0" d="M119.6,221.2h0.6v0.6c0.3-0.4,0.8-0.6,1.2-0.6c0.8,0,1.1,0.5,1.1,1.2v2.7H122v-2.6c0-0.5-0.2-0.8-0.7-0.8
			c-0.4,0-0.8,0.3-1.1,0.7v2.7h-0.6C119.6,225.1,119.6,221.2,119.6,221.2z"/>
		<path class="st0" d="M123.7,225.3c0-0.3-0.4-0.3-0.4-0.7c0-0.2,0.2-0.4,0.4-0.4c0.3,0,0.5,0.2,0.5,0.6c0,0.4-0.2,0.9-0.5,1.4h-0.4
			C123.6,225.8,123.7,225.5,123.7,225.3z"/>
		<path class="st0" d="M126.7,219.7h0.6v4.8h2.1v0.5h-2.7V219.7z"/>
		<path class="st0" d="M129.9,224.6c0-0.3,0.2-0.5,0.5-0.5s0.5,0.2,0.5,0.5s-0.2,0.5-0.5,0.5C130.1,225.1,129.9,224.9,129.9,224.6z"
			/>
		<path class="st0" d="M131.8,219.7h0.6v2.3h3v-2.3h0.6v5.3h-0.6v-2.5h-3v2.5h-0.6V219.7z"/>
		<path class="st0" d="M136.9,224.6c0-0.3,0.2-0.5,0.5-0.5s0.5,0.2,0.5,0.5s-0.2,0.5-0.5,0.5C137.2,225.1,136.9,224.9,136.9,224.6z"
			/>
		<path class="st0" d="M138.4,224.6l0.3-0.4c0.1,0.1,0.5,0.5,1.2,0.5s1.1-0.4,1.1-0.9c0-0.6-0.6-0.9-1.2-1.2
			c-0.6-0.3-1.2-0.7-1.2-1.5c0-0.9,0.7-1.4,1.6-1.4c0.8,0,1.2,0.3,1.4,0.4l-0.3,0.5c-0.2-0.1-0.5-0.4-1.1-0.4
			c-0.5,0-0.9,0.3-0.9,0.8s0.4,0.8,1,1c0.7,0.3,1.5,0.7,1.5,1.7c0,0.8-0.7,1.4-1.7,1.4C139.1,225.1,138.6,224.7,138.4,224.6z"/>
		<path class="st0" d="M142.1,224.6c0-0.3,0.2-0.5,0.5-0.5s0.5,0.2,0.5,0.5s-0.2,0.5-0.5,0.5C142.4,225.1,142.1,224.9,142.1,224.6z"
			/>
	</g>
	<line class="st1" x1="0" y1="222.3" x2="6" y2="222.3"/>
	<g>
		<path class="st0" d="M9.9,232.9h0.6l1.3,3.6c0.2,0.4,0.2,0.7,0.3,1l0,0c0.1-0.3,0.2-0.5,0.3-1l1.3-3.6h0.6l0.7,5.3h-0.6l-0.5-3.5
			c0-0.4-0.1-0.6-0.1-0.7l0,0c-0.1,0.2-0.1,0.4-0.2,0.7l-1.3,3.5h-0.6l-1.3-3.5c-0.1-0.3-0.2-0.6-0.3-0.7l0,0c0,0.2,0,0.4-0.1,0.8
			l-0.4,3.5H9.2L9.9,232.9z"/>
		<path class="st0" d="M15.6,237.8l0.3-0.4c0.1,0.1,0.5,0.5,1.2,0.5c0.7,0,1.1-0.4,1.1-0.9c0-0.6-0.6-0.9-1.2-1.2s-1.2-0.7-1.2-1.5
			c0-0.9,0.7-1.4,1.6-1.4c0.8,0,1.2,0.3,1.4,0.4l-0.3,0.5c-0.2-0.1-0.5-0.4-1.1-0.4c-0.5,0-0.9,0.3-0.9,0.8s0.4,0.8,1,1
			c0.7,0.3,1.5,0.7,1.5,1.7c0,0.8-0.7,1.4-1.7,1.4C16.3,238.3,15.8,238,15.6,237.8z"/>
		<path class="st0" d="M19.4,235.6c0-1.4,1-2.7,2.6-2.7c0.7,0,1.1,0.2,1.5,0.4l-0.3,0.5c-0.3-0.2-0.7-0.4-1.2-0.4
			c-1.3,0-1.9,1.1-1.9,2.2c0,1.2,0.6,2.3,2,2.3c0.6,0,1-0.2,1.3-0.5l0.3,0.4c-0.3,0.3-0.9,0.5-1.6,0.5
			C20.3,238.3,19.4,237,19.4,235.6z"/>
		<path class="st0" d="M24.4,232.9H25v5.3h-0.6V232.9z"/>
		<path class="st0" d="M28.8,233.5h-1.5V233H31v0.5h-1.5v4.8h-0.6v-4.8H28.8z"/>
		<path class="st0" d="M30.5,237.3c0-1,1.1-1.3,2-1.3h0.2v-0.4c0-0.6-0.2-0.8-0.8-0.8c-0.4,0-0.7,0.1-1,0.4l-0.3-0.4
			c0.4-0.4,0.8-0.5,1.4-0.5c0.8,0,1.3,0.4,1.3,1.3v1.8c0,0.4,0,0.7,0.1,0.9h-0.6c0-0.1,0-0.3-0.1-0.5c-0.3,0.3-0.7,0.6-1.2,0.6
			C31,238.3,30.5,237.9,30.5,237.3z M32.7,237.3v-0.9h-0.2c-0.8,0-1.4,0.2-1.4,0.9c0,0.4,0.3,0.5,0.6,0.5
			C32.1,237.8,32.5,237.6,32.7,237.3z"/>
		<path class="st0" d="M34.2,233.3c0-0.2,0.2-0.4,0.4-0.4s0.4,0.2,0.4,0.4s-0.2,0.4-0.4,0.4S34.2,233.5,34.2,233.3z M34.4,234.4H35
			v3.8h-0.6V234.4z"/>
		<path class="st0" d="M35.5,234.4h0.6l0.8,2.9l0,0l0.9-2.9h0.6l0.9,2.9l0,0l0.8-2.9h0.6l-1.2,3.8H39l-1-3l0,0l-1,3h-0.5L35.5,234.4
			z"/>
		<path class="st0" d="M41,237.3c0-1,1.1-1.3,2-1.3h0.2v-0.4c0-0.6-0.2-0.8-0.8-0.8c-0.4,0-0.7,0.1-1,0.4l-0.3-0.4
			c0.4-0.4,0.8-0.5,1.4-0.5c0.8,0,1.3,0.4,1.3,1.3v1.8c0,0.4,0,0.7,0.1,0.9h-0.6c0-0.1,0-0.3-0.1-0.5c-0.3,0.3-0.7,0.6-1.2,0.6
			C41.5,238.3,41,237.9,41,237.3z M43.3,237.3v-0.9h-0.2c-0.8,0-1.4,0.2-1.4,0.9c0,0.4,0.3,0.5,0.6,0.5
			C42.7,237.8,43,237.6,43.3,237.3z"/>
		<path class="st0" d="M44.8,234.4h0.6v0.6c0.3-0.4,0.8-0.6,1.2-0.6c0.8,0,1.1,0.5,1.1,1.2v2.7h-0.6v-2.6c0-0.5-0.2-0.8-0.7-0.8
			c-0.4,0-0.8,0.3-1.1,0.7v2.7h-0.6L44.8,234.4L44.8,234.4z"/>
		<path class="st0" d="M49.8,234.4h0.6l1.1,3.1l0,0l1.1-3.1h0.6l-1.4,3.8h-0.5L49.8,234.4z"/>
		<path class="st0" d="M53.4,236.3c0-1.1,0.7-2,1.7-2s1.5,0.7,1.5,1.7c0,0.1,0,0.2,0,0.3H54c0,0.8,0.3,1.5,1.2,1.5
			c0.5,0,0.9-0.2,1.1-0.3l0.2,0.5c-0.2,0.1-0.6,0.4-1.3,0.4C54,238.3,53.4,237.4,53.4,236.3z M56,235.9c0-0.5-0.3-1-0.9-1
			c-0.6,0-1,0.4-1.1,1H56z"/>
		<path class="st0" d="M57.4,234.4H58v0.6c0.2-0.3,0.5-0.7,1-0.7c0.2,0,0.4,0.1,0.4,0.1l-0.1,0.6c0,0-0.1-0.1-0.3-0.1
			c-0.6,0-0.9,0.7-0.9,0.8v2.6h-0.6v-3.9H57.4z"/>
		<path class="st0" d="M59.5,238l0.3-0.4c0.1,0.1,0.5,0.3,1,0.3s0.8-0.2,0.8-0.6s-0.3-0.5-0.8-0.7c-0.6-0.3-1.1-0.5-1.1-1.2
			c0-0.6,0.4-1.1,1.2-1.1c0.6,0,1,0.3,1.1,0.4l-0.3,0.4c-0.1-0.1-0.4-0.3-0.9-0.3c-0.4,0-0.6,0.2-0.6,0.5c0,0.4,0.3,0.5,0.7,0.7
			c0.6,0.3,1.2,0.5,1.2,1.2s-0.5,1.1-1.4,1.1C60.2,238.4,59.8,238.2,59.5,238z"/>
		<path class="st0" d="M62.8,237.1v-2.7h0.6v2.6c0,0.5,0.2,0.8,0.7,0.8c0.6,0,1-0.6,1.1-0.7v-2.7h0.6v3c0,0.3,0,0.7,0.1,0.8h-0.6
			c0-0.1,0-0.4-0.1-0.6c-0.2,0.2-0.6,0.7-1.2,0.7C63.1,238.3,62.8,237.8,62.8,237.1z"/>
		<path class="st0" d="M66.5,238l0.3-0.4c0.1,0.1,0.5,0.3,1,0.3s0.8-0.2,0.8-0.6s-0.3-0.5-0.8-0.7c-0.6-0.3-1.1-0.5-1.1-1.2
			c0-0.6,0.4-1.1,1.2-1.1c0.6,0,1,0.3,1.1,0.4l-0.3,0.4c-0.1-0.1-0.4-0.3-0.9-0.3c-0.4,0-0.6,0.2-0.6,0.5c0,0.4,0.3,0.5,0.7,0.7
			c0.6,0.3,1.2,0.5,1.2,1.2s-0.5,1.1-1.4,1.1C67.1,238.4,66.7,238.2,66.5,238z"/>
		<path class="st0" d="M71.8,232.9h0.6l1.3,3.6c0.2,0.4,0.2,0.7,0.3,1l0,0c0.1-0.3,0.2-0.5,0.3-1l1.3-3.6h0.6l0.7,5.3h-0.6l-0.5-3.5
			c0-0.4-0.1-0.6-0.1-0.7l0,0c-0.1,0.2-0.1,0.4-0.2,0.7l-1.3,3.5h-0.6l-1.3-3.5c-0.1-0.3-0.2-0.6-0.3-0.7l0,0c0,0.2,0,0.4-0.1,0.8
			l-0.4,3.5h-0.6L71.8,232.9z"/>
		<path class="st0" d="M77.5,237.8l0.3-0.4c0.1,0.1,0.5,0.5,1.2,0.5s1.1-0.4,1.1-0.9c0-0.6-0.6-0.9-1.2-1.2s-1.2-0.7-1.2-1.5
			c0-0.9,0.7-1.4,1.6-1.4c0.8,0,1.2,0.3,1.4,0.4l-0.3,0.5c-0.2-0.1-0.5-0.4-1.1-0.4c-0.5,0-0.9,0.3-0.9,0.8s0.4,0.8,1,1
			c0.7,0.3,1.5,0.7,1.5,1.7c0,0.8-0.7,1.4-1.7,1.4C78.2,238.3,77.7,238,77.5,237.8z"/>
		<path class="st0" d="M81.3,235.6c0-1.4,1-2.7,2.6-2.7c0.7,0,1.1,0.2,1.5,0.4l-0.3,0.5c-0.3-0.2-0.7-0.4-1.2-0.4
			c-1.3,0-1.9,1.1-1.9,2.2c0,1.2,0.6,2.3,2,2.3c0.6,0,1-0.2,1.3-0.5l0.3,0.4c-0.3,0.3-0.9,0.5-1.6,0.5
			C82.2,238.3,81.3,237,81.3,235.6z"/>
		<path class="st0" d="M86.3,232.9H87v5.3h-0.6L86.3,232.9L86.3,232.9z"/>
		<path class="st0" d="M91.2,232.9h0.6l2,5.3h-0.7l-0.5-1.3h-2.4l-0.5,1.3h-0.6L91.2,232.9z M92.5,236.4l-0.7-1.8
			c-0.2-0.4-0.2-0.7-0.3-0.9l0,0c-0.1,0.3-0.2,0.5-0.3,0.9l-0.7,1.8H92.5z"/>
		<path class="st0" d="M94.1,238l0.3-0.4c0.1,0.1,0.5,0.3,1,0.3s0.8-0.2,0.8-0.6s-0.3-0.5-0.8-0.7c-0.6-0.3-1.1-0.5-1.1-1.2
			c0-0.6,0.4-1.1,1.2-1.1c0.6,0,1,0.3,1.1,0.4l-0.3,0.4c-0.1-0.1-0.4-0.3-0.9-0.3c-0.4,0-0.6,0.2-0.6,0.5c0,0.4,0.3,0.5,0.7,0.7
			c0.6,0.3,1.2,0.5,1.2,1.2s-0.5,1.1-1.4,1.1C94.8,238.4,94.3,238.2,94.1,238z"/>
		<path class="st0" d="M97.3,233.3c0-0.2,0.2-0.4,0.4-0.4s0.4,0.2,0.4,0.4s-0.2,0.4-0.4,0.4S97.3,233.5,97.3,233.3z M97.5,234.4h0.6
			v3.8h-0.6V234.4z"/>
		<path class="st0" d="M98.8,237.3c0-1,1.1-1.3,2-1.3h0.2v-0.4c0-0.6-0.2-0.8-0.8-0.8c-0.4,0-0.7,0.1-1,0.4l-0.3-0.4
			c0.4-0.4,0.8-0.5,1.4-0.5c0.8,0,1.3,0.4,1.3,1.3v1.8c0,0.4,0,0.7,0.1,0.9h-0.6c0-0.1,0-0.3-0.1-0.5c-0.3,0.3-0.7,0.6-1.2,0.6
			C99.3,238.3,98.8,237.9,98.8,237.3z M101,237.3v-0.9h-0.2c-0.8,0-1.4,0.2-1.4,0.9c0,0.4,0.3,0.5,0.6,0.5
			C100.5,237.8,100.8,237.6,101,237.3z"/>
		<path class="st0" d="M103.8,236.3c0-1.1,0.7-2,1.7-2s1.5,0.7,1.5,1.7c0,0.1,0,0.2,0,0.3h-2.6c0,0.8,0.3,1.5,1.2,1.5
			c0.5,0,0.9-0.2,1.1-0.3l0.2,0.5c-0.2,0.1-0.6,0.4-1.3,0.4C104.4,238.3,103.8,237.4,103.8,236.3z M106.5,235.9c0-0.5-0.3-1-0.9-1
			s-1,0.4-1.1,1H106.5z"/>
		<path class="st0" d="M108.6,236.2l-1.2-1.8h0.7c0,0,0.9,1.3,0.9,1.4l0.9-1.4h0.6l-1.2,1.8l1.4,2H110l-1.1-1.6l-1,1.6h-0.6
			L108.6,236.2z"/>
		<path class="st0" d="M110.7,235.7h1.6v0.5h-1.6V235.7z"/>
		<path class="st0" d="M112.3,239.7l0.1-0.5c0.1,0,0.2,0.1,0.3,0.1c0.4,0,0.6-0.3,0.6-0.9v-5.3h0.6v5.4c0,0.9-0.4,1.4-1.2,1.4
			C112.6,239.8,112.4,239.7,112.3,239.7z"/>
		<path class="st0" d="M114.8,237.3c0-1,1.1-1.3,2-1.3h0.2v-0.4c0-0.6-0.2-0.8-0.8-0.8c-0.4,0-0.7,0.1-1,0.4l-0.3-0.4
			c0.4-0.4,0.8-0.5,1.4-0.5c0.8,0,1.3,0.4,1.3,1.3v1.8c0,0.4,0,0.7,0.1,0.9h-0.6c0-0.1,0-0.3-0.1-0.5c-0.3,0.3-0.7,0.6-1.2,0.6
			C115.3,238.3,114.8,237.9,114.8,237.3z M117.1,237.3v-0.9h-0.2c-0.8,0-1.4,0.2-1.4,0.9c0,0.4,0.3,0.5,0.6,0.5
			C116.5,237.8,116.8,237.6,117.1,237.3z"/>
		<path class="st0" d="M118.7,234.4h0.6v0.4c0.2-0.2,0.6-0.5,1.1-0.5c0.9,0,1.6,0.7,1.6,2c0,1.2-0.7,2-1.7,2c-0.5,0-0.8-0.2-1-0.3v2
			h-0.6V234.4z M121.3,236.3c0-0.9-0.3-1.5-1.1-1.5c-0.5,0-0.9,0.4-1,0.5v2.1c0.2,0.2,0.4,0.4,0.9,0.4
			C120.9,237.8,121.3,237.2,121.3,236.3z"/>
		<path class="st0" d="M122.3,237.3c0-1,1.1-1.3,2-1.3h0.2v-0.4c0-0.6-0.2-0.8-0.8-0.8c-0.4,0-0.7,0.1-1,0.4l-0.3-0.4
			c0.4-0.4,0.8-0.5,1.4-0.5c0.8,0,1.3,0.4,1.3,1.3v1.8c0,0.4,0,0.7,0.1,0.9h-0.6c0-0.1,0-0.3-0.1-0.5c-0.3,0.3-0.7,0.6-1.2,0.6
			C122.8,238.3,122.3,237.9,122.3,237.3z M124.5,237.3v-0.9h-0.2c-0.8,0-1.4,0.2-1.4,0.9c0,0.4,0.3,0.5,0.6,0.5
			C123.9,237.8,124.3,237.6,124.5,237.3z"/>
		<path class="st0" d="M126.1,234.4h0.6v0.6c0.3-0.4,0.8-0.6,1.2-0.6c0.8,0,1.1,0.5,1.1,1.2v2.7h-0.6v-2.6c0-0.5-0.2-0.8-0.7-0.8
			c-0.4,0-0.8,0.3-1.1,0.7v2.7H126L126.1,234.4L126.1,234.4z"/>
		<path class="st0" d="M130.2,238.5c0-0.3-0.4-0.3-0.4-0.7c0-0.2,0.2-0.4,0.4-0.4c0.3,0,0.5,0.2,0.5,0.6c0,0.4-0.2,0.9-0.5,1.4h-0.4
			C130.1,239,130.2,238.7,130.2,238.5z"/>
		<path class="st0" d="M133.2,232.9h1.4c1.1,0,1.8,0.5,1.8,1.4s-0.6,1.3-1.5,1.4l0,0c0.1,0.1,0.2,0.2,0.6,0.7l1.3,1.8h-0.7l-1.1-1.5
			c-0.6-0.9-0.7-0.9-1.1-0.9h-0.1v2.5h-0.6L133.2,232.9L133.2,232.9z M134.6,235.3c0.8,0,1.2-0.3,1.2-0.9s-0.4-0.9-1.2-0.9h-0.8v1.8
			L134.6,235.3L134.6,235.3z"/>
		<path class="st0" d="M137.1,237.8c0-0.3,0.2-0.5,0.5-0.5s0.5,0.2,0.5,0.5s-0.2,0.5-0.5,0.5S137.1,238.1,137.1,237.8z"/>
		<path class="st0" d="M139,232.9h0.6v2.3h3v-2.3h0.6v5.3h-0.6v-2.5h-3v2.5H139V232.9z"/>
		<path class="st0" d="M144.1,237.8c0-0.3,0.2-0.5,0.5-0.5s0.5,0.2,0.5,0.5s-0.2,0.5-0.5,0.5C144.4,238.3,144.1,238.1,144.1,237.8z"
			/>
		<path class="st0" d="M145.6,237.8l0.3-0.4c0.1,0.1,0.5,0.5,1.2,0.5s1.1-0.4,1.1-0.9c0-0.6-0.6-0.9-1.2-1.2
			c-0.6-0.3-1.2-0.7-1.2-1.5c0-0.9,0.7-1.4,1.6-1.4c0.8,0,1.2,0.3,1.4,0.4l-0.3,0.5c-0.2-0.1-0.5-0.4-1.1-0.4
			c-0.5,0-0.9,0.3-0.9,0.8s0.4,0.8,1,1c0.7,0.3,1.5,0.7,1.5,1.7c0,0.8-0.7,1.4-1.7,1.4C146.3,238.3,145.8,238,145.6,237.8z"/>
		<path class="st0" d="M149.3,237.8c0-0.3,0.2-0.5,0.5-0.5s0.5,0.2,0.5,0.5s-0.2,0.5-0.5,0.5C149.6,238.3,149.3,238.1,149.3,237.8z"
			/>
	</g>
	<line class="st2" x1="0" y1="235.5" x2="6" y2="235.5"/>
</g>
<path class="st0" d="M8.8,16.9c0.9-0.9,2.5-2.4,2.5-3.6c0-0.7-0.4-1-0.9-1c-0.6,0-0.9,0.3-1.2,0.5l-0.3-0.4c0.3-0.4,0.8-0.7,1.5-0.7
	c0.9,0,1.6,0.5,1.6,1.4c0,1.2-1.3,2.5-2.3,3.5c0,0,0.3,0,0.6,0h1.8v0.5H8.8V16.9z M13,16.8c0-0.3,0.2-0.5,0.5-0.5s0.5,0.2,0.5,0.5
	s-0.2,0.5-0.5,0.5S13,17.1,13,16.8z M14.7,17.3l0.1-0.5c0.1,0,0.2,0,0.5,0c0.9,0,1.7-0.4,1.7-1.3c0-0.9-0.7-1.2-1.6-1.2
	c-0.2,0-0.4,0-0.4,0l0.2-2.5h2.4v0.5h-1.8l-0.1,1.4c1.3,0,2,0.6,2,1.6c0,1.2-1,1.8-2.4,1.8C15,17.3,14.8,17.3,14.7,17.3z"/>
<path class="st0" d="M232.7,12.4l-1,0.3l-0.1-0.5l1.3-0.4h0.5v5.3h-0.6V12.4z M234.6,16.8c0-0.3,0.2-0.5,0.5-0.5s0.5,0.2,0.5,0.5
	s-0.2,0.5-0.5,0.5S234.6,17.1,234.6,16.8z M236.7,17.2l1.9-4.8h-2.4v-0.5h3v0.4l-2,5.1L236.7,17.2z"/>
<path class="st0" d="M7.6,74.4C8.5,73.5,10,72,10,70.8c0-0.7-0.4-1-0.9-1c-0.6,0-0.9,0.3-1.2,0.5L7.6,70c0.3-0.4,0.8-0.7,1.5-0.7
	c0.9,0,1.6,0.5,1.6,1.4c0,1.2-1.3,2.5-2.3,3.5c0,0,0.3,0,0.6,0h1.8v0.5H7.6V74.4z M11.7,74.3c0-0.3,0.2-0.5,0.5-0.5s0.5,0.2,0.5,0.5
	s-0.2,0.5-0.5,0.5S11.7,74.6,11.7,74.3z M13.6,72.1c0-1.3,0.5-2.8,2-2.8c1.4,0,2,1.4,2,2.8c0,1.3-0.6,2.8-2,2.8
	C14.1,74.9,13.6,73.4,13.6,72.1z M16.9,72.1c0-1.3-0.4-2.3-1.4-2.3c-1,0-1.4,1-1.4,2.3c0,1.3,0.4,2.3,1.4,2.3
	C16.5,74.4,16.9,73.4,16.9,72.1z"/>
<path class="st0" d="M232.7,70l-1,0.3l-0.1-0.5l1.3-0.4h0.5v5.3h-0.6V70z M234.6,74.3c0-0.3,0.2-0.5,0.5-0.5s0.5,0.2,0.5,0.5
	s-0.2,0.5-0.5,0.5S234.6,74.6,234.6,74.3z M238.7,73.6h-2.5v-0.5l2.4-3.6h0.6V73h0.8v0.5h-0.8v1.2h-0.6V73.6z M237.5,73h1.2v-2.7h0
	l-1.8,2.8C237,73,237.3,73,237.5,73z"/>
<path class="st0" d="M11.1,126.1l-1,0.3L9.9,126l1.3-0.4h0.5v5.3h-0.6V126.1z M13,130.5c0-0.3,0.2-0.5,0.5-0.5s0.5,0.2,0.5,0.5
	s-0.2,0.5-0.5,0.5S13,130.7,13,130.5z M14.7,130.9l0.1-0.5c0.1,0,0.2,0,0.5,0c0.9,0,1.7-0.4,1.7-1.3c0-0.9-0.7-1.2-1.6-1.2
	c-0.2,0-0.4,0-0.4,0l0.2-2.5h2.4v0.5h-1.8l-0.1,1.4c1.3,0,2,0.6,2,1.6c0,1.2-1,1.8-2.4,1.8C15,131,14.8,131,14.7,130.9z"/>
<path class="st0" d="M232.7,126.1l-1,0.3l-0.1-0.5l1.3-0.4h0.5v5.3h-0.6V126.1z M234.6,130.5c0-0.3,0.2-0.5,0.5-0.5s0.5,0.2,0.5,0.5
	s-0.2,0.5-0.5,0.5S234.6,130.7,234.6,130.5z M237.4,126.1l-1,0.3l-0.1-0.5l1.3-0.4h0.5v5.3h-0.6V126.1z"/>
<path class="st0" d="M9.9,182.8l-1,0.3l-0.1-0.5l1.3-0.4h0.5v5.3H9.9V182.8z M11.7,187.2c0-0.3,0.2-0.5,0.5-0.5s0.5,0.2,0.5,0.5
	s-0.2,0.5-0.5,0.5S11.7,187.4,11.7,187.2z M13.6,184.9c0-1.3,0.5-2.8,2-2.8c1.4,0,2,1.4,2,2.8s-0.6,2.8-2,2.8
	C14.1,187.7,13.6,186.2,13.6,184.9z M16.9,184.9c0-1.3-0.4-2.3-1.4-2.3c-1,0-1.4,1-1.4,2.3s0.4,2.3,1.4,2.3
	C16.5,187.2,16.9,186.2,16.9,184.9z"/>
<path class="st0" d="M231.8,184.9c0-1.3,0.5-2.8,2-2.8c1.4,0,2,1.4,2,2.8s-0.6,2.8-2,2.8C232.3,187.7,231.8,186.2,231.8,184.9z
	 M235.2,184.9c0-1.3-0.4-2.3-1.4-2.3c-1,0-1.4,1-1.4,2.3s0.4,2.3,1.4,2.3C234.7,187.2,235.2,186.2,235.2,184.9z M236.7,187.2
	c0-0.3,0.2-0.5,0.5-0.5s0.5,0.2,0.5,0.5s-0.2,0.5-0.5,0.5S236.7,187.4,236.7,187.2z M238.4,186.3c0-0.7,0.7-1.2,1.1-1.5
	c-0.5-0.3-1-0.7-1-1.3c0-0.8,0.7-1.3,1.5-1.3c0.9,0,1.5,0.5,1.5,1.3c0,0.7-0.6,1-1.1,1.3c0.5,0.3,1.2,0.7,1.2,1.5
	c0,0.8-0.6,1.4-1.6,1.4C238.9,187.7,238.4,187,238.4,186.3z M241,186.2c0-0.6-0.6-1-1.1-1.2c-0.4,0.2-0.9,0.6-0.9,1.2
	c0,0.5,0.3,0.9,1,0.9C240.7,187.2,241,186.8,241,186.2z M240.9,183.5c0-0.4-0.3-0.8-0.8-0.8s-0.9,0.3-0.9,0.8c0,0.5,0.5,0.8,0.9,1
	C240.5,184.3,240.9,184,240.9,183.5z"/>
<path class="st0" d="M13.1,191h0.6l2.5,3.6c0.2,0.4,0.4,0.6,0.5,0.8h0c0-0.1,0-0.3,0-0.7V191h0.6v5.3h-0.6l-2.6-3.8
	c-0.2-0.2-0.3-0.5-0.4-0.7h0c0,0.1,0,0.3,0,0.6v3.9h-0.6V191z"/>
<path class="st0" d="M18.5,194.5c0-0.9,0.5-2,1.8-2c1.3,0,1.8,1.1,1.8,2s-0.5,2-1.8,2C18.9,196.5,18.5,195.4,18.5,194.5z
	 M21.4,194.5c0-0.8-0.4-1.5-1.2-1.5c-0.8,0-1.1,0.7-1.1,1.5s0.4,1.5,1.2,1.5C21,196,21.4,195.3,21.4,194.5z"/>
<path class="st0" d="M22.5,192.5h0.6l1.1,3.1h0l1.1-3.1h0.6l-1.4,3.8H24L22.5,192.5z"/>
<path class="st0" d="M26.6,193.8h1.6v0.5h-1.6V193.8z"/>
<path class="st0" d="M30,191.6l-1,0.3l-0.1-0.5l1.3-0.4h0.5v5.3H30V191.6z M32.8,191.6l-1,0.3l-0.1-0.5l1.3-0.4h0.5v5.3h-0.6V191.6z
	"/>
<path class="st0" d="M53.8,191h0.6l2.5,3.6c0.2,0.4,0.4,0.6,0.5,0.8h0c0-0.1,0-0.3,0-0.7V191h0.6v5.3h-0.6l-2.6-3.8
	c-0.2-0.2-0.3-0.5-0.4-0.7h0c0,0.1,0,0.3,0,0.6v3.9h-0.6V191z"/>
<path class="st0" d="M59.1,194.5c0-0.9,0.5-2,1.8-2c1.3,0,1.8,1.1,1.8,2s-0.5,2-1.8,2C59.6,196.5,59.1,195.4,59.1,194.5z M62,194.5
	c0-0.8-0.4-1.5-1.2-1.5c-0.8,0-1.1,0.7-1.1,1.5s0.4,1.5,1.2,1.5C61.7,196,62,195.3,62,194.5z"/>
<path class="st0" d="M63.1,192.5h0.6l1.1,3.1h0l1.1-3.1h0.6l-1.4,3.8h-0.5L63.1,192.5z"/>
<path class="st0" d="M67.2,193.8h1.6v0.5h-1.6V193.8z"/>
<path class="st0" d="M70.7,191.6l-1,0.3l-0.1-0.5l1.3-0.4h0.5v5.3h-0.6V191.6z M72.5,196.4l0.1-0.5c0.1,0,0.3,0.1,0.7,0.1
	c1,0,1.5-0.4,1.5-1.1c0-0.8-0.7-1.1-1.7-1.1v-0.4c0.8,0,1.6-0.4,1.6-1.1c0-0.4-0.3-0.7-0.9-0.7c-0.5,0-0.8,0.2-1.1,0.4l-0.3-0.4
	c0.3-0.2,0.8-0.5,1.4-0.5c1,0,1.5,0.5,1.5,1.2c0,0.7-0.6,1.1-1.2,1.3v0c0.7,0.1,1.3,0.6,1.3,1.4c0,1.1-0.9,1.7-2.1,1.7
	C72.8,196.5,72.5,196.4,72.5,196.4z"/>
<path class="st0" d="M94.9,191h0.6l2.5,3.6c0.2,0.4,0.4,0.6,0.5,0.8h0c0-0.1,0-0.3,0-0.7V191h0.6v5.3h-0.6l-2.6-3.8
	c-0.2-0.2-0.3-0.5-0.4-0.7h0c0,0.1,0,0.3,0,0.6v3.9h-0.6V191z"/>
<path class="st0" d="M100.3,194.5c0-0.9,0.5-2,1.8-2c1.3,0,1.8,1.1,1.8,2s-0.5,2-1.8,2C100.8,196.5,100.3,195.4,100.3,194.5z
	 M103.2,194.5c0-0.8-0.4-1.5-1.2-1.5c-0.8,0-1.1,0.7-1.1,1.5s0.4,1.5,1.2,1.5C102.9,196,103.2,195.3,103.2,194.5z"/>
<path class="st0" d="M104.3,192.5h0.6l1.1,3.1h0l1.1-3.1h0.6l-1.4,3.8h-0.5L104.3,192.5z"/>
<path class="st0" d="M108.4,193.8h1.6v0.5h-1.6V193.8z"/>
<path class="st0" d="M111.9,191.6l-1,0.3l-0.1-0.5l1.3-0.4h0.5v5.3h-0.6V191.6z M113.6,196.4l0.1-0.5c0.1,0,0.2,0,0.5,0
	c0.9,0,1.7-0.4,1.7-1.3c0-0.9-0.7-1.2-1.6-1.2c-0.2,0-0.4,0-0.4,0l0.2-2.5h2.4v0.5h-1.8l-0.1,1.4c1.3,0,2,0.6,2,1.6
	c0,1.2-1,1.8-2.4,1.8C113.9,196.5,113.7,196.4,113.6,196.4z"/>
<path class="st0" d="M176.9,191h0.6l2.5,3.6c0.2,0.4,0.4,0.6,0.5,0.8h0c0-0.1,0-0.3,0-0.7V191h0.6v5.3h-0.6l-2.6-3.8
	c-0.2-0.2-0.3-0.5-0.4-0.7h0c0,0.1,0,0.3,0,0.6v3.9h-0.6V191z"/>
<path class="st0" d="M182.2,194.5c0-0.9,0.5-2,1.8-2c1.3,0,1.8,1.1,1.8,2s-0.5,2-1.8,2S182.2,195.4,182.2,194.5z M185.2,194.5
	c0-0.8-0.4-1.5-1.2-1.5s-1.1,0.7-1.1,1.5s0.4,1.5,1.2,1.5S185.2,195.3,185.2,194.5z"/>
<path class="st0" d="M186.3,192.5h0.6l1.1,3.1h0l1.1-3.1h0.6l-1.4,3.8h-0.5L186.3,192.5z"/>
<path class="st0" d="M190.3,193.8h1.6v0.5h-1.6V193.8z"/>
<path class="st0" d="M193.8,191.6l-1,0.3l-0.1-0.5l1.3-0.4h0.5v5.3h-0.6V191.6z M195.8,196c0.8,0,1.5-0.2,1.9-0.8
	c0.3-0.4,0.5-0.8,0.6-1.5c-0.3,0.3-0.7,0.5-1.2,0.5c-1,0-1.6-0.7-1.6-1.6s0.6-1.7,1.7-1.7c1.3,0,1.8,1.2,1.8,2.3c0,2-1,3.3-3,3.3
	L195.8,196z M198.4,193.3v-0.1c0-1.1-0.4-1.8-1.2-1.8c-0.7,0-1,0.6-1,1.2c0,0.8,0.4,1.2,1.1,1.2
	C197.7,193.8,198.1,193.6,198.4,193.3z"/>
<path class="st0" d="M136.1,191h0.6l2.5,3.6c0.2,0.4,0.4,0.6,0.5,0.8h0c0-0.1,0-0.3,0-0.7V191h0.6v5.3h-0.6l-2.6-3.8
	c-0.2-0.2-0.3-0.5-0.4-0.7h0c0,0.1,0,0.3,0,0.6v3.9h-0.6V191z"/>
<path class="st0" d="M141.4,194.5c0-0.9,0.5-2,1.8-2c1.3,0,1.8,1.1,1.8,2s-0.5,2-1.8,2S141.4,195.4,141.4,194.5z M144.3,194.5
	c0-0.8-0.4-1.5-1.2-1.5s-1.1,0.7-1.1,1.5s0.4,1.5,1.2,1.5S144.3,195.3,144.3,194.5z"/>
<path class="st0" d="M145.4,192.5h0.6l1.1,3.1h0l1.1-3.1h0.6l-1.4,3.8h-0.5L145.4,192.5z"/>
<path class="st0" d="M149.5,193.8h1.6v0.5h-1.6V193.8z"/>
<path class="st0" d="M153,191.6l-1,0.3l-0.1-0.5l1.3-0.4h0.5v5.3H153V191.6z M155.1,196.4l1.9-4.8h-2.4V191h3v0.4l-2,5.1
	L155.1,196.4z"/>
<path class="st0" d="M218.1,191h0.6l2.5,3.6c0.2,0.4,0.4,0.6,0.5,0.8h0c0-0.1,0-0.3,0-0.7V191h0.6v5.3h-0.6l-2.6-3.8
	c-0.2-0.2-0.3-0.5-0.4-0.7h0c0,0.1,0,0.3,0,0.6v3.9h-0.6V191z"/>
<path class="st0" d="M223.4,194.5c0-0.9,0.5-2,1.8-2c1.3,0,1.8,1.1,1.8,2s-0.5,2-1.8,2S223.4,195.4,223.4,194.5z M226.4,194.5
	c0-0.8-0.4-1.5-1.2-1.5s-1.1,0.7-1.1,1.5s0.4,1.5,1.2,1.5S226.4,195.3,226.4,194.5z"/>
<path class="st0" d="M227.5,192.5h0.6l1.1,3.1h0l1.1-3.1h0.6l-1.4,3.8h-0.5L227.5,192.5z"/>
<path class="st0" d="M231.5,193.8h1.6v0.5h-1.6V193.8z"/>
<path class="st0" d="M233.9,196c0.9-0.9,2.5-2.4,2.5-3.6c0-0.7-0.4-1-0.9-1c-0.6,0-0.9,0.3-1.2,0.5l-0.3-0.4
	c0.3-0.4,0.8-0.7,1.5-0.7c0.9,0,1.6,0.5,1.6,1.4c0,1.2-1.3,2.5-2.3,3.5c0,0,0.3,0,0.6,0h1.8v0.5h-3.3V196z M239,191.6l-1,0.3
	l-0.1-0.5l1.3-0.4h0.5v5.3H239V191.6z"/>
<line class="st3" x1="23.3" y1="185.2" x2="23.3" y2="187.3"/>
<line class="st3" x1="105.5" y1="185.1" x2="105.5" y2="187.2"/>
<line class="st3" x1="146.6" y1="185.1" x2="146.6" y2="187.2"/>
<line class="st3" x1="187.8" y1="185.1" x2="187.8" y2="187.2"/>
<line class="st3" x1="228.9" y1="185.1" x2="228.9" y2="187.2"/>
<line class="st3" x1="21.1" y1="15.3" x2="230.5" y2="15.3"/>
<line class="st3" x1="21.1" y1="72" x2="230.5" y2="72"/>
<line class="st3" x1="21.1" y1="128.7" x2="230.5" y2="128.7"/>
<line class="st3" x1="23.3" y1="15" x2="23.3" y2="185.3"/>
<line class="st3" x1="228.9" y1="15" x2="228.9" y2="185.3"/>
<line class="st3" x1="21.1" y1="185.1" x2="230.5" y2="185.1"/>
<line class="st3" x1="64.4" y1="185.1" x2="64.4" y2="187.2"/>
<path class="st4" d="M23.6,132.3l0,1.8l0-3.1l0.1,3.9l0.2-2.4l0,2.7l0.1-2.8l0.1,3.9l0.1,2l0-1.1l0,3.4l0-2.8l0.2,1.9l0.1-0.8l0,0.2
	l0-0.8l0-0.2l0.2-1.3l0,3.4l0.1-1.3l0,1.4l0-4.2l0.2,0.6l0.1-0.9l0,1.8l0-1.5l0.2,3.9l0-2.3l0,0.7l0.1-2.8l0,4.9l0.2-1.1l0,2.7
	l0-0.2l0.1-1.4l0,2.4l0.2-2.3l0.1,0.6l0,1.9l0.1,0.9l0.2-15.4l0-1.3l0,0.4l0,0.2l0.1-1.6l0.1,0.9l0.1-1.1l0,0.1l0,1.1h0l0.2-2.4
	l0.1,1.4l0,0.5l0.7-0.8l0-1.9l0.1-1.7l0,1.6l0-1.6l0.2-1.7l0,1.3l0,1.2l0.1-1.1l0-1.3l0.2,0.8l0-0.9l0-0.8l0.1-1.7l0,0.9l0.2-1
	l0,4.1l0-0.9l0.1,2.2l0.3,3.3l0-0.2l0.1,0.3l0.1,0.2l0.1-0.9l0-1.1l0.1,0.2l0.2-1.5l0.1-0.4l0,0.2l0,2l0,1.4l0.2,1.5l0-1.7l0.1-3.5
	l0,4.2l0-2.2l0.2,2l0,1.1l0.1,0.9l0-1.4l0-3.1l0.2,18.7l0,0.3l0.4,0.5l0-0.9l0-0.3l0.1-0.6l0,4.4l0.2-1.3l0-2.6l0,1l0-0.3l0.1,0.1
	l0.1,0.9l0.1-0.7l0,0.9l0,0.9l0.1-0.2l0.1-0.4l0.1,1.6l0,0.3l0,1.7l0.2-3.5l0,3.4l0.1-0.9h0l0-0.8l0.2-1.3l0-0.4l0.1-2l0,0.6l0-3.5
	l0.2,0.4l0,3.3l0.1-1.7l0-2.5l0-0.1l0.2-0.9l0,2.7l0-0.2l0.1,0.2l0,0.8l0.2-3.7l0,0.9l0-2l0.1,0.2l0-1.8l0.2,3.3l0-2.7l0,0.9l0,0.6
	l0.1-0.6l0.1,3.9l0.1-0.8l0,0.5l0-3.3l0.1-1.7l0.2-0.8l0,0.6l0-0.2l0-0.5l0.2-8.4l0,1.1l0.1-0.2l0-0.9l0,0.2l0.2-1.6l0-1.3l0.1,1.5
	l0-0.9l0,1.8l0.2,1.5l0,1.3l0-2.2l0.1,1l0,1.1l0.2-0.9l0-0.6l0-0.2l0.1,2.8l0,1.6l0.2-1.2l0,1.3l0-0.3l0.1-1.7l0.2,0.9l0-1.6l0,0.2
	l0,2.2l0.1-0.5l0.1-2l0.1,1l0.1-0.5l0.1-0.3l0.2-1.4l0-0.7l0,1.3l0-0.9l0.2,0.3l0-0.1l0.1,1.5l0-2.5l0,7.6l0.2,0.2l0-1.4l0.1-0.9
	l0,0.1l0,0.9l0.2-0.7l0-0.7l0,0.6l0.1-0.2l0,0.4l0.2-0.9l0-0.9l0,1.6l0.1-1.5l0-2h0.2l0-0.6l0-0.8l0,1.7l0.1-0.2l0.2-1.4l0.1,0.9
	l0-2l0.1,0.9l0.1,1.2l0.1-0.8l0.1-1.2l0-3.9l0.2-0.5l0.1,2.2l0,0.9l0-0.7l0,0.3l0.2-0.8l0,0.2l0.1-0.2l0-0.6l0.2,0.1l0,1.7L44,126
	l0-0.6l0,0.3l0.2-1h0l0,0.1l0.1-2.3l0,12.5l0.2-0.9l0-1l0.1-0.1l0,1.2l0.2,1l0,0.3l0-0.7l0,0.8l0.1,1.3l0.2-0.6l0-1.9l0.1-1.3
	l0.1-0.2l0.1-0.9l0.1-0.9l0,1.8l0-0.6l0,1.3l0.2,0.6l0.1,0.9l0,1.3l0,1.7l0-1.1l0.2-0.7l0-1.1l0.1-0.6h0l0,0.6l0.2-0.2l0.1-0.8
	l0,1.7l0-0.5l0.3-12.5l0.1-0.2l0-1l0.2-0.1l0-0.6l0,1.3l0.1,1.2l0-1.4l0.2-1.3l0-1.3l0,0.5l0-1.7l0.1,1.8l0.1-1.7l0.1,1.7l0-0.2
	l0,0.8l0.1-2.5l0.1-0.1l0.1,1.6l0,0.9l0-0.3l0,0.9l0.2,1.6l0-1.1l0.1-0.2l0.7,5.5l0-2.1l0.1,2l0,0.6l0-0.6l0.2-0.6l0,0.1l0-0.5
	l0.1,4l0.2-1.4l0-1.5l0,0.1l0.1-2.4l0.2-0.4l0,0.1l0,0.6l0-2l0.1,0.1l0.1-1.3l0.1,3.1l0,1.3l0,0.6l0.1-0.6l0.1,2.9l0.1,0.3l0.1-1.3
	l0.2,17.3l0-1.3l0.1,0.9l0.3-1.2l0,2.1l0.1,0.1l0-0.2l0,2.2l0.2-2l0-1.8h0l0.1-2.9l0.2,2.1l0-1.8l0.1,1.5l0,1.7l0.2-1.3l0,0.2
	l0.1-2.4l0.1,0.6l0.2-0.2l0-0.9l0,1.3l0,0.8l0.1-1.5l0.1,1l0.1,0.3l0-2.5l0-0.4l0.1-0.7l0.1,1.8l0.1,0.8l0,0.2l0-0.5l0-0.1l0.2-2.2
	l0,0.2l0.1-0.9l0-0.6l0,1.7l0.2,0.2l0,1.4l0.1-2.3l0-1.2l0-0.2l0.2,0.1l0-0.3l0.1,0.4l0-0.7l0.2-0.7l0,0.2l0-1.1l0.1-0.3l0-1.8
	l0.2-0.3l0-0.4l0,3.5l0-0.6l0.1-0.2l0.2-3.1l0,0.6l0-1.7l0-0.6l0.1,0.6l0.1-2.4l0.1,0.6l0,1.9l0,2l0-3.9l0.2-0.1l0.1,1.2l0-0.9h0
	l0-1.5l0.2,0.8l0,1.7l0.1,1.5l0,0.9l0,1.4l0.2-0.1l0,2.9l0.1-3.7l0,2.3l0,1.2l0.2,0.2l0,1.3l0-2l0.1-0.5l0.2,0.2l0,0.1l0-1.7
	l0.1,5.5l0.2,1.1l0-3l0.1-1.3l0.3-0.5h0l0-2.8l0-0.1l0.1-1l0.1-4.2l0.1,6.5l0-4.5l0,0.9l0-1.4l0.3-0.9l0-0.4l0,1.8l0-0.7l0.2,4
	l0-1.3l0.1-1.7l0.3,0.7l0-0.8l0.1-0.7l0-0.5l0,1.3l0.2-0.4l0,0.4l0.1-0.6l0-0.9l0.2-1.1l0,0.9l0-2.4l0.1,0.3l0.2-1.7l0,1.1l0.1,1.3
	l0.1-1.3l0.1-0.9l0.1-0.8l0.1,0.5l0.1-0.6l0.1,2l0.1-2.1l0,0.9l0-1.8l0-0.4h0.2l0.1,0.3l0,0.2l0-1.7l0.2,1.3l0,1.7l0.1-2l0,0.5
	l0.2,1.7l0,0.4l0.1,0.7l0,1.3l0,0.5l0.2-1.2l0,1.3l0-2l0.1-0.8l0-0.6l0.2-0.5l0-1h0l0.1-0.8l0-0.7l0.2-0.5l0-0.9l0-0.7l0,0.5
	l0.1,0.8l0.1,3.9l0.1,0.3l0-1.7l0-0.6l0.1-4l0.1,1.5l0.1,1l0.1-0.2l0-0.5l0.2,0.9l0,0.5l0.1-13.8l0-3.5l0.2-0.1l0,2l0.1,0.9l0-1.3
	l0-0.8l0.2-1.1l0-0.1l0-1.3l0.1-4l0,2.3l0.2-2.8l0,1.4l0-0.2l0.1-1.5l0,0.7l0.2-0.8l0.5-4.3l0,2.5l0.1,2l0.1,1l0.1,1.7l0,2l0,0.5
	l0.1-0.5l0.1,1.2l0.1-1.7l0-0.8l0-0.2l0-0.2l0.2-1.5l0,0.3l0.1,0.1l0.3,2.4l0-2l0.1,0.3l0-0.6l0-1.7l0.2-3.3l0,1.9l0-2.8l0.1,2.3
	l0-2.1l0.2,1.1l0,0.2l0.1-2.7l0,1l0.2,0.9l0-0.2l0,2l0-1.1l0.1-0.1l0.2-0.2l0,26l0-0.1l0,0.3l0.2,0.6l0.1-0.1l0,0.9l0-1l0.3-1l0,1.6
	l0-2l0.2-0.2l0,0.5l0.1-1.2l0.1-0.3l0.2-0.2l0,1.7l0.1-0.5l0.1,0.9l0.2-1.1l0-0.6l0,0.6l0.1,0.4l0-3.8l0.2-2.5l0-2.1l0,2l0.1,0.7
	l0-1.9l0.2,0.2l0-1.1l0,0.1l0,0.2l0.1-1.6l0.2,0.8l0,0.4l0,2.3l0,2.4l0.1-1.2l0.2-1.2l0,0.1l0-2.7l0-2.3l0.2-0.8l0.1,0.6l0,0.7l0-1
	l0,2.5l0.2-0.9l0-1.8l0.1,1l0,1l0-1.7h0.2l0-0.6l0.1-0.6l0,4l0-1.1l0.2-1.7l0-0.5l0-0.2l0.1,0.3l0-0.6l0.2-1.4l0,7.5h0l0.1,0.6
	l0,0.9l0.2,0.9l0-0.2l0-1.8l0-0.6l0.1-0.4l0.1,0.1l0.1-0.6l0.1-0.2l0.1,1.1l0.1,1.1l0.1,1.2l0-0.2l0,1.1l0.2-0.6l0.1-2.3l0-0.2
	l0,0.2l0,1.7l0.2,1.3l0-1l0.1,0.9l0-1.3l0.2-2l0,0.4l0.1,0.3l0-1.3l0,0.7l0.2-0.2l0-0.2h0l0.1-0.6l0.2-2.4l0-2.7l0.1,1.4l0-1
	l0.2-1.8l0-0.7l0-0.2l0.1-0.1l0.1,0.2l0.1,0.9l0,0.8l0-3.8l0.1,0.5l0.1-1.5l0.1,2l0,0.2l0,0.9l0-2l0.2-3.1l0-0.6l0.1-0.7l0.3,4.2
	l0.1,0.2l0-1l0.2-3l0.2,1.9l0,0.3l0.2,0.5l0-1.1l0,0.1l0.1-1.1l0.2,0.2l0,0.6l0,4.2l0.1-3.5l0.2-0.7l0.1-1.3l0.1-1.3l0.1,2.9
	l0.1-0.9l0-0.2l0,1.2l0.1-0.8l0.1-2.4l0.1-0.9l0,1.7l0-2l0,0.9l0.2,2.6l0,0.4l0.1-4.4l0-0.6l0-1.1l0.2-3.5l0,2.8l0.1-2.2l0,2.5l0,2
	l0.2,1.6l0,0.8l0-0.4l0.1-0.2l0,1.8l0.2-0.2l0,0.6l0,0.3l0.1-1.4l0,0.9l0.2,0.6l0,0.1l0,2.7l0.1-0.2l0.2-0.2l0-1.2l0-0.2L88.3,85
	l0.1,2.8l0-0.2l0-0.4l0-2.1l0.2-1l0.1,0.9l0-0.3l0-2.6l0-2.4l0.2-1.7l0-1l0.1,1.9l0-0.6l0,0.7l0.2,0.9l0.1-0.1l0-3.1l0,0.7l0.2,0.4
	l0,1.1l0,2l0.1-1.2l0,0.9h0.2l0,0.4l0-2.1l0.1-1l0,1.2l0.6,1.3l0,1.6l0,2.2l0.2-5.8l0.1-2l0,0.5l0-1.3l0.2,2.2l0.1-0.5l0-9.4l0-1.5
	l0,3.6l0.2-0.2l0-0.7l0.1,1l0,3.4l0-0.3l0.2,2l0-0.2l0.1-0.4l0,3.5l0,0.6L93,77h0l0,30.3l0.4-0.9l0,0.9l0.1,1.8l0,0.4l0.2,1.4
	l0.1,0.1l0,3.1c0.4,3.4,0.3,6.8,0.5,10.3l0.1,2.8l0.1-1.2l0-0.8l0-1l0.2-4.2l0.1-1.7l0,3.6l0-2.3l0-1.3l0.2-1.6l0,1.9l0.1-1.3l0,0.1
	l0,0.2l0.2-2.8l0,0.3l0.1-2l0-0.7l0,1.4l0.2,1.6l0,0.9l0-1.5l0.1-2l0-2.6l0.2-12.8l0,1.3l0,3.9l0.1-3.4l0-0.7l0.2,0.5l0-0.4l0-3
	l0,4.2l0.1,1.2l0.1-2.8l0.1-2.5l0-0.7l0-2.3l0.2-1.3l0.1,1.3l0,0.8l0-1.3l0-2l0.2-3.1l0,1.9l0.1-1.4l0-1.3l0-0.9l0.2-6.6l0-2.4
	l0.1-5.6l0,6.7l0.2,2.8l0-1.9l0-1.7l0.1-1.3l0,0.9l0.2-1.3l0,1.7l0-2.7l0.1-0.2l0,0.6l0.2-1.7l0,0.8l0,0.5l0.1-1.3l0-2.8l0.2-1.7
	l0,0.3l0.1-4.4l0.1,1.3l0.1,0.9l0.1-0.3l0-4.3l0,3.2l0.1-4.1l0.1-1.2l0.1-2l0-3.1l0,0.1l0-3.2l0.2,3.1l0,2.6l0.1,2l0,2.7l0,0.2
	l0.2-1.1l0-5.7l0.1-0.9l0-1.2l0,3.1l0.2-3.4l0,2.5l0,4.6l0.1-2.2l0-0.5l0.2-2l0-0.4l0,3.5l0.1,0.9l0.2-2.8l0,3.6l0-5.9l0-2l0.4-3.1
	l0-0.2l0.2-2.3l0.1,1.3l0,5.4l0,0.6l0.2,4.1l0.1-2.3l0-0.8l0,3.1l0-0.2l0.2-1.8l0-1.4l0.1,0.7l0.1,2.5l0.2-0.6l0,1.3l0.1-1.3l0-0.7
	l0,0.9l0.2,0.2l0,1.2l0,4.5l0.1,1.2l0-0.9l0.2-2l0,2.2l0-1.7l0.1,1.6l0.2-2.9l0,1.5l0,1.9l0,0.6l0.1,0.6l0.2-0.7l0-0.3l0.1,1.7
	l0.1-4.2l0.1-1.1l0.1,7l0,0.4l0,0.6l0,0.9l0.2-0.2l0.1-1.3l0,2.2l0-2.7l0-0.2l0.2-4.4l0-0.6l0.1,2.8l0-0.9l0-0.6l0.2,0.1l0,2
	l0.1-0.8l0,0.3l0.2-3.1l0-0.7l0,0.2l0.1-1.6l0.2-15.4l0-0.4l0-0.8l0.1-0.6l0,1.6l0.2-9.7l0,1.3l0,1l0-2.6l0.1,0.7l0.1,1.4l0.1,1.3
	l0-3.1l0-2.7l0.1,3.5l0.1,1.3l0.1-2.5l0,1l0,1.4l0.2-1.4l0.1,1.2l0-2.2l0.7,9l0,5.6l0.1-3.8l0,3.1l0-1.8l0.2,0.7l0,3.2l0,0.6
	l0.1-1.3l0,2.4l0.2-2.4l0,2.4l0.1-2.7l0,1.2l0.2-3l0-1.9l0,3l0.1,0.2l0.1,2.2l0.1,0.7l0-0.9l0,3l0.1,1.2l0.1-4.3l0.1-0.2l0-0.9h0.3
	l0,1.2l0.1,1.3l0-0.5l0,19.4l0.3-1.1l0,2.7l0-0.4l0.2-3.7l0-0.3l0,0.5l0.3-1.7l0.1,1l0.1,3l0-1.7l0.2-0.8l0-0.3l0-0.9l0.1,0.8l0-1.7
	c0.5-2.1,0.4-4.4,0.5-6.6l0.1-0.4l0,1.1l0-1.7l0.1-0.9l0.1-0.1l0.1,2.2l0-2l0-0.1l0,2.6l0.2,2.6l0-1.7h0.1l0-2.4l0-0.6l0.2-1.5
	l0,3.2l0.1,7.5l0-0.5l0,0.3l0.2,3.5l0,1.3l0-0.3l0.3-4.3l0,0.2l0-1.5l0.1-1.1l0,0.4l0.2,0.4l0,1.6l0,1.1l0-0.5l0.1-1.2l0.2-0.2
	l0,0.2l0,0.9l0,1.2l0.1-0.9l0.1-0.2l0.1-1.3l0.3,0.6l0.1,1.3l0,1.2l0,0.5l0,3.1l0.2,1.2l0-0.7l0.1-0.8l0,1.8l0-1.3l0.2-2.1l0,1.8
	l0.1-0.3l0-1.2l0-2.6l0.2,1.7l0-0.9l0-1.1l0.1,0.6l0-0.1l0.2,1.2l0,1l0,3.5l0.1-0.5l0-0.5l0.2,2.1l0-0.9l0,0.6l0.1-0.5l0.2,0.6
	l0,0.7l0-2.2l0,2.6l0.1,1.2l0.1-2.4l0.1-0.8l0-0.5l0,2.6l0,0.4l0.3,1.6l0,1.3l0-1.2l0-0.1l0.2-2l0.1-1.1l0.3,1.6l0,1.3l0.1,1.2
	l0,0.8l0,0.4l0.2-0.9l0.2,5.2l0-4.4l0.2-0.9l0-0.2l0-0.2l0.1,2.4l0-0.7l0.3-2.4l0.1,1.6l0.2,1.3l0-0.9l0,0.8l0-0.1l0.1-0.5l0.1,1.7
	l0.1-0.8l0-3.1l0.1-2l0.3,0.2l0-0.6l0,1.1l0,0.6l0.2,2l0,0.3l0.1-0.5l0.1,1.9l0.2,4l0.1,0.3l0,0.9l0-0.3l0.2,3.9l0-0.2l0-1.7
	l0.1-0.2l0-2.6l0.2,0.9l0-0.9l0-0.4l0.1,1.1l0,1.1l0.2-0.9l0,0.9l0,1l0-0.9l0.1-1.3l0.1-0.1l0.1,0.3l0-0.2l0-1.5l0.1-0.7l0.1,0.2
	l0.1,0.2l0,0.6l0,1.6l0-0.9l0.2,2.6l0-2.7l0.1,0.6l0-1.3l0-0.4l0.2-12.9l0.1-0.2l0.1,2.8l0.2-0.6l0,0.4l0-2l0.1-0.2l0,0.6l0.2-2.4
	l0,0.5l0,3.6l0.1-1.7l0,2.3l0.2-0.2l0-0.9l0.5-4.6l0.1-0.4l0.1,0.6l0.1,0.2l0,0.3l0,0.6l0.1-0.2l0.1,0.8l0.1,0.2l0,2.4l0-1.4l0-0.5
	l0.2-0.9l0-0.1l0.1,1.2l0-1l0.4-1.1l0,1.3l0-2.4h0.2l0,1.9l0,1.3l0.1-2.5l0,0.9l0.2-0.4l0,0.1l0.1,1.7l0,0.9l0.2,1.2l0,1.6l0-0.6
	l0-0.6l0.1-0.6l0.2,1.3l0-1l0-0.7l0-0.9l0.1-1.4l0.3,27l0-1l0,1.4l0.2,0.4l0.1-1.6l0,1.4l0,2.5l0.2-0.9l0,0.5l0.1-1.5l0,0.2l0,1.7
	l0.2-0.9h0l0.1-0.2l0-0.6l0-0.1l0.2,1.3l0,0.2l0.1-0.9l0,0.9l0.2,1.2l0,0.5l0-2.3l0.1,0.9l0,0.2l0.2,0.4l0-0.6l0-1.3l0,1.7l0.1,0.2
	l0.2,2.8l0,0.3l0,0.1l0-0.1l0.1-2.1l0.3-1.6l0,4.1l0,0.9l0.2-0.3l0.1,0.5l0-0.6l0,1.5l0-0.4l0.2-1.3l0,1.6l0.1-0.2l0,0.2l0-0.9
	l0.2,2l0,0.1l0.1-0.2l0,1.3l0,1.7l0.2,2.1l0-1l0.1,0.6l0-2.4l0.2-1.3l0-2.1l0,1l0.1-1.1l0-0.6l0.2-1.3l0,1.9h0l0,0.9l0.1-0.5
	l0.2,0.1l0,1.6l0-0.9l0,1.2l0.1-1.3l0.1-0.2l0.1-0.9l0-0.6l0,3.1l0-1.4l0.2,0.2l0.1-0.5l0,1l0-0.7l0-0.6l0.2,0.8l0,2.2l0.1,0.6
	l0-0.8l0-0.9l0.2,0.1l0.1-0.6l0-0.2l0,0.2l0.2,2.8l0,1.4l0-1.3l0.1-0.6l0.2-1.3l0,1.1l0-0.2l0.1-1.1l0-1.3l0.2-0.1l0-0.8l0-0.9
	l0,0.3l0.1,1.5h0.1l0.1-1.1l0,0.1l0-0.9l0.1,0.4l0.1,1.4l0.1-0.7l0,0.6l0,0.3l0,2l0.2-0.2l0-0.8l0.1,3.8l0-0.2l0,1l0.2,0.9l0.1-0.3
	l0-0.9l0.3,3l0-1.9l0-1.6l0.2-0.7l0-1.4l0,0.8l0.1-1.3l0.2-0.5l0-0.6l0-1.8l0.1-1.8l0,0.2l0.2,0.2l0,0.8l0,0.2l0-0.6l0.1,0.4
	l0.1-0.3l0.1,3.7l0-0.1l0,0.4l0.1-0.3l0.1,1.4h0.1l0,0.9l0-0.2l0.2-0.4l0,1.4l0.1,0.6l0-1.3l0-1.1l0.2-2.2l0,0.4l0.1-0.4l0-1.6
	l0,1.3l0.2,0.2l0-0.6l0-2l0.1-2.4l0,0.7l0.2,0.9l0,0.6l0,1.7l0.1-0.7l0-2.4l0.2-0.3l0-1.3l0-0.4l0-0.8l0.1,0.9l0.2-1.7l0,1l0-1.6
	l0.1-0.9l0.2-11.4l0,0.7l0-1.4l0-0.2l0.2-0.3l0.1,0.2l0-1.5l0-1.2l0,1.1l0.2-0.7l0,3l0.1-0.8l0,1l0-0.2l0.2-0.5l0,0.9l0.1-0.2l0,0.9
	l0.2,1.6l0-1.7l0,4.7l0.1-1.1l0,3.7l0.2-1.6l0-3.1l0-0.4l0.1-3l0-2.9l0.2,0.6l0.5,11.5l0-1.7l0.1,0.9l0.1-0.8l0.1-0.8l0.1,0.8
	l0.2-2.4l0.1,5.1l0,1.8l0,0.2l0,1.3h0.2l0-0.7l0.1-0.2l0,1.4l0,2.2l0.2,0.6l0-0.1l0.1-1.7l0-0.7l0-3.3l0.2-0.6h0l0-2.8l0.3,16.7
	l0-1.3l0.4-1.3l0,1.7h0l0-1.3l0.1-0.9l0.2-2.3l0-0.8l0,1.3l0,1.1l0.1-3l0.1-3l0.1-0.3l0-0.4l0-1.5l0,0.2l0.2,1.3l0.1,0.2l0,3.3h0
	l0.2-0.6l0,1.6l0.1-0.1l0,1.9l0,1.1l0.2,1.3l0-1.7l0.1,0.9l0,0.7l0,1.5l0.2,2.1l0-0.7l0,0.9l0.1-0.7l0-1.7l0.2-0.3l0-1.1l0-2.8
	l0.1,1.7l0-1.3l0.2,3.4l0,2l0-1.7l0-0.9l0.1-3.9l0.1,0.6l0.1-0.8l0-1.7l0-0.5l0.1-1.3l0.2-2.1l0,0.9l0-1.1l0,0.2l0.2-1.6l0,0.2
	l0.1-0.8l0,0.9l0,0.9l0.2,0.1l0-3.1l0.1-1.1l0.1,0.6l0.2,0.9l0-1.7l0.1-1.7h0l0,2l0.2,0.3l0-1.9l0,0.8l0.1-0.1l0-0.5l0.2,0.3l0-0.9
	l0,2.9l0.1-0.9c0-2.8,0.3-5.6,0.3-8.4l0.1-1.8l0.1,0.2l0.1,1.3l0-0.1l0,0.2l0.1-0.7l0.1-2.4l0.1-2.6l0.1-3.6l0-0.1l0.2,0.9l0,0.8
	l0.1-0.6l0-0.6l0.2,1.1l0-0.2l0.1,1l0-1.3l0-1.5l0.2,1l0,1.9l0-3.3l0.1-2.4l0-1.7l0.2-0.1l0,2l0-1.7l0.1,3.4l0.2-1.4l0,2.5l0,2.9
	l0.1,5.9l0.2-1.6l0,1.1l0,1.7l0.1,1.1l0.1-0.9l0.1-0.1l0,1.7l0.1,3.9l0.1-2.1l0.1,2l0.1-7.9l0,2.5l0.2-4.7l0,0.2l0.1,3.6l0.1,2.3
	l0.2,1.3l0-3.1l0.1-2.5l0-0.2l0-0.6l0.2-5.6l0,0.6l0-0.2l0.1,2.1l0,4l0.2-3.6l0,0.9l0-0.7l0.1-3.3l0.2,0.9l0-0.8l0,0.5l0,2.7
	l0.1-1.3l0.2-1.4l0-0.7l0,1l0,2.2l0.2,0.5l0.1-0.9l0,1.1l0-1.4l0-0.9l0.2,3.6l0.1,0.6l0-1.2l0-0.2l0-1l0.2,0.8l0-2l0.1-0.7l0,1.2
	l0-3.7l0.2-2.1l0-1.7l0.1-0.9l0-1.4l0,4.1l0.2,0.5l0.1-1l0.1-1.3l0-0.2l0.3-17.1l0.1,0.2l0,2.1l0.2,2.3l0-1.8l0,3.2l0,0.9l0.1,1.6
	l0.2-2.2l0,0.6h0.1l0.1,2.1l0.1-0.2l0.1-1.2l0,1.4l0,0.9l0,4.8l0.2,2.3l0.1-1l0,1.7l0.7-3.2l0,1.7l0.1,2.8l0-0.1l0-2l0.2,4.2l0,0.7
	l0.1-0.7l0,0.2l0.2-0.1c0.9-3.2,0.3-4.2,0.6-7.9l0.1-0.8l0.1,0.9l0-0.5l0-0.1l0.1,1.2l0.1,2.4l0.1-1.4h0l0.1,1.1l0.2-1.8l0-0.8
	l0.1,1.3l0-3l0,0.9l0.2,16l0,0.2l0.1,2.8l0.3-0.5h0l0.1,1.3l0-1.8l0-0.6l0.2-0.5h0l0.1-0.6l0.2,5.2l0,0.5l0-2.9l0.1-0.4l0,1.1
	l0.2,0.6l0.1,2.3l0.1,1l0.1-0.9l0.1,1.8l0,0.6l0-2.6l0.1,3.5l0.1,0.2l0.1-2.2l0,2.6l0-2.7l0-5l0.2-7.9l0,2.1l0.1-0.7l0-1.3l0-2
	l0.2-1.3l0-0.2l0.1,2.5l0-0.7h0l0.2-1.7l0,0.9l0.1,2.7l0.2,3l0,1.2l0-0.9l0.1-1.2l0,0.4l0.2,2.4l0,1.8l0,5l0-0.8l0.1,1.6l0.2,0.3
	l0-3.2l0-0.3l0,2l0.1,0.5l0.1,0.3l0.1-0.6l0-0.4l0-0.2l0.1,2.1l0.1-0.2l0.1-0.5l0,2l0,0.2l0-0.6l0.2-0.5l0-1l0.1-1.1l0,0.9l0,4.6
	l0.2-0.5l0,1.5l0.1,0.9l0,0.4l0-1.3l0.2,1l0,1.6l0-1.7l0.1,0.2l0-4.2l0.2-3.8l0-1.9l0,2.2l0.1-1.3l0.3-2.1l0-0.6l0.1,1.4l0.2,2.6
	l0,0.6l0,2.1l0,1l0.1-2.8l0.1-6.1l0.1,0.9l0,0.1l0,2l0,0.7l0.3,1.2l0,4.1l0,1.3l0-1.3l0.2-0.2l0.1,0.4l0,1.9l0.2-0.2l0,0.8l0.1,0.1
	l0,1.3l0-7.6l0.2-4.3l0-0.8l0,1l0.1-0.6l0,0.2l0.2,2.8h0.1l0,1.2l0.2,0.9l0.1-2.6l0.3,2.9l0-1l0-0.4l0-2l0.1-2.4l0.2,3.6l0-1.5
	l0,1.3h0l0.3-3l0-1.4l0-0.2l0,0.8l0.2,3.2l0,0.5l0.1-0.6l0-0.2l0,2l0.2-3.1l0.1-0.3l0-0.9l0,0.1l0.2,0.7l0-0.3l0-3.1l0.1-1.5l0,1.8
	l0.2-1.8l0,1.5l0-2.2l0.1-1.3l0-0.9l0.2-0.2l0,0.4l0-1.7l0,2.4l0.1,3.3l0.1-0.5l0.1,1.7l0,0.5l0,0.9l0.1,1.6l0.1-0.6l0.1,0.9l0-0.3
	l0-1.8l0-0.1l0.2,0.8l0,0.2l0.1,1.7l0-0.9l0.2-0.1l0,0.4l0.1-12.9l0-0.3l0.2,1.9l0,0.1l0.1-1.8l0,1.3l0-0.5l0.2,0.5l0-1.7l0-1
	l0.1,0.3l0,0.2l0.2,0.6l0.5-10l0.1,1l0.1,4.8l0.1,0.6l0-1l0,3.1l0.1-1.8l0.1,0.1l0.1,1.2l0-1l0-0.8l0,0.9l0.2,2l0-1.6l0.1,0.9
	l0.2-2.3l0,2l0.1,0.6l0,0.6l0.2,7.2l0-3.1l0,2.4l0.1,2l0-0.6l0.2,1.6l0.1,1l0.1,7l0-8.2l0.2,4.7l0,2.4l0,3.7l0-2.4l0.1-1.5l0.2,14
	l0,4.3l0,1.8l0-5.4l0.1,1l0.1,2.8l0.1-4.7l0,21.6l0.4-2.2l0-1.4l0-5l0.2,1.7l0.1,1.7l0-3.7l0-0.7l0.2-0.9l0-1.4l0.1-3l0-0.7l0,1.2
	l0.2,0.5l0-1.1l0-0.4l0.1-4.6l0.2,2.4l0,3l0,1.3l0.1,0.1l0,1l0.2,0.6l0-1.7l0-1.5l0,1.6l0.1,0.3l0.2,5.9l0,2l0-3.6l0-1.3l0.1-5.5
	l0.2,6.1l0-3.5l0-3.9l0,0.1l0.2,1.5l0.1-0.2l0,2.9l0-0.6l0,0.6l0.2-1.2l0,2.1l0.1-0.5l0,0.3l0-2.5l0.2-1.6l0,3.9l0.1,0.4l0-1.9
	l0-1.7l0.2-1.6l0,1l0,1.4l0.3-6.6l0,1.1l0-1.6l0.1,1.9l0,0.1l0.2,2.8l0-2l0,5.1l0,0.2l0.1-2.4l0.2-0.9l0,0.9l0,1l0-6.6l0.1-0.7
	l0.1-0.2l0.1,1.3l0-1.3l0,0.1l0-3.7l0.2,1.3l0.1-0.5l0,2l0,0.4l0-3.8l0.2,2.5l0-0.4l0.1,1.9l0-0.9l0-3.2l0.2-2l0,0.8l0.1,0.9l0,0.2
	l0,0.8l0.2,0.9l0-1.4l0-1.6l0.1-1.7l0,2l0.2,2.1l0,1.7l0-0.5l0.1-0.7l0-0.7l0.2,1.4l0,2.8l0-1.7l0-2.4l0.1,1.3l0.1-1.4l0.1-0.3
	l0-1.3l0-3.9l0.1,0.2l0.1,2.1l0.1,0.3l0-0.7l0-1.3l0,0.1l0.2,2.3l0.1-0.6l0,0.4l0,1.4l0-3.6L205,99h0l0.1,1.4l0.3-2.2h0l0.1,0.1
	l0-2.4l0.2,2.4l0-0.5l0-1.3l0.1,1.7l0-0.3l0.2-0.6l0.1,0.9h0.1l0-0.9l0.2,2.5l0,0.1l0-3.9l0,6.1l0.1-3.5l0.1,5.5l0.1,3l0,0.4l0,1.2
	l0.1-0.6l0.1-1.9l0.1-2.7l0-2l0,0.4l0,0.6l0.2-1.6l0.1,1.1l0,1l0,1.3l0.2,0.2l0-1l0.1,0.9l0-0.2l0,1.1l0.2-1.4l0-0.6l0.1,0.4l0-0.3
	l0.2-2.3l0-0.5l0-1.2h0.1l0,0.4l0.2-1.6l0-0.9l0,0.9l0,0.4l0.1-1.2l0.2,5.8l0-4.5l0-0.7l0-2.6l0.2-1.7l0.1,1.8l0,3.3l0-3.9l0.2-15.4
	l0.1,6.7l0,1.2l0,1.1l0-1l0.2,1.5l0-0.2l0.1,1.7l0-0.2l0,1.8l0.2,3.4l0,1.2l0.1-0.2l0,1.7l0-0.1l0.2,6.5l0.1,2.4l0.1-2.8l0,1.6
	l0.2-1.1l0-2l0,0.4l0.1-2l0,0.8l0.7,3.1l0-1.8l0.1,2l0.1,0.8l0.1-0.7l0-6.1l0,0.6l0-0.6l0.3-2l0-1l0-4.1l0,1.2l0.2-4.8l0,0.7
	l0.1-0.2l0.1,5.4l0.2-0.6l0,1.3l0.1,2.4l0,3.3l0-5.3l0.2-0.4l0-2.3l0-1.5l0.1,2.5l0,0.4l0.2-1.5l0-0.7l0.1,19.8l0.3,2l0-3.3l0-0.2
	l0.1-1.7l0.2,6.1l0-1.3l0.1,0.3l0.1,0.2l0.1,3.1l0.1,0.7l0.1-1.8l0,5.4l0.2-0.8l0.1-1.7l0-2.2l0-0.5l0.2,0.8l0,1.3l0.1-2.8l0-2.6
	l0,1.2l0.2-4.3l0-2.7l0.1-1.2l0.1,0.2l0.2-0.9l0,1h0l0.1,1.1l0-1.9l0.2-0.6l0,2.8l0-0.7l0.1-0.2l0,3.1l0.2-0.5l0,1.8l0-2l0-1.7
	l0.1-1.3l0.1-1.1l0.1-1.3l0,0.2l0-0.5l0.1-0.1l0.2-1.4l0-0.1l0,0.9l0,0.8l0.2-2.3l0.1-0.5l0,3.5l0,0.3l0,1.1l0.2,0.9l0-0.4l0.1-0.1
	l0-0.5l0-2.7l0.2-4.6l0,0.5l0.1-2.4l0-2l0-0.2l0.2,1.7l0,1.5l0-1.3l0.1,1.7l0-1.6l0.2-1.7l0-0.5l0.1,0.2l0-3.1l0.2-2l0-4.2l0,2.8
	l0,3.5l0.1-2.2l0.1-0.2l0.1-3.2l0,2.4l0-1.6l0.2,1.2l0.1,0.3l0-0.8l0-1.3l0-3.8L223,80l0-4.3l0.1,1.4l0.1-5.3l0.2,3.1l0,4.6l0.1,0.2
	l0-1.4l0-1.3l0.2-0.7l0,0.2l0,4.4l0.1-2.1l0-0.8l0.2,2.1l0,0.9l0-2.7l0.1-3.1l0.2-0.2l0-1.6l0-4l0.1-2.7l0,2l0.3-4.1l0-1.1l0.1-0.5
	l0.1,0.6l0.1,1.4l0-1.7l0,1.2l0.1-0.7l0.1-4.6l0.1-2.4l0,1.2l0,3.2l0-0.6l0.2-1.9l0.1-1.3l0-0.5l0.2,1.5l0,3.9l0.1,3.8l0,0.9l0,1.7
	l0.2,1.5l0-2.7l0-2l0.1,2.5l0,0.6l0.2-3.1l0,0.5l0-0.6l0.1-0.3l0.2-2.8l0,0.8l0-0.1l0,2.9l0.1-2.1l0.2,1.2l0,2.2l0,0.3l0,0.5
	l0.2,4.2l0.1-3.3l0,1.7l0-1.4l0.1,1.5"/>
<path class="st5" d="M23.6,132l0,3l0,0.3l0.1,1.7l0.2-2.4l0-0.3l0,2.1l0-1.1l0.1,0.4l0.1-0.7l0.1-1.5l0-0.2l0-0.4l0-0.3l0.2,2
	l0.1,1.9l0,1.2l0,0.1l0-0.2l0.2,0.6l0-0.4l0.1,0.9l0-3.2l0,2.6l0.2,0.7l0,1.7h0.1l0-1.1l0-1.9l0.2-2.4l0-0.4l0-2.2l0.1,1.3l0,2
	l0.2,0.6l0-0.3l0-4.3l0.1-0.3l0-1.4l0.2,0.6l0-0.9l0.1-1.3l0.1,0.3l0.2-1.4l0,0.6l0-1.4l0-1.3l0.1-1.3l0.1,1.8l0.1,0.9l0,0.1l0-0.2
	l0,1.2l0.2,0.7l0.1,2.2l0-0.1l0.7-1.6l0,0.2l0.1-0.4l0,0.1l0-0.2l0.2-0.4l0.1-2l0.1-0.2h0l0.2,0.5l0,0.1l0,0.3l0.1,2.4l0,1.8
	l0.2-1.2l0,1.2l0-1.7l0,0.3l0.1-0.6l0.3-1.8l0-1.3l0.1,0.8l0.1,1.3l0.1-2.5l0-0.3l0,0.8l0,0.9l0.2,1.3l0.1-1.3l0-1.3l0-0.9l0,1.3
	l0.2-1.4l0,0.9l0.1-0.9l0-2.6l0-1.1l0.2,2.1l0,1.3l0.1-1.3l0,1.5l0-0.6l0.2,0.8l0,3.9l0.1,0.9l0-1.1l0.2,0.7l0-1.3l0-1.7l0.1,0.6
	l0-1.3l0.2,0.2l0,3.2l0,0.9l0,0.3l0.1,2.1l0.1-1.5l0.1-0.2l0-1.7l0,2.3l0.1,1.7l0.1,1.4l0.1-2.8l0-0.6l0-2.1l0.2,1l0-0.1l0.1-0.6
	l0-0.8l0-0.6l0.2-1.2l0,0.4l0.1-1.5l0-3.2l0,2.1l0.2-0.2l0-0.1l0.1,1l0,0.5l0,2.1l0.2-1l0-1.4h0l0.1-3.1l0,4.9l0.2,1.6l0-1.7l0,1.3
	l0.1,1.3l0,1.3l0.2-0.2l0,0.8l0,0.6l0-0.9c0.2-0.5,0.3-3.3,0.4-4.3l0.1-1.3l0.1-0.1l0.1,1.1l0.1,0.2l0,0.2l0.2-12.5l0-0.2l0.1,1.2
	l0,1.2l0,0.1l0.2-1l0,2.6l0.1,0.5h0l0,2l0.2,0.9l0-0.1l0,0.6l0.1-0.6l0-0.9h0.2l0,0.4l0.1,0.7l0-1.3l0.2,1.5l0-0.9l0,0.8l0.1-1.1
	h0.2l0-0.2h0l0-1.7l0.1-0.8l0.1-0.6l0.1,0.7l0-0.7l0-0.9l0.1,0.9l0.1,0.6l0.1-1.3l0-0.9l0,1.4l0-1.3l0.2-1.3l0,2.1l0.1-0.7l0-1.6
	l0-2.4l0.2-0.3l0-0.6l0.1,0.2l0.1,3.2l0.2-1.1l0-0.4h0l0.1-0.5l0,1.1l0.2-0.5l0-0.5l0,0.2l0.1,0.1l0,1.2l0.2-1l0,0.9l0,0.1l0,1.1
	l0.1,0.6l0.2,0.7l0,0.4l0,1.3l0-0.9l0.1-0.6l0.1,0.9l0.1,1.4l0.1,2.6l0,1.4l0.2-0.3l0.1-1.1l0,1.4l0,0.9l0,0.7l0.2,1.7l0,0.2
	l0.1-0.6l0,2l0-1.2l0.2,0.5l0-2l0.1,1.6l0-0.2l0,1l0.2-0.2l0-0.8l0,0.4l0.1-2.1l0-4.2l0.2,0.8l0,2.1l0,0.3l0.1-2.1l0-0.2l0.2,0.6
	l0-0.2l0,2.1l0,0.9l0.1-5l0.2-1.9l0,0.2l0-0.9l0,0.5l0.1-1.5l0.1-1.8l0.1-0.1l0.1,2.5l0-0.6l0.2,1.3l0.1,0.3l0-0.4l0-1.7l0,2.4
	l0.2,1.5l0,0.2l0.1,0.2l0,2.2l0,0.2l0.2,0.9l0-2.5l0.1,0.5l0,0.2l0-0.6l0.3-3.7l0.1-2.2l0,0.8l0.2,1.6l0-0.6l0,0.2l0.1-1.5l0-0.6
	l0.2,0.8l0.1,2.8l0,1.3l0.1-1.3l0.1,2.7l0.1-0.6l0,0.2l0,0.6l0.1-0.2l0.1-1.2l0.1-1.8l0,1.2l0-0.8h0l0.2-1l0-1.4l0.1-1.1l0.7-1.3
	l0-1.3l0.1,0.7l0-0.4l0,0.2l0.2,0.7l0-0.3l0-0.2l0.1,0.2l0.2-0.2l0-0.9l0,2l0.1-0.4h0l0.2-0.4h0l0-2l0,0.4l0.1-0.1l0.1,1.7l0.1-0.2
	l0,1.3l0-0.8l0.1-0.7l0.1,0.9l0.1-0.2l0-0.2l0-0.4l0-0.2l0.2-2l0,0.9l0.1-0.3l0.3-0.4l0,1.8l0.1,1.2l0-2l0-0.2l0.2-0.2l0-0.7h0
	l0.1-0.5l0-1.2l0.2-0.7l0-0.6l0,0.2l0.1,1.7l0-0.5L54,110l0,0.2l0.1-1.9l0.1-0.9l0.2,0.6l0,0.7l0-2.1h0l0.1-0.5l0.1-1.3l0.1,1l0-0.1
	l0-1.4l0.1,1.1l0.1,1.3l0.1,0.1l0-0.7l0-0.6l0,1.5l0.2-1.8l0,2l0.1-3.5l0,2.1l0-1.7l0.2,3.5l0,1.8l0.1-1.8l0,0.4l0-1.7l0.2-3.1
	l0-2.6l0.1,1.5l0,2.8l0.2-0.4l0-0.4l0-0.6l0.1-3.2l0,0.4l0.2-1.9l0,2.4l0,1.1l0-0.2l0.1-1.3l0.2-0.1l0-0.2l0-0.4l0,2.7l0.1-2
	l0.1-0.2l0.1-0.2l0-0.3l0,1.7l0-1.9l0.2,0.6l0.1,0.5l0,0.9l0,1.7l0,4.3l0.2-0.6h0l0.1,0.9l0-1.2l0,0.8l0.2,0.1l0-1.7l0.1-0.1l0,3.4
	l0-0.4l0.2-0.2l0,0.9l0,1l0.1,1.3l0,2.1l0.2,0.6l0,0.1l0,0.5L60,117l0-2.1l0.2-0.9l0-3.2l0.1-1.1l0.1,0.1l0.2,0.2l0-0.2l0-3.2l0,2.1
	l0.1-2.2L61,107l0.1-0.2l0-0.7l0,0.1h0l0.2,1.7l0.1,2.5l0,0.2l0-0.4l0,1l0.2,0.9l0-0.3l0.1,1.2l0.3-0.2l0-1.5l0.1,0.2l0,2l0-0.9
	l0.2-0.9l0.1,0.6l0.1-1.8l0-0.5l0.2,0.7l0.1-0.2l0.1,2.2l0.2,1.5l0-0.9l0,0.9l0-1.1l0.1,0.2l0.1,0.3l0.1-1.3l0-0.5l0-0.8l0.1,1.2
	l0.1-1.2h0.1l0,0.8l0-0.7l0,1l0.2-0.2l0,1.9l0.1-1.4l0-0.4l0-0.7l0.2,1.6l0-0.2l0.1-0.5l0,2l0,1.7l0.2,2.8l0-1.1l0.1,0.6l0,0.6h0
	l0.2-1.2l0-2l0-0.1l0.1-0.9l0,0.2l0.2,0.5l0-0.9l0-1.9l0.1,1l0,0.2l0.2-0.7l0-0.8l0-2.1l0,0.5l0.1-0.7l0.1,6.6l0.1-0.7l0,1.1l0-2.9
	l0.1-0.9l0.1,0.1l0.1,1.5l0-0.3l0-0.9l0-0.2l0.2-2.3l0,0.4l0.1-4.7l0-1.1l0.2,0.8l0,0.2l0.1,0.6l0.1-0.5l0.2-0.1l0-0.7l0-1.3
	l0.1-6.4l0,0.7l0.2-2l0,2l0-0.4l0.1-1.1l0-2.5l0.2-0.6l0.5,4.9h0l0.1,0.3l0.1-0.3l0.1,0.5l0-0.1l0-0.6l0.1-0.2l0.1,1.6l0.1-1.7
	l0,0.4l0,0.1l0-0.2l0.2,0.4l0,0.2l0.1,0.2l0,0.3l0.2,0.1l0,1.4l0.1-1.5l0-1.9l0-0.3l0.2-1.7l0-0.2l0-2.4l0.1-2.4l0,0.3L72,93l0,0.1
	l0,1.2l0.1-0.5l0,1.7l0.2,2l0-2.4l0,0.6l0-0.9l0.1,1.3l0.2-0.7l0-1.4h0l0,0.8l0.2,0.2l0.1-0.1l0,1.3l0,0.4l0-0.9l0.2,0.1l0.1-2.6
	l0-0.1l0,0.8l0-0.8l0.2,0.7l0-0.6l0.1-0.9l0-0.2l0,1.3l0.2-2.1l0-0.2l0.1,1.3l0.1-1.3l0.2-0.6l0-0.9l0-0.7l0.1-0.3l0,1.1l0.2,4.3
	l0,0.2l0,0.7l0.1,0.8l0-0.8l0.2,0.9l0-0.4l0,1l0-1.3l0.1-2.1l0.2-0.9l0-1.7l0-0.5l0,0.2l0.1,1.5l0.2,2.8l0-0.7l0-0.2l0,0.3l0.2-0.2
	l0.1-0.6l0-0.1l0,0.4l0-0.1l0.2-0.2l0-1.4l0.1-2.1l0-0.4l0,0.3l0.2-0.5l0,1.3l0.1-0.3l0,0.1h0l0.2-1.9l0-2.2l0,0.6l0.1-1.4l0,0.6
	l0.2-0.2l0-0.2l0-0.7l0.1-0.9l0-0.6l0.2,1.1l0-0.2l0,3.2l0,3.5l0.1-0.3l0.1-1.2l0.1,0.7l0.1,1.6l0.1,2.4l0.1,1.6l0.1,1.1l0-0.3
	l0,3.2l0-1.3l0.2-0.2l0.1,5l0-2.9l0-0.7l0-0.8l0.2,1.1l0,0.1l0.1-0.9l0,0.3l0,0.6l0.2,0.2l0-1.1l0.1-1.3l0.1-1.7l0.2-0.2l0,0.1
	l0-2.1l0.1-0.6l0,1l0.2-1.7l0,2.4l0,0.8l0.1,0.9l0-0.1l0.2-0.6l0-0.9l0,0.2l0.1,3.4l0.1-2.3l0.1,0.6l0,0.7l0-2.4l0.1,0.8l0.1,1.5
	l0.1-0.5l0,2l0,1.1l0,0.3l0.2-1.5l0-0.2l0.1-1.8l0-0.4l0-3l0.2,0.1l0,2.8l0.1,0.8l0,0.7l0.2,2.1l0-2l0,1.7l0.1-1.2l0,2.5l0.2-1.8
	l0-0.3l0-0.6h0.1l0,1.3l0.2-1.7l0-1.9l0,4.5l0.1,0.4l0,1l0.2-1.7l0-0.6l0,0.2l0,1.3l0.1-1.1l0.1-0.6l0.1,0.2l0,3.2l0-0.9l0.1-0.2
	l0.1,1.5l0.1-0.3l0-3.3l0-4.6l0,1.6l0.2,3.7l0-0.6l0.1,3.3l0.1-1.9l0.2-2.4l0,5.4l0.1-5.1l0,0.9l0,2.1l0.2-0.6l0-0.4l0,2.6l0.1-2
	l0-0.3l0.2-0.8l0-1.3l0,3l0.1,0.3l0-1.7l0.2,0.1l0-0.9l0-1.9l0,0.7l0.1-0.5l0.2-0.4l0-0.6l0,0.4l0.3,1.9l0.1,3l0,0.7l0-2.3l0,2.6
	l0.2,2l0.1-0.9l0,1.4l0,1.7l0-1.3l0.2-2.9l0-0.2l0.1,1.1l0,0.1l0-0.6l0.2,0.1l0-1.6l0.1,0.9l0,0.8l0,0.7l0.2-1.3l0,0.4l0-0.3
	l0.1-1.3l0,1.9l0.2-1.9l0,1.8l0-3.1l0.1-1.5l0,3.3l0.6-2.2l0-0.1l0,2.4l0.2,0.7l0.1-0.4l0-1.5l0-0.6l0,0.6l0.2-0.2l0.1-0.6l0,0.9
	l0-1l0,1.7l0.2,1.3l0,0.7l0.1-3.8l0,0.5l0-1.7l0.2,1.4l0,0.9l0.1,0.8l0,0.2l0,3.7l0.2,0.9l0-0.7l0-0.1l0.1-0.8l0.3,1.1l0,6.2
	l0.1,2.5l0-0.2l0.2,2.8l0-0.7l0,2.3l0-1.5l0.1,2l0.1-2.8l0.1,1.4l0,0.2l0-4.5l0.1-2.4l0.2-0.4l0,1.7l0-0.2l0.2-0.7l0.1-0.9l0-0.9
	l0-0.3l0,1.3l0.2,2l0-2.2l0.1,0.6l0,3.7l0,1.9l0.2-1.3l0-1.6l0.1-0.2l0,1.9l0,1.1l0.2-0.9h0l0-2.6l0.1-2.9l0,0.2l0.2,3.9l0-2.1l0,2
	l0.1,1.9l0-0.2L97,115l0,1.4l0-2.4l0-0.1l0.1,0.6l0.1-1.3l0.1-0.9l0,1.9l0-0.3l0.2-0.8l0.1,0.3l0-0.1l0-3.2l0-1.6l0.2,1.2l0,1.3
	l0.1-0.6l0-0.9l0-0.6l0.2-3.2l0-1.8l0.1-2.1l0,7.3l0.2,2.2l0-1.3l0-0.4l0.1,0.8l0,1.2l0.2,0.6l0-1l0,2l0.1,2.9l0-1l0.2-0.5l0-0.5
	l0,1.9l0.1-3.2l0-0.2l0.2,3.2l0-0.3l0,0.9l0,0.7l0.1,1.3l0.1,0.7l0.1-0.2l0-1.7l0,2l0.1,0.3l0.1,1l0.1-1l0,2l0-3.2l0,2.7l0.2-2.4
	l0-5.4l0.1-0.6l0,3.5l0-3.2l0.2-6.8l0,3.7l0.1-2.7l0-0.5l0,1.5l0.2-0.2l0,3.9l0-1.3l0.1-1.4l0-1.3h0.2l0-0.2l0,1.7l0.1-1.7l0,0.9
	l0.2,1.3l0-1.6h0l0,1l0.1-0.2l0.3-0.9l0-2l0.1,1.9l0.1,3.1l0.1,0.6l0,2.4l0-0.6l0.2-0.1l0.1-2.2l0,0.6l0,1.7l0,1.3l0.2-0.4l0-2.1
	l0.1,2l0-1.1l0,2l0.2-3.1l0,1.9l0.1-0.6l0,0.4l0-0.1l0.2-1.8l0-1l0-1.5l0.1-1.4l0,3.7l0.2-2.3l0,1l0,3l0.1,1.3l0,0.1l0.2-2.1l0-0.9
	l0,1.3l0-0.6l0.1,2.1l0.2-1.4l0,2.3l0,0.4l0-2.8l0.1-0.2l0.1,0.5l0.1,4.8l0,0.6l0-1.1l0,0.9l0.2-2.3l0.1-0.2l0,1.9l0,0.2l0,1
	l0.2,0.2l0,1.3l0.1,0.5l0-1.7l0-0.2l0.2,1.3h0l0.1,0.9l0-0.4l0-0.8l0.2-1.3l0,1.8l0-0.3l0.1-1.2l0.2,1.7l0.1,2l0.1-2l0,1.9l0.2-2.7
	l0-0.1l0,0.7l0,0.3l0.1-3.8l0.1-2.4l0.1,2.8l0-1.7l0-1.8l0.1,3.9l0.1-2.5l0.1-1.8l0,1.5l0-1l0-0.3l0.2-3.2l0.1-1.5l0-3l0.7,1.8
	l0-3.5l0.1-1l0,1.5l0-1l0.2,0.6l0,0.5l0-0.4l0.1-4l0,2.8l0.2-0.2l0,3.8l0.1-1.4l0,1.5l0.2,0.2l0-2.6l0-0.3l0,0.6l0.1-0.1l0.1,1.3
	l0.1,0.6l0-2.5l0,1.4l0.1,1.9l0.1-1.3l0.1,1.4l0-0.2l0-1.7l0,1.1l0.2-1.4l0,1.5l0.1,0.8l0-0.4l0-1.8l0.3,2l0,1.7l0-2.6l0.2,0.8
	l0,1.5l0-0.1l0.1,0.3l0,0.1h0.2l0,2.9l0,2l0.1-0.2l0-1.7l0.2-2l0,0.3l0,0.4l0.1,1.5l0,1.3l0.2-0.2l0,0.7l0,0.4l0.1-0.6l0.1,0.2
	l0.1-0.8l0,0.5l0,0.7l0.1-1.6l0.1,0.2l0.1,0.3l0-2.3l0-0.9l0-0.2l0.2-5.1l0,0.5l0.1,1.7l0,0.3l0.2-2.4l0,0.9l0.1,5.1l0,1.4l0-1.3
	l0.2,2.4l0,0.3l0-1.7l0.3-3.2l0-1.1l0-0.5l0.1,1.3l0-1.8l0.2,1.7l0-0.6l0-0.2l0,1.8l0.1-0.2l0.2,0.9l0-0.9l0.1,1.3l0.1-1.7l0.1,0.6
	l0.1-0.2l0,0.9l0,0.3l0.2-1.2l0.1-1.3l0,1.5l0,0.7l0-1.2l0.2-1.4l0-0.8l0.1,1.3l0-0.8l0,1.1l0.2,0.3l0-0.4l0.1-0.7l0-0.6l0,0.6
	l0.2-0.2l0-1.1l0-1l0.1,0.3l0,1.1l0.2,0.1l0,0.2l0,0.1l0.1,1.5l0,0.7l0.2,0.3l0,2.1l0-1.8l0,0.9l0.1,1.7l0.2,0.6l0-0.2l0-0.9l0-2.4
	l0.1,0.4l0.1-0.7l0.1,2.7l0,0.2l0,2.4l0,1.3l0.2,0.2l0.1-0.4l0-1.3l0,0.4l0,1.1l0.2-0.5l0,0.4l0.1,0.6l0.3-3.6l0,0.1l0.1,0.2l0,2.1
	l0-2.4h0.2l0.2-0.2h0l0.2,0.2l0-0.2h0l0.1,1l0-0.8l0.2-1.2l0-2.4l0-1.1l0.1,2.7l0.2-0.9l0,1.7l0-1.1l0-0.4l0.1-0.2l0.1,0.8l0.1-2
	l0,0.1l0,0.9l0-0.6l0.2,0.3l0.1,0.9l0-0.5l0,1.6l0-1l0.2-1l0,0.7l0.1,2.1l0-4.5l0-0.9l0.2-0.9l0,0.9l0.1,1.3l0-1.2h0l0.2-0.2l0,0.1
	l0,2.5l0.1-0.9l0,1.9h0.2l0,0.7l0,0.1l0.1-0.3l0,0.3l0.2,0.6l0-1l0,0.2l0-0.2l0.1-1.9l0.1-1.5l0.1,0.9l0-0.5l0-2.5l0.1,0.6l0.1,1
	l0.1-0.4l0,1.2l0,0.9l0-0.2l0.2-1l0,0.9l0.1-1.4l0,2.3l0-0.2l0.2,1.1h0.1l0,2l0-0.3h0.2l0,2.8l0,0.5l0.1-1.6l0,1.8l0.2-0.2l0-1.4
	l0,2.8l0.1-0.5l0-0.9l0.2-1.7l0,0.8l0.5,2.2l0.1-0.6l0.1,0.3l0.1-1.3l0,1l0-0.1l0.1-2.1l0.1,0.2l0.1-0.5l0-1.2l0,1.7l0-0.2l0.2,0.6
	l0,0.6l0.1,2l0-0.5l0-0.8l0.3,0.8l0-0.1l0-0.6l0.2,0.9l0-0.5l0-0.2l0.1-0.2l0,1.3l0.2,0.8l0-0.6l0,0.2l0.1,1l0-0.5h0.2l0-0.9l0-1.3
	l0,1.2l0.1,0.2l0.2-0.4l0,0.4l0,1.3l0-0.2l0.1,0.2l0.3-8l0,0.5l0,1l0.2,0.2l0.1-0.5l0,0.9l0-0.1l0,1.3l0.2-0.4l0-0.9l0.1,1.1l0,1.2
	l0-0.9l0.2,0.9l0-0.3l0.1,0.9l0-1.3l0-0.7l0.2-0.5l0-0.7l0.1-0.6h0l0.2-0.2l0,0.8l0-0.4l0.1,0.5l0,0.5l0.2,0.2l0,0.7l0-0.9h0
	l0.1,0.6l0.2,1.8l0-1.3l0-0.9l0,0.9l0.1,0.2l0.3,1.3l0-1.3h0l0.2-1.3l0.1,0.6l0-0.4l0,0.6l0,0.4l0.2,0.6l0,0.6l0.1,1l0-1.3l0-2.9
	l0.2,0.5l0-2.5l0.1-0.6l0-0.6l0,0.7l0.2-1.4l0,0.2l0,0.8l0.1,0.2l0-0.9l0.2,0.5l0-0.6h0l0.1,0.1l0,1l0.2,0.6l0-1.9l0,1.3l0,1.5h0.1
	l0.2,0.9l0-0.4l0,0.4l0-0.8l0.1,2.5l0.1,0.2l0.1-0.4l0,1.2l0-0.4h0l0.2,1l0.1,0.6l0-2.2l0,0.2l0,0.3l0.2-0.9l0,0.6l0.1,1.4l0-0.5
	l0-3.1l0.2,4.3l0-2l0.1,2.1l0-0.7l0-0.2l0.2,0.9l0,0.1h0l0.1-0.8l0-0.3l0.2,0.2l0-0.7l0,0.2l0.1-0.3l0-0.3l0.2-0.9l0-0.7l0,0.6l0,1
	l0.1-0.5l0.1,1.8l0.1,0.2l0,1.5l0-0.5l0.1,0.2l0.1,1.9l0.1,0.2l0,1.7l0-1.6l0,1.4l0.2-0.3l0,0.3l0.1,0.1l0-0.7l0,0.9l0.2-2l0,1.8
	l0.1,0.3l0,0.9l0.3-2l0-1.2l0,0.2l0.2,0.2l0,0.1l0,0.2l0.1-3.4l0,2.4l0.2-0.4l0-0.3l0-0.2l0.1,0.2l0-0.1l0.2-0.7l0,0.3l0,2h0
	l0.1,0.4l0.1,0.2l0.1,0.4l0-0.2l0,1.9l0.1-0.2l0.1,0.5l0.1-1l0,0.6l0,2.1l0-0.8l0.2,1.2l0,0.1l0.1,0.1l0-1.7l0-0.1l0.2,0.9l0,1
	l0.1-0.8l0,0.3l0-3.4l0.2-0.4l0,1.3l0,0.6l0.1,1.3l0,1.6l0.2,0.2l0-0.5l0,0.9l0.1-1.1l0,0.2l0.2,1.2l0,1.7l0-1.1l0,0.6l0.1-0.6h0.2
	l0,1.4h0l0,0.7l0.1-1.2l0.2-0.9l0-1.3l0,0.3l0,0.9l0.2,0.6l0.1,0.1l0,0.7l0,0.1l0,0.4l0.2-2.2l0,0.6l0.1-0.5l0-2l0-1.4l0.2-1.3
	l0,2.3l0.1,2.6l0-0.7l0,2.8l0.2-2l0-0.5l0,0.4l0.1-3.3l0-1.1l0.2,0.6l0,3.5l0-3.2l0.1,0.3l0-1.3l0.2,0.3l0.5,3.6l0-0.6l0.1,0.2
	l0.1,0.2l0.1-0.7l0.1-1l0-0.4l0.2-2l0.1-1l0,0.6l0-0.6l0,0.2l0.2,0.3l0-2.4l0.1,1.3l0,1.1l0-0.8l0.2-2l0,2l0.1-1.3l0-1.4l0-1.2
	l0.2,1.5l0-2.1l0-2l0.1,2.3l0-1.1l0.2-1.8l0,1.4l0.4-0.5l0,1.5l0-0.6l0,0.4l0.1-0.7l0.2-1.7l0,2.9l0,1.1l0,0.6l0.1,2.4l0.1,1.3
	l0.1,1.8l0-0.2l0,0.9l0,0.8l0.2,2.3l0.1-2.3l0-0.2l0-1.5l0.2-0.3l0-1.3l0.1-0.5l0,0.2l0-0.3l0.2-1.1l0-0.1l0.1-0.3l0,1.3l0,0.4
	l0.2-2.5l0,1.2l0-0.1l0.1-0.6l0,0.1l0.2,0.6l0-0.9l0-0.4l0.1,2l0-0.9l0.2-0.4l0,0.8l0-1.3l0,0.1l0.1-1l0.1,1.7l0.1,0.6l0-2.4l0,2.2
	l0.1-2.8l0.2-0.9l0,0.8l0-2.3l0,1.5l0.2-0.2l0,1.4l0.1-2.3l0,0.2l0,0.1l0.2,0.6l0-0.9l0.1-1.3l0,0.9l0,0.9l0.2,0.3l0-0.3l0.1,0.4
	l0.1-0.9l0.2-0.4l0,0.9l0-1.6l0.1-0.8l0-2.4l0.2,1.7l0,0.2l0,2.4l0.1-1.3c0-2.3,0.3-1.9,0.3-4.6l0.1-1.9l0.1,1l0.1,2.4l0-1.5l0,2
	l0.1-0.8l0.1,1.2l0.1-3.3l0,0.2l0-0.8l0,1.7l0.2,1.8l0-0.3l0.1,0.6l0-2l0,0.6l0.2,1.8l0.1-5l0-2l0,0.3l0.2,0.4l0-0.9l0-5l0.1,0.4
	l0,1.3l0.2-1.1l0-1.2l0,0.8l0.1,5.5l0-0.6l0.2-2.8l0,3l0,0.6l0,1.5l0.1,0.8l0.2-3.5l0,1.3l0-1.1h0.1l0.1-1.3l0.1-0.6l0,0.3l0-0.9
	l0.1,1.7l0.1-0.2l0.1-0.7l0.1,5.8l0,0.2l0.2,0.5l0-0.7l0.1,0.2l0-0.9l0,0.2l0.2,2.8l0-1.3l0.1-0.5l0,4.7l0,2.1l0.2-4.2l0-0.6l0-2.9
	l0.1,1.6l0,5.8l0.2-3.7l0,2.7l0-0.6l0.1,0.2l0-1.3l0.2-1.6l0,2.3l0-1.1l0,2l0.1,1.7l0.2,1.1l0-0.7l0-0.2l0,1.7l0.1-0.8l0.1,0.6
	l0.1,0.2l0-0.9l0,0.9l0,0.6l0.2-1.7l0.1,1l0,1.7l0,0.8l0-0.9l0.2-0.8l0-1.5l0.1,0.4l0,1.4l0-1l0.2-0.9l0-0.3l0.1-1.3l0,0.6l0-0.5
	l0.2-0.2l0,2.1l0,1.7l0.1-3.9l0-0.7l0.3-4l0.1-0.4l0,6.7l0.2-1.7l0.1-0.9l0,1l0.1-1.3l0.2-1.3l0,1.5l0,1.6l0-1.1l0.1,1.4l0.1-0.6
	l0.1-2.3l0,1.7l0.1,1.1l0.2-1.5l0.1,1.4l0,1.7l0.7,1.3l0-1.4l0.1,2.4l0-0.1l0-2.9l0.2,0.4l0-0.7l0-0.2l0.1-0.5l0,0.8l0.2,0.2l0-1.1
	l0-0.6l0.3,3l0,1.6l0-1.1l0-0.8l0.1-1.8l0.1,2.6l0.1-0.5l0-1.4l0,0.5l0.1-0.1l0.1,1l0.1-0.1l0-1.3l0-1.8l0-1.1l0.2-0.1l0-0.9l0.1,1
	l0.1,0.3l0.2,0.4l0-0.4l0.1,1.4l0.3-1.4l0.1-0.2l0-0.2h0l0.2-1.9l0-0.1l0-1.5l0.1-0.9l0-0.1l0.2-1.4l0-0.9l0-0.7l0.1-1.8l0,2.5
	l0.2,1.7l0-0.8l0.1,0.9l0.1-0.9l0.1-0.4l0.1-2.2l0-1l0-0.2l0.1,1.4l0.1,1.8l0.1,0.7l0,0.9l0,1.2l0-0.6l0.2-0.4h0l0.1-0.6l0,1.4
	l0-0.1l0.2,0.6l0,0.6l0.1,0.8l0-1.2l0-2.8l0.2,0.9l0,1.5l0-0.5l0.1,0.7h0.2l0,0.7l0-2.1l0.1,0.6l0,0.2l0.2-0.3l0,1.1l0-0.2l0,1.3
	l0.1-1.2l0.2,1.6h0l0,2l0-1l0.1,0.6l0.1-3l0.1,1.7l0,2.4l0-0.2l0.1-1.2l0.1-3.5l0.1,0.8l0-2.3l0,0.6l0,0.1l0.2,0.1l0,0.2l0.1,1
	l0-0.9l0-0.4l0.2-3.5l0,0.8l0.1-0.2l0,0.6l0,0.4l0.2-1.2l0,0.5l0-1.8l0.1,0.1l0,0.5l0.2-2.9l0-0.4l0,0.9l0.1-0.4l0.2-0.1h0l0,1.1
	l0,1.4l0.1,0.2l0.2,1.5l0-1.2l0,0.3l0-1.5l0.1-0.3l0.1,0.9l0.1,1l0-0.8l0,0.9l0-1.1l0.2-0.2l0.1-1.1l0,2.5l0-0.7l0-0.3l0.2-0.3
	l0.1,1.9h0l0.2-1.2l0-2.2l0.1-0.5l0-0.5l0,0.4l0.2-1.2l0-0.4l0-0.8h0.1l0-2.1l0.2-3.2l0-0.7l0.1,2.5l0-1l0.2-1.4l0-2.5l0,2.3
	l0.3,1.4l0-1.6l0,0.5l0,0.1l0.1-1.1l0.1,0.8l0.1-2.1l0-0.9l0-0.4l0-0.1l0.2,1.2l0.1-0.8l0-1.5l0,1.3l0-0.4l0.2-0.2l0-1.3l0.1-0.7
	l0,1.9l0,0.2l0.2-0.6l0-0.6l0.1-2.2l0,0.3l0-0.8l0.2,0.1l0-0.4l0-0.6l0.1-0.7l0,1.5l0.2,2.8l0-0.2l0,5l0.1,0.2l0-0.2l0.2-0.8
	l0.1-1.9l0-0.2l0.1,1l0.1-1.4l0.1,0.7l0-0.3l0-1.6l0.1,1.9l0.1-1l0.1-0.9l0,0.2l0,2.2l0,2l0.2-1l0,0.4l0.1-0.5l0,0.7l0-0.6l0.2,1.3
	l0,0.4l0.1-5.8l0-0.9l0.2,1.5l0,2.8l0.1-1l0,1.1l0-0.9l0.2,0.5l0-2l0,1.2l0.1,1.5l0,0.9L191,93l0.5-1.5l0.1-3.5l0.1,2.7l0.1,1.1
	l0,0.2l0,1.3l0.1,0.4l0.1-0.6l0.1,0.4l0-0.3l0-1.1l0,0.6l0.2,1.7l0,0.9l0.1-0.8l0,0.1l0-2.1l0.2-1.7l0,1h0.1l0,2.2l0.2,0.9l0-3.4
	l0,0.6l0.1-0.1l0-1.8l0.2-4l0,3l0-0.3l0.1-2.9l0,4l0.2-2.2l0,4.9l0-1.4l0,3.7l0.1-1.6l0.2-3.3l0,1.7l0,0.4l0-0.4l0.1,2.8l0.1-1.6
	l0.1,3.2l0-5.5l0.3,2l0.1,2l0-4.7l0,3.2l0,0.5l0.2,0.9l0-3.2l0.1-2.3l0,4.3l0-3.2l0.2,0.8l0,2.4l0.1,2.4l0-0.8l0-1.6l0.2-0.5l0,0.8
	l0-0.6l0.1-3.2l0.2-3.3l0,1.2l0,2l0.1-2.3l0,2.4l0.2-0.6l0,0.8l0-0.6l0-0.1l0.1-0.9l0.2,3.8l0,1.7l0-0.5l0-2.4l0.1-4.4l0.1-0.2
	l0.1,1l0-0.8l0,0.3h0l0.2,9.3l0.1,0.8l0,0.3l0-1.3l0,0.6l0.2-3.2l0,0.6l0.1-1.4l0-1.2l0,1l0.2-1.3l0,2.3l0.1,0.6l0,1.1l0,1l0.2-1.2
	l0,3.3l0-2.6l0.3-1.6l0-0.5l0-1.3l0.1,3.6l0-0.6l0.2,1.9l0-2.3l0,2.8l0,1.6l0.1-1.7l0.2-2.4l0-3.7l0,1.1l0-3.4l0.1,0.2l0.1,2.1
	l0.1-1.3l0-4.5l0,2l0-3.7l0.2-8.9l0.1,1.6l0,3.6l0-4.7l0,2.4l0.2,3.9l0-0.6l0.1,0.8l0-1.6l0-2.4l0.2-2.3l0,3.7l0.1,4.6l0-2.4l0-0.6
	l0.2-1.2l0,3.2l0,0.6l0.1,1.3l0-1.7l0.2,3.1l0,0.1l0-1.2l0.1,1l0,2.2l0.2,0.2l0-0.1l0,0.2l0-0.9l0.1,0.2l0.1-0.2l0.1-2.8l0-0.1
	l0-2.5l0.1,1.2l0.1,0.3l0.1,0.6l0-3.4l0,0.9l0,1.3l0.2-1.3l0.1-0.6l0,2.3l0,0.9l0,1.3l0.2-2.9l0-0.1l0.1,1.5l0.3,2l0-0.8l0.1,0.6
	l0-2.8l0.2,1l0,0.2l0,0.6l0.1-1.4l0,2l0.2-2.8l0,2.4l0,0.2l0.1-1.3l0,0.7l0.2-0.4l0,1.5l0,0.9l0,3.1l0.1-2l0.1,0.9l0.1-2l0-0.6
	l0,4.8l0.1,0.2l0.1-0.9l0.1-1.9l0-2.7l0,0.9l0,0.2l0.2-5.2l0-1.2l0.1-3.5l0,2.9l0,2.8l0.2-1.1l0,2.3l0.1,0.3l0,0.6l0,0.2l0.2-2.9
	l0,5.7l0-2.4l0.1,2.7l0-1.2l0.2-3.9l0-2.4l0,0.6l0.1,2.3l0-0.1l0.2,0.6l0,1.7l0-0.4l0,1.4l0.1-0.2l0.2-3.3l0,0.7l0,1.6l0-1.6
	l0.1-0.6l0.1-3l0.1,2.8l0,0.9l0-0.6l0.2,2.3l0.1-2.6l0-1.7l0-3.3l0,1l0.2,1.5l0,0.2l0.1-4.6l0,2.4l0-1l0.2-0.6l0-0.2l0.1,2.2l0-4.9
	l0,1.9l0.2,6.3l0,0.6l0-1.3l0.1,0.2l0,1.6l0.2-1.6l0-3.6l0,2.7l0.1,1.1l0-0.6l0.7,1.7l0-3.2l0.1,3.2l0.1-5l0.1,0.9l0-0.8l0-0.3
	l0,2.4l0.3,4.8l0-0.2l0-0.4l0-0.2l0.2-4.5l0,0.9l0.1-1.1l0-1.7l0-3.5l0.2-1.6l0,0.5l0.1,1.5l0,0.1l0,0.9l0.2-0.6l0-5.3l0-2L215,67
	l0-0.6l0.2-2.6l0,1.6l0,1.4l0.1,0.2l0.3-1.2l0-2.7l0,0.1l0.1-1L216,61l0-0.1l0-1.9l0-2.8l0.1,1.6l0.1,0.1l0.1-0.6l0-0.2l0,2.6l0-2.8
	l0.2-2.8l0.1-0.2l0,1l0,0.2l0.2,1.4l0,3.5l0.1,0.6l0-3.5l0-2.2l0.2,3.9l0,6.4l0.1,9.5l0-2.4l0,0.4l0.2,6.1l0-8.6l0,0.6l0.1,0.9
	l0-3.9l0.2-0.3l0-1.2l0,0.6l0.1,1.4l0,3.5l0.2-2.3l0,2l0-0.8l0-1.4l0.1-0.2l0.1,1.5l0.1-0.2l0,0.5l0-1.5l0.1,0.4l0.2-3l0-0.5l0-0.8
	l0,1.9l0.2,4.2L220,72l0-2.2l0,1.9l0,2l0.2,0.2l0-1.7l0.1-0.6l0-0.9l0-2.3l0.2-0.9l0,0.3l0.1-1.6l0-4.3l0,3.2l0.2-0.5l0,0.3l0-1.6
	l0.1,0.2l0,2.4l0.2-1.2l0,1.7l0,0.6l0.1,1.6l0-3.2l0.2-5.4l0-6.1l0,4.3l0,3.8l0.1-1.1l0.1-1.3l0.1-1.1l0,2.4l0-7.3l0.1,1.3l0.1,0.6
	l0.1,6.1l0-0.1l0,0.9l0-0.6l0.2-3.5l0-0.9l0.1,0.6l0,1.1l0-0.7l0.2-2.4l0,5.8l0.1-3.1l0-2.9l0-2.3l0.2-0.2l0,4l0,3.5l0.1,3.2l0-4.1
	l0.2-0.1l0,3.5l0,0.2l0.1-3.9l0,0.4l0.2-0.9l0-1.3l0-0.6l0.1,1.8l0,1.4l0.3,1.6l0,0.6l0.1-4.6l0.1-1.3l0.1,2.8l0,3.9l0-0.5l0.1,3
	h0.1l0.1-0.5l0-1.2l0,1.5l0,2.4l0.2,4.1l0.1,3.7l0,0.9l0-4.3l0.2,2.2l0-0.6l0.1,1.7l0-1.2l0-0.3l0.2,0.9l0-2.7l0-3.2l0.1-0.6l0,0.1
	l0.2-1.5l0-0.6l0-1l0.1,2.4l0-5.7l0.2-1l0-1.5l0,0.2l0,3.6l0.1,1.3l0.2-1.2l0,0.5l0-2l0-4.2l0.1-0.6l0.1,0.7l0.1,1.3l0,1.3l0,0.1
	l0.1-2.1"/>
</svg>
