<?xml version="1.0" encoding="utf-8"?>
<!-- Generator: Adobe Illustrator 26.0.1, SVG Export Plug-In . SVG Version: 6.00 Build 0)  -->
<svg version="1.1" id="Layer_3" xmlns="http://www.w3.org/2000/svg" xmlns:xlink="http://www.w3.org/1999/xlink" x="0px" y="0px"
	 viewBox="0 0 250 250" style="enable-background:new 0 0 250 250;" xml:space="preserve">
<style type="text/css">
	.st0{fill:none;stroke:#BCBEC0;stroke-width:0.5;}
	.st1{fill:#4D4D4F;}
	.st2{fill:#EEEEEE;}
	.st3{fill:none;stroke:#5C5B59;}
	.st4{fill:none;stroke:#B19E4E;stroke-linecap:round;stroke-linejoin:round;stroke-miterlimit:10;}
</style>
<line class="st0" x1="32.5" y1="17.5" x2="237.9" y2="17.5"/>
<line class="st0" x1="32.5" y1="194.7" x2="237.9" y2="194.7"/>
<path class="st1" d="M18.9,15.3l-1,0.3l-0.1-0.5l1.3-0.4h0.5v5.3h-0.6V15.3z M23,18.9h-2.5v-0.5l2.4-3.6h0.6v3.6h0.8v0.5h-0.8v1.2
	H23V18.9z M21.8,18.4H23v-2.7h0l-1.8,2.8C21.3,18.4,21.6,18.4,21.8,18.4z M25,17.4c0-1.3,0.5-2.8,2-2.8c1.4,0,2,1.4,2,2.8
	s-0.6,2.8-2,2.8C25.6,20.2,25,18.7,25,17.4z M28.4,17.4c0-1.3-0.4-2.3-1.4-2.3c-1,0-1.4,1-1.4,2.3s0.4,2.3,1.4,2.3
	C28,19.7,28.4,18.7,28.4,17.4z"/>
<path class="st1" d="M19.1,59.8l-1,0.3l-0.1-0.5l1.3-0.4h0.5v5.3h-0.6V59.8z M20.9,64.3c0.9-0.9,2.5-2.4,2.5-3.6c0-0.7-0.4-1-0.9-1
	c-0.6,0-0.9,0.3-1.2,0.5l-0.3-0.4c0.3-0.4,0.8-0.7,1.5-0.7c0.9,0,1.6,0.5,1.6,1.4c0,1.2-1.3,2.5-2.3,3.5c0,0,0.3,0,0.6,0h1.8v0.5
	h-3.3V64.3z M25,61.9c0-1.3,0.5-2.8,2-2.8c1.4,0,2,1.4,2,2.8s-0.6,2.8-2,2.8C25.6,64.7,25,63.3,25,61.9z M28.4,61.9
	c0-1.3-0.4-2.3-1.4-2.3c-1,0-1.4,1-1.4,2.3s0.4,2.3,1.4,2.3C28,64.2,28.4,63.2,28.4,61.9z"/>
<path class="st1" d="M18.3,104.1l-1,0.3l-0.1-0.5l1.3-0.4h0.5v5.3h-0.6V104.1z M20.1,106.2c0-1.3,0.5-2.8,2-2.8c1.4,0,2,1.4,2,2.8
	s-0.6,2.8-2,2.8C20.7,109,20.1,107.5,20.1,106.2z M23.5,106.2c0-1.3-0.4-2.3-1.4-2.3c-1,0-1.4,1-1.4,2.3s0.4,2.3,1.4,2.3
	C23.1,108.5,23.5,107.5,23.5,106.2z M25,106.2c0-1.3,0.5-2.8,2-2.8c1.4,0,2,1.4,2,2.8s-0.6,2.8-2,2.8C25.6,109,25,107.5,25,106.2z
	 M28.4,106.2c0-1.3-0.4-2.3-1.4-2.3c-1,0-1.4,1-1.4,2.3s0.4,2.3,1.4,2.3C28,108.5,28.4,107.5,28.4,106.2z"/>
<path class="st1" d="M21,152.6c0-0.7,0.7-1.2,1.1-1.5c-0.5-0.3-1-0.7-1-1.3c0-0.8,0.7-1.3,1.5-1.3c0.9,0,1.5,0.5,1.5,1.3
	c0,0.7-0.6,1-1.1,1.3c0.5,0.3,1.2,0.7,1.2,1.5c0,0.8-0.6,1.4-1.6,1.4C21.5,154,21,153.3,21,152.6z M23.6,152.5c0-0.6-0.6-1-1.1-1.2
	c-0.4,0.2-0.9,0.6-0.9,1.2c0,0.5,0.3,0.9,1,0.9C23.2,153.5,23.6,153.1,23.6,152.5z M23.5,149.8c0-0.4-0.3-0.8-0.8-0.8
	s-0.9,0.3-0.9,0.8c0,0.5,0.5,0.8,0.9,1C23,150.6,23.5,150.3,23.5,149.8z M25,151.2c0-1.3,0.5-2.8,2-2.8c1.4,0,2,1.4,2,2.8
	s-0.6,2.8-2,2.8C25.6,154,25,152.5,25,151.2z M28.4,151.2c0-1.3-0.4-2.3-1.4-2.3c-1,0-1.4,1-1.4,2.3s0.4,2.3,1.4,2.3
	C28,153.5,28.4,152.5,28.4,151.2z"/>
<path class="st1" d="M20.8,194.6c0-2,1.2-3.3,3.1-3.3l0.1,0.5c-0.8,0-1.4,0.2-1.9,0.6c-0.4,0.4-0.6,0.9-0.7,1.6
	c0.3-0.3,0.7-0.5,1.2-0.5c1,0,1.6,0.7,1.6,1.6s-0.6,1.7-1.7,1.7C21.3,196.9,20.8,195.7,20.8,194.6z M23.6,195.2
	c0-0.8-0.4-1.2-1.1-1.2c-0.5,0-0.8,0.2-1.1,0.5v0.1c0,1.1,0.4,1.8,1.2,1.8C23.3,196.4,23.6,195.8,23.6,195.2z M25,194.1
	c0-1.3,0.5-2.8,2-2.8c1.4,0,2,1.4,2,2.8s-0.6,2.8-2,2.8C25.6,196.9,25,195.4,25,194.1z M28.4,194.1c0-1.3-0.4-2.3-1.4-2.3
	c-1,0-1.4,1-1.4,2.3s0.4,2.3,1.4,2.3C28,196.4,28.4,195.4,28.4,194.1z"/>
<g>
	<path class="st1" d="M80.2,209.8l0.1-0.5c0.1,0,0.2,0.1,0.3,0.1c0.4,0,0.6-0.3,0.6-0.9v-5.3h0.6v5.4c0,0.9-0.4,1.4-1.2,1.4
		C80.4,209.9,80.2,209.9,80.2,209.8z"/>
</g>
<g>
	<path class="st1" d="M83.3,207.3v-2.7h0.6v2.6c0,0.5,0.2,0.8,0.7,0.8c0.6,0,1-0.6,1.1-0.7v-2.7h0.6v3c0,0.3,0,0.7,0.1,0.8h-0.6
		c0-0.1,0-0.4-0.1-0.6c-0.2,0.2-0.6,0.7-1.2,0.7C83.7,208.5,83.3,208,83.3,207.3z"/>
	<path class="st1" d="M87.7,202.6h0.6v5.8h-0.6V202.6z"/>
	<path class="st1" d="M89.5,205.9h1.6v0.5h-1.6V205.9z"/>
</g>
<path class="st1" d="M91.9,208.1c0.9-0.9,2.5-2.4,2.5-3.6c0-0.7-0.4-1-0.9-1c-0.6,0-0.9,0.3-1.2,0.5l-0.3-0.4
	c0.3-0.4,0.8-0.7,1.5-0.7c0.9,0,1.6,0.5,1.6,1.4c0,1.2-1.3,2.5-2.3,3.5c0,0,0.3,0,0.6,0h1.8v0.5h-3.3V208.1z M96,205.7
	c0-1.3,0.5-2.8,2-2.8c1.4,0,2,1.4,2,2.8s-0.6,2.8-2,2.8C96.6,208.5,96,207.1,96,205.7z M99.4,205.7c0-1.3-0.4-2.3-1.4-2.3
	c-1,0-1.4,1-1.4,2.3s0.4,2.3,1.4,2.3C99,208,99.4,207,99.4,205.7z"/>
<g>
	<path class="st1" d="M25.3,209.8l0.1-0.5c0.1,0,0.2,0.1,0.3,0.1c0.4,0,0.6-0.3,0.6-0.9v-5.3H27v5.4c0,0.9-0.4,1.4-1.2,1.4
		C25.6,209.9,25.4,209.9,25.3,209.8z"/>
</g>
<g>
	<path class="st1" d="M28.3,207.5c0-1,1.1-1.3,2-1.3h0.2v-0.4c0-0.6-0.2-0.8-0.8-0.8c-0.4,0-0.7,0.1-1,0.4l-0.3-0.4
		c0.4-0.4,0.8-0.5,1.4-0.5c0.8,0,1.3,0.4,1.3,1.3v1.8c0,0.4,0,0.7,0.1,0.9h-0.6c0-0.1,0-0.3-0.1-0.5c-0.3,0.3-0.7,0.6-1.2,0.6
		C28.7,208.5,28.3,208.1,28.3,207.5z M30.5,207.4v-0.9h-0.2c-0.8,0-1.4,0.2-1.4,0.9c0,0.4,0.3,0.5,0.6,0.5
		C29.9,208,30.2,207.8,30.5,207.4z"/>
	<path class="st1" d="M32.4,204.6H33v0.6c0.3-0.4,0.8-0.6,1.2-0.6c0.8,0,1.1,0.5,1.1,1.2v2.7h-0.6v-2.6c0-0.5-0.2-0.8-0.7-0.8
		c-0.4,0-0.8,0.3-1.1,0.7v2.7h-0.6V204.6z"/>
	<path class="st1" d="M36.5,205.9h1.6v0.5h-1.6V205.9z"/>
</g>
<path class="st1" d="M38.9,208.1c0.9-0.9,2.5-2.4,2.5-3.6c0-0.7-0.4-1-0.9-1c-0.6,0-0.9,0.3-1.2,0.5l-0.3-0.4
	c0.3-0.4,0.8-0.7,1.5-0.7c0.9,0,1.6,0.5,1.6,1.4c0,1.2-1.3,2.5-2.3,3.5c0,0,0.3,0,0.6,0h1.8v0.5h-3.3V208.1z M43.1,205.7
	c0-1.3,0.5-2.8,2-2.8c1.4,0,2,1.4,2,2.8s-0.6,2.8-2,2.8C43.6,208.5,43.1,207.1,43.1,205.7z M46.4,205.7c0-1.3-0.4-2.3-1.4-2.3
	c-1,0-1.4,1-1.4,2.3s0.4,2.3,1.4,2.3C46,208,46.4,207,46.4,205.7z"/>
<g>
	<path class="st1" d="M136.1,209.8l0.1-0.5c0.1,0,0.2,0.1,0.3,0.1c0.4,0,0.6-0.3,0.6-0.9v-5.3h0.6v5.4c0,0.9-0.4,1.4-1.2,1.4
		C136.3,209.9,136.2,209.9,136.1,209.8z"/>
</g>
<g>
	<path class="st1" d="M139,207.5c0-1,1.1-1.3,2-1.3h0.2v-0.4c0-0.6-0.2-0.8-0.8-0.8c-0.4,0-0.7,0.1-1,0.4l-0.3-0.4
		c0.4-0.4,0.8-0.5,1.4-0.5c0.8,0,1.3,0.4,1.3,1.3v1.8c0,0.4,0,0.7,0.1,0.9h-0.6c0-0.1,0-0.3-0.1-0.5c-0.3,0.3-0.7,0.6-1.2,0.6
		C139.5,208.5,139,208.1,139,207.5z M141.2,207.4v-0.9H141c-0.8,0-1.4,0.2-1.4,0.9c0,0.4,0.3,0.5,0.6,0.5
		C140.6,208,141,207.8,141.2,207.4z"/>
	<path class="st1" d="M143.2,204.6h0.6v0.6c0.3-0.4,0.8-0.6,1.2-0.6c0.8,0,1.1,0.5,1.1,1.2v2.7h-0.6v-2.6c0-0.5-0.2-0.8-0.7-0.8
		c-0.4,0-0.8,0.3-1.1,0.7v2.7h-0.6V204.6z"/>
	<path class="st1" d="M147.3,205.9h1.6v0.5h-1.6V205.9z"/>
</g>
<path class="st1" d="M149.7,208.1c0.9-0.9,2.5-2.4,2.5-3.6c0-0.7-0.4-1-0.9-1c-0.6,0-0.9,0.3-1.2,0.5l-0.3-0.4
	c0.3-0.4,0.8-0.7,1.5-0.7c0.9,0,1.6,0.5,1.6,1.4c0,1.2-1.3,2.5-2.3,3.5c0,0,0.3,0,0.6,0h1.8v0.5h-3.3V208.1z M154.8,203.6l-1,0.3
	l-0.1-0.5l1.3-0.4h0.5v5.3h-0.6V203.6z"/>
<g>
	<path class="st1" d="M192.2,209.8l0.1-0.5c0.1,0,0.2,0.1,0.3,0.1c0.4,0,0.6-0.3,0.6-0.9v-5.3h0.6v5.4c0,0.9-0.4,1.4-1.2,1.4
		C192.4,209.9,192.3,209.9,192.2,209.8z"/>
</g>
<g>
	<path class="st1" d="M195.4,207.3v-2.7h0.6v2.6c0,0.5,0.2,0.8,0.7,0.8c0.6,0,1-0.6,1.1-0.7v-2.7h0.6v3c0,0.3,0,0.7,0.1,0.8h-0.6
		c0-0.1,0-0.4-0.1-0.6c-0.2,0.2-0.6,0.7-1.2,0.7C195.7,208.5,195.4,208,195.4,207.3z"/>
	<path class="st1" d="M199.7,202.6h0.6v5.8h-0.6V202.6z"/>
	<path class="st1" d="M201.5,205.9h1.6v0.5h-1.6V205.9z"/>
</g>
<path class="st1" d="M203.9,208.1c0.9-0.9,2.5-2.4,2.5-3.6c0-0.7-0.4-1-0.9-1c-0.6,0-0.9,0.3-1.2,0.5l-0.3-0.4
	c0.3-0.4,0.8-0.7,1.5-0.7c0.9,0,1.6,0.5,1.6,1.4c0,1.2-1.3,2.5-2.3,3.5c0,0,0.3,0,0.6,0h1.8v0.5h-3.3V208.1z M209,203.6l-1,0.3
	l-0.1-0.5l1.3-0.4h0.5v5.3H209V203.6z"/>
<line class="st0" x1="201.4" y1="197.5" x2="201.4" y2="194.7"/>
<line class="st0" x1="146.2" y1="197.5" x2="146.2" y2="194.7"/>
<line class="st0" x1="90.4" y1="197.5" x2="90.4" y2="194.7"/>
<line class="st0" x1="34" y1="197.5" x2="34" y2="194.7"/>
<path class="st2" d="M91.2,163.5"/>
<path class="st3" d="M91.2,163.5"/>
<path class="st2" d="M91.2,160.7"/>
<path class="st3" d="M91.2,160.7"/>
<line class="st0" x1="34" y1="17.6" x2="34" y2="194.9"/>
<line class="st0" x1="238" y1="17.6" x2="238" y2="194.5"/>
<line class="st0" x1="32.2" y1="62.1" x2="237.9" y2="62.1"/>
<line class="st0" x1="32.2" y1="106.6" x2="237.9" y2="106.6"/>
<line class="st0" x1="32.2" y1="151.2" x2="237.9" y2="151.2"/>
<polyline class="st4" points="34.7,57.7 44,66.3 53.5,75.2 64.2,139.5 73.7,155.3 83.2,141.5 92.7,136.5 102.2,134.6 111.7,142.5 
	121.1,152.4 130.6,123.7 141.3,113.8 150.8,139.5 160.3,137.5 169.8,120.7 179.3,102.9 188.8,96 198.3,89.1 209,149.4 218.5,156.2 
	228,115.8 237.4,76.2 "/>
</svg>
