<?xml version="1.0" encoding="utf-8"?>
<!-- Generator: Adobe Illustrator 26.0.1, SVG Export Plug-In . SVG Version: 6.00 Build 0)  -->
<svg version="1.1" id="Layer_3" xmlns="http://www.w3.org/2000/svg" xmlns:xlink="http://www.w3.org/1999/xlink" x="0px" y="0px"
	 viewBox="0 0 250 250" style="enable-background:new 0 0 250 250;" xml:space="preserve">
<style type="text/css">
	.st0{fill:#4D4D4F;}
	.st1{fill:none;stroke:#B9B9B9;stroke-width:1.6;stroke-linejoin:round;}
	.st2{fill:none;stroke:#B19E4E;stroke-width:1.6;}
	.st3{fill:none;stroke:#BCBEC0;stroke-width:0.5;}
	.st4{fill:#B19E4E;}
	.st5{fill:#B9B9B9;}
	.st6{fill:#FFFFFF;}
</style>
<g>
	<path class="st0" d="M100.9,236.7h1.3c1.1,0,1.9,0.5,1.9,1.5s-0.7,1.6-2,1.6h-0.6v2.2h-0.6C100.9,242,100.9,236.7,100.9,236.7z
		 M102.1,239.4c0.9,0,1.3-0.4,1.3-1.1c0-0.6-0.4-1-1.3-1h-0.6v2.1H102.1z"/>
	<path class="st0" d="M104.7,241.1c0-1,1.1-1.3,2-1.3h0.2v-0.4c0-0.6-0.2-0.8-0.8-0.8c-0.4,0-0.7,0.1-1,0.4l-0.3-0.4
		c0.4-0.4,0.8-0.5,1.4-0.5c0.8,0,1.3,0.4,1.3,1.3v1.8c0,0.4,0,0.7,0.1,0.9H107c0-0.1,0-0.3-0.1-0.5c-0.3,0.3-0.7,0.6-1.2,0.6
		C105.2,242.1,104.7,241.7,104.7,241.1z M106.9,241.1v-0.9h-0.2c-0.8,0-1.4,0.2-1.4,0.9c0,0.4,0.3,0.5,0.6,0.5
		C106.3,241.6,106.7,241.4,106.9,241.1z"/>
	<path class="st0" d="M108.8,238.2h0.6v0.6c0.2-0.3,0.5-0.7,1-0.7c0.2,0,0.4,0.1,0.4,0.1l-0.1,0.6c0,0-0.1-0.1-0.3-0.1
		c-0.6,0-0.9,0.7-0.9,0.8v2.6h-0.6L108.8,238.2L108.8,238.2z"/>
	<path class="st0" d="M111.8,241.1v-2.5h-0.6v-0.5h0.6V237h0.6v1.1h1v0.5h-1v2.4c0,0.4,0.1,0.6,0.4,0.6c0.2,0,0.5-0.1,0.5-0.2
		l0.2,0.4c-0.1,0.1-0.4,0.2-0.8,0.2C112.1,242.1,111.8,241.8,111.8,241.1z"/>
	<path class="st0" d="M114.3,237.1c0-0.2,0.2-0.4,0.4-0.4s0.4,0.2,0.4,0.4s-0.2,0.4-0.4,0.4S114.3,237.3,114.3,237.1z M114.5,238.2
		h0.6v3.8h-0.6V238.2z"/>
	<path class="st0" d="M116.1,241.1c0-1,1.1-1.3,2-1.3h0.2v-0.4c0-0.6-0.2-0.8-0.8-0.8c-0.4,0-0.7,0.1-1,0.4l-0.3-0.4
		c0.4-0.4,0.8-0.5,1.4-0.5c0.8,0,1.3,0.4,1.3,1.3v1.8c0,0.4,0,0.7,0.1,0.9h-0.6c0-0.1,0-0.3-0.1-0.5c-0.3,0.3-0.7,0.6-1.2,0.6
		C116.6,242.1,116.1,241.7,116.1,241.1z M118.3,241.1v-0.9h-0.2c-0.8,0-1.4,0.2-1.4,0.9c0,0.4,0.3,0.5,0.6,0.5
		C117.7,241.6,118.1,241.4,118.3,241.1z"/>
	<path class="st0" d="M120.2,236.3h0.6v5.8h-0.6V236.3z"/>
	<path class="st0" d="M122.2,236.3h0.6v5.8h-0.6V236.3z"/>
	<path class="st0" d="M123.5,243.9l0.1-0.5c0.1,0,0.1,0,0.3,0c0.5,0,0.8-0.3,1-0.9l0.2-0.5l-1.4-3.8h0.7l1.1,3.1l0,0l1.1-3.1h0.6
		l-1.6,4.3c-0.3,0.7-0.6,1.3-1.5,1.3C123.7,243.9,123.6,243.9,123.5,243.9z"/>
	<path class="st0" d="M129.1,236.7h0.7l1.4,3.7c0.2,0.4,0.3,0.8,0.3,0.9l0,0c0.1-0.2,0.2-0.5,0.3-0.9l1.3-3.7h0.6l-2,5.3h-0.6
		L129.1,236.7z"/>
	<path class="st0" d="M134,241.1c0-1,1.1-1.3,2-1.3h0.2v-0.4c0-0.6-0.2-0.8-0.8-0.8c-0.4,0-0.7,0.1-1,0.4l-0.3-0.4
		c0.4-0.4,0.8-0.5,1.4-0.5c0.8,0,1.3,0.4,1.3,1.3v1.8c0,0.4,0,0.7,0.1,0.9h-0.6c0-0.1,0-0.3-0.1-0.5c-0.3,0.3-0.7,0.6-1.2,0.6
		C134.5,242.1,134,241.7,134,241.1z M136.2,241.1v-0.9H136c-0.8,0-1.4,0.2-1.4,0.9c0,0.4,0.3,0.5,0.6,0.5
		C135.6,241.6,136,241.4,136.2,241.1z"/>
	<path class="st0" d="M137.7,240.1c0-1.3,0.8-2,1.8-2c0.6,0,1,0.2,1.2,0.4l-0.3,0.4c-0.2-0.2-0.5-0.3-0.9-0.3
		c-0.8,0-1.1,0.7-1.1,1.5s0.4,1.5,1.2,1.5c0.5,0,0.8-0.2,0.9-0.3l0.2,0.4c-0.2,0.1-0.5,0.4-1.2,0.4
		C138.4,242.1,137.7,241.2,137.7,240.1z"/>
	<path class="st0" d="M141.3,240.1c0-1.3,0.8-2,1.8-2c0.6,0,1,0.2,1.2,0.4l-0.3,0.4c-0.2-0.2-0.5-0.3-0.9-0.3
		c-0.8,0-1.1,0.7-1.1,1.5s0.4,1.5,1.2,1.5c0.5,0,0.8-0.2,0.9-0.3l0.2,0.4c-0.2,0.1-0.5,0.4-1.2,0.4
		C141.9,242.1,141.3,241.2,141.3,240.1z"/>
	<path class="st0" d="M145,237.1c0-0.2,0.2-0.4,0.4-0.4s0.4,0.2,0.4,0.4s-0.2,0.4-0.4,0.4S145,237.3,145,237.1z M145.2,238.2h0.6
		v3.8h-0.6V238.2z"/>
	<path class="st0" d="M147.1,238.2h0.6v0.6c0.3-0.4,0.8-0.6,1.2-0.6c0.8,0,1.1,0.5,1.1,1.2v2.7h-0.6v-2.6c0-0.5-0.2-0.8-0.7-0.8
		c-0.4,0-0.8,0.3-1.1,0.7v2.7H147v-3.9H147.1z"/>
	<path class="st0" d="M151.1,241.1c0-1,1.1-1.3,2-1.3h0.2v-0.4c0-0.6-0.2-0.8-0.8-0.8c-0.4,0-0.7,0.1-1,0.4l-0.3-0.4
		c0.4-0.4,0.8-0.5,1.4-0.5c0.8,0,1.3,0.4,1.3,1.3v1.8c0,0.4,0,0.7,0.1,0.9h-0.6c0-0.1,0-0.3-0.1-0.5c-0.3,0.3-0.7,0.6-1.2,0.6
		C151.5,242.1,151.1,241.7,151.1,241.1z M153.3,241.1v-0.9h-0.2c-0.8,0-1.4,0.2-1.4,0.9c0,0.4,0.3,0.5,0.6,0.5
		C152.7,241.6,153,241.4,153.3,241.1z"/>
	<path class="st0" d="M155.3,241.1v-2.5h-0.6v-0.5h0.6V237h0.6v1.1h1v0.5h-1v2.4c0,0.4,0.1,0.6,0.4,0.6c0.2,0,0.5-0.1,0.5-0.2
		l0.2,0.4c-0.1,0.1-0.4,0.2-0.8,0.2C155.6,242.1,155.3,241.8,155.3,241.1z"/>
	<path class="st0" d="M157.5,240.1c0-1.1,0.7-2,1.7-2s1.5,0.7,1.5,1.7c0,0.1,0,0.2,0,0.3h-2.6c0,0.8,0.3,1.5,1.2,1.5
		c0.5,0,0.9-0.2,1.1-0.3l0.2,0.5c-0.2,0.1-0.6,0.4-1.3,0.4C158.1,242.1,157.5,241.2,157.5,240.1z M160.2,239.7c0-0.5-0.3-1-0.9-1
		c-0.6,0-1,0.4-1.1,1H160.2z"/>
	<path class="st0" d="M161.4,240.1c0-1.2,0.7-2,1.7-2c0.4,0,0.7,0.1,1,0.3v-2.2h0.6v5c0,0.3,0,0.6,0.1,0.8h-0.6
		c0-0.1-0.1-0.3-0.1-0.4c-0.3,0.3-0.6,0.5-1.1,0.5C162.1,242.1,161.4,241.4,161.4,240.1z M164.1,241.1V239c-0.2-0.2-0.5-0.4-0.9-0.4
		c-0.7,0-1.1,0.6-1.1,1.5s0.3,1.5,1.1,1.5C163.5,241.6,163.9,241.4,164.1,241.1z"/>
</g>
<line class="st1" x1="91.4" y1="239.5" x2="97.4" y2="239.5"/>
<g>
	<path class="st0" d="M9.5,236.7h2.8v0.5h-2.2v1.7H12v0.5h-1.9v2.6H9.5V236.7z"/>
	<path class="st0" d="M13,240.9v-2.7h0.6v2.6c0,0.5,0.2,0.8,0.7,0.8c0.6,0,1-0.6,1.1-0.7v-2.7H16v3c0,0.3,0,0.7,0.1,0.8h-0.6
		c0-0.1,0-0.4-0.1-0.6c-0.2,0.2-0.6,0.7-1.2,0.7C13.3,242.1,13,241.6,13,240.9z"/>
	<path class="st0" d="M17.3,236.3h0.6v5.8h-0.6V236.3z"/>
	<path class="st0" d="M19.3,236.3h0.6v5.8h-0.6V236.3z"/>
	<path class="st0" d="M20.7,243.9l0.1-0.5c0.1,0,0.1,0,0.3,0c0.5,0,0.8-0.3,1-0.9l0.2-0.5l-1.4-3.8h0.7l1.1,3.1l0,0l1.1-3.1h0.6
		l-1.6,4.3c-0.3,0.7-0.6,1.3-1.5,1.3C20.8,243.9,20.7,243.9,20.7,243.9z"/>
	<path class="st0" d="M26.3,236.7H27l1.4,3.7c0.2,0.4,0.3,0.8,0.3,0.9l0,0c0.1-0.2,0.2-0.5,0.3-0.9l1.3-3.7h0.6l-2,5.3h-0.6
		L26.3,236.7z"/>
	<path class="st0" d="M31.1,241.1c0-1,1.1-1.3,2-1.3h0.2v-0.4c0-0.6-0.2-0.8-0.8-0.8c-0.4,0-0.7,0.1-1,0.4l-0.3-0.4
		c0.4-0.4,0.8-0.5,1.4-0.5c0.8,0,1.3,0.4,1.3,1.3v1.8c0,0.4,0,0.7,0.1,0.9h-0.6c0-0.1,0-0.3-0.1-0.5c-0.3,0.3-0.7,0.6-1.2,0.6
		C31.6,242.1,31.1,241.7,31.1,241.1z M33.3,241.1v-0.9h-0.2c-0.8,0-1.4,0.2-1.4,0.9c0,0.4,0.3,0.5,0.6,0.5
		C32.7,241.6,33.1,241.4,33.3,241.1z"/>
	<path class="st0" d="M34.9,240.1c0-1.3,0.8-2,1.8-2c0.6,0,1,0.2,1.2,0.4l-0.3,0.4c-0.2-0.2-0.5-0.3-0.9-0.3c-0.8,0-1.1,0.7-1.1,1.5
		s0.4,1.5,1.2,1.5c0.5,0,0.8-0.2,0.9-0.3l0.2,0.4c-0.2,0.1-0.5,0.4-1.2,0.4C35.5,242.1,34.9,241.2,34.9,240.1z"/>
	<path class="st0" d="M38.4,240.1c0-1.3,0.8-2,1.8-2c0.6,0,1,0.2,1.2,0.4l-0.3,0.4c-0.2-0.2-0.5-0.3-0.9-0.3c-0.8,0-1.1,0.7-1.1,1.5
		s0.4,1.5,1.2,1.5c0.5,0,0.8-0.2,0.9-0.3l0.2,0.4c-0.2,0.1-0.5,0.4-1.2,0.4C39,242.1,38.4,241.2,38.4,240.1z"/>
	<path class="st0" d="M42.2,237.1c0-0.2,0.2-0.4,0.4-0.4s0.4,0.2,0.4,0.4s-0.2,0.4-0.4,0.4S42.2,237.3,42.2,237.1z M42.3,238.2h0.6
		v3.8h-0.6V238.2z"/>
	<path class="st0" d="M44.2,238.2h0.6v0.6c0.3-0.4,0.8-0.6,1.2-0.6c0.8,0,1.1,0.5,1.1,1.2v2.7h-0.6v-2.6c0-0.5-0.2-0.8-0.7-0.8
		c-0.4,0-0.8,0.3-1.1,0.7v2.7h-0.6L44.2,238.2L44.2,238.2z"/>
	<path class="st0" d="M48.2,241.1c0-1,1.1-1.3,2-1.3h0.2v-0.4c0-0.6-0.2-0.8-0.8-0.8c-0.4,0-0.7,0.1-1,0.4l-0.3-0.4
		c0.4-0.4,0.8-0.5,1.4-0.5c0.8,0,1.3,0.4,1.3,1.3v1.8c0,0.4,0,0.7,0.1,0.9h-0.6c0-0.1,0-0.3-0.1-0.5c-0.3,0.3-0.7,0.6-1.2,0.6
		C48.6,242.1,48.2,241.7,48.2,241.1z M50.4,241.1v-0.9h-0.2c-0.8,0-1.4,0.2-1.4,0.9c0,0.4,0.3,0.5,0.6,0.5
		C49.8,241.6,50.1,241.4,50.4,241.1z"/>
	<path class="st0" d="M52.4,241.1v-2.5h-0.6v-0.5h0.6V237H53v1.1h1v0.5h-1v2.4c0,0.4,0.1,0.6,0.4,0.6c0.2,0,0.5-0.1,0.5-0.2l0.2,0.4
		c-0.1,0.1-0.4,0.2-0.8,0.2C52.7,242.1,52.4,241.8,52.4,241.1z"/>
	<path class="st0" d="M54.6,240.1c0-1.1,0.7-2,1.7-2s1.5,0.7,1.5,1.7c0,0.1,0,0.2,0,0.3h-2.6c0,0.8,0.3,1.5,1.2,1.5
		c0.5,0,0.9-0.2,1.1-0.3l0.2,0.5c-0.2,0.1-0.6,0.4-1.3,0.4C55.2,242.1,54.6,241.2,54.6,240.1z M57.3,239.7c0-0.5-0.3-1-0.9-1
		c-0.6,0-1,0.4-1.1,1H57.3z"/>
	<path class="st0" d="M58.6,240.1c0-1.2,0.7-2,1.7-2c0.4,0,0.7,0.1,1,0.3v-2.2h0.6v5c0,0.3,0,0.6,0.1,0.8h-0.6
		c0-0.1-0.1-0.3-0.1-0.4c-0.3,0.3-0.6,0.5-1.1,0.5C59.2,242.1,58.6,241.4,58.6,240.1z M61.2,241.1V239c-0.2-0.2-0.5-0.4-0.9-0.4
		c-0.7,0-1.1,0.6-1.1,1.5s0.3,1.5,1.1,1.5C60.6,241.6,61,241.4,61.2,241.1z"/>
</g>
<line class="st2" x1="0.1" y1="238.9" x2="6.1" y2="238.9"/>
<line class="st3" x1="232.4" y1="11.4" x2="232.4" y2="207.7"/>
<line class="st3" x1="52.2" y1="204.3" x2="232.5" y2="204.3"/>
<line class="st3" x1="52.2" y1="11.5" x2="232.5" y2="11.5"/>
<line class="st3" x1="196.4" y1="11.4" x2="196.4" y2="207.7"/>
<line class="st3" x1="160.5" y1="11.4" x2="160.5" y2="207.7"/>
<line class="st3" x1="124.4" y1="11.4" x2="124.4" y2="207.7"/>
<line class="st3" x1="88.4" y1="11.4" x2="88.4" y2="207.7"/>
<line class="st3" x1="52.5" y1="11.4" x2="52.5" y2="207.7"/>
<path class="st0" d="M47.7,213.7c0-1.3,0.5-2.8,2-2.8c1.4,0,2,1.4,2,2.8s-0.6,2.8-2,2.8C48.2,216.5,47.7,215,47.7,213.7z M51,213.7
	c0-1.3-0.4-2.3-1.4-2.3s-1.4,1-1.4,2.3s0.4,2.3,1.4,2.3S51,215,51,213.7z M52.5,216c0-0.3,0.2-0.5,0.5-0.5s0.5,0.2,0.5,0.5
	s-0.2,0.5-0.5,0.5S52.5,216.3,52.5,216z M54.2,213.7c0-1.3,0.5-2.8,2-2.8c1.4,0,2,1.4,2,2.8s-0.6,2.8-2,2.8S54.2,215,54.2,213.7z
	 M57.6,213.7c0-1.3-0.4-2.3-1.4-2.3s-1.4,1-1.4,2.3s0.4,2.3,1.4,2.3C57.2,216,57.6,215,57.6,213.7z M58.9,212.3
	c0-0.6,0.4-1.3,1.4-1.3s1.4,0.7,1.4,1.3s-0.4,1.3-1.4,1.3C59.3,213.7,58.9,212.9,58.9,212.3z M61.1,212.3c0-0.5-0.3-0.9-0.9-0.9
	s-0.9,0.4-0.9,0.9s0.3,0.9,0.9,0.9S61.1,212.8,61.1,212.3z M63.3,211.1h0.6l-3.4,5.3h-0.6L63.3,211.1z M62.2,215.1
	c0-0.6,0.4-1.3,1.4-1.3c1,0,1.4,0.7,1.4,1.3s-0.4,1.3-1.4,1.3C62.6,216.5,62.2,215.7,62.2,215.1z M64.4,215.1c0-0.5-0.3-0.9-0.9-0.9
	s-0.9,0.4-0.9,0.9s0.3,0.9,0.9,0.9C64.1,216,64.4,215.6,64.4,215.1z"/>
<path class="st0" d="M78.1,216.1c0.9-0.9,2.5-2.4,2.5-3.6c0-0.7-0.4-1-0.9-1c-0.6,0-0.9,0.3-1.2,0.5l-0.3-0.4
	c0.3-0.4,0.8-0.7,1.5-0.7c0.9,0,1.6,0.5,1.6,1.4c0,1.2-1.3,2.5-2.3,3.5c0,0,0.3,0,0.6,0h1.8v0.5h-3.3
	C78.1,216.3,78.1,216.1,78.1,216.1z M82.2,213.7c0-1.3,0.5-2.8,2-2.8c1.4,0,2,1.4,2,2.8s-0.6,2.8-2,2.8
	C82.8,216.5,82.2,215,82.2,213.7z M85.6,213.7c0-1.3-0.4-2.3-1.4-2.3s-1.4,1-1.4,2.3s0.4,2.3,1.4,2.3S85.6,215,85.6,213.7z M87,216
	c0-0.3,0.2-0.5,0.5-0.5s0.5,0.2,0.5,0.5s-0.2,0.5-0.5,0.5S87,216.3,87,216z M88.8,213.7c0-1.3,0.5-2.8,2-2.8c1.4,0,2,1.4,2,2.8
	s-0.6,2.8-2,2.8C89.3,216.5,88.8,215,88.8,213.7z M92.1,213.7c0-1.3-0.4-2.3-1.4-2.3s-1.4,1-1.4,2.3s0.4,2.3,1.4,2.3
	S92.1,215,92.1,213.7z M93.4,212.3c0-0.6,0.4-1.3,1.4-1.3s1.4,0.7,1.4,1.3s-0.4,1.3-1.4,1.3C93.8,213.7,93.4,212.9,93.4,212.3z
	 M95.6,212.3c0-0.5-0.3-0.9-0.9-0.9s-0.9,0.4-0.9,0.9s0.3,0.9,0.9,0.9C95.3,213.2,95.6,212.8,95.6,212.3z M97.9,211.1h0.6l-3.4,5.3
	h-0.6L97.9,211.1z M96.8,215.1c0-0.6,0.4-1.3,1.4-1.3s1.4,0.7,1.4,1.3s-0.4,1.3-1.4,1.3C97.2,216.5,96.8,215.7,96.8,215.1z
	 M99,215.1c0-0.5-0.3-0.9-0.9-0.9s-0.9,0.4-0.9,0.9s0.3,0.9,0.9,0.9S99,215.6,99,215.1z"/>
<path class="st0" d="M119,215.2h-2.5v-0.5l2.4-3.6h0.6v3.6h0.8v0.5h-0.8v1.2H119V215.2z M117.8,214.7h1.2V212l0,0l-1.8,2.8
	C117.2,214.7,117.5,214.7,117.8,214.7z M120.9,213.7c0-1.3,0.5-2.8,2-2.8c1.4,0,2,1.4,2,2.8s-0.6,2.8-2,2.8
	C121.4,216.5,120.9,215,120.9,213.7z M124.3,213.7c0-1.3-0.4-2.3-1.4-2.3s-1.4,1-1.4,2.3s0.4,2.3,1.4,2.3
	C123.8,216,124.3,215,124.3,213.7z M125.7,216c0-0.3,0.2-0.5,0.5-0.5s0.5,0.2,0.5,0.5s-0.2,0.5-0.5,0.5
	C125.9,216.5,125.7,216.3,125.7,216z M127.4,213.7c0-1.3,0.5-2.8,2-2.8c1.4,0,2,1.4,2,2.8s-0.6,2.8-2,2.8S127.4,215,127.4,213.7z
	 M130.8,213.7c0-1.3-0.4-2.3-1.4-2.3s-1.4,1-1.4,2.3s0.4,2.3,1.4,2.3C130.4,216,130.8,215,130.8,213.7z M132.1,212.3
	c0-0.6,0.4-1.3,1.4-1.3s1.4,0.7,1.4,1.3s-0.4,1.3-1.4,1.3C132.5,213.7,132.1,212.9,132.1,212.3z M134.3,212.3c0-0.5-0.3-0.9-0.9-0.9
	s-0.9,0.4-0.9,0.9s0.3,0.9,0.9,0.9S134.3,212.8,134.3,212.3z M136.6,211.1h0.6l-3.4,5.3h-0.6L136.6,211.1z M135.4,215.1
	c0-0.6,0.4-1.3,1.4-1.3s1.4,0.7,1.4,1.3s-0.4,1.3-1.4,1.3C135.8,216.5,135.4,215.7,135.4,215.1z M137.7,215.1c0-0.5-0.3-0.9-0.9-0.9
	s-0.9,0.4-0.9,0.9s0.3,0.9,0.9,0.9C137.3,216,137.7,215.6,137.7,215.1z"/>
<path class="st0" d="M153.3,214.2c0-2,1.2-3.3,3.1-3.3l0.1,0.5c-0.8,0-1.4,0.2-1.9,0.6c-0.4,0.4-0.6,0.9-0.7,1.6
	c0.3-0.3,0.7-0.5,1.2-0.5c1,0,1.6,0.7,1.6,1.6s-0.6,1.7-1.7,1.7C153.8,216.5,153.3,215.3,153.3,214.2z M156.1,214.8
	c0-0.8-0.4-1.2-1.1-1.2c-0.5,0-0.8,0.2-1.1,0.5v0.1c0,1.1,0.4,1.8,1.2,1.8C155.8,216,156.1,215.4,156.1,214.8z M157.4,213.7
	c0-1.3,0.5-2.8,2-2.8c1.4,0,2,1.4,2,2.8s-0.6,2.8-2,2.8S157.4,215,157.4,213.7z M160.8,213.7c0-1.3-0.4-2.3-1.4-2.3s-1.4,1-1.4,2.3
	s0.4,2.3,1.4,2.3C160.4,216,160.8,215,160.8,213.7z M162.2,216c0-0.3,0.2-0.5,0.5-0.5s0.5,0.2,0.5,0.5s-0.2,0.5-0.5,0.5
	S162.2,216.3,162.2,216z M164,213.7c0-1.3,0.5-2.8,2-2.8c1.4,0,2,1.4,2,2.8s-0.6,2.8-2,2.8C164.5,216.5,164,215,164,213.7z
	 M167.4,213.7c0-1.3-0.4-2.3-1.4-2.3s-1.4,1-1.4,2.3s0.4,2.3,1.4,2.3C166.9,216,167.4,215,167.4,213.7z M168.6,212.3
	c0-0.6,0.4-1.3,1.4-1.3s1.4,0.7,1.4,1.3s-0.4,1.3-1.4,1.3C169,213.7,168.6,212.9,168.6,212.3z M170.9,212.3c0-0.5-0.3-0.9-0.9-0.9
	s-0.9,0.4-0.9,0.9s0.3,0.9,0.9,0.9C170.5,213.2,170.9,212.8,170.9,212.3z M173.1,211.1h0.6l-3.4,5.3h-0.6L173.1,211.1z M172,215.1
	c0-0.6,0.4-1.3,1.4-1.3s1.4,0.7,1.4,1.3s-0.4,1.3-1.4,1.3C172.4,216.5,172,215.7,172,215.1z M174.2,215.1c0-0.5-0.3-0.9-0.9-0.9
	s-0.9,0.4-0.9,0.9s0.3,0.9,0.9,0.9S174.2,215.6,174.2,215.1z"/>
<path class="st0" d="M188.8,215.1c0-0.7,0.7-1.2,1.1-1.5c-0.5-0.3-1-0.7-1-1.3c0-0.8,0.7-1.3,1.5-1.3c0.9,0,1.5,0.5,1.5,1.3
	c0,0.7-0.6,1-1.1,1.3c0.5,0.3,1.2,0.7,1.2,1.5s-0.6,1.4-1.6,1.4C189.3,216.5,188.8,215.8,188.8,215.1z M191.4,215.1
	c0-0.6-0.6-1-1.1-1.2c-0.4,0.2-0.9,0.6-0.9,1.2c0,0.5,0.3,0.9,1,0.9C191,216,191.4,215.6,191.4,215.1z M191.3,212.3
	c0-0.4-0.3-0.8-0.8-0.8s-0.9,0.3-0.9,0.8s0.5,0.8,0.9,1C190.8,213.1,191.3,212.8,191.3,212.3z M192.7,213.7c0-1.3,0.5-2.8,2-2.8
	c1.4,0,2,1.4,2,2.8s-0.6,2.8-2,2.8S192.7,215,192.7,213.7z M196.1,213.7c0-1.3-0.4-2.3-1.4-2.3s-1.4,1-1.4,2.3s0.4,2.3,1.4,2.3
	C195.7,216,196.1,215,196.1,213.7z M197.5,216c0-0.3,0.2-0.5,0.5-0.5s0.5,0.2,0.5,0.5s-0.2,0.5-0.5,0.5S197.5,216.3,197.5,216z
	 M199.3,213.7c0-1.3,0.5-2.8,2-2.8c1.4,0,2,1.4,2,2.8s-0.6,2.8-2,2.8C199.8,216.5,199.3,215,199.3,213.7z M202.6,213.7
	c0-1.3-0.4-2.3-1.4-2.3s-1.4,1-1.4,2.3s0.4,2.3,1.4,2.3C202.2,216,202.6,215,202.6,213.7z M203.9,212.3c0-0.6,0.4-1.3,1.4-1.3
	s1.4,0.7,1.4,1.3s-0.4,1.3-1.4,1.3C204.3,213.7,203.9,212.9,203.9,212.3z M206.2,212.3c0-0.5-0.3-0.9-0.9-0.9s-0.9,0.4-0.9,0.9
	s0.3,0.9,0.9,0.9C205.8,213.2,206.2,212.8,206.2,212.3z M208.4,211.1h0.6l-3.4,5.3H205L208.4,211.1z M207.3,215.1
	c0-0.6,0.4-1.3,1.4-1.3s1.4,0.7,1.4,1.3s-0.4,1.3-1.4,1.3C207.7,216.5,207.3,215.7,207.3,215.1z M209.5,215.1c0-0.5-0.3-0.9-0.9-0.9
	s-0.9,0.4-0.9,0.9s0.3,0.9,0.9,0.9S209.5,215.6,209.5,215.1z"/>
<path class="st0" d="M219.9,211.6l-1,0.3l-0.1-0.5l1.3-0.4h0.5v5.3H220L219.9,211.6L219.9,211.6z M221.3,213.7c0-1.3,0.5-2.8,2-2.8
	c1.4,0,2,1.4,2,2.8s-0.6,2.8-2,2.8C221.9,216.5,221.3,215,221.3,213.7z M224.7,213.7c0-1.3-0.4-2.3-1.4-2.3s-1.4,1-1.4,2.3
	s0.4,2.3,1.4,2.3S224.7,215,224.7,213.7z M225.9,213.7c0-1.3,0.5-2.8,2-2.8c1.4,0,2,1.4,2,2.8s-0.6,2.8-2,2.8
	C226.4,216.5,225.9,215,225.9,213.7z M229.2,213.7c0-1.3-0.4-2.3-1.4-2.3s-1.4,1-1.4,2.3s0.4,2.3,1.4,2.3S229.2,215,229.2,213.7z
	 M230.4,216c0-0.3,0.2-0.5,0.5-0.5s0.5,0.2,0.5,0.5s-0.2,0.5-0.5,0.5S230.4,216.3,230.4,216z M231.9,213.7c0-1.3,0.5-2.8,2-2.8
	c1.4,0,2,1.4,2,2.8s-0.6,2.8-2,2.8C232.4,216.5,231.9,215,231.9,213.7z M235.2,213.7c0-1.3-0.4-2.3-1.4-2.3s-1.4,1-1.4,2.3
	s0.4,2.3,1.4,2.3S235.2,215,235.2,213.7z M236.2,212.3c0-0.6,0.4-1.3,1.4-1.3s1.4,0.7,1.4,1.3s-0.4,1.3-1.4,1.3
	C236.6,213.7,236.2,212.9,236.2,212.3z M238.5,212.3c0-0.5-0.3-0.9-0.9-0.9s-0.9,0.4-0.9,0.9s0.3,0.9,0.9,0.9
	C238.1,213.2,238.5,212.8,238.5,212.3z M240.7,211.1h0.6l-3.4,5.3h-0.6L240.7,211.1z M239.6,215.1c0-0.6,0.4-1.3,1.4-1.3
	s1.4,0.7,1.4,1.3s-0.4,1.3-1.4,1.3C240,216.5,239.6,215.7,239.6,215.1z M241.8,215.1c0-0.5-0.3-0.9-0.9-0.9s-0.9,0.4-0.9,0.9
	s0.3,0.9,0.9,0.9S241.8,215.6,241.8,215.1z"/>
<g>
	<path class="st0" d="M14.7,24.4L15,24c0.1,0.1,0.5,0.5,1.2,0.5s1.1-0.4,1.1-0.9c0-0.6-0.6-0.9-1.2-1.2c-0.6-0.3-1.2-0.7-1.2-1.5
		c0-0.9,0.7-1.4,1.6-1.4c0.8,0,1.2,0.3,1.4,0.4l-0.3,0.5c-0.2-0.1-0.5-0.4-1.1-0.4c-0.5,0-0.9,0.3-0.9,0.8s0.4,0.8,1,1
		c0.7,0.3,1.5,0.7,1.5,1.7c0,0.8-0.7,1.4-1.7,1.4C15.4,25,14.9,24.6,14.7,24.4z"/>
	<path class="st0" d="M19,19.9c0-0.2,0.2-0.4,0.4-0.4s0.4,0.2,0.4,0.4s-0.2,0.4-0.4,0.4S19,20.1,19,19.9z M19.1,21h0.6v3.8h-0.6V21z
		"/>
	<path class="st0" d="M21.1,21h0.6v0.6c0.3-0.4,0.8-0.6,1.2-0.6c0.8,0,1.1,0.5,1.1,1.2v2.7h-0.6v-2.6c0-0.5-0.2-0.8-0.7-0.8
		c-0.4,0-0.8,0.3-1.1,0.7v2.7H21V21H21.1z"/>
	<path class="st0" d="M25.2,25.7c0-0.4,0.3-0.8,0.7-1c-0.2-0.1-0.3-0.3-0.3-0.6c0-0.3,0.2-0.5,0.4-0.6c-0.4-0.2-0.7-0.7-0.7-1.2
		c0-0.8,0.6-1.4,1.5-1.4c0.2,0,0.4,0,0.6,0.1h1.2v0.5H28c0.2,0.2,0.3,0.5,0.3,0.8c0,0.8-0.6,1.4-1.5,1.4c-0.2,0-0.3,0-0.4,0
		C26.1,23.8,26,23.9,26,24c0,0.2,0.2,0.3,0.5,0.3c0.8,0,2,0,2,1.2c0,0.8-0.9,1.3-1.9,1.3C25.8,26.8,25.2,26.4,25.2,25.7z M28,25.5
		c0-0.6-0.5-0.6-1-0.6c-0.2,0-0.5,0-0.7-0.1c-0.4,0.2-0.5,0.5-0.5,0.8c0,0.4,0.3,0.7,1,0.7S28,26,28,25.5z M27.6,22.3
		c0-0.5-0.3-0.9-0.9-0.9s-0.9,0.4-0.9,0.9s0.3,0.9,0.9,0.9S27.6,22.9,27.6,22.3z"/>
	<path class="st0" d="M29.3,23.9c0-1,1.1-1.3,2-1.3h0.2v-0.4c0-0.6-0.2-0.8-0.8-0.8c-0.4,0-0.7,0.1-1,0.4l-0.3-0.4
		c0.4-0.4,0.8-0.5,1.4-0.5c0.8,0,1.3,0.4,1.3,1.3V24c0,0.4,0,0.7,0.1,0.9h-0.6c0-0.1,0-0.3-0.1-0.5c-0.3,0.3-0.7,0.6-1.2,0.6
		C29.7,25,29.3,24.6,29.3,23.9z M31.5,23.9V23h-0.2c-0.8,0-1.4,0.2-1.4,0.9c0,0.4,0.3,0.5,0.6,0.5C30.9,24.5,31.2,24.2,31.5,23.9z"
		/>
	<path class="st0" d="M33.4,21H34v0.4c0.2-0.2,0.6-0.5,1.1-0.5c0.9,0,1.6,0.7,1.6,2c0,1.2-0.7,2-1.7,2c-0.5,0-0.8-0.2-1-0.3v2h-0.6
		C33.4,26.6,33.4,21,33.4,21z M36,23c0-0.9-0.3-1.5-1.1-1.5c-0.5,0-0.9,0.4-1,0.5v2.1c0.2,0.2,0.4,0.4,0.9,0.4
		C35.6,24.5,36,23.8,36,23z"/>
	<path class="st0" d="M37.4,23c0-0.9,0.5-2,1.8-2s1.8,1.1,1.8,2s-0.5,2-1.8,2S37.4,23.8,37.4,23z M40.3,23c0-0.8-0.4-1.5-1.2-1.5
		S38,22.2,38,23s0.4,1.5,1.2,1.5S40.3,23.8,40.3,23z"/>
	<path class="st0" d="M42,21h0.6v0.6c0.2-0.3,0.5-0.7,1-0.7c0.2,0,0.4,0.1,0.4,0.1l-0.1,0.6c0,0-0.1-0.1-0.3-0.1
		c-0.6,0-0.9,0.7-0.9,0.8v2.6H42V21z"/>
	<path class="st0" d="M44.5,22.9c0-1.1,0.7-2,1.7-2s1.5,0.7,1.5,1.7c0,0.1,0,0.2,0,0.3h-2.6c0,0.8,0.3,1.5,1.2,1.5
		c0.5,0,0.9-0.2,1.1-0.3l0.2,0.5C47.4,24.7,47,25,46.3,25C45.1,25,44.5,24.1,44.5,22.9z M47.1,22.5c0-0.5-0.3-1-0.9-1
		c-0.6,0-1,0.4-1.1,1H47.1z"/>
</g>
<g>
	<path class="st0" d="M29.3,47.6l0.1-0.5c0.1,0,0.2,0.1,0.3,0.1c0.4,0,0.6-0.3,0.6-0.9V41H31v5.4c0,0.9-0.4,1.4-1.2,1.4
		C29.6,47.7,29.4,47.6,29.3,47.6z"/>
	<path class="st0" d="M32.2,45.2c0-1,1.1-1.3,2-1.3h0.2v-0.4c0-0.6-0.2-0.8-0.8-0.8c-0.4,0-0.7,0.1-1,0.4l-0.3-0.4
		c0.4-0.4,0.8-0.5,1.4-0.5c0.8,0,1.3,0.4,1.3,1.3v1.8c0,0.4,0,0.7,0.1,0.9h-0.6c0-0.1,0-0.3-0.1-0.5c-0.3,0.3-0.7,0.6-1.2,0.6
		C32.7,46.3,32.2,45.9,32.2,45.2z M34.4,45.2v-0.9h-0.2c-0.8,0-1.4,0.2-1.4,0.9c0,0.4,0.3,0.5,0.6,0.5
		C33.8,45.8,34.2,45.5,34.4,45.2z"/>
	<path class="st0" d="M36.4,42.3H37v0.4c0.2-0.2,0.6-0.5,1.1-0.5c0.9,0,1.6,0.7,1.6,2c0,1.2-0.7,2-1.7,2c-0.5,0-0.8-0.2-1-0.3v2
		h-0.6C36.4,47.9,36.4,42.3,36.4,42.3z M39,44.3c0-0.9-0.3-1.5-1.1-1.5c-0.5,0-0.9,0.4-1,0.5v2.1c0.2,0.2,0.4,0.4,0.9,0.4
		C38.6,45.8,39,45.1,39,44.3z"/>
	<path class="st0" d="M40.4,45.2c0-1,1.1-1.3,2-1.3h0.2v-0.4c0-0.6-0.2-0.8-0.8-0.8c-0.4,0-0.7,0.1-1,0.4l-0.3-0.4
		c0.4-0.4,0.8-0.5,1.4-0.5c0.8,0,1.3,0.4,1.3,1.3v1.8c0,0.4,0,0.7,0.1,0.9h-0.6c0-0.1,0-0.3-0.1-0.5c-0.3,0.3-0.7,0.6-1.2,0.6
		C40.8,46.3,40.4,45.9,40.4,45.2z M42.6,45.2v-0.9h-0.2c-0.8,0-1.4,0.2-1.4,0.9c0,0.4,0.3,0.5,0.6,0.5C42,45.8,42.3,45.5,42.6,45.2z
		"/>
	<path class="st0" d="M44.5,42.3h0.6v0.6c0.3-0.4,0.8-0.6,1.2-0.6c0.8,0,1.1,0.5,1.1,1.2v2.7h-0.6v-2.6c0-0.5-0.2-0.8-0.7-0.8
		c-0.4,0-0.8,0.3-1.1,0.7v2.7h-0.6L44.5,42.3L44.5,42.3z"/>
</g>
<g>
	<path class="st0" d="M19.7,61.6h0.6l1.3,3.6c0.2,0.4,0.2,0.7,0.3,1l0,0c0.1-0.3,0.2-0.5,0.3-1l1.3-3.6h0.6l0.7,5.3h-0.6l-0.5-3.5
		c0-0.4-0.1-0.6-0.1-0.7l0,0c-0.1,0.2-0.1,0.4-0.2,0.7l-1.3,3.5h-0.6l-1.3-3.5c-0.1-0.3-0.2-0.6-0.3-0.7l0,0c0,0.2,0,0.4-0.1,0.8
		L19.4,67h-0.6L19.7,61.6z"/>
	<path class="st0" d="M25.8,66c0-1,1.1-1.3,2-1.3H28v-0.4c0-0.6-0.2-0.8-0.8-0.8c-0.4,0-0.7,0.1-1,0.4l-0.3-0.4
		c0.4-0.4,0.8-0.5,1.4-0.5c0.8,0,1.3,0.4,1.3,1.3v1.8c0,0.4,0,0.7,0.1,0.9h-0.6c0-0.1,0-0.3-0.1-0.5c-0.3,0.3-0.7,0.6-1.2,0.6
		C26.2,67,25.8,66.6,25.8,66z M28,66v-0.9h-0.2c-0.8,0-1.4,0.2-1.4,0.9c0,0.4,0.3,0.5,0.6,0.5C27.4,66.5,27.7,66.3,28,66z"/>
	<path class="st0" d="M29.9,61.2h0.6V67h-0.6V61.2z"/>
	<path class="st0" d="M31.6,66c0-1,1.1-1.3,2-1.3h0.2v-0.4c0-0.6-0.2-0.8-0.8-0.8c-0.4,0-0.7,0.1-1,0.4l-0.3-0.4
		c0.4-0.4,0.8-0.5,1.4-0.5c0.8,0,1.3,0.4,1.3,1.3v1.8c0,0.4,0,0.7,0.1,0.9h-0.6c0-0.1,0-0.3-0.1-0.5c-0.3,0.3-0.7,0.6-1.2,0.6
		C32.1,67,31.6,66.6,31.6,66z M33.8,66v-0.9h-0.2c-0.8,0-1.4,0.2-1.4,0.9c0,0.4,0.3,0.5,0.6,0.5C33.2,66.5,33.6,66.3,33.8,66z"/>
	<path class="st0" d="M35.2,68.7l0.1-0.5c0.1,0,0.1,0,0.3,0c0.5,0,0.8-0.3,1-0.9l0.2-0.5L35.4,63h0.7l1.1,3.1l0,0l1.1-3.1h0.6
		l-1.6,4.3c-0.3,0.7-0.6,1.3-1.5,1.3C35.3,68.8,35.2,68.8,35.2,68.7z"/>
	<path class="st0" d="M39.2,66.7l0.3-0.4c0.1,0.1,0.5,0.3,1,0.3s0.8-0.2,0.8-0.6s-0.3-0.5-0.8-0.7c-0.6-0.3-1.1-0.5-1.1-1.2
		c0-0.6,0.4-1.1,1.2-1.1c0.6,0,1,0.3,1.1,0.4l-0.3,0.4c-0.1-0.1-0.4-0.3-0.9-0.3c-0.4,0-0.6,0.2-0.6,0.5c0,0.4,0.3,0.5,0.7,0.7
		c0.6,0.3,1.2,0.5,1.2,1.2S41.3,67,40.4,67C39.9,67,39.5,66.8,39.2,66.7z"/>
	<path class="st0" d="M42.8,61.9c0-0.2,0.2-0.4,0.4-0.4s0.4,0.2,0.4,0.4s-0.2,0.4-0.4,0.4S42.8,62.2,42.8,61.9z M42.9,63.1h0.6v3.8
		h-0.6V63.1z"/>
	<path class="st0" d="M44.7,66c0-1,1.1-1.3,2-1.3h0.2v-0.4c0-0.6-0.2-0.8-0.8-0.8c-0.4,0-0.7,0.1-1,0.4l-0.3-0.4
		c0.4-0.4,0.8-0.5,1.4-0.5c0.8,0,1.3,0.4,1.3,1.3v1.8c0,0.4,0,0.7,0.1,0.9H47c0-0.1,0-0.3-0.1-0.5c-0.3,0.3-0.7,0.6-1.2,0.6
		C45.1,67,44.7,66.6,44.7,66z M46.9,66v-0.9h-0.2c-0.8,0-1.4,0.2-1.4,0.9c0,0.4,0.3,0.5,0.6,0.5C46.3,66.5,46.6,66.3,46.9,66z"/>
</g>
<g>
	<path class="st0" d="M35.7,86.5v-3.3h0.6v3.3c0,1.1,0.5,1.6,1.5,1.6s1.4-0.6,1.4-1.5v-3.4h0.6v3.3c0,1.3-0.6,2.1-2,2.1
		C36.3,88.6,35.7,87.8,35.7,86.5z"/>
	<path class="st0" d="M40.8,88.1c0-0.3,0.2-0.5,0.5-0.5s0.5,0.2,0.5,0.5s-0.2,0.5-0.5,0.5C41.1,88.6,40.8,88.4,40.8,88.1z"/>
	<path class="st0" d="M42.6,88.1l0.3-0.4c0.1,0.1,0.5,0.5,1.2,0.5s1.1-0.4,1.1-0.9c0-0.6-0.6-0.9-1.2-1.2c-0.6-0.3-1.2-0.7-1.2-1.5
		c0-0.9,0.7-1.4,1.6-1.4c0.8,0,1.2,0.3,1.4,0.4L45.4,84c-0.2-0.1-0.5-0.4-1.1-0.4c-0.5,0-0.9,0.3-0.9,0.8s0.4,0.8,1,1
		c0.7,0.3,1.5,0.7,1.5,1.7c0,0.8-0.7,1.4-1.7,1.4C43.3,88.6,42.8,88.3,42.6,88.1z"/>
	<path class="st0" d="M46.8,88.1c0-0.3,0.2-0.5,0.5-0.5s0.5,0.2,0.5,0.5s-0.2,0.5-0.5,0.5S46.8,88.4,46.8,88.1z"/>
</g>
<g>
	<path class="st0" d="M11.2,103.7h0.6v2.3h3v-2.3h0.6v5.3h-0.6v-2.5h-3v2.5h-0.6V103.7z"/>
	<path class="st0" d="M16.7,107.1c0-0.9,0.5-2,1.8-2s1.8,1.1,1.8,2s-0.5,2-1.8,2S16.7,108,16.7,107.1z M19.6,107.1
		c0-0.8-0.4-1.5-1.2-1.5c-0.8,0-1.1,0.7-1.1,1.5s0.4,1.5,1.2,1.5C19.3,108.6,19.6,107.9,19.6,107.1z"/>
	<path class="st0" d="M21.3,105.2h0.6v0.6c0.3-0.4,0.8-0.6,1.2-0.6c0.8,0,1.1,0.5,1.1,1.2v2.7h-0.6v-2.6c0-0.5-0.2-0.8-0.7-0.8
		c-0.4,0-0.8,0.3-1.1,0.7v2.7h-0.6v-3.9H21.3z"/>
	<path class="st0" d="M25.3,109.8c0-0.4,0.3-0.8,0.7-1c-0.2-0.1-0.3-0.3-0.3-0.6c0-0.3,0.2-0.5,0.4-0.6c-0.4-0.2-0.7-0.7-0.7-1.2
		c0-0.8,0.6-1.4,1.5-1.4c0.2,0,0.4,0,0.6,0.1h1.2v0.5h-0.6c0.2,0.2,0.3,0.5,0.3,0.8c0,0.8-0.6,1.4-1.5,1.4c-0.2,0-0.3,0-0.4,0
		c-0.2,0.1-0.3,0.2-0.3,0.3c0,0.2,0.2,0.3,0.5,0.3c0.8,0,2,0,2,1.2c0,0.8-0.9,1.3-1.9,1.3C26,110.9,25.3,110.6,25.3,109.8z
		 M28.2,109.7c0-0.6-0.5-0.6-1-0.6c-0.2,0-0.5,0-0.7-0.1c-0.4,0.2-0.5,0.5-0.5,0.8c0,0.4,0.3,0.7,1,0.7
		C27.7,110.4,28.2,110.1,28.2,109.7z M27.8,106.5c0-0.5-0.3-0.9-0.9-0.9S26,106,26,106.5s0.3,0.9,0.9,0.9S27.8,107,27.8,106.5z"/>
	<path class="st0" d="M31.7,103.7h0.6v5.3h-0.6C31.7,109,31.7,103.7,31.7,103.7z M32.4,106.2l2.1-2.6h0.7l-2.1,2.5l2.3,2.8h-0.8
		L32.4,106.2z"/>
	<path class="st0" d="M35.8,107.1c0-0.9,0.5-2,1.8-2s1.8,1.1,1.8,2s-0.5,2-1.8,2S35.8,108,35.8,107.1z M38.7,107.1
		c0-0.8-0.4-1.5-1.2-1.5s-1.1,0.7-1.1,1.5s0.4,1.5,1.2,1.5C38.3,108.6,38.7,107.9,38.7,107.1z"/>
	<path class="st0" d="M40.4,105.2H41v0.6c0.3-0.4,0.8-0.6,1.2-0.6c0.8,0,1.1,0.5,1.1,1.2v2.7h-0.6v-2.6c0-0.5-0.2-0.8-0.7-0.8
		c-0.4,0-0.8,0.3-1.1,0.7v2.7h-0.6L40.4,105.2L40.4,105.2z"/>
	<path class="st0" d="M44.4,109.8c0-0.4,0.3-0.8,0.7-1c-0.2-0.1-0.3-0.3-0.3-0.6c0-0.3,0.2-0.5,0.4-0.6c-0.4-0.2-0.7-0.7-0.7-1.2
		c0-0.8,0.6-1.4,1.5-1.4c0.2,0,0.4,0,0.6,0.1h1.2v0.5h-0.6c0.2,0.2,0.3,0.5,0.3,0.8c0,0.8-0.6,1.4-1.5,1.4c-0.2,0-0.3,0-0.4,0
		c-0.2,0.1-0.3,0.2-0.3,0.3c0,0.2,0.2,0.3,0.5,0.3c0.8,0,2,0,2,1.2c0,0.8-0.9,1.3-1.9,1.3C45.1,110.9,44.4,110.6,44.4,109.8z
		 M47.3,109.7c0-0.6-0.5-0.6-1-0.6c-0.2,0-0.5,0-0.7-0.1c-0.4,0.2-0.5,0.5-0.5,0.8c0,0.4,0.3,0.7,1,0.7
		C46.8,110.4,47.3,110.1,47.3,109.7z M46.9,106.5c0-0.5-0.3-0.9-0.9-0.9c-0.6,0-0.9,0.4-0.9,0.9s0.3,0.9,0.9,0.9
		C46.6,107.4,46.9,107,46.9,106.5z"/>
</g>
<g>
	<path class="st0" d="M25.2,126.9H28v0.5h-2.1v1.7h1.9v0.5h-1.9v2H28v0.5h-2.8V126.9z"/>
	<path class="st0" d="M29.1,131.2v-2.7h0.6v2.6c0,0.5,0.2,0.8,0.7,0.8c0.6,0,1-0.6,1.1-0.7v-2.7H32v3c0,0.3,0,0.7,0.1,0.8h-0.6
		c0-0.1,0-0.4-0.1-0.6c-0.2,0.2-0.6,0.7-1.2,0.7C29.4,132.3,29.1,131.8,29.1,131.2z"/>
	<path class="st0" d="M33.4,128.4H34v0.6c0.2-0.3,0.5-0.7,1-0.7c0.2,0,0.4,0.1,0.4,0.1l-0.1,0.6c0,0-0.1-0.1-0.3-0.1
		c-0.6,0-0.9,0.7-0.9,0.8v2.6h-0.6v-3.9H33.4z"/>
	<path class="st0" d="M35.9,130.3c0-0.9,0.5-2,1.8-2s1.8,1.1,1.8,2s-0.5,2-1.8,2S35.9,131.2,35.9,130.3z M38.9,130.3
		c0-0.8-0.4-1.5-1.2-1.5s-1.1,0.7-1.1,1.5s0.4,1.5,1.2,1.5C38.5,131.8,38.9,131.2,38.9,130.3z"/>
	<path class="st0" d="M40.5,128.4h0.6v0.4c0.2-0.2,0.6-0.5,1.1-0.5c0.9,0,1.6,0.7,1.6,2c0,1.2-0.7,2-1.7,2c-0.5,0-0.8-0.2-1-0.3v2
		h-0.6C40.5,134,40.5,128.4,40.5,128.4z M43.2,130.3c0-0.9-0.3-1.5-1.1-1.5c-0.5,0-0.9,0.4-1,0.5v2.1c0.2,0.2,0.4,0.4,0.9,0.4
		C42.8,131.8,43.2,131.2,43.2,130.3z"/>
	<path class="st0" d="M44.5,130.3c0-1.1,0.7-2,1.7-2s1.5,0.7,1.5,1.7c0,0.1,0,0.2,0,0.3h-2.6c0,0.8,0.3,1.5,1.2,1.5
		c0.5,0,0.9-0.2,1.1-0.3l0.2,0.5c-0.2,0.1-0.6,0.4-1.3,0.4C45.1,132.3,44.5,131.4,44.5,130.3z M47.2,129.9c0-0.5-0.3-1-0.9-1
		c-0.6,0-1,0.4-1.1,1H47.2z"/>
</g>
<g>
	<path class="st0" d="M32.2,147.4h0.6v5.3h-0.6V147.4z"/>
	<path class="st0" d="M34.3,148.9h0.6v0.6c0.3-0.4,0.8-0.6,1.2-0.6c0.8,0,1.1,0.5,1.1,1.2v2.7h-0.6v-2.6c0-0.5-0.2-0.8-0.7-0.8
		c-0.4,0-0.8,0.3-1.1,0.7v2.7h-0.6L34.3,148.9L34.3,148.9z"/>
	<path class="st0" d="M38.3,150.8c0-1.2,0.7-2,1.7-2c0.4,0,0.7,0.1,1,0.3V147h0.6v5c0,0.3,0,0.6,0.1,0.8h-0.6c0-0.1-0.1-0.3-0.1-0.4
		c-0.3,0.3-0.6,0.5-1.1,0.5C39,152.8,38.3,152.1,38.3,150.8z M41,151.8v-2.1c-0.2-0.2-0.5-0.4-0.9-0.4c-0.7,0-1.1,0.6-1.1,1.5
		s0.3,1.5,1.1,1.5C40.3,152.3,40.7,152.1,41,151.8z"/>
	<path class="st0" d="M42.8,147.7c0-0.2,0.2-0.4,0.4-0.4s0.4,0.2,0.4,0.4s-0.2,0.4-0.4,0.4S42.8,148,42.8,147.7z M42.9,148.9h0.6
		v3.8h-0.6V148.9z"/>
	<path class="st0" d="M44.7,151.8c0-1,1.1-1.3,2-1.3h0.2v-0.4c0-0.6-0.2-0.8-0.8-0.8c-0.4,0-0.7,0.1-1,0.4l-0.3-0.4
		c0.4-0.4,0.8-0.5,1.4-0.5c0.8,0,1.3,0.4,1.3,1.3v1.8c0,0.4,0,0.7,0.1,0.9H47c0-0.1,0-0.3-0.1-0.5c-0.3,0.3-0.7,0.6-1.2,0.6
		C45.1,152.8,44.7,152.4,44.7,151.8z M46.9,151.8v-0.9h-0.2c-0.8,0-1.4,0.2-1.4,0.9c0,0.4,0.3,0.5,0.6,0.5
		C46.3,152.3,46.6,152.1,46.9,151.8z"/>
</g>
<g>
	<path class="st0" d="M28.1,169h0.7l0.9,3.6c0.1,0.4,0.2,0.9,0.2,0.9l0,0c0,0,0.1-0.5,0.2-0.9l1-3.6h0.6l1,3.5
		c0.1,0.4,0.2,0.9,0.2,0.9l0,0c0,0,0.1-0.5,0.2-0.9L34,169h0.6l-1.5,5.3h-0.6l-1-3.6c-0.1-0.4-0.2-1-0.2-1l0,0c0,0-0.1,0.6-0.3,1
		l-1.1,3.6h-0.6L28.1,169z"/>
	<path class="st0" d="M35.1,172.4c0-0.9,0.5-2,1.8-2s1.8,1.1,1.8,2s-0.5,2-1.8,2S35.1,173.3,35.1,172.4z M38.1,172.4
		c0-0.8-0.4-1.5-1.2-1.5s-1.1,0.7-1.1,1.5s0.4,1.5,1.2,1.5C37.7,173.9,38.1,173.2,38.1,172.4z"/>
	<path class="st0" d="M39.7,170.5h0.6v0.6c0.2-0.3,0.5-0.7,1-0.7c0.2,0,0.4,0.1,0.4,0.1l-0.1,0.6c0,0-0.1-0.1-0.3-0.1
		c-0.6,0-0.9,0.7-0.9,0.8v2.6h-0.6v-3.9H39.7z"/>
	<path class="st0" d="M42.6,168.6h0.6v5.8h-0.6V168.6z"/>
	<path class="st0" d="M44.2,172.4c0-1.2,0.7-2,1.7-2c0.4,0,0.7,0.1,1,0.3v-2.2h0.6v5c0,0.3,0,0.6,0.1,0.8H47c0-0.1-0.1-0.3-0.1-0.4
		c-0.3,0.3-0.6,0.5-1.1,0.5C44.9,174.4,44.2,173.7,44.2,172.4z M46.9,173.4v-2.1c-0.2-0.2-0.5-0.4-0.9-0.4c-0.7,0-1.1,0.6-1.1,1.5
		s0.3,1.5,1.1,1.5C46.3,173.9,46.7,173.7,46.9,173.4z"/>
</g>
<g>
	<path class="st0" d="M16.2,191.7h0.6v5.3h-0.6V191.7z"/>
	<path class="st0" d="M18.4,193.2H19v0.6c0.3-0.4,0.8-0.6,1.2-0.6c0.8,0,1.1,0.5,1.1,1.2v2.7h-0.6v-2.6c0-0.5-0.2-0.8-0.7-0.8
		c-0.4,0-0.8,0.3-1.1,0.7v2.7h-0.6v-3.9H18.4z"/>
	<path class="st0" d="M22.3,195.1c0-1.2,0.7-2,1.7-2c0.4,0,0.7,0.1,1,0.3v-2.2h0.6v5c0,0.3,0,0.6,0.1,0.8h-0.6
		c0-0.1-0.1-0.3-0.1-0.4c-0.3,0.3-0.6,0.5-1.1,0.5C23,197.1,22.3,196.4,22.3,195.1z M25,196.1V194c-0.2-0.2-0.5-0.4-0.9-0.4
		c-0.7,0-1.1,0.6-1.1,1.5s0.3,1.5,1.1,1.5C24.4,196.6,24.8,196.4,25,196.1z"/>
	<path class="st0" d="M26.6,195.1c0-0.9,0.5-2,1.8-2s1.8,1.1,1.8,2s-0.5,2-1.8,2S26.6,196,26.6,195.1z M29.5,195.1
		c0-0.8-0.4-1.5-1.2-1.5c-0.8,0-1.1,0.7-1.1,1.5s0.4,1.5,1.2,1.5S29.5,195.9,29.5,195.1z"/>
	<path class="st0" d="M31.2,193.2h0.6v0.6c0.3-0.4,0.8-0.6,1.2-0.6c0.8,0,1.1,0.5,1.1,1.2v2.7h-0.6v-2.6c0-0.5-0.2-0.8-0.7-0.8
		c-0.4,0-0.8,0.3-1.1,0.7v2.7h-0.6v-3.9H31.2z"/>
	<path class="st0" d="M35.2,195.1c0-1.1,0.7-2,1.7-2s1.5,0.7,1.5,1.7c0,0.1,0,0.2,0,0.3h-2.6c0,0.8,0.3,1.5,1.2,1.5
		c0.5,0,0.9-0.2,1.1-0.3l0.2,0.5c-0.2,0.1-0.6,0.4-1.3,0.4C35.8,197.1,35.2,196.2,35.2,195.1z M37.8,194.6c0-0.5-0.3-1-0.9-1
		c-0.6,0-1,0.4-1.1,1H37.8z"/>
	<path class="st0" d="M39.2,196.8l0.3-0.4c0.1,0.1,0.5,0.3,1,0.3s0.8-0.2,0.8-0.6c0-0.4-0.3-0.5-0.8-0.7c-0.6-0.3-1.1-0.5-1.1-1.2
		c0-0.6,0.4-1.1,1.2-1.1c0.6,0,1,0.3,1.1,0.4l-0.3,0.4c-0.1-0.1-0.4-0.3-0.9-0.3c-0.4,0-0.6,0.2-0.6,0.5c0,0.4,0.3,0.5,0.7,0.7
		c0.6,0.3,1.2,0.5,1.2,1.2s-0.5,1.1-1.4,1.1C39.9,197.1,39.4,196.9,39.2,196.8z"/>
	<path class="st0" d="M42.8,192c0-0.2,0.2-0.4,0.4-0.4s0.4,0.2,0.4,0.4s-0.2,0.4-0.4,0.4S42.8,192.3,42.8,192z M42.9,193.2h0.6v3.8
		h-0.6V193.2z"/>
	<path class="st0" d="M44.7,196.1c0-1,1.1-1.3,2-1.3h0.2v-0.4c0-0.6-0.2-0.8-0.8-0.8c-0.4,0-0.7,0.1-1,0.4l-0.3-0.4
		c0.4-0.4,0.8-0.5,1.4-0.5c0.8,0,1.3,0.4,1.3,1.3v1.8c0,0.4,0,0.7,0.1,0.9H47c0-0.1,0-0.3-0.1-0.5c-0.3,0.3-0.7,0.6-1.2,0.6
		C45.1,197.1,44.7,196.7,44.7,196.1z M46.9,196.1v-0.9h-0.2c-0.8,0-1.4,0.2-1.4,0.9c0,0.4,0.3,0.5,0.6,0.5
		C46.3,196.6,46.6,196.4,46.9,196.1z"/>
</g>
<rect x="52.5" y="188.1" class="st4" width="63.1" height="8.7"/>
<rect x="113.6" y="188.1" class="st5" width="28.9" height="8.7"/>
<rect x="216.9" y="17.9" class="st5" width="3.4" height="8.7"/>
<rect x="52.5" y="17.9" class="st4" width="164.8" height="8.7"/>
<rect x="192" y="38.9" class="st5" width="3.8" height="8.7"/>
<rect x="52.5" y="38.9" class="st4" width="139.5" height="8.7"/>
<rect x="191.2" y="60.1" class="st5" width="4" height="8.7"/>
<rect x="52.5" y="60.1" class="st4" width="139.5" height="8.7"/>
<rect x="52.5" y="81.3" class="st4" width="105.3" height="8.7"/>
<rect x="157" y="81.3" class="st5" width="20.4" height="8.7"/>
<rect x="52.5" y="103" class="st4" width="108.2" height="8.7"/>
<rect x="159.8" y="103" class="st5" width="6.3" height="8.7"/>
<rect x="52.5" y="124.6" class="st4" width="106.2" height="8.7"/>
<rect x="157" y="124.6" class="st5" width="8.5" height="8.7"/>
<rect x="109.9" y="145.8" class="st5" width="44.2" height="8.7"/>
<rect x="52.5" y="145.8" class="st4" width="58" height="8.7"/>
<rect x="52.5" y="167" class="st4" width="79" height="8.7"/>
<rect x="130.6" y="167" class="st5" width="19.8" height="8.7"/>
<path class="st6" d="M60.1,24.8c0.8,0,1.5-0.2,1.9-0.8c0.3-0.4,0.5-0.8,0.6-1.5c-0.3,0.3-0.7,0.5-1.2,0.5c-1,0-1.6-0.7-1.6-1.6
	s0.6-1.7,1.7-1.7c1.3,0,1.8,1.2,1.8,2.3c0,2-1,3.3-3,3.3L60.1,24.8z M62.6,22.1V22c0-1.1-0.4-1.8-1.2-1.8c-0.7,0-1,0.6-1,1.2
	c0,0.8,0.4,1.2,1.1,1.2C62,22.5,62.3,22.4,62.6,22.1z M65,20.4l-1,0.3l-0.1-0.5l1.3-0.4h0.5v5.3H65V20.4z M66.9,24.7
	c0-0.3,0.2-0.5,0.5-0.5s0.5,0.2,0.5,0.5s-0.2,0.5-0.5,0.5S66.9,25,66.9,24.7z M68.9,24.8c0.8,0,1.5-0.2,1.9-0.8
	c0.3-0.4,0.5-0.8,0.6-1.5c-0.3,0.3-0.7,0.5-1.2,0.5c-1,0-1.6-0.7-1.6-1.6s0.6-1.7,1.7-1.7c1.3,0,1.8,1.2,1.8,2.3c0,2-1,3.3-3,3.3
	L68.9,24.8z M71.5,22.1V22c0-1.1-0.4-1.8-1.2-1.8c-0.7,0-1,0.6-1,1.2c0,0.8,0.4,1.2,1.1,1.2C70.8,22.5,71.2,22.4,71.5,22.1z
	 M72.8,21.1c0-0.6,0.4-1.3,1.4-1.3s1.4,0.7,1.4,1.3c0,0.6-0.4,1.3-1.4,1.3C73.2,22.4,72.8,21.7,72.8,21.1z M75.1,21.1
	c0-0.5-0.3-0.9-0.9-0.9s-0.9,0.4-0.9,0.9s0.3,0.9,0.9,0.9C74.7,22,75.1,21.6,75.1,21.1z M77.3,19.8h0.6l-3.4,5.3h-0.6L77.3,19.8z
	 M76.2,23.9c0-0.6,0.4-1.3,1.4-1.3s1.4,0.7,1.4,1.3c0,0.6-0.4,1.3-1.4,1.3C76.6,25.2,76.2,24.5,76.2,23.9z M78.4,23.9
	c0-0.5-0.3-0.9-0.9-0.9s-0.9,0.4-0.9,0.9s0.3,0.9,0.9,0.9S78.4,24.4,78.4,23.9z"/>
<path class="st6" d="M60.2,45.9l1.9-4.8h-2.4v-0.5h3V41l-2,5.1L60.2,45.9z M63.7,45.9l1.9-4.8h-2.4v-0.5h3V41l-2,5.1L63.7,45.9z
	 M67,45.5c0-0.3,0.2-0.5,0.5-0.5s0.5,0.2,0.5,0.5S67.7,46,67.5,46S67,45.8,67,45.5z M68.7,45.9l0.1-0.5c0.1,0,0.3,0.1,0.7,0.1
	c1,0,1.5-0.4,1.5-1.1c0-0.8-0.7-1.1-1.7-1.1v-0.4c0.8,0,1.6-0.4,1.6-1.1c0-0.4-0.3-0.7-0.9-0.7c-0.5,0-0.8,0.2-1.1,0.4L68.5,41
	c0.3-0.2,0.8-0.5,1.4-0.5c1,0,1.5,0.5,1.5,1.2s-0.6,1.1-1.2,1.3l0,0c0.7,0.1,1.3,0.6,1.3,1.4c0,1.1-0.9,1.7-2.1,1.7
	C69,46,68.7,46,68.7,45.9z M72.3,41.8c0-0.6,0.4-1.3,1.4-1.3s1.4,0.7,1.4,1.3s-0.4,1.3-1.4,1.3C72.7,43.2,72.3,42.4,72.3,41.8z
	 M74.5,41.8c0-0.5-0.3-0.9-0.9-0.9s-0.9,0.4-0.9,0.9s0.3,0.9,0.9,0.9S74.5,42.3,74.5,41.8z M76.7,40.6h0.6l-3.4,5.3h-0.6L76.7,40.6z
	 M75.6,44.6c0-0.6,0.4-1.3,1.4-1.3s1.4,0.7,1.4,1.3S78,45.9,77,45.9C76,46,75.6,45.2,75.6,44.6z M77.8,44.6c0-0.5-0.3-0.9-0.9-0.9
	S76,44.1,76,44.6s0.3,0.9,0.9,0.9S77.8,45.1,77.8,44.6z"/>
<path class="st6" d="M60.2,66.7l1.9-4.8h-2.4v-0.5h3v0.4l-2,5.1L60.2,66.7z M63.8,66.7l1.9-4.8h-2.4v-0.5h3v0.4l-2,5.1L63.8,66.7z
	 M67,66.2c0-0.3,0.2-0.5,0.5-0.5S68,66,68,66.2s-0.2,0.5-0.5,0.5S67,66.5,67,66.2z M68.8,66.7l0.1-0.5c0.1,0,0.2,0,0.5,0
	c0.9,0,1.7-0.4,1.7-1.3s-0.7-1.2-1.6-1.2c-0.2,0-0.4,0-0.4,0l0.2-2.5h2.4v0.5h-1.8l-0.1,1.4c1.3,0,2,0.6,2,1.6c0,1.2-1,1.8-2.4,1.8
	C69,66.8,68.8,66.7,68.8,66.7z M72.2,62.6c0-0.6,0.4-1.3,1.4-1.3S75,62,75,62.6s-0.4,1.3-1.4,1.3C72.6,63.9,72.2,63.2,72.2,62.6z
	 M74.5,62.6c0-0.5-0.3-0.9-0.9-0.9s-0.9,0.4-0.9,0.9s0.3,0.9,0.9,0.9C74.1,63.5,74.5,63.1,74.5,62.6z M76.7,61.3h0.6l-3.4,5.3h-0.6
	L76.7,61.3z M75.6,65.4c0-0.6,0.4-1.3,1.4-1.3s1.4,0.7,1.4,1.3c0,0.6-0.4,1.3-1.4,1.3C76,66.7,75.6,66,75.6,65.4z M77.8,65.4
	c0-0.5-0.3-0.9-0.9-0.9S76,64.9,76,65.4s0.3,0.9,0.9,0.9S77.8,65.9,77.8,65.4z"/>
<path class="st6" d="M59.8,88.3l0.1-0.5c0.1,0,0.2,0,0.5,0c0.9,0,1.7-0.4,1.7-1.3s-0.7-1.2-1.6-1.2c-0.2,0-0.4,0-0.4,0l0.2-2.5h2.4
	v0.5h-1.8l-0.1,1.4c1.3,0,2,0.6,2,1.6c0,1.2-1,1.8-2.4,1.8C60.1,88.3,59.9,88.3,59.8,88.3z M63.4,87c0-0.7,0.7-1.2,1.1-1.5
	c-0.5-0.3-1-0.7-1-1.3c0-0.8,0.7-1.3,1.5-1.3c0.9,0,1.5,0.5,1.5,1.3c0,0.7-0.6,1-1.1,1.3c0.5,0.3,1.2,0.7,1.2,1.5S66,88.4,65,88.4
	C63.9,88.3,63.4,87.7,63.4,87z M66,86.9c0-0.6-0.6-1-1.1-1.2c-0.4,0.2-0.9,0.6-0.9,1.2c0,0.5,0.3,0.9,1,0.9S66,87.4,66,86.9z
	 M65.9,84.1c0-0.4-0.3-0.8-0.8-0.8s-0.9,0.3-0.9,0.8s0.5,0.8,0.9,1C65.5,84.9,65.9,84.6,65.9,84.1z M67.5,87.8
	c0-0.3,0.2-0.5,0.5-0.5s0.5,0.2,0.5,0.5s-0.2,0.5-0.5,0.5S67.5,88.1,67.5,87.8z M70.3,83.5l-1,0.3l-0.1-0.5l1.3-0.4H71v5.3h-0.6
	v-4.7H70.3z M72,84.2c0-0.6,0.4-1.3,1.4-1.3s1.4,0.7,1.4,1.3c0,0.6-0.4,1.3-1.4,1.3S72,84.8,72,84.2z M74.2,84.2
	c0-0.5-0.3-0.9-0.9-0.9s-0.9,0.4-0.9,0.9s0.3,0.9,0.9,0.9C73.9,85.1,74.2,84.7,74.2,84.2z M76.5,82.9H77l-3.4,5.3H73L76.5,82.9z
	 M75.3,87c0-0.6,0.4-1.3,1.4-1.3s1.4,0.7,1.4,1.3c0,0.6-0.4,1.3-1.4,1.3C75.7,88.3,75.3,87.6,75.3,87z M77.6,87
	c0-0.5-0.3-0.9-0.9-0.9s-0.9,0.4-0.9,0.9s0.3,0.9,0.9,0.9C77.2,87.9,77.6,87.5,77.6,87z"/>
<path class="st6" d="M59.9,107.7c0-2,1.2-3.3,3.1-3.3l0.1,0.5c-0.8,0-1.4,0.2-1.9,0.6c-0.4,0.4-0.6,0.9-0.7,1.6
	c0.3-0.3,0.7-0.5,1.2-0.5c1,0,1.6,0.7,1.6,1.6s-0.6,1.7-1.7,1.7C60.4,109.9,59.9,108.7,59.9,107.7z M62.7,108.3
	c0-0.8-0.4-1.2-1.1-1.2c-0.5,0-0.8,0.2-1.1,0.5v0.1c0,1.1,0.4,1.8,1.2,1.8C62.4,109.4,62.7,108.8,62.7,108.3z M63.8,107.2
	c0-1.3,0.5-2.8,2-2.8c1.4,0,2,1.4,2,2.8s-0.6,2.8-2,2.8C64.4,109.9,63.8,108.5,63.8,107.2z M67.2,107.2c0-1.3-0.4-2.3-1.4-2.3
	s-1.4,1-1.4,2.3s0.4,2.3,1.4,2.3C66.8,109.4,67.2,108.4,67.2,107.2z M68.4,109.4c0-0.3,0.2-0.5,0.5-0.5s0.5,0.2,0.5,0.5
	s-0.2,0.5-0.5,0.5S68.4,109.7,68.4,109.4z M70,107.2c0-1.3,0.5-2.8,2-2.8c1.4,0,2,1.4,2,2.8s-0.6,2.8-2,2.8
	C70.6,109.9,70,108.5,70,107.2z M73.4,107.2c0-1.3-0.4-2.3-1.4-2.3s-1.4,1-1.4,2.3s0.4,2.3,1.4,2.3C73,109.4,73.4,108.4,73.4,107.2z
	 M74.5,105.8c0-0.6,0.4-1.3,1.4-1.3s1.4,0.7,1.4,1.3c0,0.6-0.4,1.3-1.4,1.3C74.9,107.1,74.5,106.4,74.5,105.8z M76.7,105.8
	c0-0.5-0.3-0.9-0.9-0.9s-0.9,0.4-0.9,0.9s0.3,0.9,0.9,0.9C76.4,106.7,76.7,106.3,76.7,105.8z M79,104.5h0.6l-3.4,5.3h-0.6L79,104.5z
	 M77.8,108.6c0-0.6,0.4-1.3,1.4-1.3s1.4,0.7,1.4,1.3c0,0.6-0.4,1.3-1.4,1.3C78.2,109.9,77.8,109.2,77.8,108.6z M80.1,108.6
	c0-0.5-0.3-0.9-0.9-0.9s-0.9,0.4-0.9,0.9s0.3,0.9,0.9,0.9C79.7,109.5,80.1,109.1,80.1,108.6z"/>
<path class="st6" d="M59.8,131.8l0.1-0.5c0.1,0,0.2,0,0.5,0c0.9,0,1.7-0.4,1.7-1.3c0-0.9-0.7-1.2-1.6-1.2c-0.2,0-0.4,0-0.4,0
	l0.2-2.5h2.4v0.5h-1.8l-0.1,1.4c1.3,0,2,0.6,2,1.6c0,1.2-1,1.8-2.4,1.8C60.1,131.8,59.9,131.8,59.8,131.8z M63.4,130.4
	c0-0.7,0.7-1.2,1.1-1.5c-0.5-0.3-1-0.7-1-1.3c0-0.8,0.7-1.3,1.5-1.3c0.9,0,1.5,0.5,1.5,1.3c0,0.7-0.6,1-1.1,1.3
	c0.5,0.3,1.2,0.7,1.2,1.5s-0.6,1.4-1.6,1.4C63.9,131.8,63.4,131.1,63.4,130.4z M66,130.4c0-0.6-0.6-1-1.1-1.2
	c-0.4,0.2-0.9,0.6-0.9,1.2c0,0.5,0.3,0.9,1,0.9C65.7,131.3,66,130.9,66,130.4z M65.9,127.6c0-0.4-0.3-0.8-0.8-0.8s-0.9,0.3-0.9,0.8
	c0,0.5,0.5,0.8,0.9,1C65.5,128.4,65.9,128.1,65.9,127.6z M67.5,131.3c0-0.3,0.2-0.5,0.5-0.5s0.5,0.2,0.5,0.5s-0.2,0.5-0.5,0.5
	S67.5,131.6,67.5,131.3z M70.3,126.9l-1,0.3l-0.1-0.5l1.3-0.4H71v5.3h-0.6v-4.7H70.3z M72,127.6c0-0.6,0.4-1.3,1.4-1.3
	s1.4,0.7,1.4,1.3c0,0.6-0.4,1.3-1.4,1.3C72.4,129,72,128.2,72,127.6z M74.2,127.6c0-0.5-0.3-0.9-0.9-0.9s-0.9,0.4-0.9,0.9
	c0,0.5,0.3,0.9,0.9,0.9C73.9,128.5,74.2,128.1,74.2,127.6z M76.5,126.4H77l-3.4,5.3H73L76.5,126.4z M75.3,130.4
	c0-0.6,0.4-1.3,1.4-1.3s1.4,0.7,1.4,1.3s-0.4,1.3-1.4,1.3C75.7,131.8,75.3,131,75.3,130.4z M77.6,130.4c0-0.5-0.3-0.9-0.9-0.9
	s-0.9,0.4-0.9,0.9s0.3,0.9,0.9,0.9C77.2,131.3,77.6,130.9,77.6,130.4z"/>
<path class="st6" d="M59.8,152.8l0.1-0.5c0.1,0,0.3,0.1,0.7,0.1c1,0,1.5-0.4,1.5-1.1c0-0.8-0.7-1.1-1.7-1.1v-0.4
	c0.8,0,1.6-0.4,1.6-1.1c0-0.4-0.3-0.7-0.9-0.7c-0.5,0-0.8,0.2-1.1,0.4l-0.3-0.4c0.3-0.2,0.8-0.5,1.4-0.5c1,0,1.5,0.5,1.5,1.2
	s-0.6,1.1-1.2,1.3l0,0c0.7,0.1,1.3,0.6,1.3,1.4c0,1.1-0.9,1.7-2.1,1.7C60.2,152.8,59.9,152.8,59.8,152.8z M63.3,152.4
	c0.9-0.9,2.5-2.4,2.5-3.6c0-0.7-0.4-1-0.9-1c-0.6,0-0.9,0.3-1.2,0.5l-0.3-0.4c0.3-0.4,0.8-0.7,1.5-0.7c0.9,0,1.6,0.5,1.6,1.4
	c0,1.2-1.3,2.5-2.3,3.5c0,0,0.3,0,0.6,0h1.8v0.5h-3.3V152.4z M67.1,152.3c0-0.3,0.2-0.5,0.5-0.5s0.5,0.2,0.5,0.5s-0.2,0.5-0.5,0.5
	S67.1,152.6,67.1,152.3z M68.5,152.4c0.9-0.9,2.5-2.4,2.5-3.6c0-0.7-0.4-1-0.9-1c-0.6,0-0.9,0.3-1.2,0.5l-0.3-0.4
	c0.3-0.4,0.8-0.7,1.5-0.7c0.9,0,1.6,0.5,1.6,1.4c0,1.2-1.3,2.5-2.3,3.5c0,0,0.3,0,0.6,0h1.8v0.5h-3.3
	C68.5,152.6,68.5,152.4,68.5,152.4z M72.3,148.7c0-0.6,0.4-1.3,1.4-1.3s1.4,0.7,1.4,1.3s-0.4,1.3-1.4,1.3
	C72.7,150,72.3,149.3,72.3,148.7z M74.5,148.7c0-0.5-0.3-0.9-0.9-0.9s-0.9,0.4-0.9,0.9s0.3,0.9,0.9,0.9
	C74.2,149.6,74.5,149.2,74.5,148.7z M76.7,147.4h0.6l-3.4,5.3h-0.6L76.7,147.4z M75.6,151.5c0-0.6,0.4-1.3,1.4-1.3s1.4,0.7,1.4,1.3
	s-0.4,1.3-1.4,1.3S75.6,152.1,75.6,151.5z M77.8,151.5c0-0.5-0.3-0.9-0.9-0.9S76,151,76,151.5s0.3,0.9,0.9,0.9S77.8,152,77.8,151.5z
	"/>
<path class="st6" d="M62.2,172.8h-2.5v-0.5l2.4-3.6h0.6v3.6h0.8v0.5h-0.8v1.2h-0.6L62.2,172.8L62.2,172.8z M61,172.3h1.2v-2.7l0,0
	l-1.8,2.8C60.4,172.3,60.7,172.3,61,172.3z M63.7,174.1l0.1-0.5c0.1,0,0.3,0.1,0.7,0.1c1,0,1.5-0.4,1.5-1.1c0-0.8-0.7-1.1-1.7-1.1
	V171c0.8,0,1.6-0.4,1.6-1.1c0-0.4-0.3-0.7-0.9-0.7c-0.5,0-0.8,0.2-1.1,0.4l-0.3-0.4c0.3-0.2,0.8-0.5,1.4-0.5c1,0,1.5,0.5,1.5,1.2
	s-0.6,1.1-1.2,1.3l0,0c0.7,0.1,1.3,0.6,1.3,1.4c0,1.1-0.9,1.7-2.1,1.7C64.1,174.2,63.8,174.1,63.7,174.1z M67.2,173.6
	c0-0.3,0.2-0.5,0.5-0.5s0.5,0.2,0.5,0.5s-0.2,0.5-0.5,0.5S67.2,173.9,67.2,173.6z M68.6,171.9c0-2,1.2-3.3,3.1-3.3l0.1,0.5
	c-0.8,0-1.4,0.2-1.9,0.6c-0.4,0.4-0.6,0.9-0.7,1.6c0.3-0.3,0.7-0.5,1.2-0.5c1,0,1.6,0.7,1.6,1.6s-0.6,1.7-1.7,1.7
	C69.1,174.2,68.6,173,68.6,171.9z M71.4,172.5c0-0.8-0.4-1.2-1.1-1.2c-0.5,0-0.8,0.2-1.1,0.5v0.1c0,1.1,0.4,1.8,1.2,1.8
	C71.1,173.6,71.4,173,71.4,172.5z M72.3,170c0-0.6,0.4-1.3,1.4-1.3s1.4,0.7,1.4,1.3s-0.4,1.3-1.4,1.3
	C72.7,171.3,72.3,170.6,72.3,170z M74.5,170c0-0.5-0.3-0.9-0.9-0.9s-0.9,0.4-0.9,0.9s0.3,0.9,0.9,0.9S74.5,170.5,74.5,170z
	 M76.7,168.7h0.6l-3.4,5.3h-0.6L76.7,168.7z M75.6,172.8c0-0.6,0.4-1.3,1.4-1.3s1.4,0.7,1.4,1.3s-0.4,1.3-1.4,1.3
	S75.6,173.4,75.6,172.8z M77.8,172.8c0-0.5-0.3-0.9-0.9-0.9s-0.9,0.4-0.9,0.9s0.3,0.9,0.9,0.9S77.8,173.3,77.8,172.8z"/>
<path class="st6" d="M59.8,194.8l0.1-0.5c0.1,0,0.3,0.1,0.7,0.1c1,0,1.5-0.4,1.5-1.1c0-0.8-0.7-1.1-1.7-1.1v-0.4
	c0.8,0,1.6-0.4,1.6-1.1c0-0.4-0.3-0.7-0.9-0.7c-0.5,0-0.8,0.2-1.1,0.4l-0.3-0.4c0.3-0.2,0.8-0.5,1.4-0.5c1,0,1.5,0.5,1.5,1.2
	s-0.6,1.1-1.2,1.3l0,0c0.7,0.1,1.3,0.6,1.3,1.4c0,1.1-0.9,1.7-2.1,1.7C60.2,194.9,59.9,194.9,59.8,194.8z M65.9,193.6h-2.5v-0.5
	l2.4-3.6h0.6v3.6h0.8v0.5h-0.8v1.2h-0.6L65.9,193.6L65.9,193.6z M64.7,193.1h1.2v-2.7l0,0l-1.8,2.8
	C64.2,193.1,64.5,193.1,64.7,193.1z M67.9,194.4c0-0.3,0.2-0.5,0.5-0.5s0.5,0.2,0.5,0.5s-0.2,0.5-0.5,0.5S67.9,194.7,67.9,194.4z
	 M70.6,190l-1,0.3l-0.1-0.5l1.3-0.4h0.5v5.3h-0.6V190H70.6z M72.2,190.7c0-0.6,0.4-1.3,1.4-1.3s1.4,0.7,1.4,1.3s-0.4,1.3-1.4,1.3
	C72.6,192.1,72.2,191.4,72.2,190.7z M74.5,190.7c0-0.5-0.3-0.9-0.9-0.9s-0.9,0.4-0.9,0.9s0.3,0.9,0.9,0.9
	C74.1,191.6,74.5,191.3,74.5,190.7z M76.7,189.5h0.6l-3.4,5.3h-0.6L76.7,189.5z M75.6,193.5c0-0.6,0.4-1.3,1.4-1.3s1.4,0.7,1.4,1.3
	s-0.4,1.3-1.4,1.3C76,194.9,75.6,194.1,75.6,193.5z M77.8,193.5c0-0.5-0.3-0.9-0.9-0.9S76,193,76,193.5s0.3,0.9,0.9,0.9
	S77.8,194,77.8,193.5z"/>
<path class="st0" d="M218.5,20.5l-1,0.3l-0.1-0.5l1.3-0.4h0.5v5.3h-0.6L218.5,20.5L218.5,20.5z M220.4,24.8c0-0.3,0.2-0.5,0.5-0.5
	s0.5,0.2,0.5,0.5s-0.2,0.5-0.5,0.5S220.4,25.1,220.4,24.8z M223.2,20.5l-1,0.3l-0.1-0.5l1.3-0.4h0.5v5.3h-0.6L223.2,20.5L223.2,20.5
	z M224.9,21.2c0-0.6,0.4-1.3,1.4-1.3s1.4,0.7,1.4,1.3c0,0.6-0.4,1.3-1.4,1.3C225.3,22.5,224.9,21.8,224.9,21.2z M227.1,21.2
	c0-0.5-0.3-0.9-0.9-0.9s-0.9,0.4-0.9,0.9s0.3,0.9,0.9,0.9S227.1,21.7,227.1,21.2z M229.4,19.9h0.6l-3.4,5.3H226L229.4,19.9z
	 M228.3,24c0-0.6,0.4-1.3,1.4-1.3s1.4,0.7,1.4,1.3c0,0.6-0.4,1.3-1.4,1.3S228.3,24.6,228.3,24z M230.5,24c0-0.5-0.3-0.9-0.9-0.9
	s-0.9,0.4-0.9,0.9s0.3,0.9,0.9,0.9S230.5,24.5,230.5,24z"/>
<path class="st0" d="M194.1,41l-1,0.3l-0.1-0.5l1.3-0.4h0.5v5.3h-0.6L194.1,41L194.1,41z M195.9,45.4c0-0.3,0.2-0.5,0.5-0.5
	s0.5,0.2,0.5,0.5s-0.2,0.5-0.5,0.5S195.9,45.6,195.9,45.4z M198,45.5c0.8,0,1.5-0.2,1.9-0.8c0.3-0.4,0.5-0.8,0.6-1.5
	c-0.3,0.3-0.7,0.5-1.2,0.5c-1,0-1.6-0.7-1.6-1.6s0.6-1.7,1.7-1.7c1.3,0,1.8,1.2,1.8,2.3c0,2-1,3.3-3,3.3L198,45.5z M200.5,42.7
	L200.5,42.7c0-1.2-0.4-1.9-1.2-1.9c-0.7,0-1,0.6-1,1.2c0,0.8,0.4,1.2,1.1,1.2C199.9,43.2,200.2,43,200.5,42.7z M201.8,41.7
	c0-0.6,0.4-1.3,1.4-1.3s1.4,0.7,1.4,1.3s-0.4,1.3-1.4,1.3C202.2,43.1,201.8,42.3,201.8,41.7z M204.1,41.7c0-0.5-0.3-0.9-0.9-0.9
	s-0.9,0.4-0.9,0.9s0.3,0.9,0.9,0.9C203.7,42.6,204.1,42.2,204.1,41.7z M206.3,40.5h0.6l-3.4,5.3h-0.6L206.3,40.5z M205.2,44.5
	c0-0.6,0.4-1.3,1.4-1.3s1.4,0.7,1.4,1.3s-0.4,1.3-1.4,1.3C205.6,45.8,205.2,45.1,205.2,44.5z M207.4,44.5c0-0.5-0.3-0.9-0.9-0.9
	s-0.9,0.4-0.9,0.9s0.3,0.9,0.9,0.9C207.1,45.4,207.4,45,207.4,44.5z"/>
<path class="st0" d="M193.7,62.1l-1,0.3l-0.1-0.5l1.3-0.4h0.5v5.3h-0.6L193.7,62.1L193.7,62.1z M195.5,66.5c0-0.3,0.2-0.5,0.5-0.5
	s0.5,0.2,0.5,0.5S196.3,67,196,67S195.5,66.8,195.5,66.5z M197.3,66.9l0.1-0.5c0.1,0,0.3,0.1,0.7,0.1c1,0,1.5-0.4,1.5-1.1
	c0-0.8-0.7-1.1-1.7-1.1v-0.4c0.8,0,1.6-0.4,1.6-1.1c0-0.4-0.3-0.7-0.9-0.7c-0.5,0-0.8,0.2-1.1,0.4l-0.3-0.4c0.3-0.2,0.8-0.5,1.4-0.5
	c1,0,1.5,0.5,1.5,1.2s-0.6,1.1-1.2,1.3l0,0c0.7,0.1,1.3,0.6,1.3,1.4c0,1.1-0.9,1.7-2.1,1.7C197.7,67,197.4,67,197.3,66.9z M201,62.8
	c0-0.6,0.4-1.3,1.4-1.3s1.4,0.7,1.4,1.3s-0.4,1.3-1.4,1.3C201.4,64.2,201,63.4,201,62.8z M203.3,62.8c0-0.5-0.3-0.9-0.9-0.9
	s-0.9,0.4-0.9,0.9s0.3,0.9,0.9,0.9C202.9,63.7,203.3,63.4,203.3,62.8z M205.5,61.6h0.6l-3.4,5.3h-0.6L205.5,61.6z M204.4,65.6
	c0-0.6,0.4-1.3,1.4-1.3s1.4,0.7,1.4,1.3c0,0.6-0.4,1.3-1.4,1.3C204.8,67,204.4,66.2,204.4,65.6z M206.6,65.6c0-0.5-0.3-0.9-0.9-0.9
	s-0.9,0.4-0.9,0.9s0.3,0.9,0.9,0.9S206.6,66.1,206.6,65.6z"/>
<path class="st0" d="M159.7,83.5l-1,0.3l-0.1-0.5l1.3-0.4h0.5v5.3h-0.6L159.7,83.5L159.7,83.5z M162.5,83.5l-1,0.3l-0.1-0.5l1.3-0.4
	h0.5v5.3h-0.6L162.5,83.5L162.5,83.5z M164.4,87.8c0-0.3,0.2-0.5,0.5-0.5s0.5,0.2,0.5,0.5s-0.2,0.5-0.5,0.5S164.4,88.1,164.4,87.8z
	 M166.1,87.9c0.9-0.9,2.5-2.4,2.5-3.6c0-0.7-0.4-1-0.9-1c-0.6,0-0.9,0.3-1.2,0.5l-0.3-0.4c0.3-0.4,0.8-0.7,1.5-0.7
	c0.9,0,1.6,0.5,1.6,1.4c0,1.2-1.3,2.5-2.3,3.5c0,0,0.3,0,0.6,0h1.8v0.5h-3.3L166.1,87.9L166.1,87.9z M170.1,84.2
	c0-0.6,0.4-1.3,1.4-1.3s1.4,0.7,1.4,1.3c0,0.6-0.4,1.3-1.4,1.3S170.1,84.8,170.1,84.2z M172.3,84.2c0-0.5-0.3-0.9-0.9-0.9
	s-0.9,0.4-0.9,0.9s0.3,0.9,0.9,0.9S172.3,84.7,172.3,84.2z M174.6,82.9h0.6l-3.4,5.3h-0.6L174.6,82.9z M173.4,87
	c0-0.6,0.4-1.3,1.4-1.3s1.4,0.7,1.4,1.3c0,0.6-0.4,1.3-1.4,1.3C173.8,88.3,173.4,87.6,173.4,87z M175.7,87c0-0.5-0.3-0.9-0.9-0.9
	S174,86.4,174,87c0,0.5,0.3,0.9,0.9,0.9C175.3,87.9,175.7,87.5,175.7,87z"/>
<path class="st0" d="M161.3,109.5c0.9-0.9,2.5-2.4,2.5-3.6c0-0.7-0.4-1-0.9-1c-0.6,0-0.9,0.3-1.2,0.5l-0.3-0.4
	c0.3-0.4,0.8-0.7,1.5-0.7c0.9,0,1.6,0.5,1.6,1.4c0,1.2-1.3,2.5-2.3,3.5c0,0,0.3,0,0.6,0h1.8v0.5h-3.3L161.3,109.5L161.3,109.5z
	 M165.5,109.4c0-0.3,0.2-0.5,0.5-0.5s0.5,0.2,0.5,0.5s-0.2,0.5-0.5,0.5S165.5,109.7,165.5,109.4z M167.5,109.5
	c0.8,0,1.5-0.2,1.9-0.8c0.3-0.4,0.5-0.8,0.6-1.5c-0.3,0.3-0.7,0.5-1.2,0.5c-1,0-1.6-0.7-1.6-1.6s0.6-1.7,1.7-1.7
	c1.3,0,1.8,1.2,1.8,2.3c0,2-1,3.3-3,3.3L167.5,109.5z M170.1,106.8L170.1,106.8c0-1.2-0.4-1.9-1.2-1.9c-0.7,0-1,0.6-1,1.2
	c0,0.8,0.4,1.2,1.1,1.2C169.4,107.2,169.8,107.1,170.1,106.8z M171.4,105.8c0-0.6,0.4-1.3,1.4-1.3s1.4,0.7,1.4,1.3
	c0,0.6-0.4,1.3-1.4,1.3C171.8,107.1,171.4,106.4,171.4,105.8z M173.6,105.8c0-0.5-0.3-0.9-0.9-0.9s-0.9,0.4-0.9,0.9s0.3,0.9,0.9,0.9
	C173.3,106.7,173.6,106.3,173.6,105.8z M175.9,104.5h0.6l-3.4,5.3h-0.6L175.9,104.5z M174.7,108.6c0-0.6,0.4-1.3,1.4-1.3
	s1.4,0.7,1.4,1.3c0,0.6-0.4,1.3-1.4,1.3C175.1,109.9,174.7,109.2,174.7,108.6z M177,108.6c0-0.5-0.3-0.9-0.9-0.9s-0.9,0.4-0.9,0.9
	s0.3,0.9,0.9,0.9C176.6,109.5,177,109.1,177,108.6z"/>
<path class="st0" d="M161.3,130.5h-2.5V130l2.4-3.6h0.6v3.6h0.8v0.5h-0.8v1.2h-0.6v-1.2H161.3z M160.1,130h1.2v-2.7l0,0l-1.8,2.8
	C159.6,130,159.9,130,160.1,130z M163.3,131.3c0-0.3,0.2-0.5,0.5-0.5s0.5,0.2,0.5,0.5s-0.2,0.5-0.5,0.5S163.3,131.6,163.3,131.3z
	 M165.2,129.5c0-2,1.2-3.3,3.1-3.3l0.1,0.5c-0.8,0-1.4,0.2-1.9,0.6c-0.4,0.4-0.6,0.9-0.7,1.6c0.3-0.3,0.7-0.5,1.2-0.5
	c1,0,1.6,0.7,1.6,1.6s-0.6,1.7-1.7,1.7C165.7,131.8,165.2,130.6,165.2,129.5z M168,130.1c0-0.8-0.4-1.2-1.1-1.2
	c-0.5,0-0.8,0.2-1.1,0.5v0.1c0,1.1,0.4,1.8,1.2,1.8C167.7,131.3,168,130.7,168,130.1z M169.3,127.6c0-0.6,0.4-1.3,1.4-1.3
	s1.4,0.7,1.4,1.3c0,0.6-0.4,1.3-1.4,1.3C169.7,129,169.3,128.2,169.3,127.6z M171.5,127.6c0-0.5-0.3-0.9-0.9-0.9s-0.9,0.4-0.9,0.9
	c0,0.5,0.3,0.9,0.9,0.9S171.5,128.1,171.5,127.6z M173.7,126.4h0.6l-3.4,5.3h-0.6L173.7,126.4z M172.6,130.4c0-0.6,0.4-1.3,1.4-1.3
	s1.4,0.7,1.4,1.3s-0.4,1.3-1.4,1.3C173,131.8,172.6,131,172.6,130.4z M174.8,130.4c0-0.5-0.3-0.9-0.9-0.9s-0.9,0.4-0.9,0.9
	s0.3,0.9,0.9,0.9C174.5,131.3,174.8,130.9,174.8,130.4z"/>
<path class="st0" d="M124.7,152.4c0.9-0.9,2.5-2.4,2.5-3.6c0-0.7-0.4-1-0.9-1c-0.6,0-0.9,0.3-1.2,0.5l-0.3-0.4
	c0.3-0.4,0.8-0.7,1.5-0.7c0.9,0,1.6,0.5,1.6,1.4c0,1.2-1.3,2.5-2.3,3.5c0,0,0.3,0,0.6,0h1.8v0.5h-3.3
	C124.7,152.6,124.7,152.4,124.7,152.4z M130.8,151.5h-2.5V151l2.4-3.6h0.6v3.6h0.8v0.5h-0.8v1.2h-0.6v-1.2H130.8z M129.6,151h1.2
	v-2.7l0,0L129,151C129.1,151,129.4,151,129.6,151z M132.5,152.3c0-0.3,0.2-0.5,0.5-0.5s0.5,0.2,0.5,0.5s-0.2,0.5-0.5,0.5
	S132.5,152.6,132.5,152.3z M133.9,152.8l0.1-0.5c0.1,0,0.2,0,0.5,0c0.9,0,1.7-0.4,1.7-1.3c0-0.9-0.7-1.2-1.6-1.2c-0.2,0-0.4,0-0.4,0
	l0.2-2.5h2.4v0.5H135l-0.1,1.4c1.3,0,2,0.6,2,1.6c0,1.2-1,1.8-2.4,1.8C134.2,152.8,134,152.8,133.9,152.8z M137.2,148.7
	c0-0.6,0.4-1.3,1.4-1.3s1.4,0.7,1.4,1.3s-0.4,1.3-1.4,1.3C137.6,150,137.2,149.3,137.2,148.7z M139.4,148.7c0-0.5-0.3-0.9-0.9-0.9
	s-0.9,0.4-0.9,0.9s0.3,0.9,0.9,0.9C139.1,149.6,139.4,149.2,139.4,148.7z M141.6,147.4h0.6l-3.4,5.3h-0.6L141.6,147.4z M140.5,151.5
	c0-0.6,0.4-1.3,1.4-1.3s1.4,0.7,1.4,1.3s-0.4,1.3-1.4,1.3S140.5,152.1,140.5,151.5z M142.7,151.5c0-0.5-0.3-0.9-0.9-0.9
	s-0.9,0.4-0.9,0.9s0.3,0.9,0.9,0.9S142.7,152,142.7,151.5z"/>
<path class="st0" d="M132.3,169.3l-1,0.3l-0.1-0.5l1.3-0.4h0.5v5.3h-0.6L132.3,169.3L132.3,169.3z M133.9,171.4c0-1.3,0.5-2.8,2-2.8
	c1.4,0,2,1.4,2,2.8s-0.6,2.8-2,2.8C134.4,174.2,133.9,172.7,133.9,171.4z M137.3,171.4c0-1.3-0.4-2.3-1.4-2.3s-1.4,1-1.4,2.3
	s0.4,2.3,1.4,2.3C136.8,173.6,137.3,172.6,137.3,171.4z M138.4,173.6c0-0.3,0.2-0.5,0.5-0.5s0.5,0.2,0.5,0.5s-0.2,0.5-0.5,0.5
	S138.4,173.9,138.4,173.6z M140.2,173.7c0.8,0,1.5-0.2,1.9-0.8c0.3-0.4,0.5-0.8,0.6-1.5c-0.3,0.3-0.7,0.5-1.2,0.5
	c-1,0-1.6-0.7-1.6-1.6s0.6-1.7,1.7-1.7c1.3,0,1.8,1.2,1.8,2.3c0,2-1,3.3-3,3.3L140.2,173.7z M142.7,171v-0.1c0-1.1-0.4-1.8-1.2-1.8
	c-0.7,0-1,0.6-1,1.2c0,0.8,0.4,1.2,1.1,1.2C142.1,171.5,142.4,171.3,142.7,171z M143.8,170c0-0.6,0.4-1.3,1.4-1.3s1.4,0.7,1.4,1.3
	s-0.4,1.3-1.4,1.3S143.8,170.6,143.8,170z M146,170c0-0.5-0.3-0.9-0.9-0.9s-0.9,0.4-0.9,0.9s0.3,0.9,0.9,0.9S146,170.5,146,170z
	 M148.2,168.7h0.6l-3.4,5.3h-0.6L148.2,168.7z M147.1,172.8c0-0.6,0.4-1.3,1.4-1.3s1.4,0.7,1.4,1.3s-0.4,1.3-1.4,1.3
	S147.1,173.4,147.1,172.8z M149.3,172.8c0-0.5-0.3-0.9-0.9-0.9s-0.9,0.4-0.9,0.9s0.3,0.9,0.9,0.9S149.3,173.3,149.3,172.8z"/>
<path class="st0" d="M120.4,190l-1,0.3l-0.1-0.5l1.3-0.4h0.5v5.3h-0.6V190H120.4z M121.9,192.7c0-2,1.2-3.3,3.1-3.3l0.1,0.5
	c-0.8,0-1.4,0.2-1.9,0.6c-0.4,0.4-0.6,0.9-0.7,1.6c0.3-0.3,0.7-0.5,1.2-0.5c1,0,1.6,0.7,1.6,1.6s-0.6,1.7-1.7,1.7
	C122.4,194.9,121.9,193.7,121.9,192.7z M124.7,193.2c0-0.8-0.4-1.2-1.1-1.2c-0.5,0-0.8,0.2-1.1,0.5v0.1c0,1.1,0.4,1.8,1.2,1.8
	C124.4,194.4,124.7,193.8,124.7,193.2z M125.8,194.4c0-0.3,0.2-0.5,0.5-0.5s0.5,0.2,0.5,0.5s-0.2,0.5-0.5,0.5
	S125.8,194.7,125.8,194.4z M127.4,192.2c0-1.3,0.5-2.8,2-2.8c1.4,0,2,1.4,2,2.8s-0.6,2.8-2,2.8C127.9,194.9,127.4,193.5,127.4,192.2
	z M130.7,192.2c0-1.3-0.4-2.3-1.4-2.3s-1.4,1-1.4,2.3s0.4,2.3,1.4,2.3C130.3,194.4,130.7,193.4,130.7,192.2z M131.8,190.7
	c0-0.6,0.4-1.3,1.4-1.3s1.4,0.7,1.4,1.3s-0.4,1.3-1.4,1.3C132.2,192.1,131.8,191.4,131.8,190.7z M134,190.7c0-0.5-0.3-0.9-0.9-0.9
	s-0.9,0.4-0.9,0.9s0.3,0.9,0.9,0.9C133.7,191.6,134,191.3,134,190.7z M136.3,189.5h0.6l-3.4,5.3h-0.6L136.3,189.5z M135.1,193.5
	c0-0.6,0.4-1.3,1.4-1.3s1.4,0.7,1.4,1.3s-0.4,1.3-1.4,1.3C135.5,194.9,135.1,194.1,135.1,193.5z M137.4,193.5c0-0.5-0.3-0.9-0.9-0.9
	s-0.9,0.4-0.9,0.9s0.3,0.9,0.9,0.9C137,194.4,137.4,194,137.4,193.5z"/>
</svg>
