<?xml version="1.0" encoding="utf-8"?>
<!-- Generator: Adobe Illustrator 26.0.1, SVG Export Plug-In . SVG Version: 6.00 Build 0)  -->
<svg version="1.1" id="Layer_2" xmlns="http://www.w3.org/2000/svg" xmlns:xlink="http://www.w3.org/1999/xlink" x="0px" y="0px"
	 viewBox="0 0 250 250" style="enable-background:new 0 0 250 250;" xml:space="preserve">
<style type="text/css">
	.st0{fill:#4D4D4F;}
	.st1{fill:none;stroke:#B19E4E;stroke-width:1.6;stroke-linejoin:round;}
	.st2{fill:none;stroke:#999997;stroke-width:1.6;}
	.st3{fill:none;stroke:#BCBEC0;stroke-width:0.5;}
	.st4{fill:#B19E4E;}
	.st5{fill:#999997;}
</style>
<g>
	<path class="st0" d="M9.7,238.8v-3.3h0.6v3.3c0,1.1,0.5,1.6,1.5,1.6c1,0,1.4-0.6,1.4-1.5v-3.4h0.6v3.3c0,1.3-0.6,2.1-2,2.1
		C10.3,240.9,9.7,240.1,9.7,238.8z"/>
	<path class="st0" d="M14.8,240.4c0-0.3,0.2-0.5,0.5-0.5c0.3,0,0.5,0.2,0.5,0.5c0,0.3-0.2,0.5-0.5,0.5
		C15,240.9,14.8,240.7,14.8,240.4z"/>
	<path class="st0" d="M16.5,240.3l0.3-0.4c0.1,0.1,0.5,0.5,1.2,0.5c0.7,0,1.1-0.4,1.1-0.9c0-0.6-0.6-0.9-1.2-1.2
		c-0.6-0.3-1.2-0.7-1.2-1.5c0-0.9,0.7-1.4,1.6-1.4c0.8,0,1.2,0.3,1.4,0.4l-0.3,0.5c-0.2-0.1-0.5-0.4-1.1-0.4c-0.5,0-0.9,0.3-0.9,0.8
		c0,0.5,0.4,0.8,1,1c0.7,0.3,1.5,0.7,1.5,1.7c0,0.8-0.7,1.4-1.7,1.4C17.2,240.9,16.7,240.5,16.5,240.3z"/>
	<path class="st0" d="M20.5,240.4c0-0.3,0.2-0.5,0.5-0.5c0.3,0,0.5,0.2,0.5,0.5c0,0.3-0.2,0.5-0.5,0.5
		C20.7,240.9,20.5,240.7,20.5,240.4z"/>
	<path class="st0" d="M24.1,238.1c0-1.4,1-2.7,2.6-2.7c0.7,0,1.1,0.2,1.5,0.4l-0.3,0.5c-0.3-0.2-0.7-0.4-1.2-0.4
		c-1.3,0-1.9,1.1-1.9,2.2c0,1.2,0.6,2.3,2,2.3c0.6,0,1-0.2,1.3-0.5l0.3,0.4c-0.3,0.3-0.9,0.5-1.6,0.5
		C25,240.9,24.1,239.6,24.1,238.1z"/>
	<path class="st0" d="M28.8,238.9c0-0.9,0.5-2,1.8-2s1.8,1.1,1.8,2c0,0.9-0.5,2-1.8,2C29.3,240.9,28.8,239.8,28.8,238.9z
		 M31.8,238.9c0-0.8-0.4-1.5-1.2-1.5s-1.1,0.7-1.1,1.5c0,0.8,0.4,1.5,1.2,1.5C31.4,240.4,31.8,239.7,31.8,238.9z"/>
	<path class="st0" d="M33.4,237H34v0.6c0.3-0.4,0.8-0.6,1.2-0.6c0.8,0,1.1,0.5,1.1,1.2v2.7h-0.6v-2.6c0-0.5-0.2-0.8-0.7-0.8
		c-0.4,0-0.8,0.3-1.1,0.7v2.7h-0.6V237z"/>
	<path class="st0" d="M37.3,240.5l0.3-0.4c0.1,0.1,0.5,0.3,1,0.3c0.5,0,0.8-0.2,0.8-0.6s-0.3-0.5-0.8-0.7c-0.6-0.3-1.1-0.5-1.1-1.2
		c0-0.6,0.4-1.1,1.2-1.1c0.6,0,1,0.3,1.1,0.4l-0.3,0.4c-0.1-0.1-0.4-0.3-0.9-0.3c-0.4,0-0.6,0.2-0.6,0.5c0,0.4,0.3,0.5,0.7,0.7
		c0.6,0.3,1.2,0.5,1.2,1.2c0,0.7-0.5,1.1-1.4,1.1C38,240.9,37.5,240.7,37.3,240.5z"/>
	<path class="st0" d="M40.9,239.7V237h0.6v2.6c0,0.5,0.2,0.8,0.7,0.8c0.6,0,1-0.6,1.1-0.7V237h0.6v3c0,0.3,0,0.7,0.1,0.8h-0.6
		c0-0.1,0-0.4-0.1-0.6c-0.2,0.2-0.6,0.7-1.2,0.7C41.2,240.9,40.9,240.4,40.9,239.7z"/>
	<path class="st0" d="M45.1,237h0.6v0.5c0.2-0.2,0.5-0.6,1.2-0.6c0.6,0,0.9,0.3,1,0.6c0.3-0.3,0.7-0.6,1.2-0.6
		c0.8,0,1.1,0.5,1.1,1.2v2.7h-0.6v-2.6c0-0.5-0.1-0.8-0.6-0.8c-0.5,0-0.8,0.4-1,0.6v2.8h-0.6v-2.6c0-0.5-0.2-0.8-0.6-0.8
		c-0.6,0-1,0.6-1,0.7v2.7h-0.6V237z"/>
	<path class="st0" d="M51.1,238.9c0-1.1,0.7-2,1.7-2c1,0,1.5,0.7,1.5,1.7c0,0.1,0,0.2,0,0.3h-2.6c0,0.8,0.3,1.5,1.2,1.5
		c0.5,0,0.9-0.2,1.1-0.3l0.2,0.5c-0.2,0.1-0.6,0.4-1.3,0.4C51.7,240.9,51.1,240,51.1,238.9z M53.8,238.4c0-0.5-0.3-1-0.9-1
		c-0.6,0-1,0.4-1.1,1H53.8z"/>
	<path class="st0" d="M55.4,237H56v0.6c0.2-0.3,0.5-0.7,1-0.7c0.2,0,0.4,0.1,0.4,0.1l-0.1,0.6c0,0-0.1-0.1-0.3-0.1
		c-0.6,0-0.9,0.7-0.9,0.8v2.6h-0.6V237z"/>
	<path class="st0" d="M60.1,235.5h1.3c1.1,0,1.9,0.5,1.9,1.5c0,1-0.7,1.6-2,1.6h-0.6v2.2h-0.6V235.5z M61.3,238.1
		c0.9,0,1.3-0.4,1.3-1.1c0-0.6-0.4-1-1.3-1h-0.6v2.1H61.3z"/>
	<path class="st0" d="M64.2,237h0.6v0.6c0.2-0.3,0.5-0.7,1-0.7c0.2,0,0.4,0.1,0.4,0.1l-0.1,0.6c0,0-0.1-0.1-0.3-0.1
		c-0.6,0-0.9,0.7-0.9,0.8v2.6h-0.6V237z"/>
	<path class="st0" d="M66.9,235.8c0-0.2,0.2-0.4,0.4-0.4c0.2,0,0.4,0.2,0.4,0.4c0,0.2-0.2,0.4-0.4,0.4
		C67.1,236.2,66.9,236,66.9,235.8z M67.1,237h0.6v3.8h-0.6V237z"/>
	<path class="st0" d="M68.7,238.9c0-1.3,0.8-2,1.8-2c0.6,0,1,0.2,1.2,0.4l-0.3,0.4c-0.2-0.2-0.5-0.3-0.9-0.3c-0.8,0-1.1,0.7-1.1,1.5
		c0,0.8,0.4,1.5,1.2,1.5c0.5,0,0.8-0.2,0.9-0.3l0.2,0.4c-0.2,0.1-0.5,0.4-1.2,0.4C69.3,240.9,68.7,239.9,68.7,238.9z"/>
	<path class="st0" d="M72.2,238.9c0-1.1,0.7-2,1.7-2c1,0,1.5,0.7,1.5,1.7c0,0.1,0,0.2,0,0.3h-2.6c0,0.8,0.3,1.5,1.2,1.5
		c0.5,0,0.9-0.2,1.1-0.3l0.2,0.5c-0.2,0.1-0.6,0.4-1.3,0.4C72.8,240.9,72.2,240,72.2,238.9z M74.8,238.4c0-0.5-0.3-1-0.9-1
		c-0.6,0-1,0.4-1.1,1H74.8z"/>
	<path class="st0" d="M78.4,235.5H79v5.3h-0.6V235.5z"/>
	<path class="st0" d="M80.5,237h0.6v0.6c0.3-0.4,0.8-0.6,1.2-0.6c0.8,0,1.1,0.5,1.1,1.2v2.7h-0.6v-2.6c0-0.5-0.2-0.8-0.7-0.8
		c-0.4,0-0.8,0.3-1.1,0.7v2.7h-0.6V237z"/>
	<path class="st0" d="M84.4,238.9c0-1.2,0.7-2,1.7-2c0.4,0,0.7,0.1,1,0.3V235h0.6v5c0,0.3,0,0.6,0.1,0.8h-0.6c0-0.1-0.1-0.3-0.1-0.4
		c-0.3,0.3-0.6,0.5-1.1,0.5C85.1,240.9,84.4,240.2,84.4,238.9z M87.1,239.8v-2.1c-0.2-0.2-0.5-0.4-0.9-0.4c-0.7,0-1.1,0.6-1.1,1.5
		c0,0.9,0.3,1.5,1.1,1.5C86.5,240.4,86.8,240.2,87.1,239.8z"/>
	<path class="st0" d="M88.6,238.9c0-1.1,0.7-2,1.7-2c1,0,1.5,0.7,1.5,1.7c0,0.1,0,0.2,0,0.3h-2.6c0,0.8,0.3,1.5,1.2,1.5
		c0.5,0,0.9-0.2,1.1-0.3l0.2,0.5c-0.2,0.1-0.6,0.4-1.3,0.4C89.2,240.9,88.6,240,88.6,238.9z M91.2,238.4c0-0.5-0.3-1-0.9-1
		c-0.6,0-1,0.4-1.1,1H91.2z"/>
	<path class="st0" d="M93.7,238.8l-1.2-1.8h0.7c0,0,0.9,1.3,0.9,1.4l0.9-1.4h0.6l-1.2,1.8l1.4,2H95l-1.1-1.6l-1,1.6h-0.6L93.7,238.8
		z"/>
	<path class="st0" d="M99.6,238.8l-1.8-3.3h0.7l1.4,2.7h0l1.4-2.7h0.6l-1.7,3.3v2h-0.6V238.8z"/>
	<path class="st0" d="M101.9,238.9c0-0.9,0.5-2,1.8-2s1.8,1.1,1.8,2c0,0.9-0.5,2-1.8,2S101.9,239.8,101.9,238.9z M104.9,238.9
		c0-0.8-0.4-1.5-1.2-1.5c-0.8,0-1.1,0.7-1.1,1.5c0,0.8,0.4,1.5,1.2,1.5C104.5,240.4,104.9,239.7,104.9,238.9z"/>
	<path class="st0" d="M107.7,238.8l-1.8-3.3h0.7l1.4,2.7h0l1.4-2.7h0.6l-1.7,3.3v2h-0.6V238.8z"/>
</g>
<path class="st0" d="M110.5,236.7c0-0.6,0.4-1.3,1.4-1.3c1,0,1.4,0.7,1.4,1.3c0,0.6-0.4,1.3-1.4,1.3
	C110.9,238.1,110.5,237.3,110.5,236.7z M112.7,236.7c0-0.5-0.3-0.9-0.9-0.9s-0.9,0.4-0.9,0.9c0,0.5,0.3,0.9,0.9,0.9
	C112.4,237.6,112.7,237.2,112.7,236.7z M115,235.5h0.6l-3.4,5.3h-0.6L115,235.5z M113.8,239.5c0-0.6,0.4-1.3,1.4-1.3
	c1,0,1.4,0.7,1.4,1.3c0,0.6-0.4,1.3-1.4,1.3C114.2,240.9,113.8,240.1,113.8,239.5z M116.1,239.5c0-0.5-0.3-0.9-0.9-0.9
	s-0.9,0.4-0.9,0.9c0,0.5,0.3,0.9,0.9,0.9C115.7,240.4,116.1,240,116.1,239.5z"/>
<line class="st1" x1="0.3" y1="238.2" x2="6.3" y2="238.2"/>
<g>
	<path class="st0" d="M9.6,228.8v-3.3h0.6v3.3c0,1.1,0.5,1.6,1.5,1.6c1,0,1.4-0.6,1.4-1.5v-3.4h0.6v3.3c0,1.3-0.6,2.1-2,2.1
		C10.2,230.9,9.6,230.1,9.6,228.8z"/>
	<path class="st0" d="M14.6,230.4c0-0.3,0.2-0.5,0.5-0.5c0.3,0,0.5,0.2,0.5,0.5c0,0.3-0.2,0.5-0.5,0.5
		C14.8,230.9,14.6,230.7,14.6,230.4z"/>
	<path class="st0" d="M16.3,230.4l0.3-0.4c0.1,0.1,0.5,0.5,1.2,0.5c0.7,0,1.1-0.4,1.1-0.9c0-0.6-0.6-0.9-1.2-1.2
		c-0.6-0.3-1.2-0.7-1.2-1.5c0-0.9,0.7-1.4,1.6-1.4c0.8,0,1.2,0.3,1.4,0.4l-0.3,0.5c-0.2-0.1-0.5-0.4-1.1-0.4c-0.5,0-0.9,0.3-0.9,0.8
		c0,0.5,0.4,0.8,1,1c0.7,0.3,1.5,0.7,1.5,1.7c0,0.8-0.7,1.4-1.7,1.4C17,230.9,16.5,230.6,16.3,230.4z"/>
	<path class="st0" d="M20.4,230.4c0-0.3,0.2-0.5,0.5-0.5s0.5,0.2,0.5,0.5c0,0.3-0.2,0.5-0.5,0.5S20.4,230.7,20.4,230.4z"/>
	<path class="st0" d="M24.3,225.5h1.3c1.1,0,1.9,0.5,1.9,1.5c0,1-0.7,1.6-2,1.6h-0.6v2.2h-0.6V225.5z M25.5,228.1
		c0.9,0,1.3-0.4,1.3-1.1c0-0.6-0.4-1-1.3-1h-0.6v2.1H25.5z"/>
	<path class="st0" d="M27.9,228.9c0-1.1,0.7-2,1.7-2c1,0,1.5,0.7,1.5,1.7c0,0.1,0,0.2,0,0.3h-2.6c0,0.8,0.3,1.5,1.2,1.5
		c0.5,0,0.9-0.2,1.1-0.3l0.2,0.5c-0.2,0.1-0.6,0.4-1.3,0.4C28.5,230.9,27.9,230,27.9,228.9z M30.6,228.4c0-0.5-0.3-1-0.9-1
		c-0.6,0-1,0.4-1.1,1H30.6z"/>
	<path class="st0" d="M32.2,227h0.6v0.6c0.2-0.3,0.5-0.7,1-0.7c0.2,0,0.4,0.1,0.4,0.1l-0.1,0.6c0,0-0.1-0.1-0.3-0.1
		c-0.6,0-0.9,0.7-0.9,0.8v2.6h-0.6V227z"/>
	<path class="st0" d="M34.6,230.6l0.3-0.4c0.1,0.1,0.5,0.3,1,0.3c0.5,0,0.8-0.2,0.8-0.6s-0.3-0.5-0.8-0.7c-0.6-0.3-1.1-0.5-1.1-1.2
		c0-0.6,0.4-1.1,1.2-1.1c0.6,0,1,0.3,1.1,0.4l-0.3,0.4c-0.1-0.1-0.4-0.3-0.9-0.3c-0.4,0-0.6,0.2-0.6,0.5c0,0.4,0.3,0.5,0.7,0.7
		c0.6,0.3,1.2,0.5,1.2,1.2c0,0.7-0.5,1.1-1.4,1.1C35.3,230.9,34.9,230.7,34.6,230.6z"/>
	<path class="st0" d="M37.9,228.9c0-0.9,0.5-2,1.8-2c1.3,0,1.8,1.1,1.8,2c0,0.9-0.5,2-1.8,2C38.4,230.9,37.9,229.8,37.9,228.9z
		 M40.8,228.9c0-0.8-0.4-1.5-1.2-1.5c-0.8,0-1.1,0.7-1.1,1.5c0,0.8,0.4,1.5,1.2,1.5C40.5,230.4,40.8,229.7,40.8,228.9z"/>
	<path class="st0" d="M42.4,227H43v0.6c0.3-0.4,0.8-0.6,1.2-0.6c0.8,0,1.1,0.5,1.1,1.2v2.7h-0.6v-2.6c0-0.5-0.2-0.8-0.7-0.8
		c-0.4,0-0.8,0.3-1.1,0.7v2.7h-0.6V227z"/>
	<path class="st0" d="M46.4,229.9c0-1,1.1-1.3,2-1.3h0.2v-0.4c0-0.6-0.2-0.8-0.8-0.8c-0.4,0-0.7,0.1-1,0.4l-0.3-0.4
		c0.4-0.4,0.8-0.5,1.4-0.5c0.8,0,1.3,0.4,1.3,1.3v1.8c0,0.4,0,0.7,0.1,0.9h-0.6c0-0.1,0-0.3-0.1-0.5c-0.3,0.3-0.7,0.6-1.2,0.6
		C46.8,230.9,46.4,230.5,46.4,229.9z M48.6,229.9V229h-0.2c-0.8,0-1.4,0.2-1.4,0.9c0,0.4,0.3,0.5,0.6,0.5
		C48,230.4,48.3,230.2,48.6,229.9z"/>
	<path class="st0" d="M50.5,225.1h0.6v5.8h-0.6V225.1z"/>
	<path class="st0" d="M53.9,228.1c0-1.4,1-2.7,2.6-2.7c0.7,0,1.1,0.2,1.5,0.4l-0.3,0.5c-0.3-0.2-0.7-0.4-1.2-0.4
		c-1.3,0-1.9,1.1-1.9,2.2c0,1.2,0.6,2.3,2,2.3c0.6,0,1-0.2,1.3-0.5l0.3,0.4c-0.3,0.3-0.9,0.5-1.6,0.5
		C54.9,230.9,53.9,229.6,53.9,228.1z"/>
	<path class="st0" d="M58.7,228.9c0-0.9,0.5-2,1.8-2s1.8,1.1,1.8,2c0,0.9-0.5,2-1.8,2C59.1,230.9,58.7,229.8,58.7,228.9z
		 M61.6,228.9c0-0.8-0.4-1.5-1.2-1.5s-1.1,0.7-1.1,1.5c0,0.8,0.4,1.5,1.2,1.5S61.6,229.7,61.6,228.9z"/>
	<path class="st0" d="M63.2,227h0.6v0.6c0.3-0.4,0.8-0.6,1.2-0.6c0.8,0,1.1,0.5,1.1,1.2v2.7h-0.6v-2.6c0-0.5-0.2-0.8-0.7-0.8
		c-0.4,0-0.8,0.3-1.1,0.7v2.7h-0.6V227z"/>
	<path class="st0" d="M67.1,230.6l0.3-0.4c0.1,0.1,0.5,0.3,1,0.3c0.5,0,0.8-0.2,0.8-0.6s-0.3-0.5-0.8-0.7c-0.6-0.3-1.1-0.5-1.1-1.2
		c0-0.6,0.4-1.1,1.2-1.1c0.6,0,1,0.3,1.1,0.4l-0.3,0.4c-0.1-0.1-0.4-0.3-0.9-0.3c-0.4,0-0.6,0.2-0.6,0.5c0,0.4,0.3,0.5,0.7,0.7
		c0.6,0.3,1.2,0.5,1.2,1.2c0,0.7-0.5,1.1-1.4,1.1C67.8,230.9,67.4,230.7,67.1,230.6z"/>
	<path class="st0" d="M70.7,229.7V227h0.6v2.6c0,0.5,0.2,0.8,0.7,0.8c0.6,0,1-0.6,1.1-0.7V227h0.6v3c0,0.3,0,0.7,0.1,0.8h-0.6
		c0-0.1,0-0.4-0.1-0.6c-0.2,0.2-0.6,0.7-1.2,0.7C71,230.9,70.7,230.4,70.7,229.7z"/>
	<path class="st0" d="M74.9,227h0.6v0.5c0.2-0.2,0.5-0.6,1.2-0.6c0.6,0,0.9,0.3,1,0.6c0.3-0.3,0.7-0.6,1.2-0.6
		c0.8,0,1.1,0.5,1.1,1.2v2.7h-0.6v-2.6c0-0.5-0.1-0.8-0.6-0.8c-0.5,0-0.8,0.4-1,0.6v2.8h-0.6v-2.6c0-0.5-0.2-0.8-0.6-0.8
		c-0.6,0-1,0.6-1,0.7v2.7h-0.6V227z"/>
	<path class="st0" d="M81.3,227h0.6v0.4c0.2-0.2,0.6-0.5,1.1-0.5c0.9,0,1.6,0.7,1.6,2c0,1.2-0.7,2-1.7,2c-0.5,0-0.8-0.2-1-0.3v2
		h-0.6V227z M83.9,228.9c0-0.9-0.3-1.5-1.1-1.5c-0.5,0-0.9,0.4-1,0.5v2.1c0.2,0.2,0.4,0.4,0.9,0.4C83.5,230.4,83.9,229.8,83.9,228.9
		z"/>
	<path class="st0" d="M85.7,229.9v-2.5h-0.6V227h0.6v-1.1h0.6v1.1h1v0.5h-1v2.4c0,0.4,0.1,0.6,0.4,0.6c0.2,0,0.5-0.1,0.5-0.2
		l0.2,0.4c-0.1,0.1-0.4,0.2-0.8,0.2C86,230.9,85.7,230.5,85.7,229.9z"/>
	<path class="st0" d="M88.2,225.8c0-0.2,0.2-0.4,0.4-0.4s0.4,0.2,0.4,0.4c0,0.2-0.2,0.4-0.4,0.4S88.2,226.1,88.2,225.8z M88.4,227
		h0.6v3.8h-0.6V227z"/>
	<path class="st0" d="M90,228.9c0-0.9,0.5-2,1.8-2c1.3,0,1.8,1.1,1.8,2c0,0.9-0.5,2-1.8,2S90,229.8,90,228.9z M92.9,228.9
		c0-0.8-0.4-1.5-1.2-1.5c-0.8,0-1.1,0.7-1.1,1.5c0,0.8,0.4,1.5,1.2,1.5C92.6,230.4,92.9,229.7,92.9,228.9z"/>
	<path class="st0" d="M94.5,227h0.6v0.6c0.3-0.4,0.8-0.6,1.2-0.6c0.8,0,1.1,0.5,1.1,1.2v2.7h-0.6v-2.6c0-0.5-0.2-0.8-0.7-0.8
		c-0.4,0-0.8,0.3-1.1,0.7v2.7h-0.6V227z"/>
	<path class="st0" d="M100.3,228.1c0-1.4,1-2.7,2.6-2.7c0.7,0,1.1,0.2,1.5,0.4l-0.3,0.5c-0.3-0.2-0.7-0.4-1.2-0.4
		c-1.3,0-1.9,1.1-1.9,2.2c0,1.2,0.6,2.3,2,2.3c0.6,0,1-0.2,1.3-0.5l0.3,0.4c-0.3,0.3-0.9,0.5-1.6,0.5
		C101.2,230.9,100.3,229.6,100.3,228.1z"/>
	<path class="st0" d="M105.1,228.9c0-0.9,0.5-2,1.8-2s1.8,1.1,1.8,2c0,0.9-0.5,2-1.8,2S105.1,229.8,105.1,228.9z M108,228.9
		c0-0.8-0.4-1.5-1.2-1.5c-0.8,0-1.1,0.7-1.1,1.5c0,0.8,0.4,1.5,1.2,1.5C107.6,230.4,108,229.7,108,228.9z"/>
	<path class="st0" d="M109.6,227h0.6v0.6c0.2-0.3,0.5-0.7,1-0.7c0.2,0,0.4,0.1,0.4,0.1l-0.1,0.6c0,0-0.1-0.1-0.3-0.1
		c-0.6,0-0.9,0.7-0.9,0.8v2.6h-0.6V227z"/>
	<path class="st0" d="M112,228.9c0-1.1,0.7-2,1.7-2c1,0,1.5,0.7,1.5,1.7c0,0.1,0,0.2,0,0.3h-2.6c0,0.8,0.3,1.5,1.2,1.5
		c0.5,0,0.9-0.2,1.1-0.3l0.2,0.5c-0.2,0.1-0.6,0.4-1.3,0.4C112.6,230.9,112,230,112,228.9z M114.6,228.4c0-0.5-0.3-1-0.9-1
		c-0.6,0-1,0.4-1.1,1H114.6z"/>
	<path class="st0" d="M118.1,225.5h1.3c1.1,0,1.9,0.5,1.9,1.5c0,1-0.7,1.6-2,1.6h-0.6v2.2h-0.6V225.5z M119.4,228.1
		c0.9,0,1.3-0.4,1.3-1.1c0-0.6-0.4-1-1.3-1h-0.6v2.1H119.4z"/>
	<path class="st0" d="M122.3,227h0.6v0.6c0.2-0.3,0.5-0.7,1-0.7c0.2,0,0.4,0.1,0.4,0.1l-0.1,0.6c0,0-0.1-0.1-0.3-0.1
		c-0.6,0-0.9,0.7-0.9,0.8v2.6h-0.6V227z"/>
	<path class="st0" d="M125,225.8c0-0.2,0.2-0.4,0.4-0.4c0.2,0,0.4,0.2,0.4,0.4c0,0.2-0.2,0.4-0.4,0.4
		C125.2,226.3,125,226.1,125,225.8z M125.1,227h0.6v3.8h-0.6V227z"/>
	<path class="st0" d="M126.8,228.9c0-1.3,0.8-2,1.8-2c0.6,0,1,0.2,1.2,0.4l-0.3,0.4c-0.2-0.2-0.5-0.3-0.9-0.3
		c-0.8,0-1.1,0.7-1.1,1.5c0,0.8,0.4,1.5,1.2,1.5c0.5,0,0.8-0.2,0.9-0.3l0.2,0.4c-0.2,0.1-0.5,0.4-1.2,0.4
		C127.4,230.9,126.8,230,126.8,228.9z"/>
	<path class="st0" d="M130.3,228.9c0-1.1,0.7-2,1.7-2c1,0,1.5,0.7,1.5,1.7c0,0.1,0,0.2,0,0.3h-2.6c0,0.8,0.3,1.5,1.2,1.5
		c0.5,0,0.9-0.2,1.1-0.3l0.2,0.5c-0.2,0.1-0.6,0.4-1.3,0.4C130.9,230.9,130.3,230,130.3,228.9z M132.9,228.4c0-0.5-0.3-1-0.9-1
		c-0.6,0-1,0.4-1.1,1H132.9z"/>
	<path class="st0" d="M136.5,225.5h0.6v5.3h-0.6V225.5z"/>
	<path class="st0" d="M138.6,227h0.6v0.6c0.3-0.4,0.8-0.6,1.2-0.6c0.8,0,1.1,0.5,1.1,1.2v2.7h-0.6v-2.6c0-0.5-0.2-0.8-0.7-0.8
		c-0.4,0-0.8,0.3-1.1,0.7v2.7h-0.6V227z"/>
	<path class="st0" d="M142.5,228.9c0-1.2,0.7-2,1.7-2c0.4,0,0.7,0.1,1,0.3v-2.2h0.6v5c0,0.3,0,0.6,0.1,0.8h-0.6
		c0-0.1-0.1-0.3-0.1-0.4c-0.3,0.3-0.6,0.5-1.1,0.5C143.1,230.9,142.5,230.2,142.5,228.9z M145.1,229.9v-2.1
		c-0.2-0.2-0.5-0.4-0.9-0.4c-0.7,0-1.1,0.6-1.1,1.5c0,0.9,0.3,1.5,1.1,1.5C144.5,230.4,144.9,230.2,145.1,229.9z"/>
	<path class="st0" d="M146.6,228.9c0-1.1,0.7-2,1.7-2c1,0,1.5,0.7,1.5,1.7c0,0.1,0,0.2,0,0.3h-2.6c0,0.8,0.3,1.5,1.2,1.5
		c0.5,0,0.9-0.2,1.1-0.3l0.2,0.5c-0.2,0.1-0.6,0.4-1.3,0.4C147.3,230.9,146.6,230,146.6,228.9z M149.3,228.4c0-0.5-0.3-1-0.9-1
		c-0.6,0-1,0.4-1.1,1H149.3z"/>
	<path class="st0" d="M151.7,228.8l-1.2-1.8h0.7c0,0,0.9,1.3,0.9,1.4l0.9-1.4h0.6l-1.2,1.8l1.4,2h-0.7l-1.1-1.6l-1,1.6h-0.6
		L151.7,228.8z"/>
	<path class="st0" d="M157.6,228.8l-1.8-3.3h0.7l1.4,2.7h0l1.4-2.7h0.6l-1.7,3.3v2h-0.6V228.8z"/>
	<path class="st0" d="M159.9,228.9c0-0.9,0.5-2,1.8-2s1.8,1.1,1.8,2c0,0.9-0.5,2-1.8,2C160.4,230.9,159.9,229.8,159.9,228.9z
		 M162.9,228.9c0-0.8-0.4-1.5-1.2-1.5c-0.8,0-1.1,0.7-1.1,1.5c0,0.8,0.4,1.5,1.2,1.5C162.5,230.4,162.9,229.7,162.9,228.9z"/>
	<path class="st0" d="M165.8,228.8l-1.8-3.3h0.7l1.4,2.7h0l1.4-2.7h0.6l-1.7,3.3v2h-0.6V228.8z"/>
</g>
<path class="st0" d="M168.4,226.7c0-0.6,0.4-1.3,1.4-1.3c1,0,1.4,0.7,1.4,1.3c0,0.6-0.4,1.3-1.4,1.3
	C168.8,228.1,168.4,227.4,168.4,226.7z M170.7,226.7c0-0.5-0.3-0.9-0.9-0.9s-0.9,0.4-0.9,0.9c0,0.5,0.3,0.9,0.9,0.9
	C170.4,227.7,170.7,227.3,170.7,226.7z M172.9,225.5h0.6l-3.4,5.3h-0.6L172.9,225.5z M171.8,229.5c0-0.6,0.4-1.3,1.4-1.3
	c1,0,1.4,0.7,1.4,1.3c0,0.6-0.4,1.3-1.4,1.3C172.2,230.9,171.8,230.1,171.8,229.5z M174,229.5c0-0.5-0.3-0.9-0.9-0.9
	s-0.9,0.4-0.9,0.9c0,0.5,0.3,0.9,0.9,0.9C173.7,230.4,174,230.1,174,229.5z"/>
<line class="st2" x1="0.3" y1="227.7" x2="6.3" y2="227.7"/>
<path class="st0" d="M80.7,199.9l0.1-0.5c0.1,0,0.3,0.1,0.7,0.1c1,0,1.5-0.4,1.5-1.1c0-0.8-0.7-1.1-1.7-1.1v-0.4
	c0.8,0,1.6-0.4,1.6-1.1c0-0.4-0.3-0.7-0.9-0.7c-0.5,0-0.8,0.2-1.1,0.4l-0.3-0.4c0.3-0.2,0.8-0.5,1.4-0.5c1,0,1.5,0.5,1.5,1.2
	c0,0.7-0.6,1.1-1.2,1.3v0c0.7,0.1,1.3,0.6,1.3,1.4c0,1.1-0.9,1.7-2.1,1.7C81.1,200,80.8,199.9,80.7,199.9z"/>
<g>
	<path class="st0" d="M87,200c-1.6,0-2.5-1.3-2.5-2.8c0-1.5,1-2.8,2.6-2.8s2.6,1.3,2.6,2.8c0,1.3-0.7,2.4-2,2.7
		c0.4,0.5,0.7,0.8,1.4,0.8c0.3,0,0.6-0.1,0.6-0.2l0.2,0.5c-0.2,0.1-0.5,0.3-0.9,0.3C88.3,201.2,87.8,200.9,87,200z M89.1,197.2
		c0-1.2-0.7-2.2-2-2.2s-2,1-2,2.2s0.7,2.2,2,2.2C88.4,199.5,89.1,198.4,89.1,197.2z"/>
</g>
<path class="st0" d="M90.4,199.5c0.9-0.9,2.5-2.4,2.5-3.6c0-0.7-0.4-1-0.9-1c-0.6,0-0.9,0.3-1.2,0.5l-0.3-0.4
	c0.3-0.4,0.8-0.7,1.5-0.7c0.9,0,1.6,0.5,1.6,1.4c0,1.2-1.3,2.5-2.3,3.5c0,0,0.3,0,0.6,0h1.8v0.5h-3.3V199.5z M95.5,195.1l-1,0.3
	l-0.1-0.5l1.3-0.4h0.5v5.3h-0.6V195.1z"/>
<path class="st0" d="M104.3,198.7h-2.5v-0.5l2.4-3.6h0.6v3.6h0.8v0.5h-0.8v1.2h-0.6V198.7z M103.1,198.1h1.2v-2.7h0l-1.8,2.8
	C102.5,198.2,102.8,198.1,103.1,198.1z"/>
<g>
	<path class="st0" d="M108.8,200c-1.6,0-2.5-1.3-2.5-2.8c0-1.5,1-2.8,2.6-2.8s2.6,1.3,2.6,2.8c0,1.3-0.7,2.4-2,2.7
		c0.4,0.5,0.7,0.8,1.4,0.8c0.3,0,0.6-0.1,0.6-0.2l0.2,0.5c-0.2,0.1-0.5,0.3-0.9,0.3C110.1,201.2,109.5,200.9,108.8,200z
		 M110.8,197.2c0-1.2-0.7-2.2-2-2.2c-1.3,0-2,1-2,2.2s0.7,2.2,2,2.2S110.8,198.4,110.8,197.2z"/>
</g>
<path class="st0" d="M112.2,199.5c0.9-0.9,2.5-2.4,2.5-3.6c0-0.7-0.4-1-0.9-1c-0.6,0-0.9,0.3-1.2,0.5l-0.3-0.4
	c0.3-0.4,0.8-0.7,1.5-0.7c0.9,0,1.6,0.5,1.6,1.4c0,1.2-1.3,2.5-2.3,3.5c0,0,0.3,0,0.6,0h1.8v0.5h-3.3V199.5z M117.2,195.1l-1,0.3
	L116,195l1.3-0.4h0.5v5.3h-0.6V195.1z M119.4,194.6h2.7v0.5H120v1.7h1.9v0.5H120v2h2.2v0.5h-2.8V194.6z"/>
<polygon class="st0" points="126.6,195.1 125.5,195.5 125.4,195 126.7,194.6 127.2,194.6 127.2,199.9 126.6,199.9 "/>
<g>
	<path class="st0" d="M130.9,200c-1.6,0-2.5-1.3-2.5-2.8c0-1.5,1-2.8,2.6-2.8c1.6,0,2.6,1.3,2.6,2.8c0,1.3-0.7,2.4-2,2.7
		c0.4,0.5,0.7,0.8,1.4,0.8c0.3,0,0.6-0.1,0.6-0.2l0.2,0.5c-0.2,0.1-0.5,0.3-0.9,0.3C132.2,201.2,131.6,200.9,130.9,200z M133,197.2
		c0-1.2-0.7-2.2-2-2.2s-2,1-2,2.2s0.7,2.2,2,2.2S133,198.4,133,197.2z"/>
</g>
<path class="st0" d="M134.3,199.5c0.9-0.9,2.5-2.4,2.5-3.6c0-0.7-0.4-1-0.9-1c-0.6,0-0.9,0.3-1.2,0.5l-0.3-0.4
	c0.3-0.4,0.8-0.7,1.5-0.7c0.9,0,1.6,0.5,1.6,1.4c0,1.2-1.3,2.5-2.3,3.5c0,0,0.3,0,0.6,0h1.8v0.5h-3.3V199.5z M138.3,199.5
	c0.9-0.9,2.5-2.4,2.5-3.6c0-0.7-0.4-1-0.9-1c-0.6,0-0.9,0.3-1.2,0.5l-0.3-0.4c0.3-0.4,0.8-0.7,1.5-0.7c0.9,0,1.6,0.5,1.6,1.4
	c0,1.2-1.3,2.5-2.3,3.5c0,0,0.3,0,0.6,0h1.8v0.5h-3.3V199.5z M142.8,194.6h2.7v0.5h-2.1v1.7h1.9v0.5h-1.9v2h2.2v0.5h-2.8V194.6z"/>
<path class="st0" d="M148.9,199.5c0.9-0.9,2.5-2.4,2.5-3.6c0-0.7-0.4-1-0.9-1c-0.6,0-0.9,0.3-1.2,0.5l-0.3-0.4
	c0.3-0.4,0.8-0.7,1.5-0.7c0.9,0,1.6,0.5,1.6,1.4c0,1.2-1.3,2.5-2.3,3.5c0,0,0.3,0,0.6,0h1.8v0.5h-3.3V199.5z"/>
<g>
	<path class="st0" d="M155.3,200c-1.6,0-2.5-1.3-2.5-2.8c0-1.5,1-2.8,2.6-2.8c1.6,0,2.6,1.3,2.6,2.8c0,1.3-0.7,2.4-2,2.7
		c0.4,0.5,0.7,0.8,1.4,0.8c0.3,0,0.6-0.1,0.6-0.2l0.2,0.5c-0.2,0.1-0.5,0.3-0.9,0.3C156.6,201.2,156,200.9,155.3,200z M157.4,197.2
		c0-1.2-0.7-2.2-2-2.2c-1.3,0-2,1-2,2.2s0.7,2.2,2,2.2S157.4,198.4,157.4,197.2z"/>
</g>
<path class="st0" d="M158.5,199.5c0.9-0.9,2.5-2.4,2.5-3.6c0-0.7-0.4-1-0.9-1c-0.6,0-0.9,0.3-1.2,0.5l-0.3-0.4
	c0.3-0.4,0.8-0.7,1.5-0.7c0.9,0,1.6,0.5,1.6,1.4c0,1.2-1.3,2.5-2.3,3.5c0,0,0.3,0,0.6,0h1.8v0.5h-3.3V199.5z M162.2,199.5
	c0.9-0.9,2.5-2.4,2.5-3.6c0-0.7-0.4-1-0.9-1c-0.6,0-0.9,0.3-1.2,0.5l-0.3-0.4c0.3-0.4,0.8-0.7,1.5-0.7c0.9,0,1.6,0.5,1.6,1.4
	c0,1.2-1.3,2.5-2.3,3.5c0,0,0.3,0,0.6,0h1.8v0.5h-3.3V199.5z M166.4,194.6h2.7v0.5h-2.1v1.7h1.9v0.5h-1.9v2h2.2v0.5h-2.8V194.6z"/>
<path class="st0" d="M172.5,199.9l0.1-0.5c0.1,0,0.3,0.1,0.7,0.1c1,0,1.5-0.4,1.5-1.1c0-0.8-0.7-1.1-1.7-1.1v-0.4
	c0.8,0,1.6-0.4,1.6-1.1c0-0.4-0.3-0.7-0.9-0.7c-0.5,0-0.8,0.2-1.1,0.4l-0.3-0.4c0.3-0.2,0.8-0.5,1.4-0.5c1,0,1.5,0.5,1.5,1.2
	c0,0.7-0.6,1.1-1.2,1.3v0c0.7,0.1,1.3,0.6,1.3,1.4c0,1.1-0.9,1.7-2.1,1.7C172.9,200,172.6,199.9,172.5,199.9z"/>
<g>
	<path class="st0" d="M178.7,200c-1.6,0-2.5-1.3-2.5-2.8c0-1.5,1-2.8,2.6-2.8c1.6,0,2.6,1.3,2.6,2.8c0,1.3-0.7,2.4-2,2.7
		c0.4,0.5,0.7,0.8,1.4,0.8c0.3,0,0.6-0.1,0.6-0.2l0.2,0.5c-0.2,0.1-0.5,0.3-0.9,0.3C180,201.2,179.4,200.9,178.7,200z M180.7,197.2
		c0-1.2-0.7-2.2-2-2.2c-1.3,0-2,1-2,2.2s0.7,2.2,2,2.2S180.7,198.4,180.7,197.2z"/>
</g>
<path class="st0" d="M181.9,199.5c0.9-0.9,2.5-2.4,2.5-3.6c0-0.7-0.4-1-0.9-1c-0.6,0-0.9,0.3-1.2,0.5l-0.3-0.4
	c0.3-0.4,0.8-0.7,1.5-0.7c0.9,0,1.6,0.5,1.6,1.4c0,1.2-1.3,2.5-2.3,3.5c0,0,0.3,0,0.6,0h1.8v0.5h-3.3V199.5z M185.7,199.5
	c0.9-0.9,2.5-2.4,2.5-3.6c0-0.7-0.4-1-0.9-1c-0.6,0-0.9,0.3-1.2,0.5l-0.3-0.4c0.3-0.4,0.8-0.7,1.5-0.7c0.9,0,1.6,0.5,1.6,1.4
	c0,1.2-1.3,2.5-2.3,3.5c0,0,0.3,0,0.6,0h1.8v0.5h-3.3V199.5z M190,194.6h2.7v0.5h-2.1v1.7h1.9v0.5h-1.9v2h2.2v0.5H190V194.6z"/>
<path class="st0" d="M198.7,198.6h-2.5v-0.5l2.4-3.6h0.6v3.6h0.8v0.5h-0.8v1.2h-0.6V198.6z M197.5,198.1h1.2v-2.7h0l-1.8,2.8
	C196.9,198.1,197.2,198.1,197.5,198.1z"/>
<g>
	<path class="st0" d="M202.8,199.9c-1.6,0-2.5-1.3-2.5-2.8c0-1.5,1-2.8,2.6-2.8c1.6,0,2.6,1.3,2.6,2.8c0,1.3-0.7,2.4-2,2.7
		c0.4,0.5,0.7,0.8,1.4,0.8c0.3,0,0.6-0.1,0.6-0.2l0.2,0.5c-0.2,0.1-0.5,0.3-0.9,0.3C204.1,201.1,203.6,200.8,202.8,199.9z
		 M204.9,197.2c0-1.2-0.7-2.2-2-2.2s-2,1-2,2.2s0.7,2.2,2,2.2S204.9,198.4,204.9,197.2z"/>
</g>
<path class="st0" d="M205.9,199.5c0.9-0.9,2.5-2.4,2.5-3.6c0-0.7-0.4-1-0.9-1c-0.6,0-0.9,0.3-1.2,0.5l-0.3-0.4
	c0.3-0.4,0.8-0.7,1.5-0.7c0.9,0,1.6,0.5,1.6,1.4c0,1.2-1.3,2.5-2.3,3.5c0,0,0.3,0,0.6,0h1.8v0.5h-3.3V199.5z M209.6,199.5
	c0.9-0.9,2.5-2.4,2.5-3.6c0-0.7-0.4-1-0.9-1c-0.6,0-0.9,0.3-1.2,0.5l-0.3-0.4c0.3-0.4,0.8-0.7,1.5-0.7c0.9,0,1.6,0.5,1.6,1.4
	c0,1.2-1.3,2.5-2.3,3.5c0,0,0.3,0,0.6,0h1.8v0.5h-3.3V199.5z M213.8,194.5h2.7v0.5h-2.1v1.7h1.9v0.5h-1.9v2h2.2v0.5h-2.8V194.5z"/>
<polygon class="st0" points="220.8,195.1 219.8,195.5 219.6,195 220.9,194.6 221.4,194.6 221.4,199.9 220.8,199.9 "/>
<g>
	<path class="st0" d="M225.1,200c-1.6,0-2.5-1.3-2.5-2.8c0-1.5,1-2.8,2.6-2.8c1.6,0,2.6,1.3,2.6,2.8c0,1.3-0.7,2.4-2,2.7
		c0.4,0.5,0.7,0.8,1.4,0.8c0.3,0,0.6-0.1,0.6-0.2l0.2,0.5c-0.2,0.1-0.5,0.3-0.9,0.3C226.5,201.2,225.9,200.9,225.1,200z
		 M227.2,197.2c0-1.2-0.7-2.2-2-2.2c-1.3,0-2,1-2,2.2s0.7,2.2,2,2.2S227.2,198.4,227.2,197.2z"/>
</g>
<path class="st0" d="M228.5,199.5c0.9-0.9,2.5-2.4,2.5-3.6c0-0.7-0.4-1-0.9-1c-0.6,0-0.9,0.3-1.2,0.5l-0.3-0.4
	c0.3-0.4,0.8-0.7,1.5-0.7c0.9,0,1.6,0.5,1.6,1.4c0,1.2-1.3,2.5-2.3,3.5c0,0,0.3,0,0.6,0h1.8v0.5h-3.3V199.5z M232.6,199.9l0.1-0.5
	c0.1,0,0.3,0.1,0.7,0.1c1,0,1.5-0.4,1.5-1.1c0-0.8-0.7-1.1-1.7-1.1v-0.4c0.8,0,1.6-0.4,1.6-1.1c0-0.4-0.3-0.7-0.9-0.7
	c-0.5,0-0.8,0.2-1.1,0.4l-0.3-0.4c0.3-0.2,0.8-0.5,1.4-0.5c1,0,1.5,0.5,1.5,1.2c0,0.7-0.6,1.1-1.2,1.3v0c0.7,0.1,1.3,0.6,1.3,1.4
	c0,1.1-0.9,1.7-2.1,1.7C232.9,200,232.7,199.9,232.6,199.9z M236.8,194.6h2.7v0.5h-2.1v1.7h1.9v0.5h-1.9v2h2.2v0.5h-2.8V194.6z"/>
<line class="st3" x1="28.7" y1="16.9" x2="242.2" y2="16.9"/>
<line class="st3" x1="28.7" y1="50.1" x2="242.2" y2="50.1"/>
<line class="st3" x1="28.7" y1="84.1" x2="242.2" y2="84.1"/>
<line class="st3" x1="28.7" y1="118.5" x2="242.2" y2="118.5"/>
<line class="st3" x1="28.7" y1="152.1" x2="242.2" y2="152.1"/>
<line class="st3" x1="30" y1="16.9" x2="30" y2="186.9"/>
<line class="st3" x1="241.9" y1="16.9" x2="241.9" y2="186.9"/>
<polygon class="st0" points="35.1,195.1 34.1,195.5 34,195 35.2,194.6 35.7,194.6 35.7,199.9 35.1,199.9 "/>
<g>
	<path class="st0" d="M39.5,200c-1.6,0-2.5-1.3-2.5-2.8c0-1.5,1-2.8,2.6-2.8s2.6,1.3,2.6,2.8c0,1.3-0.7,2.4-2,2.7
		c0.4,0.5,0.7,0.8,1.4,0.8c0.3,0,0.6-0.1,0.6-0.2l0.2,0.5c-0.2,0.1-0.5,0.3-0.9,0.3C40.8,201.2,40.2,200.9,39.5,200z M41.5,197.2
		c0-1.2-0.7-2.2-2-2.2c-1.3,0-2,1-2,2.2s0.7,2.2,2,2.2S41.5,198.4,41.5,197.2z"/>
</g>
<path class="st0" d="M42.9,199.5c0.9-0.9,2.5-2.4,2.5-3.6c0-0.7-0.4-1-0.9-1c-0.6,0-0.9,0.3-1.2,0.5l-0.3-0.4
	c0.3-0.4,0.8-0.7,1.5-0.7c0.9,0,1.6,0.5,1.6,1.4c0,1.2-1.3,2.5-2.3,3.5c0,0,0.3,0,0.6,0h1.8v0.5h-3.3V199.5z M47.9,195.1l-1,0.3
	l-0.1-0.5l1.3-0.4h0.5v5.3h-0.6V195.1z"/>
<path class="st0" d="M57,199.5c0.9-0.9,2.5-2.4,2.5-3.6c0-0.7-0.4-1-0.9-1c-0.6,0-0.9,0.3-1.2,0.5l-0.3-0.4c0.3-0.4,0.8-0.7,1.5-0.7
	c0.9,0,1.6,0.5,1.6,1.4c0,1.2-1.3,2.5-2.3,3.5c0,0,0.3,0,0.6,0h1.8v0.5H57V199.5z"/>
<g>
	<path class="st0" d="M63.6,200c-1.6,0-2.5-1.3-2.5-2.8c0-1.5,1-2.8,2.6-2.8s2.6,1.3,2.6,2.8c0,1.3-0.7,2.4-2,2.7
		c0.4,0.5,0.7,0.8,1.4,0.8c0.3,0,0.6-0.1,0.6-0.2l0.2,0.5c-0.2,0.1-0.5,0.3-0.9,0.3C64.9,201.2,64.4,200.9,63.6,200z M65.7,197.2
		c0-1.2-0.7-2.2-2-2.2s-2,1-2,2.2s0.7,2.2,2,2.2C65,199.5,65.7,198.4,65.7,197.2z"/>
</g>
<path class="st0" d="M67,199.5c0.9-0.9,2.5-2.4,2.5-3.6c0-0.7-0.4-1-0.9-1c-0.6,0-0.9,0.3-1.2,0.5l-0.3-0.4c0.3-0.4,0.8-0.7,1.5-0.7
	c0.9,0,1.6,0.5,1.6,1.4c0,1.2-1.3,2.5-2.3,3.5c0,0,0.3,0,0.6,0h1.8v0.5H67V199.5z M72.1,195.1l-1,0.3l-0.1-0.5l1.3-0.4h0.5v5.3h-0.6
	V195.1z"/>
<path class="st0" d="M10.3,19.7l1.9-4.8H9.8v-0.5h3v0.4l-2,5.1L10.3,19.7z M13.7,19.3c0-0.3,0.2-0.5,0.5-0.5s0.5,0.2,0.5,0.5
	s-0.2,0.5-0.5,0.5S13.7,19.6,13.7,19.3z M15.5,19.8l0.1-0.5c0.1,0,0.2,0,0.5,0c0.9,0,1.7-0.4,1.7-1.3c0-0.9-0.7-1.2-1.6-1.2
	c-0.2,0-0.4,0-0.4,0l0.2-2.5h2.4v0.5h-1.8l-0.1,1.4c1.3,0,2,0.6,2,1.6c0,1.2-1,1.8-2.4,1.8C15.7,19.8,15.5,19.8,15.5,19.8z M19,15.6
	c0-0.6,0.4-1.3,1.4-1.3c1,0,1.4,0.7,1.4,1.3c0,0.6-0.4,1.3-1.4,1.3C19.4,17,19,16.2,19,15.6z M21.3,15.6c0-0.5-0.3-0.9-0.9-0.9
	s-0.9,0.4-0.9,0.9c0,0.5,0.3,0.9,0.9,0.9C20.9,16.5,21.3,16.1,21.3,15.6z M23.5,14.4h0.6l-3.4,5.3h-0.6L23.5,14.4z M22.4,18.4
	c0-0.6,0.4-1.3,1.4-1.3c1,0,1.4,0.7,1.4,1.3c0,0.6-0.4,1.3-1.4,1.3C22.8,19.8,22.4,19,22.4,18.4z M24.6,18.4c0-0.5-0.3-0.9-0.9-0.9
	s-0.9,0.4-0.9,0.9c0,0.5,0.3,0.9,0.9,0.9C24.3,19.3,24.6,18.9,24.6,18.4z"/>
<path class="st0" d="M9.1,49.7c0-2,1.2-3.3,3.1-3.3l0.1,0.5c-0.8,0-1.4,0.2-1.9,0.6c-0.4,0.4-0.6,0.9-0.7,1.6
	c0.3-0.3,0.7-0.5,1.2-0.5c1,0,1.6,0.7,1.6,1.6S11.9,52,10.9,52C9.7,52,9.1,50.8,9.1,49.7z M12,50.3c0-0.8-0.4-1.2-1.1-1.2
	c-0.5,0-0.8,0.2-1.1,0.5v0.1c0,1.1,0.4,1.8,1.2,1.8C11.7,51.5,12,50.9,12,50.3z M13.4,51.5c0-0.3,0.2-0.5,0.5-0.5s0.5,0.2,0.5,0.5
	s-0.2,0.5-0.5,0.5S13.4,51.7,13.4,51.5z M15.2,49.2c0-1.3,0.5-2.8,2-2.8c1.4,0,2,1.4,2,2.8s-0.6,2.8-2,2.8
	C15.7,52,15.2,50.5,15.2,49.2z M18.6,49.2c0-1.3-0.4-2.3-1.4-2.3c-1,0-1.4,1-1.4,2.3s0.4,2.3,1.4,2.3C18.1,51.5,18.6,50.5,18.6,49.2
	z M19.9,47.8c0-0.6,0.4-1.3,1.4-1.3c1,0,1.4,0.7,1.4,1.3c0,0.6-0.4,1.3-1.4,1.3C20.3,49.1,19.9,48.4,19.9,47.8z M22.2,47.8
	c0-0.5-0.3-0.9-0.9-0.9s-0.9,0.4-0.9,0.9c0,0.5,0.3,0.9,0.9,0.9C21.8,48.7,22.2,48.3,22.2,47.8z M24.4,46.5H25l-3.4,5.3H21
	L24.4,46.5z M23.3,50.6c0-0.6,0.4-1.3,1.4-1.3c1,0,1.4,0.7,1.4,1.3c0,0.6-0.4,1.3-1.4,1.3C23.7,51.9,23.3,51.2,23.3,50.6z
	 M25.5,50.6c0-0.5-0.3-0.9-0.9-0.9s-0.9,0.4-0.9,0.9c0,0.5,0.3,0.9,0.9,0.9C25.2,51.5,25.5,51.1,25.5,50.6z"/>
<path class="st0" d="M12,85.7H9.5v-0.5l2.4-3.6h0.6v3.6h0.8v0.5h-0.8V87H12V85.7z M10.8,85.2H12v-2.7h0l-1.8,2.8
	C10.3,85.2,10.6,85.2,10.8,85.2z M14,86.5c0-0.3,0.2-0.5,0.5-0.5s0.5,0.2,0.5,0.5S14.8,87,14.5,87S14,86.8,14,86.5z M15.8,87
	l0.1-0.5c0.1,0,0.2,0,0.5,0c0.9,0,1.7-0.4,1.7-1.3c0-0.9-0.7-1.2-1.6-1.2c-0.2,0-0.4,0-0.4,0l0.2-2.5h2.4v0.5h-1.8l-0.1,1.4
	c1.3,0,2,0.6,2,1.6c0,1.2-1,1.8-2.4,1.8C16,87,15.9,87,15.8,87z M19.3,82.9c0-0.6,0.4-1.3,1.4-1.3c1,0,1.4,0.7,1.4,1.3
	c0,0.6-0.4,1.3-1.4,1.3C19.7,84.2,19.3,83.5,19.3,82.9z M21.6,82.9c0-0.5-0.3-0.9-0.9-0.9s-0.9,0.4-0.9,0.9c0,0.5,0.3,0.9,0.9,0.9
	C21.2,83.8,21.6,83.4,21.6,82.9z M23.8,81.6h0.6L21,87h-0.6L23.8,81.6z M22.7,85.7c0-0.6,0.4-1.3,1.4-1.3c1,0,1.4,0.7,1.4,1.3
	c0,0.6-0.4,1.3-1.4,1.3C23.1,87,22.7,86.3,22.7,85.7z M24.9,85.7c0-0.5-0.3-0.9-0.9-0.9s-0.9,0.4-0.9,0.9c0,0.5,0.3,0.9,0.9,0.9
	C24.6,86.6,24.9,86.2,24.9,85.7z"/>
<path class="st0" d="M9.3,120.6l0.1-0.5c0.1,0,0.3,0.1,0.7,0.1c1,0,1.5-0.4,1.5-1.1c0-0.8-0.7-1.1-1.7-1.1v-0.4
	c0.8,0,1.6-0.4,1.6-1.1c0-0.4-0.3-0.7-0.9-0.7c-0.5,0-0.8,0.2-1.1,0.4l-0.3-0.4c0.3-0.2,0.8-0.5,1.4-0.5c1,0,1.5,0.5,1.5,1.2
	c0,0.7-0.6,1.1-1.2,1.3v0c0.7,0.1,1.3,0.6,1.3,1.4c0,1.1-0.9,1.7-2.1,1.7C9.6,120.7,9.4,120.6,9.3,120.6z M13.1,120.2
	c0-0.3,0.2-0.5,0.5-0.5s0.5,0.2,0.5,0.5s-0.2,0.5-0.5,0.5S13.1,120.4,13.1,120.2z M15,117.9c0-1.3,0.5-2.8,2-2.8c1.4,0,2,1.4,2,2.8
	s-0.6,2.8-2,2.8C15.5,120.7,15,119.2,15,117.9z M18.3,117.9c0-1.3-0.4-2.3-1.4-2.3c-1,0-1.4,1-1.4,2.3s0.4,2.3,1.4,2.3
	C17.9,120.2,18.3,119.2,18.3,117.9z M19.7,116.5c0-0.6,0.4-1.3,1.4-1.3c1,0,1.4,0.7,1.4,1.3c0,0.6-0.4,1.3-1.4,1.3
	C20.1,117.9,19.7,117.1,19.7,116.5z M21.9,116.5c0-0.5-0.3-0.9-0.9-0.9s-0.9,0.4-0.9,0.9c0,0.5,0.3,0.9,0.9,0.9
	C21.6,117.4,21.9,117,21.9,116.5z M24.2,115.3h0.6l-3.4,5.3h-0.6L24.2,115.3z M23.1,119.3c0-0.6,0.4-1.3,1.4-1.3
	c1,0,1.4,0.7,1.4,1.3c0,0.6-0.4,1.3-1.4,1.3C23.5,120.6,23.1,119.9,23.1,119.3z M25.3,119.3c0-0.5-0.3-0.9-0.9-0.9s-0.9,0.4-0.9,0.9
	c0,0.5,0.3,0.9,0.9,0.9C25,120.2,25.3,119.8,25.3,119.3z"/>
<path class="st0" d="M11.4,149.1l-1,0.3l-0.1-0.5l1.3-0.4H12v5.3h-0.6V149.1z M13.3,153.5c0-0.3,0.2-0.5,0.5-0.5s0.5,0.2,0.5,0.5
	S14,154,13.8,154S13.3,153.8,13.3,153.5z M15,154l0.1-0.5c0.1,0,0.2,0,0.5,0c0.9,0,1.7-0.4,1.7-1.3c0-0.9-0.7-1.2-1.6-1.2
	c-0.2,0-0.4,0-0.4,0l0.2-2.5h2.4v0.5H16l-0.1,1.4c1.3,0,2,0.6,2,1.6c0,1.2-1,1.8-2.4,1.8C15.3,154,15.1,154,15,154z M18.6,149.9
	c0-0.6,0.4-1.3,1.4-1.3c1,0,1.4,0.7,1.4,1.3c0,0.6-0.4,1.3-1.4,1.3C19,151.2,18.6,150.5,18.6,149.9z M20.8,149.9
	c0-0.5-0.3-0.9-0.9-0.9s-0.9,0.4-0.9,0.9c0,0.5,0.3,0.9,0.9,0.9C20.5,150.8,20.8,150.4,20.8,149.9z M23.1,148.6h0.6l-3.4,5.3h-0.6
	L23.1,148.6z M21.9,152.6c0-0.6,0.4-1.3,1.4-1.3c1,0,1.4,0.7,1.4,1.3c0,0.6-0.4,1.3-1.4,1.3C22.3,154,21.9,153.2,21.9,152.6z
	 M24.2,152.6c0-0.5-0.3-0.9-0.9-0.9s-0.9,0.4-0.9,0.9c0,0.5,0.3,0.9,0.9,0.9C23.8,153.5,24.2,153.2,24.2,152.6z"/>
<path class="st0" d="M8.8,187.1c0-1.3,0.5-2.8,2-2.8c1.4,0,2,1.4,2,2.8s-0.6,2.8-2,2.8C9.4,189.9,8.8,188.4,8.8,187.1z M12.2,187.1
	c0-1.3-0.4-2.3-1.4-2.3c-1,0-1.4,1-1.4,2.3s0.4,2.3,1.4,2.3C11.8,189.4,12.2,188.4,12.2,187.1z M13.7,189.4c0-0.3,0.2-0.5,0.5-0.5
	s0.5,0.2,0.5,0.5s-0.2,0.5-0.5,0.5S13.7,189.6,13.7,189.4z M15.5,187.1c0-1.3,0.5-2.8,2-2.8c1.4,0,2,1.4,2,2.8s-0.6,2.8-2,2.8
	C16.1,189.9,15.5,188.4,15.5,187.1z M18.9,187.1c0-1.3-0.4-2.3-1.4-2.3c-1,0-1.4,1-1.4,2.3s0.4,2.3,1.4,2.3
	C18.5,189.4,18.9,188.4,18.9,187.1z M20.3,185.7c0-0.6,0.4-1.3,1.4-1.3c1,0,1.4,0.7,1.4,1.3c0,0.6-0.4,1.3-1.4,1.3
	C20.7,187,20.3,186.3,20.3,185.7z M22.5,185.7c0-0.5-0.3-0.9-0.9-0.9s-0.9,0.4-0.9,0.9c0,0.5,0.3,0.9,0.9,0.9
	C22.2,186.6,22.5,186.2,22.5,185.7z M24.7,184.5h0.6l-3.4,5.3h-0.6L24.7,184.5z M23.6,188.5c0-0.6,0.4-1.3,1.4-1.3
	c1,0,1.4,0.7,1.4,1.3c0,0.6-0.4,1.3-1.4,1.3C24,189.8,23.6,189.1,23.6,188.5z M25.8,188.5c0-0.5-0.3-0.9-0.9-0.9s-0.9,0.4-0.9,0.9
	c0,0.5,0.3,0.9,0.9,0.9C25.5,189.4,25.8,189,25.8,188.5z"/>
<rect x="42.3" y="127.3" class="st4" width="5.1" height="59.8"/>
<rect x="35.7" y="141.7" class="st5" width="5.1" height="45.5"/>
<rect x="65.8" y="63.2" class="st4" width="5.1" height="123.9"/>
<rect x="59.3" y="104.7" class="st5" width="5.1" height="82.4"/>
<rect x="89.3" y="63.5" class="st4" width="5.1" height="123.6"/>
<rect x="82.8" y="104.2" class="st5" width="5.1" height="82.9"/>
<rect x="112.8" y="49.7" class="st4" width="5.1" height="137.4"/>
<rect x="106.3" y="95.1" class="st5" width="5.1" height="92.1"/>
<rect x="136.4" y="59.2" class="st4" width="5.1" height="128"/>
<rect x="129.8" y="94.9" class="st5" width="5.1" height="92.3"/>
<rect x="159.9" y="95.7" class="st4" width="5.1" height="91.4"/>
<rect x="153.4" y="116.1" class="st5" width="5.1" height="71"/>
<rect x="183.4" y="113.6" class="st4" width="5.1" height="73.6"/>
<rect x="176.9" y="127.5" class="st5" width="5.1" height="59.7"/>
<rect x="207.2" y="127.5" class="st4" width="5.1" height="59.6"/>
<rect x="200.7" y="129.2" class="st5" width="5.1" height="58"/>
<rect x="230.5" y="130.3" class="st4" width="5.1" height="56.8"/>
<rect x="224" y="131.8" class="st5" width="5.1" height="55.3"/>
<line class="st3" x1="28.7" y1="187.1" x2="242.2" y2="187.1"/>
<line class="st3" x1="41.5" y1="186.9" x2="41.5" y2="190.3"/>
<line class="st3" x1="65.1" y1="186.9" x2="65.1" y2="190.3"/>
<line class="st3" x1="88.6" y1="186.9" x2="88.6" y2="190.3"/>
<line class="st3" x1="112.1" y1="186.9" x2="112.1" y2="190.3"/>
<line class="st3" x1="135.7" y1="186.9" x2="135.7" y2="190.3"/>
<line class="st3" x1="159.2" y1="186.9" x2="159.2" y2="190.3"/>
<line class="st3" x1="182.7" y1="186.9" x2="182.7" y2="190.3"/>
<line class="st3" x1="206.5" y1="186.9" x2="206.5" y2="190.3"/>
<line class="st3" x1="229.8" y1="186.9" x2="229.8" y2="190.3"/>
</svg>
