<?xml version="1.0" encoding="utf-8"?>
<!-- Generator: Adobe Illustrator 26.0.1, SVG Export Plug-In . SVG Version: 6.00 Build 0)  -->
<svg version="1.1" id="Layer_2_00000168099981317593213590000002063463625256301451_"
	 xmlns="http://www.w3.org/2000/svg" xmlns:xlink="http://www.w3.org/1999/xlink" x="0px" y="0px" viewBox="0 0 250 250"
	 style="enable-background:new 0 0 250 250;" xml:space="preserve">
<style type="text/css">
	.st0{fill:#4D4D4F;}
	.st1{fill:none;stroke:#B19E4E;stroke-width:1.6;}
	.st2{fill:none;stroke:#5C5B59;stroke-width:1.6;}
	.st3{fill:none;stroke:#EABD98;stroke-width:1.6;}
	.st4{fill:none;stroke:#BCBEC0;stroke-width:0.5249;}
	.st5{fill:none;stroke:#B19E4E;stroke-linecap:round;stroke-linejoin:round;stroke-miterlimit:10;}
	.st6{fill:none;stroke:#5C5B59;stroke-linecap:round;stroke-linejoin:round;stroke-miterlimit:10;}
	.st7{fill:none;stroke:#EABD98;stroke-linecap:round;stroke-linejoin:round;stroke-miterlimit:10;}
</style>
<g>
	<path class="st0" d="M10,205.7H8.4v-0.5h3.7v0.5h-1.5v4.8H10V205.7z"/>
	<path class="st0" d="M12.1,208.6c0-0.9,0.5-2,1.8-2s1.8,1.1,1.8,2s-0.5,2-1.8,2S12.1,209.5,12.1,208.6z M15,208.6
		c0-0.8-0.4-1.5-1.2-1.5s-1.1,0.7-1.1,1.5s0.4,1.5,1.2,1.5C14.6,210.1,15,209.4,15,208.6z"/>
	<path class="st0" d="M16.8,209.6v-2.5h-0.6v-0.5h0.6v-1.1h0.6v1.1h1v0.5h-1v2.4c0,0.4,0.1,0.6,0.4,0.6c0.2,0,0.5-0.1,0.5-0.2
		l0.2,0.4c-0.1,0.1-0.4,0.2-0.8,0.2C17.1,210.6,16.8,210.3,16.8,209.6z"/>
	<path class="st0" d="M19.2,209.6c0-1,1.1-1.3,2-1.3h0.2v-0.4c0-0.6-0.2-0.8-0.8-0.8c-0.4,0-0.7,0.1-1,0.4l-0.3-0.4
		c0.4-0.4,0.8-0.5,1.4-0.5c0.8,0,1.3,0.4,1.3,1.3v1.8c0,0.4,0,0.7,0.1,0.9h-0.6c0-0.1,0-0.3-0.1-0.5c-0.3,0.3-0.7,0.6-1.2,0.6
		C19.6,210.6,19.2,210.2,19.2,209.6z M21.4,209.6v-0.9h-0.2c-0.8,0-1.4,0.2-1.4,0.9c0,0.4,0.3,0.5,0.6,0.5
		C20.8,210.1,21.1,209.9,21.4,209.6z"/>
	<path class="st0" d="M23.3,204.8h0.6v5.8h-0.6V204.8z"/>
	<path class="st0" d="M27,206.7h0.6v0.6c0.2-0.3,0.5-0.7,1-0.7c0.2,0,0.4,0.1,0.4,0.1l-0.1,0.6c0,0-0.1-0.1-0.3-0.1
		c-0.6,0-0.9,0.7-0.9,0.8v2.6H27V206.7z"/>
	<path class="st0" d="M29.4,208.6c0-1.1,0.7-2,1.7-2c1,0,1.5,0.7,1.5,1.7c0,0.1,0,0.2,0,0.3H30c0,0.8,0.3,1.5,1.2,1.5
		c0.5,0,0.9-0.2,1.1-0.3l0.2,0.5c-0.2,0.1-0.6,0.4-1.3,0.4C30,210.6,29.4,209.7,29.4,208.6z M32,208.1c0-0.5-0.3-1-0.9-1
		s-1,0.4-1.1,1H32z"/>
	<path class="st0" d="M33.8,209.6v-2.5h-0.6v-0.5h0.6v-1.1h0.6v1.1h1v0.5h-1v2.4c0,0.4,0.1,0.6,0.4,0.6c0.2,0,0.5-0.1,0.5-0.2
		l0.2,0.4c-0.1,0.1-0.4,0.2-0.8,0.2C34.1,210.6,33.8,210.3,33.8,209.6z"/>
	<path class="st0" d="M36.3,209.4v-2.7h0.6v2.6c0,0.5,0.2,0.8,0.7,0.8c0.6,0,1-0.6,1.1-0.7v-2.7h0.6v3c0,0.3,0,0.7,0.1,0.8h-0.6
		c0-0.1,0-0.4-0.1-0.6c-0.2,0.2-0.6,0.7-1.2,0.7C36.7,210.6,36.3,210.1,36.3,209.4z"/>
	<path class="st0" d="M40.6,206.7h0.6v0.6c0.2-0.3,0.5-0.7,1-0.7c0.2,0,0.4,0.1,0.4,0.1l-0.1,0.6c0,0-0.1-0.1-0.3-0.1
		c-0.6,0-0.9,0.7-0.9,0.8v2.6h-0.6v-3.9H40.6z"/>
	<path class="st0" d="M43.4,206.7H44v0.6c0.3-0.4,0.8-0.6,1.2-0.6c0.8,0,1.1,0.5,1.1,1.2v2.7h-0.6V208c0-0.5-0.2-0.8-0.7-0.8
		c-0.4,0-0.8,0.3-1.1,0.7v2.7h-0.6L43.4,206.7L43.4,206.7z"/>
	<path class="st0" d="M47.7,207.6l0.7-0.9l-1.1-0.3l0.1-0.4l1.1,0.4v-1.1H49v1.1l1.1-0.4l0.2,0.4l-1.1,0.3l0.7,0.9l-0.4,0.3l-0.7-1
		l-0.7,1L47.7,207.6z"/>
</g>
<line class="st1" x1="0.3" y1="208.5" x2="6.1" y2="208.5"/>
<g>
	<path class="st0" d="M9.3,215.2h2.8v0.5H10v1.7h1.9v0.5H10v2.6H9.3V215.2z"/>
	<path class="st0" d="M12.8,218.6c0-0.9,0.5-2,1.8-2s1.8,1.1,1.8,2s-0.5,2-1.8,2S12.8,219.5,12.8,218.6z M15.8,218.6
		c0-0.8-0.4-1.5-1.2-1.5s-1.1,0.7-1.1,1.5s0.4,1.5,1.2,1.5S15.8,219.4,15.8,218.6z"/>
	<path class="st0" d="M17.4,216.7H18v0.6c0.2-0.3,0.5-0.7,1-0.7c0.2,0,0.4,0.1,0.4,0.1l-0.1,0.6c0,0-0.1-0.1-0.3-0.1
		c-0.6,0-0.9,0.7-0.9,0.8v2.6h-0.6v-3.9H17.4z"/>
	<path class="st0" d="M19.8,216.7h0.6l0.8,2.9l0,0l0.9-2.9h0.6l0.9,2.9l0,0l0.8-2.9H25l-1.2,3.8h-0.5l-1-3l0,0l-1,3H21L19.8,216.7z"
		/>
	<path class="st0" d="M25.7,219.6c0-1,1.1-1.3,2-1.3h0.2v-0.4c0-0.6-0.2-0.8-0.8-0.8c-0.4,0-0.7,0.1-1,0.4l-0.3-0.4
		c0.4-0.4,0.8-0.5,1.4-0.5c0.8,0,1.3,0.4,1.3,1.3v1.8c0,0.4,0,0.7,0.1,0.9H28c0-0.1,0-0.3-0.1-0.5c-0.3,0.3-0.7,0.6-1.2,0.6
		C26.2,220.6,25.7,220.2,25.7,219.6z M27.9,219.6v-0.9h-0.2c-0.8,0-1.4,0.2-1.4,0.9c0,0.4,0.3,0.5,0.6,0.5
		C27.3,220.1,27.7,219.9,27.9,219.6z"/>
	<path class="st0" d="M29.9,216.7h0.6v0.6c0.2-0.3,0.5-0.7,1-0.7c0.2,0,0.4,0.1,0.4,0.1l-0.1,0.6c0,0-0.1-0.1-0.3-0.1
		c-0.6,0-0.9,0.7-0.9,0.8v2.6H30v-3.9H29.9z"/>
	<path class="st0" d="M32.4,218.6c0-1.2,0.7-2,1.7-2c0.4,0,0.7,0.1,1,0.3v-2.2h0.6v5c0,0.3,0,0.6,0.1,0.8h-0.6
		c0-0.1-0.1-0.3-0.1-0.4c-0.3,0.3-0.6,0.5-1.1,0.5C33,220.6,32.4,219.9,32.4,218.6z M35,219.6v-2.1c-0.2-0.2-0.5-0.4-0.9-0.4
		c-0.7,0-1.1,0.6-1.1,1.5s0.3,1.5,1.1,1.5C34.4,220.1,34.8,219.9,35,219.6z"/>
	<path class="st0" d="M38.8,216.7h0.6v0.4c0.2-0.2,0.6-0.5,1.1-0.5c0.9,0,1.6,0.7,1.6,2c0,1.2-0.7,2-1.7,2c-0.5,0-0.8-0.2-1-0.3v2
		h-0.6C38.8,222.3,38.8,216.7,38.8,216.7z M41.5,218.6c0-0.9-0.3-1.5-1.1-1.5c-0.5,0-0.9,0.4-1,0.5v2.1c0.2,0.2,0.4,0.4,0.9,0.4
		C41.1,220.1,41.5,219.5,41.5,218.6z"/>
	<path class="st0" d="M43.2,216.7h0.6v0.6c0.2-0.3,0.5-0.7,1-0.7c0.2,0,0.4,0.1,0.4,0.1l-0.1,0.6c0,0-0.1-0.1-0.3-0.1
		c-0.6,0-0.9,0.7-0.9,0.8v2.6h-0.6v-3.9H43.2z"/>
	<path class="st0" d="M45.9,215.5c0-0.2,0.2-0.4,0.4-0.4s0.4,0.2,0.4,0.4s-0.2,0.4-0.4,0.4C46.1,216,45.9,215.8,45.9,215.5z
		 M46,216.7h0.6v3.8H46V216.7z"/>
	<path class="st0" d="M47.7,218.6c0-1.3,0.8-2,1.8-2c0.6,0,1,0.2,1.2,0.4l-0.3,0.4c-0.2-0.2-0.5-0.3-0.9-0.3c-0.8,0-1.1,0.7-1.1,1.5
		s0.4,1.5,1.2,1.5c0.5,0,0.8-0.2,0.9-0.3l0.2,0.4c-0.2,0.1-0.5,0.4-1.2,0.4C48.4,220.6,47.7,219.6,47.7,218.6z"/>
	<path class="st0" d="M51.3,218.6c0-1.1,0.7-2,1.7-2s1.5,0.7,1.5,1.7c0,0.1,0,0.2,0,0.3H52c0,0.8,0.3,1.5,1.2,1.5
		c0.5,0,0.9-0.2,1.1-0.3l0.2,0.5c-0.2,0.1-0.6,0.4-1.3,0.4C52,220.6,51.3,219.7,51.3,218.6z M54,218.1c0-0.5-0.3-1-0.9-1
		c-0.6,0-1,0.4-1.1,1H54z"/>
	<path class="st0" d="M55.5,218h1.6v0.5h-1.6V218z"/>
	<path class="st0" d="M58.4,219.6v-2.5h-0.6v-0.5h0.6v-1.1H59v1.1h1v0.5h-1v2.4c0,0.4,0.1,0.6,0.4,0.6c0.2,0,0.5-0.1,0.5-0.2
		l0.2,0.4c-0.1,0.1-0.4,0.2-0.8,0.2C58.7,220.6,58.4,220.2,58.4,219.6z"/>
	<path class="st0" d="M60.8,218.6c0-0.9,0.5-2,1.8-2s1.8,1.1,1.8,2s-0.5,2-1.8,2C61.2,220.6,60.8,219.5,60.8,218.6z M63.7,218.6
		c0-0.8-0.4-1.5-1.2-1.5s-1.1,0.7-1.1,1.5s0.4,1.5,1.2,1.5C63.3,220.1,63.7,219.4,63.7,218.6z"/>
	<path class="st0" d="M65.2,218h1.6v0.5h-1.6V218z"/>
	<path class="st0" d="M67.6,218.6c0-1.1,0.7-2,1.7-2s1.5,0.7,1.5,1.7c0,0.1,0,0.2,0,0.3h-2.6c0,0.8,0.3,1.5,1.2,1.5
		c0.5,0,0.9-0.2,1.1-0.3l0.2,0.5c-0.2,0.1-0.6,0.4-1.3,0.4C68.2,220.6,67.6,219.7,67.6,218.6z M70.2,218.1c0-0.5-0.3-1-0.9-1
		s-1,0.4-1.1,1H70.2z"/>
	<path class="st0" d="M71.6,219.6c0-1,1.1-1.3,2-1.3h0.2v-0.4c0-0.6-0.2-0.8-0.8-0.8c-0.4,0-0.7,0.1-1,0.4l-0.3-0.4
		c0.4-0.4,0.8-0.5,1.4-0.5c0.8,0,1.3,0.4,1.3,1.3v1.8c0,0.4,0,0.7,0.1,0.9h-0.6c0-0.1,0-0.3-0.1-0.5c-0.3,0.3-0.7,0.6-1.2,0.6
		C72.1,220.6,71.6,220.2,71.6,219.6z M73.9,219.6v-0.9h-0.2c-0.8,0-1.4,0.2-1.4,0.9c0,0.4,0.3,0.5,0.6,0.5
		C73.3,220.1,73.6,219.9,73.9,219.6z"/>
	<path class="st0" d="M75.8,216.7h0.6v0.6c0.2-0.3,0.5-0.7,1-0.7c0.2,0,0.4,0.1,0.4,0.1l-0.1,0.6c0,0-0.1-0.1-0.3-0.1
		c-0.6,0-0.9,0.7-0.9,0.8v2.6h-0.6L75.8,216.7L75.8,216.7z"/>
	<path class="st0" d="M78.6,216.7h0.6v0.6c0.3-0.4,0.8-0.6,1.2-0.6c0.8,0,1.1,0.5,1.1,1.2v2.7H81V218c0-0.5-0.2-0.8-0.7-0.8
		c-0.4,0-0.8,0.3-1.1,0.7v2.7h-0.6C78.6,220.6,78.6,216.7,78.6,216.7z"/>
	<path class="st0" d="M82.9,215.5c0-0.2,0.2-0.4,0.4-0.4s0.4,0.2,0.4,0.4s-0.2,0.4-0.4,0.4S82.9,215.8,82.9,215.5z M83,216.7h0.6
		v3.8H83V216.7z"/>
	<path class="st0" d="M85,216.7h0.6v0.6c0.3-0.4,0.8-0.6,1.2-0.6c0.8,0,1.1,0.5,1.1,1.2v2.7h-0.6V218c0-0.5-0.2-0.8-0.7-0.8
		c-0.4,0-0.8,0.3-1.1,0.7v2.7H85V216.7z"/>
	<path class="st0" d="M89.1,221.3c0-0.4,0.3-0.8,0.7-1c-0.2-0.1-0.3-0.3-0.3-0.6s0.2-0.5,0.4-0.6c-0.4-0.2-0.7-0.7-0.7-1.2
		c0-0.8,0.6-1.4,1.5-1.4c0.2,0,0.4,0,0.6,0.1h1.2v0.5h-0.6c0.2,0.2,0.3,0.5,0.3,0.8c0,0.8-0.6,1.4-1.5,1.4c-0.2,0-0.3,0-0.4,0
		c-0.2,0.1-0.3,0.2-0.3,0.3c0,0.2,0.2,0.3,0.5,0.3c0.8,0,2,0,2,1.2c0,0.8-0.9,1.3-1.9,1.3C89.8,222.4,89.1,222.1,89.1,221.3z
		 M91.9,221.2c0-0.6-0.5-0.6-1-0.6c-0.2,0-0.5,0-0.7-0.1c-0.4,0.2-0.5,0.5-0.5,0.8c0,0.4,0.3,0.7,1,0.7
		C91.4,221.9,91.9,221.6,91.9,221.2z M91.6,218c0-0.5-0.3-0.9-0.9-0.9s-0.9,0.4-0.9,0.9s0.3,0.9,0.9,0.9
		C91.2,218.9,91.6,218.5,91.6,218z"/>
	<path class="st0" d="M93.1,220.2l0.3-0.4c0.1,0.1,0.5,0.3,1,0.3s0.8-0.2,0.8-0.6s-0.3-0.5-0.8-0.7c-0.6-0.3-1.1-0.5-1.1-1.2
		c0-0.6,0.4-1.1,1.2-1.1c0.6,0,1,0.3,1.1,0.4l-0.3,0.4c-0.1-0.1-0.4-0.3-0.9-0.3c-0.4,0-0.6,0.2-0.6,0.5c0,0.4,0.3,0.5,0.7,0.7
		c0.6,0.3,1.2,0.5,1.2,1.2s-0.5,1.1-1.4,1.1C93.8,220.6,93.4,220.4,93.1,220.2z"/>
	<path class="st0" d="M96.9,217.6l0.7-0.9l-1.1-0.3l0.1-0.4l1.1,0.4v-1.1h0.5v1.1l1.1-0.4l0.2,0.4l-1.1,0.3l0.7,0.9l-0.4,0.3l-0.7-1
		l-0.7,1L96.9,217.6z"/>
</g>
<line class="st2" x1="0" y1="218.2" x2="5.9" y2="218.2"/>
<line class="st3" x1="0" y1="228.1" x2="5.9" y2="228.1"/>
<g>
	<path class="st0" d="M8.8,225.2h2.8v0.5H9.5v1.7h1.9v0.5H9.5v2.6H8.8V225.2z"/>
	<path class="st0" d="M12.2,228.6c0-0.9,0.5-2,1.8-2s1.8,1.1,1.8,2s-0.5,2-1.8,2S12.2,229.5,12.2,228.6z M15.2,228.6
		c0-0.8-0.4-1.5-1.2-1.5s-1.1,0.7-1.1,1.5s0.4,1.5,1.2,1.5S15.2,229.4,15.2,228.6z"/>
	<path class="st0" d="M16.8,226.7h0.6v0.6c0.2-0.3,0.5-0.7,1-0.7c0.2,0,0.4,0.1,0.4,0.1l-0.1,0.6c0,0-0.1-0.1-0.3-0.1
		c-0.6,0-0.9,0.7-0.9,0.8v2.6h-0.6v-3.9H16.8z"/>
	<path class="st0" d="M19.1,226.7h0.6l0.8,2.9l0,0l0.9-2.9H22l0.9,2.9l0,0l0.8-2.9h0.6l-1.2,3.8h-0.5l-1-3l0,0l-1,3h-0.5L19.1,226.7
		z"/>
	<path class="st0" d="M24.9,229.6c0-1,1.1-1.3,2-1.3h0.2v-0.4c0-0.6-0.2-0.8-0.8-0.8c-0.4,0-0.7,0.1-1,0.4l-0.3-0.4
		c0.4-0.4,0.8-0.5,1.4-0.5c0.8,0,1.3,0.4,1.3,1.3v1.8c0,0.4,0,0.7,0.1,0.9h-0.6c0-0.1,0-0.3-0.1-0.5c-0.3,0.3-0.7,0.6-1.2,0.6
		C25.4,230.6,24.9,230.2,24.9,229.6z M27.1,229.5v-0.9H27c-0.8,0-1.4,0.2-1.4,0.9c0,0.4,0.3,0.5,0.6,0.5
		C26.5,230.1,26.9,229.9,27.1,229.5z"/>
	<path class="st0" d="M29,226.7h0.6v0.6c0.2-0.3,0.5-0.7,1-0.7c0.2,0,0.4,0.1,0.4,0.1l-0.1,0.6c0,0-0.1-0.1-0.3-0.1
		c-0.6,0-0.9,0.7-0.9,0.8v2.6H29V226.7z"/>
	<path class="st0" d="M31.4,228.6c0-1.2,0.7-2,1.7-2c0.4,0,0.7,0.1,1,0.3v-2.2h0.6v5c0,0.3,0,0.6,0.1,0.8h-0.6
		c0-0.1-0.1-0.3-0.1-0.4c-0.3,0.3-0.6,0.5-1.1,0.5C32.1,230.6,31.4,229.9,31.4,228.6z M34.1,229.5v-2.1c-0.2-0.2-0.5-0.4-0.9-0.4
		c-0.7,0-1.1,0.6-1.1,1.5s0.3,1.5,1.1,1.5C33.5,230.1,33.8,229.9,34.1,229.5z"/>
	<path class="st0" d="M37.4,228.5c0-1.1,0.7-2,1.7-2s1.5,0.7,1.5,1.7c0,0.1,0,0.2,0,0.3H38c0,0.8,0.3,1.5,1.2,1.5
		c0.5,0,0.9-0.2,1.1-0.3l0.2,0.5c-0.2,0.1-0.6,0.4-1.3,0.4C38,230.6,37.4,229.7,37.4,228.5z M40,228.1c0-0.5-0.3-1-0.9-1
		c-0.6,0-1,0.4-1.1,1H40z"/>
	<path class="st0" d="M41.3,229.6c0-1,1.1-1.3,2-1.3h0.2v-0.4c0-0.6-0.2-0.8-0.8-0.8c-0.4,0-0.7,0.1-1,0.4l-0.3-0.4
		c0.4-0.4,0.8-0.5,1.4-0.5c0.8,0,1.3,0.4,1.3,1.3v1.8c0,0.4,0,0.7,0.1,0.9h-0.6c0-0.1,0-0.3-0.1-0.5c-0.3,0.3-0.7,0.6-1.2,0.6
		C41.8,230.6,41.3,230.2,41.3,229.6z M43.6,229.5v-0.9h-0.2c-0.8,0-1.4,0.2-1.4,0.9c0,0.4,0.3,0.5,0.6,0.5
		C43,230.1,43.3,229.9,43.6,229.5z"/>
	<path class="st0" d="M45.4,226.7H46v0.6c0.2-0.3,0.5-0.7,1-0.7c0.2,0,0.4,0.1,0.4,0.1l-0.1,0.6c0,0-0.1-0.1-0.3-0.1
		c-0.6,0-0.9,0.7-0.9,0.8v2.6h-0.6v-3.9H45.4z"/>
	<path class="st0" d="M48.2,226.7h0.6v0.6c0.3-0.4,0.8-0.6,1.2-0.6c0.8,0,1.1,0.5,1.1,1.2v2.7h-0.6V228c0-0.5-0.2-0.8-0.7-0.8
		c-0.4,0-0.8,0.3-1.1,0.7v2.7h-0.6L48.2,226.7L48.2,226.7z"/>
	<path class="st0" d="M52.3,225.5c0-0.2,0.2-0.4,0.4-0.4s0.4,0.2,0.4,0.4s-0.2,0.4-0.4,0.4S52.3,225.7,52.3,225.5z M52.5,226.7h0.6
		v3.8h-0.6V226.7z"/>
	<path class="st0" d="M54.4,226.7H55v0.6c0.3-0.4,0.8-0.6,1.2-0.6c0.8,0,1.1,0.5,1.1,1.2v2.7h-0.6V228c0-0.5-0.2-0.8-0.7-0.8
		c-0.4,0-0.8,0.3-1.1,0.7v2.7h-0.6L54.4,226.7L54.4,226.7z"/>
	<path class="st0" d="M58.4,231.3c0-0.4,0.3-0.8,0.7-1c-0.2-0.1-0.3-0.3-0.3-0.6s0.2-0.5,0.4-0.6c-0.4-0.2-0.7-0.7-0.7-1.2
		c0-0.8,0.6-1.4,1.5-1.4c0.2,0,0.4,0,0.6,0.1h1.2v0.5h-0.6c0.2,0.2,0.3,0.5,0.3,0.8c0,0.8-0.6,1.4-1.5,1.4c-0.2,0-0.3,0-0.4,0
		c-0.2,0.1-0.3,0.2-0.3,0.3c0,0.2,0.2,0.3,0.5,0.3c0.8,0,2,0,2,1.2c0,0.8-0.9,1.3-1.9,1.3C59.1,232.4,58.4,232.1,58.4,231.3z
		 M61.2,231.1c0-0.6-0.5-0.6-1-0.6c-0.2,0-0.5,0-0.7-0.1c-0.4,0.2-0.5,0.5-0.5,0.8c0,0.4,0.3,0.7,1,0.7S61.2,231.6,61.2,231.1z
		 M60.9,228c0-0.5-0.3-0.9-0.9-0.9c-0.6,0-0.9,0.4-0.9,0.9s0.3,0.9,0.9,0.9C60.5,228.9,60.9,228.5,60.9,228z"/>
	<path class="st0" d="M62.4,230.2l0.3-0.4c0.1,0.1,0.5,0.3,1,0.3c0.5,0,0.8-0.2,0.8-0.6s-0.3-0.5-0.8-0.7c-0.6-0.3-1.1-0.5-1.1-1.2
		c0-0.6,0.4-1.1,1.2-1.1c0.6,0,1,0.3,1.1,0.4l-0.3,0.4c-0.1-0.1-0.4-0.3-0.9-0.3c-0.4,0-0.6,0.2-0.6,0.5c0,0.4,0.3,0.5,0.7,0.7
		c0.6,0.3,1.2,0.5,1.2,1.2s-0.5,1.1-1.4,1.1C63,230.6,62.6,230.4,62.4,230.2z"/>
	<path class="st0" d="M67.8,226.7h0.6v0.4c0.2-0.2,0.6-0.5,1.1-0.5c0.9,0,1.6,0.7,1.6,2c0,1.2-0.7,2-1.7,2c-0.5,0-0.8-0.2-1-0.3v2
		h-0.6V226.7z M70.4,228.6c0-0.9-0.3-1.5-1.1-1.5c-0.5,0-0.9,0.4-1,0.5v2.1c0.2,0.2,0.4,0.4,0.9,0.4C70,230.1,70.4,229.4,70.4,228.6
		z"/>
	<path class="st0" d="M71.7,228.5c0-1.1,0.7-2,1.7-2s1.5,0.7,1.5,1.7c0,0.1,0,0.2,0,0.3h-2.6c0,0.8,0.3,1.5,1.2,1.5
		c0.5,0,0.9-0.2,1.1-0.3l0.2,0.5c-0.2,0.1-0.6,0.4-1.3,0.4C72.3,230.6,71.7,229.7,71.7,228.5z M74.3,228.1c0-0.5-0.3-1-0.9-1
		s-1,0.4-1.1,1H74.3z"/>
	<path class="st0" d="M75.9,226.7h0.6v0.6c0.2-0.3,0.5-0.7,1-0.7c0.2,0,0.4,0.1,0.4,0.1l-0.1,0.6c0,0-0.1-0.1-0.3-0.1
		c-0.6,0-0.9,0.7-0.9,0.8v2.6H76L75.9,226.7L75.9,226.7z"/>
	<path class="st0" d="M80.2,230.2l0.3-0.4c0.1,0.1,0.5,0.3,1,0.3s0.8-0.2,0.8-0.6s-0.3-0.5-0.8-0.7c-0.6-0.3-1.1-0.5-1.1-1.2
		c0-0.6,0.4-1.1,1.2-1.1c0.6,0,1,0.3,1.1,0.4l-0.3,0.4c-0.1-0.1-0.4-0.3-0.9-0.3c-0.4,0-0.6,0.2-0.6,0.5c0,0.4,0.3,0.5,0.7,0.7
		c0.6,0.3,1.2,0.5,1.2,1.2s-0.5,1.1-1.4,1.1C80.8,230.6,80.4,230.4,80.2,230.2z"/>
	<path class="st0" d="M83.7,224.7h0.6v2.5c0.2-0.2,0.6-0.6,1.2-0.6c0.8,0,1.1,0.5,1.1,1.2v2.7H86v-2.6c0-0.5-0.2-0.8-0.7-0.8
		c-0.6,0-1,0.6-1.1,0.7v2.7h-0.6L83.7,224.7L83.7,224.7z"/>
	<path class="st0" d="M87.7,229.6c0-1,1.1-1.3,2-1.3h0.2v-0.4c0-0.6-0.2-0.8-0.8-0.8c-0.4,0-0.7,0.1-1,0.4l-0.3-0.4
		c0.4-0.4,0.8-0.5,1.4-0.5c0.8,0,1.3,0.4,1.3,1.3v1.8c0,0.4,0,0.7,0.1,0.9H90c0-0.1,0-0.3-0.1-0.5c-0.3,0.3-0.7,0.6-1.2,0.6
		C88.1,230.6,87.7,230.2,87.7,229.6z M89.9,229.5v-0.9h-0.2c-0.8,0-1.4,0.2-1.4,0.9c0,0.4,0.3,0.5,0.6,0.5
		C89.3,230.1,89.6,229.9,89.9,229.5z"/>
	<path class="st0" d="M91.7,226.7h0.6v0.6c0.2-0.3,0.5-0.7,1-0.7c0.2,0,0.4,0.1,0.4,0.1l-0.1,0.6c0,0-0.1-0.1-0.3-0.1
		c-0.6,0-0.9,0.7-0.9,0.8v2.6h-0.6L91.7,226.7L91.7,226.7z"/>
	<path class="st0" d="M94.1,228.5c0-1.1,0.7-2,1.7-2s1.5,0.7,1.5,1.7c0,0.1,0,0.2,0,0.3h-2.6c0,0.8,0.3,1.5,1.2,1.5
		c0.5,0,0.9-0.2,1.1-0.3l0.2,0.5c-0.2,0.1-0.6,0.4-1.3,0.4C94.7,230.6,94.1,229.7,94.1,228.5z M96.8,228.1c0-0.5-0.3-1-0.9-1
		s-1,0.4-1.1,1H96.8z"/>
	<path class="st0" d="M98.5,227.6l0.7-0.9l-1.1-0.3l0.1-0.4l1.1,0.4v-1.1h0.5v1.1l1.1-0.4l0.2,0.4l-1.1,0.3l0.7,0.9l-0.4,0.3l-0.7-1
		l-0.7,1L98.5,227.6z"/>
</g>
<line class="st4" x1="36.2" y1="16.3" x2="36.2" y2="183.1"/>
<line class="st4" x1="235.8" y1="16.3" x2="235.8" y2="179.9"/>
<line class="st4" x1="34.2" y1="57" x2="236.1" y2="57"/>
<line class="st4" x1="34.2" y1="16.3" x2="236.1" y2="16.3"/>
<line class="st4" x1="34.2" y1="97.9" x2="236.1" y2="97.9"/>
<line class="st4" x1="34.2" y1="138.1" x2="236.1" y2="138.1"/>
<line class="st4" x1="35.2" y1="179.3" x2="236.1" y2="179.3"/>
<line class="st4" x1="71.1" y1="179.3" x2="71.1" y2="183.6"/>
<line class="st4" x1="106.5" y1="179.3" x2="106.5" y2="183.6"/>
<line class="st4" x1="141.6" y1="179.3" x2="141.6" y2="183.6"/>
<line class="st4" x1="175.9" y1="179.3" x2="175.9" y2="183.6"/>
<line class="st4" x1="211.4" y1="179.3" x2="211.4" y2="183.6"/>
<polyline class="st5" points="36.9,97.2 38.9,95.9 40.9,92.7 42.9,94.8 44.9,100 46.9,94.6 48.9,92.2 50.9,94.7 52.9,116.2 
	54.9,115.3 56.9,138.1 58.9,157.5 60.9,143.2 62.9,147 64.9,130.9 66.9,127.1 68.9,129.8 70.9,127.5 72.9,123.2 74.9,127.4 
	76.9,122.4 78.9,115.9 80.9,105.2 83,113.2 85,109.4 86.9,113.4 89,107.1 91,103.7 93,101.3 95,101.3 97,99.8 99,95.6 101,93.3 
	103,92.6 105,86.9 107,91.7 109,94.3 111,93.8 113,98 115,94.6 117,87 119,87.6 121,88 123,99.2 125,83.9 127.1,79 129,77.6 
	131,72.3 133,68.9 135.1,70 137.1,66.3 139.1,67.1 141.1,63.7 143.1,57.3 145.1,60.2 147.1,56.1 149.1,64.8 151.1,54.6 153.1,50.3 
	155.1,51.1 157.1,59.2 159.1,59 161.1,52.6 163.1,53.7 165.1,52.9 167.1,49.8 169.1,44.7 171.1,40.9 173.1,41.2 175.1,41.8 
	177.1,38.5 179.1,42.4 181.2,41.4 183.1,37.7 185.1,35.7 187.2,34.4 189.2,39.4 191.2,33.4 193.2,32.3 195.2,32.5 197.2,34.1 
	199.2,31.1 201.2,32.1 203.2,29.5 205.2,27.6 207.2,32.4 209.2,26.9 211.2,23.3 213.2,26.6 215.2,29.3 217.2,29 219.2,35.5 
	221.2,33.5 223.2,27.7 225.2,24.2 227.2,23.1 229.2,18.6 231.2,18.6 233.3,19.2 235.3,20.8 "/>
<polyline class="st6" points="36.9,97.3 38.9,96.2 40.9,93.3 42.9,95.5 44.9,100.9 46.9,93.8 48.9,91.2 50.9,93.1 52.9,114.7 
	54.9,113.8 56.9,133.2 58.9,146.6 60.9,125.8 62.9,122.8 64.9,97.6 66.9,88.4 68.9,88.1 70.9,84 72.9,76.2 74.9,80.4 76.9,73.7 
	78.9,66.5 80.9,52.6 83,64.1 85,59.6 86.9,65.1 89,58.4 91,55.9 93,54.6 95,57.3 97,58.6 99,54.8 101,54 103,54.7 105,49.6 
	107,55.7 109,59.7 111,61 113,66.1 115,63.8 117,57.2 119,59.2 121,62 123,75.7 125,61.8 127.1,57.9 129,58.3 131,54.9 133,52.3 
	135.1,55.6 137.1,53.9 139.1,56.1 141.1,53.8 143.1,49.5 145.1,53.3 147.1,51.8 149.1,62.9 151.1,54.9 153.1,52.7 155.1,55.1 
	157.1,65.1 159.1,64.6 161.1,59.1 163.1,61.5 165.1,61.5 167.1,59.7 169.1,56.3 171.1,56 173.1,59.4 175.1,65.2 177.1,65 
	179.1,70.5 181.2,71.1 183.1,68.4 185.1,67.7 187.2,67.3 189.2,72 191.2,67.5 193.2,67.2 195.2,68.5 197.2,71.2 199.2,70 
	201.2,74.2 203.2,73.9 205.2,73 207.2,77.5 209.2,74 211.2,70.9 213.2,74 215.2,76.2 217.2,76.2 219.2,81.6 221.2,80.4 223.2,76.5 
	225.2,74.5 227.2,73.9 229.2,71.4 231.2,71.9 233.3,72.4 235.3,73.8 "/>
<path class="st7" d="M36.9,97.3l2-0.2l2-0.3l2-0.1l2-0.1l2,1.7l2,0.3l2,0.6l2,0.2l2,0.2l2,4.3l2,8.5l2,5.9l2,7.7l2,5.8l2,3.7l2,2.8
	l2,1.1l2,1.8l2,0.9l2,0.4l2-0.6l2,0.2l2-0.8l2-0.1l2-0.4l2-0.6l2-1.1l2-1l2-1.8l2-2.1l2-0.8l2-1.3l2-0.9l2-1.1l2-0.3l2-0.7l2-1.3
	l2-0.1l2-1.1l2-1.3l2-1l2-1.7l2-0.8l2-2.3l2-1.1l2-1.4l2-1.7l2-0.8l2-1.5l2-1.7l2-1l2-0.9l2-1.7l2-0.6l2-2l2-1.8l2-1.8l2-1.7l2-1.2
	l2-1.5l2,0.3l2-0.5l2-1.1l2-0.6l2-0.8l2-1.2l2-2.8l2-2.5l2-4.6l2-2.5l2-1.7l2-1.4l2-0.4c4.6-2.5,9.4-1.6,14-5.3l2-1.3l2-3.4l2-1.9
	l2-0.6l2-0.4l2-1l2,0.3l2-0.3h2l2-0.2l2,0.2l2-0.4l2-0.9l2-1l2-0.3l2-1.2l2-0.4l2,0.1h2"/>
<path class="st0" d="M20.4,54.8l-1,0.3l-0.1-0.5l1.3-0.4H21v5.3h-0.6V54.8z M22.1,59.3c0.9-0.9,2.5-2.4,2.5-3.6c0-0.7-0.4-1-0.9-1
	c-0.6,0-0.9,0.3-1.2,0.5l-0.3-0.4c0.3-0.4,0.8-0.7,1.5-0.7c0.9,0,1.6,0.5,1.6,1.4c0,1.2-1.3,2.5-2.3,3.5c0,0,0.3,0,0.6,0h1.8v0.5
	h-3.3C22.1,59.5,22.1,59.3,22.1,59.3z M26.3,56.9c0-1.3,0.5-2.8,2-2.8c1.4,0,2,1.4,2,2.8s-0.6,2.8-2,2.8
	C26.8,59.7,26.3,58.2,26.3,56.9z M29.6,56.9c0-1.3-0.4-2.3-1.4-2.3s-1.4,1-1.4,2.3s0.4,2.3,1.4,2.3S29.6,58.2,29.6,56.9z"/>
<path class="st0" d="M20.1,14.6l-1,0.3L19,14.4l1.3-0.4h0.5v5.3h-0.6L20.1,14.6L20.1,14.6z M24.3,18.1h-2.5v-0.5l2.4-3.6h0.6v3.6
	h0.8v0.5h-0.8v1.2h-0.6v-1.2H24.3z M23.1,17.6h1.2v-2.7l0,0l-1.8,2.8C22.5,17.6,22.8,17.6,23.1,17.6z M26.3,16.7
	c0-1.3,0.5-2.8,2-2.8c1.4,0,2,1.4,2,2.8s-0.6,2.8-2,2.8C26.8,19.4,26.3,18,26.3,16.7z M29.6,16.7c0-1.3-0.4-2.3-1.4-2.3
	s-1.4,1-1.4,2.3s0.4,2.3,1.4,2.3C29.2,18.9,29.6,17.9,29.6,16.7z"/>
<path class="st0" d="M19.5,96l-1,0.3l-0.1-0.5l1.3-0.4h0.5v5.3h-0.6L19.5,96L19.5,96z M21.4,98.1c0-1.3,0.5-2.8,2-2.8
	c1.4,0,2,1.4,2,2.8s-0.6,2.8-2,2.8S21.4,99.4,21.4,98.1z M24.8,98.1c0-1.3-0.4-2.3-1.4-2.3s-1.4,1-1.4,2.3s0.4,2.3,1.4,2.3
	C24.3,100.4,24.8,99.4,24.8,98.1z M26.3,98.1c0-1.3,0.5-2.8,2-2.8c1.4,0,2,1.4,2,2.8s-0.6,2.8-2,2.8C26.8,100.9,26.3,99.4,26.3,98.1
	z M29.6,98.1c0-1.3-0.4-2.3-1.4-2.3s-1.4,1-1.4,2.3s0.4,2.3,1.4,2.3S29.6,99.4,29.6,98.1z"/>
<path class="st0" d="M22.2,139.5c0-0.7,0.7-1.2,1.1-1.5c-0.5-0.3-1-0.7-1-1.3c0-0.8,0.7-1.3,1.5-1.3c0.9,0,1.5,0.5,1.5,1.3
	c0,0.7-0.6,1-1.1,1.3c0.5,0.3,1.2,0.7,1.2,1.5s-0.6,1.4-1.6,1.4C22.7,140.9,22.2,140.2,22.2,139.5z M24.8,139.4c0-0.6-0.6-1-1.1-1.2
	c-0.4,0.2-0.9,0.6-0.9,1.2c0,0.5,0.3,0.9,1,0.9C24.5,140.4,24.8,140,24.8,139.4z M24.7,136.7c0-0.4-0.3-0.8-0.8-0.8
	s-0.9,0.3-0.9,0.8s0.5,0.8,0.9,1C24.3,137.4,24.7,137.1,24.7,136.7z M26.3,138.1c0-1.3,0.5-2.8,2-2.8c1.4,0,2,1.4,2,2.8
	s-0.6,2.8-2,2.8C26.8,140.9,26.3,139.4,26.3,138.1z M29.6,138.1c0-1.3-0.4-2.3-1.4-2.3s-1.4,1-1.4,2.3s0.4,2.3,1.4,2.3
	C29.2,140.4,29.6,139.4,29.6,138.1z"/>
<path class="st0" d="M22,179.8c0-2,1.2-3.3,3.1-3.3l0.1,0.5c-0.8,0-1.4,0.2-1.9,0.6c-0.4,0.4-0.6,0.9-0.7,1.6
	c0.3-0.3,0.7-0.5,1.2-0.5c1,0,1.6,0.7,1.6,1.6s-0.6,1.7-1.7,1.7C22.6,182.1,22,180.9,22,179.8z M24.9,180.4c0-0.8-0.4-1.2-1.1-1.2
	c-0.5,0-0.8,0.2-1.1,0.5v0.1c0,1.1,0.4,1.8,1.2,1.8C24.6,181.6,24.9,181,24.9,180.4z M26.3,179.3c0-1.3,0.5-2.8,2-2.8
	c1.4,0,2,1.4,2,2.8s-0.6,2.8-2,2.8C26.8,182.1,26.3,180.6,26.3,179.3z M29.6,179.3c0-1.3-0.4-2.3-1.4-2.3s-1.4,1-1.4,2.3
	s0.4,2.3,1.4,2.3S29.6,180.6,29.6,179.3z"/>
<g>
	<path class="st0" d="M27,193.4l0.1-0.5c0.1,0,0.2,0.1,0.3,0.1c0.4,0,0.6-0.3,0.6-0.9v-5h0.6v5.1c0,0.8-0.4,1.3-1.1,1.3
		C27.2,193.4,27,193.4,27,193.4z"/>
</g>
<g>
	<path class="st0" d="M29.5,191.1c0-1,1.1-1.2,1.9-1.2h0.2v-0.3c0-0.5-0.2-0.8-0.7-0.8c-0.3,0-0.6,0.1-0.9,0.4l-0.3-0.4
		c0.4-0.3,0.8-0.5,1.3-0.5c0.8,0,1.2,0.4,1.2,1.2v1.7c0,0.4,0,0.6,0.1,0.8h-0.5c0-0.1,0-0.3-0.1-0.4c-0.2,0.3-0.6,0.5-1.1,0.5
		C29.9,192.1,29.5,191.7,29.5,191.1z M31.5,191.1v-0.8h-0.2c-0.8,0-1.3,0.2-1.3,0.8c0,0.4,0.3,0.5,0.5,0.5
		C31,191.6,31.3,191.4,31.5,191.1z"/>
	<path class="st0" d="M33.1,188.4h0.5v0.5c0.3-0.4,0.7-0.6,1.2-0.6c0.8,0,1.1,0.5,1.1,1.1v2.6h-0.5v-2.5c0-0.5-0.2-0.7-0.6-0.7
		c-0.4,0-0.8,0.3-1,0.7v2.5h-0.5v-3.6H33.1z"/>
</g>
<path class="st0" d="M36.7,189.1h1.5v0.5h-1.5V189.1z M38.8,191.7c0.9-0.9,2.3-2.3,2.3-3.4c0-0.6-0.4-0.9-0.9-0.9s-0.9,0.2-1.1,0.5
	l-0.3-0.4c0.3-0.3,0.8-0.6,1.4-0.6c0.8,0,1.5,0.5,1.5,1.3c0,1.2-1.2,2.4-2.2,3.3c0,0,0.3,0,0.6,0h1.7v0.5h-3.1L38.8,191.7
	L38.8,191.7z M42.4,189.5c0-1.2,0.5-2.6,1.9-2.6s1.9,1.4,1.9,2.6s-0.5,2.6-1.9,2.6C43,192.1,42.4,190.7,42.4,189.5z M45.6,189.5
	c0-1.2-0.4-2.1-1.3-2.1c-0.9,0-1.3,0.9-1.3,2.1s0.4,2.1,1.3,2.1C45.2,191.6,45.6,190.7,45.6,189.5z"/>
<g>
	<path class="st0" d="M60.2,187h0.5l1.2,3.4c0.1,0.4,0.2,0.6,0.3,0.9l0,0c0.1-0.3,0.2-0.5,0.3-0.9l1.2-3.4h0.6l0.7,5h-0.6l-0.4-3.3
		c0-0.4-0.1-0.5-0.1-0.7l0,0c-0.1,0.2-0.1,0.4-0.2,0.7l-1.2,3.3H62l-1.2-3.3c-0.1-0.3-0.2-0.5-0.2-0.7l0,0c0,0.2,0,0.4-0.1,0.7
		L60,192h-0.5L60.2,187z"/>
</g>
<g>
	<path class="st0" d="M65.7,191.1c0-1,1.1-1.2,1.9-1.2h0.2v-0.3c0-0.5-0.2-0.8-0.7-0.8c-0.3,0-0.6,0.1-0.9,0.4l-0.3-0.4
		c0.4-0.3,0.8-0.5,1.3-0.5c0.8,0,1.2,0.4,1.2,1.2v1.7c0,0.4,0,0.6,0.1,0.8H68c0-0.1,0-0.3-0.1-0.4c-0.2,0.3-0.6,0.5-1.1,0.5
		C66.1,192.1,65.7,191.7,65.7,191.1z M67.8,191.1v-0.8h-0.2c-0.8,0-1.3,0.2-1.3,0.8c0,0.4,0.3,0.5,0.5,0.5
		C67.2,191.6,67.5,191.4,67.8,191.1z"/>
	<path class="st0" d="M68.8,193.7l0.1-0.5c0.1,0,0.1,0,0.3,0c0.5,0,0.7-0.3,0.9-0.8l0.2-0.5l-1.4-3.6h0.6l1,2.9l0,0l1-2.9h0.6
		l-1.5,4.1c-0.2,0.7-0.6,1.3-1.4,1.3C68.9,193.8,68.9,193.7,68.8,193.7z"/>
</g>
<path class="st0" d="M72.5,189.1H74v0.5h-1.5V189.1z M74.5,191.7c0.9-0.9,2.3-2.3,2.3-3.4c0-0.6-0.4-0.9-0.9-0.9s-0.9,0.2-1.1,0.5
	l-0.3-0.4c0.3-0.3,0.8-0.6,1.4-0.6c0.8,0,1.5,0.5,1.5,1.3c0,1.2-1.2,2.4-2.2,3.3c0,0,0.3,0,0.6,0h1.7v0.5h-3.1L74.5,191.7
	L74.5,191.7z M78.2,189.5c0-1.2,0.5-2.6,1.9-2.6s1.9,1.4,1.9,2.6s-0.5,2.6-1.9,2.6S78.2,190.7,78.2,189.5z M81.3,189.5
	c0-1.2-0.4-2.1-1.3-2.1s-1.3,0.9-1.3,2.1s0.4,2.1,1.3,2.1S81.3,190.7,81.3,189.5z"/>
<g>
	<path class="st0" d="M166.6,187h0.5l1.2,3.4c0.2,0.4,0.2,0.6,0.3,0.9l0,0c0.1-0.3,0.2-0.5,0.3-0.9l1.2-3.4h0.6l0.7,5h-0.6l-0.4-3.3
		c0-0.4-0.1-0.5-0.1-0.7l0,0c-0.1,0.2-0.1,0.4-0.2,0.7L169,192h-0.6l-1.2-3.3c-0.1-0.3-0.2-0.5-0.2-0.7l0,0c0,0.2,0,0.4-0.1,0.7
		l-0.4,3.3H166L166.6,187z"/>
</g>
<g>
	<path class="st0" d="M172.1,191.1c0-1,1.1-1.2,1.9-1.2h0.2v-0.3c0-0.5-0.2-0.8-0.7-0.8c-0.3,0-0.6,0.1-0.9,0.4l-0.3-0.4
		c0.4-0.3,0.8-0.5,1.3-0.5c0.8,0,1.2,0.4,1.2,1.2v1.7c0,0.4,0,0.6,0.1,0.8h-0.5c0-0.1,0-0.3-0.1-0.4c-0.2,0.3-0.6,0.5-1.1,0.5
		C172.6,192.1,172.1,191.7,172.1,191.1z M174.2,191.1v-0.8H174c-0.8,0-1.3,0.2-1.3,0.8c0,0.4,0.3,0.5,0.5,0.5
		C173.7,191.6,174,191.4,174.2,191.1z"/>
	<path class="st0" d="M175.2,193.7l0.1-0.5c0.1,0,0.1,0,0.3,0c0.5,0,0.7-0.3,0.9-0.8l0.2-0.5l-1.4-3.6h0.6l1,2.9l0,0l1-2.9h0.6
		l-1.5,4.1c-0.2,0.7-0.6,1.3-1.4,1.3C175.4,193.8,175.3,193.7,175.2,193.7z"/>
</g>
<path class="st0" d="M178.9,189.1h1.5v0.5h-1.5V189.1z M180.9,191.7c0.9-0.9,2.3-2.3,2.3-3.4c0-0.6-0.4-0.9-0.9-0.9
	s-0.9,0.2-1.1,0.5l-0.3-0.4c0.3-0.3,0.8-0.6,1.4-0.6c0.8,0,1.5,0.5,1.5,1.3c0,1.2-1.2,2.4-2.2,3.3c0,0,0.3,0,0.6,0h1.7v0.5h-3.1
	v-0.3H180.9z M185.5,187.5l-1,0.3l-0.1-0.5l1.2-0.4h0.5v5h-0.6L185.5,187.5L185.5,187.5z"/>
<g>
	<path class="st0" d="M96.9,191.6l0.3-0.4c0.1,0.1,0.5,0.4,1.1,0.4s1-0.4,1-0.8c0-0.6-0.6-0.9-1.1-1.1c-0.6-0.3-1.2-0.6-1.2-1.4
		c0-0.8,0.7-1.3,1.5-1.3c0.7,0,1.1,0.3,1.3,0.4l-0.3,0.4c-0.2-0.1-0.5-0.3-1-0.3s-0.9,0.3-0.9,0.8s0.4,0.7,0.9,1
		c0.7,0.3,1.4,0.7,1.4,1.6c0,0.8-0.7,1.3-1.6,1.3C97.6,192.1,97.1,191.8,96.9,191.6z"/>
</g>
<g>
	<path class="st0" d="M100.5,190.2c0-1.1,0.7-1.9,1.6-1.9s1.4,0.6,1.4,1.6c0,0.1,0,0.2,0,0.3h-2.4c0,0.8,0.3,1.4,1.1,1.4
		c0.5,0,0.8-0.2,1-0.3l0.2,0.4c-0.2,0.1-0.6,0.4-1.2,0.4C101.1,192.1,100.5,191.3,100.5,190.2z M103,189.8c0-0.5-0.2-1-0.9-1
		c-0.6,0-0.9,0.4-1,1H103z"/>
	<path class="st0" d="M104.3,188.4h0.5v0.4c0.2-0.2,0.5-0.5,1-0.5c0.9,0,1.5,0.7,1.5,1.9c0,1.1-0.7,1.9-1.6,1.9
		c-0.5,0-0.8-0.2-0.9-0.3v1.9h-0.5V188.4z M106.8,190.2c0-0.8-0.3-1.4-1-1.4c-0.5,0-0.8,0.4-0.9,0.5v2c0.2,0.1,0.4,0.3,0.9,0.3
		C106.4,191.6,106.8,191,106.8,190.2z"/>
</g>
<path class="st0" d="M107.9,189.1h1.5v0.5h-1.5V189.1z M110,191.7c0.9-0.9,2.3-2.3,2.3-3.4c0-0.6-0.4-0.9-0.9-0.9s-0.9,0.2-1.1,0.5
	l-0.3-0.4c0.3-0.3,0.8-0.6,1.4-0.6c0.8,0,1.5,0.5,1.5,1.3c0,1.2-1.2,2.4-2.2,3.3c0,0,0.3,0,0.6,0h1.7v0.5h-3V191.7z M113.6,189.5
	c0-1.2,0.5-2.6,1.9-2.6s1.9,1.4,1.9,2.6s-0.5,2.6-1.9,2.6C114.2,192.1,113.6,190.7,113.6,189.5z M116.8,189.5c0-1.2-0.4-2.1-1.3-2.1
	s-1.3,0.9-1.3,2.1s0.4,2.1,1.3,2.1S116.8,190.7,116.8,189.5z"/>
<g>
	<path class="st0" d="M202.9,191.6l0.3-0.4c0.1,0.1,0.5,0.4,1.1,0.4s1-0.4,1-0.8c0-0.6-0.6-0.9-1.1-1.1c-0.6-0.3-1.2-0.6-1.2-1.4
		c0-0.8,0.7-1.3,1.5-1.3c0.7,0,1.1,0.3,1.3,0.4l-0.3,0.4c-0.2-0.1-0.5-0.3-1-0.3s-0.9,0.3-0.9,0.8s0.4,0.7,0.9,1
		c0.7,0.3,1.4,0.7,1.4,1.6c0,0.8-0.7,1.3-1.6,1.3C203.5,192.1,203,191.8,202.9,191.6z"/>
</g>
<g>
	<path class="st0" d="M206.5,190.2c0-1.1,0.7-1.9,1.6-1.9c0.9,0,1.4,0.6,1.4,1.6c0,0.1,0,0.2,0,0.3H207c0,0.8,0.3,1.4,1.1,1.4
		c0.5,0,0.8-0.2,1-0.3l0.2,0.4c-0.2,0.1-0.6,0.4-1.2,0.4C207,192.1,206.5,191.3,206.5,190.2z M208.9,189.8c0-0.5-0.2-1-0.9-1
		c-0.6,0-0.9,0.4-1,1H208.9z"/>
	<path class="st0" d="M210.3,188.4h0.5v0.4c0.2-0.2,0.5-0.5,1-0.5c0.9,0,1.5,0.7,1.5,1.9c0,1.1-0.7,1.9-1.6,1.9
		c-0.5,0-0.8-0.2-0.9-0.3v1.9h-0.5V188.4z M212.8,190.2c0-0.8-0.3-1.4-1-1.4c-0.5,0-0.8,0.4-0.9,0.5v2c0.2,0.1,0.4,0.3,0.9,0.3
		C212.4,191.6,212.8,191,212.8,190.2z"/>
</g>
<path class="st0" d="M213.9,189.1h1.5v0.5h-1.5V189.1z M215.9,191.7c0.9-0.9,2.3-2.3,2.3-3.4c0-0.6-0.4-0.9-0.9-0.9
	s-0.9,0.2-1.1,0.5l-0.3-0.4c0.3-0.3,0.8-0.6,1.4-0.6c0.8,0,1.5,0.5,1.5,1.3c0,1.2-1.2,2.4-2.2,3.3c0,0,0.3,0,0.6,0h1.7v0.5h-3.1
	v-0.3H215.9z M220.5,187.5l-1,0.3l-0.1-0.5l1.2-0.4h0.5v5h-0.6L220.5,187.5L220.5,187.5z"/>
<g>
	<path class="st0" d="M133.7,193.4l0.1-0.5c0.1,0,0.2,0.1,0.3,0.1c0.4,0,0.6-0.3,0.6-0.9v-5h0.6v5.1c0,0.8-0.4,1.3-1.1,1.3
		C133.9,193.4,133.8,193.4,133.7,193.4z"/>
</g>
<g>
	<path class="st0" d="M136.2,191.1c0-1,1.1-1.2,1.9-1.2h0.2v-0.3c0-0.5-0.2-0.8-0.7-0.8c-0.3,0-0.6,0.1-0.9,0.4l-0.3-0.4
		c0.4-0.3,0.8-0.5,1.3-0.5c0.8,0,1.2,0.4,1.2,1.2v1.7c0,0.4,0,0.6,0.1,0.8h-0.5c0-0.1,0-0.3-0.1-0.4c-0.2,0.3-0.6,0.5-1.1,0.5
		C136.6,192.1,136.2,191.7,136.2,191.1z M138.3,191.1v-0.8h-0.2c-0.8,0-1.3,0.2-1.3,0.8c0,0.4,0.3,0.5,0.5,0.5
		C137.7,191.6,138,191.4,138.3,191.1z"/>
	<path class="st0" d="M139.9,188.4h0.5v0.5c0.3-0.4,0.7-0.6,1.2-0.6c0.8,0,1.1,0.5,1.1,1.1v2.6h-0.5v-2.5c0-0.5-0.2-0.7-0.6-0.7
		c-0.4,0-0.8,0.3-1,0.7v2.5h-0.5v-3.6H139.9z"/>
</g>
<path class="st0" d="M143.5,189.1h1.5v0.5h-1.5V189.1z M145.5,191.7c0.9-0.9,2.3-2.3,2.3-3.4c0-0.6-0.4-0.9-0.9-0.9
	s-0.9,0.2-1.1,0.5l-0.3-0.4c0.3-0.3,0.8-0.6,1.4-0.6c0.8,0,1.5,0.5,1.5,1.3c0,1.2-1.2,2.4-2.2,3.3c0,0,0.3,0,0.6,0h1.7v0.5h-3.1
	v-0.3H145.5z M150.1,187.5l-1,0.3l-0.1-0.5l1.2-0.4h0.5v5h-0.6L150.1,187.5L150.1,187.5z"/>
<g>
	<path class="st0" d="M0.4,239.7l0.6-0.8l-1-0.3l0.2-0.5l1,0.4l0-1.1h0.5l0,1.1l1-0.4l0.2,0.5l-1,0.3l0.6,0.8L2,240l-0.6-0.9
		L0.8,240L0.4,239.7z"/>
	<path class="st0" d="M4.2,237.4h0.6l1.2,3.3c0.1,0.4,0.2,0.7,0.3,0.9h0c0.1-0.2,0.2-0.5,0.3-0.9l1.2-3.3h0.6l0.7,5H8.5l-0.4-3.1
		c0-0.4-0.1-0.6-0.1-0.7h0c0,0.2-0.1,0.4-0.2,0.7l-1.1,3.1H6l-1.1-3.1c-0.1-0.3-0.2-0.5-0.2-0.7h0c0,0.2,0,0.4-0.1,0.7l-0.4,3.1H3.5
		L4.2,237.4z"/>
	<path class="st0" d="M9.8,242l0.3-0.5c0.1,0.1,0.5,0.4,1.1,0.4c0.6,0,1-0.4,1-0.8c0-0.6-0.6-0.8-1.1-1.1c-0.6-0.3-1.1-0.6-1.1-1.4
		c0-0.8,0.7-1.3,1.5-1.3c0.8,0,1.2,0.3,1.3,0.4l-0.3,0.5c-0.2-0.1-0.5-0.3-1-0.3c-0.5,0-0.8,0.3-0.8,0.7c0,0.5,0.4,0.7,0.9,0.9
		c0.7,0.3,1.4,0.7,1.4,1.6c0,0.8-0.7,1.4-1.7,1.4C10.5,242.5,10,242.2,9.8,242z"/>
	<path class="st0" d="M13.7,239.9c0-1.4,0.9-2.6,2.5-2.6c0.6,0,1.1,0.1,1.4,0.4l-0.3,0.5c-0.3-0.2-0.6-0.3-1.1-0.3
		c-1.2,0-1.7,0.9-1.7,2c0,1.1,0.6,2,1.8,2c0.5,0,0.9-0.2,1.2-0.4l0.3,0.5c-0.3,0.2-0.8,0.5-1.5,0.5
		C14.6,242.5,13.7,241.3,13.7,239.9z"/>
	<path class="st0" d="M18.7,237.4h0.7v5h-0.7V237.4z"/>
	<path class="st0" d="M23.8,237.4h0.7l1.9,5h-0.7l-0.4-1.2H23l-0.4,1.2h-0.7L23.8,237.4z M25,240.7l-0.6-1.6
		c-0.2-0.4-0.2-0.7-0.3-0.9h0c-0.1,0.2-0.2,0.5-0.3,0.9l-0.6,1.6H25z"/>
	<path class="st0" d="M27.1,237h0.6v5.4h-0.6V237z"/>
	<path class="st0" d="M29,237h0.6v5.4H29V237z"/>
	<path class="st0" d="M30.7,240h1.6v0.5h-1.6V240z"/>
	<path class="st0" d="M33,239.9c0-1.4,0.9-2.6,2.5-2.6c0.6,0,1.1,0.1,1.4,0.4l-0.3,0.5c-0.3-0.2-0.6-0.3-1.1-0.3
		c-1.2,0-1.7,0.9-1.7,2c0,1.1,0.6,2,1.8,2c0.5,0,0.9-0.2,1.2-0.4L37,242c-0.3,0.2-0.8,0.5-1.5,0.5C33.9,242.5,33,241.3,33,239.9z"/>
	<path class="st0" d="M37.5,240.6c0-0.9,0.5-1.9,1.7-1.9c1.2,0,1.7,1,1.7,1.9c0,0.9-0.5,1.9-1.7,1.9
		C37.9,242.5,37.5,241.5,37.5,240.6z M40.2,240.6c0-0.8-0.4-1.4-1.1-1.4c-0.7,0-1,0.6-1,1.4c0,0.8,0.3,1.4,1,1.4
		C39.9,242,40.2,241.4,40.2,240.6z"/>
	<path class="st0" d="M41.7,241.4v-2.6h0.6v2.4c0,0.4,0.2,0.7,0.6,0.7c0.5,0,0.9-0.5,1-0.6v-2.5h0.6v2.8c0,0.3,0,0.7,0.1,0.8H44
		c0-0.1-0.1-0.4-0.1-0.5c-0.2,0.2-0.6,0.6-1.2,0.6C42,242.5,41.7,242,41.7,241.4z"/>
	<path class="st0" d="M45.8,238.8h0.6v0.5c0.3-0.4,0.7-0.6,1.2-0.6c0.8,0,1.1,0.5,1.1,1.1v2.6H48V240c0-0.4-0.2-0.7-0.6-0.7
		c-0.4,0-0.8,0.3-1,0.6v2.5h-0.6V238.8z"/>
	<path class="st0" d="M50,241.5v-2.2h-0.6v-0.5H50v-1h0.6v1h0.9v0.5h-0.9v2.1c0,0.4,0.1,0.5,0.4,0.5c0.2,0,0.4-0.1,0.5-0.2l0.2,0.5
		c-0.1,0.1-0.4,0.2-0.8,0.2C50.3,242.5,50,242.1,50,241.5z"/>
	<path class="st0" d="M52.5,238.8h0.6v0.5c0.2-0.2,0.5-0.6,1-0.6c0.2,0,0.4,0.1,0.4,0.1l-0.2,0.6c0,0-0.1-0.1-0.3-0.1
		c-0.5,0-0.8,0.6-0.9,0.7v2.4h-0.6V238.8z"/>
	<path class="st0" d="M54.7,244.1l0.1-0.5c0.1,0,0.1,0,0.3,0c0.5,0,0.7-0.3,0.9-0.8l0.2-0.5l-1.4-3.6h0.7l1,2.8h0l0.9-2.8h0.7
		l-1.5,4.1c-0.3,0.7-0.6,1.3-1.5,1.3C54.9,244.2,54.8,244.1,54.7,244.1z"/>
	<path class="st0" d="M60,237.4h0.7l0.8,3.2c0.1,0.4,0.2,0.8,0.2,0.9h0c0,0,0.1-0.5,0.2-0.9l0.9-3.2h0.7l0.9,3.2
		c0.1,0.4,0.2,0.9,0.2,0.9h0c0,0,0.1-0.5,0.2-0.9l0.8-3.2h0.7l-1.4,5h-0.6l-0.9-3.3c-0.1-0.4-0.2-0.9-0.2-1h0c0,0-0.1,0.5-0.2,1
		l-1,3.3h-0.6L60,237.4z"/>
	<path class="st0" d="M66.5,240.6c0-0.9,0.5-1.9,1.7-1.9c1.2,0,1.7,1,1.7,1.9c0,0.9-0.5,1.9-1.7,1.9C67,242.5,66.5,241.5,66.5,240.6
		z M69.2,240.6c0-0.8-0.4-1.4-1.1-1.4c-0.7,0-1,0.6-1,1.4c0,0.8,0.3,1.4,1,1.4C68.9,242,69.2,241.4,69.2,240.6z"/>
	<path class="st0" d="M70.8,238.8h0.6v0.5c0.2-0.2,0.5-0.6,1-0.6c0.2,0,0.4,0.1,0.4,0.1l-0.2,0.6c0,0-0.1-0.1-0.3-0.1
		c-0.5,0-0.8,0.6-0.9,0.7v2.4h-0.6V238.8z"/>
	<path class="st0" d="M73.5,237h0.6v5.4h-0.6V237z"/>
	<path class="st0" d="M75,240.6c0-1.1,0.7-1.9,1.6-1.9c0.4,0,0.7,0.1,0.9,0.3v-2h0.6v4.6c0,0.3,0.1,0.6,0.1,0.8h-0.6
		c0-0.1-0.1-0.3-0.1-0.4c-0.2,0.3-0.6,0.5-1,0.5C75.6,242.5,75,241.8,75,240.6z M77.5,241.5v-1.9c-0.2-0.2-0.5-0.3-0.8-0.3
		c-0.7,0-1,0.6-1,1.4s0.3,1.3,1,1.3C77,241.9,77.3,241.8,77.5,241.5z"/>
	<path class="st0" d="M81.1,237.4h0.7v5h-0.7V237.4z"/>
	<path class="st0" d="M83.1,238.8h0.6v0.5c0.3-0.4,0.7-0.6,1.2-0.6c0.8,0,1.1,0.5,1.1,1.1v2.6h-0.6V240c0-0.4-0.2-0.7-0.6-0.7
		c-0.4,0-0.8,0.3-1,0.6v2.5h-0.6V238.8z"/>
	<path class="st0" d="M86.8,240.6c0-1.1,0.7-1.9,1.6-1.9c0.4,0,0.7,0.1,0.9,0.3v-2h0.6v4.6c0,0.3,0.1,0.6,0.1,0.8h-0.6
		c0-0.1-0.1-0.3-0.1-0.4c-0.2,0.3-0.6,0.5-1,0.5C87.4,242.5,86.8,241.8,86.8,240.6z M89.3,241.5v-1.9c-0.2-0.2-0.5-0.3-0.8-0.3
		c-0.7,0-1,0.6-1,1.4s0.3,1.3,1,1.3C88.8,241.9,89.1,241.8,89.3,241.5z"/>
	<path class="st0" d="M90.8,240.6c0-1.1,0.7-1.9,1.7-1.9c0.9,0,1.4,0.6,1.4,1.7c0,0.1,0,0.2,0,0.3h-2.4c0,0.7,0.3,1.3,1.1,1.3
		c0.5,0,0.8-0.2,1-0.3l0.2,0.5c-0.2,0.1-0.6,0.4-1.3,0.4C91.4,242.5,90.8,241.7,90.8,240.6z M93.2,240.2c0-0.5-0.2-0.9-0.8-0.9
		c-0.5,0-0.8,0.4-0.9,0.9H93.2z"/>
	<path class="st0" d="M95.6,240.5l-1.2-1.7h0.7c0,0,0.8,1.2,0.8,1.2l0.8-1.2h0.7l-1.1,1.7l1.3,1.9h-0.7l-1-1.4l-0.9,1.4h-0.7
		L95.6,240.5z"/>
	<path class="st0" d="M99.7,240.3c0-1.3,0.6-2.5,1.4-3.3h0.6c-0.6,0.6-1.3,1.8-1.3,3.3c0,1.4,0.5,2.5,1.3,3.4h-0.6
		C100.3,242.8,99.7,241.6,99.7,240.3z"/>
	<path class="st0" d="M102.3,238.8h0.6v0.5c0.2-0.2,0.5-0.6,1-0.6c0.2,0,0.4,0.1,0.4,0.1l-0.2,0.6c0,0-0.1-0.1-0.3-0.1
		c-0.5,0-0.8,0.6-0.9,0.7v2.4h-0.6V238.8z"/>
	<path class="st0" d="M104.6,240.6c0-1.1,0.7-1.9,1.7-1.9c0.9,0,1.4,0.6,1.4,1.7c0,0.1,0,0.2,0,0.3h-2.4c0,0.7,0.3,1.3,1.1,1.3
		c0.5,0,0.8-0.2,1-0.3l0.2,0.5c-0.2,0.1-0.6,0.4-1.3,0.4C105.2,242.5,104.6,241.7,104.6,240.6z M107.1,240.2c0-0.5-0.2-0.9-0.8-0.9
		c-0.5,0-0.8,0.4-0.9,0.9H107.1z"/>
	<path class="st0" d="M108.6,242.2V237h0.6v2.1c0.2-0.2,0.5-0.4,0.9-0.4c1,0,1.6,0.7,1.6,1.9c0,1.1-0.8,1.9-1.8,1.9
		C109.3,242.5,108.8,242.4,108.6,242.2z M111,240.6c0-0.7-0.3-1.3-1-1.3c-0.3,0-0.6,0.2-0.8,0.3v2.3c0.1,0.1,0.3,0.1,0.6,0.1
		C110.6,242,111,241.3,111,240.6z"/>
	<path class="st0" d="M112.3,241.5c0-1,1-1.2,1.9-1.2h0.1V240c0-0.5-0.2-0.7-0.7-0.7c-0.3,0-0.6,0.1-0.9,0.4l-0.3-0.4
		c0.3-0.3,0.8-0.5,1.3-0.5c0.8,0,1.3,0.4,1.3,1.2v1.6c0,0.4,0,0.7,0.1,0.9h-0.6c0-0.1-0.1-0.3-0.1-0.4c-0.2,0.3-0.6,0.5-1.1,0.5
		C112.7,242.5,112.3,242.1,112.3,241.5z M114.4,241.5v-0.8h-0.1c-0.7,0-1.3,0.2-1.3,0.8c0,0.4,0.3,0.5,0.5,0.5
		C113.9,242,114.2,241.8,114.4,241.5z"/>
	<path class="st0" d="M115.9,242.2l0.3-0.5c0.1,0.1,0.5,0.3,0.9,0.3c0.4,0,0.7-0.2,0.7-0.5c0-0.3-0.3-0.4-0.8-0.7
		c-0.6-0.2-1-0.5-1-1.1c0-0.6,0.5-1,1.2-1c0.6,0,1,0.2,1.1,0.3l-0.3,0.5c-0.1-0.1-0.4-0.3-0.8-0.3c-0.4,0-0.6,0.2-0.6,0.5
		c0,0.3,0.3,0.5,0.7,0.6c0.6,0.2,1.1,0.5,1.1,1.1c0,0.7-0.5,1.1-1.3,1.1C116.5,242.5,116.1,242.3,115.9,242.2z"/>
	<path class="st0" d="M118.9,240.6c0-1.1,0.7-1.9,1.7-1.9c0.9,0,1.4,0.6,1.4,1.7c0,0.1,0,0.2,0,0.3h-2.4c0,0.7,0.3,1.3,1.1,1.3
		c0.5,0,0.8-0.2,1-0.3l0.2,0.5c-0.2,0.1-0.6,0.4-1.3,0.4C119.5,242.5,118.9,241.7,118.9,240.6z M121.4,240.2c0-0.5-0.2-0.9-0.8-0.9
		c-0.5,0-0.8,0.4-0.9,0.9H121.4z"/>
	<path class="st0" d="M122.6,240.6c0-1.1,0.7-1.9,1.6-1.9c0.4,0,0.7,0.1,0.9,0.3v-2h0.6v4.6c0,0.3,0.1,0.6,0.1,0.8h-0.6
		c0-0.1-0.1-0.3-0.1-0.4c-0.2,0.3-0.6,0.5-1,0.5C123.3,242.5,122.6,241.8,122.6,240.6z M125.2,241.5v-1.9c-0.2-0.2-0.5-0.3-0.8-0.3
		c-0.7,0-1,0.6-1,1.4s0.3,1.3,1,1.3C124.6,241.9,124.9,241.8,125.2,241.5z"/>
	<path class="st0" d="M128.8,241.5v-2.2h-0.6v-0.5h0.6v-1h0.6v1h0.9v0.5h-0.9v2.1c0,0.4,0.1,0.5,0.4,0.5c0.2,0,0.4-0.1,0.5-0.2
		l0.2,0.5c-0.1,0.1-0.4,0.2-0.8,0.2C129,242.5,128.8,242.1,128.8,241.5z"/>
	<path class="st0" d="M130.9,240.6c0-0.9,0.5-1.9,1.7-1.9c1.2,0,1.7,1,1.7,1.9c0,0.9-0.5,1.9-1.7,1.9
		C131.4,242.5,130.9,241.5,130.9,240.6z M133.7,240.6c0-0.8-0.4-1.4-1.1-1.4c-0.7,0-1,0.6-1,1.4c0,0.8,0.3,1.4,1,1.4
		C133.4,242,133.7,241.4,133.7,240.6z"/>
	<path class="st0" d="M137.5,238l-1,0.3l-0.1-0.5l1.2-0.4h0.5v5h-0.6V238z"/>
	<path class="st0" d="M139.2,239.9c0-1.3,0.5-2.6,1.9-2.6c1.4,0,1.9,1.3,1.9,2.6s-0.5,2.6-1.9,2.6
		C139.8,242.5,139.2,241.2,139.2,239.9z M142.4,239.9c0-1.2-0.4-2.1-1.2-2.1c-0.9,0-1.2,0.9-1.2,2.1c0,1.2,0.4,2.1,1.2,2.1
		C142,242,142.4,241.1,142.4,239.9z"/>
	<path class="st0" d="M143.8,239.9c0-1.3,0.5-2.6,1.9-2.6c1.4,0,1.9,1.3,1.9,2.6s-0.5,2.6-1.9,2.6
		C144.3,242.5,143.8,241.2,143.8,239.9z M146.9,239.9c0-1.2-0.4-2.1-1.2-2.1c-0.9,0-1.2,0.9-1.2,2.1c0,1.2,0.4,2.1,1.2,2.1
		C146.5,242,146.9,241.1,146.9,239.9z"/>
	<path class="st0" d="M149.9,241.5c0-1,1-1.2,1.9-1.2h0.1V240c0-0.5-0.2-0.7-0.7-0.7c-0.3,0-0.6,0.1-0.9,0.4l-0.3-0.4
		c0.3-0.3,0.8-0.5,1.3-0.5c0.8,0,1.3,0.4,1.3,1.2v1.6c0,0.4,0,0.7,0.1,0.9H152c0-0.1-0.1-0.3-0.1-0.4c-0.2,0.3-0.6,0.5-1.1,0.5
		C150.3,242.5,149.9,242.1,149.9,241.5z M151.9,241.5v-0.8h-0.1c-0.7,0-1.3,0.2-1.3,0.8c0,0.4,0.3,0.5,0.5,0.5
		C151.4,242,151.7,241.8,151.9,241.5z"/>
	<path class="st0" d="M153.4,242.2l0.3-0.5c0.1,0.1,0.5,0.3,0.9,0.3c0.4,0,0.7-0.2,0.7-0.5c0-0.3-0.3-0.4-0.8-0.7
		c-0.6-0.2-1-0.5-1-1.1c0-0.6,0.5-1,1.2-1c0.6,0,1,0.2,1.1,0.3l-0.3,0.5c-0.1-0.1-0.4-0.3-0.8-0.3c-0.4,0-0.6,0.2-0.6,0.5
		c0,0.3,0.3,0.5,0.7,0.6c0.6,0.2,1.1,0.5,1.1,1.1c0,0.7-0.5,1.1-1.3,1.1C154.1,242.5,153.6,242.3,153.4,242.2z"/>
	<path class="st0" d="M158.1,240.6c0-0.9,0.5-1.9,1.7-1.9c1.2,0,1.7,1,1.7,1.9c0,0.9-0.5,1.9-1.7,1.9
		C158.6,242.5,158.1,241.5,158.1,240.6z M160.9,240.6c0-0.8-0.4-1.4-1.1-1.4c-0.7,0-1,0.6-1,1.4c0,0.8,0.3,1.4,1,1.4
		C160.6,242,160.9,241.4,160.9,240.6z"/>
	<path class="st0" d="M162.5,239.3H162v-0.5h0.6v-0.5c0-0.8,0.5-1.4,1.3-1.4c0.4,0,0.6,0.1,0.7,0.1l-0.2,0.5c0,0-0.2-0.1-0.5-0.1
		c-0.5,0-0.7,0.3-0.7,0.9v0.5h0.9v0.5h-0.9v3.1h-0.6V239.3z"/>
	<path class="st0" d="M167.2,238l-1,0.3l-0.1-0.5l1.2-0.4h0.5v5h-0.6V238z"/>
	<path class="st0" d="M170,243.8l0.1-0.6c0.1,0,0.2,0.1,0.3,0.1c0.4,0,0.6-0.3,0.6-0.9v-5h0.7v5.1c0,0.9-0.4,1.4-1.2,1.4
		C170.2,243.9,170.1,243.8,170,243.8z"/>
	<path class="st0" d="M172.7,241.5c0-1,1-1.2,1.9-1.2h0.1V240c0-0.5-0.2-0.7-0.7-0.7c-0.3,0-0.6,0.1-0.9,0.4l-0.3-0.4
		c0.3-0.3,0.8-0.5,1.3-0.5c0.8,0,1.3,0.4,1.3,1.2v1.6c0,0.4,0,0.7,0.1,0.9h-0.6c0-0.1-0.1-0.3-0.1-0.4c-0.2,0.3-0.6,0.5-1.1,0.5
		C173.1,242.5,172.7,242.1,172.7,241.5z M174.7,241.5v-0.8h-0.1c-0.7,0-1.3,0.2-1.3,0.8c0,0.4,0.3,0.5,0.5,0.5
		C174.2,242,174.5,241.8,174.7,241.5z"/>
	<path class="st0" d="M176.5,238.8h0.6v0.5c0.3-0.4,0.7-0.6,1.2-0.6c0.8,0,1.1,0.5,1.1,1.1v2.6h-0.6V240c0-0.4-0.1-0.7-0.6-0.7
		c-0.4,0-0.8,0.3-1,0.6v2.5h-0.6V238.8z"/>
	<path class="st0" d="M180.5,241.4v-2.6h0.6v2.4c0,0.4,0.1,0.7,0.6,0.7c0.5,0,0.9-0.5,1-0.6v-2.5h0.6v2.8c0,0.3,0,0.7,0.1,0.8h-0.6
		c0-0.1-0.1-0.4-0.1-0.5c-0.2,0.2-0.6,0.6-1.2,0.6C180.8,242.5,180.5,242,180.5,241.4z"/>
	<path class="st0" d="M184.3,241.5c0-1,1-1.2,1.9-1.2h0.1V240c0-0.5-0.2-0.7-0.7-0.7c-0.3,0-0.6,0.1-0.9,0.4l-0.3-0.4
		c0.3-0.3,0.8-0.5,1.3-0.5c0.8,0,1.3,0.4,1.3,1.2v1.6c0,0.4,0,0.7,0.1,0.9h-0.6c0-0.1-0.1-0.3-0.1-0.4c-0.2,0.3-0.6,0.5-1.1,0.5
		C184.7,242.5,184.3,242.1,184.3,241.5z M186.3,241.5v-0.8h-0.1c-0.7,0-1.3,0.2-1.3,0.8c0,0.4,0.3,0.5,0.5,0.5
		C185.8,242,186.1,241.8,186.3,241.5z"/>
	<path class="st0" d="M188.1,238.8h0.6v0.5c0.2-0.2,0.5-0.6,1-0.6c0.2,0,0.4,0.1,0.4,0.1l-0.2,0.6c0,0-0.1-0.1-0.3-0.1
		c-0.5,0-0.8,0.6-0.9,0.7v2.4h-0.6V238.8z"/>
	<path class="st0" d="M190.4,244.1l0.1-0.5c0.1,0,0.1,0,0.3,0c0.5,0,0.7-0.3,0.9-0.8l0.2-0.5l-1.4-3.6h0.7l1,2.8h0l0.9-2.8h0.7
		l-1.5,4.1c-0.3,0.7-0.6,1.3-1.5,1.3C190.5,244.2,190.4,244.1,190.4,244.1z"/>
	<path class="st0" d="M195.8,242c0.9-0.9,2.3-2.2,2.3-3.3c0-0.6-0.4-0.9-0.8-0.9c-0.5,0-0.8,0.2-1.1,0.5l-0.3-0.4
		c0.3-0.3,0.8-0.6,1.5-0.6c0.9,0,1.5,0.5,1.5,1.3c0,1.1-1.2,2.3-2.1,3.2c0,0,0.3,0,0.6,0h1.6v0.6h-3.1V242z"/>
	<path class="st0" d="M199.6,239.9c0-1.3,0.5-2.6,1.9-2.6c1.4,0,1.9,1.3,1.9,2.6s-0.5,2.6-1.9,2.6
		C200.1,242.5,199.6,241.2,199.6,239.9z M202.7,239.9c0-1.2-0.4-2.1-1.2-2.1c-0.9,0-1.2,0.9-1.2,2.1c0,1.2,0.4,2.1,1.2,2.1
		C202.4,242,202.7,241.1,202.7,239.9z"/>
	<path class="st0" d="M204,242c0.9-0.9,2.3-2.2,2.3-3.3c0-0.6-0.4-0.9-0.8-0.9c-0.5,0-0.8,0.2-1.1,0.5l-0.3-0.4
		c0.3-0.3,0.8-0.6,1.5-0.6c0.9,0,1.5,0.5,1.5,1.3c0,1.1-1.2,2.3-2.1,3.2c0,0,0.3,0,0.6,0h1.6v0.6H204V242z"/>
	<path class="st0" d="M207.9,239.9c0-1.3,0.5-2.6,1.9-2.6c1.4,0,1.9,1.3,1.9,2.6s-0.5,2.6-1.9,2.6
		C208.4,242.5,207.9,241.2,207.9,239.9z M211,239.9c0-1.2-0.4-2.1-1.2-2.1c-0.9,0-1.2,0.9-1.2,2.1c0,1.2,0.4,2.1,1.2,2.1
		C210.6,242,211,241.1,211,239.9z"/>
	<path class="st0" d="M213.4,240.4c0-1.4-0.5-2.5-1.3-3.4h0.6c0.8,0.9,1.4,2.1,1.4,3.4c0,1.3-0.6,2.5-1.4,3.3h-0.6
		C212.7,243.1,213.4,241.9,213.4,240.4z"/>
</g>
</svg>
