<?xml version="1.0" standalone="no"?>
<!DOCTYPE svg PUBLIC "-//W3C//DTD SVG 1.1//EN" "http://www.w3.org/Graphics/SVG/1.1/DTD/svg11.dtd" >
<svg>
<metadata>
Created by FontForge 20110222 at Wed May 14 00:41:17 2014
 By Orthosie Webhosting
Copyright (c) 1990, 1995 Adobe Systems Incorporated.  All Rights Reserved.Snell Roundhand is a trademark of Linotype-Hell AG and/or its subsidiaries.
</metadata>
<defs>
<font id="SnellRoundhand-Script" horiz-adv-x="444" >
  <font-face 
    font-family="Snell Roundhand"
    font-weight="500"
    font-style="italic"
    font-stretch="normal"
    units-per-em="1000"
    panose-1="2 0 6 3 8 0 0 9 0 2"
    ascent="800"
    descent="-200"
    x-height="344"
    cap-height="696"
    bbox="-571 -324 1277 894"
    underline-thickness="50"
    underline-position="-75"
    slope="-40"
    unicode-range="U+0001-2122"
  />
<missing-glyph horiz-adv-x="250" 
 />
    <glyph glyph-name=".notdef" horiz-adv-x="250" 
 />
    <glyph glyph-name=".null" horiz-adv-x="0" 
 />
    <glyph glyph-name="nonmarkingreturn" horiz-adv-x="500" 
 />
    <glyph glyph-name="space" unicode=" " horiz-adv-x="250" 
 />
    <glyph glyph-name="Eth" horiz-adv-x="889" 
d="M581 345q-33 -57 -65 -112t-66.5 -100t-72.5 -77t-83 -44q-26 4 -44 7.5t-32.5 6.5t-26 4.5t-23.5 1.5q-17 0 -27.5 -4.5t-10.5 -16.5t13 -16.5t37 -4.5q20 0 35.5 1t28 3t25 4.5t26.5 4.5q17 -4 33.5 -7.5t36 -6t43.5 -4t55 -1.5q82 0 162 32.5t143.5 89t102.5 134
t39 167.5q0 30 -4.5 62t-14.5 62.5t-26 58.5t-39 50q37 35 82.5 58t95.5 32l-2 8q-53 -8 -100 -31.5t-89 -55.5q-42 32 -96 49.5t-131 17.5q-108 0 -197.5 -36.5t-154 -93t-100 -123.5t-35.5 -129q0 -37 9 -69t26 -56t43.5 -37.5t60.5 -13.5q50 0 91 21.5t70 60t45 91
t16 114.5v29h-12v-34q0 -53 -14 -101.5t-40 -85t-61.5 -58t-79.5 -21.5q-33 0 -55 13.5t-35 35.5t-18.5 50.5t-5.5 58.5q0 80 36.5 148t98.5 118t143.5 78t171.5 28q62 0 116.5 -14.5t96.5 -49.5q-66 -54 -116.5 -129.5t-97.5 -155.5h-92q-6 0 -6 -6t6 -6h85zM762 345
q6 0 6 6t-6 6h-116q41 73 81 143.5t88 125.5q25 -27 36 -67.5t11 -80.5q0 -53 -11.5 -109.5t-34.5 -110t-57 -101.5t-80.5 -83.5t-104.5 -56.5t-128 -21q-40 0 -71.5 2t-62.5 8v2q58 19 105 53.5t86 79t72 97t64 107.5h123z" />
    <glyph glyph-name="eth" 
d="M288 510q-6 0 -6 -6t6 -6h92q-2 -26 -5.5 -69t-19.5 -100q-11 11 -27 17t-36 6q-35 0 -69.5 -13.5t-65.5 -36t-57.5 -51t-46 -58t-30.5 -58.5t-11 -51q0 -42 22 -67t65 -25q47 0 91.5 23.5t81.5 59.5t64 79t39 82h2q11 -17 31 -29.5t48 -12.5q29 0 59 16t54 43l-8 5
q-23 -24 -49.5 -39t-56.5 -15t-51 18t-21 37q22 51 35 115.5t21 123.5h98q6 0 6 6t-6 6h-97q0 38 6.5 72t20 60.5t35 42t51.5 15.5q32 0 54 -15t39 -29v15q-14 13 -37 27t-55 14q-31 0 -60.5 -11.5t-53 -35.5t-39.5 -62.5t-21 -92.5h-92zM66 60q0 27 10 58t27.5 62t39.5 60
t46.5 51t48.5 35.5t45 13.5q22 0 32.5 -14.5t10.5 -35.5q0 -25 -9 -55.5t-24.5 -62.5t-36.5 -62t-45.5 -53.5t-51 -38t-53.5 -14.5q-20 0 -30 15t-10 41z" />
    <glyph glyph-name="Lslash" horiz-adv-x="556" 
d="M676 265q-44 -40 -91.5 -82.5t-95.5 -85.5t-94 -87t-86 -89q-7 48 -40.5 81t-101.5 33q-13 0 -22.5 -1t-17.5 -2l-2 2q46 18 85 45t73 60t63 70.5t55 77.5l189 56v12l-178 -54l-2 2q25 35 47 71t45 71q13 -1 25 -1.5t29 -0.5q71 0 133 18.5t107.5 48t71.5 64.5t26 68
q0 36 -22.5 53t-60.5 17q-54 0 -106 -22.5t-99 -58.5t-86.5 -80t-67.5 -87q-30 2 -57.5 14t-48.5 31.5t-33.5 44.5t-12.5 53q0 17 7 33.5t19 30t29.5 21.5t38.5 8q19 0 35 -4t28 -10l4 11q-12 6 -29.5 10.5t-36.5 4.5q-22 0 -42 -8.5t-34 -22.5t-22.5 -33.5t-8.5 -40.5
q0 -32 12.5 -58.5t34 -46.5t49.5 -32.5t59 -17.5q-28 -44 -53.5 -87.5t-50.5 -84.5l-177 -53v-12l168 51q-25 -42 -50.5 -79t-52.5 -67t-56 -51.5t-61 -32.5q-9 -1 -27 -1.5t-40 -2t-44.5 -3.5t-41.5 -6t-31 -9.5t-12 -13.5t8.5 -12t20.5 -4q23 0 48.5 6.5t48.5 14.5
t41.5 13.5t28.5 5.5q30 0 56.5 -8.5t46 -25.5t30.5 -41.5t11 -56.5q0 -9 -3.5 -15.5t-8 -11.5t-8.5 -10t-4 -12q0 -11 13 -11q17 0 35 21t29 50q30 35 79 83t103.5 98t106 96.5t85.5 78.5zM800 700q29 0 44.5 -15t15.5 -44q0 -46 -30.5 -80.5t-76 -58t-98 -35.5t-97.5 -12
q-16 0 -28 0.5t-23 1.5q21 36 52.5 78.5t69.5 79t82 61t89 24.5z" />
    <glyph glyph-name="lslash" horiz-adv-x="222" 
d="M408 471l-146 -69l-2 2q6 9 23 34t42.5 63t58.5 87.5t71 107.5h-70q-70 -112 -124 -195t-93 -141l-141 -66l-6 -17l131 62l2 -2l-77 -115.5t-49.5 -79.5t-26.5 -55.5t-8 -43.5q0 -23 14 -37t46 -14q29 0 64.5 21t84.5 67q37 35 77 82.5t76 98.5l-11 4q-38 -54 -78 -101.5
t-78.5 -83t-72 -56t-58.5 -20.5q-24 0 -24 25q0 13 8 31.5t31 56t64.5 100.5t109.5 165l155 72z" />
    <glyph glyph-name="Scaron" horiz-adv-x="556" 
d="M32 257q-26 0 -42 -23t-16 -58q0 -42 14.5 -77t41.5 -60.5t64.5 -40t82.5 -14.5q56 0 109 16t96 56t72.5 107.5t36.5 170.5q3 42 6.5 85t10.5 83.5t18.5 76.5t30.5 63t46.5 42.5t66.5 15.5q29 0 50 -17.5t21 -53.5q0 -24 -5.5 -40t-16.5 -33q31 0 53.5 16t22.5 48
q0 41 -33 66.5t-86 25.5q-59 0 -104.5 -27t-76 -76.5t-47 -120.5t-17.5 -160q-1 -55 -14 -114t-42 -107.5t-76 -79.5t-115 -31q-40 0 -73 11t-56.5 29t-36 42t-12.5 50q0 19 3.5 36t14.5 29q3 -5 9.5 -7.5t11.5 -2.5q15 0 24 10.5t9 25.5q0 17 -11.5 27.5t-34.5 10.5z
M792 892q-35 -23 -66.5 -50.5t-61.5 -56.5q-15 29 -32.5 54.5t-43.5 54.5l-8 -5q26 -42 41 -80.5t15 -82.5h16q32 43 68.5 82.5t75.5 76.5z" />
    <glyph glyph-name="scaron" horiz-adv-x="333" 
d="M453 261q-27 -42 -63 -85.5t-78.5 -80t-91.5 -62t-103 -31.5l-2 2q18 3 35.5 13t31.5 24.5t22.5 32t8.5 36.5q0 26 -7.5 47t-16.5 41q-10 20 -17.5 40t-7.5 42q0 25 14 42.5t43 17.5q23 0 35.5 -13.5t12.5 -33.5q0 -13 -4.5 -28.5t-10.5 -26.5q24 0 43.5 12t19.5 38
q0 29 -25 46.5t-65 17.5q-22 0 -42 -6.5t-35.5 -18.5t-24.5 -29.5t-9 -39.5q0 -17 7 -36.5t15 -39.5t14.5 -40.5t6.5 -39.5q0 -18 -5 -36t-15.5 -31.5t-26 -22t-36.5 -8.5q-33 0 -59.5 17.5t-26.5 52.5q0 12 4 23.5t15 17.5q2 -9 8.5 -15t17.5 -6q14 0 21 10t7 24
q0 15 -9.5 22.5t-24.5 7.5q-29 0 -46 -21t-17 -47q0 -25 9.5 -43.5t25 -30.5t36.5 -18t45 -6q63 0 118.5 23.5t102.5 61.5t86.5 85.5t69.5 95.5zM391 572q-35 -23 -66.5 -50.5t-61.5 -56.5q-15 29 -32.5 54.5t-43.5 54.5l-8 -5q26 -42 41 -80.5t15 -82.5h16q32 43 68.5 82.5
t75.5 76.5z" />
    <glyph glyph-name="Yacute" horiz-adv-x="778" 
d="M944 696l-261 -400q-39 -59 -87.5 -112t-98 -93t-95.5 -63.5t-78 -23.5q-13 0 -25 9t-12 35q0 29 24.5 75t61 100t79.5 112.5t79.5 113t61 101.5t24.5 78q0 45 -24.5 64.5t-72.5 19.5q-52 0 -108.5 -25.5t-103.5 -65t-78 -87.5t-31 -94q0 -33 18 -59.5t60 -26.5
q48 0 83.5 26t58.5 61l-8 1q-12 -15 -25 -29t-28.5 -24.5t-34.5 -16.5t-42 -6q-31 0 -45.5 20.5t-14.5 51.5q0 50 30 97t74.5 84t95.5 59t93 22q24 0 36.5 -12.5t12.5 -32.5q0 -33 -24.5 -81t-61 -103t-79.5 -113t-79.5 -111.5t-61 -99.5t-24.5 -77q0 -38 20 -58t64 -20
q38 0 80.5 20.5t84.5 52t80.5 70t67.5 73.5l2 -2q-26 -35 -57.5 -85t-67.5 -104t-76.5 -107t-83.5 -95.5t-89 -68.5t-93 -26q-57 0 -92.5 30.5t-35.5 83.5q0 54 23.5 80t52.5 26q18 0 36 -6t35 -13l4 8q-17 11 -41 19t-47 8q-22 0 -43.5 -8t-37.5 -22.5t-26 -36t-10 -48.5
q0 -34 14 -59t37.5 -41.5t54 -24.5t63.5 -8q66 0 125 27.5t112 73.5t101 105t93 122l429 660h-68zM844 892q-17 0 -26.5 -18t-11.5 -44q-1 -18 -13.5 -34.5t-26.5 -30t-25.5 -22.5t-11.5 -13t5 -4t26 14t44.5 35t42.5 45t19 45q0 8 -5.5 17.5t-16.5 9.5z" />
    <glyph glyph-name="yacute" 
d="M165 344q-50 -73 -85.5 -122t-58.5 -83t-33.5 -56.5t-10.5 -42.5q0 -22 14 -35t46 -13q33 0 64 16t58.5 39t50.5 48.5t39 44.5l2 -2q-24 -37 -52.5 -83.5t-61.5 -95t-70 -94t-77.5 -81.5t-84.5 -58t-91 -22q-22 0 -42.5 7t-36.5 20t-26 32.5t-10 44.5q0 37 17 61.5
t53 32.5v3q-49 0 -83.5 -24t-34.5 -76q0 -24 13 -45t35 -36t51.5 -23.5t62.5 -8.5q73 0 131 27.5t106.5 71t89 98t79.5 107.5q94 15 185.5 81.5t163.5 176.5l-7 3q-67 -99 -153.5 -165.5t-181.5 -83.5q56 84 107 169.5t110 166.5h-62q-41 -66 -85.5 -126.5t-87.5 -107
t-81.5 -74.5t-67.5 -28q-28 0 -28 29q0 18 18 48.5t46.5 70.5t64.5 88t72 100h-67zM402 572q-17 0 -26.5 -18t-11.5 -44q-1 -18 -13.5 -34.5t-26.5 -30t-25.5 -22.5t-11.5 -13t5 -4t26 14t44.5 35t42.5 45t19 45q0 8 -5.5 17.5t-16.5 9.5z" />
    <glyph glyph-name="Thorn" horiz-adv-x="778" 
d="M516 528q23 48 55 81t71 53t84.5 29t95.5 9h49v-2q-60 -13 -112 -50t-97.5 -88.5t-86 -113.5t-78.5 -124.5t-74 -121t-72 -104t-74 -73t-80 -27.5q-23 0 -41 10.5t-21 23.5q14 -1 21 10t7 23q0 13 -8.5 22t-22.5 9q-19 0 -30 -11t-11 -29t9 -31.5t23.5 -22t33.5 -12.5
t39 -4q50 0 91 17t76.5 46.5t65.5 69t58.5 84t56 91.5t56.5 92q13 20 31 40t38.5 36t42.5 26t42 10q17 0 26.5 -5t15 -13.5t7 -18.5t1.5 -19q0 -22 -11 -57t-37 -67.5t-68.5 -56t-106.5 -23.5q-14 0 -24.5 1t-21.5 3l-4 -10q9 -2 23.5 -4t32.5 -2q77 0 128.5 25.5t83.5 62.5
t45.5 77t13.5 69q0 36 -19 54t-53 18q-21 0 -42 -7.5t-40 -18t-34.5 -22.5t-24.5 -22l-2 2q20 34 51.5 73.5t69 75t80 60.5t85.5 29v8q-22 2 -47 3t-51 1q-56 0 -114 -9t-110 -30t-94 -56.5t-66 -88.5h69z" />
    <glyph glyph-name="thorn" 
d="M356 642q-92 -147 -175 -276t-158.5 -246.5t-146 -226.5t-137.5 -217h62q25 45 55.5 96t63.5 104.5t66.5 108t65.5 105.5l2 -2q-2 -8 -2.5 -16.5t-0.5 -19.5q0 -25 15 -42.5t44 -17.5q42 0 85 24t79.5 60.5t63 79.5t36.5 81h2q11 -19 31 -31t48 -12q29 0 58 14.5t54 43.5
l-6 7q-21 -25 -49 -40t-58 -15t-51.5 18t-23.5 44q-2 38 -23.5 62t-56.5 24q-26 0 -47 -8.5t-44 -27.5l-2 2l226 324h-76zM326 288q0 -24 -9 -54.5t-24.5 -62t-36 -61.5t-44.5 -53.5t-49.5 -38t-50.5 -14.5q-19 0 -33 13t-14 39q0 24 10.5 54t28 61.5t40.5 62t48 54t51 38
t49 14.5q14 0 21 -5.5t10 -13.5t3 -17v-16z" />
    <glyph glyph-name="Zcaron" horiz-adv-x="667" 
d="M783 265q-25 -41 -55.5 -82t-65 -73.5t-73.5 -53t-82 -20.5q-30 0 -61.5 11.5t-62.5 25t-61 24.5t-57 11q-42 0 -75.5 -14t-64.5 -30l-2 2q43 31 105 81t131 109.5t139.5 121.5t132 116.5t108.5 96t68 57.5q11 8 23 16t22 14.5t17 12.5t7 11q0 10 -12 10q-15 0 -26 -13.5
t-27.5 -29.5t-43.5 -29.5t-75 -13.5q-39 0 -73.5 11t-67.5 24t-66.5 24t-69.5 11q-38 0 -73.5 -11t-62.5 -32.5t-43.5 -53t-16.5 -72.5q0 -54 31.5 -83t75.5 -29q19 0 36 5.5t29 11.5l-2 11q-14 -7 -29.5 -11.5t-34.5 -4.5q-38 0 -66 26.5t-28 75.5q0 29 10.5 54.5
t28.5 44.5t42.5 29.5t53.5 10.5q28 0 57 -12.5t60.5 -27.5t66.5 -27.5t75 -12.5q37 0 75.5 14.5t66.5 31.5l2 -2q-58 -49 -126 -107.5t-138 -119t-138.5 -119.5t-127 -109.5t-104 -89t-69.5 -58.5q-9 -8 -17.5 -16.5t-8.5 -18.5q0 -3 1 -6.5t7 -3.5t18.5 15t32 33t47 33
t64.5 15q29 0 56.5 -13.5t56 -30t59 -30.5t64.5 -14q50 0 99 22t93.5 59.5t83 86.5t68.5 102zM778 892q-35 -23 -66.5 -50.5t-61.5 -56.5q-15 29 -32.5 54.5t-43.5 54.5l-8 -5q26 -42 41 -80.5t15 -82.5h16q32 43 68.5 82.5t75.5 76.5z" />
    <glyph glyph-name="zcaron" horiz-adv-x="389" 
d="M514 267q-26 -44 -58.5 -87.5t-66 -78t-67 -56t-60.5 -21.5q-11 0 -24.5 6.5t-29.5 14.5t-34.5 14.5t-39.5 6.5q-17 0 -35.5 -5t-38.5 -13l-2 2q22 14 59.5 41t81 60t87.5 68.5t80 65t59 50.5t23 25q0 8 -6 8t-11.5 -7.5t-14 -16.5t-22.5 -16.5t-39 -7.5q-11 0 -24 5
t-28 11t-33 11t-41 5q-22 0 -38.5 -7.5t-29.5 -20.5t-23.5 -31t-22.5 -39l7 -3q7 10 14.5 22t16 22.5t18.5 17.5t22 7q14 0 29 -5t29.5 -11t28 -11t24.5 -5q21 0 42 7t33 17l2 -2q-69 -57 -138.5 -110.5t-125.5 -95.5t-91.5 -69.5t-35.5 -33.5q0 -7 6 -7q7 0 14 7.5t16 15.5
t20.5 15.5t25.5 7.5q23 0 41 -7.5t35 -16.5t35 -16.5t41 -7.5q38 0 81 27.5t83.5 68t75 88t55.5 87.5zM442 572q-35 -23 -66.5 -50.5t-61.5 -56.5q-15 29 -32.5 54.5t-43.5 54.5l-8 -5q26 -42 41 -80.5t15 -82.5h16q32 43 68.5 82.5t75.5 76.5z" />
    <glyph glyph-name="onehalf" horiz-adv-x="750" 
d="M707 104q-6 -11 -15 -24t-21 -24.5t-26 -19.5t-29 -8q-10 0 -25 5t-31 12q-14 6 -28 11t-25 5q-13 0 -23 -4t-18 -9l-2 2q25 15 56.5 27.5t65 25t65.5 26.5t56.5 31t40 39t15.5 51q0 19 -8.5 33.5t-22.5 24.5t-32 15t-37 5q-21 0 -44 -5.5t-42.5 -17.5t-32.5 -30.5
t-13 -43.5q0 -23 14 -36.5t34 -13.5q30 0 48 29l-4 6q-6 -3 -11 -5t-13 -2q-14 0 -24 11t-10 29q0 12 6 23.5t17 21.5t26 16t33 6q29 0 44.5 -18.5t15.5 -47.5q0 -20 -5.5 -38t-20.5 -35t-42.5 -34.5t-71.5 -35.5q-93 -38 -138 -64.5t-45 -36.5q0 -6 8 -6q4 0 9.5 6t13.5 13
t20 12t30 5q17 0 32 -5t29 -12t28 -13t30 -6q24 0 44 9.5t36.5 24.5t29 33.5t22.5 35.5zM203 -8h28l414 546h-29zM185 210l67 10q18 31 45 72t57 84t59.5 84t50.5 71l-11 2q-46 -33 -99 -61.5t-112 -41.5l2 -8q34 8 70.5 22.5t58.5 28.5l2 -2z" />
    <glyph glyph-name="onequarter" horiz-adv-x="750" 
d="M784 310l-47 -4l-130 -178h-142v2l311 236h-30l-330 -256h183l-78 -110l53 6l74 104h73l5 18h-70zM214 -8h28l414 546h-29zM185 210l67 10q18 31 45 72t57 84t59.5 84t50.5 71l-11 2q-46 -33 -99 -61.5t-112 -41.5l2 -8q34 8 70.5 22.5t58.5 28.5l2 -2z" />
    <glyph glyph-name="onesuperior" horiz-adv-x="300" 
d="M185 210l67 10q18 31 45 72t57 84t59.5 84t50.5 71l-11 2q-46 -33 -99 -61.5t-112 -41.5l2 -8q34 8 70.5 22.5t58.5 28.5l2 -2z" />
    <glyph glyph-name="threequarters" horiz-adv-x="750" 
d="M273 -8h28l414 546h-29zM266 374q9 1 18.5 1.5t18.5 0.5q29 0 43 -15t14 -42q0 -24 -10 -42t-27.5 -30.5t-40 -18.5t-46.5 -6q-35 0 -53.5 17.5t-18.5 44.5q0 19 13 32.5t39 13.5l1 4q-7 5 -16.5 9t-18.5 4q-28 0 -44 -18t-16 -43q0 -19 9.5 -33t25.5 -23.5t36.5 -14.5
t41.5 -5q32 0 63 7.5t55.5 22t39.5 34.5t15 44q0 32 -22 47.5t-54 15.5v2q23 2 50 8.5t49.5 17t37.5 26.5t15 37q0 27 -22.5 46.5t-62.5 19.5q-22 0 -42.5 -7t-36 -18t-24.5 -26t-9 -31q0 -15 11.5 -26t28.5 -11q14 0 27.5 7t14.5 18q-7 -2 -11 -3.5t-12 -1.5q-12 0 -18.5 9
t-6.5 22q0 22 19 39t45 17q27 0 37 -15t10 -39q0 -31 -17 -47.5t-42.5 -25t-54 -10.5t-52.5 -5v-10zM824 310l-47 -4l-130 -178h-142v2l311 236h-30l-330 -256h183l-78 -110l53 6l74 104h73l5 18h-70z" />
    <glyph glyph-name="threesuperior" horiz-adv-x="300" 
d="M266 374q9 1 18.5 1.5t18.5 0.5q29 0 43 -15t14 -42q0 -24 -10 -42t-27.5 -30.5t-40 -18.5t-46.5 -6q-35 0 -53.5 17.5t-18.5 44.5q0 19 13 32.5t39 13.5l1 4q-7 5 -16.5 9t-18.5 4q-28 0 -44 -18t-16 -43q0 -19 9.5 -33t25.5 -23.5t36.5 -14.5t41.5 -5q32 0 63 7.5
t55.5 22t39.5 34.5t15 44q0 32 -22 47.5t-54 15.5v2q23 2 50 8.5t49.5 17t37.5 26.5t15 37q0 27 -22.5 46.5t-62.5 19.5q-22 0 -42.5 -7t-36 -18t-24.5 -26t-9 -31q0 -15 11.5 -26t28.5 -11q14 0 27.5 7t14.5 18q-7 -2 -11 -3.5t-12 -1.5q-12 0 -18.5 9t-6.5 22q0 22 19 39
t45 17q27 0 37 -15t10 -39q0 -31 -17 -47.5t-42.5 -25t-54 -10.5t-52.5 -5v-10z" />
    <glyph glyph-name="twosuperior" horiz-adv-x="300" 
d="M407 314q-6 -11 -15 -24t-21 -24.5t-26 -19.5t-29 -8q-10 0 -25 5t-31 12q-14 6 -28 11t-25 5q-13 0 -23 -4t-18 -9l-2 2q25 15 56.5 27.5t65 25t65.5 26.5t56.5 31t40 39t15.5 51q0 19 -8.5 33.5t-22.5 24.5t-32 15t-37 5q-21 0 -44 -5.5t-42.5 -17.5t-32.5 -30.5
t-13 -43.5q0 -23 14 -36.5t34 -13.5q30 0 48 29l-4 6q-6 -3 -11 -5t-13 -2q-14 0 -24 11t-10 29q0 12 6 23.5t17 21.5t26 16t33 6q29 0 44.5 -18.5t15.5 -47.5q0 -20 -5.5 -38t-20.5 -35t-42.5 -34.5t-71.5 -35.5q-93 -38 -138 -64.5t-45 -36.5q0 -6 8 -6q4 0 9.5 6t13.5 13
t20 12t30 5q17 0 32 -5t29 -12t28 -13t30 -6q24 0 44 9.5t36.5 24.5t29 33.5t22.5 35.5z" />
    <glyph glyph-name="brokenbar" horiz-adv-x="222" 
d="M196 675v-350h34v350h-34zM196 175v-350h34v350h-34z" />
    <glyph glyph-name="minus" horiz-adv-x="600" 
d="M556 155v34h-344v-34h344z" />
    <glyph glyph-name="multiply" horiz-adv-x="600" 
d="M360 172l-148 -148l24 -24l148 148l148 -148l24 24l-148 148l148 148l-24 24l-148 -148l-148 148l-24 -24z" />
    <glyph glyph-name="exclam" unicode="!" horiz-adv-x="333" 
d="M166 139q49 77 103.5 148.5t114.5 139.5q13 14 27.5 31.5t14.5 37.5q0 14 -9.5 24t-23.5 10q-20 0 -33 -16t-30 -60q-32 -83 -77.5 -159t-92.5 -152zM107 74q-15 0 -26 -11t-11 -26t11 -26t26 -11t26 11t11 26t-11 26t-26 11z" />
    <glyph glyph-name="quotedbl" unicode="&#x22;" horiz-adv-x="333" 
d="M276 640q1 8 1.5 20.5t-2 24t-9 19.5t-20.5 8q-13 0 -20 -8t-9.5 -19.5t-2 -24t1.5 -20.5l16 -179q0 -2 0.5 -6.5t1.5 -9t4 -8t8 -3.5t8 3.5t4 8t1.5 9t0.5 6.5zM411 640q1 8 1.5 20.5t-2 24t-9 19.5t-20.5 8q-13 0 -20 -8t-9.5 -19.5t-2 -24t1.5 -20.5l16 -179
q0 -2 0.5 -6.5t1.5 -9t4 -8t8 -3.5t8 3.5t4 8t1.5 9t0.5 6.5z" />
    <glyph glyph-name="numbersign" unicode="#" horiz-adv-x="500" 
d="M503 206h-79l49 122h83l10 32h-79l71 170h-38l-71 -170h-106l71 170h-38l-71 -170h-90l-10 -32h86l-49 -122h-90l-10 -32h86l-72 -174h38l72 174h106l-72 -174h38l71 174h84zM435 328l-49 -122h-106l49 122h106z" />
    <glyph glyph-name="dollar" unicode="$" horiz-adv-x="500" 
d="M394 314q-12 20 -21 39.5t-9 44.5q0 27 8.5 50.5t24 40.5t37 27t47.5 10q14 0 24.5 -1t21.5 -4zM370 259q19 -24 32.5 -55t13.5 -58q0 -30 -10 -54.5t-28.5 -42.5t-44 -27.5t-56.5 -9.5q-14 0 -29.5 2t-29.5 8zM578 600l-43 -67q-10 2 -20 3.5t-24 1.5q-39 0 -71 -12.5
t-55.5 -33.5t-36 -50t-12.5 -62q0 -25 14 -57t34 -57l-155 -240q-25 12 -40 37t-15 57q0 30 14 57.5t46 47.5q-16 3 -26 3q-40 0 -64 -27.5t-24 -72.5q0 -40 27.5 -71t71.5 -46l-29 -46l8 -5l31 48q14 -5 30 -6.5t37 -1.5q33 0 66.5 12t60.5 34t44 53.5t17 70.5q0 18 -4 34
t-12.5 32t-20.5 32.5t-27 37.5l136 212q23 -9 35.5 -27.5t12.5 -49.5q0 -20 -6 -41t-22 -35q9 -3 19 -3q23 0 40 20t17 52q0 41 -26 64.5t-61 32.5l41 64z" />
    <glyph glyph-name="percent" unicode="%" horiz-adv-x="778" 
d="M731 298q-37 0 -77 -17.5t-73 -46t-54.5 -66t-21.5 -76.5q0 -47 23.5 -69.5t67.5 -22.5q41 0 80.5 22t70.5 55t50 70.5t19 67.5q0 32 -20 57.5t-65 25.5zM729 286q21 0 32 -9t11 -30q0 -29 -15.5 -69.5t-41 -77t-57 -62.5t-63.5 -26q-20 0 -33 9.5t-13 31.5q0 32 16.5 72
t42.5 76t58 60.5t63 24.5zM641 460q-91 -114 -164 -205.5t-124 -155.5t-78.5 -99t-27.5 -36q0 -5 5 -5q1 0 16 17.5t40 47.5t58 69t68.5 82t72 86.5t69.5 82.5q5 6 18 21t30 35t35.5 42t34 41t25.5 32.5t10 16.5q0 14 -11 14q-12 0 -20.5 -6t-23.5 -29q-5 -7 -16 -19.5
t-26.5 -24.5t-36 -20.5t-43.5 -8.5q-30 0 -44 14.5t-26 32.5t-30.5 32.5t-58.5 14.5q-37 0 -77 -19.5t-73 -50t-54 -69t-21 -76.5q0 -42 23.5 -65.5t64.5 -23.5q25 0 51.5 10t52 27.5t48.5 41t39.5 49t26 52.5t8.5 52l2 2q11 -15 28 -25.5t37 -10.5q27 0 50.5 11t39.5 25z
M212 285q0 36 17 77t43.5 76t59.5 58.5t64 23.5q21 0 31.5 -11.5t10.5 -31.5q0 -30 -16.5 -70.5t-43.5 -77.5t-60.5 -63t-66.5 -26q-22 0 -30.5 13t-8.5 32z" />
    <glyph glyph-name="ampersand" unicode="&#x26;" horiz-adv-x="611" 
d="M735 125q-17 -25 -40 -46t-50 -37t-57 -25t-61 -9q-44 0 -86 21t-72 51q37 35 82 88q14 18 28 34t28.5 28.5t31 20t35.5 7.5q26 0 44 -11.5t26 -28.5q7 7 11.5 17t4.5 18q0 23 -17.5 37t-43.5 14q-31 0 -58.5 -21.5t-55 -54t-57.5 -70.5t-67 -71q-47 48 -75 110t-29 130
q19 11 50.5 26t61.5 34.5t51.5 42t21.5 48.5q0 29 -18 44.5t-45 15.5q-37 0 -69 -22.5t-56 -56t-37.5 -72t-13.5 -70.5q-28 -12 -54.5 -31t-47.5 -44t-33.5 -54t-12.5 -62q0 -28 10 -52.5t28.5 -42.5t45 -28.5t59.5 -10.5q24 0 43.5 5t36 13t29.5 17.5t23 18.5
q18 -14 40 -24.5t45.5 -17t46.5 -9.5t42 -3q68 0 131 33t105 96zM402 483q0 -27 -11.5 -48.5t-31.5 -38.5t-46.5 -31t-55.5 -27q0 20 3 46.5t18 61.5q17 39 41.5 59.5t46.5 20.5q36 0 36 -43zM109 142q0 25 6 50t18 47t29.5 39.5t40.5 27.5q0 -72 31.5 -139.5t86.5 -113.5
q-19 -15 -45 -26t-63 -11q-24 0 -43 10.5t-32.5 28t-21 40.5t-7.5 47z" />
    <glyph glyph-name="quotesingle" unicode="'" horiz-adv-x="222" 
d="M273 640q1 8 1.5 20.5t-2 24t-9 19.5t-20.5 8q-13 0 -20 -8t-9.5 -19.5t-2 -24t1.5 -20.5l16 -179q0 -2 0.5 -6.5t1.5 -9t4 -8t8 -3.5t8 3.5t4 8t1.5 9t0.5 6.5z" />
    <glyph glyph-name="parenleft" unicode="(" horiz-adv-x="389" 
d="M661 696q-138 -60 -248 -145.5t-185 -196.5q-49 -73 -84.5 -139.5t-58.5 -140t-34.5 -160t-12.5 -200.5h12q0 82 15.5 163t43 158t65 149t81.5 135q82 118 185.5 212.5t220.5 154.5v10z" />
    <glyph glyph-name="parenright" unicode=")" horiz-adv-x="389" 
d="M-229 -286q138 60 248 145.5t185 196.5q49 73 84.5 139.5t58.5 140t34.5 160t12.5 200.5h-12q0 -82 -15.5 -163t-43 -158t-65 -149t-81.5 -135q-82 -118 -185.5 -212.5t-220.5 -154.5v-10z" />
    <glyph glyph-name="asterisk" unicode="*" horiz-adv-x="333" 
d="M204 538q0 -7 5 -11.5t12 -4.5t20 4t28 10t31 12.5t29 11.5q-3 -13 -9 -29.5t-12 -32.5t-10.5 -29t-4.5 -19q0 -16 16 -16q6 0 11 5t9 18.5t8 37.5t9 61q7 -8 19 -23t24.5 -30t24.5 -26t19 -11q5 0 9.5 3.5t4.5 10.5q0 9 -9.5 19t-24 21.5t-30 23.5t-27.5 24q38 5 62 8.5
t37.5 7t19 8t5.5 11.5q0 8 -5 13.5t-12 5.5q-4 0 -16.5 -4.5t-28.5 -10.5t-33.5 -12.5t-31.5 -11.5q5 15 12 31.5t13 31t10 26.5t4 19q0 8 -3.5 14.5t-11.5 6.5q-12 0 -17 -11.5t-8 -29.5l-6 -32l-9 -52q-11 14 -23 30t-23.5 30t-21.5 23.5t-16 9.5q-8 0 -12.5 -5.5
t-4.5 -13.5q0 -7 5.5 -13.5t17 -16t28.5 -22.5t40 -33l-95 -14q-12 -2 -20 -7.5t-8 -16.5z" />
    <glyph glyph-name="plus" unicode="+" horiz-adv-x="600" 
d="M367 189h-155v-34h155v-155h34v155h155v34h-155v155h-34v-155z" />
    <glyph glyph-name="comma" unicode="," horiz-adv-x="250" 
d="M-32 -124q31 4 62.5 17t57 33t41 46t15.5 56q0 17 -10 31.5t-29 14.5q-18 0 -28.5 -11.5t-10.5 -29.5q0 -17 11.5 -25t22.5 -8q9 0 12 2q-2 -26 -16 -46.5t-35 -35.5t-45.5 -24.5t-47.5 -13.5v-6z" />
    <glyph glyph-name="hyphen" unicode="-" horiz-adv-x="333" 
d="M85 186l-11 -28h230l12 28h-231z" />
    <glyph glyph-name="period" unicode="." horiz-adv-x="250" 
d="M103 74q-15 0 -26 -11t-11 -26t11 -26t26 -11t26 11t11 26t-11 26t-26 11z" />
    <glyph glyph-name="slash" unicode="/" horiz-adv-x="278" 
d="M145 -16l283 728h-37l-283 -728h37z" />
    <glyph glyph-name="zero" unicode="0" horiz-adv-x="500" 
d="M110 122q0 -57 28 -93.5t87 -36.5q40 0 82.5 18.5t83.5 50t78 72t64.5 85.5t44 91t16.5 87q0 29 -6.5 53.5t-20.5 42.5t-36.5 28t-54.5 10q-40 0 -82.5 -17.5t-83.5 -48t-77 -71t-63.5 -86t-43.5 -93t-16 -92.5zM170 118q0 69 27 139.5t68 127.5t90 93t93 36q24 0 40 -9
t26.5 -24.5t15 -35.5t4.5 -42q0 -72 -27.5 -143t-70 -127t-94 -90.5t-100.5 -34.5q-21 0 -34.5 9t-22 24t-12 35t-3.5 42z" />
    <glyph glyph-name="one" unicode="1" horiz-adv-x="370" 
d="M108 -8l82 16q27 52 69 120.5t88 140t91 139.5t78 118l-4 4q-71 -55 -153 -102.5t-173 -68.5l4 -11q26 7 54 17t55.5 22t52.5 25.5t46 27.5l2 -2z" />
    <glyph glyph-name="two" unicode="2" horiz-adv-x="500" 
d="M497 165q-9 -18 -23.5 -41.5t-32.5 -43.5t-39.5 -34t-44.5 -14q-16 0 -39 9t-47 19q-25 10 -48.5 18.5t-40.5 8.5q-19 0 -35 -7t-31 -15l-2 4q40 27 89.5 49t100.5 43.5t99.5 45t86 53t60 67t22.5 86.5q0 23 -9 45.5t-28 40t-47.5 28.5t-67.5 11q-45 0 -80 -15.5
t-59 -39.5t-36.5 -52.5t-12.5 -54.5q0 -35 18.5 -55.5t49.5 -20.5q24 0 43 12t30 32l-4 3q-11 -5 -18.5 -8t-19.5 -3q-26 0 -42.5 20.5t-16.5 46.5q0 28 12.5 50t31.5 37.5t42.5 23.5t45.5 8q51 0 77.5 -32t26.5 -83q0 -31 -9 -60t-33 -58.5t-67 -58.5t-111 -60
q-143 -65 -212.5 -108.5t-69.5 -59.5q0 -4 0.5 -7t5.5 -3t12.5 10t19.5 22t31.5 21.5t48.5 9.5q26 0 49 -10t45 -21t42.5 -21.5t40.5 -10.5q37 0 68 16t56 41t44.5 55.5t34.5 59.5z" />
    <glyph glyph-name="three" unicode="3" horiz-adv-x="500" 
d="M272 264q14 2 28.5 3t28.5 1q45 0 70 -24.5t25 -69.5q0 -39 -17 -70.5t-44.5 -53.5t-63 -34t-73.5 -12q-51 0 -85 24t-34 73q0 45 22 69t52 24q6 0 14 -2l1 4q-10 10 -25 16t-29 6q-42 0 -65.5 -29.5t-23.5 -69.5q0 -30 14.5 -53.5t38.5 -40t55 -25t64 -8.5q49 0 95.5 13
t83 36.5t58.5 57t22 73.5q0 52 -30.5 78.5t-79.5 29.5v2q40 5 80 15.5t72 27.5t52 42.5t20 61.5q0 22 -7.5 42t-23.5 35t-39.5 23.5t-56.5 8.5q-34 0 -63.5 -11t-51.5 -30t-35 -43.5t-13 -51.5q0 -26 16 -45t45 -19q23 0 41.5 12.5t19.5 31.5q-10 -5 -17 -6.5t-18 -1.5
q-24 0 -35.5 18.5t-11.5 40.5q0 21 9.5 37.5t24.5 28t34.5 17.5t38.5 6q42 0 62.5 -27t20.5 -66q0 -35 -13 -59t-34.5 -39.5t-49 -24.5t-57 -13.5t-59 -7t-53.5 -5.5v-16z" />
    <glyph glyph-name="four" unicode="4" horiz-adv-x="500" 
d="M616 516l-57 -6l-205 -311h-244v4l492 406h-26l-498 -422h269l-123 -187l70 10l113 177h122l7 12h-122z" />
    <glyph glyph-name="five" unicode="5" horiz-adv-x="500" 
d="M226 273l5 -4q25 14 52 23.5t56 9.5q44 0 65.5 -24.5t21.5 -66.5q0 -40 -14 -77.5t-39 -66.5t-60.5 -46t-78.5 -17q-50 0 -79.5 27.5t-29.5 76.5q0 37 21 61.5t54 24.5q5 0 9.5 -0.5t9.5 -1.5l1 4q-24 26 -58 26q-41 0 -66 -28.5t-25 -69.5q0 -33 14 -58t37.5 -41.5
t53 -24.5t60.5 -8q47 0 91.5 18t80 47.5t57 68t21.5 78.5q0 57 -34 85.5t-94 28.5q-27 0 -46.5 -5.5t-39.5 -13.5l-2 2l172 172q25 -11 42 -18t40 -7q15 0 32 6t33 16t30 22t22 24l-3 4q-16 -12 -35.5 -20t-44.5 -8q-20 0 -41.5 9.5t-38.5 28.5z" />
    <glyph glyph-name="six" unicode="6" horiz-adv-x="500" 
d="M468 300q0 -46 -19 -98t-49 -96t-68 -73t-77 -29q-21 0 -33.5 9t-19 22.5t-9 30.5t-2.5 33q0 55 22 107.5t54.5 93t70 65.5t68.5 25q20 0 32 -8t19 -21t9 -29t2 -32zM249 301q30 54 75.5 118.5t103 120t125.5 93t141 37.5q34 0 56 -11.5t35.5 -28t19 -36t5.5 -34.5
q0 -8 -0.5 -12l-1.5 -12q12 9 23 24.5t11 37.5q0 17 -7.5 33t-23 28t-40.5 19.5t-60 7.5q-60 0 -125.5 -24.5t-129.5 -66.5t-121.5 -97.5t-101.5 -117.5t-70 -127t-26 -126q0 -25 6 -49.5t19.5 -43.5t34 -30.5t48.5 -11.5q48 0 98.5 30.5t91.5 76.5t67 99t26 99
q0 52 -25.5 80.5t-76.5 28.5q-27 0 -52 -9t-47 -24t-41 -34t-35 -38h-2z" />
    <glyph glyph-name="seven" unicode="7" horiz-adv-x="500" 
d="M176 -96l494 636l-6 4q-20 -21 -44.5 -34.5t-55.5 -13.5q-21 0 -38 6.5t-34 14.5q-16 8 -31.5 14.5t-34.5 6.5q-35 0 -56 -12.5t-47 -32.5l-2 2q10 14 19.5 30.5t17.5 33.5l-8 3q-9 -17 -20 -38t-21 -35q-3 -5 -13 -15t-20 -20.5t-18 -20t-8 -13.5q0 -8 6 -8q7 0 16 14
t22 31t31 31t43 14q20 0 37 -6.5t34 -14.5q18 -8 36 -14.5t38 -6.5q41 0 70 15t58 40l2 -2l-555 -619z" />
    <glyph glyph-name="eight" unicode="8" horiz-adv-x="500" 
d="M494 295q31 8 61 23.5t54 37.5t38.5 51t14.5 64q0 68 -38 108.5t-107 40.5q-36 0 -69.5 -12t-60 -34.5t-42 -54t-15.5 -69.5q0 -26 6.5 -50t15.5 -48q-44 0 -86.5 -14t-76.5 -40t-54.5 -63t-20.5 -84q0 -34 12.5 -63.5t34.5 -50.5t51.5 -33t63.5 -12q40 0 75 13.5
t61.5 37t41.5 56t15 71.5q0 42 -13.5 77t-29 69.5t-29 71t-13.5 80.5q0 63 32 101.5t83 38.5q52 0 83.5 -41t31.5 -107q0 -62 -30.5 -102t-91.5 -54zM168 163q0 93 47.5 134.5t140.5 42.5q20 -43 39.5 -88t19.5 -95q0 -28 -4.5 -55t-17 -48t-34 -33.5t-55.5 -12.5
q-32 0 -57.5 13t-43 34.5t-26.5 49.5t-9 58z" />
    <glyph glyph-name="nine" unicode="9" horiz-adv-x="500" 
d="M488 437q0 -61 -21.5 -114.5t-53 -93.5t-68 -62.5t-66.5 -22.5q-59 0 -59 95q0 42 17 92t45.5 93.5t65.5 72.5t77 29q35 0 49 -25.5t14 -63.5zM439 245q-19 -42 -48 -91.5t-65 -99t-78.5 -95.5t-89.5 -81.5t-97 -56.5t-102 -21q-33 0 -61.5 9.5t-49 27t-32.5 42t-12 53.5
q0 11 0.5 17.5t2.5 14.5q-25 -8 -36 -26t-11 -40q0 -25 13 -46t36 -36t54.5 -23.5t67.5 -8.5q69 0 142 30t141.5 79.5t129 115t106 136t72 142t26.5 134.5q0 51 -26.5 84t-83.5 33q-41 0 -89.5 -28t-90.5 -71.5t-70 -97.5t-28 -106q0 -48 23.5 -77.5t69.5 -29.5q29 0 56 10
t50.5 26.5t43 37.5t34.5 43h2z" />
    <glyph glyph-name="colon" unicode=":" horiz-adv-x="250" 
d="M66 38q0 -16 10.5 -26t26.5 -10q14 0 25.5 11t11.5 25t-11 26t-25 12q-17 0 -27.5 -10.5t-10.5 -27.5zM246 307q0 -17 10 -27t27 -10q15 0 26 10t11 26q0 14 -10 26t-25 12q-16 0 -27.5 -10t-11.5 -27z" />
    <glyph glyph-name="semicolon" unicode=";" horiz-adv-x="250" 
d="M-32 -124q31 4 62.5 17t57 33t41 46t15.5 56q0 17 -10 31.5t-29 14.5q-18 0 -28.5 -11.5t-10.5 -29.5q0 -17 11.5 -25t22.5 -8q9 0 12 2q-2 -26 -16 -46.5t-35 -35.5t-45.5 -24.5t-47.5 -13.5v-6zM246 307q0 -17 10 -27t27 -10q16 0 26.5 12.5t10.5 27.5q0 13 -11 23.5
t-24 10.5q-16 0 -27.5 -10.5t-11.5 -26.5z" />
    <glyph glyph-name="less" unicode="&#x3c;" horiz-adv-x="600" 
d="M546 28l-310 144l310 144v34l-344 -160v-37l344 -159v34z" />
    <glyph glyph-name="equal" unicode="=" horiz-adv-x="600" 
d="M556 255h-344v-34h344v34zM556 123h-344v-34h344v34z" />
    <glyph glyph-name="greater" unicode="&#x3e;" horiz-adv-x="600" 
d="M244 -6l344 159v37l-344 160v-34l310 -144l-310 -144v-34z" />
    <glyph glyph-name="question" unicode="?" 
d="M157 129q9 18 28.5 34.5t43.5 30.5t49.5 25.5t46.5 21.5q29 14 56.5 32t49.5 40t35 47.5t13 54.5q0 63 -39.5 93t-99.5 30q-34 0 -68.5 -12.5t-63 -34t-46.5 -50.5t-18 -62q0 -42 24 -66.5t66 -24.5q27 0 51 13.5t38 33.5l-7 5q-16 -20 -37.5 -30t-42.5 -10q-19 0 -31 8
t-19 20t-9.5 27t-2.5 29q0 30 14 55.5t36 45t49 30.5t53 11q47 0 73 -28t26 -76q0 -44 -15 -79.5t-50 -64.5q-24 -20 -53.5 -34.5t-58.5 -29.5t-55.5 -34t-44.5 -48zM107 74q-15 0 -26 -11t-11 -26t11 -26t26 -11t26 11t11 26t-11 26t-26 11z" />
    <glyph glyph-name="at" unicode="@" horiz-adv-x="800" 
d="M386 279q0 39 13 77.5t34 70t46.5 51t50.5 19.5q29 0 45.5 -21.5t16.5 -59.5q0 -32 -13 -72t-34 -75t-48 -59t-55 -24q-26 0 -41 21.5t-15 71.5zM607 478q-11 20 -27.5 37.5t-49.5 17.5q-43 0 -80 -23t-63.5 -59.5t-41.5 -81t-15 -87.5q0 -62 26 -97t74 -35q23 0 41.5 9
t33.5 21t25 24.5t15 19.5h2q0 -5 4.5 -17t16 -25t29.5 -22.5t45 -9.5q47 0 83.5 24t61.5 61t38 81.5t13 84.5q0 65 -25 121.5t-71 98.5t-109.5 66.5t-141.5 24.5t-147 -27.5t-120.5 -77.5t-81.5 -120t-30 -155q0 -53 22.5 -114t69.5 -113t121 -86.5t177 -34.5q31 0 62.5 6.5
t60 15.5t53 20t40.5 20l-8 18q-40 -20 -91.5 -39t-117.5 -19q-75 0 -136 28t-103.5 73t-66 101t-23.5 113q0 88 25 157t68 117t101.5 73.5t124.5 25.5t124.5 -21t102 -60t69 -93t25.5 -120q0 -35 -10.5 -74.5t-30 -72.5t-48 -55t-65.5 -22q-26 0 -36.5 13.5t-10.5 33.5
q0 8 2 21t6 26l63 250h-64z" />
    <glyph glyph-name="A" unicode="A" horiz-adv-x="944" 
d="M734 311q-20 -51 -36 -103.5t-16 -109.5q0 -21 5 -40t16 -34t27.5 -23.5t40.5 -8.5q36 0 75.5 26t78.5 65.5t77 87.5t72 91l-7 3q-11 -15 -30 -39.5t-43 -52t-50.5 -55.5t-53.5 -51t-51.5 -37t-43.5 -14q-32 0 -42.5 21.5t-10.5 52.5q0 45 14.5 99t39 112.5t56.5 117.5
t67.5 112.5t72.5 99.5t71 77l-3 4q-54 -15 -106 -45t-100 -68t-90.5 -80.5t-78.5 -83.5t-64.5 -76t-47.5 -59q-44 -54 -92 -105.5t-96.5 -92t-96 -65.5t-90.5 -25q-17 0 -33 4.5t-25 18.5q9 2 14 11t5 18q0 15 -9 26t-25 11q-18 0 -28 -12t-10 -29q0 -9 3.5 -20.5t14 -22
t30 -18t52.5 -7.5q48 0 100 26.5t104.5 71t104.5 102t101 119.5h137zM605 323q43 55 88.5 107t93.5 98t98.5 84t103.5 64l2 -2q-84 -80 -145.5 -169t-106.5 -182h-134z" />
    <glyph glyph-name="B" unicode="B" horiz-adv-x="889" 
d="M453 448q2 -16 3 -31.5t1 -31.5q0 -46 -12.5 -85.5t-34.5 -67.5t-53 -44t-68 -16q-30 0 -52 14.5t-36.5 37t-21.5 51t-7 55.5q0 71 36.5 137.5t98.5 118t145 83t176 31.5q51 0 97 -9.5t78 -35.5q-45 -28 -82.5 -68t-72.5 -89t-69.5 -106.5t-74.5 -122.5
q-38 -63 -70.5 -113.5t-66 -86t-71.5 -54.5t-88 -19q-8 0 -19 1.5t-21.5 6t-18.5 11.5t-10 17q14 0 23.5 9.5t9.5 23.5q0 16 -8.5 26.5t-25.5 10.5t-28.5 -11.5t-11.5 -31.5q0 -31 30 -53t82 -22q75 0 136 37t112.5 96t96 132t87 146t85 138t90.5 107q16 -17 25 -39t9 -45
q0 -43 -14.5 -80t-40.5 -64t-62.5 -42t-81.5 -15v-12q29 0 54.5 -5t44.5 -18t30 -34.5t11 -53.5q0 -43 -11.5 -84t-34.5 -73t-57.5 -51.5t-80.5 -19.5q-31 0 -51 18t-20 45q0 25 7 41.5t24 19.5q-12 12 -28 12q-26 0 -41.5 -18t-15.5 -43q0 -38 34.5 -62.5t91.5 -24.5
q41 0 84 18t78 49.5t58 74t23 91.5q0 32 -10.5 55.5t-29 39t-43.5 24t-54 9.5v2q34 6 68 21t61 37.5t44 53.5t17 69q0 42 -16.5 70.5t-48.5 54.5q32 21 62 30.5t62 14.5v12q-32 -5 -65.5 -15.5t-73.5 -32.5q-36 20 -85 31t-107 11q-72 0 -136.5 -16.5t-120 -45t-100 -66.5
t-75.5 -81t-48 -89t-17 -90q0 -33 10 -62.5t29.5 -52t48 -36t65.5 -13.5q42 0 75.5 18t56.5 49t35.5 71t12.5 85q0 16 -1 30.5t-4 35.5z" />
    <glyph glyph-name="C" unicode="C" horiz-adv-x="667" 
d="M534 556q-1 -6 -1 -14v-13q2 -45 30 -63.5t67 -18.5q37 0 72 12.5t62.5 34t44 51.5t16.5 65q0 50 -31 76t-94 26q-51 0 -112.5 -23t-123 -62.5t-119.5 -93t-102.5 -114.5t-71.5 -126.5t-27 -128.5q0 -27 9.5 -58.5t31.5 -58.5t57.5 -45t87.5 -18q69 0 122.5 25t89.5 62.5
t54.5 80.5t18.5 78q0 60 -30.5 85t-93.5 25l1 -12q40 0 63.5 -21t23.5 -61q0 -44 -20 -88.5t-53.5 -80.5t-78 -58.5t-93.5 -22.5q-34 0 -58 13.5t-39 36t-22 50.5t-7 56q0 69 24 136t64.5 128t92 113t107 90t109.5 59.5t99 21.5q39 0 62 -14.5t23 -56.5q0 -34 -14.5 -65
t-37.5 -54.5t-51 -37t-55 -13.5q-16 0 -31.5 3.5t-27.5 12t-19.5 22.5t-7.5 35v12q0 6 1 12h-12z" />
    <glyph glyph-name="D" unicode="D" horiz-adv-x="889" 
d="M992 738q-53 -8 -100 -31.5t-89 -55.5q-42 32 -93 49.5t-109 17.5q-98 0 -182.5 -36.5t-146.5 -93t-97.5 -123.5t-35.5 -129q0 -35 9.5 -67t28 -56t47 -38.5t66.5 -14.5q50 0 92 21.5t73 60t48 91t17 114.5v29h-12v-34q0 -53 -15 -101.5t-41.5 -85t-64 -58t-82.5 -21.5
q-36 0 -60 12.5t-39 34.5t-21 50.5t-6 60.5q0 80 36 148t95.5 118t136 78t157.5 28q43 0 94.5 -14.5t93.5 -49.5q-53 -44 -97.5 -104t-84 -125.5t-76.5 -131.5t-75.5 -121t-81 -95t-93.5 -53q-26 4 -44 7.5t-32.5 6.5t-26 4.5t-23.5 1.5q-17 0 -27.5 -4.5t-10.5 -16.5
t13 -16.5t37 -4.5q20 0 35.5 1t28 3t25 4.5t26.5 4.5q17 -4 33.5 -7.5t36 -6t43.5 -4t55 -1.5q82 0 162 32.5t143.5 89t102.5 134t39 167.5q0 30 -4.5 62t-14.5 62.5t-26 58.5t-39 50q37 35 82.5 58t95.5 32zM436 -4q-40 0 -71.5 2t-62.5 8v2q66 21 117.5 62.5t93.5 94.5
t78 114t70 123t68.5 120t75.5 104q25 -27 36 -67.5t11 -80.5q0 -53 -11.5 -109.5t-34.5 -110t-57 -101.5t-80.5 -83.5t-104.5 -56.5t-128 -21z" />
    <glyph glyph-name="E" unicode="E" horiz-adv-x="667" 
d="M342 180q11 16 26.5 32t33.5 28.5t38 20t41 7.5q40 0 58 -23t18 -67q0 -45 -22 -78.5t-55.5 -55.5t-73.5 -33t-76 -11q-39 0 -71.5 14t-55.5 36.5t-36 52.5t-13 61q0 56 18.5 92.5t48.5 62t68.5 43.5t77.5 36q35 16 51 42t16 64q0 29 8 63.5t26 64t48 49t74 19.5
q48 0 75 -21t27 -67q0 -17 -7.5 -39t-22.5 -42t-37.5 -34t-52.5 -14q-31 0 -44 5l-1 -11q5 -2 18 -4t27 -2q28 0 57 9t53 27t39 44t15 59q0 27 -12.5 46.5t-32 32t-43.5 18t-48 5.5q-58 0 -101.5 -18t-72 -48.5t-42.5 -70t-14 -83.5q0 -29 -2 -46.5t-7.5 -28.5t-15.5 -17.5
t-27 -14.5q-43 -19 -84.5 -40t-73 -48t-51 -63t-19.5 -86q0 -36 15.5 -66t45 -52t72 -34t97.5 -12q50 0 101.5 18t93.5 47t69 64.5t27 71.5q0 40 -27 67.5t-81 27.5t-95.5 -26t-72.5 -69z" />
    <glyph glyph-name="F" unicode="F" horiz-adv-x="778" 
d="M602 323q-29 -46 -64.5 -102t-79.5 -104t-98 -80.5t-119 -32.5q-51 0 -79.5 13.5t-41.5 30.5t-15.5 32.5t-2.5 18.5q4 -1 10 -1q14 0 21 10.5t7 24.5q0 15 -8.5 25t-24.5 10q-22 0 -33.5 -17t-11.5 -37q0 -32 17 -55t43 -38t56.5 -22t57.5 -7q79 0 142 29.5t114 77
t92.5 106.5t77.5 119q8 1 21 2t28 2.5t30.5 3t28.5 3.5q-14 -26 -28 -51.5t-24 -53.5l6 -3q29 46 65 86.5t77 75.5q-12 4 -25 4q-21 0 -33.5 -12t-21.5 -24q-4 -6 -19 -9t-33 -5t-36.5 -3t-30.5 -3q27 37 49.5 79.5t51 83t67.5 75t97 55.5q65 0 103 0.5t57.5 3.5t24.5 10
t5 20q0 15 -14 17.5t-34 2.5q-15 0 -33.5 -2t-41.5 -2q-32 0 -97.5 2t-153.5 2q-132 0 -235.5 -23t-174.5 -62t-108.5 -89.5t-37.5 -105.5q0 -54 39 -84t106 -30q50 0 96.5 17t81.5 44.5t56 62.5t21 71q0 30 -11 58l-10 -2q3 -11 6 -24.5t3 -30.5q0 -40 -22.5 -74
t-57.5 -58.5t-78 -38t-84 -13.5q-63 0 -99.5 28.5t-34.5 76.5q2 50 34 91.5t89.5 72.5t138.5 48t180 17q49 0 87.5 -0.5t70 -1.5t58.5 -1.5t53 -0.5v-2q-55 -14 -99.5 -45.5t-81 -72t-67 -86.5t-59.5 -91h-43l-2 -12h39z" />
    <glyph glyph-name="G" unicode="G" horiz-adv-x="611" 
d="M454 799q-22 -19 -37.5 -47t-15.5 -61q0 -43 25 -79q-34 -22 -73 -55.5t-71.5 -73t-54 -83.5t-21.5 -88q0 -56 32.5 -89t88.5 -33q48 0 92 19.5t79 48.5l2 -2q-25 -39 -56.5 -84.5t-69.5 -84.5t-83.5 -65t-99.5 -26q-26 0 -49.5 6.5t-41.5 19t-29 30.5t-11 40v10
q0 6 2 13q3 -2 8.5 -2.5t8.5 -0.5q16 -1 25.5 9t9.5 26q0 14 -10.5 24.5t-24.5 10.5q-28 0 -40.5 -20t-12.5 -46q0 -29 12.5 -53.5t34.5 -42t51.5 -27t63.5 -9.5q71 0 131 29t109 74.5t88.5 102.5t70.5 112q21 27 41 50t20 34q0 9 -5.5 12t-11.5 3q-23 0 -38.5 -8
t-26.5 -21.5t-19.5 -31.5t-18.5 -39q-4 -10 -22 -26t-43 -31.5t-54 -26.5t-57 -11q-24 0 -40 8t-25.5 21.5t-13 32t-3.5 39.5q0 35 16.5 76t42 80t56 72.5t59.5 53.5q38 -38 88 -51.5t96 -13.5q36 0 73 6t67 20t49 36.5t19 55.5q0 21 -10.5 35t-26.5 21.5t-35.5 10.5
t-37.5 3q-78 0 -152 -26t-139 -66q-10 12 -16 32t-6 41q0 25 12 52.5t35 47.5zM796 651q0 -28 -14.5 -49.5t-37.5 -36t-53 -22t-62 -7.5q-59 0 -105.5 16t-71.5 45q25 20 56 38.5t64.5 32.5t68 23t67.5 9q14 0 29 -1t28.5 -6t22 -14.5t8.5 -27.5z" />
    <glyph glyph-name="H" unicode="H" horiz-adv-x="833" 
d="M456 531q5 -10 8 -20t3 -26q0 -29 -15 -53.5t-38 -42t-50.5 -27t-53.5 -9.5q-21 0 -37 7.5t-26 19t-15 26.5t-5 30q0 58 44 106t124 82t192 53t249 19v-2q-71 -16 -125.5 -52t-98 -84t-80.5 -104.5t-73 -112.5q-21 -33 -44 -71t-47 -75t-50 -72t-53.5 -61t-57 -42
t-61.5 -16q-23 0 -41.5 8t-23.5 23q14 0 22.5 8t8.5 24q0 14 -9 23t-24 9q-17 0 -29 -11t-12 -28q0 -19 10.5 -32t26 -21t33.5 -11.5t33 -3.5q66 0 123 35.5t104.5 87.5t86 112t68.5 108h144q-15 -25 -32.5 -55t-31.5 -63t-23.5 -68.5t-9.5 -70.5q0 -19 4.5 -36t14.5 -30
t26 -20.5t39 -7.5q31 0 62 15.5t61.5 40.5t58.5 56t51.5 62t41.5 58.5t28 45.5l-9 4q-26 -43 -61 -90t-73 -86t-76 -64.5t-70 -25.5q-17 0 -25.5 18t-8.5 41q0 55 23.5 123t62 137.5t87 136t98.5 118t97 83t82 31.5q15 0 24 -8.5t16 -19t14.5 -19.5t19.5 -9q14 0 23 9.5
t9 23.5q0 22 -18 34.5t-39 12.5q-44 0 -89 -17.5t-89 -46.5t-85 -66.5t-77.5 -78.5t-67 -81.5t-53.5 -74.5h-144q104 177 191.5 263t165.5 86q26 0 39 2t13 14q0 6 -5 8t-10 2q-17 0 -35 -7t-45 -7q-77 0 -157 -5.5t-154.5 -18t-139.5 -32.5t-113.5 -49t-76.5 -68t-28 -88
q0 -44 34.5 -75t96.5 -31q30 0 61 10.5t56.5 30t41.5 46t16 59.5q0 26 -11 45z" />
    <glyph glyph-name="I" unicode="I" horiz-adv-x="611" 
d="M-15 108q0 -33 16 -56.5t41 -38.5t54.5 -22t57.5 -7q72 0 133.5 26.5t114.5 73t100 110t89 137.5q43 75 83.5 137.5t76.5 106.5t67.5 68.5t56.5 24.5q53 0 71 3.5t18 13.5q0 8 -5 9.5t-12 1.5q-11 0 -50 -9t-105 -9q-55 1 -119 -3.5t-127 -16t-121 -30.5t-103 -46
t-71.5 -62t-26.5 -79q0 -57 36.5 -86.5t95.5 -29.5q34 0 64.5 12t54 32t37 46.5t13.5 56.5q0 8 -2 20t-4 18l-11 -2q5 -15 5 -38q0 -25 -13.5 -49t-35.5 -43t-49.5 -30t-55.5 -11q-40 0 -63.5 23t-23.5 65q0 54 29 93t76.5 66t108 43t123 24.5t121.5 11.5t104 3v-2
q-46 -17 -89.5 -55t-81.5 -83.5t-69.5 -92.5t-55.5 -82q-15 -23 -36 -58.5t-47.5 -75t-58 -79t-69 -71t-80.5 -51.5t-91 -20q-31 0 -55.5 8t-41 21.5t-23 30t-2.5 34.5q16 -3 26.5 8t10.5 27t-10 25.5t-27 9.5q-23 0 -36 -15.5t-13 -36.5z" />
    <glyph glyph-name="J" unicode="J" horiz-adv-x="611" 
d="M499 500q6 -22 6 -39q0 -28 -13 -53t-34.5 -43.5t-49.5 -29t-58 -10.5q-45 0 -66 26.5t-21 61.5q0 53 30.5 92.5t80 67.5t112 45.5t126 27.5t122 14t100.5 4v-2q-53 -24 -100.5 -66t-91 -94.5t-82.5 -113t-75.5 -122t-70 -121t-65.5 -109.5q-64 -13 -129 -21.5
t-124.5 -18t-111 -21.5t-89.5 -31.5t-59.5 -49t-21.5 -73.5q0 -28 13.5 -50t35.5 -37.5t50 -23.5t57 -8q72 0 135 30t117.5 78t100.5 107.5t85 118.5q65 18 113 38.5t85.5 47t68.5 61t62 80.5l-8 5q-31 -45 -61 -78t-65 -58t-78 -44t-102 -37l-2 2q27 38 62 98.5t74.5 128
t81 136t81.5 124t77 90t67 34.5q14 0 30.5 0.5t30 2t22.5 6t9 11.5t-6 9.5t-11 2.5q-20 0 -53.5 -10t-74.5 -10q-40 0 -99.5 -3.5t-125.5 -13.5t-132.5 -27.5t-119.5 -45.5t-86 -67.5t-33 -93.5q0 -50 35.5 -81t99.5 -31q32 0 62 11.5t53 31t37.5 46.5t14.5 58q0 9 -1.5 20
t-5.5 21zM-32 -286q-45 0 -75.5 24.5t-30.5 80.5q0 42 19 70.5t52.5 47t79 30t98.5 20t111.5 16.5t117.5 20q-25 -40 -63 -93.5t-86 -101.5t-104.5 -81t-118.5 -33z" />
    <glyph glyph-name="K" unicode="K" horiz-adv-x="889" 
d="M1008 266q-13 -18 -35.5 -44.5t-50.5 -55.5t-59 -58t-62 -52t-60 -37.5t-52 -14.5q-14 0 -22.5 7.5t-8.5 27.5q0 17 11 42t24 53.5t24 57.5t11 54q0 40 -14 65t-47 42v2q68 4 121.5 30t97.5 63.5t80 80t67.5 79t60 60.5t58.5 24q25 0 38 -12t13 -31q0 -11 -3 -20t-11 -15
q2 -8 17 -8t26 13t11 30q0 26 -25 40.5t-65 14.5q-49 0 -91.5 -25.5t-81.5 -63t-76.5 -82t-76 -82t-80.5 -63t-90 -25.5q-9 0 -19.5 1.5t-18.5 1.5q-2 0 -6 -1.5t-4 -6.5q0 -9 14 -9q5 0 11 1t11 1q15 0 31 -11t16 -40q0 -27 -13.5 -58.5t-30 -64t-30.5 -64t-14 -57.5
q0 -32 23 -48t52 -16q27 0 58 14.5t63 37.5t64 52.5t60 59.5t51.5 58t38.5 48zM453 495q2 -8 4.5 -19.5t2.5 -22.5q0 -24 -12.5 -47.5t-34.5 -42t-50.5 -30t-61.5 -11.5q-32 0 -56 23t-24 63q0 58 35.5 100.5t92.5 72.5t127.5 49.5t140.5 30.5t132.5 16t102.5 5v-2
q-55 -15 -100 -45t-85 -74t-78 -100.5t-80 -124.5q-21 -34 -43.5 -72t-46.5 -74.5t-49.5 -70.5t-52.5 -59.5t-56 -40.5t-59 -15q-25 0 -43.5 9.5t-18.5 23.5q11 0 18 10t7 20q0 14 -9 24t-24 10q-17 0 -28 -11.5t-11 -28.5q0 -19 10 -32.5t25.5 -21.5t33.5 -11.5t34 -3.5
q62 0 116 33.5t100.5 83.5t85.5 108t70 107q38 60 76.5 124.5t81 118t92 87.5t109.5 34q25 0 38.5 2.5t13.5 11.5q0 5 -4.5 7.5t-10.5 2.5t-17 -3.5t-28 -8.5q-13 -3 -29.5 -6.5t-34.5 -3.5q-89 0 -175 -7.5t-162 -22.5t-140.5 -37.5t-111.5 -52t-73 -66t-26 -79.5
q0 -26 10.5 -47t28 -36t40.5 -23.5t48 -8.5q42 0 75 13.5t56 34.5t35 46t12 47q0 25 -9 47z" />
    <glyph glyph-name="L" unicode="L" horiz-adv-x="556" 
d="M676 265q-44 -40 -91.5 -82.5t-95.5 -85.5t-94 -87t-86 -89q-7 48 -40.5 81t-101.5 33q-13 0 -22.5 -1t-17.5 -2l-2 2q69 27 122.5 73t98 101.5t82 117t74.5 119.5q13 -1 25 -1.5t29 -0.5q71 0 133 18.5t107.5 48t71.5 64.5t26 68q0 36 -22.5 53t-60.5 17
q-54 0 -106 -22.5t-99 -58.5t-86.5 -80t-67.5 -87q-30 2 -57.5 14t-48.5 31.5t-33.5 44.5t-12.5 53q0 17 7 33.5t19 30t29.5 21.5t38.5 8q19 0 35 -4t28 -10l4 11q-12 6 -29.5 10.5t-36.5 4.5q-22 0 -42 -8.5t-34 -22.5t-22.5 -33.5t-8.5 -40.5q0 -32 12.5 -58.5t34 -46.5
t49.5 -32.5t59 -17.5q-43 -68 -82 -135.5t-78 -124.5t-81 -98.5t-92 -57.5q-9 -1 -27 -1.5t-40 -2t-44.5 -3.5t-41.5 -6t-31 -9.5t-12 -13.5t8.5 -12t20.5 -4q23 0 48.5 6.5t48.5 14.5t41.5 13.5t28.5 5.5q30 0 56.5 -8.5t46 -25.5t30.5 -41.5t11 -56.5q0 -9 -3.5 -15.5
t-8 -11.5t-8.5 -10t-4 -12q0 -11 13 -11q17 0 35 21t29 50q30 35 79 83t103.5 98t106 96.5t85.5 78.5zM800 700q29 0 44.5 -15t15.5 -44q0 -46 -30.5 -80.5t-76 -58t-98 -35.5t-97.5 -12q-16 0 -28 0.5t-23 1.5q21 36 52.5 78.5t69.5 79t82 61t89 24.5z" />
    <glyph glyph-name="M" unicode="M" horiz-adv-x="1000" 
d="M1115 271q-61 -131 -166.5 -197t-257.5 -66v2q64 28 108.5 69t75.5 87.5t52 95t37 91.5q8 19 21.5 52t32 71.5t40.5 78t45.5 71.5t47 52t46.5 20q15 0 30.5 -3.5t29.5 -3.5q8 0 14 2t6 10q0 10 -14 14.5t-29 4.5q-39 0 -84.5 -12t-100.5 -47.5t-120 -100.5t-143 -172
q-29 -40 -62.5 -87.5t-69.5 -95t-73.5 -91t-74.5 -75.5l-2 2q41 55 68 120t49.5 132.5t44 133.5t51 122t70.5 97.5t103 60.5l-1 9q-81 -16 -144.5 -51t-116.5 -85.5t-99 -114.5t-92 -137q-39 -63 -75 -121.5t-72.5 -104t-74.5 -73t-82 -27.5q-10 0 -21 4t-12 10q8 2 11.5 11
t3.5 17q0 13 -8 23t-21 10q-15 0 -25 -10t-10 -25q0 -16 6.5 -26t17 -16t23 -8t25.5 -2q51 0 92 25.5t77 68t70 98.5t71 116t77 120.5t87 113t102 94t121 63.5l2 -2q-67 -34 -111 -83t-73.5 -107t-48.5 -122t-37.5 -129t-40 -128t-56.5 -118l7 -10q51 37 94 81t81 91.5
t73.5 97.5t69.5 98q44 61 92.5 118.5t98 104t98.5 77.5t92 38l2 -2q-65 -27 -110 -80.5t-79.5 -120t-63 -140.5t-61.5 -141.5t-75 -122t-102 -83.5q-14 2 -27 4t-27 2q-5 0 -13.5 -1.5t-8.5 -9.5q0 -6 6 -8.5t15 -2.5q6 0 12 1l15 2.5t23 3t35 1.5q68 0 131 16t117 49t98 84
t75 120z" />
    <glyph glyph-name="N" unicode="N" horiz-adv-x="722" 
d="M1004 543q15 5 30 14t27 21.5t19.5 27.5t7.5 33q0 28 -20.5 46.5t-54.5 18.5q-32 0 -66 -17.5t-69 -49.5t-70 -75.5t-70 -96.5q-24 -37 -51 -85t-52.5 -98t-48.5 -99.5t-41 -89.5l-2 2q10 36 14 67t4 60q0 52 -6 98t-13 89t-13 83.5t-6 81.5q0 34 3 55.5t7 36.5t9 25.5
t8 20.5q-14 0 -24.5 -9t-17.5 -21.5t-10.5 -26t-5.5 -23.5q-25 -57 -57 -125.5t-68.5 -137.5t-77 -134.5t-84 -115.5t-89 -80.5t-91.5 -30.5q-19 0 -28 7t-10 12q8 2 10.5 9.5t2.5 14.5q0 13 -8.5 21.5t-21.5 8.5q-16 0 -27 -10.5t-11 -26.5q0 -14 7.5 -24t19 -16t25 -9
t25.5 -3q54 0 104 32t95.5 83.5t86 115.5t74 129t60 123.5t45.5 98.5h2q0 -19 -0.5 -36.5t-0.5 -35.5q0 -50 6 -99t13 -98q7 -50 13 -99t6 -99q0 -56 -12 -115h7q56 128 115.5 248t122.5 218q20 30 48 67t61 69t68 54t68 22q22 0 35.5 -12.5t13.5 -32.5t-8.5 -42.5
t-27.5 -33.5v-6z" />
    <glyph glyph-name="O" unicode="O" horiz-adv-x="778" 
d="M698 583q0 18 -3.5 35.5t-12.5 31t-25 21.5t-41 8h-14l-2 2q11 8 28.5 13.5t35.5 5.5q25 0 39.5 -11.5t21.5 -29t9 -38.5t2 -40q0 -91 -28.5 -180t-76.5 -166q-124 77 -124 232q0 30 7 59t18 55t25 47.5t28 36.5q6 2 12 2h12q24 0 39.5 -7t23.5 -18.5t11 -26.5t3 -32h12z
M232 146q0 81 28.5 164.5t75 155.5t106 124.5t122.5 71.5l2 -2q-21 -23 -35 -49.5t-23 -52.5t-13 -51.5t-4 -47.5q0 -74 34 -134.5t100 -99.5q-19 -33 -52 -71t-72.5 -70.5t-81.5 -54t-79 -21.5q-27 0 -47.5 12.5t-34 32.5t-20 44.5t-6.5 48.5zM897 270q-32 -29 -71 -47
t-79 -18q-28 0 -50.5 4.5t-42.5 13.5q23 32 46 73t41.5 86t30.5 90.5t12 85.5q0 76 -28 115t-89 39q-26 0 -48.5 -10.5t-37.5 -24.5q-36 -6 -80.5 -29.5t-90.5 -60.5t-89.5 -85t-77.5 -103.5t-54.5 -116t-20.5 -122.5q0 -77 39.5 -122.5t118.5 -45.5q45 0 92 21.5t90 54
t79.5 71.5t60.5 74q20 -8 43 -14t55 -6q19 0 40 5t42 14t40.5 22t34.5 29z" />
    <glyph glyph-name="P" unicode="P" horiz-adv-x="778" 
d="M977 727q-56 -14 -106 -36q-23 10 -50 15.5t-65 5.5q-74 0 -145.5 -17t-134.5 -46.5t-116 -69t-91 -84.5t-59.5 -92.5t-21.5 -93.5q0 -26 8.5 -48.5t24 -39.5t37 -27t47.5 -10q42 0 78.5 20.5t62.5 53t41 72t15 76.5v38h-12v-38q0 -35 -14 -72.5t-38.5 -68t-57.5 -50
t-71 -19.5q-44 0 -66.5 26t-22.5 74q0 60 24 113.5t65 98t94.5 80.5t112.5 60.5t119.5 38t114.5 13.5q24 0 54 -3.5t51 -13.5q-61 -27 -116 -84t-105.5 -128.5t-98 -148t-93 -142t-89.5 -111.5t-88 -56q-35 7 -63.5 12.5t-54 9t-48.5 5.5t-47 2q-30 0 -42 -8t-12 -21t21 -21
t71 -8q78 0 123 10t54 10q38 -8 85.5 -14t87.5 -6q84 0 149.5 16.5t120.5 50t101.5 84t91.5 118.5l-8 4q-79 -122 -188 -191.5t-258 -69.5q-45 0 -83.5 2.5t-82.5 9.5v2q75 26 133 77t105.5 114.5t88.5 134t81.5 136t83.5 119.5t95 84q22 -15 32.5 -38t10.5 -59
q0 -39 -12 -77.5t-32 -69.5t-44.5 -50t-50.5 -19q-16 0 -26 8t-10 25q0 8 3.5 14t8.5 12q-3 7 -11 11.5t-15 4.5q-15 0 -24.5 -10.5t-9.5 -24.5q0 -23 18.5 -37.5t53.5 -14.5q33 0 69.5 15.5t66.5 41.5t49.5 60t19.5 72q0 48 -19 84t-63 61q20 12 45.5 21.5t48.5 17.5z" />
    <glyph glyph-name="Q" unicode="Q" horiz-adv-x="722" 
d="M608 415q-18 -17 -34.5 -31t-36 -24.5t-42.5 -16t-53 -5.5q-53 0 -80 29t-27 80t23.5 96.5t62 80.5t86 55.5t95.5 20.5q30 0 53.5 -10t40 -28t25 -42.5t8.5 -52.5q0 -59 -23.5 -114.5t-61.5 -105t-86 -92.5t-98.5 -79t-98.5 -63.5t-85 -46.5q-36 8 -79 13.5t-81 5.5
q-65 0 -105.5 -13t-40.5 -44q0 -18 22.5 -27t55.5 -9q45 0 89.5 9.5t93.5 31.5q14 -7 36.5 -17t49.5 -19.5t56.5 -16t58.5 -6.5q68 0 128.5 27t113 69.5t96.5 94.5t79 101l-6 4q-27 -34 -61 -76.5t-76.5 -80t-95 -62.5t-116.5 -25q-59 0 -109.5 10.5t-95.5 24.5
q43 19 97.5 49.5t110.5 69t109 83.5t94.5 94.5t67 101t25.5 102.5q0 40 -12.5 68.5t-35.5 47t-54 27t-69 8.5q-63 0 -120.5 -22.5t-102 -58.5t-70.5 -81.5t-26 -91.5q0 -59 38.5 -95.5t100.5 -36.5q53 0 94.5 21.5t77.5 60.5zM6 33q0 11 7.5 18t18 11t22.5 5.5t21 1.5
q37 0 74 -8t69 -22q-9 -4 -26 -10t-37.5 -11.5t-42 -9.5t-39.5 -4q-67 0 -67 29z" />
    <glyph glyph-name="R" unicode="R" horiz-adv-x="889" 
d="M464 434q0 -36 -13 -74t-37.5 -69t-59 -51t-77.5 -20q-49 0 -76 32t-27 87q0 57 22 105.5t59 89t86 71.5t102.5 52t109 32t105.5 11q39 0 80 -6t74 -23q-71 -34 -129.5 -97t-109 -138t-95 -153t-89 -142t-90 -104.5t-97.5 -40.5q-23 0 -41 10.5t-21 23.5q14 -1 21 10
t7 23q0 13 -8.5 22t-22.5 9q-19 0 -30 -11t-11 -29t9 -31.5t22.5 -22t30.5 -12.5t33 -4q72 0 133 41.5t115 107t102.5 144.5t95 154.5t93 137t97.5 91.5q19 -14 28.5 -37t9.5 -48q0 -43 -14 -81t-39.5 -66.5t-61.5 -45t-80 -16.5q-11 0 -21 1t-21 3l-4 -10q33 -5 53.5 -17
t20.5 -50q0 -25 -11 -58t-25 -66t-25.5 -64t-11.5 -53q0 -34 20.5 -51t55.5 -17q84 0 183 104q45 46 76.5 90.5t54.5 80.5l-9 4q-68 -108 -145 -183q-44 -43 -83.5 -63.5t-69.5 -20.5q-29 0 -29 32q0 20 10 50.5t22 63.5q12 34 21.5 66t9.5 54q0 34 -15.5 55.5t-46.5 34.5v2
q45 0 88 10.5t76.5 34t54 61t20.5 90.5q0 81 -76 124q20 11 43.5 20t47.5 12l-1 6q-12 -1 -26 -4.5t-28.5 -8t-27.5 -9.5t-23 -9q-33 17 -78.5 24t-88.5 7q-60 0 -122.5 -13t-120.5 -37t-109 -57.5t-89 -74.5t-60 -88t-22 -97q0 -63 37.5 -100t100.5 -37q44 0 80.5 19.5
t63 51.5t41.5 72.5t15 82.5h-12z" />
    <glyph glyph-name="S" unicode="S" horiz-adv-x="556" 
d="M32 257q-26 0 -42 -23t-16 -58q0 -42 14.5 -77t41.5 -60.5t64.5 -40t82.5 -14.5q56 0 109 16t96 56t72.5 107.5t36.5 170.5q3 42 6.5 85t10.5 83.5t18.5 76.5t30.5 63t46.5 42.5t66.5 15.5q29 0 50 -17.5t21 -53.5q0 -24 -5.5 -40t-16.5 -33q31 0 53.5 16t22.5 48
q0 41 -33 66.5t-86 25.5q-59 0 -104.5 -27t-76 -76.5t-47 -120.5t-17.5 -160q-1 -55 -14 -114t-42 -107.5t-76 -79.5t-115 -31q-40 0 -73 11t-56.5 29t-36 42t-12.5 50q0 19 3.5 36t14.5 29q3 -5 9.5 -7.5t11.5 -2.5q15 0 24 10.5t9 25.5q0 17 -11.5 27.5t-34.5 10.5z" />
    <glyph glyph-name="T" unicode="T" horiz-adv-x="778" 
d="M639 494q1 -10 1 -20v-19q0 -35 -17.5 -68t-48.5 -58.5t-74 -41t-95 -15.5q-74 0 -114.5 30.5t-40.5 90.5q0 51 34.5 95t101.5 76.5t164.5 51t223.5 18.5q45 0 98 -4t98 -4v-2q-55 -10 -100.5 -42.5t-85.5 -78.5t-76 -101.5t-71.5 -112t-71.5 -109t-76.5 -93.5t-87.5 -66
t-103 -25q-59 0 -99 25t-45 73q5 -2 12 -2q13 0 23 9t10 24q0 16 -10.5 26.5t-26.5 10.5q-23 0 -35.5 -15.5t-12.5 -37.5q0 -35 16.5 -59t42 -38.5t56.5 -21t59 -6.5q74 0 133 26t105 64t79.5 81t55.5 77q64 99 107 173.5t83 124t86.5 74t116.5 24.5q36 0 59.5 0.5t37.5 2.5
t19.5 7.5t5.5 14.5q0 14 -10 21.5t-22 7.5q-14 0 -33.5 -3t-48.5 -3q-33 0 -79 3t-102 3q-182 0 -305 -27.5t-198 -69.5t-107.5 -93t-32.5 -99q0 -59 40.5 -96t122.5 -37q55 0 101 16t79.5 43.5t52 63t18.5 74.5v18t-1 19h-12z" />
    <glyph glyph-name="U" unicode="U" horiz-adv-x="833" 
d="M909 696q-106 -168 -180 -285.5t-122 -182.5q-18 -25 -53.5 -62.5t-77.5 -72.5t-86 -60t-80 -25q-14 0 -26 10t-12 34q0 31 23.5 76.5t58.5 99t76 111t76 112t58.5 102t23.5 80.5q0 39 -26.5 59t-68.5 20q-60 0 -116 -25.5t-99.5 -65.5t-70 -88.5t-26.5 -93.5
q0 -42 22.5 -63.5t61.5 -21.5q20 0 39 7.5t35.5 19.5t30.5 27.5t23 30.5l-11 2q-8 -13 -19.5 -26t-26.5 -24t-32.5 -18t-37.5 -7q-40 0 -56.5 21t-16.5 53q0 45 26.5 91.5t68 84t93 61t101.5 23.5q23 0 40.5 -9.5t17.5 -34.5q0 -33 -24 -80t-59.5 -102t-77.5 -113.5
t-77.5 -113.5t-59.5 -103t-24 -82t20.5 -52t55.5 -18q37 0 76 18t76 45t70 58t57 57l2 -2q-11 -17 -21.5 -42t-10.5 -47q0 -39 19 -63t61 -24q43 0 86.5 23.5t86.5 62t84.5 87t80.5 98.5l-8 3q-33 -41 -73 -87t-82 -85t-84 -64.5t-78 -25.5q-24 0 -34.5 13.5t-10.5 35.5
q0 33 28.5 87t80 132.5t122 183.5t154.5 240h-67z" />
    <glyph glyph-name="V" unicode="V" horiz-adv-x="722" 
d="M699 712q-25 -22 -58.5 -36.5t-68.5 -24.5t-69.5 -17.5t-60.5 -15.5q-33 -9 -74 -23t-77 -36.5t-60.5 -55t-24.5 -79.5q0 -43 28.5 -67.5t70.5 -24.5q23 0 43.5 9t35.5 24t23.5 34t8.5 40q0 11 -1 20t-2 17h-11q2 -9 2 -17v-18q0 -21 -8 -39t-21.5 -30.5t-31 -20
t-35.5 -7.5q-30 0 -52 19t-22 54q0 42 22.5 73.5t55.5 55t71.5 38.5t71.5 24q51 14 100 25.5t91 33.5l2 -2q-57 -37 -97 -87t-69 -107.5t-51.5 -119.5t-44.5 -124t-47.5 -120.5t-60.5 -109.5l5 -5q64 38 123 74l118 72q50 31 102.5 69t101 80t91.5 87t75.5 89.5t51 88
t18.5 82.5q0 29 -9.5 46.5t-35.5 17.5q-17 0 -28 -11t-11 -28q0 -13 4.5 -22t17.5 -13q0 -23 -10 -69t-47 -107.5t-110 -135.5t-199 -155q-48 -31 -100.5 -63.5t-111.5 -67.5l-2 2q46 49 77 106.5t55.5 118.5t46.5 124t49.5 122t64.5 112.5t91 95.5z" />
    <glyph glyph-name="W" unicode="W" horiz-adv-x="944" 
d="M671 704q-3 -4 -11.5 -8.5t-27.5 -11.5t-51.5 -17t-85.5 -25q-64 -18 -121 -38t-99 -45t-66.5 -57.5t-24.5 -77.5t27.5 -69t69.5 -24q25 0 46.5 8.5t37 24.5t24.5 37.5t9 46.5q0 6 -0.5 12t-1.5 12h-12q1 -6 1.5 -12t0.5 -12q0 -19 -7 -38t-20.5 -34t-32.5 -24t-42 -9
q-32 0 -52 20t-20 57q0 40 21.5 70.5t57 54t80.5 41.5t91.5 33.5t90.5 28.5t77 28l2 -2q-58 -39 -97.5 -86.5t-67 -99.5t-47.5 -107.5t-38 -111t-38.5 -110.5t-49.5 -105q-4 -7 -12.5 -13.5t-17.5 -13.5t-16 -13t-7 -12q0 -10 14 -10q11 0 19.5 6t17.5 16t20.5 23t26.5 27
q52 47 107.5 101.5t108.5 110t99 107.5t79 93l2 -1q-28 -57 -50.5 -120t-44.5 -125.5t-48 -121t-62 -108.5l6 -8q14 14 37 31.5t49.5 36t54.5 37t52 34.5q34 23 81 58t97.5 77t100 90.5t88.5 97.5t63.5 98t24.5 93q0 10 -2 20.5t-7.5 19t-14 14t-20.5 5.5q-17 0 -28.5 -10.5
t-11.5 -26.5q0 -13 5.5 -24.5t16.5 -17.5q-6 -61 -34 -118t-70 -109.5t-94.5 -100.5t-108 -90.5t-110.5 -79.5t-101 -68l-2 2q37 45 61.5 95.5t44 103t36.5 105t38.5 102.5t49.5 94.5t70 81.5q6 5 14 12t14.5 14.5t11.5 15t5 13.5q0 7 -4 10.5t-9 3.5q-14 0 -31 -12
t-35 -30.5t-36 -41.5t-33 -44.5t-27.5 -39.5t-18.5 -27q-19 -27 -48 -61.5t-63.5 -72.5t-72.5 -78t-76.5 -79t-75 -75t-67.5 -65l-2 2q31 47 54.5 100.5t44.5 110t42.5 112.5t48 108t59.5 97.5t78 79.5z" />
    <glyph glyph-name="X" unicode="X" horiz-adv-x="833" 
d="M518 421q-11 -24 -28 -47.5t-38 -42t-44.5 -30t-49.5 -11.5q-25 0 -43.5 10.5t-30.5 27.5t-18 38.5t-6 43.5q0 61 22.5 114t57.5 92t79.5 61.5t87.5 22.5q30 0 51.5 -10.5t35.5 -28.5t20.5 -42t6.5 -51q0 -54 -19.5 -117t-53 -126t-79 -121t-97 -102.5t-106.5 -71
t-109 -26.5q-26 0 -43.5 8t-19.5 19q5 4 10.5 10t5.5 20q0 17 -10 28t-27 11q-15 0 -26 -12t-11 -32q0 -30 34 -47t85 -17t104.5 22t102.5 57t90 78t66 85l2 -2q-9 -29 -14 -57t-5 -55q0 -25 6 -48t20 -41t36 -28.5t54 -10.5q42 0 86 22t87.5 59.5t86 86.5t80.5 103l-7 3
q-23 -32 -59.5 -76.5t-79 -85t-89 -68.5t-89.5 -28q-24 0 -38 12t-21.5 30.5t-10 42t-2.5 45.5q0 53 19 114t52 122t76.5 117.5t92 100.5t99 70t98.5 26q35 0 46 -10t14.5 -22.5t7.5 -22.5t26 -10q14 0 22 9.5t8 22.5q0 29 -24 39t-62 10q-37 0 -80.5 -10.5t-91.5 -38
t-99 -74.5t-101 -120l-2 2q8 23 13.5 49t5.5 52q0 78 -42.5 113t-111.5 35q-68 0 -123.5 -30t-95 -75.5t-61 -99.5t-21.5 -101q0 -57 33.5 -92.5t91.5 -35.5q30 0 57 12t49.5 32t40 46t29.5 53h-9z" />
    <glyph glyph-name="Y" unicode="Y" horiz-adv-x="778" 
d="M944 696l-261 -400q-39 -59 -87.5 -112t-98 -93t-95.5 -63.5t-78 -23.5q-13 0 -25 9t-12 35q0 29 24.5 75t61 100t79.5 112.5t79.5 113t61 101.5t24.5 78q0 45 -24.5 64.5t-72.5 19.5q-52 0 -108.5 -25.5t-103.5 -65t-78 -87.5t-31 -94q0 -33 18 -59.5t60 -26.5
q48 0 83.5 26t58.5 61l-8 1q-12 -15 -25 -29t-28.5 -24.5t-34.5 -16.5t-42 -6q-31 0 -45.5 20.5t-14.5 51.5q0 50 30 97t74.5 84t95.5 59t93 22q24 0 36.5 -12.5t12.5 -32.5q0 -33 -24.5 -81t-61 -103t-79.5 -113t-79.5 -111.5t-61 -99.5t-24.5 -77q0 -38 20 -58t64 -20
q38 0 80.5 20.5t84.5 52t80.5 70t67.5 73.5l2 -2q-26 -35 -57.5 -85t-67.5 -104t-76.5 -107t-83.5 -95.5t-89 -68.5t-93 -26q-57 0 -92.5 30.5t-35.5 83.5q0 54 23.5 80t52.5 26q18 0 36 -6t35 -13l4 8q-17 11 -41 19t-47 8q-22 0 -43.5 -8t-37.5 -22.5t-26 -36t-10 -48.5
q0 -34 14 -59t37.5 -41.5t54 -24.5t63.5 -8q66 0 125 27.5t112 73.5t101 105t93 122l429 660h-68z" />
    <glyph glyph-name="Z" unicode="Z" horiz-adv-x="667" 
d="M783 265q-25 -41 -55.5 -82t-65 -73.5t-73.5 -53t-82 -20.5q-30 0 -61.5 11.5t-62.5 25t-61 24.5t-57 11q-42 0 -75.5 -14t-64.5 -30l-2 2q43 31 105 81t131 109.5t139.5 121.5t132 116.5t108.5 96t68 57.5q11 8 23 16t22 14.5t17 12.5t7 11q0 10 -12 10q-15 0 -26 -13.5
t-27.5 -29.5t-43.5 -29.5t-75 -13.5q-39 0 -73.5 11t-67.5 24t-66.5 24t-69.5 11q-38 0 -73.5 -11t-62.5 -32.5t-43.5 -53t-16.5 -72.5q0 -54 31.5 -83t75.5 -29q19 0 36 5.5t29 11.5l-2 11q-14 -7 -29.5 -11.5t-34.5 -4.5q-38 0 -66 26.5t-28 75.5q0 29 10.5 54.5
t28.5 44.5t42.5 29.5t53.5 10.5q28 0 57 -12.5t60.5 -27.5t66.5 -27.5t75 -12.5q37 0 75.5 14.5t66.5 31.5l2 -2q-58 -49 -126 -107.5t-138 -119t-138.5 -119.5t-127 -109.5t-104 -89t-69.5 -58.5q-9 -8 -17.5 -16.5t-8.5 -18.5q0 -3 1 -6.5t7 -3.5t18.5 15t32 33t47 33
t64.5 15q29 0 56.5 -13.5t56 -30t59 -30.5t64.5 -14q50 0 99 22t93.5 59.5t83 86.5t68.5 102z" />
    <glyph glyph-name="bracketleft" unicode="[" horiz-adv-x="389" 
d="M-164 -289h213l4 12h-163l619 964h159l5 12h-204z" />
    <glyph glyph-name="backslash" unicode="\" horiz-adv-x="222" 
d="M350 259q0 5 -6 5t-12 -9.5t-24 -32.5q-49 -64 -93 -106.5t-79.5 -70t-61.5 -41.5t-40 -21q-6 -3 -6 -6q0 -5 3 -5t20 7.5t46.5 26.5t70 52t89.5 84q9 10 24.5 28t31 36.5t26.5 33.5t11 19z" />
    <glyph glyph-name="bracketright" unicode="]" horiz-adv-x="389" 
d="M373 699l-5 -12h163l-621 -964h-159l-4 -12h205l633 988h-212z" />
    <glyph glyph-name="asciicircum" unicode="^" horiz-adv-x="600" 
d="M248 166l154 306l155 -306h39l-184 364h-20l-184 -364h40z" />
    <glyph glyph-name="underscore" unicode="_" horiz-adv-x="500" 
d="M500 -125v50h-500v-50h500z" />
    <glyph glyph-name="grave" unicode="`" horiz-adv-x="222" 
d="M96 572q-11 0 -16.5 -9.5t-5.5 -17.5q0 -21 19 -45t42.5 -45t45 -35t25.5 -14q5 0 5 4t-11.5 13t-25.5 22.5t-26 30t-14 34.5q-2 26 -11.5 44t-26.5 18z" />
    <glyph glyph-name="a" unicode="a" 
d="M354 285h-2q-3 13 -8.5 25t-15.5 21.5t-25 15t-35 5.5q-42 0 -89 -29t-87 -72.5t-66 -93t-26 -90.5q0 -29 15 -52t52 -23q22 0 46 11t46.5 27t42 34.5t32.5 32.5l2 -1q-5 -14 -9.5 -27.5t-4.5 -27.5q0 -20 13.5 -34.5t42.5 -14.5q35 0 75 27.5t80 68.5t76.5 88.5
t63.5 88.5l-6 2q-36 -54 -76 -102t-78 -84t-70.5 -56.5t-53.5 -20.5q-27 0 -27 26q0 18 16 49.5t42.5 73t60.5 90.5t71 101h-65zM60 64q0 45 22.5 94t55.5 89.5t70 66.5t67 26q19 0 32 -12t13 -35q0 -29 -12 -61t-31 -63t-43.5 -58.5t-49.5 -48.5t-48 -33.5t-40 -12.5
t-26.5 12.5t-9.5 35.5z" />
    <glyph glyph-name="b" unicode="b" 
d="M384 690q-78 -118 -136 -205.5t-99 -151t-67.5 -106.5t-41.5 -72t-21 -48.5t-6 -35.5q0 -38 24.5 -58.5t59.5 -20.5q43 0 88.5 21.5t86 56t71 77t43.5 83.5q17 -14 37 -22.5t43 -8.5q33 0 60 17.5t43 37.5l-7 7q-17 -22 -41.5 -37t-53.5 -15q-26 0 -47 11t-30 23
q4 20 4 44q0 29 -9.5 47t-26.5 18q-15 0 -21.5 -9.5t-6.5 -23.5q0 -12 5 -22.5t5 -21.5q0 -33 -23.5 -79t-58.5 -89t-76.5 -73t-77.5 -30q-19 0 -31 12.5t-12 32.5q0 15 5 31.5t19 43.5t40.5 69t70 108.5t106 162t148.5 228.5z" />
    <glyph glyph-name="c" unicode="c" horiz-adv-x="333" 
d="M448 257q-28 -43 -69.5 -88.5t-86.5 -80.5q-43 -34 -88.5 -57t-80.5 -23q-26 0 -38.5 19t-12.5 46q0 44 22 91t53.5 86t67 64.5t61.5 25.5q35 0 35 -37q0 -11 -3 -21.5t-7 -20.5q9 1 20.5 3.5t21 7.5t16 13t6.5 20q0 26 -21.5 36.5t-50.5 10.5q-44 0 -93.5 -26t-91 -67.5
t-69 -91.5t-27.5 -98q0 -38 25 -57.5t62 -19.5q52 0 106 27.5t108 72.5q44 37 81.5 79.5t60.5 79.5z" />
    <glyph glyph-name="d" unicode="d" 
d="M611 692l-258 -411h-3q1 31 -18 51t-51 20q-43 0 -93 -29t-93.5 -72t-72.5 -93t-29 -92q0 -30 19.5 -52t55.5 -22q26 0 50.5 11.5t46.5 29.5t41.5 38.5t35.5 38.5l2 -1q-8 -14 -16 -32t-8 -37q0 -21 15.5 -34.5t47.5 -13.5q33 0 72 26.5t79 67.5q21 21 41 44.5t37.5 46.5
t32 44.5t23.5 37.5l-8 4q-27 -45 -64 -91.5t-76 -84.5q-45 -43 -77 -63t-57 -20q-11 0 -16.5 6.5t-5.5 17.5q0 18 19.5 56.5t52.5 91.5t75.5 116.5t88.5 131.5t92 137t85 131h-66zM322 280q0 -20 -12.5 -47.5t-32.5 -56.5t-45 -58t-51 -51.5t-49.5 -36.5t-41.5 -14
q-21 0 -29 14t-8 35q0 23 11 52t29 59.5t41.5 60t48.5 52.5t49.5 37t44.5 14q29 0 37 -18t8 -42z" />
    <glyph glyph-name="e" unicode="e" horiz-adv-x="333" 
d="M300 312q0 -26 -22 -48.5t-52.5 -39.5t-63.5 -28.5t-55 -15.5q10 22 29.5 50t43.5 52.5t48.5 41t45.5 16.5q11 0 18.5 -7t7.5 -21zM454 264q-30 -49 -72 -95t-88 -82t-90.5 -57.5t-77.5 -21.5q-14 0 -23.5 6t-15 15.5t-8 21t-2.5 23.5q0 25 7 50t18 45q33 7 76 21.5
t80.5 33t63.5 41t26 46.5q0 20 -14 30.5t-39 10.5q-45 0 -94 -27t-90 -68t-67.5 -89.5t-26.5 -92.5q0 -40 23 -61.5t65 -21.5q34 0 69.5 12.5t70.5 34t67.5 49t61 57t51 59.5t37.5 55z" />
    <glyph glyph-name="f" unicode="f" horiz-adv-x="222" 
d="M143 332q-46 -73 -90 -146.5t-87.5 -141t-87 -125.5t-89 -101t-94.5 -67.5t-103 -24.5q-56 0 -85 30.5t-29 82.5q0 37 21 58t51 23v8h-9q-58 0 -82.5 -27.5t-24.5 -66.5q0 -30 13 -52.5t34 -37.5t48.5 -22.5t57.5 -7.5q85 0 155 35t140 110t146 192t172 281h232v12h-226
q32 52 67.5 111.5t73 110.5t76 84.5t75.5 33.5q23 0 32.5 -12t9.5 -32q0 -17 -2.5 -29.5t-6.5 -26.5q23 2 38 17.5t15 39.5q0 28 -20 41.5t-52 13.5q-54 0 -103 -31.5t-94 -82t-86 -113.5t-80 -125h-77v-12h71z" />
    <glyph glyph-name="g" unicode="g" 
d="M390 344l-37 -57h-3q0 26 -17.5 45.5t-56.5 19.5q-27 0 -59 -12.5t-63.5 -33.5t-60.5 -48.5t-51 -59t-35.5 -64.5t-13.5 -64q0 -13 4 -27t13 -25.5t23 -18.5t33 -7q26 0 50 10.5t46 27t41.5 36t35.5 38.5l2 -2q-20 -28 -46 -67.5t-57.5 -82t-67 -84.5t-74.5 -75.5
t-81.5 -54t-86.5 -20.5q-26 0 -48 5.5t-38.5 17.5t-26 31t-9.5 46q0 41 19 65.5t58 24.5h8v8q-7 2 -13.5 3t-16.5 1q-47 0 -78 -28.5t-31 -71.5q0 -26 12.5 -47t35 -36t53.5 -23t67 -8q61 0 114 21t96.5 52.5t78 68.5t59.5 70t40 56t20 26q17 2 56 15.5t88 43.5t101.5 80
t96.5 125l-4 6q-25 -43 -61.5 -85t-79.5 -77t-91.5 -60t-98.5 -36q57 83 110.5 167t113.5 165h-69zM274 340q23 0 32.5 -13t9.5 -30q0 -33 -12.5 -66.5t-32 -64.5t-44.5 -58.5t-49.5 -48t-47 -32t-36.5 -11.5q-18 0 -29.5 13.5t-11.5 35.5q0 42 22 90t55.5 89t72 68.5
t71.5 27.5z" />
    <glyph glyph-name="h" unicode="h" 
d="M387 689q-49 -78 -104 -163.5t-112.5 -173.5t-115.5 -177t-113 -175h65q12 24 33.5 58t50 72t60.5 75.5t64.5 67.5t63 48.5t55.5 18.5q13 0 22 -6t9 -22q0 -13 -11.5 -31.5t-29 -40.5t-37.5 -46.5t-37.5 -49t-29 -48.5t-11.5 -44q0 -28 16.5 -44t42.5 -16q25 0 54 14.5
t58.5 38t59 53t55 59.5t45.5 57t31 46l-6 2q-9 -16 -28.5 -41.5t-44 -54t-53.5 -57.5t-58.5 -52.5t-57 -38t-50.5 -14.5q-11 0 -17.5 7.5t-6.5 18.5q0 14 11.5 34.5t29 44t37.5 48.5t37.5 49.5t29 46.5t11.5 38q0 61 -61 61q-35 0 -70 -20t-66.5 -49t-58.5 -61.5t-47 -57.5
l-2 2l354 526z" />
    <glyph glyph-name="i" unicode="i" horiz-adv-x="222" 
d="M168 344q-47 -71 -80.5 -119.5t-54.5 -82.5t-30.5 -57.5t-9.5 -44.5q0 -18 13 -33t40 -15q24 0 52.5 14t58.5 37t59 52t55 58.5t46.5 57.5t32.5 48l-8 5q-9 -17 -28.5 -43.5t-45 -55t-54.5 -57.5t-58 -52t-55.5 -37.5t-46.5 -14.5q-21 0 -21 26q0 13 10.5 34t34 57
t61.5 90t93 133h-64zM290 530q-14 0 -23 -9.5t-9 -23.5t9 -23.5t23 -9.5t23 9.5t9 23.5t-9 23.5t-23 9.5z" />
    <glyph glyph-name="j" unicode="j" horiz-adv-x="222" 
d="M156 344l-173 -279q-35 -57 -76 -118t-88 -112t-101.5 -84t-116.5 -33q-56 0 -90 25.5t-34 84.5q0 30 20.5 55t61.5 25h7v9q-5 1 -12 2t-15 1q-20 0 -39.5 -6.5t-35.5 -19t-25.5 -30.5t-9.5 -40q0 -30 14 -52t37 -37t53 -22t62 -7q68 0 127.5 26t110 68t92.5 94.5
t75 105.5q55 8 105.5 32.5t94.5 60t82.5 79.5t69.5 91l-9 4q-34 -51 -73.5 -95t-83 -77.5t-89 -55t-90.5 -28.5l211 333h-62zM280 530q-14 0 -23 -9.5t-9 -23.5t9 -23.5t23 -9.5t23 9.5t9 23.5t-9 23.5t-23 9.5z" />
    <glyph glyph-name="k" unicode="k" 
d="M384 689q-112 -175 -222.5 -345.5t-221.5 -343.5h66q17 33 41 70.5t51.5 75t57 72t58 61t53.5 42t44 15.5q14 0 24 -10t10 -31q0 -24 -10.5 -43t-29.5 -32.5t-44.5 -20.5t-55.5 -7q-11 0 -18.5 1t-13.5 1q-15 0 -15 -9t15 -9q17 0 30.5 4t23.5 4q17 0 17 -19
q0 -9 -7 -23.5t-15 -31t-15 -34t-7 -31.5q0 -27 16.5 -40t46.5 -13q35 0 77 24t89 71q49 49 85.5 96t55.5 74l-9 6q-38 -55 -71 -94t-65 -71q-46 -46 -87 -70t-68 -24q-16 0 -16 19q0 14 4.5 27.5t10.5 27.5t10.5 27t4.5 25q0 18 -8.5 34.5t-20.5 22.5v2q21 4 46.5 12
t47 21.5t36 32t14.5 42.5q0 23 -14.5 39t-47.5 16q-32 0 -61.5 -15t-57 -38.5t-53 -53t-51.5 -58.5l-2 2q88 122 170 247.5t164 255.5z" />
    <glyph glyph-name="l" unicode="l" horiz-adv-x="222" 
d="M385 696q-77 -122 -136 -212.5t-102.5 -156t-73 -110.5t-47.5 -76.5t-25.5 -54t-7.5 -43.5q0 -23 13.5 -37t44.5 -14q29 0 64.5 21t84.5 67q37 35 77 82.5t76 98.5l-11 4q-38 -54 -78 -101.5t-78.5 -83t-72 -56t-58.5 -20.5q-22 0 -22 25q0 12 6.5 29t23.5 46t47 74.5
t77 115.5t113 168.5t155 233.5h-70z" />
    <glyph glyph-name="m" unicode="m" horiz-adv-x="667" 
d="M7 0q12 24 33 58.5t48.5 72.5t58.5 75.5t63 67t63 48t56 18.5q28 0 28 -27q0 -15 -19 -46.5t-47 -74t-60.5 -92.5t-60.5 -100h64q19 41 45 82.5t55.5 79t60.5 70t60.5 57t56.5 38t47 13.5q11 0 18.5 -5.5t7.5 -19.5q0 -12 -11.5 -31t-29 -42t-37.5 -48t-37.5 -50
t-29 -48.5t-11.5 -42.5q0 -26 15 -43.5t46 -17.5q30 0 65.5 20.5t74 56.5t79.5 84.5t82 104.5l-8 4q-42 -57 -83 -104.5t-78.5 -81.5t-70 -53t-56.5 -19q-11 0 -18.5 7t-7.5 19q0 14 11.5 34.5t29 44.5t37.5 50t37.5 51.5t29 48.5t11.5 40q0 25 -14.5 39t-43.5 14
q-33 0 -68.5 -19.5t-69 -49t-63 -63.5t-50.5 -64l-2 2q8 12 22 31t27.5 39.5t23.5 40.5t10 34q0 24 -15.5 36.5t-39.5 12.5q-39 0 -76 -22t-69.5 -53t-59.5 -64.5t-46 -56.5l-2 2l132 186h-61q-23 -39 -51.5 -83.5t-58 -90t-58 -89.5t-50.5 -81h65z" />
    <glyph glyph-name="n" unicode="n" 
d="M155 341q-21 -34 -47.5 -75.5t-55.5 -86t-58.5 -90t-55.5 -89.5h62q11 23 33 57.5t50 72t60.5 75t65 68t63.5 49t56 18.5q13 0 21 -6t8 -18q0 -25 -24 -58t-53 -69t-53 -71.5t-24 -65.5q0 -28 19 -44t48 -16q22 0 44.5 9.5t45.5 26t46 38.5t45 46q37 40 68.5 81.5
t51.5 71.5l-7 4q-9 -14 -24.5 -35t-34.5 -44.5t-39.5 -47.5t-40.5 -44q-50 -51 -86 -72.5t-68 -21.5q-28 0 -28 28q0 13 11.5 32.5t28.5 43t37 49.5t37 51t28.5 47t11.5 38q0 26 -16.5 42.5t-46.5 16.5q-34 0 -68.5 -20.5t-66.5 -50.5t-60 -63.5t-49 -58.5l-2 2l132 183z
" />
    <glyph glyph-name="o" unicode="o" 
d="M561 258q-23 -24 -49.5 -39t-56.5 -15q-34 0 -53.5 19.5t-21.5 42.5q-2 38 -24.5 62t-63.5 24q-35 0 -69.5 -13.5t-65.5 -36t-57.5 -51t-46 -58t-30.5 -58.5t-11 -51q0 -42 22 -67t65 -25q47 0 92 24t82.5 60t64.5 79t37 81h2q11 -17 31 -29.5t48 -12.5q29 0 59 16t54 43
zM66 60q0 27 10 58t27.5 62t39.5 60t46.5 51t48.5 35.5t45 13.5q22 0 32.5 -14.5t10.5 -35.5q0 -25 -9 -55.5t-24.5 -62.5t-36.5 -62t-45.5 -53.5t-51 -38t-53.5 -14.5q-20 0 -30 15t-10 41z" />
    <glyph glyph-name="p" unicode="p" 
d="M292 538q-137 -218 -277.5 -431.5t-275.5 -430.5h62q16 28 37 63t44 72.5t46.5 74.5t44.5 69t38 57t26 38q12 16 30 43.5t40 59.5t47.5 64.5t51.5 59t51.5 43t48.5 16.5q14 0 24 -10.5t10 -45.5q0 -22 -7 -47.5t-18 -49.5t-24.5 -45.5t-26.5 -36.5q-22 -2 -54 -6.5
t-61.5 -13t-50 -22.5t-20.5 -35q0 -17 13.5 -24.5t27.5 -7.5q27 0 53 11.5t50 28t45.5 34.5t38.5 31q25 6 53 12t61 21.5t72 46.5t84 86l-8 4q-58 -72 -116.5 -108t-130.5 -49l-2 2q15 15 29.5 32.5t26 38t18.5 44t7 49.5q0 42 -22 59t-54 17q-28 0 -55 -13.5t-50 -34
t-43 -44t-35 -43.5l-2 2q52 82 109 160t110 159h-66zM133 4q-11 0 -20 6t-9 18q0 18 16.5 28.5t40 16.5t49 9.5t42.5 6.5l2 -2q-6 -7 -20 -21t-31.5 -28t-36 -24t-33.5 -10z" />
    <glyph glyph-name="q" unicode="q" 
d="M386 344l-34 -57h-2q0 23 -19 44t-52 21q-27 0 -59 -13t-64.5 -34.5t-62.5 -50t-53 -59.5t-37 -62.5t-14 -59.5q0 -35 18 -58t56 -23q30 0 55 11t46.5 28t40.5 38t37 40l2 -2q-78 -105 -149 -214t-145 -217h64q51 83 103.5 164t106.5 161q60 11 112 37t96 61.5t79.5 77
t60.5 82.5l-6 5q-25 -37 -57.5 -76.5t-74 -74.5t-92 -62t-111.5 -39l215 332h-60zM274 340q26 0 35 -14.5t9 -37.5t-12 -53t-32 -61t-45 -61t-50 -53.5t-49 -37.5t-41 -14q-40 0 -40 49q0 23 10 52.5t27 61t39.5 62t47.5 54.5t51 38.5t50 14.5z" />
    <glyph glyph-name="r" unicode="r" horiz-adv-x="333" 
d="M161 344q-57 -88 -111 -173t-108 -171h65q16 38 37.5 74t41.5 58q55 62 104 107.5t90 73.5l2 -2q-11 -19 -11 -43q0 -35 19.5 -54.5t51.5 -19.5q18 0 35 6.5t32 16.5t28 21.5t23 21.5l-6 4q-9 -8 -21 -18t-25 -19t-27.5 -15t-29.5 -6q-17 0 -28.5 13t-11.5 36
q0 29 16 53.5t33 41.5q-9 1 -17.5 1.5t-19.5 0.5q-18 0 -24 -6t-11 -16q-27 -18 -55 -41t-53.5 -46.5t-47 -46t-35.5 -39.5l-2 2l127 185h-61z" />
    <glyph glyph-name="s" unicode="s" horiz-adv-x="333" 
d="M453 261q-27 -42 -63 -85.5t-78.5 -80t-91.5 -62t-103 -31.5l-2 2q18 3 35.5 13t31.5 24.5t22.5 32t8.5 36.5q0 26 -7.5 47t-16.5 41q-10 20 -17.5 40t-7.5 42q0 25 14 42.5t43 17.5q23 0 35.5 -13.5t12.5 -33.5q0 -13 -4.5 -28.5t-10.5 -26.5q24 0 43.5 12t19.5 38
q0 29 -25 46.5t-65 17.5q-22 0 -42 -6.5t-35.5 -18.5t-24.5 -29.5t-9 -39.5q0 -17 7 -36.5t15 -39.5t14.5 -40.5t6.5 -39.5q0 -18 -5 -36t-15.5 -31.5t-26 -22t-36.5 -8.5q-33 0 -59.5 17.5t-26.5 52.5q0 12 4 23.5t15 17.5q2 -9 8.5 -15t17.5 -6q14 0 21 10t7 24
q0 15 -9.5 22.5t-24.5 7.5q-29 0 -46 -21t-17 -47q0 -25 9.5 -43.5t25 -30.5t36.5 -18t45 -6q63 0 118.5 23.5t102.5 61.5t86.5 85.5t69.5 95.5z" />
    <glyph glyph-name="t" unicode="t" horiz-adv-x="278" 
d="M236 460l-78 -116h-56l-6 -12h54q-28 -44 -54.5 -83t-47.5 -72t-34 -61.5t-13 -51.5q0 -34 22.5 -53t53.5 -19q39 0 82.5 26t86.5 65.5t83.5 87t74.5 90.5l-6 4q-27 -36 -66 -81t-82 -85t-86.5 -67.5t-79.5 -27.5q-17 0 -30 7.5t-13 26.5q0 18 11 41.5t32.5 58t53 82
t71.5 112.5h134l6 12h-132l79 116h-60z" />
    <glyph glyph-name="u" unicode="u" 
d="M166 344q-40 -58 -73.5 -103t-57.5 -81t-37.5 -65t-13.5 -54q0 -20 14 -34.5t46 -14.5q23 0 46.5 10t46.5 26.5t46 38.5t44 46l2 -2q-3 -5 -9.5 -23.5t-6.5 -38.5q0 -26 16.5 -41.5t44.5 -15.5q25 0 53.5 15.5t58 39.5t57.5 54.5t53 60t45 56t32 43.5l-10 3
q-11 -16 -31 -41.5t-44.5 -54.5t-52 -58.5t-55.5 -53t-54 -38t-46 -14.5q-13 0 -20 8.5t-7 20.5q0 17 10 39.5t33.5 58.5t61 87.5t91.5 125.5h-69l-88 -134q-7 -11 -21.5 -30t-34 -41.5t-42 -45.5t-46 -42t-46 -31t-41.5 -12q-13 0 -21 7.5t-8 23.5q0 17 16.5 46.5
t44.5 69.5t64 88t75 101h-66z" />
    <glyph glyph-name="v" unicode="v" 
d="M166 344q-16 -26 -42 -60t-51 -70.5t-43.5 -72t-18.5 -65.5q0 -45 22.5 -64.5t64.5 -19.5q44 0 89.5 22t85.5 56.5t70.5 76t42.5 80.5q14 -12 34 -21.5t42 -9.5q17 0 34 4.5t32 13t27.5 20.5t19.5 27l-8 5q-19 -31 -48.5 -44.5t-55.5 -13.5q-20 0 -41 9.5t-32 24.5
q1 9 2.5 18.5t1.5 20.5q0 39 -10.5 55t-24.5 16q-13 0 -20 -10t-7 -22q0 -11 4 -20t4 -17q0 -33 -22 -80.5t-56 -92t-75 -75.5t-80 -31q-26 0 -37 13t-11 31q0 30 20 71t47.5 82.5t56.5 79.5t48 63h-65z" />
    <glyph glyph-name="w" unicode="w" horiz-adv-x="667" 
d="M169 344q-40 -53 -71.5 -94.5t-53.5 -75t-34 -60t-12 -50.5q0 -33 19 -52.5t57 -19.5q23 0 45 10t43.5 27.5t42.5 41t41 49.5l2 -2q-2 -7 -7 -21.5t-5 -33.5q0 -35 23 -53t56 -18q39 0 83.5 21t85.5 55t74 75.5t49 83.5q15 -14 34.5 -22.5t41.5 -8.5q77 0 111 61l-9 6
q-14 -26 -39 -40.5t-61 -14.5q-27 0 -44.5 10.5t-30.5 22.5q2 11 4 23.5t2 25.5q0 26 -7.5 44t-28.5 18q-30 0 -30 -32q0 -8 2.5 -18t9.5 -20q-4 -43 -28 -92t-58.5 -90.5t-74.5 -68.5t-76 -27q-20 0 -30.5 12t-10.5 32q0 28 20 68.5t48 83t56.5 81.5t46.5 63h-69
q-40 -63 -80.5 -124t-79 -109t-75.5 -77.5t-70 -29.5q-35 0 -35 42q0 27 13.5 55.5t38.5 63t60 78t77 101.5h-66z" />
    <glyph glyph-name="x" unicode="x" horiz-adv-x="500" 
d="M620 269q-13 -23 -35 -51.5t-49 -57.5t-57 -56.5t-60 -48.5t-57 -34t-49 -13q-26 0 -37.5 15.5t-11.5 44.5q0 24 10.5 53t28 59.5t41 59t48.5 51t51 36t49 13.5q28 0 28 -30q0 -10 -4 -21.5t-9 -25.5q10 -2 14 -2q21 0 34 12t13 26q0 22 -18.5 37.5t-50.5 15.5
q-25 0 -49 -8t-45 -20.5t-38.5 -27t-29.5 -27.5q0 18 -6 34t-17 29t-27.5 20.5t-39.5 7.5q-24 0 -43 -8t-34 -21.5t-27.5 -31t-24.5 -36.5l9 -6q8 12 18.5 27.5t24.5 30t30.5 24t35.5 9.5q24 0 35.5 -16.5t11.5 -40.5t-10.5 -55t-28.5 -63t-42 -62.5t-50.5 -54t-55 -38
t-54.5 -14.5q-35 0 -57.5 15t-22.5 43q0 16 12 26q6 -14 25 -14q14 0 21.5 9t7.5 22t-8 23t-27 10q-21 0 -36 -18t-15 -44q0 -38 26.5 -61t73.5 -23q27 0 53 9t49.5 24.5t44 35t36.5 40.5l2 -2q-11 -22 -11 -47q0 -26 19 -43t55 -17q43 0 92.5 28t96.5 70t87 89.5t62 86.5z
" />
    <glyph glyph-name="y" unicode="y" 
d="M165 344q-50 -73 -85.5 -122t-58.5 -83t-33.5 -56.5t-10.5 -42.5q0 -22 14 -35t46 -13q33 0 64 16t58.5 39t50.5 48.5t39 44.5l2 -2q-24 -37 -52.5 -83.5t-61.5 -95t-70 -94t-77.5 -81.5t-84.5 -58t-91 -22q-22 0 -42.5 7t-36.5 20t-26 32.5t-10 44.5q0 37 17 61.5
t53 32.5v3q-49 0 -83.5 -24t-34.5 -76q0 -24 13 -45t35 -36t51.5 -23.5t62.5 -8.5q73 0 131 27.5t106.5 71t89 98t79.5 107.5q94 15 185.5 81.5t163.5 176.5l-7 3q-67 -99 -153.5 -165.5t-181.5 -83.5q56 84 107 169.5t110 166.5h-62q-41 -66 -85.5 -126.5t-87.5 -107
t-81.5 -74.5t-67.5 -28q-28 0 -28 29q0 18 18 48.5t46.5 70.5t64.5 88t72 100h-67z" />
    <glyph glyph-name="z" unicode="z" horiz-adv-x="389" 
d="M514 267q-26 -44 -58.5 -87.5t-66 -78t-67 -56t-60.5 -21.5q-11 0 -24.5 6.5t-29.5 14.5t-34.5 14.5t-39.5 6.5q-17 0 -35.5 -5t-38.5 -13l-2 2q22 14 59.5 41t81 60t87.5 68.5t80 65t59 50.5t23 25q0 8 -6 8t-11.5 -7.5t-14 -16.5t-22.5 -16.5t-39 -7.5q-11 0 -24 5
t-28 11t-33 11t-41 5q-22 0 -38.5 -7.5t-29.5 -20.5t-23.5 -31t-22.5 -39l7 -3q7 10 14.5 22t16 22.5t18.5 17.5t22 7q14 0 29 -5t29.5 -11t28 -11t24.5 -5q21 0 42 7t33 17l2 -2q-69 -57 -138.5 -110.5t-125.5 -95.5t-91.5 -69.5t-35.5 -33.5q0 -7 6 -7q7 0 14 7.5t16 15.5
t20.5 15.5t25.5 7.5q23 0 41 -7.5t35 -16.5t35 -16.5t41 -7.5q38 0 81 27.5t83.5 68t75 88t55.5 87.5z" />
    <glyph glyph-name="braceleft" unicode="{" horiz-adv-x="389" 
d="M408 543q23 37 43.5 63.5t40.5 44t41 25.5t46 8l8 12q-29 0 -57 -5.5t-56.5 -23t-58 -48.5t-61.5 -82l-128 -202q-17 -27 -33.5 -48t-34.5 -36.5t-39.5 -26.5t-50.5 -19q16 -7 24.5 -16.5t8.5 -26.5t-9.5 -37.5t-29.5 -49.5l-127 -202q-20 -32 -33 -59.5t-13 -47.5
t17.5 -36t60.5 -16l9 12q-17 0 -29 12t-12 26q0 17 11.5 41.5t34.5 61.5l121 191q22 35 33.5 58t11.5 44q0 33 -34 44l1 2q31 8 54.5 20t43.5 30t38 42t37 54z" />
    <glyph glyph-name="bar" unicode="|" horiz-adv-x="222" 
d="M196 750v-1000h34v1000h-34z" />
    <glyph glyph-name="braceright" unicode="}" horiz-adv-x="389" 
d="M-13 -133q-23 -37 -43.5 -63.5t-40.5 -44t-41 -25.5t-46 -8l-8 -12q29 0 57 5.5t56.5 23t58 48.5t61.5 82l128 202q17 27 33.5 48t34.5 36.5t40 26.5t50 19q-16 7 -24.5 16.5t-8.5 26.5t9.5 37.5t29.5 49.5l127 202q20 32 33 59.5t13 47.5t-17.5 36t-60.5 16l-9 -12
q17 0 29 -12t12 -26q0 -17 -11.5 -41.5t-34.5 -61.5l-121 -191q-22 -35 -33.5 -58t-11.5 -44q0 -33 34 -44l-1 -2q-31 -7 -54.5 -19.5t-43.5 -30.5t-38 -42t-37 -54z" />
    <glyph glyph-name="asciitilde" unicode="~" horiz-adv-x="600" 
d="M567 227l-18 -26t-19.5 -23t-23 -16.5t-27.5 -6.5q-20 0 -47 12t-55 24q-29 13 -57 22.5t-54 9.5q-25 0 -44.5 -7.5t-34.5 -19.5t-26.5 -27.5t-19.5 -31.5l36 -20q6 13 14 26t19 23t26.5 16.5t36.5 6.5q30 0 54.5 -10.5t48.5 -24.5q25 -14 49.5 -23.5t52.5 -9.5
q23 0 41.5 7.5t33 19.5t27 27.5t23.5 31.5z" />
    <glyph glyph-name="Adieresis" horiz-adv-x="944" 
d="M734 311q-20 -51 -36 -103.5t-16 -109.5q0 -21 5 -40t16 -34t27.5 -23.5t40.5 -8.5q36 0 75.5 26t78.5 65.5t77 87.5t72 91l-7 3q-11 -15 -30 -39.5t-43 -52t-50.5 -55.5t-53.5 -51t-51.5 -37t-43.5 -14q-32 0 -42.5 21.5t-10.5 52.5q0 45 14.5 99t39 112.5t56.5 117.5
t67.5 112.5t72.5 99.5t71 77l-3 4q-54 -15 -106 -45t-100 -68t-90.5 -80.5t-78.5 -83.5t-64.5 -76t-47.5 -59q-44 -54 -92 -105.5t-96.5 -92t-96 -65.5t-90.5 -25q-17 0 -33 4.5t-25 18.5q9 2 14 11t5 18q0 15 -9 26t-25 11q-18 0 -28 -12t-10 -29q0 -9 3.5 -20.5t14 -22
t30 -18t52.5 -7.5q48 0 100 26.5t104.5 71t104.5 102t101 119.5h137zM605 323q43 55 88.5 107t93.5 98t98.5 84t103.5 64l2 -2q-84 -80 -145.5 -169t-106.5 -182h-134zM1132 842q-17 0 -28 -10.5t-11 -27.5q0 -12 6.5 -23t19.5 -11q17 0 27.5 11t10.5 26q0 11 -6.5 23
t-18.5 12zM988 842q-17 0 -28 -10.5t-11 -27.5q0 -12 6.5 -23t19.5 -11q17 0 27.5 11t10.5 26q0 11 -6.5 23t-18.5 12z" />
    <glyph glyph-name="Aring" horiz-adv-x="944" 
d="M734 311q-20 -51 -36 -103.5t-16 -109.5q0 -21 5 -40t16 -34t27.5 -23.5t40.5 -8.5q36 0 75.5 26t78.5 65.5t77 87.5t72 91l-7 3q-11 -15 -30 -39.5t-43 -52t-50.5 -55.5t-53.5 -51t-51.5 -37t-43.5 -14q-32 0 -42.5 21.5t-10.5 52.5q0 45 14.5 99t39 112.5t56.5 117.5
t67.5 112.5t72.5 99.5t71 77l-3 4q-54 -15 -106 -45t-100 -68t-90.5 -80.5t-78.5 -83.5t-64.5 -76t-47.5 -59q-44 -54 -92 -105.5t-96.5 -92t-96 -65.5t-90.5 -25q-17 0 -33 4.5t-25 18.5q9 2 14 11t5 18q0 15 -9 26t-25 11q-18 0 -28 -12t-10 -29q0 -9 3.5 -20.5t14 -22
t30 -18t52.5 -7.5q48 0 100 26.5t104.5 71t104.5 102t101 119.5h137zM605 323q43 55 88.5 107t93.5 98t98.5 84t103.5 64l2 -2q-84 -80 -145.5 -169t-106.5 -182h-134zM968 781q0 -31 18.5 -47t43.5 -16q22 0 42 8.5t35 22.5t24 33.5t9 40.5q0 30 -18.5 46.5t-43.5 16.5
q-22 0 -42 -8.5t-35 -22.5t-24 -33.5t-9 -40.5zM1116 841q0 -16 -7.5 -36t-19.5 -37.5t-27.5 -29.5t-32.5 -12t-27 10.5t-10 26.5t7.5 36t19.5 37.5t27.5 29.5t32.5 12q18 0 27.5 -10.5t9.5 -26.5z" />
    <glyph glyph-name="Ccedilla" unicode="&#x201a;" horiz-adv-x="667" 
d="M534 556q-1 -6 -1 -14v-13q2 -45 30 -63.5t67 -18.5q37 0 72 12.5t62.5 34t44 51.5t16.5 65q0 50 -31 76t-94 26q-51 0 -112.5 -23t-123 -62.5t-119.5 -93t-102.5 -114.5t-71.5 -126.5t-27 -128.5q0 -22 6 -46.5t19.5 -47.5t35 -42t52.5 -30l-46 -76q43 -1 60 -6.5
t17 -29.5q0 -18 -11.5 -29.5t-27.5 -17.5t-34 -8.5t-32 -2.5q-17 0 -34 1t-34 4l-1 -8q18 -7 37 -8t39 -1q16 0 40 3t46.5 11t39 22.5t16.5 37.5q0 17 -9.5 27t-24 15.5t-31.5 7t-33 2.5l32 52q26 -10 64 -10q69 0 122.5 25t89.5 62.5t54.5 80.5t18.5 78q0 60 -30.5 85
t-93.5 25l1 -12q40 0 63.5 -21t23.5 -61q0 -44 -20 -88.5t-53.5 -80.5t-78 -58.5t-93.5 -22.5q-34 0 -58 13.5t-39 36t-22 50.5t-7 56q0 69 24 136t64.5 128t92 113t107 90t109.5 59.5t99 21.5q39 0 62 -14.5t23 -56.5q0 -34 -14.5 -65t-37.5 -54.5t-51 -37t-55 -13.5
q-16 0 -31.5 3.5t-27.5 12t-19.5 22.5t-7.5 35v12q0 6 1 12h-12z" />
    <glyph glyph-name="Eacute" unicode="&#x192;" horiz-adv-x="667" 
d="M342 180q11 16 26.5 32t33.5 28.5t38 20t41 7.5q40 0 58 -23t18 -67q0 -45 -22 -78.5t-55.5 -55.5t-73.5 -33t-76 -11q-39 0 -71.5 14t-55.5 36.5t-36 52.5t-13 61q0 56 18.5 92.5t48.5 62t68.5 43.5t77.5 36q35 16 51 42t16 64q0 29 8 63.5t26 64t48 49t74 19.5
q48 0 75 -21t27 -67q0 -17 -7.5 -39t-22.5 -42t-37.5 -34t-52.5 -14q-31 0 -44 5l-1 -11q5 -2 18 -4t27 -2q28 0 57 9t53 27t39 44t15 59q0 27 -12.5 46.5t-32 32t-43.5 18t-48 5.5q-58 0 -101.5 -18t-72 -48.5t-42.5 -70t-14 -83.5q0 -29 -2 -46.5t-7.5 -28.5t-15.5 -17.5
t-27 -14.5q-43 -19 -84.5 -40t-73 -48t-51 -63t-19.5 -86q0 -36 15.5 -66t45 -52t72 -34t97.5 -12q50 0 101.5 18t93.5 47t69 64.5t27 71.5q0 40 -27 67.5t-81 27.5t-95.5 -26t-72.5 -69zM699 892q-17 0 -26.5 -18t-11.5 -44q-1 -18 -13.5 -34.5t-26.5 -30t-25.5 -22.5
t-11.5 -13t5 -4t26 14t44.5 35t42.5 45t19 45q0 8 -5.5 17.5t-16.5 9.5z" />
    <glyph glyph-name="Ntilde" unicode="&#x201e;" horiz-adv-x="722" 
d="M1004 543q15 5 30 14t27 21.5t19.5 27.5t7.5 33q0 28 -20.5 46.5t-54.5 18.5q-32 0 -66 -17.5t-69 -49.5t-70 -75.5t-70 -96.5q-24 -37 -51 -85t-52.5 -98t-48.5 -99.5t-41 -89.5l-2 2q10 36 14 67t4 60q0 52 -6 98t-13 89t-13 83.5t-6 81.5q0 34 3 55.5t7 36.5t9 25.5
t8 20.5q-14 0 -24.5 -9t-17.5 -21.5t-10.5 -26t-5.5 -23.5q-25 -57 -57 -125.5t-68.5 -137.5t-77 -134.5t-84 -115.5t-89 -80.5t-91.5 -30.5q-19 0 -28 7t-10 12q8 2 10.5 9.5t2.5 14.5q0 13 -8.5 21.5t-21.5 8.5q-16 0 -27 -10.5t-11 -26.5q0 -14 7.5 -24t19 -16t25 -9
t25.5 -3q54 0 104 32t95.5 83.5t86 115.5t74 129t60 123.5t45.5 98.5h2q0 -19 -0.5 -36.5t-0.5 -35.5q0 -50 6 -99t13 -98q7 -50 13 -99t6 -99q0 -56 -12 -115h7q56 128 115.5 248t122.5 218q20 30 48 67t61 69t68 54t68 22q22 0 35.5 -12.5t13.5 -32.5t-8.5 -42.5
t-27.5 -33.5v-6zM828 776q17 -2 31 4t24.5 16.5t16 25t5.5 28.5q0 6 -5 6q-7 0 -7 -9q0 -13 -15.5 -24t-36.5 -11q-14 0 -32.5 5.5t-37.5 13.5t-35.5 13.5t-28.5 5.5q-19 0 -33 -7t-23 -17.5t-13.5 -23t-4.5 -24.5q0 -10 4 -10t7.5 7t9 15t14.5 15t23 7q17 0 33.5 -5.5
t33.5 -12.5t34.5 -12.5t35.5 -5.5z" />
    <glyph glyph-name="Odieresis" unicode="&#x2026;" horiz-adv-x="778" 
d="M698 583q0 18 -3.5 35.5t-12.5 31t-25 21.5t-41 8h-14l-2 2q11 8 28.5 13.5t35.5 5.5q25 0 39.5 -11.5t21.5 -29t9 -38.5t2 -40q0 -91 -28.5 -180t-76.5 -166q-124 77 -124 232q0 30 7 59t18 55t25 47.5t28 36.5q6 2 12 2h12q24 0 39.5 -7t23.5 -18.5t11 -26.5t3 -32h12z
M232 146q0 81 28.5 164.5t75 155.5t106 124.5t122.5 71.5l2 -2q-21 -23 -35 -49.5t-23 -52.5t-13 -51.5t-4 -47.5q0 -74 34 -134.5t100 -99.5q-19 -33 -52 -71t-72.5 -70.5t-81.5 -54t-79 -21.5q-27 0 -47.5 12.5t-34 32.5t-20 44.5t-6.5 48.5zM897 270q-32 -29 -71 -47
t-79 -18q-28 0 -50.5 4.5t-42.5 13.5q23 32 46 73t41.5 86t30.5 90.5t12 85.5q0 76 -28 115t-89 39q-26 0 -48.5 -10.5t-37.5 -24.5q-36 -6 -80.5 -29.5t-90.5 -60.5t-89.5 -85t-77.5 -103.5t-54.5 -116t-20.5 -122.5q0 -77 39.5 -122.5t118.5 -45.5q45 0 92 21.5t90 54
t79.5 71.5t60.5 74q20 -8 43 -14t55 -6q19 0 40 5t42 14t40.5 22t34.5 29zM777 842q-17 0 -28 -10.5t-11 -27.5q0 -12 6.5 -23t19.5 -11q17 0 27.5 11t10.5 26q0 11 -6.5 23t-18.5 12zM633 842q-17 0 -28 -10.5t-11 -27.5q0 -12 6.5 -23t19.5 -11q17 0 27.5 11t10.5 26
q0 11 -6.5 23t-18.5 12z" />
    <glyph glyph-name="Udieresis" unicode="&#x2020;" horiz-adv-x="833" 
d="M909 696q-106 -168 -180 -285.5t-122 -182.5q-18 -25 -53.5 -62.5t-77.5 -72.5t-86 -60t-80 -25q-14 0 -26 10t-12 34q0 31 23.5 76.5t58.5 99t76 111t76 112t58.5 102t23.5 80.5q0 39 -26.5 59t-68.5 20q-60 0 -116 -25.5t-99.5 -65.5t-70 -88.5t-26.5 -93.5
q0 -42 22.5 -63.5t61.5 -21.5q20 0 39 7.5t35.5 19.5t30.5 27.5t23 30.5l-11 2q-8 -13 -19.5 -26t-26.5 -24t-32.5 -18t-37.5 -7q-40 0 -56.5 21t-16.5 53q0 45 26.5 91.5t68 84t93 61t101.5 23.5q23 0 40.5 -9.5t17.5 -34.5q0 -33 -24 -80t-59.5 -102t-77.5 -113.5
t-77.5 -113.5t-59.5 -103t-24 -82t20.5 -52t55.5 -18q37 0 76 18t76 45t70 58t57 57l2 -2q-11 -17 -21.5 -42t-10.5 -47q0 -39 19 -63t61 -24q43 0 86.5 23.5t86.5 62t84.5 87t80.5 98.5l-8 3q-33 -41 -73 -87t-82 -85t-84 -64.5t-78 -25.5q-24 0 -34.5 13.5t-10.5 35.5
q0 33 28.5 87t80 132.5t122 183.5t154.5 240h-67zM857 842q-17 0 -28 -10.5t-11 -27.5q0 -12 6.5 -23t19.5 -11q17 0 27.5 11t10.5 26q0 11 -6.5 23t-18.5 12zM713 842q-17 0 -28 -10.5t-11 -27.5q0 -12 6.5 -23t19.5 -11q17 0 27.5 11t10.5 26q0 11 -6.5 23t-18.5 12z" />
    <glyph glyph-name="aacute" unicode="&#x2021;" 
d="M354 285h-2q-3 13 -8.5 25t-15.5 21.5t-25 15t-35 5.5q-42 0 -89 -29t-87 -72.5t-66 -93t-26 -90.5q0 -29 15 -52t52 -23q22 0 46 11t46.5 27t42 34.5t32.5 32.5l2 -1q-5 -14 -9.5 -27.5t-4.5 -27.5q0 -20 13.5 -34.5t42.5 -14.5q35 0 75 27.5t80 68.5t76.5 88.5
t63.5 88.5l-6 2q-36 -54 -76 -102t-78 -84t-70.5 -56.5t-53.5 -20.5q-27 0 -27 26q0 18 16 49.5t42.5 73t60.5 90.5t71 101h-65zM60 64q0 45 22.5 94t55.5 89.5t70 66.5t67 26q19 0 32 -12t13 -35q0 -29 -12 -61t-31 -63t-43.5 -58.5t-49.5 -48.5t-48 -33.5t-40 -12.5
t-26.5 12.5t-9.5 35.5zM425 572q-17 0 -26.5 -18t-11.5 -44q-1 -18 -13.5 -34.5t-26.5 -30t-25.5 -22.5t-11.5 -13t5 -4t26 14t44.5 35t42.5 45t19 45q0 8 -5.5 17.5t-16.5 9.5z" />
    <glyph glyph-name="agrave" unicode="&#x2c6;" 
d="M354 285h-2q-3 13 -8.5 25t-15.5 21.5t-25 15t-35 5.5q-42 0 -89 -29t-87 -72.5t-66 -93t-26 -90.5q0 -29 15 -52t52 -23q22 0 46 11t46.5 27t42 34.5t32.5 32.5l2 -1q-5 -14 -9.5 -27.5t-4.5 -27.5q0 -20 13.5 -34.5t42.5 -14.5q35 0 75 27.5t80 68.5t76.5 88.5
t63.5 88.5l-6 2q-36 -54 -76 -102t-78 -84t-70.5 -56.5t-53.5 -20.5q-27 0 -27 26q0 18 16 49.5t42.5 73t60.5 90.5t71 101h-65zM60 64q0 45 22.5 94t55.5 89.5t70 66.5t67 26q19 0 32 -12t13 -35q0 -29 -12 -61t-31 -63t-43.5 -58.5t-49.5 -48.5t-48 -33.5t-40 -12.5
t-26.5 12.5t-9.5 35.5zM230 572q-11 0 -16.5 -9.5t-5.5 -17.5q0 -21 19 -45t42.5 -45t45 -35t25.5 -14q5 0 5 4t-11.5 13t-25.5 22.5t-26 30t-14 34.5q-2 26 -11.5 44t-26.5 18z" />
    <glyph glyph-name="acircumflex" unicode="&#x2030;" 
d="M354 285h-2q-3 13 -8.5 25t-15.5 21.5t-25 15t-35 5.5q-42 0 -89 -29t-87 -72.5t-66 -93t-26 -90.5q0 -29 15 -52t52 -23q22 0 46 11t46.5 27t42 34.5t32.5 32.5l2 -1q-5 -14 -9.5 -27.5t-4.5 -27.5q0 -20 13.5 -34.5t42.5 -14.5q35 0 75 27.5t80 68.5t76.5 88.5
t63.5 88.5l-6 2q-36 -54 -76 -102t-78 -84t-70.5 -56.5t-53.5 -20.5q-27 0 -27 26q0 18 16 49.5t42.5 73t60.5 90.5t71 101h-65zM60 64q0 45 22.5 94t55.5 89.5t70 66.5t67 26q19 0 32 -12t13 -35q0 -29 -12 -61t-31 -63t-43.5 -58.5t-49.5 -48.5t-48 -33.5t-40 -12.5
t-26.5 12.5t-9.5 35.5zM230 406q35 23 66.5 50.5t61.5 56.5q15 -29 32.5 -54.5t43.5 -54.5l8 5q-26 42 -41 80.5t-15 82.5h-16q-32 -43 -68.5 -82.5t-75.5 -76.5z" />
    <glyph glyph-name="adieresis" unicode="&#x160;" 
d="M354 285h-2q-3 13 -8.5 25t-15.5 21.5t-25 15t-35 5.5q-42 0 -89 -29t-87 -72.5t-66 -93t-26 -90.5q0 -29 15 -52t52 -23q22 0 46 11t46.5 27t42 34.5t32.5 32.5l2 -1q-5 -14 -9.5 -27.5t-4.5 -27.5q0 -20 13.5 -34.5t42.5 -14.5q35 0 75 27.5t80 68.5t76.5 88.5
t63.5 88.5l-6 2q-36 -54 -76 -102t-78 -84t-70.5 -56.5t-53.5 -20.5q-27 0 -27 26q0 18 16 49.5t42.5 73t60.5 90.5t71 101h-65zM60 64q0 45 22.5 94t55.5 89.5t70 66.5t67 26q19 0 32 -12t13 -35q0 -29 -12 -61t-31 -63t-43.5 -58.5t-49.5 -48.5t-48 -33.5t-40 -12.5
t-26.5 12.5t-9.5 35.5zM430 522q-17 0 -28 -10.5t-11 -27.5q0 -12 6.5 -23t19.5 -11q17 0 27.5 11t10.5 26q0 11 -6.5 23t-18.5 12zM286 522q-17 0 -28 -10.5t-11 -27.5q0 -12 6.5 -23t19.5 -11q17 0 27.5 11t10.5 26q0 11 -6.5 23t-18.5 12z" />
    <glyph glyph-name="atilde" unicode="&#x2039;" 
d="M354 285h-2q-3 13 -8.5 25t-15.5 21.5t-25 15t-35 5.5q-42 0 -89 -29t-87 -72.5t-66 -93t-26 -90.5q0 -29 15 -52t52 -23q22 0 46 11t46.5 27t42 34.5t32.5 32.5l2 -1q-5 -14 -9.5 -27.5t-4.5 -27.5q0 -20 13.5 -34.5t42.5 -14.5q35 0 75 27.5t80 68.5t76.5 88.5
t63.5 88.5l-6 2q-36 -54 -76 -102t-78 -84t-70.5 -56.5t-53.5 -20.5q-27 0 -27 26q0 18 16 49.5t42.5 73t60.5 90.5t71 101h-65zM60 64q0 45 22.5 94t55.5 89.5t70 66.5t67 26q19 0 32 -12t13 -35q0 -29 -12 -61t-31 -63t-43.5 -58.5t-49.5 -48.5t-48 -33.5t-40 -12.5
t-26.5 12.5t-9.5 35.5zM411 456q17 -2 31 4t24.5 16.5t16 25t5.5 28.5q0 6 -5 6q-7 0 -7 -9q0 -13 -15.5 -24t-36.5 -11q-14 0 -32.5 5.5t-37.5 13.5t-35.5 13.5t-28.5 5.5q-19 0 -33 -7t-23 -17.5t-13.5 -23t-4.5 -24.5q0 -10 4 -10t7.5 7t9 15t14.5 15t23 7
q17 0 33.5 -5.5t33.5 -12.5t34.5 -12.5t35.5 -5.5z" />
    <glyph glyph-name="aring" unicode="&#x152;" 
d="M354 285h-2q-3 13 -8.5 25t-15.5 21.5t-25 15t-35 5.5q-42 0 -89 -29t-87 -72.5t-66 -93t-26 -90.5q0 -29 15 -52t52 -23q22 0 46 11t46.5 27t42 34.5t32.5 32.5l2 -1q-5 -14 -9.5 -27.5t-4.5 -27.5q0 -20 13.5 -34.5t42.5 -14.5q35 0 75 27.5t80 68.5t76.5 88.5
t63.5 88.5l-6 2q-36 -54 -76 -102t-78 -84t-70.5 -56.5t-53.5 -20.5q-27 0 -27 26q0 18 16 49.5t42.5 73t60.5 90.5t71 101h-65zM60 64q0 45 22.5 94t55.5 89.5t70 66.5t67 26q19 0 32 -12t13 -35q0 -29 -12 -61t-31 -63t-43.5 -58.5t-49.5 -48.5t-48 -33.5t-40 -12.5
t-26.5 12.5t-9.5 35.5zM266 461q0 -31 18.5 -47t43.5 -16q22 0 42 8.5t35 22.5t24 33.5t9 40.5q0 30 -18.5 46.5t-43.5 16.5q-22 0 -42 -8.5t-35 -22.5t-24 -33.5t-9 -40.5zM414 521q0 -16 -7.5 -36t-19.5 -37.5t-27.5 -29.5t-32.5 -12t-27 10.5t-10 26.5t7.5 36t19.5 37.5
t27.5 29.5t32.5 12q18 0 27.5 -10.5t9.5 -26.5z" />
    <glyph glyph-name="ccedilla" horiz-adv-x="333" 
d="M448 257q-28 -43 -69.5 -88.5t-86.5 -80.5q-43 -34 -88.5 -57t-80.5 -23q-26 0 -38.5 19t-12.5 46q0 44 22 91t53.5 86t67 64.5t61.5 25.5q35 0 35 -37q0 -11 -3 -21.5t-7 -20.5q9 1 20.5 3.5t21 7.5t16 13t6.5 20q0 26 -21.5 36.5t-50.5 10.5q-44 0 -93.5 -26t-91 -67.5
t-69 -91.5t-27.5 -98q0 -35 21.5 -54t53.5 -21l-43 -72q43 -1 60 -6.5t17 -29.5q0 -18 -11.5 -29.5t-27.5 -17.5t-34 -8.5t-32 -2.5q-18 0 -35 1t-34 4l-1 -8q18 -7 37.5 -8t39.5 -1q16 0 40 3t46.5 11t39 22.5t16.5 37.5q0 17 -9.5 27t-24 15.5t-31.5 7t-33 2.5l30 50h2
q52 0 106 27.5t108 72.5q44 37 81.5 79.5t60.5 79.5z" />
    <glyph glyph-name="eacute" horiz-adv-x="333" 
d="M300 312q0 -26 -22 -48.5t-52.5 -39.5t-63.5 -28.5t-55 -15.5q10 22 29.5 50t43.5 52.5t48.5 41t45.5 16.5q11 0 18.5 -7t7.5 -21zM454 264q-30 -49 -72 -95t-88 -82t-90.5 -57.5t-77.5 -21.5q-14 0 -23.5 6t-15 15.5t-8 21t-2.5 23.5q0 25 7 50t18 45q33 7 76 21.5
t80.5 33t63.5 41t26 46.5q0 20 -14 30.5t-39 10.5q-45 0 -94 -27t-90 -68t-67.5 -89.5t-26.5 -92.5q0 -40 23 -61.5t65 -21.5q34 0 69.5 12.5t70.5 34t67.5 49t61 57t51 59.5t37.5 55zM388 572q-17 0 -26.5 -18t-11.5 -44q-1 -18 -13.5 -34.5t-26.5 -30t-25.5 -22.5
t-11.5 -13t5 -4t26 14t44.5 35t42.5 45t19 45q0 8 -5.5 17.5t-16.5 9.5z" />
    <glyph glyph-name="egrave" horiz-adv-x="333" 
d="M300 312q0 -26 -22 -48.5t-52.5 -39.5t-63.5 -28.5t-55 -15.5q10 22 29.5 50t43.5 52.5t48.5 41t45.5 16.5q11 0 18.5 -7t7.5 -21zM454 264q-30 -49 -72 -95t-88 -82t-90.5 -57.5t-77.5 -21.5q-14 0 -23.5 6t-15 15.5t-8 21t-2.5 23.5q0 25 7 50t18 45q33 7 76 21.5
t80.5 33t63.5 41t26 46.5q0 20 -14 30.5t-39 10.5q-45 0 -94 -27t-90 -68t-67.5 -89.5t-26.5 -92.5q0 -40 23 -61.5t65 -21.5q34 0 69.5 12.5t70.5 34t67.5 49t61 57t51 59.5t37.5 55zM193 572q-11 0 -16.5 -9.5t-5.5 -17.5q0 -21 19 -45t42.5 -45t45 -35t25.5 -14q5 0 5 4
t-11.5 13t-25.5 22.5t-26 30t-14 34.5q-2 26 -11.5 44t-26.5 18z" />
    <glyph glyph-name="ecircumflex" horiz-adv-x="333" 
d="M300 312q0 -26 -22 -48.5t-52.5 -39.5t-63.5 -28.5t-55 -15.5q10 22 29.5 50t43.5 52.5t48.5 41t45.5 16.5q11 0 18.5 -7t7.5 -21zM454 264q-30 -49 -72 -95t-88 -82t-90.5 -57.5t-77.5 -21.5q-14 0 -23.5 6t-15 15.5t-8 21t-2.5 23.5q0 25 7 50t18 45q33 7 76 21.5
t80.5 33t63.5 41t26 46.5q0 20 -14 30.5t-39 10.5q-45 0 -94 -27t-90 -68t-67.5 -89.5t-26.5 -92.5q0 -40 23 -61.5t65 -21.5q34 0 69.5 12.5t70.5 34t67.5 49t61 57t51 59.5t37.5 55zM193 406q35 23 66.5 50.5t61.5 56.5q15 -29 32.5 -54.5t43.5 -54.5l8 5q-26 42 -41 80.5
t-15 82.5h-16q-32 -43 -68.5 -82.5t-75.5 -76.5z" />
    <glyph glyph-name="edieresis" unicode="&#x2018;" horiz-adv-x="333" 
d="M300 312q0 -26 -22 -48.5t-52.5 -39.5t-63.5 -28.5t-55 -15.5q10 22 29.5 50t43.5 52.5t48.5 41t45.5 16.5q11 0 18.5 -7t7.5 -21zM454 264q-30 -49 -72 -95t-88 -82t-90.5 -57.5t-77.5 -21.5q-14 0 -23.5 6t-15 15.5t-8 21t-2.5 23.5q0 25 7 50t18 45q33 7 76 21.5
t80.5 33t63.5 41t26 46.5q0 20 -14 30.5t-39 10.5q-45 0 -94 -27t-90 -68t-67.5 -89.5t-26.5 -92.5q0 -40 23 -61.5t65 -21.5q34 0 69.5 12.5t70.5 34t67.5 49t61 57t51 59.5t37.5 55zM393 522q-17 0 -28 -10.5t-11 -27.5q0 -12 6.5 -23t19.5 -11q17 0 27.5 11t10.5 26
q0 11 -6.5 23t-18.5 12zM249 522q-17 0 -28 -10.5t-11 -27.5q0 -12 6.5 -23t19.5 -11q17 0 27.5 11t10.5 26q0 11 -6.5 23t-18.5 12z" />
    <glyph glyph-name="iacute" unicode="&#x2019;" horiz-adv-x="222" 
d="M168 344q-47 -71 -80.5 -119.5t-54.5 -82.5t-30.5 -57.5t-9.5 -44.5q0 -18 13 -33t40 -15q24 0 52.5 14t58.5 37t59 52t55 58.5t46.5 57.5t32.5 48l-8 5q-9 -17 -28.5 -43.5t-45 -55t-54.5 -57.5t-58 -52t-55.5 -37.5t-46.5 -14.5q-21 0 -21 26q0 13 10.5 34t34 57
t61.5 90t93 133h-64zM332 572q-17 0 -26.5 -18t-11.5 -44q-1 -18 -13.5 -34.5t-26.5 -30t-25.5 -22.5t-11.5 -13t5 -4t26 14t44.5 35t42.5 45t19 45q0 8 -5.5 17.5t-16.5 9.5z" />
    <glyph glyph-name="igrave" unicode="&#x201c;" horiz-adv-x="222" 
d="M168 344q-47 -71 -80.5 -119.5t-54.5 -82.5t-30.5 -57.5t-9.5 -44.5q0 -18 13 -33t40 -15q24 0 52.5 14t58.5 37t59 52t55 58.5t46.5 57.5t32.5 48l-8 5q-9 -17 -28.5 -43.5t-45 -55t-54.5 -57.5t-58 -52t-55.5 -37.5t-46.5 -14.5q-21 0 -21 26q0 13 10.5 34t34 57
t61.5 90t93 133h-64zM137 572q-11 0 -16.5 -9.5t-5.5 -17.5q0 -21 19 -45t42.5 -45t45 -35t25.5 -14q5 0 5 4t-11.5 13t-25.5 22.5t-26 30t-14 34.5q-2 26 -11.5 44t-26.5 18z" />
    <glyph glyph-name="icircumflex" unicode="&#x201d;" horiz-adv-x="222" 
d="M168 344q-47 -71 -80.5 -119.5t-54.5 -82.5t-30.5 -57.5t-9.5 -44.5q0 -18 13 -33t40 -15q24 0 52.5 14t58.5 37t59 52t55 58.5t46.5 57.5t32.5 48l-8 5q-9 -17 -28.5 -43.5t-45 -55t-54.5 -57.5t-58 -52t-55.5 -37.5t-46.5 -14.5q-21 0 -21 26q0 13 10.5 34t34 57
t61.5 90t93 133h-64zM137 406q35 23 66.5 50.5t61.5 56.5q15 -29 32.5 -54.5t43.5 -54.5l8 5q-26 42 -41 80.5t-15 82.5h-16q-32 -43 -68.5 -82.5t-75.5 -76.5z" />
    <glyph glyph-name="idieresis" unicode="&#x2022;" horiz-adv-x="222" 
d="M168 344q-47 -71 -80.5 -119.5t-54.5 -82.5t-30.5 -57.5t-9.5 -44.5q0 -18 13 -33t40 -15q24 0 52.5 14t58.5 37t59 52t55 58.5t46.5 57.5t32.5 48l-8 5q-9 -17 -28.5 -43.5t-45 -55t-54.5 -57.5t-58 -52t-55.5 -37.5t-46.5 -14.5q-21 0 -21 26q0 13 10.5 34t34 57
t61.5 90t93 133h-64zM337 522q-17 0 -28 -10.5t-11 -27.5q0 -12 6.5 -23t19.5 -11q17 0 27.5 11t10.5 26q0 11 -6.5 23t-18.5 12zM193 522q-17 0 -28 -10.5t-11 -27.5q0 -12 6.5 -23t19.5 -11q17 0 27.5 11t10.5 26q0 11 -6.5 23t-18.5 12z" />
    <glyph glyph-name="ntilde" unicode="&#x2013;" 
d="M155 341q-21 -34 -47.5 -75.5t-55.5 -86t-58.5 -90t-55.5 -89.5h62q11 23 33 57.5t50 72t60.5 75t65 68t63.5 49t56 18.5q13 0 21 -6t8 -18q0 -25 -24 -58t-53 -69t-53 -71.5t-24 -65.5q0 -28 19 -44t48 -16q22 0 44.5 9.5t45.5 26t46 38.5t45 46q37 40 68.5 81.5
t51.5 71.5l-7 4q-9 -14 -24.5 -35t-34.5 -44.5t-39.5 -47.5t-40.5 -44q-50 -51 -86 -72.5t-68 -21.5q-28 0 -28 28q0 13 11.5 32.5t28.5 43t37 49.5t37 51t28.5 47t11.5 38q0 26 -16.5 42.5t-46.5 16.5q-34 0 -68.5 -20.5t-66.5 -50.5t-60 -63.5t-49 -58.5l-2 2l132 183z
M388 456q17 -2 31 4t24.5 16.5t16 25t5.5 28.5q0 6 -5 6q-7 0 -7 -9q0 -13 -15.5 -24t-36.5 -11q-14 0 -32.5 5.5t-37.5 13.5t-35.5 13.5t-28.5 5.5q-19 0 -33 -7t-23 -17.5t-13.5 -23t-4.5 -24.5q0 -10 4 -10t7.5 7t9 15t14.5 15t23 7q17 0 33.5 -5.5t33.5 -12.5
t34.5 -12.5t35.5 -5.5z" />
    <glyph glyph-name="oacute" unicode="&#x2014;" 
d="M561 258q-23 -24 -49.5 -39t-56.5 -15q-34 0 -53.5 19.5t-21.5 42.5q-2 38 -24.5 62t-63.5 24q-35 0 -69.5 -13.5t-65.5 -36t-57.5 -51t-46 -58t-30.5 -58.5t-11 -51q0 -42 22 -67t65 -25q47 0 92 24t82.5 60t64.5 79t37 81h2q11 -17 31 -29.5t48 -12.5q29 0 59 16t54 43
zM66 60q0 27 10 58t27.5 62t39.5 60t46.5 51t48.5 35.5t45 13.5q22 0 32.5 -14.5t10.5 -35.5q0 -25 -9 -55.5t-24.5 -62.5t-36.5 -62t-45.5 -53.5t-51 -38t-53.5 -14.5q-20 0 -30 15t-10 41zM402 572q-17 0 -26.5 -18t-11.5 -44q-1 -18 -13.5 -34.5t-26.5 -30t-25.5 -22.5
t-11.5 -13t5 -4t26 14t44.5 35t42.5 45t19 45q0 8 -5.5 17.5t-16.5 9.5z" />
    <glyph glyph-name="ograve" unicode="&#x2dc;" 
d="M561 258q-23 -24 -49.5 -39t-56.5 -15q-34 0 -53.5 19.5t-21.5 42.5q-2 38 -24.5 62t-63.5 24q-35 0 -69.5 -13.5t-65.5 -36t-57.5 -51t-46 -58t-30.5 -58.5t-11 -51q0 -42 22 -67t65 -25q47 0 92 24t82.5 60t64.5 79t37 81h2q11 -17 31 -29.5t48 -12.5q29 0 59 16t54 43
zM66 60q0 27 10 58t27.5 62t39.5 60t46.5 51t48.5 35.5t45 13.5q22 0 32.5 -14.5t10.5 -35.5q0 -25 -9 -55.5t-24.5 -62.5t-36.5 -62t-45.5 -53.5t-51 -38t-53.5 -14.5q-20 0 -30 15t-10 41zM207 572q-11 0 -16.5 -9.5t-5.5 -17.5q0 -21 19 -45t42.5 -45t45 -35t25.5 -14
q5 0 5 4t-11.5 13t-25.5 22.5t-26 30t-14 34.5q-2 26 -11.5 44t-26.5 18z" />
    <glyph glyph-name="ocircumflex" unicode="&#x2122;" 
d="M561 258q-23 -24 -49.5 -39t-56.5 -15q-34 0 -53.5 19.5t-21.5 42.5q-2 38 -24.5 62t-63.5 24q-35 0 -69.5 -13.5t-65.5 -36t-57.5 -51t-46 -58t-30.5 -58.5t-11 -51q0 -42 22 -67t65 -25q47 0 92 24t82.5 60t64.5 79t37 81h2q11 -17 31 -29.5t48 -12.5q29 0 59 16t54 43
zM66 60q0 27 10 58t27.5 62t39.5 60t46.5 51t48.5 35.5t45 13.5q22 0 32.5 -14.5t10.5 -35.5q0 -25 -9 -55.5t-24.5 -62.5t-36.5 -62t-45.5 -53.5t-51 -38t-53.5 -14.5q-20 0 -30 15t-10 41zM207 406q35 23 66.5 50.5t61.5 56.5q15 -29 32.5 -54.5t43.5 -54.5l8 5
q-26 42 -41 80.5t-15 82.5h-16q-32 -43 -68.5 -82.5t-75.5 -76.5z" />
    <glyph glyph-name="odieresis" unicode="&#x161;" 
d="M561 258q-23 -24 -49.5 -39t-56.5 -15q-34 0 -53.5 19.5t-21.5 42.5q-2 38 -24.5 62t-63.5 24q-35 0 -69.5 -13.5t-65.5 -36t-57.5 -51t-46 -58t-30.5 -58.5t-11 -51q0 -42 22 -67t65 -25q47 0 92 24t82.5 60t64.5 79t37 81h2q11 -17 31 -29.5t48 -12.5q29 0 59 16t54 43
zM66 60q0 27 10 58t27.5 62t39.5 60t46.5 51t48.5 35.5t45 13.5q22 0 32.5 -14.5t10.5 -35.5q0 -25 -9 -55.5t-24.5 -62.5t-36.5 -62t-45.5 -53.5t-51 -38t-53.5 -14.5q-20 0 -30 15t-10 41zM407 522q-17 0 -28 -10.5t-11 -27.5q0 -12 6.5 -23t19.5 -11q17 0 27.5 11
t10.5 26q0 11 -6.5 23t-18.5 12zM263 522q-17 0 -28 -10.5t-11 -27.5q0 -12 6.5 -23t19.5 -11q17 0 27.5 11t10.5 26q0 11 -6.5 23t-18.5 12z" />
    <glyph glyph-name="otilde" unicode="&#x203a;" 
d="M561 258q-23 -24 -49.5 -39t-56.5 -15q-34 0 -53.5 19.5t-21.5 42.5q-2 38 -24.5 62t-63.5 24q-35 0 -69.5 -13.5t-65.5 -36t-57.5 -51t-46 -58t-30.5 -58.5t-11 -51q0 -42 22 -67t65 -25q47 0 92 24t82.5 60t64.5 79t37 81h2q11 -17 31 -29.5t48 -12.5q29 0 59 16t54 43
zM66 60q0 27 10 58t27.5 62t39.5 60t46.5 51t48.5 35.5t45 13.5q22 0 32.5 -14.5t10.5 -35.5q0 -25 -9 -55.5t-24.5 -62.5t-36.5 -62t-45.5 -53.5t-51 -38t-53.5 -14.5q-20 0 -30 15t-10 41zM388 456q17 -2 31 4t24.5 16.5t16 25t5.5 28.5q0 6 -5 6q-7 0 -7 -9
q0 -13 -15.5 -24t-36.5 -11q-14 0 -32.5 5.5t-37.5 13.5t-35.5 13.5t-28.5 5.5q-19 0 -33 -7t-23 -17.5t-13.5 -23t-4.5 -24.5q0 -10 4 -10t7.5 7t9 15t14.5 15t23 7q17 0 33.5 -5.5t33.5 -12.5t34.5 -12.5t35.5 -5.5z" />
    <glyph glyph-name="uacute" unicode="&#x153;" 
d="M166 344q-40 -58 -73.5 -103t-57.5 -81t-37.5 -65t-13.5 -54q0 -20 14 -34.5t46 -14.5q23 0 46.5 10t46.5 26.5t46 38.5t44 46l2 -2q-3 -5 -9.5 -23.5t-6.5 -38.5q0 -26 16.5 -41.5t44.5 -15.5q25 0 53.5 15.5t58 39.5t57.5 54.5t53 60t45 56t32 43.5l-10 3
q-11 -16 -31 -41.5t-44.5 -54.5t-52 -58.5t-55.5 -53t-54 -38t-46 -14.5q-13 0 -20 8.5t-7 20.5q0 17 10 39.5t33.5 58.5t61 87.5t91.5 125.5h-69l-88 -134q-7 -11 -21.5 -30t-34 -41.5t-42 -45.5t-46 -42t-46 -31t-41.5 -12q-13 0 -21 7.5t-8 23.5q0 17 16.5 46.5
t44.5 69.5t64 88t75 101h-66zM437 572q-17 0 -26.5 -18t-11.5 -44q-1 -18 -13.5 -34.5t-26.5 -30t-25.5 -22.5t-11.5 -13t5 -4t26 14t44.5 35t42.5 45t19 45q0 8 -5.5 17.5t-16.5 9.5z" />
    <glyph glyph-name="ugrave" 
d="M166 344q-40 -58 -73.5 -103t-57.5 -81t-37.5 -65t-13.5 -54q0 -20 14 -34.5t46 -14.5q23 0 46.5 10t46.5 26.5t46 38.5t44 46l2 -2q-3 -5 -9.5 -23.5t-6.5 -38.5q0 -26 16.5 -41.5t44.5 -15.5q25 0 53.5 15.5t58 39.5t57.5 54.5t53 60t45 56t32 43.5l-10 3
q-11 -16 -31 -41.5t-44.5 -54.5t-52 -58.5t-55.5 -53t-54 -38t-46 -14.5q-13 0 -20 8.5t-7 20.5q0 17 10 39.5t33.5 58.5t61 87.5t91.5 125.5h-69l-88 -134q-7 -11 -21.5 -30t-34 -41.5t-42 -45.5t-46 -42t-46 -31t-41.5 -12q-13 0 -21 7.5t-8 23.5q0 17 16.5 46.5
t44.5 69.5t64 88t75 101h-66zM242 572q-11 0 -16.5 -9.5t-5.5 -17.5q0 -21 19 -45t42.5 -45t45 -35t25.5 -14q5 0 5 4t-11.5 13t-25.5 22.5t-26 30t-14 34.5q-2 26 -11.5 44t-26.5 18z" />
    <glyph glyph-name="ucircumflex" 
d="M166 344q-40 -58 -73.5 -103t-57.5 -81t-37.5 -65t-13.5 -54q0 -20 14 -34.5t46 -14.5q23 0 46.5 10t46.5 26.5t46 38.5t44 46l2 -2q-3 -5 -9.5 -23.5t-6.5 -38.5q0 -26 16.5 -41.5t44.5 -15.5q25 0 53.5 15.5t58 39.5t57.5 54.5t53 60t45 56t32 43.5l-10 3
q-11 -16 -31 -41.5t-44.5 -54.5t-52 -58.5t-55.5 -53t-54 -38t-46 -14.5q-13 0 -20 8.5t-7 20.5q0 17 10 39.5t33.5 58.5t61 87.5t91.5 125.5h-69l-88 -134q-7 -11 -21.5 -30t-34 -41.5t-42 -45.5t-46 -42t-46 -31t-41.5 -12q-13 0 -21 7.5t-8 23.5q0 17 16.5 46.5
t44.5 69.5t64 88t75 101h-66zM242 406q35 23 66.5 50.5t61.5 56.5q15 -29 32.5 -54.5t43.5 -54.5l8 5q-26 42 -41 80.5t-15 82.5h-16q-32 -43 -68.5 -82.5t-75.5 -76.5z" />
    <glyph glyph-name="udieresis" unicode="&#x178;" 
d="M166 344q-40 -58 -73.5 -103t-57.5 -81t-37.5 -65t-13.5 -54q0 -20 14 -34.5t46 -14.5q23 0 46.5 10t46.5 26.5t46 38.5t44 46l2 -2q-3 -5 -9.5 -23.5t-6.5 -38.5q0 -26 16.5 -41.5t44.5 -15.5q25 0 53.5 15.5t58 39.5t57.5 54.5t53 60t45 56t32 43.5l-10 3
q-11 -16 -31 -41.5t-44.5 -54.5t-52 -58.5t-55.5 -53t-54 -38t-46 -14.5q-13 0 -20 8.5t-7 20.5q0 17 10 39.5t33.5 58.5t61 87.5t91.5 125.5h-69l-88 -134q-7 -11 -21.5 -30t-34 -41.5t-42 -45.5t-46 -42t-46 -31t-41.5 -12q-13 0 -21 7.5t-8 23.5q0 17 16.5 46.5
t44.5 69.5t64 88t75 101h-66zM442 522q-17 0 -28 -10.5t-11 -27.5q0 -12 6.5 -23t19.5 -11q17 0 27.5 11t10.5 26q0 11 -6.5 23t-18.5 12zM298 522q-17 0 -28 -10.5t-11 -27.5q0 -12 6.5 -23t19.5 -11q17 0 27.5 11t10.5 26q0 11 -6.5 23t-18.5 12z" />
    <glyph glyph-name="dagger" unicode="&#xa0;" horiz-adv-x="500" 
d="M456 472l109 176q8 11 13.5 22t5.5 20t-5.5 15.5t-16.5 6.5q-15 0 -28 -15t-30 -47l-99 -178h-198l-6 -12h196l-307 -534h27l330 534h205l6 12h-202z" />
    <glyph glyph-name="degree" unicode="&#xa1;" horiz-adv-x="400" 
d="M346 252q30 0 56 11t45 30.5t30 45.5t11 56t-11 56t-30 45.5t-45 30.5t-56 11t-56 -11t-45 -30.5t-30 -45.5t-11 -56t11 -56t30 -45.5t45 -30.5t56 -11zM346 510q23 0 43 -9t35 -25t23.5 -37t8.5 -44t-8.5 -44t-23.5 -36.5t-35 -25t-43 -9.5t-43 9.5t-35 25t-23.5 36.5
t-8.5 44t8.5 44t23.5 37t35 25t43 9z" />
    <glyph glyph-name="cent" unicode="&#xa2;" horiz-adv-x="500" 
d="M448 458l-59 -106q-48 -3 -97.5 -30t-90 -67.5t-66 -89t-25.5 -93.5q0 -78 80 -80l-66 -118l8 -2l67 120q26 0 56 9.5t59.5 24.5t57 34t48.5 39l-5 6q-13 -11 -35 -27t-47.5 -30.5t-52.5 -25t-49 -10.5q-10 0 -19 3l179 323q10 -2 14.5 -12t4.5 -24q0 -10 -2 -18l-4 -16
q8 -2 14 -2q20 0 33 13.5t13 28.5q0 21 -18 32t-47 12l57 104zM204 18q-15 8 -22.5 23.5t-7.5 35.5q0 30 18.5 74.5t48 86.5t67 72t75.5 30z" />
    <glyph glyph-name="sterling" unicode="&#xa3;" horiz-adv-x="741" 
d="M447 266q-16 -32 -34 -64t-39.5 -61.5t-47 -55t-56.5 -45.5l-60 20t-67.5 20.5t-68 15.5t-62.5 6q-34 0 -55 -12.5t-21 -36.5q0 -16 12.5 -27.5t33 -19.5t47.5 -12t56 -4q50 0 90 9t74 21q18 -7 40 -15.5t46.5 -16t50 -12t49.5 -4.5q92 0 162 43t117 126l-7 4
q-42 -71 -99 -108t-141 -37q-47 0 -93 8t-89 28q73 38 129.5 97.5t92.5 132.5h249v12h-244q15 29 34.5 69.5t43.5 84t51.5 87t59.5 77.5t68.5 55t76.5 21q48 0 74 -24.5t26 -75.5q0 -30 -13.5 -66t-36 -66.5t-51.5 -51t-61 -20.5q-29 0 -50 16.5t-21 46.5q0 27 13 51.5
t33.5 44t44.5 33.5t45 21l-2 6q-26 -9 -52 -23.5t-47 -34.5t-34 -45t-13 -54q0 -35 24.5 -54.5t59.5 -19.5t68 17.5t58.5 46t41 65.5t15.5 76q0 52 -32 87.5t-94 35.5q-50 0 -93.5 -19.5t-80.5 -52t-68.5 -75t-58.5 -87.5t-49 -89.5t-40 -82.5h-286v-12h281zM2 90
q15 0 42.5 -5.5t59.5 -14.5t66.5 -21t63.5 -25q-35 -11 -70.5 -16.5t-79.5 -5.5q-63 0 -99.5 15t-36.5 36q0 19 15.5 28t38.5 9z" />
    <glyph glyph-name="section" unicode="&#xa4;" horiz-adv-x="500" 
d="M513 712q-34 0 -66 -11t-56.5 -31.5t-39 -49.5t-14.5 -65q0 -12 3 -26t10 -28q-33 -1 -65.5 -11t-58 -29t-41.5 -47.5t-16 -66.5q0 -36 21 -73t45.5 -73.5t45.5 -73t21 -72.5q0 -33 -12.5 -57t-32.5 -39.5t-46.5 -23t-55.5 -7.5q-50 0 -81 28.5t-31 73.5q0 35 13 60.5
t45 43.5q-7 6 -20 6q-19 0 -37 -7t-31.5 -20t-21.5 -30.5t-8 -38.5q0 -31 13 -55t35.5 -40t53 -24.5t66.5 -8.5q41 0 77 11t63 31t43 49t16 64q0 26 -6 51q35 5 66.5 18.5t56.5 34.5t39.5 48.5t14.5 59.5q0 37 -20.5 73t-44.5 72t-44.5 72t-20.5 73q0 26 8 49.5t23 40.5
t37 27t50 10q43 0 71 -21.5t28 -68.5q0 -31 -9 -46t-16 -24q8 -2 13 -2q13 0 24 6t19 16t12.5 22t4.5 24q0 30 -13 50.5t-33 32.5t-45.5 17.5t-51.5 5.5zM223 366q0 54 37 88.5t96 34.5q16 -31 35.5 -60t36 -56.5t28 -54.5t11.5 -55q0 -57 -37 -88.5t-91 -40.5
q-11 30 -30.5 57t-38.5 54.5t-33 56.5t-14 64z" />
    <glyph glyph-name="bullet" unicode="&#xa5;" horiz-adv-x="500" 
d="M208 348q0 -36 13.5 -67.5t37.5 -55.5t55.5 -37.5t67.5 -13.5t67.5 13.5t55.5 37.5t37.5 55.5t13.5 67.5t-13.5 67.5t-37.5 55.5t-55.5 37.5t-67.5 13.5t-67.5 -13.5t-55.5 -37.5t-37.5 -55.5t-13.5 -67.5z" />
    <glyph glyph-name="paragraph" unicode="&#xa6;" horiz-adv-x="600" 
d="M148 -166l501 832h56l-501 -832h52l467 776q13 21 27.5 34t30.5 19.5t33 8.5t33 2l13 22h-222q-97 0 -170 -34t-121.5 -82t-72.5 -100t-24 -88q0 -53 27.5 -79.5t90.5 -26.5l-272 -452h52z" />
    <glyph glyph-name="germandbls" unicode="&#xa7;" horiz-adv-x="556" 
d="M-435 -76q-5 1 -9.5 1.5t-11.5 0.5q-23 0 -44 -5.5t-36.5 -17t-24.5 -29t-9 -41.5q0 -33 15 -56t39 -37.5t53.5 -21t57.5 -6.5q50 0 98 16.5t91.5 45t82 66t69.5 80.5q73 100 133 193.5t112 176.5t97.5 152t89 119t86.5 77.5t89 27.5q40 0 60.5 -22t20.5 -57
q0 -20 -7 -43t-23 -45.5t-41.5 -44t-62.5 -39.5q-35 -17 -63 -31.5t-47 -30.5t-29 -34.5t-10 -43.5q0 -20 7 -41t15 -43q8 -21 15 -43t7 -44q0 -18 -5.5 -36t-17 -32.5t-29 -23t-42.5 -8.5q-20 0 -34.5 7t-24 17.5t-14 24t-4.5 26.5q0 23 14 39q11 -18 29 -18q15 0 24 8
t9 23t-10 24t-25 9q-29 0 -46 -20.5t-17 -52.5q0 -19 8 -37t22 -31.5t34.5 -22t45.5 -8.5q66 0 121.5 23.5t102.5 61t87 86t76 97.5l-9 4q-31 -42 -65.5 -84t-74.5 -78t-86 -62t-99 -35l-2 2q15 7 30.5 17.5t28 23.5t20 29.5t7.5 35.5q0 24 -7 46t-15 44t-15 43t-7 43
q0 21 4.5 37t16.5 30t33 27t54 27q81 35 119 73t38 89q0 45 -32 75.5t-88 30.5q-58 0 -111.5 -28.5t-104 -79t-99.5 -118.5t-99 -146.5t-102.5 -165t-110.5 -172.5q-25 -38 -60.5 -80.5t-77 -79t-87.5 -60.5t-91 -24q-49 0 -84 28.5t-35 79.5q0 44 22 63t65 19v10z" />
    <glyph glyph-name="registered" unicode="&#xa8;" horiz-adv-x="800" 
d="M432 332q28 -42 47.5 -74.5t34.5 -54.5t27.5 -33t25.5 -11h57v7q-16 8 -39.5 34t-46.5 56l-62 84q37 12 61 40.5t24 72.5q0 24 -10.5 41.5t-27.5 29t-39.5 16.5t-45.5 5h-179v-18q23 0 40 -10.5t17 -42.5v-243q0 -32 -15 -43t-42 -11v-18h166v18q-29 0 -41 13.5t-12 40.5
v101h60zM370 527h49q17 0 33 -3.5t28 -12.5t19.5 -24.5t7.5 -38.5q0 -48 -22 -73t-62 -25h-53v177zM64 348q0 -75 28.5 -141.5t78 -116t116 -78t141.5 -28.5t141.5 28.5t116 78t78 116t28.5 141.5t-28.5 141.5t-78 116t-116 78t-141.5 28.5t-141.5 -28.5t-116 -78t-78 -116
t-28.5 -141.5zM750 348q0 -68 -25 -128t-68.5 -105t-102.5 -71t-126 -26t-126 26t-102.5 71t-68.5 105t-25 128t25 128t68.5 105t102.5 71t126 26t126 -26t102.5 -71t68.5 -105t25 -128z" />
    <glyph glyph-name="copyright" unicode="&#xa9;" horiz-adv-x="800" 
d="M590 255q-7 -17 -17 -33t-25.5 -29t-37 -20.5t-50.5 -7.5q-43 0 -75.5 14.5t-54.5 40.5t-32.5 62t-10.5 78q0 39 11 72t31.5 57t51 38t70.5 14q34 0 57 -8.5t37.5 -22.5t20.5 -31.5t7 -34.5h16v74q0 15 -23 22q-21 7 -45 13t-65 6q-57 0 -100 -19.5t-71 -49.5t-42 -66
t-14 -69q0 -57 18 -97t48.5 -64.5t70.5 -35.5t84 -11q38 0 66.5 6t45.5 11q12 4 19 7.5t7 12.5l17 71h-15zM64 348q0 -75 28.5 -141.5t78 -116t116 -78t141.5 -28.5t141.5 28.5t116 78t78 116t28.5 141.5t-28.5 141.5t-78 116t-116 78t-141.5 28.5t-141.5 -28.5t-116 -78
t-78 -116t-28.5 -141.5zM750 348q0 -68 -25 -128t-68.5 -105t-102.5 -71t-126 -26t-126 26t-102.5 71t-68.5 105t-25 128t25 128t68.5 105t102.5 71t126 26t126 -26t102.5 -71t68.5 -105t25 -128z" />
    <glyph glyph-name="trademark" unicode="&#xaa;" horiz-adv-x="990" 
d="M317 682h56q29 0 45 -22.5t24 -51.5h18v88h-334v-88h18q8 29 23 51.5t46 22.5h54v-322q0 -24 -16 -37t-36 -13v-14h156v14q-26 0 -40 12t-14 36v324zM755 293h9l156 314h3v-247q0 -23 -12 -36.5t-38 -13.5v-14h155v14q-25 0 -40 10t-15 40v261q0 27 15.5 43t47.5 18v14
h-93l-167 -322l-161 322h-109v-14q11 0 23 -4t22.5 -10.5t17.5 -16t7 -20.5v-267q0 -21 -11.5 -37.5t-43.5 -16.5v-14h130v14q-32 0 -42.5 16t-10.5 40v238h2z" />
    <glyph glyph-name="acute" unicode="&#xab;" horiz-adv-x="222" 
d="M291 572q-17 0 -26.5 -18t-11.5 -44q-1 -18 -13.5 -34.5t-26.5 -30t-25.5 -22.5t-11.5 -13t5 -4t26 14t44.5 35t42.5 45t19 45q0 8 -5.5 17.5t-16.5 9.5z" />
    <glyph glyph-name="dieresis" unicode="&#xac;" horiz-adv-x="222" 
d="M296 522q-17 0 -28 -10.5t-11 -27.5q0 -12 6.5 -23t19.5 -11q17 0 27.5 11t10.5 26q0 11 -6.5 23t-18.5 12zM152 522q-17 0 -28 -10.5t-11 -27.5q0 -12 6.5 -23t19.5 -11q17 0 27.5 11t10.5 26q0 11 -6.5 23t-18.5 12z" />
    <glyph glyph-name="AE" unicode="&#xae;" horiz-adv-x="1000" 
d="M443 525q14 -13 20.5 -31t6.5 -37q0 -28 -14.5 -59t-39 -56.5t-57 -42t-68.5 -16.5q-42 0 -66 22.5t-24 66.5q0 24 10.5 53t32.5 58t57 57t84 49t113 34t145 13q39 0 85 -5t84 -10v-2q-33 -19 -73 -55t-80 -79.5t-76.5 -89t-61.5 -84.5q-16 -23 -37 -54.5t-46 -65
t-53.5 -66.5t-59 -59t-62 -42t-62.5 -16q-26 0 -43 9t-20 29q10 0 14.5 10t4.5 18q0 15 -9.5 25t-24.5 10q-19 0 -29 -14.5t-10 -33.5t9.5 -32t24.5 -21.5t32 -12t32 -3.5q40 0 76.5 17t70 44.5t63.5 63t57 72.5t50.5 72.5t43.5 63.5q42 -8 82.5 -9t87.5 -1
q-14 -45 -33 -93.5t-43.5 -89.5t-54 -68.5t-64.5 -31.5q-29 -3 -53 -4.5t-40.5 -3.5t-25.5 -6.5t-9 -13.5q0 -8 7.5 -9t18.5 -1q14 0 32 4.5t38 10.5t41 10.5t41 4.5q48 0 94 -17q8 -3 24.5 -6.5t34.5 -7.5t34.5 -6.5t24.5 -2.5q53 0 100.5 26.5t90.5 67t82 90t73 95.5l-7 2
q-40 -52 -76 -95.5t-77 -75t-92 -49t-122 -17.5q-38 0 -76 4t-76 4q-12 0 -24.5 -1t-23.5 -3v3q43 19 77.5 49.5t61.5 67.5t47.5 79t36.5 84q8 0 26.5 2t38.5 4.5t39 5.5t29 4q-16 -32 -27 -66t-20 -69l6 -2q20 63 61 114t92 92q-11 0 -22 1t-27 1q-7 0 -13 -1.5t-11.5 -6.5
t-12 -14.5t-15.5 -24.5q-13 -6 -30.5 -10.5t-36 -8.5t-38 -6t-36.5 -3q11 38 28.5 79.5t41.5 79t54.5 67t66.5 44.5q20 -2 39 -3.5t39 -1.5q21 0 47.5 2t50 10t40 24t16.5 44q0 20 -10.5 32t-26.5 18t-34.5 8t-33.5 2q-66 0 -119 -21.5t-101 -50.5q-37 5 -71 7.5t-73 2.5
q-139 0 -241 -28.5t-169 -72.5t-100 -96.5t-33 -99.5t26.5 -76.5t74.5 -29.5q33 0 67.5 15t62 40.5t45 59.5t17.5 71q0 22 -9 42t-25 35zM1096 720q19 0 36 -1.5t29.5 -7t20 -14.5t7.5 -24q0 -23 -19 -31t-67 -8q-33 0 -66 3t-62.5 6.5t-52 7.5t-34.5 6q54 33 105 48t103 15
zM825 618q23 -4 59 -9t67 -8v-2q-87 -43 -143.5 -111t-90.5 -161q-24 0 -50 0.5t-49 1.5t-41.5 3t-26.5 5q57 81 127.5 155.5t147.5 125.5z" />
    <glyph glyph-name="Oslash" unicode="&#xaf;" horiz-adv-x="741" 
d="M251 72q-7 26 -10.5 46.5t-3.5 46.5q0 38 13 86.5t36 99.5t55.5 99.5t70.5 86.5t81 61.5t88 23.5q25 0 45.5 -13t31.5 -35zM734 663q-30 28 -64.5 38.5t-72.5 10.5q-72 0 -140.5 -50t-133.5 -131l9 -5q24 28 53.5 59t63.5 56.5t71 42t77 16.5q41 0 69 -16.5t48 -43.5
l-48 -58q-12 23 -33.5 37.5t-55.5 14.5q-48 0 -96.5 -24t-93 -63t-83 -90t-67 -105t-44.5 -107t-16 -96q0 -33 10 -64.5t30 -57.5l-61 -70l7 -7l62 70q15 -19 42.5 -27.5t54.5 -8.5q54 0 108.5 26t105 69t94.5 98.5t76.5 114.5t51 117.5t18.5 107.5q0 21 -1 38.5t-4.5 34
t-10.5 32t-20 33.5l63 74l-7 7zM662 562q3 -8 3.5 -16.5t0.5 -19.5q0 -13 -4 -30.5t-11 -34.5l11 -2q6 14 11 32t5 36q0 11 -1.5 24t-5.5 20l47 57q18 -40 18 -92q0 -45 -15.5 -102.5t-42.5 -117t-64.5 -116.5t-81.5 -101.5t-93 -71.5t-99 -27q-27 0 -52 16.5t-33 44.5z" />
    <glyph glyph-name="plusminus" unicode="&#xb1;" horiz-adv-x="600" 
d="M367 220h-155v-34h155v-125h34v125h155v34h-155v124h-34v-124zM212 0h344v34h-344v-34z" />
    <glyph glyph-name="yen" unicode="&#xb4;" horiz-adv-x="500" 
d="M589 303l8 12h-170l39 61h150l7 12h-149q28 44 66 98t86 101.5t106 80t127 32.5q26 0 41 -7t15 -18q0 -14 -9.5 -25t-32.5 -12q7 -9 17 -14.5t27 -5.5q25 0 35.5 14.5t10.5 31.5t-22.5 32.5t-75.5 15.5q-70 0 -126.5 -23t-101.5 -60t-80.5 -83t-64.5 -92l-2 2q9 27 16 53
t7 59q0 65 -41.5 104.5t-139.5 39.5q-37 0 -78.5 -9t-76 -29t-57.5 -52t-23 -78q0 -31 23 -51.5t54 -20.5q24 0 43 13t30 33l-4 3q-11 -5 -18.5 -8t-19.5 -3q-26 0 -43 15.5t-17 38.5q0 26 11.5 50.5t35 43.5t58.5 30.5t81 11.5q24 0 49.5 -4.5t46 -18t33.5 -37.5t13 -64
q0 -54 -15 -98.5t-45 -89.5h-167l-7 -12h167l-38 -61h-144l-8 -12h144q-24 -40 -52 -82.5t-55 -83t-50.5 -76t-39.5 -61.5l77 8q6 19 27 55t47.5 78.5t54.5 85.5t50 76h170z" />
    <glyph glyph-name="mu" unicode="&#xb5;" 
d="M166 344l-477 -668h68l237 335q7 -8 19 -13.5t31 -5.5q23 0 46.5 10t46.5 26.5t46 38.5t44 46l2 -2q-3 -5 -9.5 -23.5t-6.5 -38.5q0 -26 16.5 -41.5t44.5 -15.5q25 0 53.5 15.5t58 39.5t57.5 54.5t53 60t45 56t32 43.5l-10 3q-11 -16 -31 -41.5t-44.5 -54.5t-52 -58.5
t-55.5 -53t-54 -38t-46 -14.5q-13 0 -20 8.5t-7 20.5q0 17 10 39.5t33.5 58.5t61 87.5t91.5 125.5h-69l-88 -134q-7 -11 -21.5 -30t-34 -41.5t-42 -45.5t-46 -42t-46 -31t-41.5 -12q-13 0 -21 7.5t-8 23.5q0 17 16.5 46.5t44.5 69.5t64 88t75 101h-66z" />
    <glyph glyph-name="ordfeminine" unicode="&#xbb;" horiz-adv-x="266" 
d="M386 498h-1q-5 15 -17 27.5t-39 12.5t-57.5 -17.5t-56.5 -43t-43 -54.5t-17 -52q0 -19 8 -34t36 -15q17 0 32.5 7t29 16.5t25 20t19.5 17.5h2q-2 -5 -4.5 -14t-2.5 -18q0 -12 8.5 -20.5t27.5 -8.5q23 0 53 19l-2 9q-27 -18 -44 -18t-17 13q0 11 10 30t27.5 43.5
t39.5 54.5t46 61h-42zM331 528q16 0 24 -5t8 -19q0 -23 -18.5 -52t-43 -55t-49.5 -43.5t-39 -17.5q-11 0 -14.5 7.5t-3.5 21.5q0 27 14.5 56t35.5 52.5t44.5 39t41.5 15.5z" />
    <glyph glyph-name="ordmasculine" unicode="&#xbc;" horiz-adv-x="266" 
d="M187 377q0 -25 14 -40t38 -15q36 0 69.5 17.5t60 42.5t42 53t15.5 48q0 25 -14.5 40t-42.5 15q-34 0 -67 -17.5t-58.5 -42.5t-41 -53t-15.5 -48zM390 496q0 -20 -12.5 -48.5t-32.5 -54t-45.5 -43.5t-51.5 -18q-13 0 -19 8.5t-6 22.5q0 24 14.5 53t36.5 53.5t47.5 41.5
t46.5 17q11 0 16.5 -9t5.5 -23z" />
    <glyph glyph-name="ae" unicode="&#xbe;" horiz-adv-x="574" 
d="M61 64q0 45 22.5 94t55.5 89.5t70 66.5t67 26q19 0 32 -12t13 -35q0 -29 -12 -61t-31 -63t-43.5 -58.5t-49.5 -48.5t-48 -33.5t-40 -12.5t-26.5 12.5t-9.5 35.5zM536 312q0 -26 -22 -48.5t-52.5 -39.5t-63.5 -28.5t-55 -15.5q10 22 29.5 50t43.5 52.5t48.5 41t45.5 16.5
q11 0 18.5 -7t7.5 -21zM388 344l-33 -59h-2q-3 13 -8.5 25t-15.5 21.5t-25 15t-35 5.5q-42 0 -89 -29t-87 -72.5t-66 -93t-26 -90.5q0 -29 15 -52t52 -23q43 0 93 35.5t100 98.5l2 -2q-10 -22 -10 -49q0 -40 22 -61.5t64 -21.5q34 0 69.5 12.5t70.5 34t67.5 49t61 57
t51 59.5t37.5 55l-8 5q-30 -49 -72 -95t-88 -82t-90.5 -57.5t-77.5 -21.5q-25 0 -36 21.5t-11 44.5q0 25 7 50t18 45q33 7 76 21.5t80.5 33t63.5 41t26 46.5q0 20 -14 30.5t-39 10.5q-26 0 -52.5 -9t-51.5 -25l-2 2l18 24h-55z" />
    <glyph glyph-name="oslash" unicode="&#xbf;" 
d="M69 36q-3 11 -3 24q0 27 10 58t27.5 62t39.5 60t46.5 51t48.5 35.5t45 13.5q17 0 28 -11zM318 321q8 -11 8 -31q0 -25 -9 -55.5t-24.5 -62.5t-36.5 -62t-45.5 -53.5t-51 -38t-53.5 -14.5q-24 0 -33 22zM380 412l-54 -65q-17 5 -34 5q-35 0 -69.5 -13.5t-65.5 -36
t-57.5 -51t-46 -58t-30.5 -58.5t-11 -51q0 -52 33 -76l-53 -63l7 -8l55 66q19 -11 45 -11q47 0 92 24t82.5 60t64.5 79t37 81h2q11 -17 31 -29.5t48 -12.5q29 0 59 16t54 43l-8 5q-23 -24 -49.5 -39t-56.5 -15q-34 0 -53.5 19.5t-21.5 42.5q-3 55 -44 76l52 63z" />
    <glyph glyph-name="questiondown" unicode="&#xc0;" 
d="M322 223q-9 -18 -28.5 -34.5t-43.5 -30.5t-49.5 -25.5t-46.5 -21.5q-29 -13 -56.5 -31.5t-49.5 -40.5t-35 -47.5t-13 -54.5q0 -63 39.5 -93t99.5 -30q34 0 68.5 12.5t63 34t46.5 50.5t18 62q0 42 -24 66.5t-66 24.5q-27 0 -51 -13.5t-38 -33.5l7 -5q16 20 37.5 30
t42.5 10q19 0 31 -8t19 -20t9.5 -27t2.5 -29q0 -30 -14 -55.5t-36 -45t-49 -30.5t-53 -11q-47 0 -73 28t-26 76q0 44 15 79.5t50 64.5q24 20 53.5 34.5t58.5 29.5t55.5 34t44.5 48zM372 278q15 0 26 11t11 26t-11 26t-26 11t-26 -11t-11 -26t11 -26t26 -11z" />
    <glyph glyph-name="exclamdown" unicode="&#xc1;" horiz-adv-x="333" 
d="M216 213q-96 -151 -218 -288q-13 -14 -27.5 -31.5t-14.5 -37.5q0 -14 9.5 -24t23.5 -10q20 0 33 16t30 60q32 83 77.5 159t92.5 152zM275 278q15 0 26 11t11 26t-11 26t-26 11t-26 -11t-11 -26t11 -26t26 -11z" />
    <glyph glyph-name="logicalnot" unicode="&#xc2;" horiz-adv-x="600" 
d="M522 73h34v182h-344v-34h310v-148z" />
    <glyph glyph-name="florin" unicode="&#xc4;" horiz-adv-x="500" 
d="M344 322l-104 -353q-9 -30 -19.5 -66t-24 -67.5t-30.5 -52.5t-40 -21q-20 0 -28.5 12.5t-8.5 29.5q0 15 2.5 28.5t5.5 27.5q-26 0 -41 -15t-15 -38q0 -27 19 -42t51 -15q30 0 52.5 16.5t39.5 40.5t29.5 52t22.5 51q42 101 75 204.5t67 207.5h155v12h-151q5 15 14 45.5
t22 67.5t29 76.5t34.5 71.5t39 52.5t42.5 20.5q15 0 25 -10.5t10 -34.5q0 -13 -5 -28t-16 -25q24 0 42.5 14t18.5 44q0 25 -20 40.5t-47 15.5q-30 0 -57.5 -19.5t-52 -50.5t-45 -70t-37.5 -78t-29 -74t-20 -58h-160v-12h155z" />
    <glyph glyph-name="guillemotleft" unicode="&#xc7;" 
d="M411 334q-55 -42 -108 -85.5t-110 -83.5q32 -38 63.5 -75.5t58.5 -79.5l7 3q-11 42 -32 78.5t-43 73.5q45 38 85.5 79.5t83.5 82.5zM286 334q-55 -42 -108 -85.5t-110 -83.5q32 -38 63.5 -75.5t58.5 -79.5l7 3q-11 42 -32 78.5t-43 73.5q45 38 85.5 79.5t83.5 82.5z" />
    <glyph glyph-name="guillemotright" unicode="&#xc8;" 
d="M163 10q56 42 108.5 85.5t108.5 83.5q-32 37 -63 75t-58 80l-7 -2q11 -42 31.5 -79.5t44.5 -73.5q-45 -38 -86 -79l-83 -83zM38 10q56 42 108.5 85.5t109.5 83.5q-33 37 -64 75t-58 80l-7 -2q11 -42 31.5 -79.5t44.5 -73.5q-45 -38 -86 -79l-83 -83z" />
    <glyph glyph-name="ellipsis" unicode="&#xc9;" horiz-adv-x="1000" 
d="M179 74q-15 0 -26 -11t-11 -26t11 -26t26 -11t26 11t11 26t-11 26t-26 11zM512 74q-15 0 -26 -11t-11 -26t11 -26t26 -11t26 11t11 26t-11 26t-26 11zM845 74q-15 0 -26 -11t-11 -26t11 -26t26 -11t26 11t11 26t-11 26t-26 11z" />
    <glyph glyph-name="Agrave" unicode="&#xcb;" horiz-adv-x="944" 
d="M734 311q-20 -51 -36 -103.5t-16 -109.5q0 -21 5 -40t16 -34t27.5 -23.5t40.5 -8.5q36 0 75.5 26t78.5 65.5t77 87.5t72 91l-7 3q-11 -15 -30 -39.5t-43 -52t-50.5 -55.5t-53.5 -51t-51.5 -37t-43.5 -14q-32 0 -42.5 21.5t-10.5 52.5q0 45 14.5 99t39 112.5t56.5 117.5
t67.5 112.5t72.5 99.5t71 77l-3 4q-54 -15 -106 -45t-100 -68t-90.5 -80.5t-78.5 -83.5t-64.5 -76t-47.5 -59q-44 -54 -92 -105.5t-96.5 -92t-96 -65.5t-90.5 -25q-17 0 -33 4.5t-25 18.5q9 2 14 11t5 18q0 15 -9 26t-25 11q-18 0 -28 -12t-10 -29q0 -9 3.5 -20.5t14 -22
t30 -18t52.5 -7.5q48 0 100 26.5t104.5 71t104.5 102t101 119.5h137zM605 323q43 55 88.5 107t93.5 98t98.5 84t103.5 64l2 -2q-84 -80 -145.5 -169t-106.5 -182h-134zM932 892q-11 0 -16.5 -9.5t-5.5 -17.5q0 -21 19 -45t42.5 -45t45 -35t25.5 -14q5 0 5 4t-11.5 13
t-25.5 22.5t-26 30t-14 34.5q-2 26 -11.5 44t-26.5 18z" />
    <glyph glyph-name="Atilde" unicode="&#xcc;" horiz-adv-x="944" 
d="M734 311q-20 -51 -36 -103.5t-16 -109.5q0 -21 5 -40t16 -34t27.5 -23.5t40.5 -8.5q36 0 75.5 26t78.5 65.5t77 87.5t72 91l-7 3q-11 -15 -30 -39.5t-43 -52t-50.5 -55.5t-53.5 -51t-51.5 -37t-43.5 -14q-32 0 -42.5 21.5t-10.5 52.5q0 45 14.5 99t39 112.5t56.5 117.5
t67.5 112.5t72.5 99.5t71 77l-3 4q-54 -15 -106 -45t-100 -68t-90.5 -80.5t-78.5 -83.5t-64.5 -76t-47.5 -59q-44 -54 -92 -105.5t-96.5 -92t-96 -65.5t-90.5 -25q-17 0 -33 4.5t-25 18.5q9 2 14 11t5 18q0 15 -9 26t-25 11q-18 0 -28 -12t-10 -29q0 -9 3.5 -20.5t14 -22
t30 -18t52.5 -7.5q48 0 100 26.5t104.5 71t104.5 102t101 119.5h137zM605 323q43 55 88.5 107t93.5 98t98.5 84t103.5 64l2 -2q-84 -80 -145.5 -169t-106.5 -182h-134zM1113 776q17 -2 31 4t24.5 16.5t16 25t5.5 28.5q0 6 -5 6q-7 0 -7 -9q0 -13 -15.5 -24t-36.5 -11
q-14 0 -32.5 5.5t-37.5 13.5t-35.5 13.5t-28.5 5.5q-19 0 -33 -7t-23 -17.5t-13.5 -23t-4.5 -24.5q0 -10 4 -10t7.5 7t9 15t14.5 15t23 7q17 0 33.5 -5.5t33.5 -12.5t34.5 -12.5t35.5 -5.5z" />
    <glyph glyph-name="Otilde" unicode="&#xcd;" horiz-adv-x="778" 
d="M698 583q0 18 -3.5 35.5t-12.5 31t-25 21.5t-41 8h-14l-2 2q11 8 28.5 13.5t35.5 5.5q25 0 39.5 -11.5t21.5 -29t9 -38.5t2 -40q0 -91 -28.5 -180t-76.5 -166q-124 77 -124 232q0 30 7 59t18 55t25 47.5t28 36.5q6 2 12 2h12q24 0 39.5 -7t23.5 -18.5t11 -26.5t3 -32h12z
M232 146q0 81 28.5 164.5t75 155.5t106 124.5t122.5 71.5l2 -2q-21 -23 -35 -49.5t-23 -52.5t-13 -51.5t-4 -47.5q0 -74 34 -134.5t100 -99.5q-19 -33 -52 -71t-72.5 -70.5t-81.5 -54t-79 -21.5q-27 0 -47.5 12.5t-34 32.5t-20 44.5t-6.5 48.5zM897 270q-32 -29 -71 -47
t-79 -18q-28 0 -50.5 4.5t-42.5 13.5q23 32 46 73t41.5 86t30.5 90.5t12 85.5q0 76 -28 115t-89 39q-26 0 -48.5 -10.5t-37.5 -24.5q-36 -6 -80.5 -29.5t-90.5 -60.5t-89.5 -85t-77.5 -103.5t-54.5 -116t-20.5 -122.5q0 -77 39.5 -122.5t118.5 -45.5q45 0 92 21.5t90 54
t79.5 71.5t60.5 74q20 -8 43 -14t55 -6q19 0 40 5t42 14t40.5 22t34.5 29zM758 776q17 -2 31 4t24.5 16.5t16 25t5.5 28.5q0 6 -5 6q-7 0 -7 -9q0 -13 -15.5 -24t-36.5 -11q-14 0 -32.5 5.5t-37.5 13.5t-35.5 13.5t-28.5 5.5q-19 0 -33 -7t-23 -17.5t-13.5 -23t-4.5 -24.5
q0 -10 4 -10t7.5 7t9 15t14.5 15t23 7q17 0 33.5 -5.5t33.5 -12.5t34.5 -12.5t35.5 -5.5z" />
    <glyph glyph-name="OE" unicode="&#xce;" horiz-adv-x="1000" 
d="M697 175q12 15 29.5 31t37 29.5t40.5 22.5t41 9q39 0 58.5 -22t19.5 -60q0 -42 -18 -76.5t-48.5 -59.5t-70.5 -39t-83 -14q-36 0 -66 10t-52.5 26.5t-38 38t-22.5 44.5q56 57 101.5 121t74.5 136q29 11 55 21t46.5 24t33.5 36t15 58q2 33 10.5 66.5t25.5 61t44 44.5
t66 17q46 0 73.5 -23t27.5 -70q0 -27 -9 -50t-25.5 -40.5t-40.5 -27.5t-53 -10q-11 0 -20 0.5t-22 2.5v-11q9 -2 19 -3t24 -1q29 0 59 9.5t54 27t39 43.5t15 59q0 27 -11.5 46.5t-29.5 33t-41.5 20t-47.5 6.5q-58 0 -98 -18t-65.5 -49.5t-38 -73t-15.5 -88.5
q-3 -43 -20.5 -64t-64.5 -35q13 35 21 72t8 75q0 82 -42.5 129.5t-124.5 47.5q-43 0 -78.5 -11.5t-68 -34t-65 -54.5t-70.5 -73l8 -8q29 30 58.5 60.5t62 54.5t67.5 39t75 15q38 0 64 -13.5t42.5 -37t24 -55t7.5 -68.5q0 -40 -10.5 -80t-24.5 -77q-36 -10 -71 -28.5
t-63.5 -44t-46 -59.5t-17.5 -76q0 -17 2 -35t10 -38q-14 -14 -32.5 -29t-39.5 -27t-43 -20t-43 -8q-31 0 -53 14t-35.5 36t-19.5 50t-6 55q0 53 16 107.5t43 106t61.5 97t72 79.5t74.5 53.5t69 19.5q90 0 90 -105q0 -27 -6 -63h11q2 11 4.5 30t2.5 33q0 50 -24 83.5
t-77 33.5q-35 0 -78 -20.5t-87 -55.5t-86 -82.5t-74.5 -101.5t-52 -112.5t-19.5 -115.5q0 -69 37.5 -113.5t108.5 -44.5q61 0 106.5 26.5t85.5 62.5q23 -42 76 -65.5t127 -23.5q56 0 108 16t92 44t64.5 64.5t24.5 78.5q0 24 -9.5 42t-25 30t-35.5 18t-42 6q-26 0 -49.5 -9
t-44.5 -23.5t-39.5 -33t-34.5 -37.5zM515 172q0 31 10.5 60t29 53.5t44 42.5t55.5 25q-26 -60 -56.5 -118t-76.5 -108q-3 9 -4.5 21.5t-1.5 23.5z" />
    <glyph glyph-name="oe" unicode="&#xcf;" horiz-adv-x="574" 
d="M66 60q0 27 10 58t27.5 62t39.5 60t46.5 51t48.5 35.5t45 13.5q22 0 32.5 -14.5t10.5 -35.5q0 -25 -9 -55.5t-24.5 -62.5t-36.5 -62t-45.5 -53.5t-51 -38t-53.5 -14.5q-20 0 -30 15t-10 41zM540 312q0 -26 -22 -48.5t-52.5 -39.5t-63.5 -28.5t-55 -15.5q10 22 29.5 50
t43.5 52.5t48.5 41t45.5 16.5q11 0 18.5 -7t7.5 -21zM12 84q0 -42 22 -67t65 -25q41 0 81 19t74 49q4 -33 27 -50.5t62 -17.5q34 0 69.5 12.5t70.5 34t67.5 49t61 57t51.5 59.5t38 55l-8 5q-30 -49 -72.5 -95t-88.5 -82t-90.5 -57.5t-77.5 -21.5q-25 0 -36 21.5t-11 44.5
q0 25 7 50t18 45q33 7 76 21.5t80.5 33t63.5 41t26 46.5q0 20 -14 30.5t-39 10.5q-38 0 -80 -18.5t-79 -50.5q-7 32 -28 50.5t-56 18.5t-69.5 -13.5t-65.5 -36t-57.5 -51t-46 -58t-30.5 -58.5t-11 -51z" />
    <glyph glyph-name="endash" unicode="&#xd0;" horiz-adv-x="500" 
d="M486 158l12 28h-500l-12 -28h500z" />
    <glyph glyph-name="emdash" unicode="&#xd1;" horiz-adv-x="1000" 
d="M986 158l12 28h-1000l-12 -28h1000z" />
    <glyph glyph-name="quotedblleft" unicode="&#xd2;" horiz-adv-x="389" 
d="M286 592q-20 -6 -45 -19t-46.5 -32t-36.5 -42.5t-15 -52.5q0 -16 10.5 -30t27.5 -14q18 0 29 9t11 29t-13.5 27.5t-28.5 8.5q3 23 14.5 40t27 29.5t33.5 22t33 15.5zM453 592q-20 -6 -45 -19t-46.5 -32t-36.5 -42.5t-15 -52.5q0 -16 10.5 -30t27.5 -14q18 0 29 9t11 29
t-13.5 27.5t-28.5 8.5q3 23 14.5 40t27 29.5t33.5 22t33 15.5z" />
    <glyph glyph-name="quotedblright" unicode="&#xd3;" horiz-adv-x="389" 
d="M260 398q20 6 45 19t46.5 32t36.5 43t15 52q0 16 -10.5 30t-27.5 14q-18 0 -29 -9t-11 -29t13.5 -27.5t28.5 -8.5q-3 -22 -14.5 -39.5t-27 -30t-33.5 -22t-33 -15.5zM93 398q20 6 45 19t46.5 32t36.5 43t15 52q0 16 -10.5 30t-27.5 14q-18 0 -29 -9t-11 -29t13.5 -27.5
t28.5 -8.5q-3 -22 -14.5 -39.5t-27 -30t-33.5 -22t-33 -15.5z" />
    <glyph glyph-name="quoteleft" unicode="&#xd4;" horiz-adv-x="222" 
d="M297 592q-20 -6 -45 -19t-46.5 -32t-36.5 -42.5t-15 -52.5q0 -16 10.5 -30t27.5 -14q18 0 29 9t11 29t-13.5 27.5t-28.5 7.5q3 23 14.5 40.5t27 30t33.5 22t33 15.5z" />
    <glyph glyph-name="quoteright" unicode="&#xd5;" horiz-adv-x="222" 
d="M163 398q20 6 45 19t46.5 32t36.5 43t15 52q0 16 -10.5 30t-27.5 14q-18 0 -29 -9t-11 -29t13.5 -27.5t28.5 -7.5q-3 -23 -14.5 -40.5t-27 -30t-33.5 -22t-33 -15.5z" />
    <glyph glyph-name="divide" unicode="&#xd6;" horiz-adv-x="600" 
d="M556 155v34h-344v-34h344zM384 67q-15 0 -26 -11t-11 -26t11 -26t26 -11t26 11t11 26t-11 26t-26 11zM384 351q-15 0 -26 -11t-11 -26t11 -26t26 -11t26 11t11 26t-11 26t-26 11z" />
    <glyph glyph-name="ydieresis" unicode="&#xd8;" 
d="M165 344q-50 -73 -85.5 -122t-58.5 -83t-33.5 -56.5t-10.5 -42.5q0 -22 14 -35t46 -13q33 0 64 16t58.5 39t50.5 48.5t39 44.5l2 -2q-24 -37 -52.5 -83.5t-61.5 -95t-70 -94t-77.5 -81.5t-84.5 -58t-91 -22q-22 0 -42.5 7t-36.5 20t-26 32.5t-10 44.5q0 37 17 61.5
t53 32.5v3q-49 0 -83.5 -24t-34.5 -76q0 -24 13 -45t35 -36t51.5 -23.5t62.5 -8.5q73 0 131 27.5t106.5 71t89 98t79.5 107.5q94 15 185.5 81.5t163.5 176.5l-7 3q-67 -99 -153.5 -165.5t-181.5 -83.5q56 84 107 169.5t110 166.5h-62q-41 -66 -85.5 -126.5t-87.5 -107
t-81.5 -74.5t-67.5 -28q-28 0 -28 29q0 18 18 48.5t46.5 70.5t64.5 88t72 100h-67zM430 522q-17 0 -28 -10.5t-11 -27.5q0 -12 6.5 -23t19.5 -11q17 0 27.5 11t10.5 26q0 11 -6.5 23t-18.5 12zM286 522q-17 0 -28 -10.5t-11 -27.5q0 -12 6.5 -23t19.5 -11q17 0 27.5 11
t10.5 26q0 11 -6.5 23t-18.5 12z" />
    <glyph glyph-name="Ydieresis" unicode="&#xd9;" horiz-adv-x="778" 
d="M944 696l-261 -400q-39 -59 -87.5 -112t-98 -93t-95.5 -63.5t-78 -23.5q-13 0 -25 9t-12 35q0 29 24.5 75t61 100t79.5 112.5t79.5 113t61 101.5t24.5 78q0 45 -24.5 64.5t-72.5 19.5q-52 0 -108.5 -25.5t-103.5 -65t-78 -87.5t-31 -94q0 -33 18 -59.5t60 -26.5
q48 0 83.5 26t58.5 61l-8 1q-12 -15 -25 -29t-28.5 -24.5t-34.5 -16.5t-42 -6q-31 0 -45.5 20.5t-14.5 51.5q0 50 30 97t74.5 84t95.5 59t93 22q24 0 36.5 -12.5t12.5 -32.5q0 -33 -24.5 -81t-61 -103t-79.5 -113t-79.5 -111.5t-61 -99.5t-24.5 -77q0 -38 20 -58t64 -20
q38 0 80.5 20.5t84.5 52t80.5 70t67.5 73.5l2 -2q-26 -35 -57.5 -85t-67.5 -104t-76.5 -107t-83.5 -95.5t-89 -68.5t-93 -26q-57 0 -92.5 30.5t-35.5 83.5q0 54 23.5 80t52.5 26q18 0 36 -6t35 -13l4 8q-17 11 -41 19t-47 8q-22 0 -43.5 -8t-37.5 -22.5t-26 -36t-10 -48.5
q0 -34 14 -59t37.5 -41.5t54 -24.5t63.5 -8q66 0 125 27.5t112 73.5t101 105t93 122l429 660h-68zM854 842q-17 0 -28 -10.5t-11 -27.5q0 -12 6.5 -23t19.5 -11q17 0 27.5 11t10.5 26q0 11 -6.5 23t-18.5 12zM710 842q-17 0 -28 -10.5t-11 -27.5q0 -12 6.5 -23t19.5 -11
q17 0 27.5 11t10.5 26q0 11 -6.5 23t-18.5 12z" />
    <glyph glyph-name="fraction" unicode="&#xda;" horiz-adv-x="167" 
d="M-37 -8h28l414 546h-29z" />
    <glyph glyph-name="currency" unicode="&#xdb;" horiz-adv-x="500" 
d="M163 100l31 -29l40 46q29 -25 59.5 -35.5t65.5 -10.5q32 0 64 11t58 35l41 -46l29 29l-41 44q22 27 31.5 58t9.5 63q0 33 -9.5 64.5t-32.5 58.5l42 42l-29 29l-44 -43q-26 22 -56.5 32.5t-62.5 10.5t-64 -10.5t-59 -32.5l-42 43l-31 -29l44 -42q-24 -27 -34 -59t-10 -64
q0 -66 43 -121zM357 105q-32 0 -60.5 13t-49.5 35t-33.5 51t-12.5 61t12.5 61t33.5 51t49.5 35t60.5 13t60.5 -13t49.5 -35t33.5 -51t12.5 -61t-12.5 -61t-33.5 -51t-49.5 -35t-60.5 -13z" />
    <glyph glyph-name="guilsinglleft" unicode="&#xdc;" horiz-adv-x="333" 
d="M306 334q-55 -42 -108 -85t-110 -84q32 -38 63 -75.5t59 -79.5l7 3q-11 42 -31.5 79t-44.5 72q45 39 86 80l83 83z" />
    <glyph glyph-name="guilsinglright" unicode="&#xdd;" horiz-adv-x="333" 
d="M43 10q55 42 107.5 86t109.5 83q-32 38 -63.5 75.5t-57.5 79.5l-7 -2q8 -42 30 -79t45 -74q-45 -38 -86 -79l-83 -83z" />
    <glyph glyph-name="fi" unicode="&#xde;" 
d="M375 332q-34 -52 -64.5 -94.5t-53.5 -77t-37 -61.5t-14 -50q0 -26 15 -41.5t44 -15.5q24 0 52.5 14t58.5 37t59 52t55 58.5t46.5 57.5t32.5 48l-8 5q-9 -17 -28.5 -43.5t-45 -55t-54.5 -57.5t-58 -52t-55.5 -37.5t-46.5 -14.5q-9 0 -16 5.5t-7 17.5q0 18 20.5 53.5
t50.5 80t64 94t62 95.5q-42 -2 -78 -4t-53 -2h-111q32 52 68 111.5t73.5 110.5t76 84.5t75.5 33.5q23 0 32.5 -12t9.5 -32q0 -17 -2.5 -29.5t-6.5 -26.5q23 2 38 17.5t15 39.5q0 28 -20 41.5t-52 13.5q-54 0 -103 -31.5t-94 -82t-86 -113.5t-80 -125h-77v-12h71
q-46 -73 -90 -146.5t-87.5 -141t-87 -125.5t-89 -101t-94.5 -67.5t-103 -24.5q-56 0 -85 30.5t-29 82.5q0 37 21 58t51 23v8h-9q-58 0 -82.5 -27.5t-24.5 -66.5q0 -30 13 -52.5t34 -37.5t48.5 -22.5t57.5 -7.5q85 0 155 35t139.5 109.5t145 191t169.5 278.5l3 4h176z" />
    <glyph glyph-name="fl" unicode="&#xdf;" 
d="M206 344q32 52 67.5 111.5t73 110.5t76 84.5t75.5 33.5q23 0 32.5 -12t9.5 -32q0 -17 -3 -32t-12 -30l-146 -234h-173zM568 679q-20 17 -56 17q-54 0 -103 -31.5t-94 -82t-86 -113.5t-80 -125h-77v-12h71q-46 -73 -90 -146.5t-87.5 -141t-87 -125.5t-89 -101t-94.5 -67.5
t-103 -24.5q-56 0 -85 30.5t-29 82.5q0 37 21 58t51 23v8h-9q-58 0 -82.5 -27.5t-24.5 -66.5q0 -30 13 -52.5t34 -37.5t48.5 -22.5t57.5 -7.5q85 0 155 35t140 110t146 192t172 281h171l-7 -11q-25 -40 -52.5 -80.5t-50 -77t-37 -67t-14.5 -50.5q0 -23 14 -38.5t46 -15.5
q20 0 47 14.5t56.5 37.5t59.5 52t56.5 59t47 58t31.5 48l-7 4q-25 -42 -65 -88t-82 -84.5t-80 -63.5t-59 -25q-13 0 -19 6.5t-6 14.5q0 11 10.5 32.5t32 58t55.5 89.5t82 127l234 364z" />
    <glyph glyph-name="daggerdbl" unicode="&#xe0;" horiz-adv-x="500" 
d="M652 460l6 12h-202l109 176q8 11 13.5 22t5.5 20t-5.5 15.5t-16.5 6.5q-15 0 -28 -15t-30 -47l-99 -178h-198l-6 -12h196l-68 -118h-199l-6 -12h198l-232 -404h27l250 404h208l6 12h-207l73 118h205z" />
    <glyph glyph-name="periodcentered" unicode="&#xe1;" horiz-adv-x="250" 
d="M204 209q-15 0 -26 -11t-11 -26t11 -26t26 -11t26 11t11 26t-11 26t-26 11z" />
    <glyph glyph-name="quotesinglbase" unicode="&#xe2;" horiz-adv-x="222" 
d="M-11 -120q20 6 45 19t46.5 32t36.5 42.5t15 52.5q0 16 -10.5 30t-27.5 14q-18 0 -29 -9t-11 -29t13.5 -27.5t28.5 -7.5q-3 -23 -14.5 -40.5t-27 -30t-33.5 -22t-33 -15.5z" />
    <glyph glyph-name="quotedblbase" unicode="&#xe3;" horiz-adv-x="389" 
d="M130 -120q20 6 45 19t46.5 32t36.5 42.5t15 52.5q0 16 -10.5 30t-27.5 14q-18 0 -29 -9t-11 -29t13.5 -27.5t28.5 -7.5q-3 -23 -14.5 -40.5t-27 -30t-33.5 -22t-33 -15.5zM-37 -120q20 6 45 19t46.5 32t36.5 42.5t15 52.5q0 16 -10.5 30t-27.5 14q-18 0 -29 -9t-11 -29
t13.5 -27.5t28.5 -7.5q-3 -23 -14.5 -40.5t-27 -30t-33.5 -22t-33 -15.5z" />
    <glyph glyph-name="perthousand" unicode="&#xe4;" horiz-adv-x="1130" 
d="M1085 298q-37 0 -77 -17.5t-73 -46t-54.5 -66t-21.5 -76.5q0 -47 23.5 -69.5t67.5 -22.5q41 0 80.5 22t70.5 55t50 70.5t19 67.5q0 32 -20 57.5t-65 25.5zM1083 286q21 0 32 -9t11 -30q0 -29 -15.5 -69.5t-41 -77t-57 -62.5t-63.5 -26q-20 0 -33 9.5t-13 31.5
q0 32 16.5 72t42.5 76t58 60.5t63 24.5zM731 298q-37 0 -77 -17.5t-73 -46t-54.5 -66t-21.5 -76.5q0 -47 23.5 -69.5t67.5 -22.5q41 0 80.5 22t70.5 55t50 70.5t19 67.5q0 32 -20 57.5t-65 25.5zM729 286q21 0 32 -9t11 -30q0 -29 -15.5 -69.5t-41 -77t-57 -62.5t-63.5 -26
q-20 0 -33 9.5t-13 31.5q0 32 16.5 72t42.5 76t58 60.5t63 24.5zM641 460q-91 -114 -164 -205.5t-124 -155.5t-78.5 -99t-27.5 -36q0 -5 5 -5q1 0 16 17.5t40 47.5t58 69t68.5 82t72 86.5t69.5 82.5q5 6 18 21t30 35t35.5 42t34 41t25.5 32.5t10 16.5q0 14 -11 14
q-12 0 -20.5 -6t-23.5 -29q-5 -7 -16 -19.5t-26.5 -24.5t-36 -20.5t-43.5 -8.5q-30 0 -44 14.5t-26 32.5t-30.5 32.5t-58.5 14.5q-37 0 -77 -19.5t-73 -50t-54 -69t-21 -76.5q0 -42 23.5 -65.5t64.5 -23.5q25 0 51.5 10t52 27.5t48.5 41t39.5 49t26 52.5t8.5 52l2 2
q11 -15 28 -25.5t37 -10.5q27 0 50.5 11t39.5 25zM212 285q0 36 17 77t43.5 76t59.5 58.5t64 23.5q21 0 31.5 -11.5t10.5 -31.5q0 -30 -16.5 -70.5t-43.5 -77.5t-60.5 -63t-66.5 -26q-22 0 -30.5 13t-8.5 32z" />
    <glyph glyph-name="Acircumflex" unicode="&#xe5;" horiz-adv-x="944" 
d="M734 311q-20 -51 -36 -103.5t-16 -109.5q0 -21 5 -40t16 -34t27.5 -23.5t40.5 -8.5q36 0 75.5 26t78.5 65.5t77 87.5t72 91l-7 3q-11 -15 -30 -39.5t-43 -52t-50.5 -55.5t-53.5 -51t-51.5 -37t-43.5 -14q-32 0 -42.5 21.5t-10.5 52.5q0 45 14.5 99t39 112.5t56.5 117.5
t67.5 112.5t72.5 99.5t71 77l-3 4q-54 -15 -106 -45t-100 -68t-90.5 -80.5t-78.5 -83.5t-64.5 -76t-47.5 -59q-44 -54 -92 -105.5t-96.5 -92t-96 -65.5t-90.5 -25q-17 0 -33 4.5t-25 18.5q9 2 14 11t5 18q0 15 -9 26t-25 11q-18 0 -28 -12t-10 -29q0 -9 3.5 -20.5t14 -22
t30 -18t52.5 -7.5q48 0 100 26.5t104.5 71t104.5 102t101 119.5h137zM605 323q43 55 88.5 107t93.5 98t98.5 84t103.5 64l2 -2q-84 -80 -145.5 -169t-106.5 -182h-134zM932 726q35 23 66.5 50.5t61.5 56.5q15 -29 32.5 -54.5t43.5 -54.5l8 5q-26 42 -41 80.5t-15 82.5h-16
q-32 -43 -68.5 -82.5t-75.5 -76.5z" />
    <glyph glyph-name="Ecircumflex" unicode="&#xe6;" horiz-adv-x="667" 
d="M342 180q11 16 26.5 32t33.5 28.5t38 20t41 7.5q40 0 58 -23t18 -67q0 -45 -22 -78.5t-55.5 -55.5t-73.5 -33t-76 -11q-39 0 -71.5 14t-55.5 36.5t-36 52.5t-13 61q0 56 18.5 92.5t48.5 62t68.5 43.5t77.5 36q35 16 51 42t16 64q0 29 8 63.5t26 64t48 49t74 19.5
q48 0 75 -21t27 -67q0 -17 -7.5 -39t-22.5 -42t-37.5 -34t-52.5 -14q-31 0 -44 5l-1 -11q5 -2 18 -4t27 -2q28 0 57 9t53 27t39 44t15 59q0 27 -12.5 46.5t-32 32t-43.5 18t-48 5.5q-58 0 -101.5 -18t-72 -48.5t-42.5 -70t-14 -83.5q0 -29 -2 -46.5t-7.5 -28.5t-15.5 -17.5
t-27 -14.5q-43 -19 -84.5 -40t-73 -48t-51 -63t-19.5 -86q0 -36 15.5 -66t45 -52t72 -34t97.5 -12q50 0 101.5 18t93.5 47t69 64.5t27 71.5q0 40 -27 67.5t-81 27.5t-95.5 -26t-72.5 -69zM504 726q35 23 66.5 50.5t61.5 56.5q15 -29 32.5 -54.5t43.5 -54.5l8 5
q-26 42 -41 80.5t-15 82.5h-16q-32 -43 -68.5 -82.5t-75.5 -76.5z" />
    <glyph glyph-name="Aacute" unicode="&#xe7;" horiz-adv-x="944" 
d="M734 311q-20 -51 -36 -103.5t-16 -109.5q0 -21 5 -40t16 -34t27.5 -23.5t40.5 -8.5q36 0 75.5 26t78.5 65.5t77 87.5t72 91l-7 3q-11 -15 -30 -39.5t-43 -52t-50.5 -55.5t-53.5 -51t-51.5 -37t-43.5 -14q-32 0 -42.5 21.5t-10.5 52.5q0 45 14.5 99t39 112.5t56.5 117.5
t67.5 112.5t72.5 99.5t71 77l-3 4q-54 -15 -106 -45t-100 -68t-90.5 -80.5t-78.5 -83.5t-64.5 -76t-47.5 -59q-44 -54 -92 -105.5t-96.5 -92t-96 -65.5t-90.5 -25q-17 0 -33 4.5t-25 18.5q9 2 14 11t5 18q0 15 -9 26t-25 11q-18 0 -28 -12t-10 -29q0 -9 3.5 -20.5t14 -22
t30 -18t52.5 -7.5q48 0 100 26.5t104.5 71t104.5 102t101 119.5h137zM605 323q43 55 88.5 107t93.5 98t98.5 84t103.5 64l2 -2q-84 -80 -145.5 -169t-106.5 -182h-134zM1127 892q-17 0 -26.5 -18t-11.5 -44q-1 -18 -13.5 -34.5t-26.5 -30t-25.5 -22.5t-11.5 -13t5 -4t26 14
t44.5 35t42.5 45t19 45q0 8 -5.5 17.5t-16.5 9.5z" />
    <glyph glyph-name="Edieresis" unicode="&#xe8;" horiz-adv-x="667" 
d="M342 180q11 16 26.5 32t33.5 28.5t38 20t41 7.5q40 0 58 -23t18 -67q0 -45 -22 -78.5t-55.5 -55.5t-73.5 -33t-76 -11q-39 0 -71.5 14t-55.5 36.5t-36 52.5t-13 61q0 56 18.5 92.5t48.5 62t68.5 43.5t77.5 36q35 16 51 42t16 64q0 29 8 63.5t26 64t48 49t74 19.5
q48 0 75 -21t27 -67q0 -17 -7.5 -39t-22.5 -42t-37.5 -34t-52.5 -14q-31 0 -44 5l-1 -11q5 -2 18 -4t27 -2q28 0 57 9t53 27t39 44t15 59q0 27 -12.5 46.5t-32 32t-43.5 18t-48 5.5q-58 0 -101.5 -18t-72 -48.5t-42.5 -70t-14 -83.5q0 -29 -2 -46.5t-7.5 -28.5t-15.5 -17.5
t-27 -14.5q-43 -19 -84.5 -40t-73 -48t-51 -63t-19.5 -86q0 -36 15.5 -66t45 -52t72 -34t97.5 -12q50 0 101.5 18t93.5 47t69 64.5t27 71.5q0 40 -27 67.5t-81 27.5t-95.5 -26t-72.5 -69zM704 842q-17 0 -28 -10.5t-11 -27.5q0 -12 6.5 -23t19.5 -11q17 0 27.5 11t10.5 26
q0 11 -6.5 23t-18.5 12zM560 842q-17 0 -28 -10.5t-11 -27.5q0 -12 6.5 -23t19.5 -11q17 0 27.5 11t10.5 26q0 11 -6.5 23t-18.5 12z" />
    <glyph glyph-name="Egrave" unicode="&#xe9;" horiz-adv-x="667" 
d="M342 180q11 16 26.5 32t33.5 28.5t38 20t41 7.5q40 0 58 -23t18 -67q0 -45 -22 -78.5t-55.5 -55.5t-73.5 -33t-76 -11q-39 0 -71.5 14t-55.5 36.5t-36 52.5t-13 61q0 56 18.5 92.5t48.5 62t68.5 43.5t77.5 36q35 16 51 42t16 64q0 29 8 63.5t26 64t48 49t74 19.5
q48 0 75 -21t27 -67q0 -17 -7.5 -39t-22.5 -42t-37.5 -34t-52.5 -14q-31 0 -44 5l-1 -11q5 -2 18 -4t27 -2q28 0 57 9t53 27t39 44t15 59q0 27 -12.5 46.5t-32 32t-43.5 18t-48 5.5q-58 0 -101.5 -18t-72 -48.5t-42.5 -70t-14 -83.5q0 -29 -2 -46.5t-7.5 -28.5t-15.5 -17.5
t-27 -14.5q-43 -19 -84.5 -40t-73 -48t-51 -63t-19.5 -86q0 -36 15.5 -66t45 -52t72 -34t97.5 -12q50 0 101.5 18t93.5 47t69 64.5t27 71.5q0 40 -27 67.5t-81 27.5t-95.5 -26t-72.5 -69zM504 892q-11 0 -16.5 -9.5t-5.5 -17.5q0 -21 19 -45t42.5 -45t45 -35t25.5 -14
q5 0 5 4t-11.5 13t-25.5 22.5t-26 30t-14 34.5q-2 26 -11.5 44t-26.5 18z" />
    <glyph glyph-name="Iacute" unicode="&#xea;" horiz-adv-x="611" 
d="M-15 108q0 -33 16 -56.5t41 -38.5t54.5 -22t57.5 -7q72 0 133.5 26.5t114.5 73t100 110t89 137.5q43 75 83.5 137.5t76.5 106.5t67.5 68.5t56.5 24.5q53 0 71 3.5t18 13.5q0 8 -5 9.5t-12 1.5q-11 0 -50 -9t-105 -9q-55 1 -119 -3.5t-127 -16t-121 -30.5t-103 -46
t-71.5 -62t-26.5 -79q0 -57 36.5 -86.5t95.5 -29.5q34 0 64.5 12t54 32t37 46.5t13.5 56.5q0 8 -2 20t-4 18l-11 -2q5 -15 5 -38q0 -25 -13.5 -49t-35.5 -43t-49.5 -30t-55.5 -11q-40 0 -63.5 23t-23.5 65q0 54 29 93t76.5 66t108 43t123 24.5t121.5 11.5t104 3v-2
q-46 -17 -89.5 -55t-81.5 -83.5t-69.5 -92.5t-55.5 -82q-15 -23 -36 -58.5t-47.5 -75t-58 -79t-69 -71t-80.5 -51.5t-91 -20q-31 0 -55.5 8t-41 21.5t-23 30t-2.5 34.5q16 -3 26.5 8t10.5 27t-10 25.5t-27 9.5q-23 0 -36 -15.5t-13 -36.5zM839 892q-17 0 -26.5 -18
t-11.5 -44q-1 -18 -13.5 -34.5t-26.5 -30t-25.5 -22.5t-11.5 -13t5 -4t26 14t44.5 35t42.5 45t19 45q0 8 -5.5 17.5t-16.5 9.5z" />
    <glyph glyph-name="Icircumflex" unicode="&#xeb;" horiz-adv-x="611" 
d="M-15 108q0 -33 16 -56.5t41 -38.5t54.5 -22t57.5 -7q72 0 133.5 26.5t114.5 73t100 110t89 137.5q43 75 83.5 137.5t76.5 106.5t67.5 68.5t56.5 24.5q53 0 71 3.5t18 13.5q0 8 -5 9.5t-12 1.5q-11 0 -50 -9t-105 -9q-55 1 -119 -3.5t-127 -16t-121 -30.5t-103 -46
t-71.5 -62t-26.5 -79q0 -57 36.5 -86.5t95.5 -29.5q34 0 64.5 12t54 32t37 46.5t13.5 56.5q0 8 -2 20t-4 18l-11 -2q5 -15 5 -38q0 -25 -13.5 -49t-35.5 -43t-49.5 -30t-55.5 -11q-40 0 -63.5 23t-23.5 65q0 54 29 93t76.5 66t108 43t123 24.5t121.5 11.5t104 3v-2
q-46 -17 -89.5 -55t-81.5 -83.5t-69.5 -92.5t-55.5 -82q-15 -23 -36 -58.5t-47.5 -75t-58 -79t-69 -71t-80.5 -51.5t-91 -20q-31 0 -55.5 8t-41 21.5t-23 30t-2.5 34.5q16 -3 26.5 8t10.5 27t-10 25.5t-27 9.5q-23 0 -36 -15.5t-13 -36.5zM644 726q35 23 66.5 50.5
t61.5 56.5q15 -29 32.5 -54.5t43.5 -54.5l8 5q-26 42 -41 80.5t-15 82.5h-16q-32 -43 -68.5 -82.5t-75.5 -76.5z" />
    <glyph glyph-name="Idieresis" unicode="&#xec;" horiz-adv-x="611" 
d="M-15 108q0 -33 16 -56.5t41 -38.5t54.5 -22t57.5 -7q72 0 133.5 26.5t114.5 73t100 110t89 137.5q43 75 83.5 137.5t76.5 106.5t67.5 68.5t56.5 24.5q53 0 71 3.5t18 13.5q0 8 -5 9.5t-12 1.5q-11 0 -50 -9t-105 -9q-55 1 -119 -3.5t-127 -16t-121 -30.5t-103 -46
t-71.5 -62t-26.5 -79q0 -57 36.5 -86.5t95.5 -29.5q34 0 64.5 12t54 32t37 46.5t13.5 56.5q0 8 -2 20t-4 18l-11 -2q5 -15 5 -38q0 -25 -13.5 -49t-35.5 -43t-49.5 -30t-55.5 -11q-40 0 -63.5 23t-23.5 65q0 54 29 93t76.5 66t108 43t123 24.5t121.5 11.5t104 3v-2
q-46 -17 -89.5 -55t-81.5 -83.5t-69.5 -92.5t-55.5 -82q-15 -23 -36 -58.5t-47.5 -75t-58 -79t-69 -71t-80.5 -51.5t-91 -20q-31 0 -55.5 8t-41 21.5t-23 30t-2.5 34.5q16 -3 26.5 8t10.5 27t-10 25.5t-27 9.5q-23 0 -36 -15.5t-13 -36.5zM844 842q-17 0 -28 -10.5
t-11 -27.5q0 -12 6.5 -23t19.5 -11q17 0 27.5 11t10.5 26q0 11 -6.5 23t-18.5 12zM700 842q-17 0 -28 -10.5t-11 -27.5q0 -12 6.5 -23t19.5 -11q17 0 27.5 11t10.5 26q0 11 -6.5 23t-18.5 12z" />
    <glyph glyph-name="Igrave" unicode="&#xed;" horiz-adv-x="611" 
d="M-15 108q0 -33 16 -56.5t41 -38.5t54.5 -22t57.5 -7q72 0 133.5 26.5t114.5 73t100 110t89 137.5q43 75 83.5 137.5t76.5 106.5t67.5 68.5t56.5 24.5q53 0 71 3.5t18 13.5q0 8 -5 9.5t-12 1.5q-11 0 -50 -9t-105 -9q-55 1 -119 -3.5t-127 -16t-121 -30.5t-103 -46
t-71.5 -62t-26.5 -79q0 -57 36.5 -86.5t95.5 -29.5q34 0 64.5 12t54 32t37 46.5t13.5 56.5q0 8 -2 20t-4 18l-11 -2q5 -15 5 -38q0 -25 -13.5 -49t-35.5 -43t-49.5 -30t-55.5 -11q-40 0 -63.5 23t-23.5 65q0 54 29 93t76.5 66t108 43t123 24.5t121.5 11.5t104 3v-2
q-46 -17 -89.5 -55t-81.5 -83.5t-69.5 -92.5t-55.5 -82q-15 -23 -36 -58.5t-47.5 -75t-58 -79t-69 -71t-80.5 -51.5t-91 -20q-31 0 -55.5 8t-41 21.5t-23 30t-2.5 34.5q16 -3 26.5 8t10.5 27t-10 25.5t-27 9.5q-23 0 -36 -15.5t-13 -36.5zM644 892q-11 0 -16.5 -9.5
t-5.5 -17.5q0 -21 19 -45t42.5 -45t45 -35t25.5 -14q5 0 5 4t-11.5 13t-25.5 22.5t-26 30t-14 34.5q-2 26 -11.5 44t-26.5 18z" />
    <glyph glyph-name="Oacute" unicode="&#xee;" horiz-adv-x="778" 
d="M698 583q0 18 -3.5 35.5t-12.5 31t-25 21.5t-41 8h-14l-2 2q11 8 28.5 13.5t35.5 5.5q25 0 39.5 -11.5t21.5 -29t9 -38.5t2 -40q0 -91 -28.5 -180t-76.5 -166q-124 77 -124 232q0 30 7 59t18 55t25 47.5t28 36.5q6 2 12 2h12q24 0 39.5 -7t23.5 -18.5t11 -26.5t3 -32h12z
M232 146q0 81 28.5 164.5t75 155.5t106 124.5t122.5 71.5l2 -2q-21 -23 -35 -49.5t-23 -52.5t-13 -51.5t-4 -47.5q0 -74 34 -134.5t100 -99.5q-19 -33 -52 -71t-72.5 -70.5t-81.5 -54t-79 -21.5q-27 0 -47.5 12.5t-34 32.5t-20 44.5t-6.5 48.5zM897 270q-32 -29 -71 -47
t-79 -18q-28 0 -50.5 4.5t-42.5 13.5q23 32 46 73t41.5 86t30.5 90.5t12 85.5q0 76 -28 115t-89 39q-26 0 -48.5 -10.5t-37.5 -24.5q-36 -6 -80.5 -29.5t-90.5 -60.5t-89.5 -85t-77.5 -103.5t-54.5 -116t-20.5 -122.5q0 -77 39.5 -122.5t118.5 -45.5q45 0 92 21.5t90 54
t79.5 71.5t60.5 74q20 -8 43 -14t55 -6q19 0 40 5t42 14t40.5 22t34.5 29zM772 892q-17 0 -26.5 -18t-11.5 -44q-1 -18 -13.5 -34.5t-26.5 -30t-25.5 -22.5t-11.5 -13t5 -4t26 14t44.5 35t42.5 45t19 45q0 8 -5.5 17.5t-16.5 9.5z" />
    <glyph glyph-name="Ocircumflex" unicode="&#xef;" horiz-adv-x="778" 
d="M698 583q0 18 -3.5 35.5t-12.5 31t-25 21.5t-41 8h-14l-2 2q11 8 28.5 13.5t35.5 5.5q25 0 39.5 -11.5t21.5 -29t9 -38.5t2 -40q0 -91 -28.5 -180t-76.5 -166q-124 77 -124 232q0 30 7 59t18 55t25 47.5t28 36.5q6 2 12 2h12q24 0 39.5 -7t23.5 -18.5t11 -26.5t3 -32h12z
M232 146q0 81 28.5 164.5t75 155.5t106 124.5t122.5 71.5l2 -2q-21 -23 -35 -49.5t-23 -52.5t-13 -51.5t-4 -47.5q0 -74 34 -134.5t100 -99.5q-19 -33 -52 -71t-72.5 -70.5t-81.5 -54t-79 -21.5q-27 0 -47.5 12.5t-34 32.5t-20 44.5t-6.5 48.5zM897 270q-32 -29 -71 -47
t-79 -18q-28 0 -50.5 4.5t-42.5 13.5q23 32 46 73t41.5 86t30.5 90.5t12 85.5q0 76 -28 115t-89 39q-26 0 -48.5 -10.5t-37.5 -24.5q-36 -6 -80.5 -29.5t-90.5 -60.5t-89.5 -85t-77.5 -103.5t-54.5 -116t-20.5 -122.5q0 -77 39.5 -122.5t118.5 -45.5q45 0 92 21.5t90 54
t79.5 71.5t60.5 74q20 -8 43 -14t55 -6q19 0 40 5t42 14t40.5 22t34.5 29zM577 726q35 23 66.5 50.5t61.5 56.5q15 -29 32.5 -54.5t43.5 -54.5l8 5q-26 42 -41 80.5t-15 82.5h-16q-32 -43 -68.5 -82.5t-75.5 -76.5z" />
    <glyph glyph-name="Ograve" unicode="&#xf1;" horiz-adv-x="778" 
d="M698 583q0 18 -3.5 35.5t-12.5 31t-25 21.5t-41 8h-14l-2 2q11 8 28.5 13.5t35.5 5.5q25 0 39.5 -11.5t21.5 -29t9 -38.5t2 -40q0 -91 -28.5 -180t-76.5 -166q-124 77 -124 232q0 30 7 59t18 55t25 47.5t28 36.5q6 2 12 2h12q24 0 39.5 -7t23.5 -18.5t11 -26.5t3 -32h12z
M232 146q0 81 28.5 164.5t75 155.5t106 124.5t122.5 71.5l2 -2q-21 -23 -35 -49.5t-23 -52.5t-13 -51.5t-4 -47.5q0 -74 34 -134.5t100 -99.5q-19 -33 -52 -71t-72.5 -70.5t-81.5 -54t-79 -21.5q-27 0 -47.5 12.5t-34 32.5t-20 44.5t-6.5 48.5zM897 270q-32 -29 -71 -47
t-79 -18q-28 0 -50.5 4.5t-42.5 13.5q23 32 46 73t41.5 86t30.5 90.5t12 85.5q0 76 -28 115t-89 39q-26 0 -48.5 -10.5t-37.5 -24.5q-36 -6 -80.5 -29.5t-90.5 -60.5t-89.5 -85t-77.5 -103.5t-54.5 -116t-20.5 -122.5q0 -77 39.5 -122.5t118.5 -45.5q45 0 92 21.5t90 54
t79.5 71.5t60.5 74q20 -8 43 -14t55 -6q19 0 40 5t42 14t40.5 22t34.5 29zM577 892q-11 0 -16.5 -9.5t-5.5 -17.5q0 -21 19 -45t42.5 -45t45 -35t25.5 -14q5 0 5 4t-11.5 13t-25.5 22.5t-26 30t-14 34.5q-2 26 -11.5 44t-26.5 18z" />
    <glyph glyph-name="Uacute" unicode="&#xf2;" horiz-adv-x="833" 
d="M909 696q-106 -168 -180 -285.5t-122 -182.5q-18 -25 -53.5 -62.5t-77.5 -72.5t-86 -60t-80 -25q-14 0 -26 10t-12 34q0 31 23.5 76.5t58.5 99t76 111t76 112t58.5 102t23.5 80.5q0 39 -26.5 59t-68.5 20q-60 0 -116 -25.5t-99.5 -65.5t-70 -88.5t-26.5 -93.5
q0 -42 22.5 -63.5t61.5 -21.5q20 0 39 7.5t35.5 19.5t30.5 27.5t23 30.5l-11 2q-8 -13 -19.5 -26t-26.5 -24t-32.5 -18t-37.5 -7q-40 0 -56.5 21t-16.5 53q0 45 26.5 91.5t68 84t93 61t101.5 23.5q23 0 40.5 -9.5t17.5 -34.5q0 -33 -24 -80t-59.5 -102t-77.5 -113.5
t-77.5 -113.5t-59.5 -103t-24 -82t20.5 -52t55.5 -18q37 0 76 18t76 45t70 58t57 57l2 -2q-11 -17 -21.5 -42t-10.5 -47q0 -39 19 -63t61 -24q43 0 86.5 23.5t86.5 62t84.5 87t80.5 98.5l-8 3q-33 -41 -73 -87t-82 -85t-84 -64.5t-78 -25.5q-24 0 -34.5 13.5t-10.5 35.5
q0 33 28.5 87t80 132.5t122 183.5t154.5 240h-67zM852 892q-17 0 -26.5 -18t-11.5 -44q-1 -18 -13.5 -34.5t-26.5 -30t-25.5 -22.5t-11.5 -13t5 -4t26 14t44.5 35t42.5 45t19 45q0 8 -5.5 17.5t-16.5 9.5z" />
    <glyph glyph-name="Ucircumflex" unicode="&#xf3;" horiz-adv-x="833" 
d="M909 696q-106 -168 -180 -285.5t-122 -182.5q-18 -25 -53.5 -62.5t-77.5 -72.5t-86 -60t-80 -25q-14 0 -26 10t-12 34q0 31 23.5 76.5t58.5 99t76 111t76 112t58.5 102t23.5 80.5q0 39 -26.5 59t-68.5 20q-60 0 -116 -25.5t-99.5 -65.5t-70 -88.5t-26.5 -93.5
q0 -42 22.5 -63.5t61.5 -21.5q20 0 39 7.5t35.5 19.5t30.5 27.5t23 30.5l-11 2q-8 -13 -19.5 -26t-26.5 -24t-32.5 -18t-37.5 -7q-40 0 -56.5 21t-16.5 53q0 45 26.5 91.5t68 84t93 61t101.5 23.5q23 0 40.5 -9.5t17.5 -34.5q0 -33 -24 -80t-59.5 -102t-77.5 -113.5
t-77.5 -113.5t-59.5 -103t-24 -82t20.5 -52t55.5 -18q37 0 76 18t76 45t70 58t57 57l2 -2q-11 -17 -21.5 -42t-10.5 -47q0 -39 19 -63t61 -24q43 0 86.5 23.5t86.5 62t84.5 87t80.5 98.5l-8 3q-33 -41 -73 -87t-82 -85t-84 -64.5t-78 -25.5q-24 0 -34.5 13.5t-10.5 35.5
q0 33 28.5 87t80 132.5t122 183.5t154.5 240h-67zM657 726q35 23 66.5 50.5t61.5 56.5q15 -29 32.5 -54.5t43.5 -54.5l8 5q-26 42 -41 80.5t-15 82.5h-16q-32 -43 -68.5 -82.5t-75.5 -76.5z" />
    <glyph glyph-name="Ugrave" unicode="&#xf4;" horiz-adv-x="833" 
d="M909 696q-106 -168 -180 -285.5t-122 -182.5q-18 -25 -53.5 -62.5t-77.5 -72.5t-86 -60t-80 -25q-14 0 -26 10t-12 34q0 31 23.5 76.5t58.5 99t76 111t76 112t58.5 102t23.5 80.5q0 39 -26.5 59t-68.5 20q-60 0 -116 -25.5t-99.5 -65.5t-70 -88.5t-26.5 -93.5
q0 -42 22.5 -63.5t61.5 -21.5q20 0 39 7.5t35.5 19.5t30.5 27.5t23 30.5l-11 2q-8 -13 -19.5 -26t-26.5 -24t-32.5 -18t-37.5 -7q-40 0 -56.5 21t-16.5 53q0 45 26.5 91.5t68 84t93 61t101.5 23.5q23 0 40.5 -9.5t17.5 -34.5q0 -33 -24 -80t-59.5 -102t-77.5 -113.5
t-77.5 -113.5t-59.5 -103t-24 -82t20.5 -52t55.5 -18q37 0 76 18t76 45t70 58t57 57l2 -2q-11 -17 -21.5 -42t-10.5 -47q0 -39 19 -63t61 -24q43 0 86.5 23.5t86.5 62t84.5 87t80.5 98.5l-8 3q-33 -41 -73 -87t-82 -85t-84 -64.5t-78 -25.5q-24 0 -34.5 13.5t-10.5 35.5
q0 33 28.5 87t80 132.5t122 183.5t154.5 240h-67zM677 892q-11 0 -16.5 -9.5t-5.5 -17.5q0 -21 19 -45t42.5 -45t45 -35t25.5 -14q5 0 5 4t-11.5 13t-25.5 22.5t-26 30t-14 34.5q-2 26 -11.5 44t-26.5 18z" />
    <glyph glyph-name="dotlessi" unicode="&#xf5;" horiz-adv-x="222" 
d="M168 344q-47 -71 -80.5 -119.5t-54.5 -82.5t-30.5 -57.5t-9.5 -44.5q0 -18 13 -33t40 -15q24 0 52.5 14t58.5 37t59 52t55 58.5t46.5 57.5t32.5 48l-8 5q-9 -17 -28.5 -43.5t-45 -55t-54.5 -57.5t-58 -52t-55.5 -37.5t-46.5 -14.5q-21 0 -21 26q0 13 10.5 34t34 57
t61.5 90t93 133h-64z" />
    <glyph glyph-name="circumflex" unicode="&#xf6;" horiz-adv-x="222" 
d="M96 406q35 23 66.5 50.5t61.5 56.5q15 -29 32.5 -54.5t43.5 -54.5l8 5q-26 42 -41 80.5t-15 82.5h-16q-32 -43 -68.5 -82.5t-75.5 -76.5z" />
    <glyph glyph-name="tilde" unicode="&#xf7;" horiz-adv-x="222" 
d="M277 456q17 -2 31 4t24.5 16.5t16 25t5.5 28.5q0 6 -5 6q-7 0 -7 -9q0 -13 -15.5 -24t-36.5 -11q-14 0 -32.5 5.5t-37.5 13.5t-35.5 13.5t-28.5 5.5q-19 0 -33 -7t-23 -17.5t-13.5 -23t-4.5 -24.5q0 -10 4 -10t7.5 7t9 15t14.5 15t23 7q17 0 33.5 -5.5t33.5 -12.5
t34.5 -12.5t35.5 -5.5z" />
    <glyph glyph-name="macron" unicode="&#xf8;" horiz-adv-x="222" 
d="M131 491q-23 0 -33.5 -6t-10.5 -14q0 -5 4 -5.5t9 -0.5h200q22 0 29.5 5.5t7.5 13.5q0 5 -5 6t-19 1h-182z" />
    <glyph glyph-name="breve" unicode="&#xf9;" horiz-adv-x="222" 
d="M199 456q-27 0 -43 11.5t-24.5 25.5t-12.5 25.5t-7 11.5q-5 0 -5.5 -4t-0.5 -9q0 -11 6 -27.5t19 -31.5t32.5 -25.5t46.5 -10.5q21 0 46.5 13.5t47.5 31t36.5 34t14.5 21.5q0 7 -5 7q-4 0 -15 -11.5t-29.5 -25t-45 -25t-61.5 -11.5z" />
    <glyph glyph-name="dotaccent" unicode="&#xfa;" horiz-adv-x="222" 
d="M222 523q-17 0 -28 -10.5t-11 -27.5q0 -12 6.5 -23t19.5 -11q17 0 27.5 11t10.5 26q0 11 -6.5 23t-18.5 12z" />
    <glyph glyph-name="ring" unicode="&#xfb;" horiz-adv-x="222" 
d="M132 461q0 -31 18.5 -47t43.5 -16q22 0 42 8.5t35 22.5t24 33.5t9 40.5q0 30 -18.5 46.5t-43.5 16.5q-22 0 -42 -8.5t-35 -22.5t-24 -33.5t-9 -40.5zM280 521q0 -16 -7.5 -36t-19.5 -37.5t-27.5 -29.5t-32.5 -12t-27 10.5t-10 26.5t7.5 36t19.5 37.5t27.5 29.5t32.5 12
q18 0 27.5 -10.5t9.5 -26.5z" />
    <glyph glyph-name="cedilla" unicode="&#xfc;" horiz-adv-x="222" 
d="M-155 -175q18 -7 37 -8t39 -1q16 0 40 3t46.5 11t39 22.5t16.5 37.5q0 17 -9.5 27t-24 15.5t-31.5 7t-33 2.5l33 54h-11l-45 -74q43 -1 60 -6.5t17 -29.5q0 -18 -11.5 -29.5t-27.5 -17.5t-34.5 -8.5t-31.5 -2.5q-17 0 -34 1t-34 4z" />
    <glyph glyph-name="hungarumlaut" unicode="&#xfd;" horiz-adv-x="222" 
d="M286 572q-13 0 -21 -12.5t-8 -32.5q0 -21 -6.5 -36.5t-17.5 -28.5t-25.5 -24t-31.5 -22v-10q7 0 29 11.5t45.5 31t42 44.5t18.5 52q0 9 -7 18t-18 9zM181 562q-17 0 -26.5 -18t-11.5 -44q-1 -18 -13.5 -34.5t-26.5 -30t-25.5 -22.5t-11.5 -13t5 -4t26 14t44.5 35t42.5 45
t19 45q0 8 -5.5 17.5t-16.5 9.5z" />
    <glyph glyph-name="ogonek" unicode="&#xfe;" horiz-adv-x="222" 
d="M51 -183q24 0 38.5 4.5t17.5 9.5q2 2 4.5 11t4.5 15q-8 -5 -19.5 -8.5t-23.5 -3.5q-26 0 -38.5 15.5t-12.5 35.5q0 19 8 35.5t16 28.5q8 14 17.5 25t10.5 14q-1 3 -6 3q-3 0 -10.5 -8.5t-14.5 -15.5q-20 -21 -34.5 -44.5t-14.5 -51.5t15 -46.5t42 -18.5z" />
    <glyph glyph-name="caron" unicode="&#xff;" horiz-adv-x="222" 
d="M335 572q-35 -23 -66.5 -50.5t-61.5 -56.5q-15 29 -32.5 54.5t-43.5 54.5l-8 -5q26 -42 41 -80.5t15 -82.5h16q32 43 68.5 82.5t75.5 76.5z" />
  </font>
</defs>
</svg>
