<?xml version="1.0" encoding="utf-8"?>
<!-- Generator: Adobe Illustrator 26.0.1, SVG Export Plug-In . SVG Version: 6.00 Build 0)  -->
<svg version="1.1" id="Layer_1" xmlns="http://www.w3.org/2000/svg" xmlns:xlink="http://www.w3.org/1999/xlink" x="0px" y="0px"
	 viewBox="0 0 20.2 18.9" style="enable-background:new 0 0 20.2 18.9;" xml:space="preserve">
<style type="text/css">
	.st0{fill:#FFFFFF;}
</style>
<path class="st0" d="M6.9,17.2C6.9,17.2,6.8,17.2,6.9,17.2c-0.2,0.2-0.5,0.2-0.7,0.1c-0.3-0.1-0.6-0.3-0.7-0.6
	c-0.1-0.2-0.1-0.4,0-0.5l0,0l0,0l-0.1,0.1c-0.2,0-0.4,0.1-0.6,0c-0.3,0-0.5-0.2-0.7-0.4c-0.2-0.3-0.2-0.7,0.1-1
	c0.2-0.2,0.3-0.4,0.5-0.5v-0.1c-0.2-0.2-0.4-0.5-0.6-0.7v-0.1c0.1-0.2,0.2-0.3,0.3-0.5l0,0c0.3,0.3,0.5,0.6,0.8,0.9
	c0.3-0.2,0.7-0.2,1,0c0.4,0.3,0.5,0.7,0.3,1.2c0.4-0.2,0.7-0.1,1,0.1c0.3,0.3,0.4,0.6,0.3,1c0.4-0.2,0.7-0.2,1,0.1
	c0.3,0.2,0.4,0.6,0.3,1l0,0c0.2-0.1,0.4-0.1,0.6,0c0.2,0.1,0.3,0.3,0.4,0.5c0,0.1,0,0.3,0,0.4c0,0,0,0,0,0.1
	c0.1,0.1,0.2,0.1,0.3,0.2c0.3,0.1,0.5,0,0.7-0.3c0-0.1,0-0.1,0-0.2c-0.3-0.3-0.7-0.5-1-0.8C10,17.1,9.8,17,9.7,16.9
	c-0.1-0.1-0.1-0.3,0-0.4s0.2-0.1,0.4,0c0.3,0.2,0.5,0.4,0.8,0.6c0.2,0.1,0.4,0.3,0.6,0.4c0.1,0.1,0.3,0.2,0.4,0.3
	c0.1,0.1,0.3,0.2,0.4,0.3c0.2,0.1,0.5,0.1,0.6-0.1c0.1-0.1,0.1-0.2,0.1-0.4c0-0.1-0.1-0.2-0.2-0.3c-0.2-0.2-0.5-0.3-0.7-0.5
	c-0.3-0.2-0.6-0.4-0.9-0.7c-0.3-0.2-0.5-0.4-0.8-0.6c-0.1-0.1-0.1-0.2-0.1-0.3c0-0.1,0.1-0.2,0.2-0.2c0.1,0,0.2,0,0.3,0.1
	c0.4,0.3,0.8,0.5,1.2,0.8c0.3,0.2,0.6,0.4,0.8,0.6s0.5,0.4,0.7,0.5c0.3,0.1,0.6,0.1,0.7-0.2c0.1-0.2,0.1-0.5-0.2-0.6
	c-0.2-0.2-0.5-0.3-0.7-0.5c-0.3-0.2-0.6-0.4-0.8-0.6c-0.4-0.3-0.7-0.5-1.1-0.8c-0.1-0.1-0.2-0.2-0.3-0.2c-0.1-0.1-0.2-0.2-0.2-0.3
	c0-0.2,0.1-0.3,0.3-0.3c0.1,0,0.2,0.1,0.3,0.1c0.2,0.2,0.5,0.3,0.7,0.5c0.3,0.2,0.6,0.4,0.9,0.7c0.3,0.2,0.6,0.4,0.8,0.6
	c0.2,0.1,0.4,0.3,0.6,0.4c0.2,0.2,0.6,0.1,0.9-0.1c0.1-0.1,0.2-0.2,0.2-0.4c0-0.2-0.1-0.3-0.2-0.5c-0.2-0.2-0.4-0.3-0.6-0.5
	c-0.3-0.2-0.5-0.5-0.8-0.7c-0.2-0.2-0.5-0.4-0.7-0.6c-0.2-0.1-0.3-0.3-0.5-0.4c-0.2-0.2-0.5-0.4-0.7-0.6c-0.2-0.2-0.4-0.4-0.6-0.5
	c-0.1-0.1-0.3-0.2-0.4-0.3c-0.1-0.1-0.2-0.2-0.3-0.3s-0.1-0.1-0.2-0.1c-0.2-0.1-0.4-0.1-0.7-0.1c-0.2,0-0.4,0.1-0.5,0.3l-0.1,0.1
	c-0.1,0.1-0.1,0.2-0.1,0.3c0,0.2-0.1,0.4-0.2,0.5c-0.1,0.2-0.2,0.4-0.4,0.6c-0.2,0.2-0.4,0.3-0.6,0.4C7.8,13,7.5,13,7.3,13
	s-0.4-0.1-0.6-0.4c-0.1-0.1-0.1-0.2,0-0.4s0.2-0.4,0.2-0.6C7,11.2,7,11.1,7,10.9s0-0.4,0.1-0.6v-0.1C7.2,10,7.3,9.8,7.4,9.6
	c0-0.1,0-0.1,0-0.1c-0.4,0-0.7,0-1.1,0H6.2c0,0,0,0,0-0.1C6.3,9.2,6.4,9,6.5,8.8c0,0,0-0.1,0.1-0.1c0.7,0,1.4,0,2.1,0h0.1
	c0.3-0.2,0.7-0.3,1-0.4c0.3-0.1,0.6-0.1,0.9-0.1c0.3,0,0.7,0.1,1,0.1c0.2,0.1,0.4,0.1,0.6,0.2c0.2,0.1,0.5,0.1,0.7,0.2
	c0.3,0,0.5,0.1,0.8,0.1c0.1,0,0.1,0,0.1,0.1c0.1,0.3,0.3,0.5,0.4,0.8c0.2,0.4,0.4,0.7,0.5,1.1c0.2,0.3,0.3,0.7,0.5,1
	c0.2,0.4,0.4,0.8,0.6,1.3c0.1,0.1,0.1,0.3,0.2,0.4v0.1c-0.1,0.2-0.2,0.5-0.3,0.7c0,0.1,0,0.1,0,0.1c0.3,0.3,0.4,0.7,0.3,1.1
	c-0.1,0.3-0.3,0.6-0.6,0.8c-0.1,0-0.3,0-0.4,0c-0.1,0-0.1,0-0.2,0l0,0c0,0.1,0,0.3-0.1,0.4c0,0.1-0.1,0.3-0.2,0.4
	c-0.2,0.3-0.5,0.3-0.9,0.4c-0.1,0-0.1,0-0.2,0c0,0-0.1,0-0.1,0.1c-0.1,0.3-0.2,0.5-0.4,0.7s-0.4,0.2-0.6,0.2c-0.3,0-0.5-0.1-0.8-0.2
	c0,0,0,0-0.1,0c-0.1,0.1-0.2,0.2-0.3,0.3c-0.1,0.2-0.3,0.3-0.5,0.3c-0.1,0-0.2,0-0.4,0c-0.1,0-0.2-0.1-0.3-0.1
	c-0.1-0.1-0.3-0.2-0.4-0.2c-0.1-0.1-0.1,0-0.1,0c-0.1,0.1-0.1,0.1-0.2,0.2c-0.1,0.1-0.2,0.1-0.3,0.1c-0.2,0-0.4-0.1-0.6-0.2
	c-0.1-0.1-0.2-0.2-0.3-0.4c0-0.1,0-0.2,0-0.3l0,0l0,0L8,18.1c0.1,0.2,0,0.2-0.2,0.2c-0.4,0-0.8-0.3-0.9-0.6
	C6.8,17.6,6.8,17.4,6.9,17.2L6.9,17.2L6.9,17.2z"/>
<path class="st0" d="M4.5,7c0.1,0,0.2,0.1,0.3,0.1C5,7.2,5.2,7.3,5.4,7.4c0.1,0,0.2,0.1,0.3,0.1C5.9,7.6,5.9,7.8,5.9,8
	C5.8,8.3,5.7,8.5,5.5,8.8C5.4,9.1,5.2,9.4,5.1,9.7c-0.2,0.5-0.5,0.9-0.7,1.4c-0.2,0.3-0.3,0.6-0.5,1c-0.2,0.3-0.3,0.7-0.5,1
	c-0.1,0.1-0.2,0.2-0.3,0.2s-0.2,0-0.2,0c-0.3-0.1-0.5-0.2-0.8-0.4c-0.1-0.1-0.2-0.1-0.3-0.2c-0.2-0.1-0.2-0.3-0.1-0.5
	s0.2-0.5,0.3-0.7c0.1-0.2,0.2-0.5,0.4-0.7c0.1-0.3,0.3-0.5,0.4-0.8C2.9,9.8,3,9.7,3,9.5C3.1,9.3,3.2,9,3.4,8.8
	c0.2-0.4,0.4-0.7,0.5-1.1C4,7.5,4.1,7.3,4.2,7.1C4.2,7.1,4.3,7,4.5,7"/>
<path class="st0" d="M15.7,7C15.9,7,16,7.1,16,7.2c0.2,0.4,0.3,0.7,0.5,1.1c0.2,0.4,0.4,0.8,0.6,1.2s0.4,0.7,0.5,1.1
	c0.2,0.3,0.3,0.7,0.5,1c0.1,0.2,0.2,0.5,0.4,0.7c0.1,0.1,0,0.3-0.1,0.4c-0.1,0.1-0.2,0.1-0.3,0.2c-0.2,0.1-0.4,0.2-0.6,0.3
	c-0.1,0.1-0.2,0.1-0.4,0.1c-0.1,0-0.3,0-0.4-0.2s-0.2-0.4-0.3-0.6c-0.2-0.4-0.4-0.8-0.6-1.2c-0.1-0.3-0.3-0.6-0.4-0.9
	c-0.1-0.3-0.3-0.5-0.4-0.8c-0.1-0.2-0.2-0.4-0.3-0.6c-0.2-0.3-0.3-0.6-0.5-1c0-0.1-0.1-0.1-0.1-0.2c-0.1-0.2,0-0.4,0.2-0.4
	c0.2-0.1,0.3-0.2,0.5-0.2C15,7.1,15.2,7,15.4,6.9C15.6,7,15.6,7,15.7,7"/>
<polygon class="st0" points="13.5,4.6 13,6.4 16.1,4.6 "/>
<path class="st0" d="M20.1,3.2V1.4c0-0.8-0.6-1.4-1.4-1.4H1.4C0.6,0,0,0.6,0,1.4v1.8C0,4,0.6,4.7,1.4,4.6h17.4
	c0.8,0,1.4-0.6,1.4-1.4H20.1z M4.1,2L3.6,2.5C3.5,2.6,3.5,2.7,3.5,2.8L3.4,3.5c0,0.1,0,0.1,0,0.1c-0.1,0-0.1,0-0.1,0L2.7,3.3
	c0,0,0,0-0.1,0H2.5L1.9,3.6c-0.1,0-0.1,0-0.1,0V3.5l0.1-0.7c0-0.1,0-0.2-0.1-0.3L1.3,2c-0.1,0-0.1-0.1,0-0.1l0.8-0.1
	c0.1,0,0.2-0.1,0.2-0.2L2.5,1c0-0.1,0.1-0.1,0.1-0.1C2.7,0.9,2.7,1,2.7,1l0.4,0.6c0,0.1,0.1,0.2,0.2,0.2l0.8,0.1
	C4.1,1.9,4.2,1.9,4.1,2z M7.8,2L7.3,2.5C7.2,2.6,7.2,2.7,7.2,2.8L7.1,3.5c0,0.1,0,0.1,0,0.1C7,3.6,7,3.6,7,3.6L6.4,3.3
	c0,0,0,0-0.1,0H6.2L5.6,3.6c-0.1,0-0.1,0-0.1,0V3.5l0.1-0.7c0-0.1,0-0.2-0.1-0.3L5,2C4.9,2,5,1.9,5,1.9l0.8-0.1C5.9,1.8,6,1.7,6,1.6
	L6.3,1c0-0.1,0-0.1,0.1-0.1C6.5,0.9,6.5,1,6.5,1l0.3,0.6c0,0.1,0.1,0.2,0.2,0.2l0.8,0.1C7.8,1.9,7.9,1.9,7.8,2z M11.3,2l-0.5,0.5
	c-0.1,0.1-0.1,0.2-0.1,0.3l0.1,0.7c0,0.1,0,0.1,0,0.1c-0.1,0-0.1,0-0.1,0l-0.6-0.3c0,0,0,0-0.1,0H9.9L9.3,3.6c-0.1,0-0.1,0-0.1,0
	V3.5l0.2-0.7c0-0.1,0-0.2-0.1-0.3L8.8,2c-0.1,0-0.1-0.1,0-0.1l0.7-0.1c0.1,0,0.2-0.1,0.2-0.2L10,1c0-0.1,0.1-0.1,0.1-0.1
	c0.1,0,0.1,0.1,0.1,0.1l0.3,0.6c0,0.1,0.1,0.2,0.2,0.2l0.6,0.1C11.3,1.9,11.4,1.9,11.3,2z M15.1,2l-0.5,0.5
	c-0.1,0.1-0.1,0.2-0.1,0.3l0.1,0.7c0,0.1,0,0.1,0,0.1c-0.1,0-0.1,0-0.1,0l-0.6-0.3c0,0,0,0-0.1,0h-0.1L13,3.6c-0.1,0-0.1,0-0.1,0
	V3.5L13,2.8c0-0.1,0-0.2,0-0.3L12.5,2c-0.1,0-0.1-0.1,0-0.1l0.7-0.1c0.1,0,0.2-0.1,0.2-0.2L13.7,1c0-0.1,0.1-0.1,0.1-0.1
	c0.1,0,0.1,0.1,0.1,0.1l0.3,0.6c0,0.1,0.1,0.2,0.2,0.2l0.7,0.1C15.1,1.9,15.2,1.9,15.1,2z M18.9,2l-0.6,0.5
	c-0.1,0.1-0.1,0.2-0.1,0.3l0.1,0.7c0,0.1,0,0.1,0,0.1c-0.1,0-0.1,0-0.1,0l-0.6-0.3c0,0,0,0-0.1,0h-0.1l-0.5,0.3c-0.1,0-0.1,0-0.1,0
	V3.5l0.1-0.7c0-0.1,0-0.2-0.1-0.3L16.3,2c-0.1,0-0.1-0.1,0-0.1L17,1.8c0.1,0,0.2-0.1,0.2-0.2L17.5,1c0-0.1,0.1-0.1,0.1-0.1
	c0.1,0,0.1,0.1,0.1,0.1L18,1.6c0,0.1,0.1,0.2,0.2,0.2l0.7,0.1C18.9,1.9,19,1.9,18.9,2z"/>
</svg>
