<?xml version="1.0" encoding="utf-8"?>
<!-- Generator: Adobe Illustrator 26.0.1, SVG Export Plug-In . SVG Version: 6.00 Build 0)  -->
<svg version="1.1" id="Layer_1" xmlns="http://www.w3.org/2000/svg" xmlns:xlink="http://www.w3.org/1999/xlink" x="0px" y="0px"
	 viewBox="0 0 26 21" style="enable-background:new 0 0 26 21;" xml:space="preserve">
<style type="text/css">
	.st0{fill:#FFFFFF;}
</style>
<polygon class="st0" points="4.5,15 4.5,21 7.1,21 7.1,15.1 5.8,14 "/>
<polygon class="st0" points="8.9,16.6 8.9,21 11.6,21 11.6,15.2 9.4,17 "/>
<polygon class="st0" points="0,21 2.7,21 2.7,16.5 0,18.7 "/>
<polygon class="st0" points="13.4,21 16,21 16,11.4 13.4,13.7 "/>
<polygon class="st0" points="12.7,6.6 14.8,8.7 9.4,13.4 5.8,10.2 0,15 0,17 5.8,12.3 9.4,15.4 16,9.8 17.8,11.6 17.8,6.6 "/>
<path class="st0" d="M6.1,9.5c-2.6,0-4.8-2.1-4.8-4.8S3.5,0,6.1,0s4.8,2.1,4.8,4.8l0,0C10.9,7.4,8.7,9.5,6.1,9.5z M6.1,0.9
	C4,0.9,2.3,2.7,2.3,4.8s1.8,3.8,3.9,3.8S10,6.9,10,4.8C10,2.6,8.3,0.9,6.1,0.9L6.1,0.9z"/>
<path class="st0" d="M4.8,6.7C4.9,6.8,5.1,7,5.2,7c0.2,0.1,0.4,0.2,0.7,0.2v0.4c0,0.1,0,0.2,0,0.2C6,8,6,8,6.1,8s0.2,0,0.2-0.1
	s0-0.2,0-0.3V7.2c0.3,0,0.6-0.1,0.9-0.2c0.2-0.1,0.4-0.3,0.5-0.5C7.8,6.2,7.9,6,7.9,5.8s0-0.4-0.1-0.6C7.7,5,7.6,4.9,7.4,4.8
	C7.3,4.6,7.2,4.5,7,4.5L6.3,4.2V2.9C6.6,3,6.8,3.2,6.8,3.4S7,3.8,7.2,3.7c0.1,0,0.2,0,0.3-0.1c0.1-0.1,0.1-0.2,0.1-0.3
	s0-0.3-0.1-0.4c0.1,0,0-0.1-0.1-0.2C7.3,2.5,7.1,2.4,7,2.3c-0.2,0-0.4-0.1-0.6-0.1V1.9c0-0.2-0.1-0.3-0.2-0.3S6,1.7,6,1.9v0.4
	c-0.4,0-0.8,0.2-1.1,0.4C4.7,2.9,4.5,3.2,4.5,3.6c0,0.3,0.1,0.5,0.2,0.7C4.9,4.5,5,4.6,5.2,4.7C5.4,4.8,5.7,4.9,5.9,5v1.5
	c-0.1,0-0.3-0.1-0.4-0.2c0,0-0.1-0.1-0.1-0.2C5.3,6,5.2,5.8,5.2,5.7c0-0.1-0.1-0.2-0.1-0.2C5,5.4,4.9,5.4,4.8,5.4s-0.2,0-0.3,0.1
	C4.4,5.6,4.4,5.7,4.4,5.8c0,0.2,0,0.3,0.1,0.4C4.5,6.4,4.6,6.6,4.8,6.7z M6.3,5.1c0.2,0.1,0.4,0.1,0.5,0.3C7,5.5,7,5.7,7,5.8
	C7,6,6.9,6.2,6.8,6.3C6.7,6.5,6.5,6.5,6.3,6.6V5.1z M5.5,3.9C5.4,3.8,5.3,3.6,5.3,3.5c0-0.2,0-0.3,0.2-0.4C5.6,3,5.8,2.9,5.9,2.9
	v1.3C5.8,4.1,5.6,4,5.5,3.9z"/>
<path class="st0" d="M21.3,10.4c-2.5,0-4.6,2.1-4.5,4.6c0,2.5,2.1,4.6,4.6,4.5c2.5,0,4.5-2.1,4.5-4.6C26,12.4,23.9,10.4,21.3,10.4
	C21.4,10.4,21.4,10.4,21.3,10.4z M21.3,17.8c-1.6,0-2.9-1.3-2.9-2.9s1.3-2.9,2.9-2.9c0.9,0,1.7,0.4,2.3,1.1c-0.1,0-0.2,0.1-0.3,0.1
	L21,15.6l-1.1-1.1c-0.1-0.1-0.2-0.1-0.4-0.1c-0.3,0-0.5,0.2-0.5,0.5c0,0.1,0,0.3,0.1,0.4l1.5,1.5c0.2,0.2,0.5,0.2,0.7,0l0,0L24,14
	l0.1-0.1c0.6,1.5-0.1,3.1-1.6,3.7C22.1,17.8,21.3,17.8,21.3,17.8z"/>
</svg>
