<?xml version="1.0" encoding="utf-8"?>
<!-- Generator: Adobe Illustrator 26.0.1, SVG Export Plug-In . SVG Version: 6.00 Build 0)  -->
<svg version="1.1" id="Layer_1" xmlns="http://www.w3.org/2000/svg" xmlns:xlink="http://www.w3.org/1999/xlink" x="0px" y="0px"
	 viewBox="0 0 27.1 20" style="enable-background:new 0 0 27.1 20;" xml:space="preserve">
<style type="text/css">
	.st0{fill:#FFFFFF;}
</style>
<path class="st0" d="M4.1,9.8c-0.4,0-0.5-0.2-0.3-0.6c0.1,0,0.1-0.2,0.3-0.3s0.4-0.1,0.6-0.1S4.9,8.6,5,8.4C5.1,8.3,5.2,8.1,5.3,8
	c0.1-0.1,0.1-0.3,0.2-0.4c0-0.2,0.2-0.3,0.4-0.4s0.6-0.5,0.5-0.8s-0.8-0.2-1-0.3C5.2,6,5,5.8,5,6S4.8,6.2,4.7,6.3
	c-0.2,0-0.3,0.1-0.5,0.2C4,6.6,4,6.7,3.9,6.9S3.2,6.7,3.1,6.5C3,6.4,2.9,6.3,2.8,6.2C2.7,6,2.4,6.1,2.2,6C1.8,5.9,1.8,5.7,1.7,5.3
	c0-0.1-0.1-0.2-0.2-0.3c0-0.2,0-0.4,0-0.6s0-0.3,0-0.5c0-0.2,0.1-0.3,0-0.5s-0.2-0.1-0.3,0C1.1,3.5,1,3.5,1,3.6
	c-0.2,0-0.1,0.1-0.2,0.2s-0.3,0.1-0.5,0C0.2,3.7,0.1,3.5,0.1,3.3S0,3,0.1,2.9s0.1,0,0.1-0.1S0.1,2.6,0,2.5c-0.1-0.3,0-0.7,0.3-0.9
	C0.6,1.3,1,1.2,1.4,1.3c0.4,0.1,0.8,0.6,1.2,0.3C2.7,1.5,2.7,1.2,2.8,1S3,0.7,3.2,0.6s0.4,0,0.6-0.2C3.9,0.1,4.1,0,4.4,0
	S5,0,5.2,0.1c0.3,0.1,0.7,0.3,1,0.4C6.6,0.6,7,0.8,7.4,0.9C7.7,0.9,8,1,8.2,1.1c0.1,0.1,0.2,0.3,0.3,0.4c0.1,0.2,0.2,0.1,0.4,0.2
	s0,0.2,0.2,0.1c0.1-0.1,0.2-0.2,0.3-0.2c0.3-0.1,0.7-0.1,0.9,0.1s0.6,0.2,0.8,0c0.3-0.2,0.4-0.5,0.8-0.5c0.2,0,0.4,0,0.6,0
	c0.2,0.1,0.2,0.4,0.4,0.5s0.5,0.2,0.6,0s0.2-0.2,0.4-0.2l0.6,0.1c0.3,0.1,0.6,0.2,0.9,0.2c0.7,0,1.3-0.3,1.6-0.9
	c0.1-0.2,0.1-0.2,0.3-0.3c0.2,0,0.3,0,0.5,0c0.3,0.2,0.6,0.4,0.8,0.7c0.3,0.3,0.7,0.5,1,0.8c0.2,0.2,0.3,0.4,0.4,0.7
	s-0.1,0.3-0.4,0.4s-0.4,0.3-0.2,0.5c0.2,0.2,0.5,0.2,0.8,0.1c0.2-0.1,0.5-0.1,0.8-0.1c0.2,0,0.2,0.3,0.2,0.5c-0.1,0.5-0.5,0.7-1,0.8
	c-0.3,0.1-0.6,0.2-0.9,0.4c-0.1,0.1-0.2,0.3-0.1,0.5c0,0.2,0,0.4,0,0.6s0,1.1-0.4,0.8c-0.2-0.1-0.2-0.3-0.3-0.5s-0.2-0.3-0.3-0.4
	s0-0.4-0.1-0.6S18,5.7,17.8,5.7s-0.3,0.1-0.5,0.2c-0.2,0.2-0.1,0.2,0.1,0.4s0.3,0.3,0.3,0.6s-0.1,0.3-0.1,0.5
	c0.2,0.4,0.2,0.7,0.2,1.1v0.3c0,0.5,0.1,1.1-0.3,1.5c-0.3,0.2-0.5,0.4-0.8,0.6c-0.2,0.1-0.6,0.1-0.8,0.3s-0.5,0.3-0.8,0.4
	c-0.3,0.1-0.6,0-0.7,0.3c0,0.1,0,0.3,0,0.4c0.1,0.2,0.1,0.1,0.3,0.2s0.4,0.6,0.2,0.7s-0.2,0-0.4,0.1c-0.1,0.1-0.2,0.2-0.2,0.4
	c0,0.3,0.1,1.2-0.4,1.1c-0.3-0.1-0.5-0.4-0.7-0.6c-0.4-0.4-0.4,0.1-0.3,0.4s0.1,0.4,0.2,0.6s0.5,0.8,0.6,0.7v0.4c0,0.1,0,0.3,0,0.4
	s-0.1,0.2-0.2,0.3c-0.1,0-0.1-0.2-0.3-0.1c-0.4,0.1,0.2,0.5,0.3,0.6c0.2,0.2,0.4,0.4,0.5,0.6c0.1,0.3,0.1,0.5,0.1,0.8
	c0,0.4,0.4,0.3,0.6,0.4s0.6,0.2,0.6,0.4s0,0.3,0,0.4S15.1,20,15,20c-0.3,0-0.5-0.2-0.8-0.3c-0.3-0.1-0.5-0.3-0.6-0.5
	c0-0.1,0-0.2-0.1-0.3s-0.2-0.1-0.3-0.2c-0.2-0.2-0.4-0.4-0.5-0.7c-0.1-0.2-0.1-0.5-0.2-0.7s-0.4-0.5-0.5-0.7c-0.2-0.2-0.2-0.5,0-0.8
	c0.1-0.1,0.2,0,0.2,0.1s0.1,0.2,0.3,0.2s0.1,0.2,0.2,0.3s0.2,0.2,0.2,0s0-0.4-0.1-0.6c0-0.2-0.1-0.3-0.3-0.4
	c-0.1-0.1-0.2-0.4-0.2-0.5l0.1-0.9c0-0.1,0-0.3,0-0.4s0-0.6-0.2-0.7s-0.2-0.1-0.3-0.1c-0.1-0.1-0.2-0.2-0.2-0.4
	c-0.1-0.3-0.4-0.4-0.4-0.7c0-0.2,0-0.3-0.1-0.4c-0.1-0.1-0.3-0.1-0.4-0.1c-0.2-0.1-0.5,0-0.7,0.2S9.7,11.8,9.5,12
	c-0.1,0.2-0.2,0.4-0.4,0.4c-0.2,0.1-0.4,0.2-0.5,0.4c-0.2,0.2-0.4,0.5-0.4,0.8c0,0.2-0.1,0.8,0.1,0.9s0,0.5,0.2,0.5
	c0.1,0.1,0.1,0.2,0.1,0.3s-0.2,0.1-0.3,0.2C8,15.5,8,15.3,8,15.1S7.7,15,7.6,14.9c-0.2-0.2-0.3-0.4-0.3-0.7c0-0.2-0.1-0.5-0.3-0.7
	c-0.3-0.4-0.4-0.8-0.5-1.2l-0.1-0.6c0-0.1,0-0.2-0.1-0.4c-0.1-0.1-0.2,0.1-0.4,0c-0.4-0.2-0.4-0.7-0.7-1.1C5.1,10,4.9,9.8,4.7,9.8
	C4.5,9.7,4.3,9.7,4.1,9.8L4.1,9.8z"/>
<path class="st0" d="M20.4,8c-0.1,0-0.1-0.1-0.1-0.1c-0.1-0.1-0.2-0.1-0.3-0.2s0.3-0.3,0.4-0.3c0-0.1,0-0.2,0.1-0.2l0,0
	c0.3,0,0.8-0.2,0.7-0.6h0.1c0.3,0,0.4-0.3,0.5-0.5s0-0.3,0.1-0.5s0.2-0.2,0.3-0.1l0,0c0.1,0,0.2,0.1,0.3,0.2l0,0
	c0,0.1,0.1,0.6-0.1,0.7s-0.1,0.4-0.1,0.5c0,0.2-0.1,0.3-0.2,0.4s-0.3,0.2-0.5,0.2s-0.1,0.4-0.2,0.4S21,7.8,20.8,7.8S20.6,8.1,20.4,8
	C20.2,7.9,20.4,8,20.4,8z"/>
<path class="st0" d="M22.1,5.2c0.1-0.1,0.1-0.4,0.1-0.5s0-0.4,0.1-0.6h0.1c0.1,0,0.3,0,0.4,0c0.2,0.1,0.3,0.3,0.5,0.3
	c0.1,0.2-0.1,0.3-0.2,0.4S23,5.2,22.8,5.2h-0.4C22.3,5.2,22.2,5.2,22.1,5.2L22.1,5.2z"/>
<path class="st0" d="M15.3,12.1c0,0.2-0.5-0.1-0.6-0.2h0.1c0.1-0.1,0.4-0.3,0.5-0.1h0.1c0.1,0,0.1,0.1,0.1,0.1L15.3,12.1
	C15.3,12.3,15.3,12.1,15.3,12.1z"/>
<path class="st0" d="M17.4,13.6c-0.1,0-0.2-0.2-0.4-0.2l-0.1-0.1c0-0.1-0.2-0.2,0-0.2l0,0c0.1,0,0.2,0.2,0.3,0.3l0.1-0.1
	c0.2,0,0.4-0.5,0.4-0.6s0-0.4,0-0.4l0.1,0.3h0.1c0.2,0,0.1,0.3,0.1,0.4c-0.1,0.1-0.2,0.1-0.3,0.2C17.6,13.3,17.6,13.6,17.4,13.6
	L17.4,13.6z"/>
<path class="st0" d="M17.7,15.6c0,0.1,0.3-0.1,0.4-0.2s0-0.3,0-0.4s0-0.5-0.2-0.6s-0.4-0.3-0.5-0.4c0,0-0.1-0.2-0.2-0.1s0,0.3,0,0.4
	s0,0.3,0.2,0.4s0.2,0.4,0,0.5s0.1,0.2,0.2,0.2C17.6,15.4,17.7,15.5,17.7,15.6L17.7,15.6z"/>
<path class="st0" d="M17.7,14.2c-0.1,0-0.1-0.3,0.1-0.3S17.9,14.2,17.7,14.2z"/>
<path class="st0" d="M15.5,18.6c0,0,0.4,0,0.4-0.1s0-0.1,0.1-0.2s0.1-0.1,0.1-0.2s0-0.4,0.1-0.6s0.1-0.4,0.1-0.5v-1
	c0-0.1,0-0.5-0.2-0.5c-0.4,0-0.3,0.5-0.6,0.6s-0.4,0.4-0.6,0.6s-0.2,0.2-0.3,0.3s-0.3,0-0.4,0.2s0,0.2,0.1,0.4s0,0.3,0.1,0.5
	s0.5,0.4,0.8,0.4h0.1C15.3,18.4,15.5,18.4,15.5,18.6L15.5,18.6z"/>
<path class="st0" d="M16.6,18.9c-0.3,0-0.3-0.5-0.3-0.7c0-0.1,0.1-0.3,0.2-0.4s0.2-0.2,0.2-0.4c0.1-0.3,0.2-0.5,0.5-0.5
	c0.2,0,0.9,0,0.6,0.3c-0.3,0-0.8-0.1-1,0.2s0.1,0.3,0.3,0.5s0.1,0.4,0.2,0.6h0.1c0.1,0,0.1,0,0.1,0.1s0,0.2-0.1,0.2s-0.1,0-0.2,0
	s-0.4-0.1-0.4-0.1S16.7,18.9,16.6,18.9z"/>
<path class="st0" d="M18.8,17.5c-0.1,0-0.3-0.2-0.3-0.3s0.4,0,0.4,0.1S18.9,17.5,18.8,17.5z"/>
<path class="st0" d="M20.7,19.6c-0.2-0.1-0.1-0.5-0.2-0.7s-0.4-0.4-0.6-0.5c-0.1,0-0.2-0.1-0.2-0.3s-0.3-0.1-0.3-0.3
	c0-0.1,0.1-0.2,0.2-0.2c0.2,0,0.2,0.3,0.2,0.4l0,0c0.4,0,0.8,0.1,1.2,0.2h0.5c0.1,0,0.1,0,0.1,0.1s0.1,0.2,0.1,0.4
	c0,0.3,0.1,0.5,0.1,0.7v0.3c0,0.2-0.1,0.3-0.4,0.2s-0.2-0.2-0.4-0.2S20.8,19.7,20.7,19.6L20.7,19.6z"/>
<path class="st0" d="M17.7,11c-0.1,0.1-0.1-0.2-0.2-0.2l0.1-0.1c0.1-0.1,0.4-0.5,0.4-0.2C18,10.7,17.9,10.9,17.7,11
	C17.6,11,17.7,10.9,17.7,11z"/>
<path class="st0" d="M18.7,11.1c0.1,0,0.2,0,0.2,0.1S18.6,11.1,18.7,11.1L18.7,11.1z"/>
<path class="st0" d="M22.5,8.1c-2.5,0-4.6,2-4.6,4.6s2,4.6,4.6,4.6s4.6-2,4.6-4.6l0,0C27.1,10.2,25,8.1,22.5,8.1z M22.5,15.6
	c-1.6,0-2.9-1.3-2.9-2.9s1.3-2.9,2.9-2.9c0.9,0,1.7,0.4,2.2,1.1c-0.1,0-0.2,0.1-0.3,0.1l-2.3,2.3L21,12.2c-0.1-0.1-0.2-0.1-0.4-0.1
	c-0.3,0-0.5,0.2-0.5,0.5l0,0c0,0.1,0,0.3,0.1,0.4l1.5,1.5c0.1,0.1,0.2,0.2,0.4,0.1c0.1,0,0.3-0.1,0.4-0.1l2.6-2.6l0.1-0.1
	c0.1,0.3,0.2,0.7,0.2,1.1C25.4,14.3,24.1,15.6,22.5,15.6L22.5,15.6z"/>
</svg>
