<?xml version="1.0" encoding="utf-8"?>
<!-- Generator: Adobe Illustrator 26.0.1, SVG Export Plug-In . SVG Version: 6.00 Build 0)  -->
<svg version="1.1" id="Layer_1" xmlns="http://www.w3.org/2000/svg" xmlns:xlink="http://www.w3.org/1999/xlink" x="0px" y="0px"
	 viewBox="0 0 40 40" style="enable-background:new 0 0 40 40;" xml:space="preserve">
<style type="text/css">
	.st0{fill:#1B1464;}
	.st1{fill:#FFFFFF;}
	.st2{fill:#E91D26;}
	.st3{fill:#ED1C24;}
</style>
<path class="st0" d="M0.5,5.5h39v29h-39V5.5z"/>
<path class="st0" d="M39,6v28H1V6H39z M40,5H0v30h40V5z"/>
<g>
	<path class="st1" d="M1,8.6l8.5,5l1.3-3L2.9,6H1V8.6z"/>
	<path class="st1" d="M19,6h-1.5l-7.9,4.7l1.3,2.8L19,8.6V6z"/>
	<path class="st1" d="M10.9,10.6L8.7,13l8.4,5H19v-2.7L10.9,10.6z"/>
	<path class="st1" d="M1,15.3V18h1.7l8.4-5l-1.7-2.7L1,15.3z"/>
	<path class="st1" d="M1,10h18v4H1V10z"/>
	<path class="st1" d="M8,6h4v12H8V6z"/>
</g>
<path class="st2" d="M1,11h18v2H1V11z"/>
<path class="st3" d="M9,6h2v12H9V6z M7.6,10L1,6v1.6L5.1,10H7.6z M12.4,10H15l4-2.4V6L12.4,10z M5,14l-4,2.4V18l6.6-4H5z M19,16.4
	L15,14h-2.6l6.6,3.9V16.4z"/>
<path class="st1" d="M10,24l0.6,1.9l1.8-0.7l-1.1,1.7l1.7,1L11.1,28l0.3,2L10,28.6L8.7,30L9,28l-2-0.1l1.7-1l-1.1-1.7l1.8,0.7L10,24
	z M29.5,26l0.3,0.9l0.9-0.4l-0.5,0.8l0.8,0.5L30,28l0.1,1l-0.7-0.7L28.8,29l0.1-1l-1-0.1l0.8-0.5l-0.5-0.8l0.9,0.4L29.5,26z
	 M25.5,18l0.3,0.9l0.9-0.4l-0.5,0.8l0.8,0.5L26,20l0.1,1l-0.7-0.7L24.8,21l0.1-1l-1-0.1l0.8-0.5l-0.5-0.8l0.9,0.4L25.5,18z M29.5,12
	l0.3,0.9l0.9-0.4l-0.5,0.8l0.8,0.5L30,14l0.1,1l-0.7-0.7L28.8,15l0.1-1l-1-0.1l0.8-0.5l-0.5-0.8l0.9,0.4L29.5,12z M34.5,17l0.3,0.9
	l0.9-0.4l-0.5,0.8l0.8,0.5L35,19l0.1,1l-0.7-0.7L33.8,20l0.1-1l-1-0.1l0.8-0.5l-0.5-0.8l0.9,0.4L34.5,17z M32,22l0.3,0.7l0.7,0.1
	l-0.6,0.5l0.2,0.7L32,23.6L31.4,24l0.2-0.7L31,22.8l0.7-0.1L32,22z"/>
</svg>
