<?xml version="1.0" encoding="utf-8"?>
<!-- Generator: Adobe Illustrator 26.0.1, SVG Export Plug-In . SVG Version: 6.00 Build 0)  -->
<svg version="1.1" id="Layer_1" xmlns="http://www.w3.org/2000/svg" xmlns:xlink="http://www.w3.org/1999/xlink" x="0px" y="0px"
	 viewBox="0 0 40 40" style="enable-background:new 0 0 40 40;" xml:space="preserve">
<style type="text/css">
	.st0{fill:#C1272D;}
	.st1{fill:#FCEE21;}
</style>
<path class="st0" d="M0.5,5.5h39v29h-39V5.5z"/>
<path class="st0" d="M39,6v28H1V6H39z M40,5H0v30h40V5z"/>
<path class="st1" d="M9,11l1.3,4h4.1l-3.3,2.3l1.3,3.9L9,18.8l-3.3,2.4L7,17.3L3.6,15h4.1L9,11z M16.5,9l0.5,1l1,0.2L17.2,11
	l0.2,1.1l-0.9-0.5L15.6,12l0.2-1.1L15,10.1l1-0.2L16.5,9z M16.5,22l0.5,1l1,0.2L17.2,24l0.2,1.1l-0.9-0.5L15.6,25l0.2-1.1L15,23.1
	l1-0.2L16.5,22z M20.5,13l0.5,1l1,0.2L21.2,15l0.2,1.1l-0.9-0.5L19.6,16l0.2-1.1L19,14.1l1-0.2L20.5,13z M20.5,18l0.5,1l1,0.2
	L21.2,20l0.2,1.1l-0.9-0.5L19.6,21l0.2-1.1L19,19.2l1-0.2L20.5,18z"/>
</svg>
