<?xml version="1.0" encoding="utf-8"?>
<!-- Generator: Adobe Illustrator 26.0.1, SVG Export Plug-In . SVG Version: 6.00 Build 0)  -->
<svg version="1.1" id="Layer_1" xmlns="http://www.w3.org/2000/svg" xmlns:xlink="http://www.w3.org/1999/xlink" x="0px" y="0px"
	 viewBox="0 0 40 40" style="enable-background:new 0 0 40 40;" xml:space="preserve">
<style type="text/css">
	.st0{fill:#1B1464;}
	.st1{fill-rule:evenodd;clip-rule:evenodd;fill:#FCEE21;stroke:#FCEE21;stroke-width:0.5;stroke-miterlimit:10;}
</style>
<path class="st0" d="M0.5,5.5h39v29h-39V5.5z"/>
<path class="st0" d="M39,6v28H1V6H39z M40,5H0v30h40V5z"/>
<g>
	<path class="st1" d="M15.7,11.8l1-0.7h-1.2L15.1,10l-0.4,1.1h-1.2l1,0.7l-0.4,1.1l1-0.6l0.9,0.6L15.7,11.8z"/>
	<path class="st1" d="M21,11.6l-0.3-1.1l1-0.7h-1.3l-0.3-1.1l-0.4,1.1h-1.3l1,0.7l-0.3,1.1L20,11L21,11.6z"/>
	<path class="st1" d="M25.8,12.9l-0.3-1.1l1-0.7h-1.3L24.9,10l-0.4,1.1h-1.3l1,0.7l-0.3,1.1l0.9-0.6L25.8,12.9z"/>
	<path class="st1" d="M29,15.4l1-0.7h-1.2l-0.4-1.2l-0.3,1.2h-1.3l1,0.7l-0.4,1.1l1-0.7l1,0.7L29,15.4z"/>
	<path class="st1" d="M30.7,21.5l-0.3-1.1l1-0.7h-1.2l-0.4-1.2l-0.4,1.2h-1.2l1,0.7l-0.4,1.1l1-0.7L30.7,21.5z"/>
	<path class="st1" d="M29.4,26.4l-0.3-1.1l1-0.8h-1.2l-0.4-1.1l-0.4,1.1h-1.3l1.1,0.8l-0.4,1l1-0.6L29.4,26.4z"/>
	<path class="st1" d="M25.5,28.9l1.1-0.7h-1.3L25,27l-0.4,1.2h-1.3l1,0.7L24,30l0.9-0.7l1,0.7L25.5,28.9z"/>
	<path class="st1" d="M20.7,30.2l1-0.7h-1.3l-0.3-1.1l-0.4,1.1h-1.3l1,0.7l-0.3,1.1l0.9-0.7l1,0.7L20.7,30.2z"/>
	<path class="st1" d="M15.7,28.9l1-0.7h-1.3L15.1,27l-0.4,1.2h-1.3l1,0.7L14.1,30l0.9-0.7l1,0.7L15.7,28.9z"/>
	<path class="st1" d="M12.2,25.3l1-0.8H12l-0.4-1.1l-0.4,1.1H10l1,0.8l-0.4,1l1-0.6l0.9,0.7L12.2,25.3z"/>
	<path class="st1" d="M11.2,21.5l-0.4-1.1l1-0.7h-1.2l-0.4-1.2l-0.4,1.2H8.6l1,0.7l-0.4,1.1l1-0.7L11.2,21.5z"/>
	<path class="st1" d="M12.6,16.5l-0.4-1.1l1-0.7H12l-0.4-1.2l-0.4,1.2H10l1,0.7l-0.4,1.1l1-0.7L12.6,16.5z"/>
</g>
</svg>
