<?xml version="1.0" encoding="utf-8"?>
<!-- Generator: Adobe Illustrator 26.0.1, SVG Export Plug-In . SVG Version: 6.00 Build 0)  -->
<svg version="1.1" id="Layer_1" xmlns="http://www.w3.org/2000/svg" xmlns:xlink="http://www.w3.org/1999/xlink" x="0px" y="0px"
	 viewBox="0 0 40 40" style="enable-background:new 0 0 40 40;" xml:space="preserve">
<style type="text/css">
	.st0{fill:#C1272D;}
	.st1{fill:#FFFFFF;}
</style>
<path class="st0" d="M0.5,5.5h39v29h-39V5.5z"/>
<path class="st0" d="M39,6v28H1V6H39z M40,5H0v30h40V5z"/>
<path class="st1" d="M19.4,20.3C13.3,17.6,16,9.6,21.9,10c-1.2,0.6-1.4,1.8-0.7,2.8c0.8,1.2-0.1,3.1-1.1,3.6
	C18.4,17.2,18.1,19.2,19.4,20.3z"/>
<path class="st0" d="M19.1,14.5L18.8,15l-0.1-0.6L18,14.2l0.6-0.3v-0.6l0.5,0.4l0.6-0.2L19.3,14l0.4,0.5H19.1z"/>
<path class="st0" d="M19.5,20.2c-0.7-0.4-1.4-1.2-1.6-2.1c-0.3-1.1-0.1-2.3,0.5-3.2l-0.1-0.1c-0.6,1-0.8,2.2-0.5,3.3
	c0.3,1,0.9,1.8,1.7,2.2V20.2z"/>
<path class="st1" d="M19.5,20.3c0.6-6.7,9.1-6.6,10.5-0.8c-1-0.9-2.1-0.8-2.9,0.2c-0.9,1.1-3,0.9-3.7,0.1
	C22.1,18.3,20,18.6,19.5,20.3z"/>
<path class="st0" d="M24.9,18.1L24.3,18l0.6-0.3v-0.6l0.5,0.4l0.6-0.2l-0.3,0.6l0.4,0.5l-0.6-0.1L25,18.8L24.9,18.1z"/>
<path class="st0" d="M19.5,20.3c0.1-0.8,0.7-1.6,1.5-2.2c1-0.6,2.1-0.8,3.2-0.5v-0.1c-1.1-0.3-2.4-0.1-3.4,0.6
	c-0.9,0.6-1.5,1.4-1.6,2.3L19.5,20.3z"/>
<path class="st1" d="M19.5,20.3c6.6-1.5,9.1,6.6,4,9.7c0.6-1.2,0.1-2.2-1.1-2.7c-1.3-0.5-1.8-2.5-1.2-3.5
	C22.1,22.2,21.2,20.3,19.5,20.3z"/>
<path class="st0" d="M23.2,24.8v-0.6l0.5,0.4l0.6-0.2L24,25l0.4,0.5l-0.6-0.1l-0.4,0.5l-0.1-0.6l-0.6-0.2L23.2,24.8z"/>
<path class="st0" d="M19.5,20.3c0.8-0.1,1.8,0.2,2.6,0.8c0.9,0.7,1.4,1.8,1.5,2.9h0.2c-0.1-1.2-0.7-2.3-1.6-3
	c-0.8-0.7-1.8-1-2.7-0.8V20.3z"/>
<path class="st1" d="M19.5,20.3c3.5,5.7-3.5,10.6-8,6.8c1.3,0.2,2.1-0.6,2.2-1.9c0.1-1.4,1.9-2.5,3-2.2
	C18.4,23.4,19.9,21.9,19.5,20.3z"/>
<path class="st0" d="M16.3,25.2l0.6-0.2l-0.3,0.6L17,26l-0.6-0.1L16,26.5l-0.1-0.6l-0.6-0.2l0.6-0.3v-0.6L16.3,25.2z"/>
<path class="st0" d="M19.4,20.3c0.4,0.7,0.4,1.7,0,2.7c-0.4,1.1-1.2,1.9-2.3,2.3l0.1,0.1c1.1-0.4,2-1.3,2.4-2.4c0.4-1,0.4-2-0.1-2.8
	L19.4,20.3z"/>
<path class="st1" d="M19.4,20.3c-4.4,5.1-11.2,0-9-5.5c0.2,1.3,1.3,1.8,2.5,1.5c1.4-0.4,2.9,1,3.1,2.1C16.2,20.3,18,21.2,19.4,20.3z
	"/>
<g>
	<path class="st0" d="M13.8,18.8l0.4,0.5l-0.6-0.1l-0.4,0.5l-0.1-0.6L12.5,19l0.6-0.3v-0.6l0.5,0.4l0.6-0.2L13.8,18.8z"/>
	<path class="st0" d="M19.4,20.2c-0.6,0.6-1.5,0.9-2.5,0.9c-1.1-0.1-2.2-0.6-2.9-1.4l-0.1,0.1c0.8,0.9,1.9,1.4,3,1.5
		c1,0,2-0.3,2.7-0.9L19.4,20.2z"/>
</g>
</svg>
