<?xml version="1.0" encoding="utf-8"?>
<!-- Generator: Adobe Illustrator 26.0.1, SVG Export Plug-In . SVG Version: 6.00 Build 0)  -->
<svg version="1.1" id="Layer_1" xmlns="http://www.w3.org/2000/svg" xmlns:xlink="http://www.w3.org/1999/xlink" x="0px" y="0px"
	 viewBox="0 0 40 40" style="enable-background:new 0 0 40 40;" xml:space="preserve">
<style type="text/css">
	.st0{fill:#F2FAFF;}
	.st1{fill:#A3B7CC;}
	.st2{fill:#C1272D;}
</style>
<path class="st0" d="M0.5,5.5h39v29h-39V5.5z"/>
<path class="st1" d="M39,6v28H1V6H39z M40,5H0v30h40V5z"/>
<path class="st2" d="M20,27.5c-4.1,0-7.5-3.4-7.5-7.5s3.4-7.5,7.5-7.5s7.5,3.4,7.5,7.5S24.1,27.5,20,27.5z"/>
<path class="st2" d="M20,13c3.9,0,7,3.1,7,7s-3.1,7-7,7s-7-3.1-7-7S16.1,13,20,13 M20,12c-4.4,0-8,3.6-8,8s3.6,8,8,8s8-3.6,8-8
	S24.4,12,20,12z"/>
</svg>
