<?xml version="1.0" encoding="utf-8"?>
<!-- Generator: Adobe Illustrator 26.0.1, SVG Export Plug-In . SVG Version: 6.00 Build 0)  -->
<svg version="1.1" id="Layer_1" xmlns="http://www.w3.org/2000/svg" xmlns:xlink="http://www.w3.org/1999/xlink" x="0px" y="0px"
	 viewBox="0 0 40 40" style="enable-background:new 0 0 40 40;" xml:space="preserve">
<style type="text/css">
	.st0{fill:#1B1464;}
	.st1{fill:#C1272D;}
	.st2{fill:#FFFFFF;}
</style>
<path class="st0" d="M0.5,5.5h39v8h-39V5.5z"/>
<path class="st0" d="M39,6v7H1V6H39z M40,5H0v9h40V5z"/>
<path class="st0" d="M0.5,26.5h39v8h-39V26.5z"/>
<path class="st0" d="M39,27v7H1v-7H39z M40,26H0v9h40V26z"/>
<path class="st1" d="M0.5,13.5h39v13.1h-39V13.5z"/>
<path class="st1" d="M39,14v12H1V14H39z M40,13H0v14h40V13z"/>
<path class="st2" d="M27.8,24.3V25H12.2v-0.7h0.4v-0.8H13v-0.6h0.4v-0.5h0.2V22h0.6v-1.5c0-0.2-0.2-0.3-0.3-0.3V19
	c0.1,0,0.1,0.1,0.1,0.1l0,0l0,0l0,0h0.5v-0.8l0,0c0,0.1,0.1,0.2,0.2,0.2h0.1c0-0.1,0-0.1,0-0.2s-0.1-0.1,0-0.3
	c0,0.1,0.1,0.1,0.2,0.1c0,0,0,0,0-0.1s0-0.1-0.1-0.1c0-0.1-0.1-0.1,0-0.2l0.1,0.1h0.1v-0.1v-0.1c0-0.1,0-0.1,0-0.2
	c0,0.1,0.1,0.1,0.1,0.1s0.1,0,0.1-0.1l0,0c0-0.2,0-0.4,0.2-0.5l0,0l0,0c0-0.1,0-0.2,0.1-0.2s0.1,0.1,0.1,0.2l0,0l0,0
	c0.2,0.1,0.2,0.3,0.2,0.5l0,0c0,0.1,0,0.1,0.1,0.1c0,0,0.1,0,0.1-0.1c0,0.1,0,0.1,0,0.2v0.1v0.1c0,0,0,0,0.1,0c0,0,0.1,0,0.1-0.1
	c0,0.1,0,0.1,0,0.2c0,0,0,0.1-0.1,0.1c0,0.1,0,0.1,0,0.1s0.1,0,0.2-0.1c0,0.1,0,0.2,0,0.3c0,0.1-0.1,0.1,0,0.2s0.3-0.1,0.3-0.2v0.9
	h2v-0.8c0.1,0,0.1,0.1,0.1,0.1v0.2H19l0.1-0.1c0.1-0.1,0-0.4-0.1-0.4V18c0.1,0,0.2,0.1,0.2,0.3v0.3h0.3V18c0-0.1-0.1-0.2-0.1-0.2
	l-0.1-0.1c0,0,0-0.1,0-0.2c0,0.1,0.1,0.1,0.1,0.1h0.1v-0.1c0-0.1,0-0.2-0.1-0.3c0,0,0-0.1-0.1-0.1v-0.2c0,0.1,0.1,0.2,0.1,0.2h0.1
	c0,0,0-0.1,0-0.2s0-0.1-0.1-0.2c0,0,0-0.1-0.1-0.1c0-0.1,0-0.2,0-0.2l0,0c0,0.1,0,0.2,0.1,0.2h0.1c0,0,0-0.3-0.1-0.4l0,0v-0.1
	c0,0.1,0.1,0.1,0.1,0.1h0.1c0,0,0-0.2-0.1-0.3v-0.1l0.1,0.1h0.1v-0.3h0.1v-0.2h0.1v-0.2H20V15h0.1v-0.1c0-0.1,0-0.1,0.1-0.2l0,0
	c0,0,0,0,0.1,0c0,0,0,0.1,0.1,0.2V15h0.1v0.2h0.1v0.2h0.1v0.2h0.1v0.3h0.1c0,0,0.1,0,0.1-0.1v0.1c-0.1,0.1-0.1,0.3-0.1,0.3H21
	c0,0,0.1,0,0.1-0.1v0.1l0,0C21,16.3,21,16.6,21,16.6h0.1c0.1,0,0.1-0.1,0.1-0.2l0,0c0,0.1,0,0.2,0,0.2s0,0.1-0.1,0.1
	c0,0.1-0.1,0.1-0.1,0.2s0,0.2,0,0.2h0.1c0,0,0.1-0.1,0.1-0.2c0,0.1,0,0.2,0,0.2l-0.1,0.1C21,17.3,21,17.4,21,17.5v0.1h0.1
	c0,0,0.1,0,0.1-0.1c0,0.1,0,0.1,0,0.2c0,0,0,0.1-0.1,0.1c0,0-0.1,0.1-0.1,0.2v0.6h0.2v-0.3c0-0.2,0.2-0.3,0.2-0.3v0.2h-0.1
	c-0.1,0.1-0.1,0.2,0,0.4l0.1,0.1h0.2v-0.2c0,0,0-0.1,0.1-0.1v0.8v0.1h2v-0.9l0,0c0,0.1,0.1,0.2,0.2,0.2H24c0-0.1,0-0.1,0-0.2
	s-0.1-0.1,0-0.3c0,0.1,0.1,0.1,0.2,0.1c0,0,0,0,0-0.1s0-0.1-0.1-0.1c0-0.1-0.1-0.1,0-0.2c0,0,0,0.1,0.1,0.1c0,0,0,0,0.1,0v-0.1v-0.1
	c0-0.1,0-0.1,0-0.2c0,0.1,0.1,0.1,0.1,0.1s0.1,0,0.1-0.1l0,0c0-0.2,0-0.4,0.2-0.5l0,0l0,0c0-0.1,0-0.2,0.1-0.2s0.1,0.1,0.1,0.2l0,0
	l0,0c0.2,0.1,0.2,0.3,0.2,0.5l0,0c0,0.1,0,0.1,0.1,0.1c0,0,0.1,0,0.1-0.1c0,0.1,0,0.1,0,0.2v0.1v0.1c0,0,0,0,0.1,0
	c0,0,0.1,0,0.1-0.1c0,0.1,0,0.1,0,0.2c0,0,0,0.1-0.1,0.1v0.1c0,0,0.1,0,0.2-0.1c0,0.1,0,0.2,0,0.3c0,0.1-0.1,0.1,0,0.2
	c0,0,0,0,0.1,0s0.2-0.1,0.2-0.2l0,0v0.9h0.5v-0.1c0-0.1,0.1-0.2,0.2-0.2v1.1c-0.1,0-0.2,0.2-0.3,0.3v1.5h0.6v0.4h0.2v0.5H27v0.6h0.4
	v0.8L27.8,24.3z"/>
</svg>
