<?xml version="1.0" encoding="utf-8"?>
<!-- Generator: Adobe Illustrator 26.0.1, SVG Export Plug-In . SVG Version: 6.00 Build 0)  -->
<svg version="1.1" id="Layer_1" xmlns="http://www.w3.org/2000/svg" xmlns:xlink="http://www.w3.org/1999/xlink" x="0px" y="0px"
	 viewBox="0 0 40 40" style="enable-background:new 0 0 40 40;" xml:space="preserve">
<style type="text/css">
	.st0{fill:#C1272D;}
	.st1{fill:#FFFFFF;}
	.st2{fill:#1B1464;}
	.st3{fill-rule:evenodd;clip-rule:evenodd;fill:#FCEE21;}
</style>
<path class="st0" d="M0.5,6.5h39v27h-39V6.5z"/>
<path class="st0" d="M39,7v26H1V7H39z M40,6H0v28h40V6z"/>
<path class="st1" d="M12,9h27v2H12V9z M12,14h27v2H12V14z M1,24h38v2H1V24z M1,19h38v2H1V19z M1,29h38v2H1V29z"/>
<path class="st2" d="M0.5,6.5h19v14h-19V6.5z"/>
<path class="st2" d="M19,7v13H1V7H19z M20,6H0v15h20V6z"/>
<g>
	<path class="st3" d="M8.9,12.6l2,0.9l-2,0.8H11l-1.4,1.6l1.9-1l-0.5,2l1.3-1.7l0.4,2.1l0.4-2.1l1.2,1.7l-0.5-2l1.9,1l-1.4-1.6
		l2.2,0.1l-2.1-0.9l2.1-0.8h-2.2l1.4-1.6l-1.9,1l0.6-2l-1.3,1.7l-0.4-2.1l-0.4,2.1L11,10.1l0.5,2l-1.9-1l1.4,1.6L8.9,12.6z"/>
	<path class="st3" d="M8.1,8.9c-2.5,0-4.6,2-4.6,4.6c0,2.5,2,4.6,4.6,4.6c0.9,0,1.8-0.3,2.5-0.7c-0.4,0.1-0.9,0.2-1.3,0.2
		c-2.2,0-4.1-1.8-4.1-4s1.8-4,4.1-4c0.5,0,1,0.1,1.4,0.3C9.9,9.2,9.1,8.9,8.1,8.9z"/>
</g>
</svg>
