<?xml version="1.0" encoding="utf-8"?>
<!-- Generator: Adobe Illustrator 26.0.1, SVG Export Plug-In . SVG Version: 6.00 Build 0)  -->
<svg version="1.1" id="Layer_1" xmlns="http://www.w3.org/2000/svg" xmlns:xlink="http://www.w3.org/1999/xlink" x="0px" y="0px"
	 viewBox="0 0 40 40" style="enable-background:new 0 0 40 40;" xml:space="preserve">
<style type="text/css">
	.st0{fill:#1B1464;}
	.st1{fill:#FFFFFF;}
	.st2{fill:#C1272D;}
</style>
<path class="st0" d="M0.5,5.5h39v29h-39V5.5z"/>
<path class="st0" d="M39,6v28H1V6H39z M40,5H0v30h40V5z"/>
<g>
	<path class="st1" d="M1,8.6l8.5,5l1.3-3L2.9,6H1V8.6z"/>
	<path class="st1" d="M19,6h-1.5l-7.9,4.7l1.3,2.8L19,8.6V6z"/>
	<path class="st1" d="M10.9,10.6L8.7,13l8.4,5H19v-2.7L10.9,10.6z"/>
	<path class="st1" d="M1,15.3V18h1.7l8.4-5l-1.7-2.7L1,15.3z"/>
	<path class="st1" d="M1,10h18v4H1V10z"/>
	<path class="st1" d="M8,6h4v12H8V6z"/>
</g>
<path class="st2" d="M1,11h18v2H1V11z"/>
<path class="st2" d="M9,6h2v12H9V6z M7.6,10L1,6v1.6L5.1,10H7.6z M12.4,10H15l4-2.4V6L12.4,10z M5,14l-4,2.4V18l6.6-4H5z M19,16.4
	L15,14h-2.6l6.6,3.9V16.4z M29.5,29.1L27.9,30l0.3-1.9L27,26.8l1.7-0.3l0.8-1.7l0.8,1.7l1.7,0.3l-1.3,1.3L31,30L29.5,29.1z"/>
<path class="st0" d="M29.5,25.7l0.6,1.2l1.2,0.2L30.4,28l0.2,1.3l-1.1-0.6l-1.1,0.6l0.2-1.3l-0.9-0.9l1.2-0.2L29.5,25.7z M29.5,22.9
	l-1.1,2.3l-0.3,0.6l-0.6,0.1l-2.3,0.3l1.6,1.7l0.5,0.5l-0.1,0.7l-0.4,2.4l2.2-1.2l0.5-0.3l0.5,0.3l2.2,1.2l-0.4-2.4l-0.1-0.7
	l0.5-0.5l1.6-1.7l-2.3-0.3l-0.6-0.1l-0.3-0.6L29.5,22.9z"/>
<path class="st2" d="M34.6,22.1L33,22.9l0.3-1.9L32,19.8l1.7-0.3l0.8-1.7l0.8,1.7l1.7,0.3l-1.3,1.3L36,23L34.6,22.1z"/>
<path class="st0" d="M34.6,18.7l0.6,1.2l1.2,0.2L35.5,21l0.2,1.3l-1.1-0.6l-1.1,0.6l0.2-1.3l-0.9-0.9l1.2-0.2L34.6,18.7z M34.6,15.9
	l-1.1,2.3l-0.3,0.6l-0.6,0.1l-2.3,0.4l1.6,1.7l0.5,0.5l-0.1,0.7l-0.4,2.4l2.2-1.2l0.5-0.3l0.5,0.3l2.2,1.2l-0.4-2.4l-0.1-0.7
	l0.5-0.5l1.6-1.7L36.6,19L36,18.9l-0.3-0.6L34.6,15.9z"/>
<path class="st2" d="M23.5,23.1L21.9,24l0.3-1.9L21,20.8l1.7-0.3l0.8-1.7l0.8,1.7l1.7,0.3l-1.3,1.3L25,24L23.5,23.1z"/>
<path class="st0" d="M23.5,19.7l0.6,1.2l1.2,0.2L24.4,22l0.2,1.3l-1.1-0.6l-1.1,0.6l0.2-1.3l-0.9-0.9l1.2-0.2L23.5,19.7z M23.5,16.9
	l-1.1,2.3l-0.3,0.6l-0.6,0.1l-2.3,0.3l1.6,1.7l0.5,0.5l-0.1,0.7l-0.4,2.4l2.2-1.2l0.5-0.3l0.5,0.3l2.2,1.2l-0.4-2.4l-0.1-0.7
	l0.5-0.5l1.6-1.7l-2.3-0.3l-0.6-0.1l-0.3-0.6L23.5,16.9z"/>
<path class="st2" d="M28.5,17.1L26.9,18l0.3-1.9L26,14.8l1.7-0.3l0.8-1.7l0.8,1.7l1.7,0.3l-1.3,1.3L30,18L28.5,17.1z"/>
<path class="st0" d="M28.5,13.7l0.6,1.2l1.2,0.2L29.4,16l0.2,1.3l-1.1-0.6l-1.1,0.6l0.2-1.3l-0.9-0.9l1.2-0.2L28.5,13.7z M28.5,10.9
	l-1.1,2.3l-0.3,0.6l-0.6,0.1l-2.3,0.3l1.6,1.7l0.5,0.5l-0.1,0.7l-0.4,2.4l2.2-1.2l0.5-0.3l0.5,0.3l2.2,1.2l-0.4-2.4l-0.1-0.7
	l0.5-0.5l1.6-1.7l-2.3-0.3l-0.6-0.1l-0.3-0.6L28.5,10.9z"/>
</svg>
