<?xml version="1.0" encoding="utf-8"?>
<!-- Generator: Adobe Illustrator 26.0.1, SVG Export Plug-In . SVG Version: 6.00 Build 0)  -->
<svg version="1.1" id="Layer_1" xmlns="http://www.w3.org/2000/svg" xmlns:xlink="http://www.w3.org/1999/xlink" x="0px" y="0px"
	 viewBox="0 0 40 40" style="enable-background:new 0 0 40 40;" xml:space="preserve">
<style type="text/css">
	.st0{fill:#F2FAFF;}
	.st1{fill:#A3B7CC;}
	.st2{fill:#2E3192;}
	.st3{fill:#C1272D;}
	.st4{fill:#FCEE21;}
	.st5{fill:#FFEEA3;}
</style>
<path class="st0" d="M0.5,5.5h39v29h-39V5.5z"/>
<path class="st1" d="M39,6v28H1V6H39z M40,5H0v30h40V5z"/>
<path class="st2" d="M23.3,19.6L1.7,5.5h37.8V30L23.3,19.6z"/>
<path class="st2" d="M39,6v14v9.1l-15.5-9.9L3.4,6H39z M40,5H0l23,15l17,10.9V20V5z"/>
<path class="st3" d="M1.7,34.5l21.5-14h16.4v14H1.7z"/>
<path class="st3" d="M39,21v13H3.4l19.9-13h15.4H39z M40,20h-1.3H23L0,35h40V20z"/>
<path class="st4" d="M8.5,24.9L9,22.6l0.5,2.3L9,25.4L8.5,24.9z M10.8,21.9l2,1.3v0.6h-0.6L10.8,21.9z M5.2,23.8v-0.6l2-1.3l-1.3,2
	L5.2,23.8z M8.5,22.5c-0.3-0.1-0.6-0.2-0.9-0.4l-0.4-0.3l-0.3-0.4c-0.2-0.3-0.3-0.6-0.4-0.9L6.4,20l0.1-0.5c0.1-0.3,0.2-0.6,0.4-0.9
	l0.3-0.4L7.6,18c0.3-0.2,0.6-0.3,0.9-0.4L9,17.5l0.5,0.1c0.3,0.1,0.6,0.2,0.9,0.4l0.4,0.3l0.3,0.4c0.2,0.3,0.3,0.6,0.4,0.9l0.1,0.5
	l-0.1,0.5c-0.1,0.3-0.2,0.6-0.4,0.9l-0.3,0.4l-0.4,0.3c-0.3,0.2-0.6,0.3-0.9,0.4l-0.5,0L8.5,22.5z M11.6,20.1l2.3-0.5l0.4,0.5
	l-0.4,0.5L11.6,20.1z M3.7,20.1l0.4-0.5l2.3,0.5l-2.3,0.5L3.7,20.1z M12.1,16.3h0.6v0.6l-2,1.3L12.1,16.3z M5.2,16.9v-0.6h0.6l1.3,2
	L5.2,16.9z M8.5,15.2L9,14.7l0.5,0.4L9,17.5L8.5,15.2z"/>
<path class="st4" d="M9,18l0.4,0.1c0.3,0.1,0.5,0.2,0.7,0.3l0.3,0.2l0.2,0.3c0.1,0.2,0.2,0.5,0.3,0.7L11,20v0.4
	c-0.1,0.3-0.2,0.5-0.3,0.7l-0.2,0.3l-0.3,0.2C9.9,21.9,9.6,22,9.4,22L9,22.1L8.6,22c-0.3-0.1-0.5-0.2-0.7-0.3l-0.3-0.2l-0.2-0.3
	c-0.1-0.2-0.2-0.5-0.3-0.7L7,20.1v-0.4c0.1-0.3,0.2-0.5,0.3-0.7l0.2-0.3l0.3-0.2c0.2-0.1,0.5-0.2,0.7-0.3L9,18z M9,14.1L8,15
	l0.4,2.1c-0.4,0.1-0.8,0.2-1.1,0.4l-1.2-1.8l-1.4,0.1l-0.1,1.4l1.8,1.2C6.2,18.7,6,19.1,6,19.5L3.9,19L3,20l0.9,1L6,20.6
	c0.1,0.4,0.2,0.8,0.4,1.1l-1.8,1.2l0.1,1.4l1.4,0.1l1.2-1.8C7.7,22.8,8,22.9,8.4,23L8,25.1L9,26l1-0.9L9.6,23
	c0.4-0.1,0.8-0.2,1.1-0.4l1.2,1.8l1.4-0.1l0.1-1.4l-1.8-1.2c0.2-0.3,0.4-0.7,0.4-1.1l2.1,0.4l0.9-1l-0.9-1L12,19.4
	c-0.1-0.4-0.2-0.8-0.4-1.1l1.8-1.2l-0.1-1.4l-1.4-0.1l-1.2,1.8C10.4,17.2,10,17,9.6,17l0.4-2L9,14.1z"/>
<path class="st5" d="M3.3,11.8l-0.2-0.3l0.3-0.1l0.1-0.3l0.1,0.3L4,11.5l-0.2,0.3l0.1,0.3L3.6,12l-0.3,0.1V11.8z"/>
<path class="st4" d="M3.5,10L3,11l-1,0.2L2.8,12l-0.2,1l0.9-0.5l1,0.5l-0.2-1.1L5,11.2L4,11L3.5,10z"/>
<path class="st4" d="M3.5,27L4,28l1,0.2L4.2,29l0.2,1l-0.9-0.5L2.6,30l0.2-1.1L2,28.1L3,28L3.5,27z"/>
<path class="st5" d="M17.8,20.1l-0.2-0.3l0.3-0.1l0.1-0.3l0.1,0.3l0.3,0.1l-0.2,0.3l0.1,0.3L18,20.2l-0.3,0.1L17.8,20.1z"/>
<path class="st4" d="M18,18.3l-0.5,1l-1,0.2l0.8,0.8l-0.2,1.1l0.9-0.5l0.9,0.5l-0.2-1.1l0.8-0.8l-1-0.2L18,18.3z"/>
</svg>
