<?xml version="1.0" encoding="utf-8"?>
<!-- Generator: Adobe Illustrator 26.0.1, SVG Export Plug-In . SVG Version: 6.00 Build 0)  -->
<svg version="1.1" id="Layer_1" xmlns="http://www.w3.org/2000/svg" xmlns:xlink="http://www.w3.org/1999/xlink" x="0px" y="0px"
	 viewBox="0 0 40 40" style="enable-background:new 0 0 40 40;" xml:space="preserve">
<style type="text/css">
	.st0{fill:#F2FAFF;}
	.st1{fill:#A3B7CC;}
	.st2{fill:#ED1C24;}
	.st3{fill-rule:evenodd;clip-rule:evenodd;fill:#FFFFFF;}
</style>
<path class="st0" d="M0.5,5.5h39v29h-39V5.5z"/>
<path class="st1" d="M39,6v28H23.5H1V6H39z M40,5H0v30h23.5H40V5z"/>
<path class="st2" d="M0.5,5.5h39v14h-39V5.5z"/>
<path class="st2" d="M39,6v13H1V6H39z M40,5H0v15h40V5z"/>
<g>
	<path class="st3" d="M5,12.4c0-2.5,2-4.5,4.4-4.6c-0.5-0.2-1-0.3-1.6-0.3c-2.7,0-4.9,2.2-4.9,4.9s2.2,4.9,4.9,4.9
		c0.6,0,1.1-0.1,1.6-0.3C7,16.9,5,14.9,5,12.4z"/>
	<path class="st3" d="M8.2,11.7l0.6-0.5H8l-0.3-0.8l-0.2,0.8H6.7l0.6,0.5l-0.2,0.8L7.7,12l0.7,0.5L8.2,11.7z"/>
	<path class="st3" d="M11,10.6l-0.2-0.8l0.6-0.5h-0.8l-0.2-0.8l-0.3,0.8H9.3l0.6,0.5l-0.2,0.8l0.7-0.5L11,10.6z"/>
	<path class="st3" d="M13.6,12.5l-0.2-0.8l0.6-0.5h-0.8l-0.3-0.8l-0.2,0.8h-0.8l0.6,0.5l-0.2,0.8l0.6-0.5L13.6,12.5z"/>
	<path class="st3" d="M12.4,14.8l0.6-0.5h-0.8L12,13.5l-0.3,0.8h-0.8l0.7,0.5l-0.3,0.8l0.7-0.5l0.6,0.5L12.4,14.8z"/>
	<path class="st3" d="M9.4,15.6l-0.3-0.8l0.7-0.5H9l-0.3-0.8l-0.2,0.8H7.7l0.6,0.5l-0.2,0.8l0.6-0.5L9.4,15.6z"/>
</g>
</svg>
