<?xml version="1.0" encoding="utf-8"?>
<!-- Generator: Adobe Illustrator 26.0.1, SVG Export Plug-In . SVG Version: 6.00 Build 0)  -->
<svg version="1.1" id="Layer_1" xmlns="http://www.w3.org/2000/svg" xmlns:xlink="http://www.w3.org/1999/xlink" x="0px" y="0px"
	 viewBox="0 0 40 40" style="enable-background:new 0 0 40 40;" xml:space="preserve">
<style type="text/css">
	.st0{fill:#F2FAFF;}
	.st1{fill:#A3B7CC;}
	.st2{fill:#ED1C24;}
	.st3{fill:#1B1464;}
</style>
<path class="st0" d="M0.5,6.5h39v27h-39V6.5z"/>
<path class="st1" d="M39,7v26H1V7H39z M40,6H0v28h40V6z"/>
<path class="st2" d="M0.5,5.5h39v4h-39V5.5z"/>
<path class="st2" d="M39,6v3H1V6H39z M40,5H0v5h40V5z"/>
<path class="st3" d="M0.5,13.5h39v13h-39V13.5z"/>
<path class="st3" d="M39,14v12H1V14H39z M40,13H0v14h40V13z"/>
<path class="st2" d="M0.5,30.5h39v4h-39V30.5z"/>
<path class="st2" d="M39,31v3H1v-3H39z M40,30H0v5h40V30z"/>
</svg>
