<?xml version="1.0" encoding="utf-8"?>
<!-- Generator: Adobe Illustrator 26.0.1, SVG Export Plug-In . SVG Version: 6.00 Build 0)  -->
<svg version="1.1" id="Layer_1" xmlns="http://www.w3.org/2000/svg" xmlns:xlink="http://www.w3.org/1999/xlink" x="0px" y="0px"
	 viewBox="0 0 40 40" style="enable-background:new 0 0 40 40;" xml:space="preserve">
<style type="text/css">
	.st0{fill:#ED1C24;}
	.st1{fill:#FFFFFF;}
	.st2{fill:#1B1464;}
</style>
<path class="st0" d="M0.5,6.5h39v27h-39V6.5z"/>
<path class="st0" d="M39,7v26H1V7H39z M40,6H0v28h40V6z"/>
<path class="st1" d="M12,9h27v2H12V9z M12,14h27v2H12V14z M1,24h38v2H1V24z M1,19h38v2H1V19z M1,29h38v2H1V29z"/>
<path class="st2" d="M0.5,6.5h19v14h-19V6.5z"/>
<path class="st2" d="M19,7v13H1V7H19z M20,6H0v15h20V6z"/>
<path class="st1" d="M2.5,7L3,8l1,0.2L3.2,8.9L3.4,10L2.5,9.5L1.6,10l0.2-1.1L1,8.1L2,8L2.5,7z M5.5,10L6,11l1,0.2L6.2,12l0.2,1
	l-0.9-0.5L4.6,13l0.2-1.1L4,11.1L5,11L5.5,10z M8.5,7L9,8l1,0.2L9.2,8.9L9.4,10L8.5,9.5L7.6,10l0.2-1.1L7,8.1L8,8L8.5,7z M11.5,10
	l0.5,1l1,0.2L12.2,12l0.2,1.1l-0.9-0.5L10.6,13l0.2-1.1L10,11.1l1-0.2L11.5,10z M14.5,7L15,8l1,0.2L15.2,9l0.2,1.1l-0.9-0.5L13.6,10
	l0.2-1.1L13,8.1L14,8L14.5,7z M2.5,13L3,14l1,0.2L3.2,15l0.2,1l-0.9-0.5L1.6,16l0.2-1.1L1,14.1L2,14L2.5,13z M8.5,13L9,14l1,0.2
	L9.2,15l0.2,1l-0.9-0.5L7.6,16l0.2-1.1L7,14.1L8,14L8.5,13z M14.5,13l0.5,1l1,0.2L15.2,15l0.2,1.1l-0.9-0.5l-1,0.4l0.2-1.1L13,14.2
	l1-0.2L14.5,13z M5.5,16L6,17l1,0.2L6.2,18l0.2,1l-0.9-0.5L4.6,19l0.2-1.1L4,17.1L5,17L5.5,16z M11.5,16l0.5,1l1,0.2L12.2,18
	l0.2,1.1l-0.9-0.5L10.6,19l0.2-1.1L10,17.1l1-0.2L11.5,16z M17.5,16l0.5,1l1,0.2L18.2,18l0.2,1.1l-0.9-0.5L16.6,19l0.2-1.1L16,17.1
	l1-0.2L17.5,16z M17.5,10l0.5,1l1,0.2L18.2,12l0.2,1.1l-0.9-0.5L16.6,13l0.2-1.1L16,11.1l1-0.2L17.5,10z"/>
</svg>
