<?xml version="1.0" encoding="utf-8"?>
<!-- Generator: Adobe Illustrator 26.0.1, SVG Export Plug-In . SVG Version: 6.00 Build 0)  -->
<svg version="1.1" id="Layer_3" xmlns="http://www.w3.org/2000/svg" xmlns:xlink="http://www.w3.org/1999/xlink" x="0px" y="0px"
	 viewBox="0 0 250 250" style="enable-background:new 0 0 250 250;" xml:space="preserve">
<style type="text/css">
	.st0{fill:#4D4D4F;}
	.st1{fill:none;stroke:#BCBEC0;stroke-width:0.5;}
	.st2{fill:none;stroke:#5C5B59;stroke-linecap:round;stroke-linejoin:round;stroke-miterlimit:10;}
	.st3{fill:none;stroke:#B19E4E;stroke-linecap:round;stroke-linejoin:round;stroke-miterlimit:10;}
	.st4{fill:none;stroke:#5C5B59;stroke-width:1.6;}
	.st5{fill:none;stroke:#B19E4E;stroke-width:1.6;}
</style>
<g>
	<g>
		<path class="st0" d="M8,146.2V145c0-2.1,1.1-3,2.6-3s2.7,0.9,2.7,3.1v1.2H8z M12.8,144.9c0-1.5-0.8-2.3-2.2-2.3
			c-1.4,0-2.1,0.8-2.1,2.4v0.6h4.3V144.9z"/>
		<path class="st0" d="M11.4,141.1c-0.9,0-2-0.5-2-1.8c0-1.3,1.1-1.8,2-1.8s2,0.5,2,1.8C13.4,140.7,12.3,141.1,11.4,141.1z
			 M11.4,138.2c-0.8,0-1.5,0.4-1.5,1.2c0,0.8,0.7,1.1,1.5,1.1c0.8,0,1.5-0.4,1.5-1.2C12.9,138.6,12.2,138.2,11.4,138.2z"/>
		<path class="st0" d="M13,136.8l-0.4-0.3c0.1-0.1,0.3-0.5,0.3-1c0-0.5-0.2-0.8-0.6-0.8c-0.4,0-0.5,0.3-0.7,0.8
			c-0.3,0.6-0.5,1.1-1.2,1.1c-0.6,0-1.1-0.4-1.1-1.2c0-0.6,0.3-1,0.4-1.1l0.4,0.3c-0.1,0.1-0.3,0.4-0.3,0.9c0,0.4,0.2,0.6,0.5,0.6
			c0.4,0,0.5-0.3,0.7-0.7c0.3-0.6,0.5-1.2,1.2-1.2c0.7,0,1.1,0.5,1.1,1.4C13.4,136.2,13.2,136.6,13,136.8z"/>
		<path class="st0" d="M11.3,133.5c-1.1,0-2-0.7-2-1.7c0-1,0.7-1.5,1.7-1.5c0.1,0,0.2,0,0.3,0v2.6c0.8,0,1.5-0.3,1.5-1.2
			c0-0.5-0.2-0.9-0.3-1.1l0.5-0.2c0.1,0.2,0.4,0.6,0.4,1.3C13.4,132.9,12.5,133.5,11.3,133.5z M10.9,130.9c-0.5,0-1,0.3-1,0.9
			c0,0.6,0.4,1,1,1.1V130.9z"/>
		<path class="st0" d="M13,129.5l-0.4-0.3c0.1-0.1,0.3-0.5,0.3-1c0-0.5-0.2-0.8-0.6-0.8c-0.4,0-0.5,0.3-0.7,0.8
			c-0.3,0.6-0.5,1.1-1.2,1.1c-0.6,0-1.1-0.4-1.1-1.2c0-0.6,0.3-1,0.4-1.1l0.4,0.3c-0.1,0.1-0.3,0.4-0.3,0.9c0,0.4,0.2,0.6,0.5,0.6
			c0.4,0,0.5-0.3,0.7-0.7c0.3-0.6,0.5-1.2,1.2-1.2c0.7,0,1.1,0.5,1.1,1.4C13.4,128.8,13.2,129.3,13,129.5z"/>
		<path class="st0" d="M8,123.8v-1.3c0-1.1,0.5-1.9,1.5-1.9c1,0,1.6,0.7,1.6,2v0.6h2.2v0.6H8z M10.6,122.6c0-0.9-0.4-1.3-1.1-1.3
			c-0.6,0-1,0.4-1,1.3v0.6h2.1V122.6z"/>
		<path class="st0" d="M11.3,120.1c-1.1,0-2-0.7-2-1.7c0-1,0.7-1.5,1.7-1.5c0.1,0,0.2,0,0.3,0v2.6c0.8,0,1.5-0.3,1.5-1.2
			c0-0.5-0.2-0.9-0.3-1.1L13,117c0.1,0.2,0.4,0.6,0.4,1.3C13.4,119.5,12.5,120.1,11.3,120.1z M10.9,117.5c-0.5,0-1,0.3-1,0.9
			c0,0.6,0.4,1,1,1.1V117.5z"/>
		<path class="st0" d="M9.5,115.8v-0.6h0.6c-0.3-0.2-0.7-0.5-0.7-1c0-0.2,0.1-0.4,0.1-0.4l0.6,0.1c0,0-0.1,0.1-0.1,0.3
			c0,0.6,0.7,0.9,0.8,0.9h2.6v0.6H9.5z"/>
	</g>
	<path class="st0" d="M10.6,103.6c-1.3,0-2.8-0.5-2.8-2c0-1.4,1.4-2,2.8-2s2.8,0.6,2.8,2C13.4,103.1,11.9,103.6,10.6,103.6z
		 M10.6,108.5c-1.3,0-2.8-0.5-2.8-2c0-1.4,1.4-2,2.8-2s2.8,0.6,2.8,2C13.4,107.9,11.9,108.5,10.6,108.5z M8.5,110.4l0.3,1l-0.5,0.1
		L8,110.3v-0.5h5.3v0.6H8.5z M10.6,100.3c-1.3,0-2.3,0.4-2.3,1.4c0,1,1,1.4,2.3,1.4s2.3-0.4,2.3-1.4
		C12.9,100.7,11.9,100.3,10.6,100.3z M10.6,105.1c-1.3,0-2.3,0.4-2.3,1.4c0,1,1,1.4,2.3,1.4s2.3-0.4,2.3-1.4
		C12.9,105.6,11.9,105.1,10.6,105.1z"/>
	<g>
		<path class="st0" d="M8,96.5v-0.6h5.3v0.6H8z"/>
		<path class="st0" d="M9.5,94.3v-0.6H10c-0.4-0.3-0.6-0.8-0.6-1.2c0-0.8,0.5-1.1,1.2-1.1h2.7v0.6h-2.6c-0.5,0-0.8,0.2-0.8,0.7
			c0,0.4,0.3,0.8,0.7,1.1h2.7v0.6H9.5z"/>
		<path class="st0" d="M11.4,90.3c-1.2,0-2-0.7-2-1.7c0-0.4,0.1-0.7,0.3-1H7.5v-0.6h5c0.3,0,0.6,0,0.8-0.1v0.6
			c-0.1,0-0.3,0.1-0.4,0.1c0.3,0.3,0.5,0.6,0.5,1.1C13.4,89.7,12.7,90.3,11.4,90.3z M12.3,87.6h-2.1c-0.2,0.2-0.4,0.5-0.4,0.9
			c0,0.7,0.6,1.1,1.5,1.1c0.9,0,1.5-0.3,1.5-1.1C12.9,88.3,12.7,87.9,12.3,87.6z"/>
		<path class="st0" d="M8.3,85.8c-0.2,0-0.4-0.2-0.4-0.4s0.2-0.4,0.4-0.4s0.4,0.2,0.4,0.4S8.5,85.8,8.3,85.8z M9.5,85.7v-0.6h3.8
			v0.6H9.5z"/>
		<path class="st0" d="M9.5,84.2v-0.6l3.1-1.1v0l-3.1-1.1v-0.6l3.8,1.4v0.5L9.5,84.2z"/>
		<path class="st0" d="M8.3,79.9c-0.2,0-0.4-0.2-0.4-0.4s0.2-0.4,0.4-0.4s0.4,0.2,0.4,0.4S8.5,79.9,8.3,79.9z M9.5,79.8v-0.6h3.8
			v0.6H9.5z"/>
		<path class="st0" d="M11.4,78.1c-1.2,0-2-0.7-2-1.7c0-0.4,0.1-0.7,0.3-1H7.5v-0.6h5c0.3,0,0.6,0,0.8-0.1v0.6
			c-0.1,0-0.3,0.1-0.4,0.1c0.3,0.3,0.5,0.6,0.5,1.1C13.4,77.5,12.7,78.1,11.4,78.1z M12.3,75.4h-2.1C10,75.7,9.9,76,9.9,76.4
			c0,0.7,0.6,1.1,1.5,1.1c0.9,0,1.5-0.3,1.5-1.1C12.9,76.1,12.7,75.7,12.3,75.4z"/>
		<path class="st0" d="M12.2,73.6H9.5V73h2.6c0.5,0,0.8-0.2,0.8-0.7c0-0.6-0.6-1-0.7-1.1H9.5v-0.6h3c0.3,0,0.7,0,0.8-0.1v0.6
			c-0.1,0-0.4,0-0.6,0.1c0.2,0.2,0.7,0.6,0.7,1.2C13.4,73.2,12.9,73.6,12.2,73.6z"/>
		<path class="st0" d="M12.4,69.5c-1,0-1.3-1.1-1.3-2v-0.2h-0.4c-0.6,0-0.8,0.2-0.8,0.8c0,0.4,0.1,0.7,0.4,1l-0.4,0.3
			C9.5,69,9.4,68.6,9.4,68c0-0.8,0.4-1.3,1.3-1.3h1.8c0.4,0,0.7,0,0.9-0.1v0.6c-0.1,0-0.3,0-0.5,0.1c0.3,0.3,0.6,0.7,0.6,1.2
			C13.4,69.1,13,69.5,12.4,69.5z M12.3,67.3h-0.9v0.2c0,0.8,0.2,1.4,0.9,1.4c0.4,0,0.5-0.3,0.5-0.6C12.9,67.9,12.7,67.6,12.3,67.3z"
			/>
		<path class="st0" d="M7.5,65.3v-0.6h5.8v0.6H7.5z"/>
		<path class="st0" d="M13,63.7l-0.4-0.3c0.1-0.1,0.3-0.5,0.3-1c0-0.5-0.2-0.8-0.6-0.8c-0.4,0-0.5,0.3-0.7,0.8
			c-0.3,0.6-0.5,1.1-1.2,1.1c-0.6,0-1.1-0.4-1.1-1.2c0-0.6,0.3-1,0.4-1.1l0.4,0.3C10,61.7,9.9,62,9.9,62.4c0,0.4,0.2,0.6,0.5,0.6
			c0.4,0,0.5-0.3,0.7-0.7c0.3-0.6,0.5-1.2,1.2-1.2c0.7,0,1.1,0.5,1.1,1.4C13.4,63,13.2,63.4,13,63.7z"/>
	</g>
	<path class="st0" d="M17.5,13.8l-1,0.3l-0.1-0.5l1.3-0.4h0.5v5.3h-0.6V13.8z M19.3,18.6l0.1-0.5c0.1,0,0.2,0,0.5,0
		c0.9,0,1.7-0.4,1.7-1.3c0-0.9-0.7-1.2-1.6-1.2c-0.2,0-0.4,0-0.4,0l0.2-2.5h2.4v0.5h-1.8l-0.1,1.4c1.3,0,2,0.6,2,1.6
		c0,1.2-1,1.8-2.4,1.8C19.6,18.6,19.4,18.6,19.3,18.6z M23,15.9c0-1.3,0.5-2.8,2-2.8c1.4,0,2,1.4,2,2.8s-0.6,2.8-2,2.8
		C23.6,18.6,23,17.2,23,15.9z M26.4,15.9c0-1.3-0.4-2.3-1.4-2.3c-1,0-1.4,1-1.4,2.3s0.4,2.3,1.4,2.3C26,18.1,26.4,17.1,26.4,15.9z"
		/>
	<path class="st0" d="M17.1,48.8l-1,0.3l-0.1-0.5l1.3-0.4h0.5v5.3h-0.6V48.8z M18.9,53.2c0.9-0.9,2.5-2.4,2.5-3.6c0-0.7-0.4-1-0.9-1
		c-0.6,0-0.9,0.3-1.2,0.5l-0.3-0.4c0.3-0.4,0.8-0.7,1.5-0.7c0.9,0,1.6,0.5,1.6,1.4c0,1.2-1.3,2.5-2.3,3.5c0,0,0.3,0,0.6,0h1.8v0.5
		h-3.3V53.2z M23,50.9c0-1.3,0.5-2.8,2-2.8c1.4,0,2,1.4,2,2.8s-0.6,2.8-2,2.8C23.6,53.6,23,52.2,23,50.9z M26.4,50.9
		c0-1.3-0.4-2.3-1.4-2.3c-1,0-1.4,1-1.4,2.3s0.4,2.3,1.4,2.3C26,53.1,26.4,52.1,26.4,50.9z"/>
	<path class="st0" d="M19,87.5c0.8,0,1.5-0.2,1.9-0.8c0.3-0.4,0.5-0.8,0.6-1.5c-0.3,0.3-0.7,0.5-1.2,0.5c-1,0-1.6-0.7-1.6-1.6
		s0.6-1.7,1.7-1.7c1.3,0,1.8,1.2,1.8,2.3c0,2-1,3.3-3,3.3L19,87.5z M21.6,84.8v-0.1c0-1.1-0.4-1.8-1.2-1.8c-0.7,0-1,0.6-1,1.2
		c0,0.8,0.4,1.2,1.1,1.2C20.9,85.3,21.2,85.1,21.6,84.8z M23,85.2c0-1.3,0.5-2.8,2-2.8c1.4,0,2,1.4,2,2.8s-0.6,2.8-2,2.8
		C23.6,87.9,23,86.5,23,85.2z M26.4,85.2c0-1.3-0.4-2.3-1.4-2.3c-1,0-1.4,1-1.4,2.3s0.4,2.3,1.4,2.3C26,87.4,26.4,86.4,26.4,85.2z"
		/>
	<path class="st0" d="M18.8,120.8c0-2,1.2-3.3,3.1-3.3l0.1,0.5c-0.8,0-1.4,0.2-1.9,0.6c-0.4,0.4-0.6,0.9-0.7,1.6
		c0.3-0.3,0.7-0.5,1.2-0.5c1,0,1.6,0.7,1.6,1.6s-0.6,1.7-1.7,1.7C19.3,123.1,18.8,121.9,18.8,120.8z M21.6,121.4
		c0-0.8-0.4-1.2-1.1-1.2c-0.5,0-0.8,0.2-1.1,0.5v0.1c0,1.1,0.4,1.8,1.2,1.8C21.3,122.6,21.6,122,21.6,121.4z M23,120.3
		c0-1.3,0.5-2.8,2-2.8c1.4,0,2,1.4,2,2.8s-0.6,2.8-2,2.8C23.6,123.1,23,121.6,23,120.3z M26.4,120.3c0-1.3-0.4-2.3-1.4-2.3
		c-1,0-1.4,1-1.4,2.3s0.4,2.3,1.4,2.3C26,122.6,26.4,121.6,26.4,120.3z"/>
	<path class="st0" d="M19.2,156.5l0.1-0.5c0.1,0,0.3,0.1,0.7,0.1c1,0,1.5-0.4,1.5-1.1c0-0.8-0.7-1.1-1.7-1.1v-0.4
		c0.8,0,1.6-0.4,1.6-1.1c0-0.4-0.3-0.7-0.9-0.7c-0.5,0-0.8,0.2-1.1,0.4l-0.3-0.4c0.3-0.2,0.8-0.5,1.4-0.5c1,0,1.5,0.5,1.5,1.2
		c0,0.7-0.6,1.1-1.2,1.3v0c0.7,0.1,1.3,0.6,1.3,1.4c0,1.1-0.9,1.7-2.1,1.7C19.5,156.5,19.3,156.5,19.2,156.5z M23,153.8
		c0-1.3,0.5-2.8,2-2.8c1.4,0,2,1.4,2,2.8s-0.6,2.8-2,2.8C23.6,156.5,23,155.1,23,153.8z M26.4,153.8c0-1.3-0.4-2.3-1.4-2.3
		c-1,0-1.4,1-1.4,2.3s0.4,2.3,1.4,2.3C26,156,26.4,155,26.4,153.8z"/>
	<path class="st0" d="M23,187.2c0-1.3,0.5-2.8,2-2.8c1.4,0,2,1.4,2,2.8s-0.6,2.8-2,2.8C23.6,190,23,188.5,23,187.2z M26.4,187.2
		c0-1.3-0.4-2.3-1.4-2.3c-1,0-1.4,1-1.4,2.3s0.4,2.3,1.4,2.3C26,189.5,26.4,188.5,26.4,187.2z"/>
	<path class="st0" d="M222.7,19.5l1.9-4.8h-2.4v-0.5h3v0.4l-2,5.1L222.7,19.5z M226.1,16.9c0-1.3,0.5-2.8,2-2.8c1.4,0,2,1.4,2,2.8
		s-0.6,2.8-2,2.8C226.6,19.6,226.1,18.2,226.1,16.9z M229.5,16.9c0-1.3-0.4-2.3-1.4-2.3c-1,0-1.4,1-1.4,2.3s0.4,2.3,1.4,2.3
		C229,19.1,229.5,18.1,229.5,16.9z"/>
	<path class="st0" d="M222.4,51.4c0-2,1.2-3.3,3.1-3.3l0.1,0.5c-0.8,0-1.4,0.2-1.9,0.6c-0.4,0.4-0.6,0.9-0.7,1.6
		c0.3-0.3,0.7-0.5,1.2-0.5c1,0,1.6,0.7,1.6,1.6s-0.6,1.7-1.7,1.7C223,53.6,222.4,52.5,222.4,51.4z M225.3,52c0-0.8-0.4-1.2-1.1-1.2
		c-0.5,0-0.8,0.2-1.1,0.5v0.1c0,1.1,0.4,1.8,1.2,1.8C225,53.1,225.3,52.5,225.3,52z M226.6,51.4c0-2,1.2-3.3,3.1-3.3l0.1,0.5
		c-0.8,0-1.4,0.2-1.9,0.6c-0.4,0.4-0.6,0.9-0.7,1.6c0.3-0.3,0.7-0.5,1.2-0.5c1,0,1.6,0.7,1.6,1.6s-0.6,1.7-1.7,1.7
		C227.2,53.6,226.6,52.5,226.6,51.4z M229.5,52c0-0.8-0.4-1.2-1.1-1.2c-0.5,0-0.8,0.2-1.1,0.5v0.1c0,1.1,0.4,1.8,1.2,1.8
		C229.2,53.1,229.5,52.5,229.5,52z"/>
	<path class="st0" d="M222.4,85.7c0-2,1.2-3.3,3.1-3.3l0.1,0.5c-0.8,0-1.4,0.2-1.9,0.6c-0.4,0.4-0.6,0.9-0.7,1.6
		c0.3-0.3,0.7-0.5,1.2-0.5c1,0,1.6,0.7,1.6,1.6s-0.6,1.7-1.7,1.7C223,87.9,222.4,86.8,222.4,85.7z M225.3,86.3
		c0-0.8-0.4-1.2-1.1-1.2c-0.5,0-0.8,0.2-1.1,0.5v0.1c0,1.1,0.4,1.8,1.2,1.8C225,87.4,225.3,86.8,225.3,86.3z M226.5,87.5
		c0.9-0.9,2.5-2.4,2.5-3.6c0-0.7-0.4-1-0.9-1c-0.6,0-0.9,0.3-1.2,0.5l-0.3-0.4c0.3-0.4,0.8-0.7,1.5-0.7c0.9,0,1.6,0.5,1.6,1.4
		c0,1.2-1.3,2.5-2.3,3.5c0,0,0.3,0,0.6,0h1.8v0.5h-3.3V87.5z"/>
	<path class="st0" d="M222.4,123.1l0.1-0.5c0.1,0,0.2,0,0.5,0c0.9,0,1.7-0.4,1.7-1.3c0-0.9-0.7-1.2-1.6-1.2c-0.2,0-0.4,0-0.4,0
		l0.2-2.5h2.4v0.5h-1.8l-0.1,1.4c1.3,0,2,0.6,2,1.6c0,1.2-1,1.8-2.4,1.8C222.6,123.1,222.4,123.1,222.4,123.1z M226,121.7
		c0-0.7,0.7-1.2,1.1-1.5c-0.5-0.3-1-0.7-1-1.3c0-0.8,0.7-1.3,1.5-1.3c0.9,0,1.5,0.5,1.5,1.3c0,0.7-0.6,1-1.1,1.3
		c0.5,0.3,1.2,0.7,1.2,1.5c0,0.8-0.6,1.4-1.6,1.4C226.5,123.1,226,122.4,226,121.7z M228.6,121.7c0-0.6-0.6-1-1.1-1.2
		c-0.4,0.2-0.9,0.6-0.9,1.2c0,0.5,0.3,0.9,1,0.9C228.2,122.6,228.6,122.2,228.6,121.7z M228.5,118.9c0-0.4-0.3-0.8-0.8-0.8
		s-0.9,0.3-0.9,0.8c0,0.5,0.5,0.8,0.9,1C228,119.7,228.5,119.4,228.5,118.9z"/>
	<path class="st0" d="M222.4,156.5l0.1-0.5c0.1,0,0.2,0,0.5,0c0.9,0,1.7-0.4,1.7-1.3c0-0.9-0.7-1.2-1.6-1.2c-0.2,0-0.4,0-0.4,0
		l0.2-2.5h2.4v0.5h-1.8l-0.1,1.4c1.3,0,2,0.6,2,1.6c0,1.2-1,1.8-2.4,1.8C222.6,156.5,222.4,156.5,222.4,156.5z M228.4,155.2h-2.5
		v-0.5l2.4-3.6h0.6v3.6h0.8v0.5h-0.8v1.2h-0.6V155.2z M227.2,154.7h1.2V152h0l-1.8,2.8C226.6,154.7,226.9,154.7,227.2,154.7z"/>
	<path class="st0" d="M222.4,191.9l0.1-0.5c0.1,0,0.2,0,0.5,0c0.9,0,1.7-0.4,1.7-1.3c0-0.9-0.7-1.2-1.6-1.2c-0.2,0-0.4,0-0.4,0
		l0.2-2.5h2.4v0.5h-1.8l-0.1,1.4c1.3,0,2,0.6,2,1.6c0,1.2-1,1.8-2.4,1.8C222.6,192,222.4,192,222.4,191.9z M226.1,189.2
		c0-1.3,0.5-2.8,2-2.8c1.4,0,2,1.4,2,2.8s-0.6,2.8-2,2.8C226.6,192,226.1,190.5,226.1,189.2z M229.4,189.2c0-1.3-0.4-2.3-1.4-2.3
		c-1,0-1.4,1-1.4,2.3s0.4,2.3,1.4,2.3C229,191.5,229.4,190.5,229.4,189.2z"/>
	<g>
		<path class="st0" d="M237.2,48.2l0.4,0.3c-0.1,0.1-0.5,0.5-0.5,1.2c0,0.7,0.4,1.1,0.9,1.1c0.6,0,0.9-0.6,1.2-1.2
			c0.3-0.6,0.7-1.2,1.5-1.2c0.9,0,1.4,0.7,1.4,1.6c0,0.8-0.3,1.2-0.4,1.4l-0.5-0.3c0.1-0.2,0.4-0.5,0.4-1.1c0-0.5-0.3-0.9-0.8-0.9
			c-0.5,0-0.8,0.4-1,1c-0.3,0.7-0.7,1.5-1.7,1.5c-0.8,0-1.4-0.7-1.4-1.7C236.6,48.9,237,48.4,237.2,48.2z"/>
		<path class="st0" d="M237.6,52.7h2.5v-0.6h0.5v0.6h1.1v0.6h-1.1v1h-0.5v-1h-2.4c-0.4,0-0.6,0.1-0.6,0.4c0,0.2,0.1,0.5,0.2,0.5
			l-0.4,0.2c-0.1-0.1-0.2-0.4-0.2-0.8C236.6,53,237,52.7,237.6,52.7z"/>
		<path class="st0" d="M240.5,55.4V56h-0.6c0.3,0.2,0.7,0.5,0.7,1c0,0.2-0.1,0.4-0.1,0.4l-0.6-0.1c0,0,0.1-0.1,0.1-0.3
			c0-0.6-0.7-0.9-0.8-0.9h-2.6v-0.6H240.5z"/>
		<path class="st0" d="M240.5,58.3v0.6h-3.8v-0.6H240.5z M241.7,58.2c0.2,0,0.4,0.2,0.4,0.4s-0.2,0.4-0.4,0.4s-0.4-0.2-0.4-0.4
			S241.5,58.2,241.7,58.2z"/>
		<path class="st0" d="M240.5,60.3v0.6H240c0.4,0.3,0.6,0.8,0.6,1.2c0,0.8-0.5,1.1-1.2,1.1h-2.7v-0.6h2.6c0.5,0,0.8-0.2,0.8-0.7
			c0-0.4-0.3-0.8-0.7-1.1h-2.7v-0.6H240.5z"/>
		<path class="st0" d="M235.9,64.4c0.4,0,0.8,0.3,1,0.7c0.1-0.2,0.3-0.3,0.6-0.3c0.3,0,0.5,0.2,0.6,0.4c0.2-0.4,0.7-0.7,1.2-0.7
			c0.8,0,1.4,0.6,1.4,1.5c0,0.2,0,0.4-0.1,0.6v1.2h-0.5v-0.6c-0.2,0.2-0.5,0.3-0.8,0.3c-0.8,0-1.4-0.6-1.4-1.5c0-0.2,0-0.3,0-0.4
			c-0.1-0.2-0.2-0.3-0.3-0.3c-0.2,0-0.3,0.2-0.3,0.5c0,0.8,0,2-1.2,2c-0.8,0-1.3-0.9-1.3-1.9C234.8,65,235.1,64.4,235.9,64.4z
			 M236.1,67.2c0.6,0,0.6-0.5,0.6-1c0-0.2,0-0.5,0.1-0.7c-0.2-0.4-0.5-0.5-0.8-0.5c-0.4,0-0.7,0.3-0.7,1
			C235.3,66.7,235.6,67.2,236.1,67.2z M239.2,66.8c0.5,0,0.9-0.3,0.9-0.9c0-0.6-0.4-0.9-0.9-0.9c-0.5,0-0.9,0.3-0.9,0.9
			C238.3,66.5,238.7,66.8,239.2,66.8z"/>
		<path class="st0" d="M238.7,68.4c1.1,0,2,0.7,2,1.7c0,1-0.7,1.5-1.7,1.5c-0.1,0-0.2,0-0.3,0V69c-0.8,0-1.5,0.3-1.5,1.2
			c0,0.5,0.2,0.9,0.3,1.1l-0.5,0.2c-0.1-0.2-0.4-0.6-0.4-1.3C236.6,69,237.5,68.4,238.7,68.4z M239.1,71.1c0.5,0,1-0.3,1-0.9
			c0-0.6-0.4-1-1-1.1V71.1z"/>
		<path class="st0" d="M240.5,72.7v0.6H240c0.4,0.3,0.6,0.8,0.6,1.2c0,0.8-0.5,1.1-1.2,1.1h-2.7v-0.6h2.6c0.5,0,0.8-0.2,0.8-0.7
			c0-0.4-0.3-0.8-0.7-1.1h-2.7v-0.6H240.5z"/>
		<path class="st0" d="M238.6,76.7c1.3,0,2,0.8,2,1.8c0,0.6-0.2,1-0.4,1.2l-0.4-0.3c0.2-0.2,0.3-0.5,0.3-0.9c0-0.8-0.7-1.1-1.5-1.1
			c-0.8,0-1.5,0.4-1.5,1.2c0,0.5,0.2,0.8,0.3,0.9l-0.4,0.2c-0.1-0.2-0.4-0.5-0.4-1.2C236.6,77.3,237.6,76.7,238.6,76.7z"/>
		<path class="st0" d="M234.9,80.1l0.5,0.1c0,0.1,0,0.1,0,0.3c0,0.5,0.3,0.8,0.9,1l0.5,0.2l3.8-1.4v0.7l-3.1,1.1v0l3.1,1.1v0.6
			l-4.3-1.6c-0.7-0.3-1.3-0.6-1.3-1.5C234.9,80.3,234.9,80.2,234.9,80.1z"/>
		<path class="st0" d="M242,86.6v0.6h-5.3v-0.6H242z"/>
		<path class="st0" d="M240.5,88.8v0.6H240c0.4,0.3,0.6,0.8,0.6,1.2c0,0.8-0.5,1.1-1.2,1.1h-2.7v-0.6h2.6c0.5,0,0.8-0.2,0.8-0.7
			c0-0.4-0.3-0.8-0.7-1.1h-2.7v-0.6H240.5z"/>
		<path class="st0" d="M238.6,92.7c1.2,0,2,0.7,2,1.7c0,0.4-0.1,0.7-0.3,1h2.2V96h-5c-0.3,0-0.6,0-0.8,0.1v-0.6
			c0.1,0,0.3-0.1,0.4-0.1c-0.3-0.3-0.5-0.6-0.5-1.1C236.6,93.4,237.3,92.7,238.6,92.7z M237.7,95.4h2.1c0.2-0.2,0.4-0.5,0.4-0.9
			c0-0.7-0.6-1.1-1.5-1.1c-0.9,0-1.5,0.3-1.5,1.1C237.1,94.8,237.3,95.2,237.7,95.4z"/>
		<path class="st0" d="M238.7,97c1.1,0,2,0.7,2,1.7c0,1-0.7,1.5-1.7,1.5c-0.1,0-0.2,0-0.3,0v-2.6c-0.8,0-1.5,0.3-1.5,1.2
			c0,0.5,0.2,0.9,0.3,1.1l-0.5,0.2c-0.1-0.2-0.4-0.6-0.4-1.3C236.6,97.6,237.5,97,238.7,97z M239.1,99.6c0.5,0,1-0.3,1-0.9
			c0-0.6-0.4-1-1-1.1V99.6z"/>
		<path class="st0" d="M238.7,102.1l1.8-1.2v0.7c0,0-1.3,0.9-1.4,0.9l1.4,0.9v0.6l-1.8-1.2l-2,1.4v-0.7l1.6-1.1l-1.6-1v-0.6
			L238.7,102.1z"/>
		<path class="st0" d="M238.9,106.7c1.3,0,2.6,0.6,3.5,1.4v0.6c-0.7-0.7-1.9-1.4-3.5-1.4c-1.5,0-2.7,0.5-3.7,1.4v-0.6
			C236.3,107.3,237.6,106.7,238.9,106.7z"/>
	</g>
	<path class="st0" d="M239.4,112c1.3,0,2.8,0.5,2.8,2c0,1.4-1.4,2-2.8,2s-2.8-0.6-2.8-2C236.6,112.6,238.1,112,239.4,112z
		 M239.4,116.9c1.3,0,2.8,0.5,2.8,2c0,1.4-1.4,2-2.8,2s-2.8-0.6-2.8-2C236.6,117.5,238.1,116.9,239.4,116.9z M241.5,110.2l-0.3-1
		l0.5-0.1l0.4,1.3v0.5h-5.3v-0.6H241.5z M239.4,115.4c1.3,0,2.3-0.4,2.3-1.4c0-1-1-1.4-2.3-1.4s-2.3,0.4-2.3,1.4
		C237.1,115,238.1,115.4,239.4,115.4z M239.4,120.3c1.3,0,2.3-0.4,2.3-1.4c0-1-1-1.4-2.3-1.4s-2.3,0.4-2.3,1.4
		C237.1,119.9,238.1,120.3,239.4,120.3z"/>
	<g>
		<path class="st0" d="M238.4,123.6v3.1h-0.5v-3.1H238.4z M239.7,123.6v3.1h-0.5v-3.1H239.7z"/>
		<path class="st0" d="M237.2,129.2l0.4,0.3c-0.1,0.1-0.5,0.5-0.5,1.2c0,0.7,0.4,1.1,0.9,1.1c0.6,0,0.9-0.6,1.2-1.2
			c0.3-0.6,0.7-1.2,1.5-1.2c0.9,0,1.4,0.7,1.4,1.6c0,0.8-0.3,1.2-0.4,1.4l-0.5-0.3c0.1-0.2,0.4-0.5,0.4-1.1c0-0.5-0.3-0.9-0.8-0.9
			c-0.5,0-0.8,0.4-1,1c-0.3,0.7-0.7,1.5-1.7,1.5c-0.8,0-1.4-0.7-1.4-1.7C236.6,129.9,237,129.4,237.2,129.2z"/>
		<path class="st0" d="M237.6,133.8h2.5v-0.6h0.5v0.6h1.1v0.6h-1.1v1h-0.5v-1h-2.4c-0.4,0-0.6,0.1-0.6,0.4c0,0.2,0.1,0.5,0.2,0.5
			l-0.4,0.2c-0.1-0.1-0.2-0.4-0.2-0.8C236.6,134.1,237,133.8,237.6,133.8z"/>
		<path class="st0" d="M240.5,136.5v0.6h-0.6c0.3,0.2,0.7,0.5,0.7,1c0,0.2-0.1,0.4-0.1,0.4l-0.6-0.1c0,0,0.1-0.1,0.1-0.3
			c0-0.6-0.7-0.9-0.8-0.9h-2.6v-0.6H240.5z"/>
		<path class="st0" d="M240.5,139.4v0.6h-3.8v-0.6H240.5z M241.7,139.2c0.2,0,0.4,0.2,0.4,0.4c0,0.2-0.2,0.4-0.4,0.4
			s-0.4-0.2-0.4-0.4C241.3,139.4,241.5,139.2,241.7,139.2z"/>
		<path class="st0" d="M238.6,141.1c1.3,0,2,0.8,2,1.8c0,0.6-0.2,1-0.4,1.2l-0.4-0.3c0.2-0.2,0.3-0.5,0.3-0.9c0-0.8-0.7-1.1-1.5-1.1
			c-0.8,0-1.5,0.4-1.5,1.2c0,0.5,0.2,0.8,0.3,0.9L237,144c-0.1-0.2-0.4-0.5-0.4-1.2C236.6,141.7,237.6,141.1,238.6,141.1z"/>
		<path class="st0" d="M237.6,145.2h2.5v-0.6h0.5v0.6h1.1v0.6h-1.1v1h-0.5v-1h-2.4c-0.4,0-0.6,0.1-0.6,0.4c0,0.2,0.1,0.5,0.2,0.5
			l-0.4,0.2c-0.1-0.1-0.2-0.4-0.2-0.8C236.6,145.5,237,145.2,237.6,145.2z"/>
		<path class="st0" d="M238.7,147.5c1.1,0,2,0.7,2,1.7c0,1-0.7,1.5-1.7,1.5c-0.1,0-0.2,0-0.3,0v-2.6c-0.8,0-1.5,0.3-1.5,1.2
			c0,0.5,0.2,0.9,0.3,1.1l-0.5,0.2c-0.1-0.2-0.4-0.6-0.4-1.3C236.6,148.1,237.5,147.5,238.7,147.5z M239.1,150.2c0.5,0,1-0.3,1-0.9
			c0-0.6-0.4-1-1-1.1V150.2z"/>
		<path class="st0" d="M237,151.5l0.4,0.3c-0.1,0.1-0.3,0.5-0.3,1c0,0.5,0.2,0.8,0.6,0.8c0.4,0,0.5-0.3,0.7-0.8
			c0.3-0.6,0.5-1.1,1.2-1.1c0.6,0,1.1,0.4,1.1,1.2c0,0.6-0.3,1-0.4,1.1l-0.4-0.3c0.1-0.1,0.3-0.4,0.3-0.9c0-0.4-0.2-0.6-0.5-0.6
			c-0.4,0-0.5,0.3-0.7,0.7c-0.3,0.6-0.5,1.2-1.2,1.2c-0.7,0-1.1-0.5-1.1-1.4C236.6,152.2,236.8,151.8,237,151.5z"/>
		<path class="st0" d="M237.6,155.4h2.5v-0.6h0.5v0.6h1.1v0.6h-1.1v1h-0.5v-1h-2.4c-0.4,0-0.6,0.1-0.6,0.4c0,0.2,0.1,0.5,0.2,0.5
			l-0.4,0.2c-0.1-0.1-0.2-0.4-0.2-0.8C236.6,155.7,237,155.4,237.6,155.4z"/>
		<path class="st0" d="M238.8,158.8c1.5,0,2.7-0.5,3.7-1.4v0.6c-1,0.9-2.3,1.4-3.7,1.4c-1.4,0-2.6-0.6-3.5-1.4v-0.6
			C236,158.1,237.2,158.8,238.8,158.8z"/>
	</g>
	<g>
		<path class="st0" d="M21.4,203l0.1-0.5c0.1,0,0.2,0.1,0.3,0.1c0.4,0,0.6-0.3,0.6-0.9v-5.3H23v5.4c0,0.9-0.4,1.4-1.2,1.4
			C21.6,203,21.4,203,21.4,203z"/>
	</g>
	<g>
		<path class="st0" d="M24.3,200.6c0-1,1.1-1.3,2-1.3h0.2v-0.4c0-0.6-0.2-0.8-0.8-0.8c-0.4,0-0.7,0.1-1,0.4l-0.3-0.4
			c0.4-0.4,0.8-0.5,1.4-0.5c0.8,0,1.3,0.4,1.3,1.3v1.8c0,0.4,0,0.7,0.1,0.9h-0.6c0-0.1,0-0.3-0.1-0.5c-0.3,0.3-0.7,0.6-1.2,0.6
			C24.7,201.6,24.3,201.2,24.3,200.6z M26.5,200.6v-0.9h-0.2c-0.8,0-1.4,0.2-1.4,0.9c0,0.4,0.3,0.5,0.6,0.5
			C25.9,201.1,26.2,200.9,26.5,200.6z"/>
		<path class="st0" d="M28.4,197.7H29v0.6c0.3-0.4,0.8-0.6,1.2-0.6c0.8,0,1.1,0.5,1.1,1.2v2.7h-0.6v-2.6c0-0.5-0.2-0.8-0.7-0.8
			c-0.4,0-0.8,0.3-1.1,0.7v2.7h-0.6V197.7z"/>
	</g>
	<path class="st0" d="M32.5,198.5h1.6v0.5h-1.6V198.5z M34.9,201.2c0.9-0.9,2.5-2.4,2.5-3.6c0-0.7-0.4-1-0.9-1
		c-0.6,0-0.9,0.3-1.2,0.5l-0.3-0.4c0.3-0.4,0.8-0.7,1.5-0.7c0.9,0,1.6,0.5,1.6,1.4c0,1.2-1.3,2.5-2.3,3.5c0,0,0.3,0,0.6,0h1.8v0.5
		h-3.3V201.2z M40,196.7l-1,0.3l-0.1-0.5l1.3-0.4h0.5v5.3H40V196.7z"/>
	<g>
		<path class="st0" d="M133.1,203l0.1-0.5c0.1,0,0.2,0.1,0.3,0.1c0.4,0,0.6-0.3,0.6-0.9v-5.3h0.6v5.4c0,0.9-0.4,1.4-1.2,1.4
			C133.3,203,133.2,203,133.1,203z"/>
	</g>
	<g>
		<path class="st0" d="M136.3,200.4v-2.7h0.6v2.6c0,0.5,0.2,0.8,0.7,0.8c0.6,0,1-0.6,1.1-0.7v-2.7h0.6v3c0,0.3,0,0.7,0.1,0.8h-0.6
			c0-0.1,0-0.4-0.1-0.6c-0.2,0.2-0.6,0.7-1.2,0.7C136.6,201.6,136.3,201.1,136.3,200.4z"/>
		<path class="st0" d="M140.6,197.7h0.6v0.6c0.3-0.4,0.8-0.6,1.2-0.6c0.8,0,1.1,0.5,1.1,1.2v2.7H143v-2.6c0-0.5-0.2-0.8-0.7-0.8
			c-0.4,0-0.8,0.3-1.1,0.7v2.7h-0.6V197.7z"/>
	</g>
	<path class="st0" d="M144.7,198.5h1.6v0.5h-1.6V198.5z M147.1,201.2c0.9-0.9,2.5-2.4,2.5-3.6c0-0.7-0.4-1-0.9-1
		c-0.6,0-0.9,0.3-1.2,0.5l-0.3-0.4c0.3-0.4,0.8-0.7,1.5-0.7c0.9,0,1.6,0.5,1.6,1.4c0,1.2-1.3,2.5-2.3,3.5c0,0,0.3,0,0.6,0h1.8v0.5
		h-3.3V201.2z M152.2,196.7l-1,0.3l-0.1-0.5l1.3-0.4h0.5v5.3h-0.6V196.7z"/>
	<g>
		<path class="st0" d="M189.6,198.9c0-1.5,1-2.8,2.6-2.8c1.6,0,2.6,1.3,2.6,2.8c0,1.5-1,2.8-2.6,2.8
			C190.5,201.6,189.6,200.3,189.6,198.9z M194.1,198.9c0-1.2-0.7-2.2-2-2.2s-2,1-2,2.2s0.7,2.2,2,2.2S194.1,200.1,194.1,198.9z"/>
	</g>
	<g>
		<path class="st0" d="M195.6,199.6c0-1.3,0.8-2,1.8-2c0.6,0,1,0.2,1.2,0.4l-0.3,0.4c-0.2-0.2-0.5-0.3-0.9-0.3
			c-0.8,0-1.1,0.7-1.1,1.5c0,0.8,0.4,1.5,1.2,1.5c0.5,0,0.8-0.2,0.9-0.3l0.2,0.4c-0.2,0.1-0.5,0.4-1.2,0.4
			C196.3,201.6,195.6,200.7,195.6,199.6z"/>
		<path class="st0" d="M199.8,200.6v-2.5h-0.6v-0.5h0.6v-1.1h0.6v1.1h1v0.5h-1v2.4c0,0.4,0.1,0.6,0.4,0.6c0.2,0,0.5-0.1,0.5-0.2
			l0.2,0.4c-0.1,0.1-0.4,0.2-0.8,0.2C200.1,201.6,199.8,201.2,199.8,200.6z"/>
	</g>
	<path class="st0" d="M202.3,198.5h1.6v0.5h-1.6V198.5z M204.7,201.2c0.9-0.9,2.5-2.4,2.5-3.6c0-0.7-0.4-1-0.9-1
		c-0.6,0-0.9,0.3-1.2,0.5l-0.3-0.4c0.3-0.4,0.8-0.7,1.5-0.7c0.9,0,1.6,0.5,1.6,1.4c0,1.2-1.3,2.5-2.3,3.5c0,0,0.3,0,0.6,0h1.8v0.5
		h-3.3V201.2z M209.8,196.7l-1,0.3l-0.1-0.5l1.3-0.4h0.5v5.3h-0.6V196.7z"/>
	<g>
		<path class="st0" d="M78.7,196.2h0.6l2,5.3h-0.7l-0.5-1.3h-2.4l-0.5,1.3h-0.6L78.7,196.2z M79.9,199.7l-0.7-1.8
			c-0.2-0.4-0.2-0.7-0.3-0.9h0c-0.1,0.3-0.2,0.5-0.3,0.9l-0.7,1.8H79.9z"/>
	</g>
	<g>
		<path class="st0" d="M82.2,197.7h0.6v0.4c0.2-0.2,0.6-0.5,1.1-0.5c0.9,0,1.6,0.7,1.6,2c0,1.2-0.7,2-1.7,2c-0.5,0-0.8-0.2-1-0.3v2
			h-0.6V197.7z M84.9,199.6c0-0.9-0.3-1.5-1.1-1.5c-0.5,0-0.9,0.4-1,0.5v2.1c0.2,0.2,0.4,0.4,0.9,0.4
			C84.5,201.1,84.9,200.5,84.9,199.6z"/>
		<path class="st0" d="M86.6,197.7h0.6v0.6c0.2-0.3,0.5-0.7,1-0.7c0.2,0,0.4,0.1,0.4,0.1l-0.1,0.6c0,0-0.1-0.1-0.3-0.1
			c-0.6,0-0.9,0.7-0.9,0.8v2.6h-0.6V197.7z"/>
	</g>
	<path class="st0" d="M89.2,198.5h1.6v0.5h-1.6V198.5z M91.6,201.2c0.9-0.9,2.5-2.4,2.5-3.6c0-0.7-0.4-1-0.9-1
		c-0.6,0-0.9,0.3-1.2,0.5l-0.3-0.4c0.3-0.4,0.8-0.7,1.5-0.7c0.9,0,1.6,0.5,1.6,1.4c0,1.2-1.3,2.5-2.3,3.5c0,0,0.3,0,0.6,0h1.8v0.5
		h-3.3V201.2z M96.7,196.7l-1,0.3l-0.1-0.5l1.3-0.4h0.5v5.3h-0.6V196.7z"/>
	<line class="st1" x1="31.5" y1="192.9" x2="31.5" y2="17.3"/>
	<line class="st1" x1="218.8" y1="189.3" x2="218.8" y2="17.3"/>
	<line class="st1" x1="87.2" y1="192.9" x2="87.2" y2="189.4"/>
	<line class="st1" x1="143.4" y1="192.9" x2="143.4" y2="189.4"/>
	<line class="st1" x1="200.1" y1="192.9" x2="200.1" y2="189.4"/>
	<line class="st1" x1="31.3" y1="17.4" x2="219.9" y2="17.4"/>
	<line class="st1" x1="31.3" y1="51.2" x2="219.9" y2="51.2"/>
	<line class="st1" x1="31.3" y1="85.8" x2="219.9" y2="85.8"/>
	<line class="st1" x1="31.3" y1="120.5" x2="219.9" y2="120.5"/>
	<line class="st1" x1="31.3" y1="154.5" x2="219.9" y2="154.5"/>
	<line class="st1" x1="31.3" y1="189.1" x2="219.9" y2="189.1"/>
	<polyline class="st2" points="32,188.7 32.5,188.7 33,188.7 33.6,188.7 34.1,188.7 34.6,188.7 35.7,188.7 36.2,188.7 36.8,188.7 
		37.3,188.7 37.8,188.7 38.4,188.7 38.9,188.7 39.9,188.7 40.5,188.7 41,188.7 41.5,188.7 42.1,188.7 42.6,188.7 43.7,188.7 
		44.2,188.7 44.7,188.7 45.3,188.7 45.8,188.7 46.3,188.7 47.4,188.7 47.9,188.7 48.4,188.7 49,188.7 49.5,188.7 50,188.7 
		51.1,188.7 51.6,188.7 52.2,188.7 52.7,188.7 53.2,188.7 53.8,188.7 54.3,188.7 55.3,188.7 55.9,188.7 56.4,188.7 56.9,188.7 
		57.5,188.7 58,188.7 59.1,188.7 59.6,187.8 60.1,187.8 60.7,187.8 61.2,187.8 61.7,187.8 62.8,187.8 63.3,187.8 63.8,187.8 
		64.4,187.8 64.9,187.8 65.4,187.8 66.5,187.8 67,187.8 67.6,187.8 68.1,187.8 68.6,187.8 69.2,187.8 69.7,187.8 70.8,187.8 
		71.3,187.8 71.8,187.8 72.3,186.9 72.9,186.9 73.4,186.9 74.5,186.9 75,186.9 75.5,186.9 76.1,186.9 76.6,186.9 77.1,186.9 
		78.2,186 78.7,186 79.2,186 79.8,186 80.3,186 80.8,186 81.9,186 82.4,186 83,185.1 83.5,185.1 84,185.1 84.6,185.1 85.1,185.1 
		86.2,185.1 86.7,184.3 87.2,184.3 87.7,184.3 88.3,184.3 88.8,184.3 89.9,184.3 90.4,183.4 90.9,183.4 91.5,183.4 92,183.4 
		92.5,183.4 93.6,183.4 94.1,182.5 94.7,182.5 95.2,182.5 95.7,182.5 96.2,181.6 97.3,181.6 97.8,181.6 98.4,181.6 98.9,181.6 
		99.4,180.7 100,180.7 100.5,180.7 101.6,179.8 102.1,179.8 102.6,179.8 103.1,179.8 103.7,179 104.2,179 105.3,179 105.8,179 
		106.3,178.1 106.9,178.1 107.4,178.1 107.9,178.1 109,177.2 109.5,177.2 110.1,177.2 110.6,177.2 111.1,177.2 111.6,176.3 
		112.7,176.3 113.2,176.3 113.8,176.3 114.3,175.4 114.8,175.4 115.4,175.4 115.9,175.4 117,174.5 117.5,174.5 118,174.5 
		118.6,173.7 119.1,173.7 119.6,173.7 120.7,172.8 121.2,172.8 121.7,171.9 122.3,171 122.8,171 123.3,171 124.4,170.1 124.9,170.1 
		125.5,169.2 126,168.4 126.5,168.4 127,167.5 128.1,167.5 128.6,166.6 129.2,165.7 129.7,165.7 130.2,164.8 130.8,163.9 
		131.3,163.1 132.4,163.1 132.9,162.2 133.4,161.3 134,160.4 134.5,159.5 135,159.5 136.1,158.6 136.6,158.6 137.1,157.8 
		137.7,157.8 138.2,156.9 138.7,156.9 139.8,156 140.3,156 140.9,156 141.4,155.1 141.9,155.1 142.5,154.2 143,153.3 144,153.3 
		144.6,153.3 145.1,152.5 145.6,152.5 146.2,151.6 146.7,150.7 147.8,150.7 148.3,149.8 148.8,149.8 149.4,149.8 149.9,148.9 
		150.4,148 151.5,147.2 152,147.2 152.5,146.3 153.1,145.4 153.6,145.4 154.1,144.5 155.2,144.5 155.7,143.6 156.3,142.7 
		156.8,141.9 157.3,141.9 157.9,141.9 158.4,141 159.4,140.1 160,139.2 160.5,138.3 161,137.4 161.6,136.6 162.1,136.6 163.2,135.7 
		163.7,134.8 164.2,133.9 164.8,133 165.3,132.1 165.8,131.3 166.9,131.3 167.4,129.5 167.9,128.6 168.5,127.7 169,126.9 169.5,126 
		170.6,125.1 171.1,124.2 171.7,123.3 172.2,121.6 172.7,120.7 173.3,119.8 173.8,118 174.8,117.1 175.4,117.1 175.9,115.4 
		176.4,114.5 177,112.7 177.5,111.8 178.6,110.1 179.1,109.2 179.6,108.3 180.2,107.4 180.7,106.5 181.2,104.8 182.3,103.9 
		182.8,103 183.3,102.1 183.9,101.2 184.4,100.4 184.9,98.6 186,97.7 186.5,96.8 187.1,95.1 187.6,94.2 188.1,94.2 188.7,92.4 
		189.2,91.5 190.3,89.8 190.8,88.9 191.3,87.1 191.8,86.2 192.4,86.2 192.9,85.3 194,84.5 194.5,83.6 195,82.7 195.6,80.9 196.1,80 
		196.6,80 197.7,78.3 198.2,77.4 198.7,75.6 199.3,74.7 199.8,73 200.3,72.1 201.4,72.1 201.9,71.2 202.5,69.4 203,68.6 203.5,67.7 
		204.1,65.9 204.6,65 205.7,65 206.2,64.1 206.7,62.4 207.2,61.5 207.8,60.6 208.3,59.7 209.4,58.8 209.9,58 210.4,57.1 211,56.2 
		211.5,55.3 212,54.4 213.1,52.7 213.6,52.7 214.2,51.8 214.7,50.9 215.2,50 215.7,49.1 216.8,48.2 217.3,47.4 217.9,46.5 
		218.4,46.5 	"/>
	<polyline class="st3" points="32,68.6 32.5,65.9 33,65.9 33.6,65.9 34.1,65.9 34.6,65.9 35.7,74.7 36.2,74.7 36.8,74.7 37.3,74.7 
		37.8,105.6 38.4,101.2 38.9,96.8 39.9,96.8 40.5,97.7 41,101.2 41.5,101.2 42.1,101.2 42.6,95 43.7,95 44.2,101.2 44.7,103.9 
		45.3,103.9 45.8,107.4 46.3,107.4 47.4,107.4 47.9,107.4 48.4,107.4 49,107.4 49.5,107.4 50,67.7 51.1,60.6 51.6,60.6 52.2,60.6 
		52.7,63.3 53.2,92.4 53.8,92.4 54.3,92.4 55.3,110.9 55.9,109.2 56.4,109.2 56.9,109.2 57.5,79.1 58,79.1 59.1,79.1 59.6,51.8 
		60.1,57.1 60.7,57.1 61.2,109.2 61.7,109.2 62.8,109.2 63.3,109.2 63.8,102.1 64.4,99.4 64.9,99.4 65.4,99.4 66.5,99.4 67,104.7 
		67.6,92.4 68.1,110 68.6,110 69.2,110 69.7,110 70.8,110 71.3,110 71.8,118.9 72.3,118.9 72.9,118.9 73.4,118.9 74.5,118.9 
		75,123.3 75.5,123.3 76.1,123.3 76.6,134.8 77.1,137.4 78.2,131.2 78.7,131.2 79.2,131.2 79.8,131.2 80.3,131.2 80.8,131.2 
		81.9,131.2 82.4,131.2 83,131.2 83.5,120.6 84,120.6 84.6,120.6 85.1,68.6 86.2,68.6 86.7,68.6 87.2,125.9 87.7,125.9 88.3,125.9 
		88.8,125.9 89.9,127.7 90.4,131.2 90.9,131.2 91.5,131.2 92,131.2 92.5,131.2 93.6,131.2 94.1,133 94.7,133 95.2,133 95.7,136.5 
		96.2,136.5 97.3,136.5 97.8,126.8 98.4,138.3 98.9,143.6 99.4,143.6 100,143.6 100.5,143.6 101.6,71.2 102.1,71.2 102.6,71.2 
		103.1,110 103.7,110 104.2,110 105.3,110 105.8,128.6 106.3,121.5 106.9,134.8 107.4,133.9 107.9,133.9 109,140.9 109.5,140.9 
		110.1,148 110.6,148 111.1,148 111.6,159.5 112.7,151.5 113.2,151.5 113.8,151.5 114.3,151.5 114.8,151.5 115.4,156.8 115.9,156.8 
		117,154.2 117.5,154.2 118,154.2 118.6,154.2 119.1,154.2 119.6,154.2 120.7,142.7 121.2,130.3 121.7,130.3 122.3,74.7 122.8,74.7 
		123.3,74.7 124.4,74.7 124.9,74.7 125.5,74.7 126,74.7 126.5,81.8 127,81.8 128.1,81.8 128.6,81.8 129.2,89.7 129.7,89.7 
		130.2,89.7 130.8,126.8 131.3,126.8 132.4,126.8 132.9,131.2 133.4,124.2 134,124.2 134.5,124.2 135,124.2 136.1,124.2 
		136.6,124.2 137.1,124.2 137.7,124.2 138.2,124.2 138.7,124.2 139.8,124.2 140.3,94.2 140.9,87.1 141.4,88.9 141.9,95.9 
		142.5,95.9 143,127.7 144,127.7 144.6,127.7 145.1,127.7 145.6,127.7 146.2,129.5 146.7,129.5 147.8,129.5 148.3,129.5 
		148.8,129.5 149.4,129.5 149.9,108.3 150.4,108.3 151.5,108.3 152,99.4 152.5,99.4 153.1,99.4 153.6,99.4 154.1,99.4 155.2,96.8 
		155.7,96.8 156.3,96.8 156.8,94.2 157.3,94.2 157.9,89.7 158.4,88 159.4,88 160,86.2 160.5,86.2 161,86.2 161.6,86.2 162.1,83.6 
		163.2,83.6 163.7,88 164.2,89.7 164.8,89.7 165.3,84.4 165.8,84.4 166.9,84.4 167.4,84.4 167.9,87.1 168.5,87.1 169,73 169.5,73 
		170.6,73 171.1,74.7 171.7,75.6 172.2,52.7 172.7,50 173.3,50 173.8,54.4 174.8,54.4 175.4,54.4 175.9,54.4 176.4,54.4 177,54.4 
		177.5,54.4 178.6,54.4 179.1,54.4 179.6,54.4 180.2,54.4 180.7,70.3 181.2,70.3 182.3,70.3 182.8,70.3 183.3,70.3 183.9,70.3 
		184.4,79.1 184.9,83.6 186,83.6 186.5,85.3 187.1,85.3 187.6,85.3 188.1,84.4 188.7,84.4 189.2,84.4 190.3,84.4 190.8,84.4 
		191.3,84.4 191.8,84.4 192.4,84.4 192.9,93.3 194,93.3 194.5,93.3 195,93.3 195.6,93.3 196.1,93.3 196.6,95.9 197.7,96.8 
		198.2,96.8 198.7,96.8 199.3,96.8 199.8,96.8 200.3,96.8 201.4,96.8 201.9,96.8 202.5,99.4 203,97.7 203.5,97.7 204.1,92.4 
		204.6,92.4 205.7,92.4 206.2,92.4 206.7,102.1 207.2,102.1 207.8,102.1 208.3,102.1 209.4,102.1 209.9,102.1 210.4,102.1 211,98.6 
		211.5,98.6 212,98.6 213.1,127.7 213.6,127.7 214.2,129.5 214.7,140.9 215.2,142.7 215.7,142.7 216.8,142.7 217.3,142.7 
		217.9,142.7 218.4,142.7 	"/>
</g>
<g>
	<path class="st0" d="M8.3,222.4H9l1.4,3.7c0.2,0.4,0.3,0.8,0.3,0.9h0c0.1-0.2,0.2-0.5,0.3-0.9l1.3-3.7h0.6l-2,5.3h-0.6L8.3,222.4z"
		/>
	<path class="st0" d="M13,226.8c0-1,1.1-1.3,2-1.3h0.2v-0.4c0-0.6-0.2-0.8-0.8-0.8c-0.4,0-0.7,0.1-1,0.4l-0.3-0.4
		c0.4-0.4,0.8-0.5,1.4-0.5c0.8,0,1.3,0.4,1.3,1.3v1.8c0,0.4,0,0.7,0.1,0.9h-0.6c0-0.1,0-0.3-0.1-0.5c-0.3,0.3-0.7,0.6-1.2,0.6
		C13.5,227.8,13,227.4,13,226.8z M15.2,226.8v-0.9h-0.2c-0.8,0-1.4,0.2-1.4,0.9c0,0.4,0.3,0.5,0.6,0.5
		C14.6,227.3,15,227.1,15.2,226.8z"/>
	<path class="st0" d="M16.6,225.8c0-1.3,0.8-2,1.8-2c0.6,0,1,0.2,1.2,0.4l-0.3,0.4c-0.2-0.2-0.5-0.3-0.9-0.3c-0.8,0-1.1,0.7-1.1,1.5
		c0,0.8,0.4,1.5,1.2,1.5c0.5,0,0.8-0.2,0.9-0.3l0.2,0.4c-0.2,0.1-0.5,0.4-1.2,0.4C17.2,227.8,16.6,226.9,16.6,225.8z"/>
	<path class="st0" d="M20,225.8c0-1.3,0.8-2,1.8-2c0.6,0,1,0.2,1.2,0.4l-0.3,0.4c-0.2-0.2-0.5-0.3-0.9-0.3c-0.8,0-1.1,0.7-1.1,1.5
		c0,0.8,0.4,1.5,1.2,1.5c0.5,0,0.8-0.2,0.9-0.3l0.2,0.4c-0.2,0.1-0.5,0.4-1.2,0.4C20.6,227.8,20,226.9,20,225.8z"/>
	<path class="st0" d="M23.6,222.8c0-0.2,0.2-0.4,0.4-0.4s0.4,0.2,0.4,0.4c0,0.2-0.2,0.4-0.4,0.4S23.6,223,23.6,222.8z M23.7,223.9
		h0.6v3.8h-0.6V223.9z"/>
	<path class="st0" d="M25.5,223.9h0.6v0.6c0.3-0.4,0.8-0.6,1.2-0.6c0.8,0,1.1,0.5,1.1,1.2v2.7h-0.6v-2.6c0-0.5-0.2-0.8-0.7-0.8
		c-0.4,0-0.8,0.3-1.1,0.7v2.7h-0.6V223.9z"/>
	<path class="st0" d="M29.3,226.8c0-1,1.1-1.3,2-1.3h0.2v-0.4c0-0.6-0.2-0.8-0.8-0.8c-0.4,0-0.7,0.1-1,0.4l-0.3-0.4
		c0.4-0.4,0.8-0.5,1.4-0.5c0.8,0,1.3,0.4,1.3,1.3v1.8c0,0.4,0,0.7,0.1,0.9h-0.6c0-0.1,0-0.3-0.1-0.5c-0.3,0.3-0.7,0.6-1.2,0.6
		C29.7,227.8,29.3,227.4,29.3,226.8z M31.5,226.8v-0.9h-0.2c-0.8,0-1.4,0.2-1.4,0.9c0,0.4,0.3,0.5,0.6,0.5
		C30.9,227.3,31.3,227.1,31.5,226.8z"/>
	<path class="st0" d="M33.4,226.8v-2.5h-0.6v-0.5h0.6v-1.1h0.6v1.1h1v0.5h-1v2.4c0,0.4,0.1,0.6,0.4,0.6c0.2,0,0.5-0.1,0.5-0.2
		l0.2,0.4c-0.1,0.1-0.4,0.2-0.8,0.2C33.7,227.8,33.4,227.5,33.4,226.8z"/>
	<path class="st0" d="M35.7,222.8c0-0.2,0.2-0.4,0.4-0.4c0.2,0,0.4,0.2,0.4,0.4c0,0.2-0.2,0.4-0.4,0.4
		C35.9,223.2,35.7,223,35.7,222.8z M35.9,223.9h0.6v3.8h-0.6V223.9z"/>
	<path class="st0" d="M37.3,225.8c0-0.9,0.5-2,1.8-2s1.8,1.1,1.8,2c0,0.9-0.5,2-1.8,2C37.8,227.8,37.3,226.7,37.3,225.8z
		 M40.3,225.8c0-0.8-0.4-1.5-1.2-1.5s-1.1,0.7-1.1,1.5c0,0.8,0.4,1.5,1.2,1.5S40.3,226.7,40.3,225.8z"/>
	<path class="st0" d="M41.7,223.9h0.6v0.6c0.3-0.4,0.8-0.6,1.2-0.6c0.8,0,1.1,0.5,1.1,1.2v2.7h-0.6v-2.6c0-0.5-0.2-0.8-0.7-0.8
		c-0.4,0-0.8,0.3-1.1,0.7v2.7h-0.6V223.9z"/>
	<path class="st0" d="M47.6,222.4h1.3c1.1,0,1.9,0.5,1.9,1.5c0,1-0.7,1.6-2,1.6h-0.6v2.2h-0.6V222.4z M48.8,225.1
		c0.9,0,1.3-0.4,1.3-1.1c0-0.6-0.4-1-1.3-1h-0.6v2.1H48.8z"/>
	<path class="st0" d="M51.6,223.9h0.6v0.6c0.2-0.3,0.5-0.7,1-0.7c0.2,0,0.4,0.1,0.4,0.1l-0.1,0.6c0,0-0.1-0.1-0.3-0.1
		c-0.6,0-0.9,0.7-0.9,0.8v2.6h-0.6V223.9z"/>
	<path class="st0" d="M53.9,225.8c0-0.9,0.5-2,1.8-2c1.3,0,1.8,1.1,1.8,2c0,0.9-0.5,2-1.8,2C54.3,227.8,53.9,226.7,53.9,225.8z
		 M56.8,225.8c0-0.8-0.4-1.5-1.2-1.5s-1.1,0.7-1.1,1.5c0,0.8,0.4,1.5,1.2,1.5C56.4,227.3,56.8,226.7,56.8,225.8z"/>
	<path class="st0" d="M58,228.6c0-0.4,0.3-0.8,0.7-1c-0.2-0.1-0.3-0.3-0.3-0.6c0-0.3,0.2-0.5,0.4-0.6c-0.4-0.2-0.7-0.7-0.7-1.2
		c0-0.8,0.6-1.4,1.5-1.4c0.2,0,0.4,0,0.6,0.1h1.2v0.5h-0.6c0.2,0.2,0.3,0.5,0.3,0.8c0,0.8-0.6,1.4-1.5,1.4c-0.2,0-0.3,0-0.4,0
		c-0.2,0.1-0.3,0.2-0.3,0.3c0,0.2,0.2,0.3,0.5,0.3c0.8,0,2,0,2,1.2c0,0.8-0.9,1.3-1.9,1.3C58.7,229.6,58,229.3,58,228.6z
		 M60.8,228.4c0-0.6-0.5-0.6-1-0.6c-0.2,0-0.5,0-0.7-0.1c-0.4,0.2-0.5,0.5-0.5,0.8c0,0.4,0.3,0.7,1,0.7
		C60.3,229.2,60.8,228.9,60.8,228.4z M60.5,225.2c0-0.5-0.3-0.9-0.9-0.9c-0.6,0-0.9,0.4-0.9,0.9c0,0.5,0.3,0.9,0.9,0.9
		C60.1,226.1,60.5,225.8,60.5,225.2z"/>
	<path class="st0" d="M62.2,223.9h0.6v0.6c0.2-0.3,0.5-0.7,1-0.7c0.2,0,0.4,0.1,0.4,0.1l-0.1,0.6c0,0-0.1-0.1-0.3-0.1
		c-0.6,0-0.9,0.7-0.9,0.8v2.6h-0.6V223.9z"/>
	<path class="st0" d="M64.4,225.8c0-1.1,0.7-2,1.7-2c1,0,1.5,0.7,1.5,1.7c0,0.1,0,0.2,0,0.3H65c0,0.8,0.3,1.5,1.2,1.5
		c0.5,0,0.9-0.2,1.1-0.3l0.2,0.5c-0.2,0.1-0.6,0.4-1.3,0.4C65,227.8,64.4,226.9,64.4,225.8z M67,225.3c0-0.5-0.3-1-0.9-1
		c-0.6,0-1,0.4-1.1,1H67z"/>
	<path class="st0" d="M68.2,227.5l0.3-0.4c0.1,0.1,0.5,0.3,1,0.3c0.5,0,0.8-0.2,0.8-0.6s-0.3-0.5-0.8-0.7c-0.6-0.3-1.1-0.5-1.1-1.2
		c0-0.6,0.4-1.1,1.2-1.1c0.6,0,1,0.3,1.1,0.4l-0.3,0.4c-0.1-0.1-0.4-0.3-0.9-0.3c-0.4,0-0.6,0.2-0.6,0.5c0,0.4,0.3,0.5,0.7,0.7
		c0.6,0.3,1.2,0.5,1.2,1.2c0,0.7-0.5,1.1-1.4,1.1C68.8,227.9,68.4,227.7,68.2,227.5z"/>
	<path class="st0" d="M71.3,227.5l0.3-0.4c0.1,0.1,0.5,0.3,1,0.3c0.5,0,0.8-0.2,0.8-0.6s-0.3-0.5-0.8-0.7c-0.6-0.3-1.1-0.5-1.1-1.2
		c0-0.6,0.4-1.1,1.2-1.1c0.6,0,1,0.3,1.1,0.4l-0.3,0.4c-0.1-0.1-0.4-0.3-0.9-0.3c-0.4,0-0.6,0.2-0.6,0.5c0,0.4,0.3,0.5,0.7,0.7
		c0.6,0.3,1.2,0.5,1.2,1.2c0,0.7-0.5,1.1-1.4,1.1C71.9,227.9,71.5,227.7,71.3,227.5z"/>
	<path class="st0" d="M74.8,228c0-0.3-0.4-0.3-0.4-0.7c0-0.2,0.2-0.4,0.4-0.4c0.3,0,0.5,0.2,0.5,0.6c0,0.4-0.2,0.9-0.5,1.4h-0.4
		C74.7,228.5,74.8,228.2,74.8,228z"/>
	<path class="st0" d="M78.1,222.4h0.6v4.8h2.1v0.5h-2.7V222.4z"/>
	<path class="st0" d="M81.4,227.3c0-0.3,0.2-0.5,0.5-0.5c0.3,0,0.5,0.2,0.5,0.5s-0.2,0.5-0.5,0.5C81.6,227.8,81.4,227.6,81.4,227.3z
		"/>
	<path class="st0" d="M83.4,222.4H84v2.3h3v-2.3h0.6v5.3H87v-2.5h-3v2.5h-0.6V222.4z"/>
	<path class="st0" d="M88.7,227.3c0-0.3,0.2-0.5,0.5-0.5c0.3,0,0.5,0.2,0.5,0.5s-0.2,0.5-0.5,0.5C88.9,227.8,88.7,227.6,88.7,227.3z
		"/>
	<path class="st0" d="M90.2,227.3l0.3-0.4c0.1,0.1,0.5,0.5,1.2,0.5c0.7,0,1.1-0.4,1.1-0.9c0-0.6-0.6-0.9-1.2-1.2
		c-0.6-0.3-1.2-0.7-1.2-1.5c0-0.9,0.7-1.4,1.6-1.4c0.8,0,1.2,0.3,1.4,0.4l-0.3,0.5c-0.2-0.1-0.5-0.4-1.1-0.4c-0.5,0-0.9,0.3-0.9,0.8
		c0,0.5,0.4,0.8,1,1c0.7,0.3,1.5,0.7,1.5,1.7c0,0.8-0.7,1.4-1.7,1.4C90.9,227.8,90.4,227.5,90.2,227.3z"/>
	<path class="st0" d="M94.1,227.3c0-0.3,0.2-0.5,0.5-0.5s0.5,0.2,0.5,0.5s-0.2,0.5-0.5,0.5S94.1,227.6,94.1,227.3z"/>
	<line class="st4" x1="0" y1="225" x2="6" y2="225"/>
	<path class="st0" d="M8.5,237.7l0.3-0.4c0.1,0.1,0.5,0.5,1.2,0.5c0.7,0,1.1-0.4,1.1-0.9c0-0.6-0.6-0.9-1.2-1.2
		c-0.6-0.3-1.2-0.7-1.2-1.5c0-0.9,0.7-1.4,1.6-1.4c0.8,0,1.2,0.3,1.4,0.4l-0.3,0.5c-0.2-0.1-0.5-0.4-1.1-0.4c-0.5,0-0.9,0.3-0.9,0.8
		c0,0.5,0.4,0.8,1,1c0.7,0.3,1.5,0.7,1.5,1.7c0,0.8-0.7,1.4-1.7,1.4C9.2,238.2,8.7,237.8,8.5,237.7z"/>
	<path class="st0" d="M12.8,237.2v-2.5h-0.6v-0.5h0.6v-1.1h0.6v1.1h1v0.5h-1v2.4c0,0.4,0.1,0.6,0.4,0.6c0.2,0,0.5-0.1,0.5-0.2
		l0.2,0.4c-0.1,0.1-0.4,0.2-0.8,0.2C13.1,238.2,12.8,237.8,12.8,237.2z"/>
	<path class="st0" d="M15.3,234.3h0.6v0.6c0.2-0.3,0.5-0.7,1-0.7c0.2,0,0.4,0.1,0.4,0.1l-0.1,0.6c0,0-0.1-0.1-0.3-0.1
		c-0.6,0-0.9,0.7-0.9,0.8v2.6h-0.6V234.3z"/>
	<path class="st0" d="M17.8,233.1c0-0.2,0.2-0.4,0.4-0.4s0.4,0.2,0.4,0.4c0,0.2-0.2,0.4-0.4,0.4S17.8,233.4,17.8,233.1z M17.9,234.3
		h0.6v3.8h-0.6V234.3z"/>
	<path class="st0" d="M19.7,234.3h0.6v0.6c0.3-0.4,0.8-0.6,1.2-0.6c0.8,0,1.1,0.5,1.1,1.2v2.7h-0.6v-2.6c0-0.5-0.2-0.8-0.7-0.8
		c-0.4,0-0.8,0.3-1.1,0.7v2.7h-0.6V234.3z"/>
	<path class="st0" d="M23.5,238.9c0-0.4,0.3-0.8,0.7-1c-0.2-0.1-0.3-0.3-0.3-0.6c0-0.3,0.2-0.5,0.4-0.6c-0.4-0.2-0.7-0.7-0.7-1.2
		c0-0.8,0.6-1.4,1.5-1.4c0.2,0,0.4,0,0.6,0.1h1.2v0.5h-0.6c0.2,0.2,0.3,0.5,0.3,0.8c0,0.8-0.6,1.4-1.5,1.4c-0.2,0-0.3,0-0.4,0
		c-0.2,0.1-0.3,0.2-0.3,0.3c0,0.2,0.2,0.3,0.5,0.3c0.8,0,2,0,2,1.2c0,0.8-0.9,1.3-1.9,1.3C24.2,240,23.5,239.7,23.5,238.9z
		 M26.4,238.8c0-0.6-0.5-0.6-1-0.6c-0.2,0-0.5,0-0.7-0.1c-0.4,0.2-0.5,0.5-0.5,0.8c0,0.4,0.3,0.7,1,0.7
		C25.9,239.5,26.4,239.2,26.4,238.8z M26,235.6c0-0.5-0.3-0.9-0.9-0.9c-0.6,0-0.9,0.4-0.9,0.9s0.3,0.9,0.9,0.9
		C25.7,236.5,26,236.1,26,235.6z"/>
	<path class="st0" d="M27.4,236.2c0-1.1,0.7-2,1.7-2c1,0,1.5,0.7,1.5,1.7c0,0.1,0,0.2,0,0.3H28c0,0.8,0.3,1.5,1.2,1.5
		c0.5,0,0.9-0.2,1.1-0.3l0.2,0.5c-0.2,0.1-0.6,0.4-1.3,0.4C28,238.2,27.4,237.3,27.4,236.2z M30,235.7c0-0.5-0.3-1-0.9-1
		c-0.6,0-1,0.4-1.1,1H30z"/>
	<path class="st0" d="M31.5,234.3h0.6v0.6c0.3-0.4,0.8-0.6,1.2-0.6c0.8,0,1.1,0.5,1.1,1.2v2.7h-0.6v-2.6c0-0.5-0.2-0.8-0.7-0.8
		c-0.4,0-0.8,0.3-1.1,0.7v2.7h-0.6V234.3z"/>
	<path class="st0" d="M35.2,236.2c0-1.3,0.8-2,1.8-2c0.6,0,1,0.2,1.2,0.4l-0.3,0.4c-0.2-0.2-0.5-0.3-0.9-0.3c-0.8,0-1.1,0.7-1.1,1.5
		c0,0.8,0.4,1.5,1.2,1.5c0.5,0,0.8-0.2,0.9-0.3l0.2,0.4c-0.2,0.1-0.5,0.4-1.2,0.4C35.8,238.2,35.2,237.2,35.2,236.2z"/>
	<path class="st0" d="M38.4,239.9l0.1-0.5c0.1,0,0.1,0,0.3,0c0.5,0,0.8-0.3,1-0.9l0.2-0.5l-1.4-3.8h0.7l1.1,3.1h0l1.1-3.1h0.6
		l-1.6,4.3c-0.3,0.7-0.6,1.3-1.5,1.3C38.6,240,38.5,239.9,38.4,239.9z"/>
	<path class="st0" d="M44.4,232.8H45v5.3h-0.6V232.8z"/>
	<path class="st0" d="M46.3,234.3h0.6v0.6c0.3-0.4,0.8-0.6,1.2-0.6c0.8,0,1.1,0.5,1.1,1.2v2.7h-0.6v-2.6c0-0.5-0.2-0.8-0.7-0.8
		c-0.4,0-0.8,0.3-1.1,0.7v2.7h-0.6V234.3z"/>
	<path class="st0" d="M50,236.2c0-1.2,0.7-2,1.7-2c0.4,0,0.7,0.1,1,0.3v-2.2h0.6v5c0,0.3,0,0.6,0.1,0.8h-0.6c0-0.1-0.1-0.3-0.1-0.4
		c-0.3,0.3-0.6,0.5-1.1,0.5C50.7,238.2,50,237.5,50,236.2z M52.7,237.1V235c-0.2-0.2-0.5-0.4-0.9-0.4c-0.7,0-1.1,0.6-1.1,1.5
		c0,0.9,0.3,1.5,1.1,1.5C52.1,237.7,52.5,237.5,52.7,237.1z"/>
	<path class="st0" d="M54.1,236.2c0-1.1,0.7-2,1.7-2c1,0,1.5,0.7,1.5,1.7c0,0.1,0,0.2,0,0.3h-2.6c0,0.8,0.3,1.5,1.2,1.5
		c0.5,0,0.9-0.2,1.1-0.3l0.2,0.5c-0.2,0.1-0.6,0.4-1.3,0.4C54.7,238.2,54.1,237.3,54.1,236.2z M56.7,235.7c0-0.5-0.3-1-0.9-1
		c-0.6,0-1,0.4-1.1,1H56.7z"/>
	<path class="st0" d="M59,236.1l-1.2-1.8h0.7c0,0,0.9,1.3,0.9,1.4l0.9-1.4h0.6l-1.2,1.8l1.4,2h-0.7l-1.1-1.6l-1,1.6h-0.6L59,236.1z"
		/>
	<path class="st0" d="M61.8,238.4c0-0.3-0.4-0.3-0.4-0.7c0-0.2,0.2-0.4,0.4-0.4c0.3,0,0.5,0.2,0.5,0.6c0,0.4-0.2,0.9-0.5,1.4h-0.4
		C61.7,238.9,61.8,238.6,61.8,238.4z"/>
	<path class="st0" d="M65,232.8h1.4c1.1,0,1.8,0.5,1.8,1.4c0,0.9-0.6,1.3-1.5,1.4v0c0.1,0.1,0.2,0.2,0.6,0.7l1.3,1.8h-0.7l-1.1-1.5
		c-0.6-0.9-0.7-0.9-1.1-0.9h-0.1v2.5H65V232.8z M66.5,235.1c0.8,0,1.2-0.3,1.2-0.9s-0.4-0.9-1.2-0.9h-0.8v1.8H66.5z"/>
	<path class="st0" d="M69.1,237.7c0-0.3,0.2-0.5,0.5-0.5c0.3,0,0.5,0.2,0.5,0.5c0,0.3-0.2,0.5-0.5,0.5
		C69.3,238.2,69.1,238,69.1,237.7z"/>
	<path class="st0" d="M71.1,232.8h0.6v2.3h3v-2.3h0.6v5.3h-0.6v-2.5h-3v2.5h-0.6V232.8z"/>
	<path class="st0" d="M76.3,237.7c0-0.3,0.2-0.5,0.5-0.5c0.3,0,0.5,0.2,0.5,0.5c0,0.3-0.2,0.5-0.5,0.5
		C76.5,238.2,76.3,238,76.3,237.7z"/>
	<path class="st0" d="M77.9,237.7l0.3-0.4c0.1,0.1,0.5,0.5,1.2,0.5c0.7,0,1.1-0.4,1.1-0.9c0-0.6-0.6-0.9-1.2-1.2
		c-0.6-0.3-1.2-0.7-1.2-1.5c0-0.9,0.7-1.4,1.6-1.4c0.8,0,1.2,0.3,1.4,0.4l-0.3,0.5c-0.2-0.1-0.5-0.4-1.1-0.4c-0.5,0-0.9,0.3-0.9,0.8
		c0,0.5,0.4,0.8,1,1c0.7,0.3,1.5,0.7,1.5,1.7c0,0.8-0.7,1.4-1.7,1.4C78.6,238.2,78.1,237.8,77.9,237.7z"/>
	<path class="st0" d="M81.8,237.7c0-0.3,0.2-0.5,0.5-0.5c0.3,0,0.5,0.2,0.5,0.5c0,0.3-0.2,0.5-0.5,0.5C82,238.2,81.8,238,81.8,237.7
		z"/>
	<line class="st5" x1="0" y1="235.3" x2="6" y2="235.3"/>
</g>
</svg>
