<?xml version="1.0" encoding="utf-8"?>
<!-- Generator: Adobe Illustrator 26.0.1, SVG Export Plug-In . SVG Version: 6.00 Build 0)  -->
<svg version="1.1" id="Layer_1" xmlns="http://www.w3.org/2000/svg" xmlns:xlink="http://www.w3.org/1999/xlink" x="0px" y="0px"
	 viewBox="0 0 15.2 21.9" style="enable-background:new 0 0 15.2 21.9;" xml:space="preserve">
<style type="text/css">
	.st0{fill:#FFFFFF;}
</style>
<g id="Layer_2_00000141438139593976832920000004582500839846384831_">
	<g id="Layer_1-2">
		<path class="st0" d="M11.9,11.9c0,0-3.4,2.9-3.4,6.4c-0.1,1.9,1.3,3.4,3.2,3.5s3.4-1.3,3.5-3.2c0-0.1,0-0.2,0-0.4
			C15.2,14.8,11.9,11.9,11.9,11.9z M12,20.6c-0.1,0.2-0.2,0.3-0.4,0.3h-0.1c-0.9-0.3-1.7-1.1-2-2c-0.1-0.2,0-0.5,0.2-0.5
			c0,0,0,0,0,0c0.2-0.1,0.5,0,0.5,0.2c0.3,0.7,0.8,1.2,1.5,1.5C12,20.1,12.1,20.4,12,20.6z"/>
		<path class="st0" d="M0.4,2.7h0.1v4.5h11.4V2.7h0.1c0.2,0,0.4-0.2,0.4-0.4c0-0.2-0.2-0.4-0.4-0.4H0.4C0.2,1.9,0,2.1,0,2.3
			C0,2.5,0.2,2.7,0.4,2.7C0.4,2.7,0.4,2.7,0.4,2.7z"/>
		<path class="st0" d="M10.2,0.4c0-0.2-0.2-0.4-0.4-0.4H7.7C7.5,0,7.3,0.2,7.3,0.4c0,0,0,0,0,0v0.5h2.9V0.4z"/>
		<path class="st0" d="M7.3,18.9c0.1-1.6,0.6-3.2,1.5-4.5H0.4c-0.2,0-0.4,0.2-0.4,0.4c0,0.2,0.2,0.4,0.4,0.4h0.1v5H0.4
			c-0.2,0-0.4,0.2-0.4,0.4S0.2,21,0.4,21h7.4C7.5,20.4,7.3,19.6,7.3,18.9z"/>
		<path class="st0" d="M9,13.4l0.2-0.3c0.6-0.8,1.2-1.5,1.9-2.2l0.3-0.3l0.3,0.3l0.1,0.1V8.9H12c0.2,0,0.4-0.2,0.3-0.5
			c0-0.2-0.2-0.3-0.3-0.3H0.4C0.2,8.1,0,8.3,0.1,8.5c0,0.2,0.2,0.3,0.3,0.3h0.1v4.6H9z"/>
	</g>
</g>
</svg>
