<?xml version="1.0" encoding="utf-8"?>
<!-- Generator: Adobe Illustrator 26.0.1, SVG Export Plug-In . SVG Version: 6.00 Build 0)  -->
<svg version="1.1" id="Layer_1" xmlns="http://www.w3.org/2000/svg" xmlns:xlink="http://www.w3.org/1999/xlink" x="0px" y="0px"
	 viewBox="0 0 24.5 19.3" style="enable-background:new 0 0 24.5 19.3;" xml:space="preserve">
<style type="text/css">
	.st0{fill:#FFFFFF;}
</style>
<g>
	<polygon class="st0" points="8.9,9.7 4.7,8.7 3.6,11.8 9.6,13.5 	"/>
	<polygon class="st0" points="0,15.7 6.7,17.5 5.6,13.4 1,12.2 	"/>
	<polygon class="st0" points="6.7,17.5 13.4,19.3 12.5,15.5 8,14 	"/>
	<polygon class="st0" points="7.5,13.9 6.4,13.5 6.8,15.6 	"/>
	<path class="st0" d="M2.9,11.7c0-0.1,0.8-1.2,0.8-1.2l-2,0.9C1.6,11.4,2.8,11.8,2.9,11.7"/>
	<polygon class="st0" points="10.5,14.2 13,15.1 13.7,18.9 23.7,14.5 23,10.6 20.5,9.7 	"/>
	<polygon class="st0" points="9.4,9.6 10,13.5 19.6,9.2 18.4,6 	"/>
	<polygon class="st0" points="14.9,4.4 18.9,5.4 19.7,9.1 20.1,8.7 19.6,5.1 14.9,3.7 5.2,7.9 4.8,8.1 5.9,8.4 	"/>
	<path class="st0" d="M6.8,2.8C5,3.2,4.6,3.6,4.3,5.5c-0.4-2-0.7-2.3-2.5-2.8C3.5,2.3,3.9,2,4.3,0C4.6,2,5,2.3,6.8,2.8"/>
	<path class="st0" d="M24.5,5.7C23.4,6,23.2,6.2,23,7.4c-0.2-1.2-0.4-1.5-1.6-1.7c1.1-0.3,1.3-0.5,1.6-1.7
		C23.2,5.2,23.4,5.4,24.5,5.7"/>
	<path class="st0" d="M2.5,7.5C1.9,7.6,1.8,7.7,1.6,8.4C1.5,7.7,1.4,7.6,0.8,7.5c0.6-0.1,0.7-0.3,0.8-0.9C1.8,7.2,1.9,7.3,2.5,7.5"
		/>
</g>
</svg>
