<?xml version="1.0" encoding="utf-8"?>
<!-- Generator: Adobe Illustrator 26.0.1, SVG Export Plug-In . SVG Version: 6.00 Build 0)  -->
<svg version="1.1" id="Layer_1" xmlns="http://www.w3.org/2000/svg" xmlns:xlink="http://www.w3.org/1999/xlink" x="0px" y="0px"
	 viewBox="0 0 23.2 20.7" style="enable-background:new 0 0 23.2 20.7;" xml:space="preserve">
<style type="text/css">
	.st0{fill:#FFFFFF;}
	.st1{fill:#FFFFFF;stroke:#FFFFFF;stroke-width:0.785;stroke-miterlimit:10;}
</style>
<path class="st0" d="M1.8,3.1c2.4,2.3,4.7,4.7,7.1,7c1.3-0.7,2.6-1.4,3.9-2c2.3,2.2,4.6,4.3,7,6.5c-0.3,0.3-0.6,0.6-0.8,0.9
	c1.1,0.2,2.2,0.4,3.3,0.5c-0.3-1.1-0.5-2.1-0.8-3.2c-0.3,0.3-0.6,0.6-0.8,0.9c-2.5-2.4-5.1-4.7-7.6-7.1c-1.3,0.7-2.5,1.3-3.8,2
	C6.8,6,4.3,3.5,1.8,1C1.8,1.7,1.8,2.4,1.8,3.1"/>
<path class="st1" d="M1.8,3.1c2.4,2.3,4.7,4.7,7.1,7c1.3-0.7,2.6-1.4,3.9-2c2.3,2.2,4.6,4.3,7,6.5c-0.3,0.3-0.6,0.6-0.8,0.9
	c1.1,0.2,2.2,0.4,3.3,0.5c-0.3-1.1-0.5-2.1-0.8-3.2c-0.3,0.3-0.6,0.6-0.8,0.9c-2.5-2.4-5.1-4.7-7.6-7.1c-1.3,0.7-2.5,1.3-3.8,2
	C6.8,6,4.3,3.5,1.8,1C1.8,1.7,1.8,2.4,1.8,3.1z"/>
<rect x="7.4" y="8.6" class="st0" width="4.2" height="12.1"/>
<rect x="1.4" y="5.6" class="st0" width="4.2" height="15.1"/>
<rect x="13.5" y="11.6" class="st0" width="4.2" height="9.1"/>
<path class="st0" d="M13.7,6.3c0-0.1,0-0.1-0.1-0.2c0-0.1,0-0.1-0.1-0.2c0,0,0-0.1,0-0.1c0,0,0-0.1,0-0.1c0-0.1,0-0.1,0-0.2
	c0-0.1,0-0.1,0-0.2c0,0,0-0.1,0-0.1c0-0.2,0-0.4,0-0.6c0.1-1.9,1.6-3.4,3.4-3.6c1.6-0.2,3.2,0.8,3.8,2.2c0,0,0,0,0,0
	c0,0.1,0,0.1,0.1,0.2c0,0.1,0,0.1,0.1,0.2c0,0,0,0.1,0,0.1c0,0,0,0.1,0,0.1c0,0.1,0,0.1,0,0.2c0,0.1,0,0.1,0,0.2c0,0,0,0.1,0,0.1
	c0,0.2,0,0.4,0,0.6c-0.1,1.9-1.6,3.4-3.4,3.6C16,8.7,14.4,7.8,13.7,6.3C13.7,6.3,13.7,6.3,13.7,6.3 M22,4.8c0-0.4,0-0.8-0.2-1.3
	C21.2,1.4,19.3,0,17.2,0c0,0,0,0,0,0c0,0,0,0,0,0c-0.3,0-0.6,0-0.9,0.1c-0.6,0.1-1.2,0.3-1.7,0.7c-0.5,0.3-1,0.8-1.3,1.3
	c-0.2,0.2-0.3,0.5-0.4,0.7c-0.2,0.3-0.3,0.7-0.3,1.1c-0.1,0.3-0.1,0.6-0.1,0.9c0,0.4,0,0.8,0.2,1.3c0.5,2.1,2.5,3.5,4.6,3.5
	c0,0,0,0,0,0c0,0,0,0,0,0c0.3,0,0.6,0,0.9-0.1c0.6-0.1,1.2-0.3,1.7-0.7c0.5-0.3,1-0.8,1.3-1.3c0.2-0.2,0.3-0.5,0.4-0.7
	c0.2-0.3,0.3-0.7,0.4-1.1C21.9,5.4,22,5.1,22,4.8"/>
<path class="st0" d="M16.6,3.9c-0.1-0.1-0.1-0.2-0.1-0.4c0-0.2,0.1-0.3,0.2-0.4C16.7,3,16.8,2.9,17,2.8v1.3C16.8,4,16.7,4,16.6,3.9
	 M17.4,5.1c0.2,0.1,0.4,0.2,0.5,0.3c0.1,0.1,0.2,0.3,0.2,0.5c0,0.2-0.1,0.3-0.2,0.5c-0.1,0.1-0.3,0.2-0.5,0.3V5.1z M15.8,6.7
	C16,6.9,16.1,7,16.3,7.1c0.2,0.1,0.4,0.2,0.7,0.2v0.4c0,0.1,0,0.2,0,0.2c0,0,0.1,0.1,0.2,0.1c0.1,0,0.1,0,0.2-0.1c0-0.1,0-0.2,0-0.3
	V7.2c0.3,0,0.6-0.1,0.8-0.3c0.2-0.1,0.4-0.3,0.5-0.5C18.9,6.2,19,6,19,5.7c0-0.2,0-0.4-0.1-0.6c-0.1-0.2-0.2-0.3-0.3-0.4
	c-0.1-0.1-0.3-0.2-0.4-0.3c-0.2-0.1-0.4-0.1-0.7-0.2V2.8c0.3,0.1,0.5,0.3,0.5,0.6c0.1,0.2,0.2,0.4,0.4,0.4c0.1,0,0.2,0,0.3-0.1
	c0.1-0.1,0.1-0.2,0.1-0.3c0-0.1,0-0.2-0.1-0.3c-0.1-0.1-0.1-0.2-0.2-0.4c-0.1-0.2-0.3-0.3-0.4-0.3c-0.2-0.1-0.4-0.1-0.6-0.1V1.8
	c0-0.2-0.1-0.3-0.2-0.3c-0.1,0-0.2,0.1-0.2,0.3v0.4c-0.5,0-0.8,0.2-1.1,0.4c-0.2,0.2-0.4,0.6-0.4,0.9c0,0.3,0.1,0.5,0.2,0.7
	c0.1,0.2,0.3,0.3,0.5,0.4C16.5,4.8,16.7,4.9,17,5v1.6c-0.1,0-0.3-0.1-0.4-0.2c-0.1-0.1-0.2-0.2-0.2-0.3c0-0.1-0.1-0.2-0.2-0.4
	c0-0.1-0.1-0.2-0.1-0.2c-0.1,0-0.2-0.1-0.3-0.1c-0.1,0-0.2,0-0.3,0.1c-0.1,0.1-0.1,0.2-0.1,0.3c0,0.1,0,0.3,0.1,0.4
	C15.6,6.4,15.7,6.6,15.8,6.7"/>
</svg>
