<?xml version="1.0" encoding="utf-8"?>
<!-- Generator: Adobe Illustrator 26.0.1, SVG Export Plug-In . SVG Version: 6.00 Build 0)  -->
<svg version="1.1" id="Layer_1" xmlns="http://www.w3.org/2000/svg" xmlns:xlink="http://www.w3.org/1999/xlink" x="0px" y="0px"
	 viewBox="0 0 24 21.2" style="enable-background:new 0 0 24 21.2;" xml:space="preserve">
<style type="text/css">
	.st0{fill:#FFFFFF;}
</style>
<g id="Layer_2_00000151511436561645701150000001442313122840421536_">
	<g id="Layer_1-2">
		<path class="st0" d="M9.9,0C4.4,0,0,4.4,0,9.9s4.4,9.9,9.9,9.9s9.9-4.4,9.9-9.9l0,0C19.8,4.4,15.4,0,9.9,0z M2.6,5.5L2.6,5.5
			L2.6,5.5L2.6,5.5z M8.5,18.3c-0.4-0.5,0.2-1.7,0.1-2.2c-0.1-0.3-0.5-0.6-0.8-0.9c-0.3-0.3-0.5-0.6-0.7-1c-0.2-0.3-0.2-0.7,0.1-1
			c0.1-0.2,0.2-0.5,0.2-0.7c0-0.1,0.4-0.4,0.3-0.5l0,0c-0.2,0-0.5,0-0.7-0.1c-0.2-0.1-0.2-0.5-0.3-0.6c-0.4-0.3-1-0.1-1.4-0.4
			c-0.4-0.2-0.7-0.5-1-0.9C4.1,9.6,4,8.7,3.5,8.6c-0.1,0.3,0,0.7,0.1,1c0.1,0.3,0.3,0.9-0.2,0.7c0-0.4,0-0.8-0.1-1.2
			C3.2,8.7,2.9,8.3,2.8,7.9c0-0.4,0-0.8,0-1.2c0-0.4-0.2-0.8-0.2-1.2c0.3-0.4,0.6-0.9,0.9-1.2C3.8,4,4.1,3.8,4.4,3.6
			c0.3-0.2,0.7-0.3,1.1-0.4c0.4-0.1,0.8-0.1,1.2-0.1C6.6,2.8,6.3,2.6,6.8,2.6c0.3,0,0.4,0.3,0.7,0.2C7.4,2.7,6.9,2.4,7.4,2.3
			c0-0.2,0-0.3,0-0.5l0.3-0.1c0.5-0.1,1.1-0.2,1.6-0.3l0.2,0.1l0.1-0.1h0.3c1.2,0,2.3,0.2,3.3,0.7c0,0.1,0.1,0.2,0.2,0.2
			c0.1,0.1,0.5,0.2,0.1,0.2c-0.1,0-0.2,0-0.2,0s0,0.2-0.1,0.3s-0.4-0.1-0.5,0.1s0.1,0.5,0,0.6s-0.4,0.2-0.6,0.2
			c-0.4-0.1-0.8-0.3-1.1-0.7C11,3,10.8,2.6,10.9,2.5s0.2,0,0.2-0.1s0-0.2-0.1-0.3c0,0.2-0.1,0.2-0.2,0.1s-0.1-0.3-0.2-0.5
			s-0.5-0.1-0.7-0.2c-0.1,0-0.2-0.1-0.3-0.1C9.4,1.5,9.4,1.5,9.3,1.6c-0.2,0-0.4,0.1-0.6,0.2C8.2,2.1,8.8,2.1,9.1,2.2
			s0.5,0.4,0.8,0.5s0.6-0.1,0.5,0.5c-0.2,0.1-0.5,0-0.6-0.2C9.9,3.2,10,3.4,10,3.7c-0.4,0.1-0.6,0-0.9-0.2C8.8,3.4,8.6,3.4,8.3,3.3
			c0-0.1,0-0.1,0-0.2c0.3,0,0.6,0,0.4-0.4c-0.5,0-0.6,0.2-0.9,0.5c0.8,0.2,0.1,0.5-0.3,0.5S6.6,3.6,6.4,4s0.4,0.5,0.8,0.6
			s0.3,0,0.4,0.2s0.1,0.4,0.3,0.5C8,5.2,7.8,5,7.9,4.8C8,4.6,8.2,4.7,8.4,4.6C8.2,4.4,7.9,4.3,8,4s0.5-0.3,0.8-0.3
			c0.4,0,0.4,0.2,0.7,0.3C10,4.2,10,3.9,10.3,4.4c0.3,0.4,0.7,0.8,1.1,1.2c0.8,0.7-0.6,0.7-0.8,0.2c0.1,0,0.2-0.1,0.2-0.1
			c-0.4-0.1-0.9-0.1-1.3,0c0,0.1,0,0.1,0,0.2c0.2,0,0.4,0,0.6,0.1c0,0,0,0.2,0.1,0.3s0.3,0,0.4,0c0.1,0.5-1,0.3-1.3,0.5
			c0,0.1-0.1,0.2-0.1,0.3C8.6,6.9,8.6,7.5,8.4,7.8C8.2,8.2,8,8.3,7.8,8.5S7.5,8.8,7.5,8.9s0.4,0.1,0.4,0.4c0,0.5-0.7,0-0.8-0.3
			C6.5,8.9,5.7,8.8,5.4,9.6c-0.1,0.3,0,0.6,0.3,0.7c0,0,0.1,0,0.1,0c0.3,0,0.2-0.2,0.4-0.3c0.2,0,0.3,0,0.5,0
			c0.1,0.3,0.1,0.4,0.2,0.7c0.1,0.1,0.2,0.3,0.3,0.5c0.1,0.2,0.1,0.5,0.4,0.6s0.6-0.1,0.6,0.3c0.5,0,0.9,0.1,1.3,0.3
			c0.3,0.2,0.4,0.5,0.8,0.6c0.6,0.2,0.7,0.1,0.9,0.7c0.1,0.3-0.1,0.4,0.2,0.4c0.2,0,0.5-0.1,0.8-0.1c0.4,0,0.8,0.3,0.8,0.7
			c0,0.2-0.1,0.3-0.2,0.5s-0.1,0.5-0.3,0.8c-0.3,0.5-0.8,0.2-1.1,0.6c-0.1,0.1-0.1,0.4-0.2,0.5s-0.5,0.1-0.6,0.2s-0.1,0.3-0.3,0.5
			S9.9,17.9,9.8,18s-0.4,0.4-0.6,0.5C8.9,18.4,8.7,18.4,8.5,18.3z M17,13.4c0-0.3,0.1-0.6,0.2-0.9c0.1-0.3,0.1-0.6,0.1-0.9
			c0-0.2,0-0.4-0.1-0.5c-0.1-0.1-0.3-0.2-0.4-0.2c-0.2,0-0.4,0.3-0.6,0.3c-0.2,0-0.4-0.1-0.6-0.2c-0.2-0.2-0.4-0.3-0.6-0.5
			c-0.2-0.2-0.3-0.5-0.3-0.9c0-0.3,0-0.6,0.1-0.8c0-0.1,0.1-0.3,0.1-0.4c0.1-0.3,0.1-0.1,0.2-0.3c0.1-0.2,0.2-0.4,0.3-0.6
			c0.1-0.2,0.2-0.3,0.4-0.5c-0.4-0.1-0.4-0.7-0.2-1.1c0.2,0,0.7,0.1,0.4-0.3c-0.1-0.1-0.4-0.1-0.2-0.3c0.1-0.1,0.2-0.1,0.4-0.1
			c0-0.1,0.1-0.2,0.2-0.2l0,0c-0.2-0.1-0.3-0.3-0.5-0.4c-0.1-0.1-0.2-0.5,0-0.6c0.5,0.5,1,1.1,1.4,1.8c0,0,0,0.1,0,0.1
			s0.2,0.3,0.2,0.5c0,0.1,0.1,0.1,0.1,0.2c0.1,0.3,0.2,0.6,0.3,0.9c0,0,0,0.1,0,0.1c-0.2-0.1-0.4-0.5-0.5-0.7c0,0.1,0,0.2,0,0.2
			c0,0-0.1,0-0.1,0c-0.1-0.1-0.1-0.3-0.2-0.4c0,0,0,0.1,0,0.1C17,6.9,17,6.6,17,6.4s-0.3-0.3-0.4-0.1s-0.1,0.3-0.2,0.5
			s-0.1,0.1-0.2,0.1S16,6.9,16,7.1C16.3,7,16.5,7,16.7,7c0.2,0,0.5,0,0.6,0.1s0.1,0.2,0.1,0.2c0,0.1,0.1,0.1,0.1,0.2
			C17.6,7.6,17.7,8,17.9,8c0,0,0-0.1,0-0.1c0.3,0.1,0.4,0.6,0.4,0.9c0.1,0.6,0.1,1.2,0.1,1.7c-0.1,1.4-0.5,2.8-1.3,4
			C17,14.1,17,13.8,17,13.4z"/>
		<path class="st0" d="M17.7,15.7v4.5c0,0.1,0,0.2,0.2,0.2h4.5c0-0.1,0-0.1,0-0.2v-1.6c0-0.2,0.1-0.3,0.2-0.4c0.1-0.1,0.3-0.1,0.5,0
			c0.1,0.1,0.2,0.2,0.2,0.4c0,0.6,0,1.3,0,1.9c0,0.4-0.3,0.8-0.8,0.8c0,0,0,0-0.1,0h-4.7c-0.4,0-0.8-0.3-0.8-0.8c0,0,0-0.1,0-0.1
			v-4.7c0-0.4,0.3-0.8,0.7-0.8c0,0,0,0,0.1,0c0.7,0,1.3,0,1.9,0c0.2,0,0.5,0.2,0.5,0.4c0,0,0,0,0,0c0,0.2-0.2,0.5-0.4,0.5
			c0,0,0,0,0,0H17.7z"/>
		<path class="st0" d="M23.1,15.6c-0.8,0.8-1.6,1.6-2.4,2.4c-0.1,0.1-0.2,0.2-0.3,0.2c-0.2,0-0.4-0.1-0.4-0.2
			c-0.1-0.2-0.1-0.3,0-0.5l0.1-0.1l2.2-2.2l0.2-0.1l0,0h-1.2c-0.2,0-0.5-0.2-0.5-0.4c0,0,0,0,0,0c0-0.2,0.2-0.4,0.4-0.4
			c0,0,0,0,0.1,0h1.9c0.4,0,0.8,0.3,0.8,0.7c0,0,0,0.1,0,0.1v1.9c0,0.2-0.2,0.5-0.4,0.5c0,0,0,0-0.1,0c-0.3,0-0.5-0.2-0.4-0.5
			c0,0,0,0,0,0L23.1,15.6L23.1,15.6z"/>
	</g>
</g>
</svg>
