<?xml version="1.0" encoding="utf-8"?>
<!-- Generator: Adobe Illustrator 26.0.1, SVG Export Plug-In . SVG Version: 6.00 Build 0)  -->
<svg version="1.1" id="Layer_1" xmlns="http://www.w3.org/2000/svg" xmlns:xlink="http://www.w3.org/1999/xlink" x="0px" y="0px"
	 viewBox="0 0 24.4 20.6" style="enable-background:new 0 0 24.4 20.6;" xml:space="preserve">
<style type="text/css">
	.st0{fill:#FFFFFF;}
</style>
<g id="Layer_2_00000099649840019369225570000015218389147303896991_">
	<g id="Layer_1-2">
		<path class="st0" d="M21.3,15.1c-2.7,5-9,6.8-13.9,4.1c-3-1.6-5-4.6-5.3-8v-0.5c0-0.1,0-0.2,0-0.3H0.2c-0.2,0-0.3-0.1-0.2-0.3
			l1-1.5l0.7-0.9l0.9-1.3l0,0c0-0.1,0.1-0.1,0.2-0.1c0.1,0,0.2,0,0.2,0.1L4.2,8l0.4,0.5L4.9,9l0.8,1.1c0.1,0.2,0,0.3-0.2,0.3H3.8
			c0,0.1,0,0.2,0,0.3s0,0.3,0,0.5c0.5,4.6,4.7,7.9,9.3,7.4c3-0.3,5.5-2.2,6.7-5l0.7,1C20.7,14.9,21,15.1,21.3,15.1z"/>
		<path class="st0" d="M24.2,10.1h-1.7c0-0.1,0-0.2,0-0.3c0-0.2,0-0.3,0-0.5C22,3.7,17-0.5,11.3,0C7.9,0.3,4.8,2.3,3.2,5.4
			c0.3,0.1,0.5,0.3,0.7,0.5l0.7,1c1.9-4.2,6.8-6.2,11-4.3c2.7,1.2,4.6,3.8,5,6.7c0,0.2,0,0.3,0,0.5s0,0.2,0,0.3h-1.7
			c-0.2,0-0.3,0.1-0.2,0.3l0.8,1.1l0.4,0.5l0.4,0.5l1.1,1.5c0,0.1,0.1,0.1,0.2,0.1c0.1,0,0.2,0,0.2-0.1l0,0l0.9-1.3l0.7-0.9l1-1.5
			C24.5,10.2,24.4,10.1,24.2,10.1z"/>
		<path class="st0" d="M9.6,13.9c0.3,0.3,0.6,0.5,0.9,0.6c0.4,0.2,0.8,0.3,1.3,0.3v0.8c0,0.1,0,0.3,0.1,0.4c0.1,0.1,0.2,0.1,0.3,0.1
			c0.2,0,0.3,0,0.3-0.2c0.1-0.2,0.1-0.4,0.1-0.5v-0.7c0.5,0,1.1-0.2,1.5-0.5c0.4-0.2,0.8-0.6,1-1c0.2-0.4,0.3-0.9,0.3-1.3
			c0-0.4-0.1-0.8-0.2-1.1c-0.1-0.3-0.3-0.6-0.6-0.8c-0.2-0.2-0.5-0.4-0.8-0.5c-0.3-0.1-0.7-0.2-1.2-0.4V6.7c0.5,0.1,0.9,0.5,1,1
			c0,0.4,0.4,0.8,0.9,0.7c0.2,0,0.4-0.1,0.5-0.2c0.1-0.1,0.2-0.3,0.2-0.5c0-0.2-0.1-0.5-0.2-0.7c-0.1-0.2-0.3-0.5-0.4-0.7
			c-0.2-0.3-0.5-0.5-0.8-0.6c-0.4-0.1-0.7-0.2-1.1-0.3V4.8c0-0.3-0.1-0.5-0.4-0.5s-0.4,0.2-0.4,0.5v0.7c-0.7,0-1.5,0.3-2,0.8
			C9.4,6.8,9.1,7.4,9.2,8c0,0.5,0.1,0.9,0.4,1.4c0.2,0.3,0.5,0.6,0.9,0.8c0.4,0.2,0.9,0.4,1.4,0.5v2.9c-0.2-0.1-0.5-0.2-0.7-0.4
			c-0.2-0.1-0.3-0.3-0.4-0.5c-0.1-0.2-0.2-0.4-0.3-0.8c0-0.2-0.1-0.3-0.3-0.4c-0.1-0.1-0.3-0.1-0.5-0.1c-0.2,0-0.4,0.1-0.6,0.2
			C9,11.8,8.9,12,8.9,12.2c0,0.3,0.1,0.6,0.2,0.8C9.2,13.4,9.4,13.7,9.6,13.9z M12.6,10.9c0.4,0.1,0.7,0.3,1,0.5
			c0.2,0.2,0.4,0.5,0.3,0.8c0,0.3-0.1,0.6-0.3,0.9c-0.3,0.3-0.6,0.5-1,0.5L12.6,10.9z M11,8.6c-0.2-0.2-0.3-0.5-0.3-0.8
			c0-0.3,0.1-0.6,0.3-0.8c0.2-0.2,0.5-0.3,0.8-0.4v2.4C11.5,9,11.2,8.8,11,8.6z"/>
	</g>
</g>
</svg>
