<?xml version="1.0" encoding="utf-8"?>
<!-- Generator: Adobe Illustrator 26.0.1, SVG Export Plug-In . SVG Version: 6.00 Build 0)  -->
<svg version="1.1" id="Layer_1" xmlns="http://www.w3.org/2000/svg" xmlns:xlink="http://www.w3.org/1999/xlink" x="0px" y="0px"
	 viewBox="0 0 28.3 21.8" style="enable-background:new 0 0 28.3 21.8;" xml:space="preserve">
<style type="text/css">
	.st0{fill:#FFFFFF;}
</style>
<g>
	<path class="st0" d="M17.2,6.7c0,0,0,0.1,0,0.1C17,6.9,17,6.6,17,6.4c-0.1-0.2-0.3-0.3-0.4-0.1c-0.1,0.1-0.1,0.3-0.2,0.5
		c-0.1,0.1-0.1,0.1-0.2,0.1c-0.1,0.1-0.1,0.1-0.1,0.2C16.3,7,16.4,7,16.7,7c0.1,0,0.4,0,0.5,0c0.1,0,0.1,0,0.2-0.1
		C17.3,6.9,17.3,6.8,17.2,6.7z"/>
	<path class="st0" d="M13.6,11.8c0-1.4,0.6-2.6,1.5-3.5c0-0.1,0.1-0.1,0.2-0.2c0.1-0.1,0.2-0.4,0.3-0.6c0.1-0.2,0.2-0.3,0.4-0.5
		c-0.3-0.1-0.4-0.7-0.2-1.1c0.2,0,0.7,0.1,0.4-0.3c-0.1-0.1-0.4-0.1-0.2-0.3c0.1-0.1,0.3-0.1,0.4-0.1c0-0.1,0.1-0.2,0.2-0.2l0,0
		c-0.1-0.1-0.3-0.3-0.4-0.4c-0.1-0.1-0.2-0.5,0-0.6c0.5,0.5,1,1.1,1.4,1.8c0,0,0,0.1,0,0.1c0.1,0.2,0.2,0.3,0.2,0.5
		c0,0.1,0.1,0.1,0.1,0.2c0,0.1,0.1,0.2,0.1,0.3c0.2,0,0.4-0.1,0.6-0.1c0.3,0,0.6,0,0.8,0.1C18,2.9,14.3,0,9.9,0C4.4,0,0,4.5,0,9.9
		c0,5.5,4.4,9.9,9.9,9.9c2.9,0,5.6-1.3,7.4-3.3C15.2,16,13.6,14.1,13.6,11.8z M2.6,5.6C2.6,5.6,2.6,5.6,2.6,5.6
		C2.6,5.5,2.6,5.5,2.6,5.6L2.6,5.6z M13.3,2.6c-0.1,0.1,0,0.2-0.1,0.3c-0.2,0.1-0.4-0.1-0.5,0.1c-0.1,0.2,0.1,0.4,0,0.6
		c-0.1,0.2-0.3,0.2-0.6,0.2c-0.4,0-0.9-0.3-1.1-0.6C11,3,10.8,2.7,10.8,2.5c0.1-0.1,0.2,0,0.2-0.1C11.2,2.3,11,2.2,11,2.1
		c0,0.2-0.1,0.2-0.3,0.1c-0.2-0.1-0.1-0.3-0.2-0.5C10.4,1.6,10,1.7,9.8,1.6c-0.1,0-0.2-0.1-0.3-0.1C9.4,1.5,9.3,1.6,9.2,1.6
		C9.1,1.7,8.8,1.7,8.7,1.8C8.2,2.2,8.8,2.2,9,2.2c0.4,0.1,0.5,0.4,0.8,0.5c0.4,0.2,0.6-0.1,0.5,0.5c-0.2,0.1-0.4-0.1-0.6-0.2
		C9.9,3.3,10,3.5,9.9,3.7c-0.4,0.1-0.6,0-0.9-0.2C8.8,3.4,8.5,3.5,8.3,3.3c0-0.1,0-0.1,0-0.2c0.3,0,0.6,0,0.4-0.4
		c-0.5,0-0.6,0.2-0.9,0.5c0.8,0.3,0.1,0.5-0.3,0.5c-0.4,0-0.9-0.1-1.1,0.4C6.2,4.5,6.8,4.6,7.2,4.7c0.2,0.1,0.3,0,0.4,0.2
		C7.7,5,7.7,5.3,7.9,5.4C8,5.2,7.8,5,7.8,4.9C8,4.6,8.1,4.8,8.4,4.7C8.2,4.4,7.9,4.3,7.9,4C8,3.7,8.5,3.7,8.7,3.7
		c0.4,0,0.4,0.2,0.7,0.3c0.5,0.2,0.5-0.2,0.8,0.3c0.3,0.5,0.7,0.8,1.1,1.2c0.8,0.7-0.6,0.7-0.8,0.2c0.1,0,0.2-0.1,0.2-0.1
		c-0.3-0.1-0.9-0.1-1.3,0c0,0.1,0,0.1,0,0.2c0.3,0,0.4,0,0.6,0.1c0.1,0,0,0.2,0.1,0.3c0.1,0,0.3,0,0.4,0c0.1,0.5-1,0.3-1.3,0.5
		c0,0.1-0.1,0.2-0.1,0.3C8.6,6.8,8.6,7.4,8.4,7.8C8.2,8,7.9,8.2,7.7,8.5C7.6,8.6,7.5,8.7,7.5,8.9c0,0.3,0.4,0.1,0.4,0.4
		c0,0.5-0.7,0-0.8-0.3C6.4,8.9,5.6,8.8,5.4,9.5c-0.1,0.3,0,0.7,0.4,0.7c0.3,0,0.2-0.2,0.4-0.3c0.1,0,0.4,0,0.5,0
		c0.1,0.3,0.1,0.4,0.2,0.7c0.2,0.2,0.2,0.2,0.3,0.5c0.1,0.2,0.1,0.5,0.4,0.6c0.3,0.1,0.6-0.1,0.6,0.3c0.5,0,0.9,0,1.3,0.3
		c0.3,0.2,0.4,0.5,0.8,0.6c0.6,0.2,0.7,0.1,0.9,0.7c0.1,0.3-0.1,0.4,0.2,0.4c0.2,0,0.5-0.1,0.8-0.1c0.4,0,0.8,0.3,0.8,0.7
		c0,0.3-0.1,0.3-0.2,0.5c-0.1,0.2-0.1,0.5-0.3,0.8c-0.3,0.4-0.8,0.2-1.1,0.6c-0.1,0.1-0.1,0.4-0.2,0.5c-0.1,0.1-0.5,0.1-0.6,0.2
		c-0.2,0.2-0.1,0.3-0.3,0.5c-0.1,0.1-0.5,0.1-0.6,0.1c-0.3,0.1-0.4,0.4-0.6,0.5c-0.2,0-0.5-0.1-0.7-0.1c-0.4-0.5,0.2-1.7,0.1-2.2
		c-0.1-0.3-0.5-0.6-0.8-0.9c-0.2-0.3-0.6-0.6-0.7-1c-0.2-0.4-0.1-0.6,0.1-0.9c0.1-0.3,0.1-0.5,0.2-0.7c0-0.1,0.4-0.4,0.3-0.5
		c0,0,0,0,0,0c-0.2,0-0.5,0-0.7-0.1c-0.2-0.1-0.2-0.5-0.4-0.6c-0.4-0.3-1-0.1-1.4-0.4c-0.4-0.3-0.8-0.5-1-0.9C4,9.6,3.9,8.7,3.5,8.6
		c0,0.4-0.1,0.6,0.1,1c0.1,0.3,0.4,0.9-0.2,0.7c0-0.4,0-0.8-0.1-1.2C3.2,8.7,2.9,8.3,2.8,7.9c-0.1-0.4,0-0.8,0-1.2
		c0-0.4-0.1-0.8-0.2-1.2c0.3-0.4,0.6-0.9,0.9-1.2C3.7,4,4,3.8,4.3,3.6C4.7,3.5,5,3.3,5.4,3.2c0.4-0.1,0.8-0.1,1.2-0.1
		C6.5,2.9,6.3,2.6,6.8,2.7c0.3,0,0.4,0.3,0.7,0.2C7.3,2.7,6.9,2.4,7.3,2.3c0-0.2,0-0.3,0-0.5c0.1-0.1,0.2-0.1,0.3-0.1
		c0.5-0.1,1.1-0.2,1.6-0.3c0.1,0,0.1,0,0.2,0.1c0,0,0.1-0.1,0.1-0.1c0.1,0,0.2,0,0.3,0c1.2,0,2.3,0.2,3.3,0.7
		c0.1,0.1,0.1,0.2,0.2,0.2c0.1,0.1,0.5,0.2,0.1,0.2C13.5,2.5,13.4,2.5,13.3,2.6z"/>
	<polygon class="st0" points="17.6,6.9 17.6,6.9 17.6,6.9 	"/>
</g>
<path class="st0" d="M21.4,14.7c-1.6,1.6-4.3,1.6-5.9-0.1c-1.6-1.6-1.6-4.3,0.1-5.9c1.6-1.6,4.3-1.6,5.9,0.1
	C23.1,10.5,23,13.1,21.4,14.7 M23.9,15.8l-0.4-0.4L23,15.7l-0.5-0.5c1.8-2.1,1.7-5.2-0.2-7.2c-2.1-2.1-5.5-2.2-7.6-0.1
	c-2.1,2.1-2.2,5.5-0.1,7.6c2,2,5.1,2.2,7.2,0.4l0.5,0.5L22,16.8l0.4,0.4l-0.3,0.3l4.2,4.3l2-2l-4.2-4.3L23.9,15.8z"/>
<path class="st0" d="M17.9,12.1l-0.2-3.4l1.7,0l-0.2,3.4L17.9,12.1z M18.5,14.8c-0.6,0-0.9-0.4-0.9-1c0-0.6,0.4-1,1-1
	c0.6,0,0.9,0.4,0.9,1C19.5,14.4,19.1,14.8,18.5,14.8L18.5,14.8z"/>
</svg>
