<?xml version="1.0" encoding="utf-8"?>
<!-- Generator: Adobe Illustrator 26.0.1, SVG Export Plug-In . SVG Version: 6.00 Build 0)  -->
<svg version="1.1" id="Layer_1" xmlns="http://www.w3.org/2000/svg" xmlns:xlink="http://www.w3.org/1999/xlink" x="0px" y="0px"
	 viewBox="0 0 23.6 24.8" style="enable-background:new 0 0 23.6 24.8;" xml:space="preserve">
<style type="text/css">
	.st0{fill:#FFFFFF;}
</style>
<g id="Layer_2_00000114767387765181840090000002474300871634610363_">
	<g id="Layer_1-2">
		<path class="st0" d="M10.1,4.9L9.3,5.7L8.5,4.9L7.6,4L5.4,6.3c0.4,0.4,1.1,0.4,1.5,0l0.6-0.6l1.6,1.6l3.1-3.1c0.4-0.4,0.4-1,0-1.3
			c0,0,0,0,0,0L10.1,4.9z"/>
		<path class="st0" d="M12.8,22.7L12,23.5l-0.8-0.8l-0.9-0.9l-1.5,1.5c0.4,0.4,1,0.4,1.4,0l0.1-0.1l1.6,1.6l4-4
			c0.3-0.3,0.3-0.8,0-1.2c0,0,0,0,0,0L12.8,22.7z"/>
		<path class="st0" d="M17.7,16.5c-3.2,0-5.8-2.6-5.8-5.9s2.6-5.8,5.8-5.8c3.2,0,5.9,2.6,5.9,5.8C23.6,13.9,21,16.5,17.7,16.5z
			 M17.7,6C15.1,6,13,8.1,13,10.7c0,2.6,2.1,4.7,4.7,4.7c2.6,0,4.7-2.1,4.7-4.7c0,0,0,0,0,0C22.4,8.1,20.3,6,17.7,6z"/>
		<path class="st0" d="M15.7,17.9L15.7,17.9L12,21.5L10.5,20c-0.1-0.1-0.3-0.1-0.4,0l-3.4,3.4v-1c0-0.2-0.2-0.3-0.3-0.2
			c-0.1,0-0.2,0.1-0.2,0.2v1.7c0,0,0,0.1,0,0.1l0,0c0,0,0,0.1,0.1,0.1c0,0,0.1,0.1,0.1,0.1l0,0c0,0,0.1,0,0.1,0h1.7
			c0.2,0,0.3-0.1,0.3-0.3l0,0c0-0.2-0.1-0.3-0.3-0.3h-1l3.2-3.2l1.5,1.5c0.1,0.1,0.1,0.1,0.2,0.1c0.1,0,0.1,0,0.2-0.1l3.9-3.9
			c0.1-0.1,0.1-0.3,0-0.4S15.8,17.7,15.7,17.9L15.7,17.9"/>
		<path class="st0" d="M3.9,6.5L3.9,6.5l3.7-3.7l1.5,1.5c0.1,0.1,0.1,0.1,0.2,0.1c0.1,0,0.1,0,0.2-0.1L12.9,1v1
			c0,0.2,0.1,0.3,0.3,0.3c0.1,0,0.3-0.1,0.3-0.3c0,0,0,0,0,0V0.3c0,0,0-0.1,0-0.1l0,0c0,0,0-0.1-0.1-0.1c0,0-0.1-0.1-0.1-0.1l0,0
			h-0.1h-1.7c-0.2,0-0.3,0.1-0.3,0.3c0,0.2,0.1,0.3,0.3,0.3h1L9.3,3.8L7.8,2.2c-0.1-0.1-0.3-0.1-0.4,0c0,0,0,0,0,0L3.5,6.1
			c-0.1,0.1-0.1,0.3,0,0.4S3.8,6.6,3.9,6.5"/>
		<path class="st0" d="M4.4,14c0.1,0,0.2-0.1,0.2-0.2c0-0.1-0.1-0.2-0.2-0.2s-0.2,0.1-0.2,0.2C4.2,13.9,4.3,14,4.4,14"/>
		<path class="st0" d="M3.3,9.9c0.1,0,0.1,0,0.2-0.1c0,0,0.1-0.1,0.1-0.2c0-0.1,0-0.1-0.1-0.2c-0.1-0.1-0.2-0.1-0.3,0
			C3,9.5,3,9.6,3,9.7C3,9.8,3.1,9.9,3.3,9.9"/>
		<path class="st0" d="M3.9,11.7c0,0.1,0.1,0.2,0.2,0.2c0.1,0,0.2-0.1,0.2-0.2c0-0.1-0.1-0.2-0.2-0.2S3.9,11.6,3.9,11.7"/>
		<path class="st0" d="M5.3,14c0.1,0,0.2-0.1,0.2-0.2c0-0.1-0.1-0.2-0.2-0.2s-0.2,0.1-0.2,0.2l0,0C5.1,13.9,5.2,14,5.3,14"/>
		<path class="st0" d="M5.4,9.7c0-0.1-0.1-0.2-0.2-0.2C5.1,9.5,5,9.6,5,9.7c0,0.1,0.1,0.2,0.2,0.2C5.4,9.9,5.5,9.8,5.4,9.7"/>
		<path class="st0" d="M3.3,14c0.1,0,0.2-0.1,0.2-0.2c0-0.1,0-0.1-0.1-0.2c-0.1-0.1-0.2-0.1-0.3-0.1C3,13.6,3,13.8,3,13.9
			c0,0,0,0,0.1,0.1C3.1,14,3.2,14,3.3,14"/>
		<path class="st0" d="M4.8,11.7c0,0.1,0.1,0.2,0.2,0.2s0.2-0.1,0.2-0.2c0-0.1-0.1-0.2-0.2-0.2c0,0,0,0,0,0
			C4.9,11.5,4.8,11.6,4.8,11.7"/>
		<path class="st0" d="M3.3,11.9c0.1,0,0.1,0,0.2-0.1c0,0,0.1-0.1,0.1-0.2c0-0.1,0-0.1-0.1-0.2c-0.1-0.1-0.2-0.1-0.3,0
			c0,0-0.1,0.1-0.1,0.2c0,0.1,0,0.1,0.1,0.2C3.1,11.9,3.2,11.9,3.3,11.9"/>
		<path class="st0" d="M10.7,16c0-0.1-0.1-0.2-0.2-0.2h-9v-1.9h0.8c0.1,0,0.2-0.1,0.2-0.2c0-0.1-0.1-0.2-0.2-0.2H1.5v-1.6h0.8
			c0.1,0,0.2-0.1,0.2-0.2c0-0.1-0.1-0.2-0.2-0.2H1.5V9.9h0.8c0.1,0,0.2-0.1,0.2-0.2c0-0.1-0.1-0.2-0.2-0.2H1.5V8.5
			c0-0.1-0.1-0.2-0.2-0.2C1.1,8.3,1,8.4,1,8.5c0,0,0,0,0,0v0.9H0.2C0.1,9.4,0,9.5,0,9.7c0,0.1,0.1,0.2,0.2,0.2H1v1.6H0.2
			c-0.1,0-0.2,0.1-0.2,0.2c0,0.1,0.1,0.2,0.2,0.2H1v1.6H0.2c-0.1,0-0.2,0.1-0.2,0.2c0,0.1,0.1,0.2,0.2,0.2H1V16c0,0.1,0,0.1,0.1,0.2
			c0,0,0.1,0.1,0.2,0.1h9.2C10.6,16.2,10.7,16.1,10.7,16C10.7,16,10.7,16,10.7,16"/>
		<path class="st0" d="M4.5,9.7c0-0.1-0.1-0.2-0.2-0.2S4.1,9.5,4.1,9.7c0,0.1,0.1,0.2,0.2,0.2C4.4,9.9,4.5,9.8,4.5,9.7"/>
		<path class="st0" d="M6.2,14c0.1,0,0.2-0.1,0.2-0.2c0-0.1-0.1-0.2-0.2-0.2S6,13.6,6,13.8C6,13.9,6.1,14,6.2,14"/>
		<path class="st0" d="M10.1,9.5c-0.1-0.1-0.2-0.1-0.3,0c0,0-0.1,0.1-0.1,0.2c0,0.1,0,0.1,0.1,0.2c0.1,0.1,0.2,0.1,0.3,0
			c0,0,0.1-0.1,0.1-0.2C10.1,9.6,10.1,9.5,10.1,9.5"/>
		<path class="st0" d="M8.1,9.7c0-0.1-0.1-0.2-0.2-0.2S7.7,9.5,7.7,9.7c0,0.1,0.1,0.2,0.2,0.2C8,9.9,8.1,9.8,8.1,9.7"/>
		<path class="st0" d="M10.1,11.5c-0.1-0.1-0.2-0.1-0.3,0c0,0,0,0,0,0c0,0-0.1,0.1-0.1,0.2c0,0.1,0,0.1,0.1,0.2
			c0.1,0.1,0.2,0.1,0.3,0c0,0,0.1-0.1,0.1-0.2C10.1,11.6,10.1,11.6,10.1,11.5"/>
		<path class="st0" d="M9.8,13.6c-0.1,0.1-0.1,0.2-0.1,0.3C9.8,14,9.9,14,10,14c0,0,0,0,0.1-0.1c0.1-0.1,0.1-0.2,0.1-0.3
			C10.1,13.5,9.9,13.4,9.8,13.6C9.8,13.5,9.8,13.6,9.8,13.6"/>
		<path class="st0" d="M8.6,9.7c0,0.1,0.1,0.2,0.2,0.2C8.9,9.9,9,9.8,9,9.7c0-0.1-0.1-0.2-0.2-0.2S8.5,9.5,8.6,9.7"/>
		<path class="st0" d="M6.3,9.7c0-0.1-0.1-0.2-0.2-0.2S5.9,9.5,5.9,9.7c0,0.1,0.1,0.2,0.2,0.2C6.2,9.9,6.3,9.8,6.3,9.7"/>
		<path class="st0" d="M5.7,11.7c0,0.1,0.1,0.2,0.2,0.2s0.2-0.1,0.2-0.2s-0.1-0.2-0.2-0.2S5.7,11.6,5.7,11.7"/>
		<path class="st0" d="M6.6,11.7c0,0.1,0.1,0.2,0.2,0.2s0.2-0.1,0.2-0.2c0-0.1-0.1-0.2-0.2-0.2C6.7,11.5,6.6,11.6,6.6,11.7"/>
		<path class="st0" d="M7.2,9.7c0-0.1-0.1-0.2-0.2-0.2c-0.1,0-0.2,0.1-0.2,0.2c0,0.1,0.1,0.2,0.2,0.2C7.1,9.9,7.2,9.8,7.2,9.7"/>
		<path class="st0" d="M7.5,11.7c0,0.1,0.1,0.2,0.2,0.2c0.1,0,0.2-0.1,0.3-0.2c0,0,0,0,0,0c0-0.1-0.1-0.2-0.2-0.2
			C7.6,11.5,7.5,11.6,7.5,11.7"/>
		<path class="st0" d="M16.1,13.1c0.2,0.2,0.4,0.3,0.6,0.4c0.3,0.1,0.5,0.2,0.8,0.2v0.5c0,0.1,0,0.2,0.1,0.3c0,0.1,0.1,0.1,0.2,0.1
			c0.1,0,0.2,0,0.2-0.1c0-0.1,0.1-0.2,0-0.4v-0.4c0.4,0,0.7-0.1,1-0.3c0.3-0.2,0.5-0.4,0.6-0.7c0.1-0.3,0.2-0.6,0.2-0.9
			c0-0.2,0-0.5-0.1-0.7c-0.1-0.2-0.2-0.4-0.4-0.5c-0.2-0.1-0.3-0.3-0.5-0.3c-0.2-0.1-0.5-0.2-0.8-0.2V8.4c0.3,0.1,0.6,0.4,0.6,0.7
			c0,0.3,0.3,0.4,0.5,0.4c0.1,0,0.3-0.1,0.4-0.1c0.1-0.1,0.1-0.2,0.1-0.3c0-0.1,0-0.3-0.1-0.4c-0.1-0.2-0.2-0.3-0.3-0.4
			C19.2,8,19,7.9,18.8,7.8c-0.2-0.1-0.5-0.2-0.8-0.2V7.1c0-0.2-0.1-0.3-0.3-0.3s-0.2,0.1-0.2,0.3v0.4c-0.5,0-0.9,0.2-1.3,0.5
			c-0.3,0.3-0.5,0.7-0.4,1.1c0,0.3,0.1,0.6,0.2,0.9c0.1,0.2,0.3,0.4,0.6,0.5c0.3,0.1,0.6,0.3,0.9,0.3v1.9c-0.2,0-0.3-0.1-0.4-0.2
			c-0.1-0.1-0.2-0.2-0.2-0.3c0-0.1-0.1-0.3-0.2-0.5c0-0.1-0.1-0.2-0.2-0.2c-0.1-0.1-0.2-0.1-0.3-0.1c-0.1,0-0.3,0.1-0.4,0.2
			c-0.1,0.1-0.1,0.2-0.1,0.4c0,0.2,0,0.4,0.1,0.5C15.8,12.7,15.9,12.9,16.1,13.1z M18.1,11.1c0.2,0.1,0.5,0.2,0.6,0.3
			c0.1,0.1,0.2,0.3,0.2,0.6c0,0.2-0.1,0.4-0.2,0.6c-0.2,0.2-0.4,0.3-0.6,0.3V11.1z M16.9,9.6c-0.1-0.1-0.2-0.3-0.2-0.5
			c0-0.2,0.1-0.4,0.2-0.5c0.2-0.1,0.3-0.2,0.5-0.3v1.6C17.3,9.9,17.1,9.8,16.9,9.6z"/>
	</g>
</g>
</svg>
