<?xml version="1.0" encoding="utf-8"?>
<!-- Generator: Adobe Illustrator 26.0.1, SVG Export Plug-In . SVG Version: 6.00 Build 0)  -->
<svg version="1.1" id="Layer_3" xmlns="http://www.w3.org/2000/svg" xmlns:xlink="http://www.w3.org/1999/xlink" x="0px" y="0px"
	 viewBox="0 0 250 250" style="enable-background:new 0 0 250 250;" xml:space="preserve">
<style type="text/css">
	.st0{fill:#4D4D4F;}
	.st1{fill:none;stroke:#BCBEC0;stroke-width:0.5;}
	.st2{fill:#5C5B59;}
	.st3{fill:#B19E4E;}
</style>
<g>
	<path class="st0" d="M89.9,209.5h0.6l1.3,3.6c0.2,0.4,0.2,0.7,0.3,1l0,0c0.1-0.3,0.2-0.5,0.3-1l1.3-3.6h0.6l0.7,5.3h-0.6l-0.5-3.5
		c0-0.4-0.1-0.6-0.1-0.7l0,0c-0.1,0.2-0.1,0.4-0.2,0.7l-1.3,3.5h-0.6l-1.3-3.5c-0.1-0.3-0.2-0.6-0.3-0.7l0,0c0,0.2,0,0.4-0.1,0.8
		l-0.4,3.5H89L89.9,209.5z"/>
	<path class="st0" d="M95.9,212.9c0-0.9,0.5-2,1.8-2s1.8,1.1,1.8,2s-0.5,2-1.8,2S95.9,213.8,95.9,212.9z M98.9,212.9
		c0-0.8-0.4-1.5-1.2-1.5c-0.8,0-1.1,0.7-1.1,1.5s0.4,1.5,1.2,1.5C98.5,214.4,98.9,213.7,98.9,212.9z"/>
	<path class="st0" d="M100.2,212.9c0-1.2,0.7-2,1.7-2c0.4,0,0.7,0.1,1,0.3V209h0.6v5c0,0.3,0,0.6,0.1,0.8H103c0-0.1-0.1-0.3-0.1-0.4
		c-0.3,0.3-0.6,0.5-1.1,0.5C100.9,214.9,100.2,214.2,100.2,212.9z M102.9,213.8v-2.1c-0.2-0.2-0.5-0.4-0.9-0.4
		c-0.7,0-1.1,0.6-1.1,1.5s0.3,1.5,1.1,1.5C102.3,214.4,102.7,214.2,102.9,213.8z"/>
	<path class="st0" d="M104.7,209.8c0-0.2,0.2-0.4,0.4-0.4s0.4,0.2,0.4,0.4s-0.2,0.4-0.4,0.4S104.7,210,104.7,209.8z M104.9,210.9
		h0.6v3.8h-0.6V210.9z"/>
	<path class="st0" d="M107.1,211.4h-0.6v-0.5h0.6v-0.5c0-0.9,0.5-1.5,1.5-1.5c0.7,0,1,0.2,1.2,0.4l-0.3,0.5c-0.2-0.1-0.5-0.3-1-0.3
		c-0.6,0-0.9,0.4-0.9,1v0.5h2.2v3.8h-0.6v-3.4h-1.6v3.4H107L107.1,211.4L107.1,211.4z"/>
	<path class="st0" d="M111,212.8c0-1.1,0.7-2,1.7-2s1.5,0.7,1.5,1.7c0,0.1,0,0.2,0,0.3h-2.6c0,0.8,0.3,1.5,1.2,1.5
		c0.5,0,0.9-0.2,1.1-0.3l0.2,0.5c-0.2,0.1-0.6,0.4-1.3,0.4C111.6,214.9,111,214,111,212.8z M113.6,212.4c0-0.5-0.3-1-0.9-1
		s-1,0.4-1.1,1H113.6z"/>
	<path class="st0" d="M115,212.9c0-1.2,0.7-2,1.7-2c0.4,0,0.7,0.1,1,0.3V209h0.6v5c0,0.3,0,0.6,0.1,0.8h-0.6c0-0.1-0.1-0.3-0.1-0.4
		c-0.3,0.3-0.6,0.5-1.1,0.5C115.6,214.9,115,214.2,115,212.9z M117.6,213.8v-2.1c-0.2-0.2-0.5-0.4-0.9-0.4c-0.7,0-1.1,0.6-1.1,1.5
		s0.3,1.5,1.1,1.5C117,214.4,117.4,214.2,117.6,213.8z"/>
	<path class="st0" d="M121.5,209.5h1.2c2.1,0,3,1.1,3,2.6s-0.9,2.7-3.1,2.7h-1.2L121.5,209.5L121.5,209.5z M122.8,214.3
		c1.5,0,2.3-0.8,2.3-2.2s-0.8-2.1-2.4-2.1h-0.6v4.3H122.8z"/>
	<path class="st0" d="M126.9,213.7V211h0.6v2.6c0,0.5,0.2,0.8,0.7,0.8c0.6,0,1-0.6,1.1-0.7V211h0.6v3c0,0.3,0,0.7,0.1,0.8h-0.6
		c0-0.1,0-0.4-0.1-0.6c-0.2,0.2-0.6,0.7-1.2,0.7C127.2,214.9,126.9,214.3,126.9,213.7z"/>
	<path class="st0" d="M131.2,210.9h0.6v0.6c0.2-0.3,0.5-0.7,1-0.7c0.2,0,0.4,0.1,0.4,0.1l-0.1,0.6c0,0-0.1-0.1-0.3-0.1
		c-0.6,0-0.9,0.7-0.9,0.8v2.6h-0.6L131.2,210.9L131.2,210.9z"/>
	<path class="st0" d="M133.8,213.9c0-1,1.1-1.3,2-1.3h0.2v-0.4c0-0.6-0.2-0.8-0.8-0.8c-0.4,0-0.7,0.1-1,0.4l-0.3-0.4
		c0.4-0.4,0.8-0.5,1.4-0.5c0.8,0,1.3,0.4,1.3,1.3v1.8c0,0.4,0,0.7,0.1,0.9h-0.6c0-0.1,0-0.3-0.1-0.5c-0.3,0.3-0.7,0.6-1.2,0.6
		C134.2,214.9,133.8,214.5,133.8,213.9z M136,213.8V213h-0.2c-0.8,0-1.4,0.2-1.4,0.9c0,0.4,0.3,0.5,0.6,0.5
		C135.4,214.4,135.7,214.2,136,213.8z"/>
	<path class="st0" d="M138.1,213.9v-2.5h-0.6v-0.5h0.6v-1.1h0.6v1.1h1v0.5h-1v2.4c0,0.4,0.1,0.6,0.4,0.6c0.2,0,0.5-0.1,0.5-0.2
		l0.2,0.4c-0.1,0.1-0.4,0.2-0.8,0.2C138.4,214.9,138.1,214.5,138.1,213.9z"/>
	<path class="st0" d="M140.7,209.8c0-0.2,0.2-0.4,0.4-0.4s0.4,0.2,0.4,0.4s-0.2,0.4-0.4,0.4S140.7,210,140.7,209.8z M140.8,210.9
		h0.6v3.8h-0.6V210.9z"/>
	<path class="st0" d="M142.5,212.9c0-0.9,0.5-2,1.8-2s1.8,1.1,1.8,2s-0.5,2-1.8,2S142.5,213.8,142.5,212.9z M145.5,212.9
		c0-0.8-0.4-1.5-1.2-1.5s-1.1,0.7-1.1,1.5s0.4,1.5,1.2,1.5C145.1,214.4,145.5,213.7,145.5,212.9z"/>
	<path class="st0" d="M147.1,210.9h0.6v0.6c0.3-0.4,0.8-0.6,1.2-0.6c0.8,0,1.1,0.5,1.1,1.2v2.7h-0.6v-2.6c0-0.5-0.2-0.8-0.7-0.8
		c-0.4,0-0.8,0.3-1.1,0.7v2.7H147v-3.9L147.1,210.9L147.1,210.9z"/>
	<path class="st0" d="M153.1,212.5c0-1.3,0.6-2.6,1.4-3.5h0.6c-0.7,0.7-1.4,1.9-1.4,3.5c0,1.5,0.5,2.7,1.4,3.7h-0.6
		C153.7,215.2,153.1,213.9,153.1,212.5z"/>
	<path class="st0" d="M157.2,212.8l-1.8-3.3h0.7l1.4,2.7l0,0l1.4-2.7h0.6l-1.7,3.3v2h-0.6L157.2,212.8L157.2,212.8z"/>
	<path class="st0" d="M159.5,212.8c0-1.1,0.7-2,1.7-2s1.5,0.7,1.5,1.7c0,0.1,0,0.2,0,0.3h-2.6c0,0.8,0.3,1.5,1.2,1.5
		c0.5,0,0.9-0.2,1.1-0.3l0.2,0.5c-0.2,0.1-0.6,0.4-1.3,0.4C160.2,214.9,159.5,214,159.5,212.8z M162.2,212.4c0-0.5-0.3-1-0.9-1
		c-0.6,0-1,0.4-1.1,1H162.2z"/>
	<path class="st0" d="M163.6,213.9c0-1,1.1-1.3,2-1.3h0.2v-0.4c0-0.6-0.2-0.8-0.8-0.8c-0.4,0-0.7,0.1-1,0.4l-0.3-0.4
		c0.4-0.4,0.8-0.5,1.4-0.5c0.8,0,1.3,0.4,1.3,1.3v1.8c0,0.4,0,0.7,0.1,0.9h-0.6c0-0.1,0-0.3-0.1-0.5c-0.3,0.3-0.7,0.6-1.2,0.6
		C164,214.9,163.6,214.5,163.6,213.9z M165.8,213.8V213h-0.2c-0.8,0-1.4,0.2-1.4,0.9c0,0.4,0.3,0.5,0.6,0.5
		C165.2,214.4,165.5,214.2,165.8,213.8z"/>
	<path class="st0" d="M167.7,210.9h0.6v0.6c0.2-0.3,0.5-0.7,1-0.7c0.2,0,0.4,0.1,0.4,0.1l-0.1,0.6c0,0-0.1-0.1-0.3-0.1
		c-0.6,0-0.9,0.7-0.9,0.8v2.6h-0.6L167.7,210.9L167.7,210.9z"/>
	<path class="st0" d="M170.3,214.5l0.3-0.4c0.1,0.1,0.5,0.3,1,0.3s0.8-0.2,0.8-0.6c0-0.4-0.3-0.5-0.8-0.7c-0.6-0.3-1.1-0.5-1.1-1.2
		c0-0.6,0.4-1.1,1.2-1.1c0.6,0,1,0.3,1.1,0.4l-0.3,0.4c-0.1-0.1-0.4-0.3-0.9-0.3c-0.4,0-0.6,0.2-0.6,0.5c0,0.4,0.3,0.5,0.7,0.7
		c0.6,0.3,1.2,0.5,1.2,1.2s-0.5,1.1-1.4,1.1C170.9,214.9,170.5,214.7,170.3,214.5z"/>
	<path class="st0" d="M174.7,212.7c0-1.5-0.5-2.7-1.4-3.7h0.6c0.9,1,1.4,2.3,1.4,3.7s-0.6,2.6-1.4,3.5h-0.6
		C174,215.5,174.7,214.3,174.7,212.7z"/>
</g>
<line class="st1" x1="28.9" y1="193.2" x2="239.1" y2="193.2"/>
<path class="st0" d="M12.7,16.1l-1,0.3L11.5,16l1.3-0.4h0.5v5.3h-0.6V16.1z M14.5,20.9l0.1-0.5c0.1,0,0.2,0,0.5,0
	c0.9,0,1.7-0.4,1.7-1.3s-0.7-1.2-1.6-1.2c-0.2,0-0.4,0-0.4,0l0.2-2.5h2.4v0.5h-1.8l-0.1,1.4c1.3,0,2,0.6,2,1.6c0,1.2-1,1.8-2.4,1.8
	C14.7,21,14.6,21,14.5,20.9z M18.2,20.5c0-0.3,0.2-0.5,0.5-0.5s0.5,0.2,0.5,0.5S18.9,21,18.7,21S18.2,20.7,18.2,20.5z M20,18.2
	c0-1.3,0.5-2.8,2-2.8c1.4,0,2,1.4,2,2.8S23.5,21,22,21C20.6,21,20,19.5,20,18.2z M23.4,18.2C23.4,17,23,16,22,16s-1.4,1-1.4,2.3
	s0.4,2.3,1.4,2.3C23,20.5,23.4,19.5,23.4,18.2z"/>
<path class="st0" d="M12.4,50.1l-1,0.3L11.2,50l1.3-0.4H13v5.3h-0.6V50.1z M14.1,54.6c0.9-0.9,2.5-2.4,2.5-3.6c0-0.7-0.4-1-0.9-1
	c-0.6,0-0.9,0.3-1.2,0.5l-0.3-0.4c0.3-0.4,0.8-0.7,1.5-0.7c0.9,0,1.6,0.5,1.6,1.4c0,1.2-1.3,2.5-2.3,3.5c0,0,0.3,0,0.6,0h1.8v0.5
	h-3.3C14.1,54.8,14.1,54.6,14.1,54.6z M18.2,54.5c0-0.3,0.2-0.5,0.5-0.5s0.5,0.2,0.5,0.5S19,55,18.7,55S18.2,54.8,18.2,54.5z
	 M20,52.2c0-1.3,0.5-2.8,2-2.8c1.4,0,2,1.4,2,2.8S23.5,55,22,55C20.6,55,20,53.6,20,52.2z M23.4,52.2C23.4,51,23,50,22,50
	s-1.4,1-1.4,2.3s0.4,2.3,1.4,2.3C23,54.5,23.4,53.5,23.4,52.2z"/>
<path class="st0" d="M14.2,90c0.8,0,1.5-0.2,1.9-0.8c0.3-0.4,0.5-0.8,0.6-1.5c-0.3,0.3-0.7,0.5-1.2,0.5c-1,0-1.6-0.7-1.6-1.6
	s0.6-1.7,1.7-1.7c1.3,0,1.8,1.2,1.8,2.3c0,2-1,3.3-3,3.3L14.2,90z M16.7,87.3L16.7,87.3c0-1.2-0.4-1.9-1.2-1.9c-0.7,0-1,0.6-1,1.2
	c0,0.8,0.4,1.2,1.1,1.2C16.1,87.7,16.4,87.6,16.7,87.3z M18.2,89.9c0-0.3,0.2-0.5,0.5-0.5s0.5,0.2,0.5,0.5s-0.2,0.5-0.5,0.5
	S18.2,90.2,18.2,89.9z M20,87.7c0-1.3,0.5-2.8,2-2.8c1.4,0,2,1.4,2,2.8s-0.6,2.8-2,2.8C20.6,90.4,20,89,20,87.7z M23.4,87.7
	c0-1.3-0.4-2.3-1.4-2.3s-1.4,1-1.4,2.3S21,90,22,90C23,89.9,23.4,88.9,23.4,87.7z"/>
<path class="st0" d="M14,122.9c0-2,1.2-3.3,3.1-3.3l0.1,0.5c-0.8,0-1.4,0.2-1.9,0.6c-0.4,0.4-0.6,0.9-0.7,1.6
	c0.3-0.3,0.7-0.5,1.2-0.5c1,0,1.6,0.7,1.6,1.6s-0.6,1.7-1.7,1.7C14.5,125.2,14,124,14,122.9z M16.8,123.5c0-0.8-0.4-1.2-1.1-1.2
	c-0.5,0-0.8,0.2-1.1,0.5v0.1c0,1.1,0.4,1.8,1.2,1.8C16.5,124.7,16.8,124.1,16.8,123.5z M18.2,124.6c0-0.3,0.2-0.5,0.5-0.5
	s0.5,0.2,0.5,0.5s-0.2,0.5-0.5,0.5S18.2,124.9,18.2,124.6z M20,122.4c0-1.3,0.5-2.8,2-2.8c1.4,0,2,1.4,2,2.8s-0.6,2.8-2,2.8
	C20.6,125.2,20,123.7,20,122.4z M23.4,122.4c0-1.3-0.4-2.3-1.4-2.3s-1.4,1-1.4,2.3s0.4,2.3,1.4,2.3C23,124.7,23.4,123.7,23.4,122.4z
	"/>
<path class="st0" d="M14.3,160.5l0.1-0.5c0.1,0,0.3,0.1,0.7,0.1c1,0,1.5-0.4,1.5-1.1c0-0.8-0.7-1.1-1.7-1.1v-0.4
	c0.8,0,1.6-0.4,1.6-1.1c0-0.4-0.3-0.7-0.9-0.7c-0.5,0-0.8,0.2-1.1,0.4l-0.3-0.4c0.3-0.2,0.8-0.5,1.4-0.5c1,0,1.5,0.5,1.5,1.2
	s-0.6,1.1-1.2,1.3l0,0c0.7,0.1,1.3,0.6,1.3,1.4c0,1.1-0.9,1.7-2.1,1.7C14.7,160.6,14.4,160.5,14.3,160.5z M18.2,160.1
	c0-0.3,0.2-0.5,0.5-0.5s0.5,0.2,0.5,0.5s-0.2,0.5-0.5,0.5S18.2,160.4,18.2,160.1z M20,157.8c0-1.3,0.5-2.8,2-2.8c1.4,0,2,1.4,2,2.8
	s-0.6,2.8-2,2.8S20,159.1,20,157.8z M23.4,157.8c0-1.3-0.4-2.3-1.4-2.3s-1.4,1-1.4,2.3s0.4,2.3,1.4,2.3S23.4,159.1,23.4,157.8z"/>
<path class="st0" d="M13.3,193.3c0-1.3,0.5-2.8,2-2.8c1.4,0,2,1.4,2,2.8s-0.6,2.8-2,2.8C13.9,196,13.3,194.6,13.3,193.3z
	 M16.7,193.3c0-1.3-0.4-2.3-1.4-2.3s-1.4,1-1.4,2.3s0.4,2.3,1.4,2.3C16.3,195.5,16.7,194.5,16.7,193.3z M18.2,195.5
	c0-0.3,0.2-0.5,0.5-0.5s0.5,0.2,0.5,0.5S19,196,18.7,196S18.2,195.8,18.2,195.5z M20,193.3c0-1.3,0.5-2.8,2-2.8c1.4,0,2,1.4,2,2.8
	s-0.6,2.8-2,2.8C20.6,196,20,194.6,20,193.3z M23.4,193.3c0-1.3-0.4-2.3-1.4-2.3s-1.4,1-1.4,2.3s0.4,2.3,1.4,2.3
	C23,195.5,23.4,194.5,23.4,193.3z"/>
<path class="st0" d="M26.9,200.9c0-1.3,0.5-2.8,2-2.8c1.4,0,2,1.4,2,2.8s-0.6,2.8-2,2.8C27.4,203.7,26.9,202.3,26.9,200.9z
	 M30.2,200.9c0-1.3-0.4-2.3-1.4-2.3s-1.4,1-1.4,2.3s0.4,2.3,1.4,2.3C29.8,203.2,30.2,202.2,30.2,200.9z"/>
<path class="st0" d="M69.2,203.3c0.9-0.9,2.5-2.4,2.5-3.6c0-0.7-0.4-1-0.9-1c-0.6,0-0.9,0.3-1.2,0.5l-0.3-0.4
	c0.3-0.4,0.8-0.7,1.5-0.7c0.9,0,1.6,0.5,1.6,1.4c0,1.2-1.3,2.5-2.3,3.5c0,0,0.3,0,0.6,0h1.8v0.5h-3.3
	C69.2,203.5,69.2,203.3,69.2,203.3z"/>
<polygon class="st0" points="49.9,198.8 48.8,199.2 48.7,198.7 50,198.3 50.5,198.3 50.5,203.6 49.9,203.6 "/>
<path class="st0" d="M113.5,202.4H111v-0.5l2.4-3.6h0.6v3.6h0.8v0.5H114v1.2h-0.6L113.5,202.4L113.5,202.4z M112.3,201.9h1.2v-2.7
	l0,0l-1.8,2.8C111.8,201.9,112.1,201.9,112.3,201.9z"/>
<path class="st0" d="M90.4,203.6l0.1-0.5c0.1,0,0.3,0.1,0.7,0.1c1,0,1.5-0.4,1.5-1.1c0-0.8-0.7-1.1-1.7-1.1v-0.4
	c0.8,0,1.6-0.4,1.6-1.1c0-0.4-0.3-0.7-0.9-0.7c-0.5,0-0.8,0.2-1.1,0.4l-0.3-0.4c0.3-0.2,0.8-0.5,1.4-0.5c1,0,1.5,0.5,1.5,1.2
	s-0.6,1.1-1.2,1.3l0,0c0.7,0.1,1.3,0.6,1.3,1.4c0,1.1-0.9,1.7-2.1,1.7C90.8,203.7,90.5,203.7,90.4,203.6z"/>
<path class="st0" d="M153.3,201.4c0-2,1.2-3.3,3.1-3.3l0.1,0.5c-0.8,0-1.4,0.2-1.9,0.6c-0.4,0.4-0.6,0.9-0.7,1.6
	c0.3-0.3,0.7-0.5,1.2-0.5c1,0,1.6,0.7,1.6,1.6s-0.6,1.7-1.7,1.7C153.8,203.7,153.3,202.5,153.3,201.4z M156.1,202
	c0-0.8-0.4-1.2-1.1-1.2c-0.5,0-0.8,0.2-1.1,0.5v0.1c0,1.1,0.4,1.8,1.2,1.8C155.8,203.2,156.1,202.6,156.1,202z"/>
<path class="st0" d="M132.5,203.7l0.1-0.5c0.1,0,0.2,0,0.5,0c0.9,0,1.7-0.4,1.7-1.3c0-0.9-0.7-1.2-1.6-1.2c-0.2,0-0.4,0-0.4,0
	l0.2-2.5h2.4v0.5h-1.8l-0.1,1.4c1.3,0,2,0.6,2,1.6c0,1.2-1,1.8-2.4,1.8C132.8,203.7,132.6,203.7,132.5,203.7z"/>
<path class="st0" d="M195.4,202.3c0-0.7,0.7-1.2,1.1-1.5c-0.5-0.3-1-0.7-1-1.3c0-0.8,0.7-1.3,1.5-1.3c0.9,0,1.5,0.5,1.5,1.3
	c0,0.7-0.6,1-1.1,1.3c0.5,0.3,1.2,0.7,1.2,1.5s-0.6,1.4-1.6,1.4C195.9,203.7,195.4,203,195.4,202.3z M198,202.3c0-0.6-0.6-1-1.1-1.2
	c-0.4,0.2-0.9,0.6-0.9,1.2c0,0.5,0.3,0.9,1,0.9C197.6,203.2,198,202.8,198,202.3z M197.9,199.5c0-0.4-0.3-0.8-0.8-0.8
	s-0.9,0.3-0.9,0.8s0.5,0.8,0.9,1C197.4,200.3,197.9,200,197.9,199.5z"/>
<polygon class="st0" points="174.9,203.6 176.8,198.8 174.4,198.8 174.4,198.3 177.4,198.3 177.4,198.7 175.5,203.8 "/>
<path class="st0" d="M216.6,203.3c0.8,0,1.5-0.2,1.9-0.8c0.3-0.4,0.5-0.8,0.6-1.5c-0.3,0.3-0.7,0.5-1.2,0.5c-1,0-1.6-0.7-1.6-1.6
	s0.6-1.7,1.7-1.7c1.3,0,1.8,1.2,1.8,2.3c0,2-1,3.3-3,3.3L216.6,203.3z M219.1,200.6v-0.1c0-1.1-0.4-1.8-1.2-1.8c-0.7,0-1,0.6-1,1.2
	c0,0.8,0.4,1.2,1.1,1.2C218.5,201,218.8,200.9,219.1,200.6z"/>
<path class="st0" d="M236.6,198.8l-1,0.3l-0.1-0.5l1.3-0.4h0.5v5.3h-0.6L236.6,198.8L236.6,198.8z M238.5,200.9c0-1.3,0.5-2.8,2-2.8
	c1.4,0,2,1.4,2,2.8s-0.6,2.8-2,2.8C239,203.7,238.5,202.3,238.5,200.9z M241.8,200.9c0-1.3-0.4-2.3-1.4-2.3s-1.4,1-1.4,2.3
	s0.4,2.3,1.4,2.3C241.4,203.2,241.8,202.2,241.8,200.9z"/>
<line class="st1" x1="28.9" y1="193.1" x2="28.9" y2="17.7"/>
<line class="st1" x1="70.9" y1="196.3" x2="70.9" y2="193.1"/>
<line class="st1" x1="28.9" y1="196.3" x2="28.9" y2="193.1"/>
<line class="st1" x1="112.9" y1="196.3" x2="112.9" y2="193.1"/>
<line class="st1" x1="155" y1="196.3" x2="155" y2="193.1"/>
<line class="st1" x1="197" y1="196.3" x2="197" y2="193.1"/>
<line class="st1" x1="239" y1="196.3" x2="239" y2="17.7"/>
<line class="st1" x1="25.6" y1="17.8" x2="238.9" y2="17.8"/>
<line class="st1" x1="25.6" y1="52.3" x2="28.8" y2="52.3"/>
<line class="st1" x1="25.6" y1="88" x2="28.8" y2="88"/>
<line class="st1" x1="25.6" y1="123" x2="28.8" y2="123"/>
<line class="st1" x1="25.6" y1="158.3" x2="28.8" y2="158.3"/>
<line class="st1" x1="25.6" y1="193.2" x2="28.8" y2="193.2"/>
<rect x="95.1" y="45.1" transform="matrix(0.7071 -0.7071 0.7071 0.7071 -5.2056 83.3271)" class="st2" width="5.7" height="5.7"/>
<rect x="147.2" y="98.4" transform="matrix(0.7071 -0.7071 0.7071 0.7071 -27.6509 135.7751)" class="st2" width="5.7" height="5.7"/>
<rect x="117.1" y="134.3" transform="matrix(0.7071 -0.7071 0.7071 0.7071 -61.8726 124.9731)" class="st2" width="5.7" height="5.7"/>
<rect x="154.4" y="161.9" transform="matrix(0.7071 -0.7071 0.7071 0.7071 -70.426 159.4735)" class="st3" width="5.7" height="5.7"/>
<rect x="194.3" y="159.2" transform="matrix(0.7071 -0.7071 0.7071 0.7071 -56.8455 186.8519)" class="st3" width="5.7" height="5.7"/>
<rect x="209.9" y="163.8" transform="matrix(0.7071 -0.7071 0.7071 0.7071 -55.5242 199.2288)" class="st3" width="5.7" height="5.7"/>
<g>
	<path class="st0" d="M86.8,54.9h0.6l2,5.3h-0.7l-0.5-1.3h-2.4l-0.5,1.3h-0.6L86.8,54.9z M88.1,58.4l-0.7-1.8
		c-0.2-0.4-0.2-0.7-0.3-0.9l0,0c-0.1,0.3-0.2,0.5-0.3,0.9l-0.7,1.8H88.1z"/>
	<path class="st0" d="M90,60l0.3-0.4c0.1,0.1,0.5,0.3,1,0.3s0.8-0.2,0.8-0.6c0-0.4-0.3-0.5-0.8-0.7c-0.6-0.3-1.1-0.5-1.1-1.2
		c0-0.6,0.4-1.1,1.2-1.1c0.6,0,1,0.3,1.1,0.4l-0.3,0.4c-0.1-0.1-0.4-0.3-0.9-0.3c-0.4,0-0.6,0.2-0.6,0.5c0,0.4,0.3,0.5,0.7,0.7
		c0.6,0.3,1.2,0.5,1.2,1.2s-0.5,1.1-1.4,1.1C90.7,60.3,90.3,60.1,90,60z"/>
	<path class="st0" d="M93.6,55.2c0-0.2,0.2-0.4,0.4-0.4s0.4,0.2,0.4,0.4s-0.2,0.4-0.4,0.4S93.6,55.5,93.6,55.2z M93.8,56.4h0.6v3.8
		h-0.6V56.4z"/>
	<path class="st0" d="M95.5,59.3c0-1,1.1-1.3,2-1.3h0.2v-0.4c0-0.6-0.2-0.8-0.8-0.8c-0.4,0-0.7,0.1-1,0.4l-0.3-0.4
		c0.4-0.4,0.8-0.5,1.4-0.5c0.8,0,1.3,0.4,1.3,1.3v1.8c0,0.4,0,0.7,0.1,0.9h-0.6c0-0.1,0-0.3-0.1-0.5c-0.3,0.3-0.7,0.6-1.2,0.6
		C95.9,60.3,95.5,59.9,95.5,59.3z M97.7,59.3v-0.9h-0.2c-0.8,0-1.4,0.2-1.4,0.9c0,0.4,0.3,0.5,0.6,0.5
		C97.1,59.8,97.4,59.6,97.7,59.3z"/>
	<path class="st0" d="M101.6,54.9h0.6v2.3h3v-2.3h0.6v5.3h-0.6v-2.5h-3v2.5h-0.6V54.9z"/>
	<path class="st0" d="M108.7,58.2l-1.8-3.3h0.7l1.4,2.7l0,0l1.4-2.7h0.6l-1.7,3.3v2h-0.6V58.2z"/>
</g>
<g>
	<path class="st0" d="M139.2,88.7h2.7v0.5h-2.1v1.7h1.9v0.5h-1.9v2h2.2V94h-2.8L139.2,88.7L139.2,88.7z"/>
	<path class="st0" d="M143.7,88.7h0.6l1.3,3.6c0.2,0.4,0.2,0.7,0.3,1l0,0c0.1-0.3,0.2-0.5,0.3-1l1.3-3.6h0.6l0.7,5.3h-0.6l-0.5-3.5
		c0-0.4-0.1-0.6-0.1-0.7l0,0c-0.1,0.2-0.1,0.4-0.2,0.7l-1.3,3.5h-0.6l-1.3-3.5c-0.1-0.3-0.2-0.6-0.3-0.7l0,0c0,0.2,0,0.4-0.1,0.8
		l-0.4,3.5H143L143.7,88.7z"/>
	<path class="st0" d="M152.1,88.7h0.6V91h3v-2.3h0.6V94h-0.6v-2.5h-3V94h-0.6V88.7z"/>
	<path class="st0" d="M159.1,92l-1.8-3.3h0.7l1.4,2.7l0,0l1.4-2.7h0.6l-1.7,3.3v2h-0.6L159.1,92L159.1,92z"/>
</g>
<g>
	<path class="st0" d="M107.6,128v-3.3h0.6v3.3c0,1.1,0.5,1.6,1.5,1.6s1.4-0.6,1.4-1.5v-3.4h0.6v3.3c0,1.3-0.6,2.1-2,2.1
		C108.2,130.1,107.6,129.3,107.6,128z"/>
	<path class="st0" d="M112.8,129.6c0-0.3,0.2-0.5,0.5-0.5s0.5,0.2,0.5,0.5s-0.2,0.5-0.5,0.5S112.8,129.9,112.8,129.6z"/>
	<path class="st0" d="M118.5,129.6c0-0.3,0.2-0.5,0.5-0.5s0.5,0.2,0.5,0.5s-0.2,0.5-0.5,0.5S118.5,129.9,118.5,129.6z"/>
	<path class="st0" d="M114.6,129.6l0.3-0.4c0.1,0.1,0.5,0.5,1.2,0.5s1.1-0.4,1.1-0.9c0-0.6-0.6-0.9-1.2-1.2
		c-0.6-0.3-1.2-0.7-1.2-1.5c0-0.9,0.7-1.4,1.6-1.4c0.8,0,1.2,0.3,1.4,0.4l-0.3,0.5c-0.2-0.1-0.5-0.4-1.1-0.4c-0.5,0-0.9,0.3-0.9,0.8
		s0.4,0.8,1,1c0.7,0.3,1.5,0.7,1.5,1.7c0,0.8-0.7,1.4-1.7,1.4C115.3,130.1,114.7,129.8,114.6,129.6z"/>
	<path class="st0" d="M122.8,124.7h0.6v2.3h3v-2.3h0.6v5.3h-0.6v-2.5h-3v2.5h-0.6V124.7z"/>
	<path class="st0" d="M129.9,128l-1.8-3.3h0.7l1.4,2.7l0,0l1.4-2.7h0.6l-1.7,3.3v2h-0.6C129.9,130,129.9,128,129.9,128z"/>
</g>
<g>
	<path class="st0" d="M147.3,150.8h0.6l2,5.3h-0.7l-0.5-1.3h-2.4l-0.5,1.3h-0.6L147.3,150.8z M148.6,154.3l-0.7-1.8
		c-0.2-0.4-0.2-0.7-0.3-0.9l0,0c-0.1,0.3-0.2,0.5-0.3,0.9l-0.7,1.8H148.6z"/>
	<path class="st0" d="M150.5,155.8l0.3-0.4c0.1,0.1,0.5,0.3,1,0.3s0.8-0.2,0.8-0.6c0-0.4-0.3-0.5-0.8-0.7c-0.6-0.3-1.1-0.5-1.1-1.2
		c0-0.6,0.4-1.1,1.2-1.1c0.6,0,1,0.3,1.1,0.4l-0.3,0.4c-0.1-0.1-0.4-0.3-0.9-0.3c-0.4,0-0.6,0.2-0.6,0.5c0,0.4,0.3,0.5,0.7,0.7
		c0.6,0.3,1.2,0.5,1.2,1.2s-0.5,1.1-1.4,1.1C151.2,156.2,150.7,156,150.5,155.8z"/>
	<path class="st0" d="M154.1,151.1c0-0.2,0.2-0.4,0.4-0.4s0.4,0.2,0.4,0.4s-0.2,0.4-0.4,0.4S154.1,151.3,154.1,151.1z M154.2,152.3
		h0.6v3.8h-0.6V152.3z"/>
	<path class="st0" d="M155.9,155.2c0-1,1.1-1.3,2-1.3h0.2v-0.4c0-0.6-0.2-0.8-0.8-0.8c-0.4,0-0.7,0.1-1,0.4l-0.3-0.4
		c0.4-0.4,0.8-0.5,1.4-0.5c0.8,0,1.3,0.4,1.3,1.3v1.8c0,0.4,0,0.7,0.1,0.9h-0.6c0-0.1,0-0.3-0.1-0.5c-0.3,0.3-0.7,0.6-1.2,0.6
		C156.4,156.2,155.9,155.8,155.9,155.2z M158.2,155.1v-0.9H158c-0.8,0-1.4,0.2-1.4,0.9c0,0.4,0.3,0.5,0.6,0.5
		C157.6,155.7,157.9,155.5,158.2,155.1z"/>
	<path class="st0" d="M162.1,150.8h0.6v5.3h-0.6V150.8z"/>
	<path class="st0" d="M164.1,153.4c0-1.4,1-2.7,2.7-2.7c0.7,0,1.2,0.2,1.7,0.5l-0.3,0.5c-0.4-0.3-0.8-0.4-1.4-0.4
		c-1.4,0-2,1.1-2,2.2c0,1.2,0.6,2.3,2,2.3c0.6,0,1-0.1,1.3-0.3V154H167v-0.5h1.8v2.3c-0.4,0.3-1.1,0.6-2,0.6
		C165.1,156.2,164.1,154.8,164.1,153.4z"/>
</g>
<g>
	<path class="st0" d="M187.5,149.9h2.7v0.5h-2.1v1.7h1.9v0.5h-1.9v2h2.2v0.5h-2.8L187.5,149.9L187.5,149.9z"/>
	<path class="st0" d="M192,149.9h0.6l1.3,3.6c0.2,0.4,0.2,0.7,0.3,1l0,0c0.1-0.3,0.2-0.5,0.3-1l1.3-3.6h0.6l0.7,5.3h-0.6l-0.5-3.5
		c0-0.4-0.1-0.6-0.1-0.7l0,0c-0.1,0.2-0.1,0.4-0.2,0.7l-1.3,3.5h-0.6l-1.3-3.5c-0.1-0.3-0.2-0.6-0.3-0.7l0,0c0,0.2,0,0.4-0.1,0.8
		l-0.4,3.5h-0.6L192,149.9z"/>
	<path class="st0" d="M200.4,149.9h0.6v5.3h-0.6V149.9z"/>
	<path class="st0" d="M202.4,152.6c0-1.4,1-2.7,2.7-2.7c0.7,0,1.2,0.2,1.7,0.5l-0.3,0.5c-0.4-0.3-0.8-0.4-1.4-0.4
		c-1.4,0-2,1.1-2,2.2c0,1.2,0.6,2.3,2,2.3c0.6,0,1-0.1,1.3-0.3V153h-1.1v-0.5h1.8v2.3c-0.4,0.3-1.1,0.6-2,0.6
		C203.3,155.3,202.4,154,202.4,152.6z"/>
</g>
<g>
	<path class="st0" d="M201.9,179.3V176h0.6v3.3c0,1.1,0.5,1.6,1.5,1.6s1.4-0.6,1.4-1.5V176h0.6v3.3c0,1.3-0.6,2.1-2,2.1
		C202.6,181.4,201.9,180.6,201.9,179.3z"/>
	<path class="st0" d="M207.1,180.9c0-0.3,0.2-0.5,0.5-0.5s0.5,0.2,0.5,0.5s-0.2,0.5-0.5,0.5S207.1,181.2,207.1,180.9z"/>
	<path class="st0" d="M208.9,180.9l0.3-0.4c0.1,0.1,0.5,0.5,1.2,0.5s1.1-0.4,1.1-0.9c0-0.6-0.6-0.9-1.2-1.2
		c-0.6-0.3-1.2-0.7-1.2-1.5c0-0.9,0.7-1.4,1.6-1.4c0.8,0,1.2,0.3,1.4,0.4l-0.3,0.5c-0.2-0.1-0.5-0.4-1.1-0.4c-0.5,0-0.9,0.3-0.9,0.8
		s0.4,0.8,1,1c0.7,0.3,1.5,0.7,1.5,1.7c0,0.8-0.7,1.4-1.7,1.4C209.6,181.4,209.1,181.1,208.9,180.9z"/>
	<path class="st0" d="M213,180.9c0-0.3,0.2-0.5,0.5-0.5s0.5,0.2,0.5,0.5s-0.2,0.5-0.5,0.5S213,181.2,213,180.9z"/>
	<path class="st0" d="M217.1,176h0.6v5.3h-0.6V176z"/>
	<path class="st0" d="M219.1,178.6c0-1.4,1-2.7,2.7-2.7c0.7,0,1.2,0.2,1.7,0.5l-0.3,0.5c-0.4-0.3-0.8-0.4-1.4-0.4
		c-1.4,0-2,1.1-2,2.2c0,1.2,0.6,2.3,2,2.3c0.6,0,1-0.1,1.3-0.3v-1.5H222v-0.5h1.8v2.3c-0.4,0.3-1.1,0.6-2,0.6
		C220,181.4,219.1,180.1,219.1,178.6z"/>
</g>
<line class="st1" x1="49.9" y1="196.3" x2="49.9" y2="193.1"/>
<line class="st1" x1="91.9" y1="196.3" x2="91.9" y2="193.1"/>
<line class="st1" x1="134" y1="196.3" x2="134" y2="193.1"/>
<line class="st1" x1="176" y1="196.3" x2="176" y2="193.1"/>
<line class="st1" x1="218" y1="196.3" x2="218" y2="193.1"/>
<g>
	<path class="st0" d="M6,134.2L2.7,136v-0.7l2.7-1.4l0,0l-2.7-1.4v-0.6l3.3,1.7h2v0.6L6,134.2L6,134.2z"/>
	<path class="st0" d="M3,131.1c-0.2,0-0.4-0.2-0.4-0.4s0.2-0.4,0.4-0.4s0.4,0.2,0.4,0.4S3.2,131.1,3,131.1z M4.2,131v-0.6H8v0.6H4.2
		z"/>
	<path class="st0" d="M6.1,129.3c-1.1,0-2-0.7-2-1.7s0.7-1.5,1.7-1.5c0.1,0,0.2,0,0.3,0v2.6c0.8,0,1.5-0.3,1.5-1.2
		c0-0.5-0.2-0.9-0.3-1.1l0.5-0.2c0.1,0.2,0.4,0.6,0.4,1.3C8.1,128.7,7.2,129.3,6.1,129.3z M5.6,126.6c-0.5,0-1,0.3-1,0.9
		c0,0.6,0.4,1,1,1.1V126.6z"/>
	<path class="st0" d="M2.2,124.9v-0.6H8v0.6H2.2z"/>
	<path class="st0" d="M6.1,123.3c-1.2,0-2-0.7-2-1.7c0-0.4,0.1-0.7,0.3-1H2.2V120h5c0.3,0,0.6,0,0.8-0.1v0.6c-0.1,0-0.3,0.1-0.4,0.1
		c0.3,0.3,0.5,0.6,0.5,1.1C8.1,122.6,7.4,123.3,6.1,123.3z M7,120.6H4.9c-0.2,0.2-0.4,0.5-0.4,0.9c0,0.7,0.6,1.1,1.5,1.1
		s1.5-0.3,1.5-1.1C7.6,121.2,7.4,120.8,7,120.6z"/>
	<path class="st0" d="M7.1,116.6H4.6v0.6H4.2v-0.6H3.1V116h1.1v-1h0.5v1H7c0.4,0,0.6-0.1,0.6-0.4c0-0.2-0.1-0.5-0.2-0.5l0.4-0.2
		c0.1,0.1,0.2,0.4,0.2,0.8C8.1,116.3,7.7,116.6,7.1,116.6z"/>
	<path class="st0" d="M6.1,114.3c-0.9,0-2-0.5-2-1.8s1.1-1.8,2-1.8s2,0.5,2,1.8S7,114.3,6.1,114.3z M6.1,111.3
		c-0.8,0-1.5,0.4-1.5,1.2c0,0.8,0.7,1.1,1.5,1.1s1.5-0.4,1.5-1.2C7.6,111.7,6.9,111.3,6.1,111.3z"/>
	<path class="st0" d="M2.7,108.2v-0.7l3.6-0.9c0.4-0.1,0.9-0.2,0.9-0.2l0,0c0,0-0.5-0.1-0.9-0.2l-3.6-1v-0.6l3.5-1
		c0.4-0.1,0.9-0.2,0.9-0.2l0,0c0,0-0.5-0.1-0.9-0.2l-3.5-0.9v-0.6L8,103v0.6l-3.6,1c-0.4,0.1-1,0.2-1,0.2l0,0c0,0,0.6,0.1,1,0.3
		l3.6,1.1v0.6L2.7,108.2z"/>
	<path class="st0" d="M6.1,101.3c-0.9,0-2-0.5-2-1.8s1.1-1.8,2-1.8s2,0.5,2,1.8S7,101.3,6.1,101.3z M6.1,98.3
		c-0.8,0-1.5,0.4-1.5,1.2c0,0.8,0.7,1.1,1.5,1.1s1.5-0.4,1.5-1.2C7.6,98.7,6.9,98.3,6.1,98.3z"/>
	<path class="st0" d="M4.2,96.6V96h0.6c-0.3-0.2-0.7-0.5-0.7-1c0-0.2,0.1-0.4,0.1-0.4l0.6,0.1c0,0-0.1,0.1-0.1,0.3
		c0,0.6,0.7,0.9,0.8,0.9H8v0.6L4.2,96.6L4.2,96.6z"/>
	<path class="st0" d="M7.7,94.1l-0.4-0.3c0.1-0.1,0.3-0.5,0.3-1S7.4,92,7,92s-0.5,0.3-0.7,0.8C6,93.6,5.8,94,5.1,94
		C4.5,94,4,93.6,4,92.8c0-0.6,0.3-1,0.4-1.1L4.9,92c-0.1,0.1-0.3,0.4-0.3,0.9c0,0.4,0.2,0.6,0.5,0.6c0.4,0,0.5-0.3,0.7-0.7
		C6,92.1,6.3,91.5,7,91.5s1.1,0.5,1.1,1.4C8.1,93.5,7.9,93.9,7.7,94.1z"/>
	<path class="st0" d="M7.1,90.3H4.6v0.6H4.2v-0.6H3.1v-0.6h1.1v-1h0.5v1H7c0.4,0,0.6-0.1,0.6-0.4c0-0.2-0.1-0.5-0.2-0.5l0.4-0.2
		C7.9,88.7,8,89,8,89.4C8.1,90,7.7,90.3,7.1,90.3z"/>
	<path class="st0" d="M5.8,85.9c-1.3,0-2.6-0.6-3.5-1.4v-0.6c0.7,0.7,1.9,1.4,3.5,1.4c1.5,0,2.7-0.5,3.7-1.4v0.6
		C8.4,85.4,7.1,85.9,5.8,85.9z"/>
</g>
<path class="st0" d="M3.9,83.6c-0.6,0-1.3-0.4-1.3-1.4s0.7-1.4,1.3-1.4s1.3,0.4,1.3,1.4C5.3,83.2,4.5,83.6,3.9,83.6z M2.7,79.1v-0.6
	L8,81.9v0.6L2.7,79.1z M3.9,81.3c-0.5,0-0.9,0.3-0.9,0.9S3.4,83,3.9,83s0.9-0.3,0.9-0.9C4.8,81.6,4.4,81.3,3.9,81.3z M6.7,80.2
	c-0.6,0-1.3-0.4-1.3-1.4s0.7-1.4,1.3-1.4S8,77.8,8,78.8S7.3,80.2,6.7,80.2z M6.7,78c-0.5,0-0.9,0.3-0.9,0.9s0.4,0.9,0.9,0.9
	s0.9-0.3,0.9-0.9S7.2,78,6.7,78z"/>
<g>
	<path class="st0" d="M5.9,75.7c-1.5,0-2.7,0.5-3.7,1.4v-0.6c1-0.9,2.3-1.4,3.7-1.4s2.6,0.6,3.5,1.4v0.6C8.7,76.4,7.5,75.7,5.9,75.7
		z"/>
</g>
<g>
	<path class="st0" d="M1,232.8h0.6l1.8,3.7c0.1,0.3,0.2,0.6,0.3,0.8l0,0c0-0.2,0.1-0.5,0.1-0.8l0.6-3.7H5l-0.9,5.3H3.5l-1.8-3.8
		c-0.1-0.2-0.2-0.4-0.3-0.7l0,0c0,0.2-0.1,0.4-0.1,0.8l-0.7,3.8H0L1,232.8z"/>
	<path class="st0" d="M5.4,236.7c0-1.2,0.8-2.4,2-2.4c0.9,0,1.4,0.8,1.4,1.6c0,1.3-0.8,2.5-2,2.5C5.7,238.3,5.4,237.4,5.4,236.7z
		 M8.1,235.9c0-0.8-0.3-1.2-0.8-1.2c-0.8,0-1.4,1-1.4,1.9c0,0.7,0.3,1.1,0.8,1.1C7.6,237.8,8.1,236.8,8.1,235.9z"/>
	<path class="st0" d="M9.5,237.6c0-0.1,0-0.2,0-0.4l0.4-2.4H9.3l0.1-0.5H10l0.2-1.1l0.6-0.1l-0.2,1.2h0.9l-0.1,0.5h-1l-0.4,2.3
		c0,0.2-0.1,0.3-0.1,0.4c0,0.2,0.1,0.3,0.2,0.3c0.3,0,0.5-0.2,0.7-0.4l0.3,0.4c-0.3,0.2-0.6,0.5-1.1,0.5
		C9.7,238.3,9.5,238,9.5,237.6z"/>
	<path class="st0" d="M11.8,236.9c0-1.4,0.9-2.6,2.1-2.6c0.6,0,1,0.3,1,0.9c0,1-1.2,1.4-2.5,1.5v0.2c0,0.6,0.3,0.9,0.8,0.9
		c0.4,0,0.8-0.2,1-0.5l0.3,0.4c-0.2,0.2-0.7,0.6-1.4,0.6C12.2,238.3,11.8,237.6,11.8,236.9z M12.5,236.2c1-0.1,1.8-0.5,1.8-1
		c0-0.3-0.2-0.4-0.5-0.4C13.2,234.7,12.7,235.4,12.5,236.2z"/>
	<path class="st0" d="M15.2,237.8c0-0.3,0.2-0.5,0.5-0.5s0.5,0.2,0.5,0.5s-0.2,0.5-0.5,0.5C15.4,238.2,15.2,238,15.2,237.8z
		 M15.7,234.8c0-0.3,0.2-0.5,0.5-0.5c0.3,0,0.5,0.2,0.5,0.5s-0.2,0.5-0.5,0.5C15.9,235.2,15.7,235,15.7,234.8z"/>
	<path class="st0" d="M20.5,233.4H19l0.1-0.5h3.6l-0.1,0.5h-1.5l-0.9,4.8h-0.6L20.5,233.4z"/>
	<path class="st0" d="M23.5,232.4h0.6l-0.4,1.9c-0.1,0.6-0.2,0.8-0.2,1.2l0,0c0.2-0.4,0.7-1.3,1.6-1.3c0.5,0,0.8,0.4,0.8,0.9
		c0,0.1,0,0.3,0,0.4l-0.5,2.6h-0.6l0.5-2.6c0-0.1,0-0.2,0-0.4c0-0.3-0.1-0.5-0.4-0.5c-0.6,0-1.4,0.9-1.8,3L23,238h-0.6L23.5,232.4z"
		/>
	<path class="st0" d="M26.5,236.9c0-1.4,0.9-2.6,2.1-2.6c0.6,0,1,0.3,1,0.9c0,1-1.2,1.4-2.5,1.5v0.2c0,0.6,0.3,0.9,0.8,0.9
		c0.4,0,0.8-0.2,1-0.5l0.3,0.4c-0.2,0.2-0.7,0.6-1.4,0.6C26.9,238.3,26.5,237.6,26.5,236.9z M27.2,236.2c1-0.1,1.8-0.5,1.8-1
		c0-0.3-0.2-0.4-0.5-0.4C27.9,234.7,27.3,235.4,27.2,236.2z"/>
	<path class="st0" d="M31.7,237.1c0-1.4,0.8-2.9,2.3-2.9c0.6,0,0.9,0.1,1.1,0.2l-0.4,2.1c-0.2,1.1-0.2,1.7-0.2,1.7h-0.6
		c0.1-0.4,0.1-0.8,0.2-1.2l0,0c-0.3,0.6-0.7,1.3-1.4,1.3C32,238.3,31.7,237.8,31.7,237.1z M34.3,235.2l0.1-0.4
		c-0.1,0-0.3-0.1-0.5-0.1c-1,0-1.6,1.1-1.6,2.3c0,0.5,0.2,0.7,0.5,0.7C33.5,237.7,34.2,236.3,34.3,235.2z"/>
	<path class="st0" d="M35.5,238.1l1-5.7h0.6l-0.4,1.9c-0.1,0.3-0.1,0.7-0.3,1.2l0,0c0.3-0.6,0.8-1.3,1.5-1.3s0.9,0.6,0.9,1.2
		c0,1.4-0.8,2.8-2.3,2.8C36.2,238.3,35.7,238.1,35.5,238.1z M38.4,235.5c0-0.4-0.1-0.8-0.5-0.8c-0.8,0-1.4,1.5-1.6,2.6l-0.1,0.4
		c0.1,0,0.2,0.1,0.6,0.1C37.8,237.8,38.4,236.7,38.4,235.5z"/>
	<path class="st0" d="M39.4,236.7c0-1.2,0.8-2.4,2-2.4c0.9,0,1.4,0.8,1.4,1.6c0,1.3-0.8,2.5-2,2.5C39.8,238.3,39.4,237.4,39.4,236.7
		z M42.2,235.9c0-0.8-0.3-1.2-0.8-1.2c-0.8,0-1.4,1-1.4,1.9c0,0.7,0.3,1.1,0.8,1.1C41.6,237.8,42.2,236.8,42.2,235.9z"/>
	<path class="st0" d="M43.4,234.3H44l0.3,2.4c0,0.2,0,0.5,0.1,0.7l0,0l1.7-3.1h0.6l-2.2,3.8H44L43.4,234.3z"/>
	<path class="st0" d="M46.6,236.9c0-1.4,0.9-2.6,2.1-2.6c0.6,0,1,0.3,1,0.9c0,1-1.2,1.4-2.5,1.5v0.2c0,0.6,0.3,0.9,0.8,0.9
		c0.4,0,0.8-0.2,1-0.5l0.3,0.4c-0.2,0.2-0.7,0.6-1.4,0.6C47,238.3,46.6,237.6,46.6,236.9z M47.2,236.2c1-0.1,1.8-0.5,1.8-1
		c0-0.3-0.2-0.4-0.5-0.4C48,234.7,47.4,235.4,47.2,236.2z"/>
	<path class="st0" d="M52.5,234.3h0.6l-0.7,3.8h-0.6L52.5,234.3z M52.6,233.2c0-0.2,0.2-0.4,0.4-0.4s0.4,0.2,0.4,0.4
		s-0.2,0.4-0.4,0.4C52.8,233.6,52.6,233.4,52.6,233.2z"/>
	<path class="st0" d="M54.3,234.3h0.6c0,0.3-0.2,0.9-0.3,1.2l0,0c0.3-0.5,0.8-1.3,1.6-1.3c0.5,0,0.8,0.4,0.8,0.9c0,0.1,0,0.3,0,0.4
		l-0.5,2.6H56l0.5-2.6c0-0.1,0-0.2,0-0.4c0-0.3-0.1-0.5-0.4-0.5c-0.6,0-1.4,0.9-1.8,3l-0.1,0.4h-0.6L54.3,234.3z"/>
	<path class="st0" d="M57.7,237c0-1.5,0.9-2.8,2.3-2.8c0.3,0,0.5,0,0.6,0.1l0.3-1.9h0.6l-0.7,4.1c-0.2,1.1-0.2,1.7-0.2,1.7H60
		c0.1-0.4,0.1-0.8,0.2-1.2l0,0c-0.3,0.6-0.8,1.3-1.5,1.3S57.7,237.7,57.7,237z M60.4,235.2l0.1-0.4c-0.1,0-0.3-0.1-0.6-0.1
		c-1,0-1.6,1.1-1.6,2.2c0,0.5,0.1,0.8,0.5,0.8C59.5,237.7,60.2,236.3,60.4,235.2z"/>
	<path class="st0" d="M62.3,234.3h0.6l-0.7,3.8h-0.6L62.3,234.3z M62.4,233.2c0-0.2,0.2-0.4,0.4-0.4s0.4,0.2,0.4,0.4
		s-0.2,0.4-0.4,0.4C62.6,233.6,62.4,233.4,62.4,233.2z"/>
	<path class="st0" d="M63.4,236.8c0-1.5,1-2.5,2.1-2.5c0.5,0,0.8,0.1,0.9,0.3l-0.3,0.5c-0.1-0.1-0.3-0.2-0.7-0.2
		c-0.7,0-1.5,0.8-1.5,2c0,0.7,0.3,1,0.7,1c0.5,0,0.8-0.3,0.9-0.4l0.3,0.4c-0.2,0.2-0.7,0.6-1.3,0.6
		C63.9,238.3,63.4,237.7,63.4,236.8z"/>
	<path class="st0" d="M66.6,236.9c0-1.4,0.9-2.6,2.1-2.6c0.6,0,1,0.3,1,0.9c0,1-1.2,1.4-2.5,1.5v0.2c0,0.6,0.3,0.9,0.8,0.9
		c0.4,0,0.8-0.2,1-0.5l0.3,0.4c-0.2,0.2-0.7,0.6-1.4,0.6C67,238.3,66.6,237.6,66.6,236.9z M67.2,236.2c1-0.1,1.8-0.5,1.8-1
		c0-0.3-0.2-0.4-0.5-0.4C68,234.7,67.4,235.4,67.2,236.2z"/>
	<path class="st0" d="M69.7,237.9l0.3-0.4c0.2,0.2,0.5,0.3,0.9,0.3s0.6-0.2,0.6-0.5s-0.2-0.5-0.6-0.9s-0.6-0.7-0.6-1.1
		c0-0.6,0.5-1,1.2-1c0.4,0,0.7,0.1,0.9,0.3l-0.3,0.4c-0.1-0.1-0.3-0.2-0.7-0.2c-0.4,0-0.6,0.2-0.6,0.5s0.2,0.4,0.5,0.8
		c0.5,0.5,0.7,0.7,0.7,1.2c0,0.6-0.4,1-1.3,1C70.3,238.3,69.9,238,69.7,237.9z"/>
	<path class="st0" d="M74.6,237.1c0-1.4,0.8-2.9,2.3-2.9c0.6,0,0.9,0.1,1.1,0.2l-0.4,2.1c-0.2,1.1-0.2,1.7-0.2,1.7h-0.6
		c0.1-0.4,0.1-0.8,0.2-1.2l0,0c-0.3,0.6-0.7,1.3-1.4,1.3C74.9,238.3,74.6,237.8,74.6,237.1z M77.3,235.2l0.1-0.4
		c-0.1,0-0.3-0.1-0.5-0.1c-1,0-1.6,1.1-1.6,2.3c0,0.5,0.2,0.7,0.5,0.7C76.4,237.7,77.1,236.3,77.3,235.2z"/>
	<path class="st0" d="M79.2,234.3h0.6c-0.1,0.4-0.2,1-0.3,1.3l0,0c0.3-0.6,0.8-1.4,1.4-1.4c0.2,0,0.3,0,0.4,0.1l-0.2,0.6
		c-0.1,0-0.1,0-0.2,0c-0.7,0-1.3,1-1.7,2.9l-0.1,0.4h-0.6L79.2,234.3z"/>
	<path class="st0" d="M81.2,236.9c0-1.4,0.9-2.6,2.1-2.6c0.6,0,1,0.3,1,0.9c0,1-1.2,1.4-2.5,1.5v0.2c0,0.6,0.3,0.9,0.8,0.9
		c0.4,0,0.8-0.2,1-0.5l0.3,0.4c-0.2,0.2-0.7,0.6-1.4,0.6C81.6,238.3,81.2,237.6,81.2,236.9z M81.9,236.2c1-0.1,1.8-0.5,1.8-1
		c0-0.3-0.2-0.4-0.5-0.4C82.6,234.7,82,235.4,81.9,236.2z"/>
	<path class="st0" d="M86.4,238.1l1-5.7H88l-0.4,1.9c-0.1,0.3-0.1,0.7-0.3,1.2l0,0c0.3-0.6,0.8-1.3,1.5-1.3s0.9,0.6,0.9,1.2
		c0,1.4-0.8,2.8-2.3,2.8C87,238.3,86.5,238.1,86.4,238.1z M89.2,235.5c0-0.4-0.1-0.8-0.5-0.8c-0.8,0-1.4,1.5-1.6,2.6l-0.1,0.4
		c0.1,0,0.2,0.1,0.6,0.1C88.6,237.8,89.2,236.7,89.2,235.5z"/>
	<path class="st0" d="M90.3,237.1c0-1.4,0.8-2.9,2.3-2.9c0.6,0,0.9,0.1,1.1,0.2l-0.4,2.1c-0.2,1.1-0.2,1.7-0.2,1.7h-0.6
		c0.1-0.4,0.1-0.8,0.2-1.2l0,0c-0.3,0.6-0.7,1.3-1.4,1.3C90.6,238.3,90.3,237.8,90.3,237.1z M92.9,235.2l0.1-0.4
		c-0.1,0-0.3-0.1-0.5-0.1c-1,0-1.6,1.1-1.6,2.3c0,0.5,0.2,0.7,0.5,0.7C92.1,237.7,92.8,236.3,92.9,235.2z"/>
	<path class="st0" d="M93.8,237.9l0.3-0.4c0.2,0.2,0.5,0.3,0.9,0.3s0.6-0.2,0.6-0.5s-0.2-0.5-0.6-0.9s-0.6-0.7-0.6-1.1
		c0-0.6,0.5-1,1.2-1c0.4,0,0.7,0.1,0.9,0.3l-0.3,0.4c-0.1-0.1-0.3-0.2-0.7-0.2c-0.4,0-0.6,0.2-0.6,0.5s0.2,0.4,0.5,0.8
		c0.5,0.5,0.7,0.7,0.7,1.2c0,0.6-0.4,1-1.3,1C94.4,238.3,94,238,93.8,237.9z"/>
	<path class="st0" d="M96.9,236.9c0-1.4,0.9-2.6,2.1-2.6c0.6,0,1,0.3,1,0.9c0,1-1.2,1.4-2.5,1.5v0.2c0,0.6,0.3,0.9,0.8,0.9
		c0.4,0,0.8-0.2,1-0.5l0.3,0.4c-0.2,0.2-0.7,0.6-1.4,0.6C97.3,238.3,96.9,237.6,96.9,236.9z M97.6,236.2c1-0.1,1.8-0.5,1.8-1
		c0-0.3-0.2-0.4-0.5-0.4C98.3,234.7,97.8,235.4,97.6,236.2z"/>
	<path class="st0" d="M100.4,237c0-1.5,0.9-2.8,2.3-2.8c0.3,0,0.5,0,0.6,0.1l0.3-1.9h0.6l-0.7,4.1c-0.2,1.1-0.2,1.7-0.2,1.7h-0.6
		c0.1-0.4,0.1-0.8,0.2-1.2l0,0c-0.3,0.6-0.8,1.3-1.5,1.3S100.4,237.7,100.4,237z M103.1,235.2l0.1-0.4c-0.1,0-0.3-0.1-0.6-0.1
		c-1,0-1.6,1.1-1.6,2.2c0,0.5,0.1,0.8,0.5,0.8C102.2,237.7,102.9,236.3,103.1,235.2z"/>
	<path class="st0" d="M106,236.7c0-1.2,0.8-2.4,2-2.4c0.9,0,1.4,0.8,1.4,1.6c0,1.3-0.8,2.5-2,2.5C106.4,238.3,106,237.4,106,236.7z
		 M108.8,235.9c0-0.8-0.3-1.2-0.8-1.2c-0.8,0-1.4,1-1.4,1.9c0,0.7,0.3,1.1,0.8,1.1C108.2,237.8,108.8,236.8,108.8,235.9z"/>
	<path class="st0" d="M110.5,234.3h0.6c0,0.3-0.2,0.9-0.3,1.2l0,0c0.3-0.5,0.8-1.3,1.6-1.3c0.5,0,0.8,0.4,0.8,0.9c0,0.1,0,0.3,0,0.4
		l-0.5,2.6h-0.6l0.5-2.6c0-0.1,0-0.2,0-0.4c0-0.3-0.1-0.5-0.4-0.5c-0.6,0-1.4,0.9-1.8,3l-0.1,0.4h-0.6L110.5,234.3z"/>
	<path class="st0" d="M116.8,232.8h1.3c0.9,0,1.5,0.4,1.5,1.2s-0.4,1.2-1.2,1.4l0,0c0.5,0.1,1,0.5,1,1.1c0,1.2-0.9,1.7-2.2,1.7h-1.4
		L116.8,232.8z M117.3,237.6c1.1,0,1.5-0.4,1.5-1.2c0-0.5-0.4-0.9-1.1-0.9h-0.8l-0.4,2L117.3,237.6L117.3,237.6z M117.7,235.1
		c0.8,0,1.3-0.4,1.3-1c0-0.5-0.3-0.7-1-0.7h-0.7l-0.3,1.8h0.7V235.1z"/>
	<path class="st0" d="M121.2,232.4h0.6l-1,5.8h-0.6L121.2,232.4z"/>
	<path class="st0" d="M121.9,236.7c0-1.2,0.8-2.4,2-2.4c0.9,0,1.4,0.8,1.4,1.6c0,1.3-0.8,2.5-2,2.5
		C122.3,238.3,121.9,237.4,121.9,236.7z M124.7,235.9c0-0.8-0.3-1.2-0.8-1.2c-0.8,0-1.4,1-1.4,1.9c0,0.7,0.3,1.1,0.8,1.1
		C124.1,237.8,124.7,236.8,124.7,235.9z"/>
	<path class="st0" d="M125.8,236.7c0-1.2,0.8-2.4,2-2.4c0.9,0,1.4,0.8,1.4,1.6c0,1.3-0.8,2.5-2,2.5
		C126.1,238.3,125.8,237.4,125.8,236.7z M128.5,235.9c0-0.8-0.3-1.2-0.8-1.2c-0.8,0-1.4,1-1.4,1.9c0,0.7,0.3,1.1,0.8,1.1
		C128,237.8,128.5,236.8,128.5,235.9z"/>
	<path class="st0" d="M130.3,234.3h0.6c0,0.3-0.2,0.8-0.2,1.2l0,0c0.2-0.5,0.8-1.3,1.5-1.3c0.6,0,0.8,0.4,0.8,0.9c0,0.1,0,0.3,0,0.4
		l0,0c0.3-0.6,0.8-1.3,1.6-1.3c0.5,0,0.8,0.4,0.8,0.9c0,0.1,0,0.3,0,0.4l-0.5,2.6h-0.6l0.4-2.5c0.1-0.4,0.1-1-0.3-1
		c-0.7,0-1.4,1-1.8,3l-0.1,0.4h-0.6l0.4-2.5c0.1-0.4,0.1-1-0.4-1c-0.6,0-1.4,1-1.7,3l-0.1,0.4h-0.6L130.3,234.3z"/>
	<path class="st0" d="M135.9,238.1l1-5.7h0.6l-0.4,1.9c-0.1,0.3-0.1,0.7-0.3,1.2l0,0c0.3-0.6,0.8-1.3,1.5-1.3s0.9,0.6,0.9,1.2
		c0,1.4-0.8,2.8-2.3,2.8C136.5,238.3,136,238.1,135.9,238.1z M138.7,235.5c0-0.4-0.1-0.8-0.5-0.8c-0.8,0-1.4,1.5-1.6,2.6l-0.1,0.4
		c0.1,0,0.2,0.1,0.6,0.1C138.1,237.8,138.7,236.7,138.7,235.5z"/>
	<path class="st0" d="M139.8,236.9c0-1.4,0.9-2.6,2.1-2.6c0.6,0,1,0.3,1,0.9c0,1-1.2,1.4-2.5,1.5v0.2c0,0.6,0.3,0.9,0.8,0.9
		c0.4,0,0.8-0.2,1-0.5l0.3,0.4c-0.2,0.2-0.7,0.6-1.4,0.6C140.2,238.3,139.8,237.6,139.8,236.9z M140.4,236.2c1-0.1,1.8-0.5,1.8-1
		c0-0.3-0.2-0.4-0.5-0.4C141.2,234.7,140.6,235.4,140.4,236.2z"/>
	<path class="st0" d="M143.9,234.3h0.6c-0.1,0.4-0.2,1-0.3,1.3l0,0c0.3-0.6,0.8-1.4,1.4-1.4c0.2,0,0.3,0,0.4,0.1l-0.2,0.6
		c-0.1,0-0.1,0-0.2,0c-0.7,0-1.3,1-1.7,2.9l-0.1,0.4h-0.6L143.9,234.3z"/>
	<path class="st0" d="M145.6,239.6l0.3-0.5c0.2,0.2,0.5,0.3,0.9,0.3c0.8,0,1.1-0.5,1.3-1.3l0.1-0.3c0.1-0.3,0.1-0.6,0.2-0.8l0,0
		c-0.3,0.6-0.8,1.3-1.5,1.3s-0.9-0.6-0.9-1.2c0-1.5,0.9-2.8,2.3-2.8c0.5,0,1,0.1,1.2,0.1l-0.7,3.8c-0.2,1.3-0.8,1.8-1.9,1.8
		C146.2,240,145.8,239.8,145.6,239.6z M148.6,235.2l0.1-0.4c-0.1,0-0.3-0.1-0.6-0.1c-1,0-1.6,1.1-1.6,2.2c0,0.5,0.1,0.8,0.5,0.8
		C147.7,237.7,148.4,236.3,148.6,235.2z"/>
	<path class="st0" d="M152.6,232.8h1.3c0.9,0,1.5,0.4,1.5,1.2s-0.4,1.2-1.2,1.4l0,0c0.5,0.1,1,0.5,1,1.1c0,1.2-0.9,1.7-2.2,1.7h-1.4
		L152.6,232.8z M153.1,237.6c1.1,0,1.5-0.4,1.5-1.2c0-0.5-0.4-0.9-1.1-0.9h-0.8l-0.4,2L153.1,237.6L153.1,237.6z M153.6,235.1
		c0.8,0,1.3-0.4,1.3-1c0-0.5-0.3-0.7-1-0.7h-0.7l-0.3,1.8h0.7V235.1z"/>
	<path class="st0" d="M156,237.1c0-1.4,0.8-2.9,2.3-2.9c0.6,0,0.9,0.1,1.1,0.2l-0.4,2.1c-0.2,1.1-0.2,1.7-0.2,1.7h-0.6
		c0.1-0.4,0.1-0.8,0.2-1.2l0,0c-0.3,0.6-0.7,1.3-1.4,1.3C156.3,238.3,156,237.8,156,237.1z M158.6,235.2l0.1-0.4
		c-0.1,0-0.3-0.1-0.5-0.1c-1,0-1.6,1.1-1.6,2.3c0,0.5,0.2,0.7,0.5,0.7C157.8,237.7,158.5,236.3,158.6,235.2z"/>
	<path class="st0" d="M160.5,234.3h0.6c-0.1,0.4-0.2,1-0.3,1.3l0,0c0.3-0.6,0.8-1.4,1.4-1.4c0.2,0,0.3,0,0.4,0.1l-0.2,0.6
		c-0.1,0-0.1,0-0.2,0c-0.7,0-1.3,1-1.7,2.9l-0.1,0.4h-0.6L160.5,234.3z"/>
	<path class="st0" d="M162.6,236.8c0-1.5,1-2.5,2.1-2.5c0.5,0,0.8,0.1,0.9,0.3l-0.3,0.5c-0.1-0.1-0.3-0.2-0.7-0.2
		c-0.7,0-1.5,0.8-1.5,2c0,0.7,0.3,1,0.7,1c0.5,0,0.8-0.3,0.9-0.4l0.3,0.4c-0.2,0.2-0.7,0.6-1.3,0.6
		C163.1,238.3,162.6,237.7,162.6,236.8z"/>
	<path class="st0" d="M166.9,232.4h0.6l-1,5.8h-0.6L166.9,232.4z"/>
	<path class="st0" d="M167.7,237.1c0-1.4,0.8-2.9,2.3-2.9c0.6,0,0.9,0.1,1.1,0.2l-0.4,2.1c-0.2,1.1-0.2,1.7-0.2,1.7h-0.6
		c0.1-0.4,0.1-0.8,0.2-1.2l0,0c-0.3,0.6-0.7,1.3-1.4,1.3C168,238.3,167.7,237.8,167.7,237.1z M170.4,235.2l0.1-0.4
		c-0.1,0-0.3-0.1-0.5-0.1c-1,0-1.6,1.1-1.6,2.3c0,0.5,0.2,0.7,0.5,0.7C169.5,237.7,170.2,236.3,170.4,235.2z"/>
	<path class="st0" d="M170.6,239.8l0.2-0.5c0.1,0,0.2,0.1,0.5,0.1c0.4,0,0.7-0.2,1.2-1.1l-0.8-4h0.6l0.5,2.8c0,0.2,0.1,0.4,0.1,0.5
		l0,0c0.1-0.2,0.1-0.4,0.2-0.5l1.3-2.8h0.6l-1.4,2.9c-0.9,1.9-1.4,2.7-2.4,2.7C170.8,239.9,170.6,239.8,170.6,239.8z"/>
	<path class="st0" d="M174.8,237.9l0.3-0.4c0.2,0.2,0.5,0.3,0.9,0.3s0.6-0.2,0.6-0.5s-0.2-0.5-0.6-0.9c-0.4-0.4-0.6-0.7-0.6-1.1
		c0-0.6,0.5-1,1.2-1c0.4,0,0.7,0.1,0.9,0.3l-0.3,0.4c-0.1-0.1-0.3-0.2-0.7-0.2s-0.6,0.2-0.6,0.5s0.2,0.4,0.5,0.8
		c0.5,0.5,0.7,0.7,0.7,1.2c0,0.6-0.4,1-1.3,1C175.4,238.3,175,238,174.8,237.9z"/>
	<path class="st0" d="M179.7,238.1l1-5.7h0.6l-0.4,1.9c-0.1,0.3-0.1,0.7-0.3,1.2l0,0c0.3-0.6,0.8-1.3,1.5-1.3s0.9,0.6,0.9,1.2
		c0,1.4-0.8,2.8-2.3,2.8C180.3,238.3,179.8,238.1,179.7,238.1z M182.5,235.5c0-0.4-0.1-0.8-0.5-0.8c-0.8,0-1.4,1.5-1.6,2.6l-0.1,0.4
		c0.1,0,0.2,0.1,0.6,0.1C181.9,237.8,182.5,236.7,182.5,235.5z"/>
	<path class="st0" d="M183.6,236.7c0-1.2,0.8-2.4,2-2.4c0.9,0,1.4,0.8,1.4,1.6c0,1.3-0.8,2.5-2,2.5
		C184,238.3,183.6,237.4,183.6,236.7z M186.3,235.9c0-0.8-0.3-1.2-0.8-1.2c-0.8,0-1.4,1-1.4,1.9c0,0.7,0.3,1.1,0.8,1.1
		C185.8,237.8,186.3,236.8,186.3,235.9z"/>
	<path class="st0" d="M188.1,234.3h0.6c0,0.3-0.2,0.9-0.3,1.2l0,0c0.3-0.5,0.8-1.3,1.6-1.3c0.5,0,0.8,0.4,0.8,0.9c0,0.1,0,0.3,0,0.4
		l-0.5,2.6h-0.6l0.5-2.6c0-0.1,0-0.2,0-0.4c0-0.3-0.1-0.5-0.4-0.5c-0.6,0-1.4,0.9-1.8,3l-0.1,0.4h-0.6L188.1,234.3z"/>
	<path class="st0" d="M191.5,237c0-1.5,0.9-2.8,2.3-2.8c0.3,0,0.5,0,0.6,0.1l0.3-1.9h0.6l-0.7,4.1c-0.2,1.1-0.2,1.7-0.2,1.7h-0.6
		c0.1-0.4,0.1-0.8,0.2-1.2l0,0c-0.3,0.6-0.8,1.3-1.5,1.3S191.5,237.7,191.5,237z M194.2,235.2l0.1-0.4c-0.1,0-0.3-0.1-0.6-0.1
		c-1,0-1.6,1.1-1.6,2.2c0,0.5,0.1,0.8,0.5,0.8C193.3,237.7,194,236.3,194.2,235.2z"/>
	<path class="st0" d="M197.9,234.3h0.6l-0.7,3.8h-0.6L197.9,234.3z M197.9,233.2c0-0.2,0.2-0.4,0.4-0.4s0.4,0.2,0.4,0.4
		s-0.2,0.4-0.4,0.4C198.1,233.6,197.9,233.4,197.9,233.2z"/>
	<path class="st0" d="M199.7,234.3h0.6c0,0.3-0.2,0.9-0.3,1.2l0,0c0.3-0.5,0.8-1.3,1.6-1.3c0.5,0,0.8,0.4,0.8,0.9c0,0.1,0,0.3,0,0.4
		l-0.5,2.6h-0.6l0.5-2.6c0-0.1,0-0.2,0-0.4c0-0.3-0.1-0.5-0.4-0.5c-0.6,0-1.4,0.9-1.8,3l-0.1,0.4H199L199.7,234.3z"/>
	<path class="st0" d="M203.1,237c0-1.5,0.9-2.8,2.3-2.8c0.3,0,0.5,0,0.6,0.1l0.3-1.9h0.6l-0.7,4.1c-0.2,1.1-0.2,1.7-0.2,1.7h-0.6
		c0.1-0.4,0.1-0.8,0.2-1.2l0,0c-0.3,0.6-0.8,1.3-1.5,1.3S203.1,237.7,203.1,237z M205.8,235.2l0.1-0.4c-0.1,0-0.3-0.1-0.6-0.1
		c-1,0-1.6,1.1-1.6,2.2c0,0.5,0.1,0.8,0.5,0.8C204.9,237.7,205.6,236.3,205.8,235.2z"/>
	<path class="st0" d="M207.7,234.3h0.6l-0.7,3.8H207L207.7,234.3z M207.8,233.2c0-0.2,0.2-0.4,0.4-0.4s0.4,0.2,0.4,0.4
		s-0.2,0.4-0.4,0.4C208,233.6,207.8,233.4,207.8,233.2z"/>
	<path class="st0" d="M208.8,236.8c0-1.5,1-2.5,2.1-2.5c0.5,0,0.8,0.1,0.9,0.3l-0.3,0.5c-0.1-0.1-0.3-0.2-0.7-0.2
		c-0.7,0-1.5,0.8-1.5,2c0,0.7,0.3,1,0.7,1c0.5,0,0.8-0.3,0.9-0.4l0.3,0.4c-0.2,0.2-0.7,0.6-1.3,0.6
		C209.3,238.3,208.8,237.7,208.8,236.8z"/>
	<path class="st0" d="M212,236.9c0-1.4,0.9-2.6,2.1-2.6c0.6,0,1,0.3,1,0.9c0,1-1.2,1.4-2.5,1.5v0.2c0,0.6,0.3,0.9,0.8,0.9
		c0.4,0,0.8-0.2,1-0.5l0.3,0.4c-0.2,0.2-0.7,0.6-1.4,0.6C212.3,238.3,212,237.6,212,236.9z M212.6,236.2c1-0.1,1.8-0.5,1.8-1
		c0-0.3-0.2-0.4-0.5-0.4C213.3,234.7,212.8,235.4,212.6,236.2z"/>
	<path class="st0" d="M215.1,237.9l0.3-0.4c0.2,0.2,0.5,0.3,0.9,0.3s0.6-0.2,0.6-0.5s-0.2-0.5-0.6-0.9c-0.4-0.4-0.6-0.7-0.6-1.1
		c0-0.6,0.5-1,1.2-1c0.4,0,0.7,0.1,0.9,0.3l-0.3,0.4c-0.1-0.1-0.3-0.2-0.7-0.2s-0.6,0.2-0.6,0.5s0.2,0.4,0.5,0.8
		c0.5,0.5,0.7,0.7,0.7,1.2c0,0.6-0.4,1-1.3,1C215.7,238.3,215.3,238,215.1,237.9z"/>
</g>
</svg>
