<?xml version="1.0" encoding="utf-8"?>
<!-- Generator: Adobe Illustrator 26.0.1, SVG Export Plug-In . SVG Version: 6.00 Build 0)  -->
<svg version="1.1" id="Layer_2" xmlns="http://www.w3.org/2000/svg" xmlns:xlink="http://www.w3.org/1999/xlink" x="0px" y="0px"
	 viewBox="0 0 250 250" style="enable-background:new 0 0 250 250;" xml:space="preserve">
<style type="text/css">
	.st0{fill:none;stroke:#BCBEC0;stroke-width:0.5;}
	.st1{fill:#4D4D4F;}
	.st2{fill:#B19E4E;}
	.st3{fill:none;stroke:#5C5B59;stroke-linecap:round;stroke-linejoin:round;stroke-miterlimit:10;}
	.st4{fill:none;stroke:#B19E4E;stroke-width:1.6;}
	.st5{fill:none;stroke:#5C5B59;stroke-width:1.6;}
</style>
<line class="st0" x1="21.7" y1="176.1" x2="229.1" y2="176.1"/>
<path class="st1" d="M9.6,18.2c0-1.3,0.5-2.8,2-2.8c1.4,0,2,1.4,2,2.8S13,21,11.6,21C10.1,21,9.6,19.5,9.6,18.2z M12.9,18.2
	c0-1.3-0.4-2.3-1.4-2.3c-1,0-1.4,1-1.4,2.3s0.4,2.3,1.4,2.3C12.5,20.5,12.9,19.5,12.9,18.2z M14.4,20.5c0-0.3,0.2-0.5,0.5-0.5
	s0.5,0.2,0.5,0.5s-0.2,0.5-0.5,0.5S14.4,20.7,14.4,20.5z M16.2,19.6c0-0.7,0.7-1.2,1.1-1.5c-0.5-0.3-1-0.7-1-1.3
	c0-0.8,0.7-1.3,1.5-1.3c0.9,0,1.5,0.5,1.5,1.3c0,0.7-0.6,1-1.1,1.3c0.5,0.3,1.2,0.7,1.2,1.5c0,0.8-0.6,1.4-1.6,1.4
	C16.7,21,16.2,20.3,16.2,19.6z M18.8,19.5c0-0.6-0.6-1-1.1-1.2c-0.4,0.2-0.9,0.6-0.9,1.2c0,0.5,0.3,0.9,1,0.9
	C18.5,20.5,18.8,20.1,18.8,19.5z M18.7,16.8c0-0.4-0.3-0.8-0.8-0.8S17,16.3,17,16.7c0,0.5,0.5,0.8,0.9,1
	C18.3,17.5,18.7,17.2,18.7,16.8z"/>
<path class="st1" d="M231,20.9l0.1-0.5c0.1,0,0.3,0.1,0.7,0.1c1,0,1.5-0.4,1.5-1.1c0-0.8-0.7-1.1-1.7-1.1v-0.4
	c0.8,0,1.6-0.4,1.6-1.1c0-0.4-0.3-0.7-0.9-0.7c-0.5,0-0.8,0.2-1.1,0.4l-0.3-0.4c0.3-0.2,0.8-0.5,1.4-0.5c1,0,1.5,0.5,1.5,1.2
	c0,0.7-0.6,1.1-1.2,1.3v0c0.7,0.1,1.3,0.6,1.3,1.4c0,1.1-0.9,1.7-2.1,1.7C231.3,21,231.1,20.9,231,20.9z M234.8,20.5
	c0-0.3,0.2-0.5,0.5-0.5s0.5,0.2,0.5,0.5s-0.2,0.5-0.5,0.5S234.8,20.7,234.8,20.5z M236.7,18.2c0-1.3,0.5-2.8,2-2.8
	c1.4,0,2,1.4,2,2.8s-0.6,2.8-2,2.8C237.2,21,236.7,19.5,236.7,18.2z M240,18.2c0-1.3-0.4-2.3-1.4-2.3c-1,0-1.4,1-1.4,2.3
	s0.4,2.3,1.4,2.3C239.6,20.5,240,19.5,240,18.2z"/>
<path class="st1" d="M9.3,56.6c0-1.3,0.5-2.8,2-2.8c1.4,0,2,1.4,2,2.8s-0.6,2.8-2,2.8C9.9,59.3,9.3,57.9,9.3,56.6z M12.7,56.6
	c0-1.3-0.4-2.3-1.4-2.3c-1,0-1.4,1-1.4,2.3s0.4,2.3,1.4,2.3C12.3,58.8,12.7,57.8,12.7,56.6z M14.2,58.8c0-0.3,0.2-0.5,0.5-0.5
	s0.5,0.2,0.5,0.5s-0.2,0.5-0.5,0.5S14.2,59.1,14.2,58.8z M16,57.1c0-2,1.2-3.3,3.1-3.3l0.1,0.5c-0.8,0-1.4,0.2-1.9,0.6
	c-0.4,0.4-0.6,0.9-0.7,1.6c0.3-0.3,0.7-0.5,1.2-0.5c1,0,1.6,0.7,1.6,1.6s-0.6,1.7-1.7,1.7C16.6,59.3,16,58.1,16,57.1z M18.9,57.7
	c0-0.8-0.4-1.2-1.1-1.2c-0.5,0-0.8,0.2-1.1,0.5v0.1c0,1.1,0.4,1.8,1.2,1.8C18.6,58.8,18.9,58.2,18.9,57.7z"/>
<path class="st1" d="M230.9,58.9c0.9-0.9,2.5-2.4,2.5-3.6c0-0.7-0.4-1-0.9-1c-0.6,0-0.9,0.3-1.2,0.5l-0.3-0.4
	c0.3-0.4,0.8-0.7,1.5-0.7c0.9,0,1.6,0.5,1.6,1.4c0,1.2-1.3,2.5-2.3,3.5c0,0,0.3,0,0.6,0h1.8v0.5h-3.3V58.9z M235.1,58.8
	c0-0.3,0.2-0.5,0.5-0.5s0.5,0.2,0.5,0.5s-0.2,0.5-0.5,0.5S235.1,59.1,235.1,58.8z M236.9,56.6c0-1.3,0.5-2.8,2-2.8
	c1.4,0,2,1.4,2,2.8s-0.6,2.8-2,2.8C237.5,59.3,236.9,57.9,236.9,56.6z M240.3,56.6c0-1.3-0.4-2.3-1.4-2.3c-1,0-1.4,1-1.4,2.3
	s0.4,2.3,1.4,2.3C239.9,58.8,240.3,57.8,240.3,56.6z"/>
<path class="st1" d="M9.3,96.8c0-1.3,0.5-2.8,2-2.8c1.4,0,2,1.4,2,2.8s-0.6,2.8-2,2.8C9.8,99.6,9.3,98.1,9.3,96.8z M12.6,96.8
	c0-1.3-0.4-2.3-1.4-2.3c-1,0-1.4,1-1.4,2.3s0.4,2.3,1.4,2.3C12.2,99.1,12.6,98.1,12.6,96.8z M14.1,99.1c0-0.3,0.2-0.5,0.5-0.5
	s0.5,0.2,0.5,0.5s-0.2,0.5-0.5,0.5S14.1,99.3,14.1,99.1z M18.3,98.3h-2.5v-0.5l2.4-3.6h0.6v3.6h0.8v0.5h-0.8v1.2h-0.6V98.3z
	 M17.1,97.7h1.2V95h0l-1.8,2.8C16.5,97.7,16.8,97.7,17.1,97.7z"/>
<path class="st1" d="M232,94.7l-1,0.3l-0.1-0.5l1.3-0.4h0.5v5.3H232V94.7z M233.8,99.1c0-0.3,0.2-0.5,0.5-0.5s0.5,0.2,0.5,0.5
	s-0.2,0.5-0.5,0.5S233.8,99.3,233.8,99.1z M235.7,96.8c0-1.3,0.5-2.8,2-2.8c1.4,0,2,1.4,2,2.8s-0.6,2.8-2,2.8
	C236.2,99.6,235.7,98.1,235.7,96.8z M239,96.8c0-1.3-0.4-2.3-1.4-2.3c-1,0-1.4,1-1.4,2.3s0.4,2.3,1.4,2.3
	C238.6,99.1,239,98.1,239,96.8z"/>
<path class="st1" d="M231,135.6c0-1.3,0.5-2.8,2-2.8c1.4,0,2,1.4,2,2.8s-0.6,2.8-2,2.8C231.6,138.4,231,136.9,231,135.6z
	 M234.4,135.6c0-1.3-0.4-2.3-1.4-2.3c-1,0-1.4,1-1.4,2.3s0.4,2.3,1.4,2.3C234,137.9,234.4,136.9,234.4,135.6z M235.9,137.9
	c0-0.3,0.2-0.5,0.5-0.5s0.5,0.2,0.5,0.5s-0.2,0.5-0.5,0.5S235.9,138.2,235.9,137.9z M237.7,135.6c0-1.3,0.5-2.8,2-2.8
	c1.4,0,2,1.4,2,2.8s-0.6,2.8-2,2.8C238.3,138.4,237.7,136.9,237.7,135.6z M241.1,135.6c0-1.3-0.4-2.3-1.4-2.3c-1,0-1.4,1-1.4,2.3
	s0.4,2.3,1.4,2.3C240.7,137.9,241.1,136.9,241.1,135.6z"/>
<path class="st1" d="M9.5,135.6c0-1.3,0.5-2.8,2-2.8c1.4,0,2,1.4,2,2.8s-0.6,2.8-2,2.8C10.1,138.4,9.5,136.9,9.5,135.6z M12.9,135.6
	c0-1.3-0.4-2.3-1.4-2.3c-1,0-1.4,1-1.4,2.3s0.4,2.3,1.4,2.3C12.5,137.9,12.9,136.9,12.9,135.6z M14.4,137.9c0-0.3,0.2-0.5,0.5-0.5
	s0.5,0.2,0.5,0.5s-0.2,0.5-0.5,0.5S14.4,138.2,14.4,137.9z M16.1,138c0.9-0.9,2.5-2.4,2.5-3.6c0-0.7-0.4-1-0.9-1
	c-0.6,0-0.9,0.3-1.2,0.5l-0.3-0.4c0.3-0.4,0.8-0.7,1.5-0.7c0.9,0,1.6,0.5,1.6,1.4c0,1.2-1.3,2.5-2.3,3.5c0,0,0.3,0,0.6,0h1.8v0.5
	h-3.3V138z"/>
<path class="st1" d="M231.1,175.3h1.6v0.5h-1.6V175.3z M234.5,173.6l-1,0.3l-0.1-0.5l1.3-0.4h0.5v5.3h-0.6V173.6z M236.4,177.9
	c0-0.3,0.2-0.5,0.5-0.5s0.5,0.2,0.5,0.5s-0.2,0.5-0.5,0.5S236.4,178.2,236.4,177.9z M238.2,175.7c0-1.3,0.5-2.8,2-2.8
	c1.4,0,2,1.4,2,2.8s-0.6,2.8-2,2.8C238.8,178.4,238.2,177,238.2,175.7z M241.6,175.7c0-1.3-0.4-2.3-1.4-2.3c-1,0-1.4,1-1.4,2.3
	s0.4,2.3,1.4,2.3C241.2,177.9,241.6,176.9,241.6,175.7z"/>
<path class="st1" d="M15.4,175.7c0-1.3,0.5-2.8,2-2.8c1.4,0,2,1.4,2,2.8s-0.6,2.8-2,2.8C16,178.4,15.4,177,15.4,175.7z M18.8,175.7
	c0-1.3-0.4-2.3-1.4-2.3c-1,0-1.4,1-1.4,2.3s0.4,2.3,1.4,2.3C18.3,177.9,18.8,176.9,18.8,175.7z"/>
<g>
	<path class="st1" d="M30.6,202.6v-1.2c0-2.1,1.1-3,2.6-3s2.7,0.9,2.7,3.1v1.2H30.6z M35.4,201.4c0-1.5-0.8-2.3-2.2-2.3
		c-1.4,0-2.1,0.8-2.1,2.4v0.6h4.3V201.4z"/>
</g>
<g>
	<path class="st1" d="M34,197.6c-1.1,0-2-0.7-2-1.7c0-1,0.7-1.5,1.7-1.5c0.1,0,0.2,0,0.3,0v2.6c0.8,0,1.5-0.3,1.5-1.2
		c0-0.5-0.2-0.9-0.3-1.1l0.5-0.2c0.1,0.2,0.4,0.6,0.4,1.3C36,197,35.1,197.6,34,197.6z M33.5,195c-0.5,0-1,0.3-1,0.9
		c0,0.6,0.4,1,1,1.1V195z"/>
	<path class="st1" d="M34,193.7c-1.3,0-2-0.8-2-1.8c0-0.6,0.2-1,0.4-1.2l0.4,0.3c-0.2,0.2-0.3,0.5-0.3,0.9c0,0.8,0.7,1.1,1.5,1.1
		c0.8,0,1.5-0.4,1.5-1.2c0-0.5-0.2-0.8-0.3-0.9l0.4-0.2c0.1,0.2,0.4,0.5,0.4,1.2C36,193.1,35.1,193.7,34,193.7z"/>
</g>
<path class="st1" d="M35.6,188.4c-0.9-0.9-2.4-2.5-3.6-2.5c-0.7,0-1,0.4-1,0.9c0,0.6,0.3,0.9,0.5,1.2l-0.4,0.3
	c-0.4-0.3-0.7-0.8-0.7-1.5c0-0.9,0.5-1.6,1.4-1.6c1.2,0,2.5,1.3,3.5,2.3c0,0,0-0.3,0-0.6v-1.8h0.5v3.3H35.6z M31.1,183.4l0.3,1
	l-0.5,0.1l-0.4-1.3v-0.5h5.3v0.6H31.1z"/>
<g>
	<path class="st1" d="M57.9,202.2l-0.5-0.1c0-0.1,0.1-0.2,0.1-0.3c0-0.4-0.3-0.6-0.9-0.6h-5.3v-0.6h5.4c0.9,0,1.4,0.4,1.4,1.2
		C58,202,58,202.2,57.9,202.2z"/>
</g>
<g>
	<path class="st1" d="M55.5,199.4c-1,0-1.3-1.1-1.3-2v-0.2h-0.4c-0.6,0-0.8,0.2-0.8,0.8c0,0.4,0.1,0.7,0.4,1l-0.4,0.3
		c-0.4-0.4-0.5-0.8-0.5-1.4c0-0.8,0.4-1.3,1.3-1.3h1.8c0.4,0,0.7,0,0.9-0.1v0.6c-0.1,0-0.3,0-0.5,0.1c0.3,0.3,0.6,0.7,0.6,1.2
		C56.6,199,56.2,199.4,55.5,199.4z M55.5,197.2h-0.9v0.2c0,0.8,0.2,1.4,0.9,1.4c0.4,0,0.5-0.3,0.5-0.6
		C56.1,197.8,55.8,197.5,55.5,197.2z"/>
	<path class="st1" d="M52.6,195.3v-0.6h0.6c-0.4-0.3-0.6-0.8-0.6-1.2c0-0.8,0.5-1.1,1.2-1.1h2.7v0.6h-2.6c-0.5,0-0.8,0.2-0.8,0.7
		c0,0.4,0.3,0.8,0.7,1.1h2.7v0.6H52.6z"/>
</g>
<path class="st1" d="M56.1,185.7c-0.9-0.9-2.4-2.5-3.6-2.5c-0.7,0-1,0.4-1,0.9c0,0.6,0.3,0.9,0.5,1.2l-0.4,0.3
	c-0.4-0.3-0.7-0.8-0.7-1.5c0-0.9,0.5-1.6,1.4-1.6c1.2,0,2.5,1.3,3.5,2.3c0,0,0-0.3,0-0.6v-1.8h0.5v3.3H56.1z M56.1,189.7
	c-0.9-0.9-2.4-2.5-3.6-2.5c-0.7,0-1,0.4-1,0.9c0,0.6,0.3,0.9,0.5,1.2l-0.4,0.3c-0.4-0.3-0.7-0.8-0.7-1.5c0-0.9,0.5-1.6,1.4-1.6
	c1.2,0,2.5,1.3,3.5,2.3c0,0,0-0.3,0-0.6v-1.8h0.5v3.3H56.1z"/>
<g>
	<path class="st1" d="M92.1,201.6V201l5.3-2v0.7l-1.3,0.5v2.4l1.3,0.5v0.6L92.1,201.6z M95.6,200.3l-1.8,0.7
		c-0.4,0.2-0.7,0.2-0.9,0.3v0c0.3,0.1,0.5,0.2,0.9,0.3l1.8,0.7V200.3z"/>
</g>
<g>
	<path class="st1" d="M93.6,198.1v-0.6H94c-0.2-0.2-0.5-0.6-0.5-1.1c0-0.9,0.7-1.6,2-1.6c1.2,0,2,0.7,2,1.7c0,0.5-0.2,0.8-0.3,1h2
		v0.6H93.6z M95.5,195.5c-0.9,0-1.5,0.3-1.5,1.1c0,0.5,0.4,0.9,0.5,1h2.1c0.2-0.2,0.4-0.4,0.4-0.9C97,195.9,96.4,195.5,95.5,195.5z"
		/>
	<path class="st1" d="M93.6,193.9v-0.6h0.6c-0.3-0.2-0.7-0.5-0.7-1c0-0.2,0.1-0.4,0.1-0.4l0.6,0.1c0,0-0.1,0.1-0.1,0.3
		c0,0.6,0.7,0.9,0.8,0.9h2.6v0.6H93.6z"/>
</g>
<path class="st1" d="M97.1,185.7c-0.9-0.9-2.4-2.5-3.6-2.5c-0.7,0-1,0.4-1,0.9c0,0.6,0.3,0.9,0.5,1.2l-0.4,0.3
	c-0.4-0.3-0.7-0.8-0.7-1.5c0-0.9,0.5-1.6,1.4-1.6c1.2,0,2.5,1.3,3.5,2.3c0,0,0-0.3,0-0.6v-1.8h0.5v3.3H97.1z M97.1,189.7
	c-0.9-0.9-2.4-2.5-3.6-2.5c-0.7,0-1,0.4-1,0.9c0,0.6,0.3,0.9,0.5,1.2l-0.4,0.3c-0.4-0.3-0.7-0.8-0.7-1.5c0-0.9,0.5-1.6,1.4-1.6
	c1.2,0,2.5,1.3,3.5,2.3c0,0,0-0.3,0-0.6v-1.8h0.5v3.3H97.1z"/>
<g>
	<path class="st1" d="M71.6,204v-0.6l3.6-1.3c0.4-0.2,0.7-0.2,1-0.3v0c-0.3-0.1-0.5-0.2-1-0.3l-3.6-1.3v-0.6l5.3-0.7v0.6l-3.5,0.5
		c-0.4,0-0.6,0.1-0.7,0.1v0c0.2,0.1,0.4,0.1,0.7,0.2l3.5,1.3v0.6l-3.5,1.3c-0.3,0.1-0.6,0.2-0.7,0.3v0c0.2,0,0.4,0,0.8,0.1l3.5,0.4
		v0.6L71.6,204z"/>
</g>
<g>
	<path class="st1" d="M76,197.9c-1,0-1.3-1.1-1.3-2v-0.2h-0.4c-0.6,0-0.8,0.2-0.8,0.8c0,0.4,0.1,0.7,0.4,1l-0.4,0.3
		c-0.4-0.4-0.5-0.8-0.5-1.4c0-0.8,0.4-1.3,1.3-1.3h1.8c0.4,0,0.7,0,0.9-0.1v0.6c-0.1,0-0.3,0-0.5,0.1c0.3,0.3,0.6,0.7,0.6,1.2
		C77,197.5,76.6,197.9,76,197.9z M76,195.7h-0.9v0.2c0,0.8,0.2,1.4,0.9,1.4c0.4,0,0.5-0.3,0.5-0.6C76.5,196.3,76.3,196,76,195.7z"/>
	<path class="st1" d="M73.1,193.9v-0.6h0.6c-0.3-0.2-0.7-0.5-0.7-1c0-0.2,0.1-0.4,0.1-0.4l0.6,0.1c0,0-0.1,0.1-0.1,0.3
		c0,0.6,0.7,0.9,0.8,0.9H77v0.6H73.1z"/>
</g>
<path class="st1" d="M76.6,185.7c-0.9-0.9-2.4-2.5-3.6-2.5c-0.7,0-1,0.4-1,0.9c0,0.6,0.3,0.9,0.5,1.2l-0.4,0.3
	c-0.4-0.3-0.7-0.8-0.7-1.5c0-0.9,0.5-1.6,1.4-1.6c1.2,0,2.5,1.3,3.5,2.3c0,0,0-0.3,0-0.6v-1.8H77v3.3H76.6z M76.6,189.7
	c-0.9-0.9-2.4-2.5-3.6-2.5c-0.7,0-1,0.4-1,0.9c0,0.6,0.3,0.9,0.5,1.2l-0.4,0.3c-0.4-0.3-0.7-0.8-0.7-1.5c0-0.9,0.5-1.6,1.4-1.6
	c1.2,0,2.5,1.3,3.5,2.3c0,0,0-0.3,0-0.6v-1.8H77v3.3H76.6z"/>
<g>
	<path class="st1" d="M119.3,202.7l-0.5-0.1c0-0.1,0.1-0.2,0.1-0.3c0-0.4-0.3-0.6-0.9-0.6h-5.3V201h5.4c0.9,0,1.4,0.4,1.4,1.2
		C119.4,202.5,119.4,202.6,119.3,202.7z"/>
</g>
<g>
	<path class="st1" d="M116.8,199.6h-2.7V199h2.6c0.5,0,0.8-0.2,0.8-0.7c0-0.6-0.6-1-0.7-1.1h-2.7v-0.6h3c0.3,0,0.7,0,0.8-0.1v0.6
		c-0.1,0-0.4,0-0.6,0.1c0.2,0.2,0.7,0.6,0.7,1.2C118,199.3,117.5,199.6,116.8,199.6z"/>
	<path class="st1" d="M114.1,195.3v-0.6h0.6c-0.4-0.3-0.6-0.8-0.6-1.2c0-0.8,0.5-1.1,1.2-1.1h2.7v0.6h-2.6c-0.5,0-0.8,0.2-0.8,0.7
		c0,0.4,0.3,0.8,0.7,1.1h2.7v0.6H114.1z"/>
</g>
<path class="st1" d="M117.6,185.7c-0.9-0.9-2.4-2.5-3.6-2.5c-0.7,0-1,0.4-1,0.9c0,0.6,0.3,0.9,0.5,1.2l-0.4,0.3
	c-0.4-0.3-0.7-0.8-0.7-1.5c0-0.9,0.5-1.6,1.4-1.6c1.2,0,2.5,1.3,3.5,2.3c0,0,0-0.3,0-0.6v-1.8h0.5v3.3H117.6z M117.6,189.7
	c-0.9-0.9-2.4-2.5-3.6-2.5c-0.7,0-1,0.4-1,0.9c0,0.6,0.3,0.9,0.5,1.2l-0.4,0.3c-0.4-0.3-0.7-0.8-0.7-1.5c0-0.9,0.5-1.6,1.4-1.6
	c1.2,0,2.5,1.3,3.5,2.3c0,0,0-0.3,0-0.6v-1.8h0.5v3.3H117.6z"/>
<g>
	<path class="st1" d="M139.8,200.4l-0.5-0.1c0-0.1,0.1-0.2,0.1-0.3c0-0.4-0.3-0.6-0.9-0.6H133v-0.6h5.4c0.9,0,1.4,0.4,1.4,1.2
		C139.9,200.1,139.8,200.3,139.8,200.4z"/>
</g>
<g>
	<path class="st1" d="M137.3,197.3h-2.7v-0.6h2.6c0.5,0,0.8-0.2,0.8-0.7c0-0.6-0.6-1-0.7-1.1h-2.7v-0.6h3c0.3,0,0.7,0,0.8-0.1v0.6
		c-0.1,0-0.4,0-0.6,0.1c0.2,0.2,0.7,0.6,0.7,1.2C138.5,197,137.9,197.3,137.3,197.3z"/>
	<path class="st1" d="M132.6,193v-0.6h5.8v0.6H132.6z"/>
</g>
<path class="st1" d="M138,185.7c-0.9-0.9-2.4-2.5-3.6-2.5c-0.7,0-1,0.4-1,0.9c0,0.6,0.3,0.9,0.5,1.2l-0.4,0.3
	c-0.4-0.3-0.7-0.8-0.7-1.5c0-0.9,0.5-1.6,1.4-1.6c1.2,0,2.5,1.3,3.5,2.3c0,0,0-0.3,0-0.6v-1.8h0.5v3.3H138z M138,189.7
	c-0.9-0.9-2.4-2.5-3.6-2.5c-0.7,0-1,0.4-1,0.9c0,0.6,0.3,0.9,0.5,1.2l-0.4,0.3c-0.4-0.3-0.7-0.8-0.7-1.5c0-0.9,0.5-1.6,1.4-1.6
	c1.2,0,2.5,1.3,3.5,2.3c0,0,0-0.3,0-0.6v-1.8h0.5v3.3H138z"/>
<g>
	<path class="st1" d="M158.4,203.6l-0.4-0.3c0.1-0.1,0.5-0.5,0.5-1.2c0-0.7-0.4-1.1-0.9-1.1c-0.6,0-0.9,0.6-1.2,1.2
		c-0.3,0.6-0.7,1.2-1.5,1.2c-0.9,0-1.4-0.7-1.4-1.6c0-0.8,0.3-1.2,0.4-1.4l0.5,0.3c-0.1,0.2-0.4,0.5-0.4,1.1c0,0.5,0.3,0.9,0.8,0.9
		c0.5,0,0.8-0.4,1-1c0.3-0.7,0.7-1.5,1.7-1.5c0.8,0,1.4,0.7,1.4,1.7C158.9,202.9,158.6,203.4,158.4,203.6z"/>
</g>
<g>
	<path class="st1" d="M156.9,199.6c-1.1,0-2-0.7-2-1.7c0-1,0.7-1.5,1.7-1.5c0.1,0,0.2,0,0.3,0v2.6c0.8,0,1.5-0.3,1.5-1.2
		c0-0.5-0.2-0.9-0.3-1.1l0.5-0.2c0.1,0.2,0.4,0.6,0.4,1.3C158.9,199,158,199.6,156.9,199.6z M156.4,196.9c-0.5,0-1,0.3-1,0.9
		c0,0.6,0.4,1,1,1.1V196.9z"/>
	<path class="st1" d="M155,195.3v-0.6h0.4c-0.2-0.2-0.5-0.6-0.5-1.1c0-0.9,0.7-1.6,2-1.6c1.2,0,2,0.7,2,1.7c0,0.5-0.2,0.8-0.3,1h2
		v0.6H155z M156.9,192.7c-0.9,0-1.5,0.3-1.5,1.1c0,0.5,0.4,0.9,0.5,1h2.1c0.2-0.2,0.4-0.4,0.4-0.9
		C158.4,193.1,157.8,192.7,156.9,192.7z"/>
</g>
<path class="st1" d="M158.5,185.7c-0.9-0.9-2.4-2.5-3.6-2.5c-0.7,0-1,0.4-1,0.9c0,0.6,0.3,0.9,0.5,1.2l-0.4,0.3
	c-0.4-0.3-0.7-0.8-0.7-1.5c0-0.9,0.5-1.6,1.4-1.6c1.2,0,2.5,1.3,3.5,2.3c0,0,0-0.3,0-0.6v-1.8h0.5v3.3H158.5z M158.5,189.7
	c-0.9-0.9-2.4-2.5-3.6-2.5c-0.7,0-1,0.4-1,0.9c0,0.6,0.3,0.9,0.5,1.2l-0.4,0.3c-0.4-0.3-0.7-0.8-0.7-1.5c0-0.9,0.5-1.6,1.4-1.6
	c1.2,0,2.5,1.3,3.5,2.3c0,0,0-0.3,0-0.6v-1.8h0.5v3.3H158.5z"/>
<g>
	<path class="st1" d="M174,202.9v-2.8h0.5v2.2h1.7v-1.9h0.5v1.9h2.6v0.6H174z"/>
</g>
<g>
	<path class="st1" d="M177.4,199.5c-1.1,0-2-0.7-2-1.7c0-1,0.7-1.5,1.7-1.5c0.1,0,0.2,0,0.3,0v2.6c0.8,0,1.5-0.3,1.5-1.2
		c0-0.5-0.2-0.9-0.3-1.1l0.5-0.2c0.1,0.2,0.4,0.6,0.4,1.3C179.4,198.9,178.5,199.5,177.4,199.5z M176.9,196.9c-0.5,0-1,0.3-1,0.9
		c0,0.6,0.4,1,1,1.1V196.9z"/>
	<path class="st1" d="M179.1,195.3h-5.6v-0.6h2.2c-0.2-0.2-0.4-0.6-0.4-1c0-1,0.8-1.7,2-1.7c1.2,0,2,0.8,2,1.9
		C179.4,194.5,179.3,195,179.1,195.3z M177.4,192.7c-0.8,0-1.5,0.3-1.5,1.1c0,0.3,0.2,0.7,0.4,0.8h2.5c0.1-0.2,0.1-0.4,0.1-0.7
		C178.9,193.1,178.2,192.7,177.4,192.7z"/>
</g>
<path class="st1" d="M179,185.7c-0.9-0.9-2.4-2.5-3.6-2.5c-0.7,0-1,0.4-1,0.9c0,0.6,0.3,0.9,0.5,1.2l-0.4,0.3
	c-0.4-0.3-0.7-0.8-0.7-1.5c0-0.9,0.5-1.6,1.4-1.6c1.2,0,2.5,1.3,3.5,2.3c0,0,0-0.3,0-0.6v-1.8h0.5v3.3H179z M179,189.7
	c-0.9-0.9-2.4-2.5-3.6-2.5c-0.7,0-1,0.4-1,0.9c0,0.6,0.3,0.9,0.5,1.2l-0.4,0.3c-0.4-0.3-0.7-0.8-0.7-1.5c0-0.9,0.5-1.6,1.4-1.6
	c1.2,0,2.5,1.3,3.5,2.3c0,0,0-0.3,0-0.6v-1.8h0.5v3.3H179z"/>
<g>
	<path class="st1" d="M194.5,203.9v-1.2c0-2.1,1.1-3,2.6-3s2.7,0.9,2.7,3.1v1.2H194.5z M199.3,202.6c0-1.5-0.8-2.3-2.2-2.3
		c-1.4,0-2.1,0.8-2.1,2.4v0.6h4.3V202.6z"/>
</g>
<g>
	<path class="st1" d="M197.8,198.9c-1.1,0-2-0.7-2-1.7c0-1,0.7-1.5,1.7-1.5c0.1,0,0.2,0,0.3,0v2.6c0.8,0,1.5-0.3,1.5-1.2
		c0-0.5-0.2-0.9-0.3-1.1l0.5-0.2c0.1,0.2,0.4,0.6,0.4,1.3C199.9,198.3,199,198.9,197.8,198.9z M197.4,196.2c-0.5,0-1,0.3-1,0.9
		c0,0.6,0.4,1,1,1.1V196.2z"/>
	<path class="st1" d="M197.9,195c-1.3,0-2-0.8-2-1.8c0-0.6,0.2-1,0.4-1.2l0.4,0.3c-0.2,0.2-0.3,0.5-0.3,0.9c0,0.8,0.7,1.1,1.5,1.1
		c0.8,0,1.5-0.4,1.5-1.2c0-0.5-0.2-0.8-0.3-0.9l0.4-0.2c0.1,0.2,0.4,0.5,0.4,1.2C199.9,194.3,198.9,195,197.9,195z"/>
</g>
<path class="st1" d="M199.4,185.7c-0.9-0.9-2.4-2.5-3.6-2.5c-0.7,0-1,0.4-1,0.9c0,0.6,0.3,0.9,0.5,1.2l-0.4,0.3
	c-0.4-0.3-0.7-0.8-0.7-1.5c0-0.9,0.5-1.6,1.4-1.6c1.2,0,2.5,1.3,3.5,2.3c0,0,0-0.3,0-0.6v-1.8h0.5v3.3H199.4z M199.4,189.7
	c-0.9-0.9-2.4-2.5-3.6-2.5c-0.7,0-1,0.4-1,0.9c0,0.6,0.3,0.9,0.5,1.2l-0.4,0.3c-0.4-0.3-0.7-0.8-0.7-1.5c0-0.9,0.5-1.6,1.4-1.6
	c1.2,0,2.5,1.3,3.5,2.3c0,0,0-0.3,0-0.6v-1.8h0.5v3.3H199.4z"/>
<g>
	<path class="st1" d="M221.7,202l-0.5-0.1c0-0.1,0.1-0.2,0.1-0.3c0-0.4-0.3-0.6-0.9-0.6h-5.3v-0.6h5.4c0.9,0,1.4,0.4,1.4,1.2
		C221.8,201.8,221.7,201.9,221.7,202z"/>
</g>
<g>
	<path class="st1" d="M219.3,199.2c-1,0-1.3-1.1-1.3-2v-0.2h-0.4c-0.6,0-0.8,0.2-0.8,0.8c0,0.4,0.1,0.7,0.4,1l-0.4,0.3
		c-0.4-0.4-0.5-0.8-0.5-1.4c0-0.8,0.4-1.3,1.3-1.3h1.8c0.4,0,0.7,0,0.9-0.1v0.6c-0.1,0-0.3,0-0.5,0.1c0.3,0.3,0.6,0.7,0.6,1.2
		C220.4,198.7,219.9,199.2,219.3,199.2z M219.3,196.9h-0.9v0.2c0,0.8,0.2,1.4,0.9,1.4c0.4,0,0.5-0.3,0.5-0.6
		C219.8,197.5,219.6,197.2,219.3,196.9z"/>
	<path class="st1" d="M216.4,195.1v-0.6h0.6c-0.4-0.3-0.6-0.8-0.6-1.2c0-0.8,0.5-1.1,1.2-1.1h2.7v0.6h-2.6c-0.5,0-0.8,0.2-0.8,0.7
		c0,0.4,0.3,0.8,0.7,1.1h2.7v0.6H216.4z"/>
</g>
<path class="st1" d="M220.3,185.4l-0.5-0.1c0-0.1,0.1-0.3,0.1-0.7c0-1-0.4-1.5-1.1-1.5c-0.8,0-1.1,0.7-1.1,1.7h-0.4
	c0-0.8-0.4-1.6-1.1-1.6c-0.4,0-0.7,0.3-0.7,0.9c0,0.5,0.2,0.8,0.4,1.1l-0.4,0.3c-0.2-0.3-0.5-0.8-0.5-1.4c0-1,0.5-1.5,1.2-1.5
	c0.7,0,1.1,0.6,1.3,1.2h0c0.1-0.7,0.6-1.3,1.4-1.3c1.1,0,1.7,0.9,1.7,2.1C220.4,185,220.3,185.3,220.3,185.4z M219.9,189.4
	c-0.9-0.9-2.4-2.5-3.6-2.5c-0.7,0-1,0.4-1,0.9c0,0.6,0.3,0.9,0.5,1.2l-0.4,0.3c-0.4-0.3-0.7-0.8-0.7-1.5c0-0.9,0.5-1.6,1.4-1.6
	c1.2,0,2.5,1.3,3.5,2.3c0,0,0-0.3,0-0.6v-1.8h0.5v3.3H219.9z"/>
<line class="st0" x1="217.7" y1="179.6" x2="217.7" y2="175.8"/>
<line class="st0" x1="176.8" y1="179.6" x2="176.8" y2="175.8"/>
<line class="st0" x1="197.3" y1="179.6" x2="197.3" y2="175.8"/>
<line class="st0" x1="156.3" y1="179.6" x2="156.3" y2="175.8"/>
<line class="st0" x1="135.9" y1="179.6" x2="135.9" y2="175.8"/>
<line class="st0" x1="115.4" y1="179.6" x2="115.4" y2="175.8"/>
<line class="st0" x1="54" y1="179.6" x2="54" y2="175.8"/>
<line class="st0" x1="33.5" y1="179.6" x2="33.5" y2="175.8"/>
<line class="st0" x1="23" y1="17.6" x2="23" y2="176.2"/>
<line class="st0" x1="227.1" y1="17.6" x2="227.1" y2="176.2"/>
<line class="st0" x1="94.9" y1="179.6" x2="94.9" y2="175.8"/>
<line class="st0" x1="74.4" y1="179.6" x2="74.4" y2="175.8"/>
<line class="st0" x1="21.7" y1="17.5" x2="229.1" y2="17.5"/>
<line class="st0" x1="21.7" y1="56.7" x2="229.1" y2="56.7"/>
<line class="st0" x1="21.7" y1="96.7" x2="229.1" y2="96.7"/>
<line class="st0" x1="21.7" y1="135.6" x2="229.1" y2="135.6"/>
<rect x="29.8" y="161.3" class="st2" width="7.4" height="14.6"/>
<rect x="50.3" y="160.2" class="st2" width="7.4" height="15.7"/>
<rect x="70.8" y="146.6" class="st2" width="7.4" height="29.3"/>
<rect x="91.2" y="133.8" class="st2" width="7.4" height="42"/>
<rect x="111.7" y="117.1" class="st2" width="7.4" height="58.8"/>
<rect x="132.2" y="103.2" class="st2" width="7.4" height="72.7"/>
<rect x="152.6" y="81.1" class="st2" width="7.4" height="94.8"/>
<rect x="173.1" y="67.8" class="st2" width="7.4" height="108.1"/>
<rect x="193.6" y="42" class="st2" width="7.4" height="133.9"/>
<rect x="214.1" y="29.8" class="st2" width="7.4" height="146.1"/>
<polyline class="st3" points="33.7,155.6 54.5,154.5 74.6,141.9 95.3,130.4 115.4,114.4 136.1,101.8 156.2,82.3 177,69.7 
	197.1,46.8 217.8,35.3 "/>
<g>
	<g>
		<path class="st1" d="M9,222.5h0.6v5.3H9V222.5z"/>
		<path class="st1" d="M11.1,224h0.6v0.5c0.2-0.2,0.5-0.6,1.2-0.6c0.6,0,0.9,0.3,1,0.6c0.3-0.3,0.7-0.6,1.2-0.6
			c0.8,0,1.1,0.5,1.1,1.2v2.7h-0.6v-2.6c0-0.5-0.1-0.8-0.6-0.8c-0.5,0-0.8,0.4-1,0.6v2.8h-0.6v-2.6c0-0.5-0.2-0.8-0.6-0.8
			c-0.6,0-1,0.6-1,0.7v2.7h-0.6V224z"/>
		<path class="st1" d="M17.4,224H18v0.4c0.2-0.2,0.6-0.5,1.1-0.5c0.9,0,1.6,0.7,1.6,2c0,1.2-0.7,2-1.7,2c-0.5,0-0.8-0.2-1-0.3v2
			h-0.6V224z M20.1,226c0-0.9-0.3-1.5-1.1-1.5c-0.5,0-0.9,0.4-1,0.5v2.1c0.2,0.2,0.4,0.4,0.9,0.4C19.7,227.5,20.1,226.8,20.1,226z"
			/>
		<path class="st1" d="M21.7,222.1h0.6v5.8h-0.6V222.1z"/>
		<path class="st1" d="M23.5,222.9c0-0.2,0.2-0.4,0.4-0.4s0.4,0.2,0.4,0.4s-0.2,0.4-0.4,0.4S23.5,223.1,23.5,222.9z M23.6,224h0.6
			v3.8h-0.6V224z"/>
		<path class="st1" d="M25.2,225.9c0-1.1,0.7-2,1.7-2c1,0,1.5,0.7,1.5,1.7c0,0.1,0,0.2,0,0.3h-2.6c0,0.8,0.3,1.5,1.2,1.5
			c0.5,0,0.9-0.2,1.1-0.3l0.2,0.5c-0.2,0.1-0.6,0.4-1.3,0.4C25.9,228,25.2,227.1,25.2,225.9z M27.9,225.5c0-0.5-0.3-1-0.9-1
			c-0.6,0-1,0.4-1.1,1H27.9z"/>
		<path class="st1" d="M29.2,226c0-1.2,0.7-2,1.7-2c0.4,0,0.7,0.1,1,0.3v-2.2h0.6v5c0,0.3,0,0.6,0.1,0.8h-0.6c0-0.1-0.1-0.3-0.1-0.4
			c-0.3,0.3-0.6,0.5-1.1,0.5C29.8,228,29.2,227.2,29.2,226z M31.8,226.9v-2.1c-0.2-0.2-0.5-0.4-0.9-0.4c-0.7,0-1.1,0.6-1.1,1.5
			c0,0.9,0.3,1.5,1.1,1.5C31.2,227.4,31.6,227.2,31.8,226.9z"/>
		<path class="st1" d="M35.6,222.5h1.3c1.1,0,1.9,0.5,1.9,1.5c0,1-0.7,1.6-2,1.6h-0.6v2.2h-0.6V222.5z M36.8,225.2
			c0.9,0,1.3-0.4,1.3-1.1c0-0.6-0.4-1-1.3-1h-0.6v2.1H36.8z"/>
		<path class="st1" d="M39.3,226c0-0.9,0.5-2,1.8-2c1.3,0,1.8,1.1,1.8,2c0,0.9-0.5,2-1.8,2C39.8,228,39.3,226.9,39.3,226z M42.3,226
			c0-0.8-0.4-1.5-1.2-1.5c-0.8,0-1.1,0.7-1.1,1.5c0,0.8,0.4,1.5,1.2,1.5S42.3,226.8,42.3,226z"/>
		<path class="st1" d="M43.9,222.1h0.6v5.8h-0.6V222.1z"/>
		<path class="st1" d="M45.7,222.9c0-0.2,0.2-0.4,0.4-0.4c0.2,0,0.4,0.2,0.4,0.4s-0.2,0.4-0.4,0.4C45.9,223.3,45.7,223.1,45.7,222.9
			z M45.9,224h0.6v3.8h-0.6V224z"/>
		<path class="st1" d="M47.5,225.9c0-1.3,0.8-2,1.8-2c0.6,0,1,0.2,1.2,0.4l-0.3,0.4c-0.2-0.2-0.5-0.3-0.9-0.3
			c-0.8,0-1.1,0.7-1.1,1.5c0,0.8,0.4,1.5,1.2,1.5c0.5,0,0.8-0.2,0.9-0.3l0.2,0.4c-0.2,0.1-0.5,0.4-1.2,0.4
			C48.1,228,47.5,227,47.5,225.9z"/>
		<path class="st1" d="M50.8,229.7l0.1-0.5c0.1,0,0.1,0,0.3,0c0.5,0,0.8-0.3,1-0.9l0.2-0.5l-1.4-3.8h0.7l1.1,3.1h0l1.1-3.1h0.6
			l-1.6,4.3c-0.3,0.7-0.6,1.3-1.5,1.3C51,229.7,50.9,229.7,50.8,229.7z"/>
		<path class="st1" d="M57,222.5h1.4c1.1,0,1.8,0.5,1.8,1.4c0,0.9-0.6,1.3-1.5,1.4v0c0.1,0.1,0.2,0.2,0.6,0.7l1.3,1.8h-0.7l-1.1-1.5
			c-0.6-0.9-0.7-0.9-1.1-0.9h-0.1v2.5H57V222.5z M58.5,224.9c0.8,0,1.2-0.3,1.2-0.9c0-0.6-0.4-0.9-1.2-0.9h-0.8v1.8H58.5z"/>
		<path class="st1" d="M61.2,226.9c0-1,1.1-1.3,2-1.3h0.2v-0.4c0-0.6-0.2-0.8-0.8-0.8c-0.4,0-0.7,0.1-1,0.4l-0.3-0.4
			c0.4-0.4,0.8-0.5,1.4-0.5c0.8,0,1.3,0.4,1.3,1.3v1.8c0,0.4,0,0.7,0.1,0.9h-0.6c0-0.1,0-0.3-0.1-0.5c-0.3,0.3-0.7,0.6-1.2,0.6
			C61.6,228,61.2,227.6,61.2,226.9z M63.4,226.9V226h-0.2c-0.8,0-1.4,0.2-1.4,0.9c0,0.4,0.3,0.5,0.6,0.5
			C62.8,227.5,63.2,227.2,63.4,226.9z"/>
		<path class="st1" d="M65.4,226.9v-2.5h-0.6V224h0.6v-1.1H66v1.1h1v0.5h-1v2.4c0,0.4,0.1,0.6,0.4,0.6c0.2,0,0.5-0.1,0.5-0.2
			l0.2,0.4c-0.1,0.1-0.4,0.2-0.8,0.2C65.7,228,65.4,227.6,65.4,226.9z"/>
		<path class="st1" d="M67.7,225.9c0-1.1,0.7-2,1.7-2c1,0,1.5,0.7,1.5,1.7c0,0.1,0,0.2,0,0.3h-2.6c0,0.8,0.3,1.5,1.2,1.5
			c0.5,0,0.9-0.2,1.1-0.3l0.2,0.5c-0.2,0.1-0.6,0.4-1.3,0.4C68.3,228,67.7,227.1,67.7,225.9z M70.3,225.5c0-0.5-0.3-1-0.9-1
			c-0.6,0-1,0.4-1.1,1H70.3z"/>
		<path class="st1" d="M73.5,225.6c0-1.3,0.6-2.6,1.4-3.5h0.6c-0.7,0.7-1.4,1.9-1.4,3.5c0,1.5,0.5,2.7,1.4,3.7h-0.6
			C74,228.3,73.5,227,73.5,225.6z"/>
	</g>
	<path class="st1" d="M75.8,223.8c0-0.6,0.4-1.3,1.4-1.3c1,0,1.4,0.7,1.4,1.3c0,0.6-0.4,1.3-1.4,1.3
		C76.2,225.1,75.8,224.4,75.8,223.8z M78,223.8c0-0.5-0.3-0.9-0.9-0.9s-0.9,0.4-0.9,0.9c0,0.5,0.3,0.9,0.9,0.9
		C77.7,224.7,78,224.3,78,223.8z M80.2,222.5h0.6l-3.4,5.3h-0.6L80.2,222.5z M79.1,226.6c0-0.6,0.4-1.3,1.4-1.3c1,0,1.4,0.7,1.4,1.3
		c0,0.6-0.4,1.3-1.4,1.3C79.5,227.9,79.1,227.2,79.1,226.6z M81.3,226.6c0-0.5-0.3-0.9-0.9-0.9s-0.9,0.4-0.9,0.9
		c0,0.5,0.3,0.9,0.9,0.9C81,227.5,81.3,227.1,81.3,226.6z"/>
	<g>
		<path class="st1" d="M83.5,225.8c0-1.5-0.5-2.7-1.4-3.7h0.6c0.9,1,1.4,2.3,1.4,3.7c0,1.4-0.6,2.6-1.4,3.5h-0.6
			C82.8,228.6,83.5,227.4,83.5,225.8z"/>
		<path class="st1" d="M85.3,228.1c0-0.3-0.4-0.3-0.4-0.7c0-0.2,0.2-0.4,0.4-0.4c0.3,0,0.5,0.2,0.5,0.6c0,0.4-0.2,0.9-0.5,1.4H85
			C85.2,228.7,85.3,228.3,85.3,228.1z"/>
		<path class="st1" d="M88.9,222.5h0.6v4.8h2.1v0.5h-2.7V222.5z"/>
		<path class="st1" d="M92.4,227.5c0-0.3,0.2-0.5,0.5-0.5s0.5,0.2,0.5,0.5c0,0.3-0.2,0.5-0.5,0.5S92.4,227.7,92.4,227.5z"/>
		<path class="st1" d="M94.5,222.5h0.6v2.3h3v-2.3h0.6v5.3h-0.6v-2.5h-3v2.5h-0.6V222.5z"/>
		<path class="st1" d="M100,227.5c0-0.3,0.2-0.5,0.5-0.5s0.5,0.2,0.5,0.5c0,0.3-0.2,0.5-0.5,0.5S100,227.7,100,227.5z"/>
		<path class="st1" d="M101.7,227.4l0.3-0.4c0.1,0.1,0.5,0.5,1.2,0.5c0.7,0,1.1-0.4,1.1-0.9c0-0.6-0.6-0.9-1.2-1.2
			c-0.6-0.3-1.2-0.7-1.2-1.5c0-0.9,0.7-1.4,1.6-1.4c0.8,0,1.2,0.3,1.4,0.4l-0.3,0.5c-0.2-0.1-0.5-0.4-1.1-0.4
			c-0.5,0-0.9,0.3-0.9,0.8c0,0.5,0.4,0.8,1,1c0.7,0.3,1.5,0.7,1.5,1.7c0,0.8-0.7,1.4-1.7,1.4C102.4,228,101.9,227.6,101.7,227.4z"/>
	</g>
	<line class="st4" x1="0" y1="226" x2="6" y2="226"/>
	<g>
		<path class="st1" d="M8.9,233.6h0.6l2.5,3.6c0.2,0.4,0.4,0.6,0.5,0.8h0c0-0.1,0-0.3,0-0.7v-3.7h0.6v5.3h-0.6l-2.6-3.8
			c-0.2-0.2-0.3-0.5-0.4-0.7h0c0,0.1,0,0.3,0,0.6v3.9H8.9V233.6z"/>
		<path class="st1" d="M14.4,237.8v-2.7H15v2.6c0,0.5,0.2,0.8,0.7,0.8c0.6,0,1-0.6,1.1-0.7v-2.7h0.6v3c0,0.3,0,0.7,0.1,0.8h-0.6
			c0-0.1,0-0.4-0.1-0.6c-0.2,0.2-0.6,0.7-1.2,0.7C14.7,239,14.4,238.5,14.4,237.8z"/>
		<path class="st1" d="M18.7,235.1h0.6v0.5c0.2-0.2,0.5-0.6,1.2-0.6c0.6,0,0.9,0.3,1,0.6c0.3-0.3,0.7-0.6,1.2-0.6
			c0.8,0,1.1,0.5,1.1,1.2v2.7h-0.6v-2.6c0-0.5-0.1-0.8-0.6-0.8c-0.5,0-0.8,0.4-1,0.6v2.8h-0.6v-2.6c0-0.5-0.2-0.8-0.6-0.8
			c-0.6,0-1,0.6-1,0.7v2.7h-0.6V235.1z"/>
		<path class="st1" d="M25,238.7v-5.6h0.6v2.2c0.2-0.2,0.6-0.4,1-0.4c1,0,1.7,0.8,1.7,2c0,1.2-0.8,2-1.9,2
			C25.7,239,25.2,238.9,25,238.7z M27.5,237c0-0.8-0.3-1.5-1.1-1.5c-0.3,0-0.7,0.2-0.8,0.4v2.5c0.2,0.1,0.4,0.1,0.7,0.1
			C27.1,238.5,27.5,237.8,27.5,237z"/>
		<path class="st1" d="M28.8,237c0-1.1,0.7-2,1.7-2c1,0,1.5,0.7,1.5,1.7c0,0.1,0,0.2,0,0.3h-2.6c0,0.8,0.3,1.5,1.2,1.5
			c0.5,0,0.9-0.2,1.1-0.3l0.2,0.5c-0.2,0.1-0.6,0.4-1.3,0.4C29.4,239,28.8,238.1,28.8,237z M31.5,236.5c0-0.5-0.3-1-0.9-1
			c-0.6,0-1,0.4-1.1,1H31.5z"/>
		<path class="st1" d="M33.1,235.1h0.6v0.6c0.2-0.3,0.5-0.7,1-0.7c0.2,0,0.4,0.1,0.4,0.1l-0.1,0.6c0,0-0.1-0.1-0.3-0.1
			c-0.6,0-0.9,0.7-0.9,0.8v2.6h-0.6V235.1z"/>
		<path class="st1" d="M37.3,237c0-0.9,0.5-2,1.8-2c1.3,0,1.8,1.1,1.8,2c0,0.9-0.5,2-1.8,2C37.8,239,37.3,237.9,37.3,237z M40.2,237
			c0-0.8-0.4-1.5-1.2-1.5c-0.8,0-1.1,0.7-1.1,1.5c0,0.8,0.4,1.5,1.2,1.5C39.9,238.5,40.2,237.8,40.2,237z"/>
		<path class="st1" d="M42,235.5h-0.6v-0.5H42v-0.6c0-0.9,0.5-1.4,1.4-1.4c0.4,0,0.6,0.1,0.6,0.1l-0.2,0.5c0,0-0.2-0.1-0.5-0.1
			c-0.5,0-0.8,0.3-0.8,1v0.5h1v0.5h-1v3.4H42V235.5z"/>
		<path class="st1" d="M46.3,233.6h0.6v2.3h3v-2.3h0.6v5.3h-0.6v-2.5h-3v2.5h-0.6V233.6z"/>
		<path class="st1" d="M51.8,233.9c0-0.2,0.2-0.4,0.4-0.4c0.2,0,0.4,0.2,0.4,0.4s-0.2,0.4-0.4,0.4C52,234.4,51.8,234.2,51.8,233.9z
			 M51.9,235.1h0.6v3.8h-0.6V235.1z"/>
		<path class="st1" d="M53.9,233.2h0.6v5.8h-0.6V233.2z M54.5,236.8l1.6-1.7h0.7l-1.6,1.7l1.7,2.1h-0.7L54.5,236.8z"/>
		<path class="st1" d="M57.2,237c0-1.1,0.7-2,1.7-2c1,0,1.5,0.7,1.5,1.7c0,0.1,0,0.2,0,0.3h-2.6c0,0.8,0.3,1.5,1.2,1.5
			c0.5,0,0.9-0.2,1.1-0.3l0.2,0.5c-0.2,0.1-0.6,0.4-1.3,0.4C57.8,239,57.2,238.1,57.2,237z M59.8,236.5c0-0.5-0.3-1-0.9-1
			c-0.6,0-1,0.4-1.1,1H59.8z"/>
		<path class="st1" d="M61.1,238.7l0.3-0.4c0.1,0.1,0.5,0.3,1,0.3c0.5,0,0.8-0.2,0.8-0.6s-0.3-0.5-0.8-0.7c-0.6-0.3-1.1-0.5-1.1-1.2
			c0-0.6,0.4-1.1,1.2-1.1c0.6,0,1,0.3,1.1,0.4l-0.3,0.4c-0.1-0.1-0.4-0.3-0.9-0.3c-0.4,0-0.6,0.2-0.6,0.5c0,0.4,0.3,0.5,0.7,0.7
			c0.6,0.3,1.2,0.5,1.2,1.2c0,0.7-0.5,1.1-1.4,1.1C61.8,239,61.4,238.8,61.1,238.7z"/>
		<path class="st1" d="M66.4,233.6H67l-1.9,5.3h-0.6L66.4,233.6z"/>
		<path class="st1" d="M67.4,236.2c0-1.4,1-2.7,2.6-2.7c0.7,0,1.1,0.2,1.5,0.4l-0.3,0.5c-0.3-0.2-0.7-0.4-1.2-0.4
			c-1.3,0-1.9,1.1-1.9,2.2c0,1.2,0.6,2.3,2,2.3c0.6,0,1-0.2,1.3-0.5l0.3,0.4c-0.3,0.3-0.9,0.5-1.6,0.5
			C68.4,239,67.4,237.7,67.4,236.2z"/>
		<path class="st1" d="M72.5,237.8v-2.7h0.6v2.6c0,0.5,0.2,0.8,0.7,0.8c0.6,0,1-0.6,1.1-0.7v-2.7h0.6v3c0,0.3,0,0.7,0.1,0.8H75
			c0-0.1,0-0.4-0.1-0.6c-0.2,0.2-0.6,0.7-1.2,0.7C72.8,239,72.5,238.5,72.5,237.8z"/>
		<path class="st1" d="M77,238v-2.5h-0.6v-0.5H77V234h0.6v1.1h1v0.5h-1v2.4c0,0.4,0.1,0.6,0.4,0.6c0.2,0,0.5-0.1,0.5-0.2l0.2,0.4
			c-0.1,0.1-0.4,0.2-0.8,0.2C77.3,239,77,238.6,77,238z"/>
		<path class="st1" d="M79.2,238.7l0.3-0.4c0.1,0.1,0.5,0.3,1,0.3c0.5,0,0.8-0.2,0.8-0.6s-0.3-0.5-0.8-0.7c-0.6-0.3-1.1-0.5-1.1-1.2
			c0-0.6,0.4-1.1,1.2-1.1c0.6,0,1,0.3,1.1,0.4l-0.3,0.4c-0.1-0.1-0.4-0.3-0.9-0.3c-0.4,0-0.6,0.2-0.6,0.5c0,0.4,0.3,0.5,0.7,0.7
			c0.6,0.3,1.2,0.5,1.2,1.2c0,0.7-0.5,1.1-1.4,1.1C79.9,239,79.5,238.8,79.2,238.7z"/>
		<path class="st1" d="M84.7,233.6h1.3c1.1,0,1.9,0.5,1.9,1.5c0,1-0.7,1.6-2,1.6h-0.6v2.2h-0.6V233.6z M86,236.2
			c0.9,0,1.3-0.4,1.3-1.1c0-0.6-0.4-1-1.3-1h-0.6v2.1H86z"/>
		<path class="st1" d="M88.9,235.1h0.6v0.6c0.2-0.3,0.5-0.7,1-0.7c0.2,0,0.4,0.1,0.4,0.1l-0.1,0.6c0,0-0.1-0.1-0.3-0.1
			c-0.6,0-0.9,0.7-0.9,0.8v2.6h-0.6V235.1z"/>
		<path class="st1" d="M91.6,233.9c0-0.2,0.2-0.4,0.4-0.4c0.2,0,0.4,0.2,0.4,0.4s-0.2,0.4-0.4,0.4C91.8,234.4,91.6,234.2,91.6,233.9
			z M91.7,235.1h0.6v3.8h-0.6V235.1z"/>
		<path class="st1" d="M93.4,237c0-1.3,0.8-2,1.8-2c0.6,0,1,0.2,1.2,0.4l-0.3,0.4c-0.2-0.2-0.5-0.3-0.9-0.3c-0.8,0-1.1,0.7-1.1,1.5
			c0,0.8,0.4,1.5,1.2,1.5c0.5,0,0.8-0.2,0.9-0.3l0.2,0.4c-0.2,0.1-0.5,0.4-1.2,0.4C94,239,93.4,238.1,93.4,237z"/>
		<path class="st1" d="M96.9,237c0-1.1,0.7-2,1.7-2c1,0,1.5,0.7,1.5,1.7c0,0.1,0,0.2,0,0.3h-2.6c0,0.8,0.3,1.5,1.2,1.5
			c0.5,0,0.9-0.2,1.1-0.3l0.2,0.5c-0.2,0.1-0.6,0.4-1.3,0.4C97.5,239,96.9,238.1,96.9,237z M99.5,236.5c0-0.5-0.3-1-0.9-1
			c-0.6,0-1,0.4-1.1,1H99.5z"/>
		<path class="st1" d="M100.8,237c0-1.2,0.7-2,1.7-2c0.4,0,0.7,0.1,1,0.3v-2.2h0.6v5c0,0.3,0,0.6,0.1,0.8h-0.6
			c0-0.1-0.1-0.3-0.1-0.4c-0.3,0.3-0.6,0.5-1.1,0.5C101.5,239,100.8,238.3,100.8,237z M103.5,238v-2.1c-0.2-0.2-0.5-0.4-0.9-0.4
			c-0.7,0-1.1,0.6-1.1,1.5c0,0.9,0.3,1.5,1.1,1.5C102.8,238.5,103.2,238.3,103.5,238z"/>
		<path class="st1" d="M107.3,233.6h0.6v5.3h-0.6V233.6z"/>
		<path class="st1" d="M109.4,235.1h0.6v0.6c0.3-0.4,0.8-0.6,1.2-0.6c0.8,0,1.1,0.5,1.1,1.2v2.7h-0.6v-2.6c0-0.5-0.2-0.8-0.7-0.8
			c-0.4,0-0.8,0.3-1.1,0.7v2.7h-0.6V235.1z"/>
		<path class="st1" d="M113.7,239.2c0-0.3-0.4-0.3-0.4-0.7c0-0.2,0.2-0.4,0.4-0.4c0.3,0,0.5,0.2,0.5,0.6c0,0.4-0.2,0.9-0.5,1.4h-0.4
			C113.6,239.7,113.7,239.4,113.7,239.2z"/>
		<path class="st1" d="M117.3,233.6h1.4c1.1,0,1.8,0.5,1.8,1.4c0,0.9-0.6,1.3-1.5,1.4v0c0.1,0.1,0.2,0.2,0.6,0.7l1.3,1.8h-0.7
			l-1.1-1.5c-0.6-0.9-0.7-0.9-1.1-0.9h-0.1v2.5h-0.6V233.6z M118.7,236c0.8,0,1.2-0.3,1.2-0.9c0-0.6-0.4-0.9-1.2-0.9h-0.8v1.8H118.7
			z"/>
		<path class="st1" d="M121.5,238.5c0-0.3,0.2-0.5,0.5-0.5c0.3,0,0.5,0.2,0.5,0.5c0,0.3-0.2,0.5-0.5,0.5
			C121.7,239,121.5,238.8,121.5,238.5z"/>
		<path class="st1" d="M123.6,233.6h0.6v2.3h3v-2.3h0.6v5.3h-0.6v-2.5h-3v2.5h-0.6V233.6z"/>
		<path class="st1" d="M129,238.5c0-0.3,0.2-0.5,0.5-0.5c0.3,0,0.5,0.2,0.5,0.5c0,0.3-0.2,0.5-0.5,0.5
			C129.2,239,129,238.8,129,238.5z"/>
		<path class="st1" d="M130.8,238.5l0.3-0.4c0.1,0.1,0.5,0.5,1.2,0.5c0.7,0,1.1-0.4,1.1-0.9c0-0.6-0.6-0.9-1.2-1.2
			c-0.6-0.3-1.2-0.7-1.2-1.5c0-0.9,0.7-1.4,1.6-1.4c0.8,0,1.2,0.3,1.4,0.4l-0.3,0.5c-0.2-0.1-0.5-0.4-1.1-0.4
			c-0.5,0-0.9,0.3-0.9,0.8c0,0.5,0.4,0.8,1,1c0.7,0.3,1.5,0.7,1.5,1.7c0,0.8-0.7,1.4-1.7,1.4C131.4,239,130.9,238.7,130.8,238.5z"/>
	</g>
	<line class="st5" x1="0" y1="237" x2="6" y2="237"/>
</g>
</svg>
