<?xml version="1.0" encoding="utf-8"?>
<!-- Generator: Adobe Illustrator 26.0.1, SVG Export Plug-In . SVG Version: 6.00 Build 0)  -->
<svg version="1.1" id="Layer_3" xmlns="http://www.w3.org/2000/svg" xmlns:xlink="http://www.w3.org/1999/xlink" x="0px" y="0px"
	 viewBox="0 0 250 250" style="enable-background:new 0 0 250 250;" xml:space="preserve">
<style type="text/css">
	.st0{fill:#4D4D4F;}
	.st1{fill:none;stroke:#BCBEC0;stroke-width:0.5;}
	.st2{fill:none;stroke:#666666;stroke-width:2;}
	.st3{fill:none;stroke:#B19E4E;stroke-linecap:round;stroke-linejoin:round;stroke-miterlimit:10;}
	.st4{fill:none;stroke:#B19E4E;stroke-width:1.6;}
	.st5{fill:none;stroke:#666666;stroke-width:1.6;}
</style>
<g>
	<path class="st0" d="M24.2,186.8h1.2c2.1,0,3,1.1,3,2.6s-0.9,2.7-3.1,2.7h-1.2v-5.3H24.2z M25.5,191.7c1.5,0,2.3-0.8,2.3-2.2
		s-0.8-2.1-2.4-2.1h-0.6v4.3H25.5z"/>
</g>
<g>
	<path class="st0" d="M29.3,190.2c0-1.1,0.7-2,1.7-2s1.5,0.7,1.5,1.7c0,0.1,0,0.2,0,0.3H30c0,0.8,0.3,1.5,1.2,1.5
		c0.5,0,0.9-0.2,1.1-0.3l0.2,0.5c-0.2,0.1-0.6,0.4-1.3,0.4C29.9,192.3,29.3,191.4,29.3,190.2z M32,189.8c0-0.5-0.3-1-0.9-1
		s-1,0.4-1.1,1H32z"/>
	<path class="st0" d="M33.3,190.2c0-1.3,0.8-2,1.8-2c0.6,0,1,0.2,1.2,0.4L36,189c-0.2-0.2-0.5-0.3-0.9-0.3c-0.8,0-1.1,0.7-1.1,1.5
		s0.4,1.5,1.2,1.5c0.5,0,0.8-0.2,0.9-0.3l0.2,0.4c-0.2,0.1-0.5,0.4-1.2,0.4C33.9,192.3,33.3,191.3,33.3,190.2z"/>
</g>
<path class="st0" d="M37,189.1h1.6v0.5H37V189.1z M40.5,187.4l-1,0.3l-0.1-0.5l1.3-0.4h0.5v5.3h-0.6v-4.7L40.5,187.4L40.5,187.4z
	 M42.3,190c0-2,1.2-3.3,3.1-3.3l0.1,0.5c-0.8,0-1.4,0.2-1.9,0.6c-0.4,0.4-0.6,0.9-0.7,1.6c0.3-0.3,0.7-0.5,1.2-0.5
	c1,0,1.6,0.7,1.6,1.6s-0.6,1.7-1.7,1.7C42.9,192.3,42.3,191.1,42.3,190z M45.2,190.6c0-0.8-0.4-1.2-1.1-1.2c-0.5,0-0.8,0.2-1.1,0.5
	v0.1c0,1.1,0.4,1.8,1.2,1.8C44.9,191.8,45.2,191.2,45.2,190.6z"/>
<g>
	<path class="st0" d="M64.8,186.8H66c2.1,0,3,1.1,3,2.6s-0.9,2.7-3.1,2.7h-1.2L64.8,186.8L64.8,186.8z M66.1,191.7
		c1.5,0,2.3-0.8,2.3-2.2s-0.8-2.1-2.4-2.1h-0.6v4.3H66.1z"/>
</g>
<g>
	<path class="st0" d="M69.9,190.2c0-1.1,0.7-2,1.7-2s1.5,0.7,1.5,1.7c0,0.1,0,0.2,0,0.3h-2.6c0,0.8,0.3,1.5,1.2,1.5
		c0.5,0,0.9-0.2,1.1-0.3l0.2,0.5c-0.2,0.1-0.6,0.4-1.3,0.4C70.5,192.3,69.9,191.4,69.9,190.2z M72.6,189.8c0-0.5-0.3-1-0.9-1
		s-1,0.4-1.1,1H72.6z"/>
	<path class="st0" d="M73.9,190.2c0-1.3,0.8-2,1.8-2c0.6,0,1,0.2,1.2,0.4l-0.3,0.4c-0.2-0.2-0.5-0.3-0.9-0.3c-0.8,0-1.1,0.7-1.1,1.5
		s0.4,1.5,1.2,1.5c0.5,0,0.8-0.2,0.9-0.3l0.2,0.4c-0.2,0.1-0.5,0.4-1.2,0.4C74.5,192.3,73.9,191.3,73.9,190.2z"/>
</g>
<path class="st0" d="M77.6,189.1h1.6v0.5h-1.6V189.1z M81.1,187.4l-1,0.3l-0.1-0.5l1.3-0.4h0.5v5.3h-0.6v-4.7L81.1,187.4L81.1,187.4
	z M83.2,192.2l1.9-4.8h-2.4v-0.5h3v0.4l-2,5.1L83.2,192.2z"/>
<g>
	<path class="st0" d="M104.2,186.8h1.2c2.1,0,3,1.1,3,2.6s-0.9,2.7-3.1,2.7h-1.2L104.2,186.8L104.2,186.8z M105.5,191.7
		c1.5,0,2.3-0.8,2.3-2.2s-0.8-2.1-2.4-2.1h-0.6v4.3H105.5z"/>
</g>
<g>
	<path class="st0" d="M109.3,190.2c0-1.1,0.7-2,1.7-2s1.5,0.7,1.5,1.7c0,0.1,0,0.2,0,0.3h-2.6c0,0.8,0.3,1.5,1.2,1.5
		c0.5,0,0.9-0.2,1.1-0.3l0.2,0.5c-0.2,0.1-0.6,0.4-1.3,0.4C109.9,192.3,109.3,191.4,109.3,190.2z M111.9,189.8c0-0.5-0.3-1-0.9-1
		s-1,0.4-1.1,1H111.9z"/>
	<path class="st0" d="M113.3,190.2c0-1.3,0.8-2,1.8-2c0.6,0,1,0.2,1.2,0.4L116,189c-0.2-0.2-0.5-0.3-0.9-0.3c-0.8,0-1.1,0.7-1.1,1.5
		s0.4,1.5,1.2,1.5c0.5,0,0.8-0.2,0.9-0.3l0.2,0.4c-0.2,0.1-0.5,0.4-1.2,0.4C113.9,192.3,113.3,191.3,113.3,190.2z"/>
</g>
<path class="st0" d="M117,189.1h1.6v0.5H117V189.1z M120.5,187.4l-1,0.3l-0.1-0.5l1.3-0.4h0.5v5.3h-0.6v-4.7L120.5,187.4
	L120.5,187.4z M122.3,190.9c0-0.7,0.7-1.2,1.1-1.5c-0.5-0.3-1-0.7-1-1.3c0-0.8,0.7-1.3,1.5-1.3c0.9,0,1.5,0.5,1.5,1.3
	c0,0.7-0.6,1-1.1,1.3c0.5,0.3,1.2,0.7,1.2,1.5s-0.6,1.4-1.6,1.4C122.8,192.3,122.3,191.6,122.3,190.9z M124.9,190.8
	c0-0.6-0.6-1-1.1-1.2c-0.4,0.2-0.9,0.6-0.9,1.2c0,0.5,0.3,0.9,1,0.9C124.5,191.7,124.9,191.3,124.9,190.8z M124.8,188
	c0-0.4-0.3-0.8-0.8-0.8s-0.9,0.3-0.9,0.8s0.5,0.8,0.9,1C124.3,188.8,124.8,188.5,124.8,188z"/>
<g>
	<path class="st0" d="M143.5,186.8h1.2c2.1,0,3,1.1,3,2.6s-0.9,2.7-3.1,2.7h-1.2v-5.3H143.5z M144.7,191.7c1.5,0,2.3-0.8,2.3-2.2
		s-0.8-2.1-2.4-2.1H144v4.3H144.7z"/>
</g>
<g>
	<path class="st0" d="M148.6,190.2c0-1.1,0.7-2,1.7-2s1.5,0.7,1.5,1.7c0,0.1,0,0.2,0,0.3h-2.6c0,0.8,0.3,1.5,1.2,1.5
		c0.5,0,0.9-0.2,1.1-0.3l0.2,0.5c-0.2,0.1-0.6,0.4-1.3,0.4C149.2,192.3,148.6,191.4,148.6,190.2z M151.2,189.8c0-0.5-0.3-1-0.9-1
		c-0.6,0-1,0.4-1.1,1H151.2z"/>
	<path class="st0" d="M152.6,190.2c0-1.3,0.8-2,1.8-2c0.6,0,1,0.2,1.2,0.4l-0.3,0.4c-0.2-0.2-0.5-0.3-0.9-0.3
		c-0.8,0-1.1,0.7-1.1,1.5s0.4,1.5,1.2,1.5c0.5,0,0.8-0.2,0.9-0.3l0.2,0.4c-0.2,0.1-0.5,0.4-1.2,0.4
		C153.2,192.3,152.6,191.3,152.6,190.2z"/>
</g>
<path class="st0" d="M156.3,189.1h1.6v0.5h-1.6V189.1z M159.8,187.4l-1,0.3l-0.1-0.5l1.3-0.4h0.5v5.3h-0.6L159.8,187.4L159.8,187.4z
	 M161.8,191.8c0.8,0,1.5-0.2,1.9-0.8c0.3-0.4,0.5-0.8,0.6-1.5c-0.3,0.3-0.7,0.5-1.2,0.5c-1,0-1.6-0.7-1.6-1.6s0.6-1.7,1.7-1.7
	c1.3,0,1.8,1.2,1.8,2.3c0,2-1,3.3-3,3.3L161.8,191.8z M164.4,189.1V189c0-1.1-0.4-1.8-1.2-1.8c-0.7,0-1,0.6-1,1.2
	c0,0.8,0.4,1.2,1.1,1.2C163.7,189.6,164,189.4,164.4,189.1z"/>
<g>
	<path class="st0" d="M182.1,186.8h1.2c2.1,0,3,1.1,3,2.6s-0.9,2.7-3.1,2.7H182v-5.3H182.1z M183.3,191.7c1.5,0,2.3-0.8,2.3-2.2
		s-0.8-2.1-2.4-2.1h-0.6v4.3H183.3z"/>
</g>
<g>
	<path class="st0" d="M187.2,190.2c0-1.1,0.7-2,1.7-2s1.5,0.7,1.5,1.7c0,0.1,0,0.2,0,0.3h-2.6c0,0.8,0.3,1.5,1.2,1.5
		c0.5,0,0.9-0.2,1.1-0.3l0.2,0.5c-0.2,0.1-0.6,0.4-1.3,0.4C187.8,192.3,187.2,191.4,187.2,190.2z M189.8,189.8c0-0.5-0.3-1-0.9-1
		c-0.6,0-1,0.4-1.1,1H189.8z"/>
	<path class="st0" d="M191.2,190.2c0-1.3,0.8-2,1.8-2c0.6,0,1,0.2,1.2,0.4l-0.3,0.4c-0.2-0.2-0.5-0.3-0.9-0.3
		c-0.8,0-1.1,0.7-1.1,1.5s0.4,1.5,1.2,1.5c0.5,0,0.8-0.2,0.9-0.3l0.2,0.4c-0.2,0.1-0.5,0.4-1.2,0.4
		C191.8,192.3,191.2,191.3,191.2,190.2z"/>
</g>
<path class="st0" d="M194.9,189.1h1.6v0.5h-1.6V189.1z M197.3,191.8c0.9-0.9,2.5-2.4,2.5-3.6c0-0.7-0.4-1-0.9-1
	c-0.6,0-0.9,0.3-1.2,0.5l-0.3-0.4c0.3-0.4,0.8-0.7,1.5-0.7c0.9,0,1.6,0.5,1.6,1.4c0,1.2-1.3,2.5-2.3,3.5c0,0,0.3,0,0.6,0h1.8v0.5
	h-3.3L197.3,191.8L197.3,191.8z M201.4,189.5c0-1.3,0.5-2.8,2-2.8c1.4,0,2,1.4,2,2.8s-0.6,2.8-2,2.8S201.4,190.8,201.4,189.5z
	 M204.8,189.5c0-1.3-0.4-2.3-1.4-2.3s-1.4,1-1.4,2.3s0.4,2.3,1.4,2.3C204.4,191.8,204.8,190.8,204.8,189.5z"/>
<path class="st0" d="M20.5,17.5H18V17l2.4-3.6H21V17h0.8v0.5H21v1.2h-0.6v-1.2H20.5z M19.4,16.9h1.2v-2.7l0,0L18.7,17
	C18.8,17,19.1,16.9,19.4,16.9z M22.5,16c0-1.3,0.5-2.8,2-2.8c1.4,0,2,1.4,2,2.8s-0.6,2.8-2,2.8S22.5,17.3,22.5,16z M25.9,16
	c0-1.3-0.4-2.3-1.4-2.3s-1.4,1-1.4,2.3s0.4,2.3,1.4,2.3S25.9,17.3,25.9,16z M27.4,16c0-1.3,0.5-2.8,2-2.8c1.4,0,2,1.4,2,2.8
	s-0.6,2.8-2,2.8S27.4,17.3,27.4,16z M30.8,16c0-1.3-0.4-2.3-1.4-2.3S28,14.7,28,16s0.4,2.3,1.4,2.3C30.3,18.3,30.8,17.3,30.8,16z"/>
<path class="st0" d="M18.7,60.1l0.1-0.5c0.1,0,0.3,0.1,0.7,0.1c1,0,1.5-0.4,1.5-1.1c0-0.8-0.7-1.1-1.7-1.1V57c0.8,0,1.6-0.4,1.6-1.1
	c0-0.4-0.3-0.7-0.9-0.7c-0.5,0-0.8,0.2-1.1,0.4l-0.3-0.4c0.3-0.2,0.8-0.5,1.4-0.5c1,0,1.5,0.5,1.5,1.2s-0.6,1.1-1.2,1.3l0,0
	c0.7,0.1,1.3,0.6,1.3,1.4c0,1.1-0.9,1.7-2.1,1.7C19,60.2,18.8,60.1,18.7,60.1z M22.5,57.4c0-1.3,0.5-2.8,2-2.8c1.4,0,2,1.4,2,2.8
	s-0.6,2.8-2,2.8S22.5,58.7,22.5,57.4z M25.9,57.4c0-1.3-0.4-2.3-1.4-2.3s-1.4,1-1.4,2.3s0.4,2.3,1.4,2.3S25.9,58.7,25.9,57.4z
	 M27.4,57.4c0-1.3,0.5-2.8,2-2.8c1.4,0,2,1.4,2,2.8s-0.6,2.8-2,2.8S27.4,58.7,27.4,57.4z M30.8,57.4c0-1.3-0.4-2.3-1.4-2.3
	s-1.4,1-1.4,2.3s0.4,2.3,1.4,2.3C30.3,59.7,30.8,58.7,30.8,57.4z"/>
<path class="st0" d="M18.4,101.1c0.9-0.9,2.5-2.4,2.5-3.6c0-0.7-0.4-1-0.9-1c-0.6,0-0.9,0.3-1.2,0.5l-0.3-0.4
	c0.3-0.4,0.8-0.7,1.5-0.7c0.9,0,1.6,0.5,1.6,1.4c0,1.2-1.3,2.5-2.3,3.5c0,0,0.3,0,0.6,0h1.8v0.5h-3.3
	C18.4,101.3,18.4,101.1,18.4,101.1z M22.5,98.8c0-1.3,0.5-2.8,2-2.8c1.4,0,2,1.4,2,2.8s-0.6,2.8-2,2.8
	C23.1,101.6,22.5,100.1,22.5,98.8z M25.9,98.8c0-1.3-0.4-2.3-1.4-2.3s-1.4,1-1.4,2.3s0.4,2.3,1.4,2.3
	C25.5,101.1,25.9,100.1,25.9,98.8z M27.4,98.8c0-1.3,0.5-2.8,2-2.8c1.4,0,2,1.4,2,2.8s-0.6,2.8-2,2.8C28,101.6,27.4,100.1,27.4,98.8
	z M30.8,98.8c0-1.3-0.4-2.3-1.4-2.3s-1.4,1-1.4,2.3s0.4,2.3,1.4,2.3C30.3,101.1,30.8,100.1,30.8,98.8z"/>
<path class="st0" d="M20.7,137.9l-1,0.3l-0.1-0.5l1.3-0.4h0.5v5.3h-0.6L20.7,137.9L20.7,137.9z M22.5,140c0-1.3,0.5-2.8,2-2.8
	c1.4,0,2,1.4,2,2.8s-0.6,2.8-2,2.8C23.1,142.7,22.5,141.3,22.5,140z M25.9,140c0-1.3-0.4-2.3-1.4-2.3s-1.4,1-1.4,2.3
	s0.4,2.3,1.4,2.3C25.5,142.2,25.9,141.2,25.9,140z M27.4,140c0-1.3,0.5-2.8,2-2.8c1.4,0,2,1.4,2,2.8s-0.6,2.8-2,2.8
	C28,142.7,27.4,141.3,27.4,140z M30.8,140c0-1.3-0.4-2.3-1.4-2.3s-1.4,1-1.4,2.3s0.4,2.3,1.4,2.3C30.3,142.2,30.8,141.2,30.8,140z"
	/>
<path class="st0" d="M27.4,179.7c0-1.3,0.5-2.8,2-2.8c1.4,0,2,1.4,2,2.8s-0.6,2.8-2,2.8C28,182.4,27.4,181,27.4,179.7z M30.8,179.7
	c0-1.3-0.4-2.3-1.4-2.3s-1.4,1-1.4,2.3s0.4,2.3,1.4,2.3C30.3,181.9,30.8,180.9,30.8,179.7z"/>
<line class="st1" x1="33.6" y1="181.3" x2="232" y2="181.3"/>
<line class="st1" x1="34.8" y1="184" x2="34.8" y2="17.4"/>
<line class="st1" x1="231.7" y1="181.5" x2="231.7" y2="17"/>
<line class="st2" x1="34" y1="133.3" x2="232" y2="133.3"/>
<polyline class="st3" points="34.9,128.6 34.9,129.8 36,131 37.1,131 38.2,131 38.2,132.3 39.3,132.3 40.4,132.3 41.5,132.3 
	42.5,132.3 42.5,133.5 43.6,133.5 44.7,136 44.7,134.7 45.8,133.5 46.9,133.5 48,133.5 49.1,133.5 50.2,133.5 50.2,134.7 
	51.3,134.7 52.4,136 53.5,136 54.6,134.7 54.6,136 55.7,136 56.8,136 56.8,137.2 57.9,138.4 59,138.4 60.1,139.7 61.2,138.4 
	62.3,136 62.3,137.2 63.4,137.2 64.5,137.2 64.5,136 65.6,137.2 66.7,138.4 66.7,140.9 67.8,142.1 68.9,142.1 70,143.4 71.1,142.1 
	72.2,140.9 72.2,139.7 73.3,140.9 74.4,142.1 75.5,143.4 76.6,143.4 77.6,143.4 78.7,144.6 79.8,145.8 80.9,147.1 82,144.6 
	82,143.4 83.1,143.4 84.2,140.9 85.3,139.7 86.4,137.2 87.5,137.2 88.6,138.4 89.7,137.2 90.8,136 90.8,137.2 91.9,137.2 93,136 
	94.1,134.7 95.2,134.7 96.3,131 97.4,132.3 98.5,133.5 99.6,137.2 100.7,137.2 100.7,136 101.8,136 102.9,136 102.9,134.7 104,136 
	105.1,137.2 106.2,138.4 107.3,138.4 108.4,137.2 108.4,136 109.5,133.5 110.6,133.5 110.6,134.7 111.7,129.8 112.7,128.6 
	112.7,126.1 113.8,122.4 114.9,124.9 116,121.2 116,119.9 117.1,118.7 118.2,121.2 118.2,124.9 119.3,127.3 120.4,129.8 121.5,131 
	122.6,131 122.6,132.3 123.7,131 124.8,132.3 124.8,133.5 125.9,133.5 127,134.7 128.1,137.2 129.2,137.2 130.3,136 130.3,133.5 
	131.4,133.5 132.5,132.3 132.5,129.8 133.6,129.8 134.7,129.8 134.7,133.5 135.8,134.7 136.9,136 138,136 139.1,137.2 140.2,136 
	140.2,132.3 141.3,131 142.4,133.5 142.4,132.3 143.5,133.5 144.6,134.7 145.7,134.7 146.8,132.3 146.8,134.7 147.8,136 
	148.9,137.2 150,137.2 150,138.4 151.1,138.4 152.2,137.2 152.2,138.4 153.3,139.7 154.4,140.9 154.4,143.4 155.5,143.4 
	156.6,142.1 157.7,143.4 158.8,143.4 158.8,139.7 159.9,142.1 161,142.1 162.1,140.9 162.1,132.3 163.2,122.4 164.3,92.8 
	164.3,32.4 165.4,60.7 166.5,65.7 166.5,85.4 167.6,96.5 168.7,95.3 168.7,96.5 169.8,94 170.9,96.5 170.9,105.1 172,110.1 
	173.1,122.4 174.2,116.2 174.2,122.4 175.3,118.7 176.4,122.4 176.4,123.6 177.5,126.1 178.6,128.6 178.6,127.3 179.7,129.8 
	180.8,129.8 180.8,128.6 181.9,128.6 182.9,128.6 184,128.6 184,129.8 185.1,124.9 186.2,127.3 186.2,129.8 187.3,131 188.4,131 
	189.5,133.5 190.6,134.7 190.6,137.2 191.7,138.4 192.8,140.9 192.8,138.4 193.9,140.9 195,140.9 196.1,142.1 196.1,143.4 
	197.2,143.4 198.3,143.4 198.3,142.1 199.4,143.4 200.5,144.6 200.5,145.8 201.6,144.6 202.7,142.1 203.8,143.4 204.9,142.1 
	206,145.8 207.1,145.8 208.2,144.6 208.2,145.8 209.3,145.8 210.4,147.1 211.5,147.1 212.6,147.1 213.7,148.3 214.8,148.3 
	215.9,147.1 217,147.1 218,147.1 219.1,145.8 220.2,145.8 220.2,144.6 221.3,145.8 222.4,145.8 222.4,147.1 223.5,147.1 
	224.6,148.3 224.6,147.1 225.7,147.1 226.8,147.1 227.9,145.8 229,147.1 230.1,145.8 230.1,144.6 231.2,142.1 "/>
<line class="st1" x1="33.6" y1="17.3" x2="231.6" y2="17.3"/>
<line class="st1" x1="33.6" y1="57.8" x2="231.6" y2="57.8"/>
<line class="st1" x1="33.6" y1="99.5" x2="231.6" y2="99.5"/>
<line class="st1" x1="33.6" y1="140" x2="231.6" y2="140"/>
<line class="st1" x1="75.1" y1="184" x2="75.1" y2="181"/>
<line class="st1" x1="114.6" y1="184.3" x2="114.6" y2="181.3"/>
<line class="st1" x1="154" y1="184" x2="154" y2="181"/>
<line class="st1" x1="193.6" y1="184" x2="193.6" y2="181"/>
<g>
	<path class="st0" d="M5.4,118.6v-1.4c0-1,0.4-1.7,1.3-1.7c0.6,0,1,0.4,1.2,1l0,0c0.1-0.7,0.6-1.2,1.3-1.2c1.1,0,1.5,0.8,1.5,2v1.4
		H5.4V118.6z M7.7,117.3c0-0.8-0.3-1.2-0.9-1.2S6,116.5,6,117.3v0.7h1.8L7.7,117.3L7.7,117.3z M10.2,117.3c0-0.9-0.3-1.4-1-1.4
		c-0.6,0-1,0.3-1,1.3v0.8h2V117.3z"/>
	<path class="st0" d="M9.8,114.4c-1,0-1.3-1.1-1.3-2v-0.2H8.1c-0.6,0-0.8,0.2-0.8,0.8c0,0.4,0.1,0.7,0.4,1l-0.4,0.3
		c-0.4-0.4-0.5-0.8-0.5-1.4c0-0.8,0.4-1.3,1.3-1.3h1.8c0.4,0,0.7,0,0.9-0.1v0.6c-0.1,0-0.3,0-0.5,0.1c0.3,0.3,0.6,0.7,0.6,1.2
		C10.8,113.9,10.4,114.4,9.8,114.4z M9.8,112.2H8.9v0.2c0,0.8,0.2,1.4,0.9,1.4c0.4,0,0.5-0.3,0.5-0.6
		C10.3,112.8,10.1,112.4,9.8,112.2z"/>
	<path class="st0" d="M10.5,110.6l-0.4-0.3c0.1-0.1,0.3-0.5,0.3-1s-0.2-0.8-0.6-0.8c-0.4,0-0.5,0.3-0.7,0.8
		c-0.3,0.6-0.5,1.1-1.2,1.1c-0.6,0-1.1-0.4-1.1-1.2c0-0.6,0.3-1,0.4-1.1l0.4,0.3c-0.1,0.1-0.3,0.4-0.3,0.9c0,0.4,0.2,0.6,0.5,0.6
		c0.4,0,0.5-0.3,0.7-0.7c0.3-0.6,0.5-1.2,1.2-1.2s1.1,0.5,1.1,1.4C10.8,109.9,10.6,110.3,10.5,110.6z"/>
	<path class="st0" d="M5.7,107c-0.2,0-0.4-0.2-0.4-0.4s0.2-0.4,0.4-0.4s0.4,0.2,0.4,0.4S6,107,5.7,107z M6.9,106.8v-0.6h3.8v0.6H6.9
		z"/>
	<path class="st0" d="M10.5,105.1l-0.4-0.3c0.1-0.1,0.3-0.5,0.3-1s-0.2-0.8-0.6-0.8c-0.4,0-0.5,0.3-0.7,0.8
		c-0.3,0.6-0.5,1.1-1.2,1.1c-0.6,0-1.1-0.4-1.1-1.2c0-0.6,0.3-1,0.4-1.1l0.4,0.3c-0.1,0.1-0.3,0.4-0.3,0.9c0,0.4,0.2,0.6,0.5,0.6
		c0.4,0,0.5-0.3,0.7-0.7c0.3-0.6,0.5-1.2,1.2-1.2s1.1,0.5,1.1,1.4C10.8,104.5,10.6,104.9,10.5,105.1z"/>
	<path class="st0" d="M6.9,99.6V99h0.4c-0.2-0.2-0.5-0.6-0.5-1.1c0-0.9,0.7-1.6,2-1.6c1.2,0,2,0.7,2,1.7c0,0.5-0.2,0.8-0.3,1h2v0.6
		H6.9z M8.8,97c-0.8,0-1.5,0.3-1.5,1c0,0.5,0.4,0.9,0.5,1H10c0.2-0.2,0.4-0.4,0.4-0.9C10.3,97.3,9.7,97,8.8,97z"/>
	<path class="st0" d="M8.8,95.6c-0.9,0-2-0.5-2-1.8s1.1-1.8,2-1.8s2,0.5,2,1.8S9.7,95.6,8.8,95.6z M8.8,92.6c-0.8,0-1.5,0.4-1.5,1.2
		C7.3,94.7,8,95,8.8,95s1.5-0.4,1.5-1.2C10.3,93,9.6,92.6,8.8,92.6z"/>
	<path class="st0" d="M5.7,91.1c-0.2,0-0.4-0.2-0.4-0.4s0.2-0.4,0.4-0.4s0.4,0.2,0.4,0.4S6,91.1,5.7,91.1z M6.9,90.9v-0.6h3.8v0.6
		H6.9z"/>
	<path class="st0" d="M6.9,88.9v-0.6h0.6C7,88,6.8,87.5,6.8,87.1C6.8,86.3,7.3,86,8,86h2.7v0.6H8.1c-0.5,0-0.8,0.2-0.8,0.7
		c0,0.4,0.3,0.8,0.7,1.1h2.7V89L6.9,88.9L6.9,88.9z"/>
	<path class="st0" d="M9.8,84.4H7.4V85H6.9v-0.6H5.8v-0.6h1.1v-1h0.5v1h2.4c0.4,0,0.6-0.1,0.6-0.4c0-0.2-0.1-0.5-0.2-0.5l0.4-0.2
		c0.1,0.1,0.2,0.4,0.2,0.8C10.8,84.1,10.5,84.4,9.8,84.4z"/>
	<path class="st0" d="M10.5,82L10,81.8c0.1-0.1,0.3-0.5,0.3-1S10.1,80,9.7,80c-0.4,0-0.5,0.3-0.7,0.8c-0.3,0.6-0.5,1.1-1.2,1.1
		c-0.6,0-1.1-0.4-1.1-1.2c0-0.6,0.3-1,0.4-1.1l0.4,0.3c-0.1,0.1-0.3,0.4-0.3,0.9c0,0.4,0.2,0.6,0.5,0.6c0.4,0,0.5-0.3,0.7-0.7
		c0.3-0.6,0.5-1.2,1.2-1.2s1.1,0.5,1.1,1.4C10.8,81.4,10.6,81.8,10.5,82z"/>
</g>
<g>
	<g>
		<path class="st0" d="M8.9,222.3h1.4c1,0,1.7,0.4,1.7,1.3c0,0.6-0.4,1-1,1.2l0,0c0.7,0.1,1.2,0.6,1.2,1.3c0,1.1-0.8,1.5-2,1.5H8.9
			V222.3z M10.3,224.6c0.8,0,1.2-0.3,1.2-0.9c0-0.6-0.4-0.8-1.2-0.8H9.5v1.8h0.8V224.6z M10.3,227.2c0.9,0,1.4-0.3,1.4-1
			c0-0.6-0.3-1-1.3-1H9.5v2H10.3z"/>
		<path class="st0" d="M13.4,221.9H14v5.8h-0.6V221.9z"/>
		<path class="st0" d="M15,225.8c0-0.9,0.5-2,1.8-2s1.8,1.1,1.8,2s-0.5,2-1.8,2S15,226.7,15,225.8z M17.9,225.8
			c0-0.8-0.4-1.5-1.2-1.5c-0.8,0-1.1,0.7-1.1,1.5s0.4,1.5,1.2,1.5S17.9,226.6,17.9,225.8z"/>
		<path class="st0" d="M19.2,225.8c0-0.9,0.5-2,1.8-2s1.8,1.1,1.8,2s-0.5,2-1.8,2S19.2,226.7,19.2,225.8z M22.2,225.8
			c0-0.8-0.4-1.5-1.2-1.5s-1.1,0.7-1.1,1.5s0.4,1.5,1.2,1.5C21.8,227.3,22.2,226.6,22.2,225.8z"/>
		<path class="st0" d="M23.8,223.8h0.6v0.5c0.2-0.2,0.5-0.6,1.2-0.6c0.6,0,0.9,0.3,1,0.6c0.3-0.3,0.7-0.6,1.2-0.6
			c0.8,0,1.1,0.5,1.1,1.2v2.7h-0.6V225c0-0.5-0.1-0.8-0.6-0.8s-0.8,0.4-1,0.6v2.8H26V225c0-0.5-0.2-0.8-0.6-0.8c-0.6,0-1,0.6-1,0.7
			v2.7h-0.6V223.8z"/>
		<path class="st0" d="M30.1,227.5v-5.6h0.6v2.2c0.2-0.2,0.6-0.4,1-0.4c1,0,1.7,0.8,1.7,2s-0.8,2-1.9,2
			C30.8,227.8,30.3,227.6,30.1,227.5z M32.7,225.8c0-0.8-0.3-1.5-1.1-1.5c-0.3,0-0.7,0.2-0.8,0.4v2.5c0.2,0.1,0.4,0.1,0.7,0.1
			C32.2,227.3,32.7,226.5,32.7,225.8z"/>
		<path class="st0" d="M33.9,225.7c0-1.1,0.7-2,1.7-2s1.5,0.7,1.5,1.7c0,0.1,0,0.2,0,0.3h-2.6c0,0.8,0.3,1.5,1.2,1.5
			c0.5,0,0.9-0.2,1.1-0.3l0.2,0.5c-0.2,0.1-0.6,0.4-1.3,0.4C34.5,227.8,33.9,226.9,33.9,225.7z M36.6,225.3c0-0.5-0.3-1-0.9-1
			c-0.6,0-1,0.4-1.1,1H36.6z"/>
		<path class="st0" d="M38.2,223.8h0.6v0.6c0.2-0.3,0.5-0.7,1-0.7c0.2,0,0.4,0.1,0.4,0.1l-0.1,0.6c0,0-0.1-0.1-0.3-0.1
			c-0.6,0-0.9,0.7-0.9,0.8v2.6h-0.6v-3.9L38.2,223.8L38.2,223.8z"/>
		<path class="st0" d="M40.6,228.5c0-0.4,0.3-0.8,0.7-1c-0.2-0.1-0.3-0.3-0.3-0.6s0.2-0.5,0.4-0.6c-0.4-0.2-0.7-0.7-0.7-1.2
			c0-0.8,0.6-1.4,1.5-1.4c0.2,0,0.4,0,0.6,0.1H44v0.5h-0.6c0.2,0.2,0.3,0.5,0.3,0.8c0,0.8-0.6,1.4-1.5,1.4c-0.2,0-0.3,0-0.4,0
			c-0.2,0.1-0.3,0.2-0.3,0.3c0,0.2,0.2,0.3,0.5,0.3c0.8,0,2,0,2,1.2c0,0.8-0.9,1.3-1.9,1.3C41.3,229.6,40.6,229.3,40.6,228.5z
			 M43.4,228.3c0-0.6-0.5-0.6-1-0.6c-0.2,0-0.5,0-0.7-0.1c-0.4,0.2-0.5,0.5-0.5,0.8c0,0.4,0.3,0.7,1,0.7
			C42.9,229.1,43.4,228.8,43.4,228.3z M43.1,225.1c0-0.5-0.3-0.9-0.9-0.9c-0.6,0-0.9,0.4-0.9,0.9s0.3,0.9,0.9,0.9
			C42.7,226.1,43.1,225.7,43.1,225.1z"/>
		<path class="st0" d="M46.8,222.3h1.4c1,0,1.7,0.4,1.7,1.3c0,0.6-0.4,1-1,1.2l0,0c0.7,0.1,1.2,0.6,1.2,1.3c0,1.1-0.8,1.5-2,1.5
			h-1.4L46.8,222.3L46.8,222.3z M48.2,224.6c0.8,0,1.2-0.3,1.2-0.9c0-0.6-0.4-0.8-1.2-0.8h-0.7v1.8h0.7V224.6z M48.2,227.2
			c0.9,0,1.4-0.3,1.4-1c0-0.6-0.3-1-1.3-1h-0.8v2H48.2z"/>
		<path class="st0" d="M51,226.7c0-1,1.1-1.3,2-1.3h0.2V225c0-0.6-0.2-0.8-0.8-0.8c-0.4,0-0.7,0.1-1,0.4l-0.3-0.4
			c0.4-0.4,0.8-0.5,1.4-0.5c0.8,0,1.3,0.4,1.3,1.3v1.8c0,0.4,0,0.7,0.1,0.9h-0.6c0-0.1,0-0.3-0.1-0.5c-0.3,0.3-0.7,0.6-1.2,0.6
			C51.4,227.8,51,227.4,51,226.7z M53.2,226.7v-0.9H53c-0.8,0-1.4,0.2-1.4,0.9c0,0.4,0.3,0.5,0.6,0.5C52.6,227.3,53,227,53.2,226.7z
			"/>
		<path class="st0" d="M55.1,223.8h0.6v0.6c0.2-0.3,0.5-0.7,1-0.7c0.2,0,0.4,0.1,0.4,0.1l-0.1,0.6c0,0-0.1-0.1-0.3-0.1
			c-0.6,0-0.9,0.7-0.9,0.8v2.6h-0.6v-3.9L55.1,223.8L55.1,223.8z"/>
		<path class="st0" d="M57.4,225.8c0-1.3,0.8-2,1.8-2c0.6,0,1,0.2,1.2,0.4l-0.3,0.4c-0.2-0.2-0.5-0.3-0.9-0.3
			c-0.8,0-1.1,0.7-1.1,1.5s0.4,1.5,1.2,1.5c0.5,0,0.8-0.2,0.9-0.3l0.2,0.4c-0.2,0.1-0.5,0.4-1.2,0.4C58,227.8,57.4,226.8,57.4,225.8
			z"/>
		<path class="st0" d="M61.3,221.9h0.6v5.8h-0.6V221.9z"/>
		<path class="st0" d="M62.9,226.7c0-1,1.1-1.3,2-1.3h0.2V225c0-0.6-0.2-0.8-0.8-0.8c-0.4,0-0.7,0.1-1,0.4l-0.3-0.4
			c0.4-0.4,0.8-0.5,1.4-0.5c0.8,0,1.3,0.4,1.3,1.3v1.8c0,0.4,0,0.7,0.1,0.9h-0.6c0-0.1,0-0.3-0.1-0.5c-0.3,0.3-0.7,0.6-1.2,0.6
			C63.4,227.8,62.9,227.4,62.9,226.7z M65.1,226.7v-0.9H65c-0.8,0-1.4,0.2-1.4,0.9c0,0.4,0.3,0.5,0.6,0.5
			C64.5,227.3,64.9,227,65.1,226.7z"/>
		<path class="st0" d="M66.4,229.5l0.1-0.5c0.1,0,0.1,0,0.3,0c0.5,0,0.8-0.3,1-0.9l0.2-0.5l-1.4-3.8h0.7l1.1,3.1l0,0l1.1-3.1h0.6
			l-1.6,4.3c-0.3,0.7-0.6,1.3-1.5,1.3C66.6,229.5,66.5,229.5,66.4,229.5z"/>
		<path class="st0" d="M70.4,227.4l0.3-0.4c0.1,0.1,0.5,0.3,1,0.3s0.8-0.2,0.8-0.6s-0.3-0.5-0.8-0.7c-0.6-0.3-1.1-0.5-1.1-1.2
			c0-0.6,0.4-1.1,1.2-1.1c0.6,0,1,0.3,1.1,0.4l-0.3,0.4c-0.1-0.1-0.4-0.3-0.9-0.3c-0.4,0-0.6,0.2-0.6,0.5c0,0.4,0.3,0.5,0.7,0.7
			c0.6,0.3,1.2,0.5,1.2,1.2s-0.5,1.1-1.4,1.1C71,227.8,70.6,227.6,70.4,227.4z"/>
		<path class="st0" d="M75.8,225.7v-3.3h0.6v3.3c0,1.1,0.5,1.6,1.5,1.6s1.4-0.6,1.4-1.5v-3.4h0.6v3.3c0,1.3-0.6,2.1-2,2.1
			C76.4,227.8,75.8,226.9,75.8,225.7z"/>
		<path class="st0" d="M80.9,227.3c0-0.3,0.2-0.5,0.5-0.5s0.5,0.2,0.5,0.5s-0.2,0.5-0.5,0.5C81.1,227.7,80.9,227.5,80.9,227.3z"/>
		<path class="st0" d="M82.6,227.2l0.3-0.4c0.1,0.1,0.5,0.5,1.2,0.5s1.1-0.4,1.1-0.9c0-0.6-0.6-0.9-1.2-1.2s-1.2-0.7-1.2-1.5
			c0-0.9,0.7-1.4,1.6-1.4c0.8,0,1.2,0.3,1.4,0.4l-0.3,0.5c-0.2-0.1-0.5-0.4-1.1-0.4c-0.5,0-0.9,0.3-0.9,0.8s0.4,0.8,1,1
			c0.7,0.3,1.5,0.7,1.5,1.7c0,0.8-0.7,1.4-1.7,1.4C83.3,227.8,82.8,227.4,82.6,227.2z"/>
		<path class="st0" d="M86.6,227.3c0-0.3,0.2-0.5,0.5-0.5s0.5,0.2,0.5,0.5s-0.2,0.5-0.5,0.5C86.8,227.7,86.6,227.5,86.6,227.3z"/>
		<path class="st0" d="M90.6,222.3h0.6v5.3h-0.6V222.3z"/>
		<path class="st0" d="M92.5,225c0-1.4,1-2.7,2.7-2.7c0.7,0,1.2,0.2,1.7,0.5l-0.3,0.5c-0.4-0.3-0.8-0.4-1.4-0.4c-1.4,0-2,1.1-2,2.2
			c0,1.2,0.6,2.3,2,2.3c0.6,0,1-0.1,1.3-0.3v-1.5h-1.1v-0.5h1.8v2.3c-0.4,0.3-1.1,0.6-2,0.6C93.4,227.8,92.5,226.4,92.5,225z"/>
		<path class="st0" d="M99.9,225c0-1.4,1-2.7,2.6-2.7c0.7,0,1.1,0.2,1.5,0.4l-0.3,0.5c-0.3-0.2-0.7-0.4-1.2-0.4
			c-1.3,0-1.9,1.1-1.9,2.2c0,1.2,0.6,2.3,2,2.3c0.6,0,1-0.2,1.3-0.5l0.3,0.4c-0.3,0.3-0.9,0.5-1.6,0.5
			C100.9,227.8,99.9,226.4,99.9,225z"/>
		<path class="st0" d="M104.7,225.8c0-0.9,0.5-2,1.8-2s1.8,1.1,1.8,2s-0.5,2-1.8,2S104.7,226.7,104.7,225.8z M107.6,225.8
			c0-0.8-0.4-1.5-1.2-1.5c-0.8,0-1.1,0.7-1.1,1.5s0.4,1.5,1.2,1.5S107.6,226.6,107.6,225.8z"/>
		<path class="st0" d="M109.2,223.8h0.6v0.6c0.2-0.3,0.5-0.7,1-0.7c0.2,0,0.4,0.1,0.4,0.1l-0.1,0.6c0,0-0.1-0.1-0.3-0.1
			c-0.6,0-0.9,0.7-0.9,0.8v2.6h-0.6L109.2,223.8L109.2,223.8z"/>
		<path class="st0" d="M112,223.8h0.6v0.4c0.2-0.2,0.6-0.5,1.1-0.5c0.9,0,1.6,0.7,1.6,2c0,1.2-0.7,2-1.7,2c-0.5,0-0.8-0.2-1-0.3v2
			H112V223.8z M114.6,225.8c0-0.9-0.3-1.5-1.1-1.5c-0.5,0-0.9,0.4-1,0.5v2.1c0.2,0.2,0.4,0.4,0.9,0.4
			C114.2,227.3,114.6,226.6,114.6,225.8z"/>
		<path class="st0" d="M115.9,225.8c0-0.9,0.5-2,1.8-2s1.8,1.1,1.8,2s-0.5,2-1.8,2S115.9,226.7,115.9,225.8z M118.8,225.8
			c0-0.8-0.4-1.5-1.2-1.5c-0.8,0-1.1,0.7-1.1,1.5s0.4,1.5,1.2,1.5S118.8,226.6,118.8,225.8z"/>
		<path class="st0" d="M120.4,223.8h0.6v0.6c0.2-0.3,0.5-0.7,1-0.7c0.2,0,0.4,0.1,0.4,0.1l-0.1,0.6c0,0-0.1-0.1-0.3-0.1
			c-0.6,0-0.9,0.7-0.9,0.8v2.6h-0.6L120.4,223.8L120.4,223.8z"/>
		<path class="st0" d="M122.9,226.7c0-1,1.1-1.3,2-1.3h0.2V225c0-0.6-0.2-0.8-0.8-0.8c-0.4,0-0.7,0.1-1,0.4l-0.3-0.4
			c0.4-0.4,0.8-0.5,1.4-0.5c0.8,0,1.3,0.4,1.3,1.3v1.8c0,0.4,0,0.7,0.1,0.9h-0.6c0-0.1,0-0.3-0.1-0.5c-0.3,0.3-0.7,0.6-1.2,0.6
			S122.9,227.4,122.9,226.7z M125.1,226.7v-0.9h-0.2c-0.8,0-1.4,0.2-1.4,0.9c0,0.4,0.3,0.5,0.6,0.5
			C124.5,227.3,124.9,227,125.1,226.7z"/>
		<path class="st0" d="M127.1,226.8v-2.5h-0.6v-0.5h0.6v-1.1h0.6v1.1h1v0.5h-1v2.4c0,0.4,0.1,0.6,0.4,0.6c0.2,0,0.5-0.1,0.5-0.2
			l0.2,0.4c-0.1,0.1-0.4,0.2-0.8,0.2C127.4,227.8,127.1,227.4,127.1,226.8z"/>
		<path class="st0" d="M129.4,225.7c0-1.1,0.7-2,1.7-2s1.5,0.7,1.5,1.7c0,0.1,0,0.2,0,0.3H130c0,0.8,0.3,1.5,1.2,1.5
			c0.5,0,0.9-0.2,1.1-0.3l0.2,0.5c-0.2,0.1-0.6,0.4-1.3,0.4C130,227.8,129.4,226.9,129.4,225.7z M132,225.3c0-0.5-0.3-1-0.9-1
			c-0.6,0-1,0.4-1.1,1H132z"/>
		<path class="st0" d="M135.2,225c0-1.4,1-2.7,2.6-2.7c0.7,0,1.1,0.2,1.5,0.4l-0.3,0.5c-0.3-0.2-0.7-0.4-1.2-0.4
			c-1.3,0-1.9,1.1-1.9,2.2c0,1.2,0.6,2.3,2,2.3c0.6,0,1-0.2,1.3-0.5l0.3,0.4c-0.3,0.3-0.9,0.5-1.6,0.5
			C136.1,227.8,135.2,226.4,135.2,225z"/>
		<path class="st0" d="M140.3,223.8h0.6v0.6c0.2-0.3,0.5-0.7,1-0.7c0.2,0,0.4,0.1,0.4,0.1l-0.1,0.6c0,0-0.1-0.1-0.3-0.1
			c-0.6,0-0.9,0.7-0.9,0.8v2.6h-0.6L140.3,223.8L140.3,223.8z"/>
		<path class="st0" d="M142.7,225.7c0-1.1,0.7-2,1.7-2s1.5,0.7,1.5,1.7c0,0.1,0,0.2,0,0.3h-2.6c0,0.8,0.3,1.5,1.2,1.5
			c0.5,0,0.9-0.2,1.1-0.3l0.2,0.5c-0.2,0.1-0.6,0.4-1.3,0.4C143.3,227.8,142.7,226.9,142.7,225.7z M145.4,225.3c0-0.5-0.3-1-0.9-1
			c-0.6,0-1,0.4-1.1,1H145.4z"/>
		<path class="st0" d="M146.6,225.8c0-1.2,0.7-2,1.7-2c0.4,0,0.7,0.1,1,0.3v-2.2h0.6v5c0,0.3,0,0.6,0.1,0.8h-0.6
			c0-0.1-0.1-0.3-0.1-0.4c-0.3,0.3-0.6,0.5-1.1,0.5C147.3,227.8,146.6,227,146.6,225.8z M149.3,226.7v-2.1c-0.2-0.2-0.5-0.4-0.9-0.4
			c-0.7,0-1.1,0.6-1.1,1.5s0.3,1.5,1.1,1.5C148.7,227.2,149.1,227.1,149.3,226.7z"/>
		<path class="st0" d="M151.1,222.7c0-0.2,0.2-0.4,0.4-0.4s0.4,0.2,0.4,0.4s-0.2,0.4-0.4,0.4C151.3,223.1,151.1,222.9,151.1,222.7z
			 M151.2,223.8h0.6v3.8h-0.6V223.8z"/>
		<path class="st0" d="M153.3,226.8v-2.5h-0.6v-0.5h0.6v-1.1h0.6v1.1h1v0.5h-1v2.4c0,0.4,0.1,0.6,0.4,0.6c0.2,0,0.5-0.1,0.5-0.2
			l0.2,0.4c-0.1,0.1-0.4,0.2-0.8,0.2C153.7,227.8,153.3,227.4,153.3,226.8z"/>
		<path class="st0" d="M157.4,227.2l0.3-0.4c0.1,0.1,0.5,0.5,1.2,0.5s1.1-0.4,1.1-0.9c0-0.6-0.6-0.9-1.2-1.2
			c-0.6-0.3-1.2-0.7-1.2-1.5c0-0.9,0.7-1.4,1.6-1.4c0.8,0,1.2,0.3,1.4,0.4l-0.3,0.5c-0.2-0.1-0.5-0.4-1.1-0.4
			c-0.5,0-0.9,0.3-0.9,0.8s0.4,0.8,1,1c0.7,0.3,1.5,0.7,1.5,1.7c0,0.8-0.7,1.4-1.7,1.4C158.1,227.8,157.6,227.4,157.4,227.2z"/>
		<path class="st0" d="M161.7,223.8h0.6v0.4c0.2-0.2,0.6-0.5,1.1-0.5c0.9,0,1.6,0.7,1.6,2c0,1.2-0.7,2-1.7,2c-0.5,0-0.8-0.2-1-0.3v2
			h-0.6L161.7,223.8L161.7,223.8z M164.4,225.8c0-0.9-0.3-1.5-1.1-1.5c-0.5,0-0.9,0.4-1,0.5v2.1c0.2,0.2,0.4,0.4,0.9,0.4
			C164,227.3,164.4,226.6,164.4,225.8z"/>
		<path class="st0" d="M166,223.8h0.6v0.6c0.2-0.3,0.5-0.7,1-0.7c0.2,0,0.4,0.1,0.4,0.1l-0.1,0.6c0,0-0.1-0.1-0.3-0.1
			c-0.6,0-0.9,0.7-0.9,0.8v2.6H166V223.8z"/>
		<path class="st0" d="M168.4,225.7c0-1.1,0.7-2,1.7-2s1.5,0.7,1.5,1.7c0,0.1,0,0.2,0,0.3H169c0,0.8,0.3,1.5,1.2,1.5
			c0.5,0,0.9-0.2,1.1-0.3l0.2,0.5c-0.2,0.1-0.6,0.4-1.3,0.4C169,227.8,168.4,226.9,168.4,225.7z M171,225.3c0-0.5-0.3-1-0.9-1
			c-0.6,0-1,0.4-1.1,1H171z"/>
		<path class="st0" d="M172.3,226.7c0-1,1.1-1.3,2-1.3h0.2V225c0-0.6-0.2-0.8-0.8-0.8c-0.4,0-0.7,0.1-1,0.4l-0.3-0.4
			c0.4-0.4,0.8-0.5,1.4-0.5c0.8,0,1.3,0.4,1.3,1.3v1.8c0,0.4,0,0.7,0.1,0.9h-0.6c0-0.1,0-0.3-0.1-0.5c-0.3,0.3-0.7,0.6-1.2,0.6
			C172.8,227.8,172.3,227.4,172.3,226.7z M174.5,226.7v-0.9h-0.2c-0.8,0-1.4,0.2-1.4,0.9c0,0.4,0.3,0.5,0.6,0.5
			C173.9,227.3,174.3,227,174.5,226.7z"/>
		<path class="st0" d="M176.1,225.8c0-1.2,0.7-2,1.7-2c0.4,0,0.7,0.1,1,0.3v-2.2h0.6v5c0,0.3,0,0.6,0.1,0.8h-0.6
			c0-0.1-0.1-0.3-0.1-0.4c-0.3,0.3-0.6,0.5-1.1,0.5C176.7,227.8,176.1,227,176.1,225.8z M178.7,226.7v-2.1c-0.2-0.2-0.5-0.4-0.9-0.4
			c-0.7,0-1.1,0.6-1.1,1.5s0.3,1.5,1.1,1.5C178.1,227.2,178.5,227.1,178.7,226.7z"/>
	</g>
	<line class="st4" x1="0" y1="225.8" x2="6" y2="225.8"/>
	<g>
		<path class="st0" d="M10.4,232.8H11l2,5.3h-0.7l-0.5-1.3H9.4l-0.5,1.3H8.3L10.4,232.8z M11.7,236.3l-0.7-1.8
			c-0.2-0.4-0.2-0.7-0.3-0.9l0,0c-0.1,0.3-0.2,0.5-0.3,0.9l-0.7,1.8H11.7z"/>
		<path class="st0" d="M13.2,234.3h0.6l1.1,3.1l0,0l1.1-3.1h0.6l-1.4,3.8h-0.5L13.2,234.3z"/>
		<path class="st0" d="M17,236.2c0-1.1,0.7-2,1.7-2s1.5,0.7,1.5,1.7c0,0.1,0,0.2,0,0.3h-2.6c0,0.8,0.3,1.5,1.2,1.5
			c0.5,0,0.9-0.2,1.1-0.3l0.2,0.5c-0.2,0.1-0.6,0.4-1.3,0.4C17.6,238.2,17,237.3,17,236.2z M19.6,235.7c0-0.5-0.3-1-0.9-1
			s-1,0.4-1.1,1H19.6z"/>
		<path class="st0" d="M21.3,234.3h0.6v0.6c0.2-0.3,0.5-0.7,1-0.7c0.2,0,0.4,0.1,0.4,0.1l-0.1,0.6c0,0-0.1-0.1-0.3-0.1
			c-0.6,0-0.9,0.7-0.9,0.8v2.6h-0.6v-3.9L21.3,234.3L21.3,234.3z"/>
		<path class="st0" d="M23.7,237.2c0-1,1.1-1.3,2-1.3h0.2v-0.4c0-0.6-0.2-0.8-0.8-0.8c-0.4,0-0.7,0.1-1,0.4l-0.3-0.4
			c0.4-0.4,0.8-0.5,1.4-0.5c0.8,0,1.3,0.4,1.3,1.3v1.8c0,0.4,0,0.7,0.1,0.9H26c0-0.1,0-0.3-0.1-0.5c-0.3,0.3-0.7,0.6-1.2,0.6
			C24.2,238.2,23.7,237.8,23.7,237.2z M25.9,237.1v-0.9h-0.2c-0.8,0-1.4,0.2-1.4,0.9c0,0.4,0.3,0.5,0.6,0.5
			C25.3,237.7,25.7,237.5,25.9,237.1z"/>
		<path class="st0" d="M27.5,238.9c0-0.4,0.3-0.8,0.7-1c-0.2-0.1-0.3-0.3-0.3-0.6s0.2-0.5,0.4-0.6c-0.4-0.2-0.7-0.7-0.7-1.2
			c0-0.8,0.6-1.4,1.5-1.4c0.2,0,0.4,0,0.6,0.1h1.2v0.5h-0.6c0.2,0.2,0.3,0.5,0.3,0.8c0,0.8-0.6,1.4-1.5,1.4c-0.2,0-0.3,0-0.4,0
			c-0.2,0.1-0.3,0.2-0.3,0.3c0,0.2,0.2,0.3,0.5,0.3c0.8,0,2,0,2,1.2c0,0.8-0.9,1.3-1.9,1.3C28.2,240,27.5,239.7,27.5,238.9z
			 M30.3,238.8c0-0.6-0.5-0.6-1-0.6c-0.2,0-0.5,0-0.7-0.1c-0.4,0.2-0.5,0.5-0.5,0.8c0,0.4,0.3,0.7,1,0.7
			C29.8,239.5,30.3,239.2,30.3,238.8z M30,235.6c0-0.5-0.3-0.9-0.9-0.9s-0.9,0.4-0.9,0.9s0.3,0.9,0.9,0.9
			C29.6,236.5,30,236.1,30,235.6z"/>
		<path class="st0" d="M31.5,236.2c0-1.1,0.7-2,1.7-2s1.5,0.7,1.5,1.7c0,0.1,0,0.2,0,0.3h-2.6c0,0.8,0.3,1.5,1.2,1.5
			c0.5,0,0.9-0.2,1.1-0.3l0.2,0.5c-0.2,0.1-0.6,0.4-1.3,0.4C32.1,238.2,31.5,237.3,31.5,236.2z M34.1,235.7c0-0.5-0.3-1-0.9-1
			c-0.6,0-1,0.4-1.1,1H34.1z"/>
	</g>
	<line class="st5" x1="0" y1="236.2" x2="6" y2="236.2"/>
</g>
</svg>
