<?xml version="1.0" encoding="utf-8"?>
<!-- Generator: Adobe Illustrator 26.0.1, SVG Export Plug-In . SVG Version: 6.00 Build 0)  -->
<svg version="1.1" id="Layer_3" xmlns="http://www.w3.org/2000/svg" xmlns:xlink="http://www.w3.org/1999/xlink" x="0px" y="0px"
	 viewBox="0 0 250 250" style="enable-background:new 0 0 250 250;" xml:space="preserve">
<style type="text/css">
	.st0{fill:#4D4D4F;}
	.st1{fill:none;stroke:#5C5B59;stroke-width:1.6;}
	.st2{fill:none;stroke:#B19E4E;stroke-width:1.6;}
	.st3{fill:none;stroke:#BCBEC0;stroke-width:0.5;}
	.st4{fill:none;stroke:#BCBEC0;stroke-width:0.475;}
	.st5{fill:none;stroke:#5C5B59;stroke-linecap:round;stroke-linejoin:round;}
	.st6{fill:none;stroke:#B19E4E;stroke-linecap:round;stroke-linejoin:round;}
</style>
<g>
	<g>
		<path class="st0" d="M8.8,221.8h1.4c1,0,1.7,0.4,1.7,1.3c0,0.6-0.4,1-1,1.2v0c0.7,0.1,1.2,0.6,1.2,1.3c0,1.1-0.8,1.5-2,1.5H8.8
			V221.8z M10.1,224.1c0.8,0,1.2-0.3,1.2-0.9c0-0.6-0.4-0.8-1.2-0.8H9.4v1.8H10.1z M10.2,226.6c0.9,0,1.4-0.3,1.4-1
			c0-0.6-0.3-1-1.3-1H9.4v2H10.2z"/>
		<path class="st0" d="M13.1,221.4h0.6v5.8h-0.6V221.4z"/>
		<path class="st0" d="M14.5,225.3c0-0.9,0.5-2,1.8-2s1.8,1.1,1.8,2c0,0.9-0.5,2-1.8,2S14.5,226.1,14.5,225.3z M17.5,225.3
			c0-0.8-0.4-1.5-1.2-1.5c-0.8,0-1.1,0.7-1.1,1.5c0,0.8,0.4,1.5,1.2,1.5C17.1,226.8,17.5,226.1,17.5,225.3z"/>
		<path class="st0" d="M18.6,225.3c0-0.9,0.5-2,1.8-2s1.8,1.1,1.8,2c0,0.9-0.5,2-1.8,2C19.1,227.3,18.6,226.1,18.6,225.3z
			 M21.6,225.3c0-0.8-0.4-1.5-1.2-1.5s-1.1,0.7-1.1,1.5c0,0.8,0.4,1.5,1.2,1.5C21.2,226.8,21.6,226.1,21.6,225.3z"/>
		<path class="st0" d="M23,223.3h0.6v0.5c0.2-0.2,0.5-0.6,1.2-0.6c0.6,0,0.9,0.3,1,0.6c0.3-0.3,0.7-0.6,1.2-0.6
			c0.8,0,1.1,0.5,1.1,1.2v2.7h-0.6v-2.6c0-0.5-0.1-0.8-0.6-0.8c-0.5,0-0.8,0.4-1,0.6v2.8h-0.6v-2.6c0-0.5-0.2-0.8-0.6-0.8
			c-0.6,0-1,0.6-1,0.7v2.7H23V223.3z"/>
		<path class="st0" d="M29.2,227v-5.6h0.6v2.2c0.2-0.2,0.6-0.4,1-0.4c1,0,1.7,0.8,1.7,2c0,1.2-0.8,2-1.9,2
			C29.9,227.3,29.4,227.1,29.2,227z M31.7,225.2c0-0.8-0.3-1.5-1.1-1.5c-0.3,0-0.7,0.2-0.8,0.4v2.5c0.2,0.1,0.4,0.1,0.7,0.1
			C31.3,226.8,31.7,226,31.7,225.2z"/>
		<path class="st0" d="M32.9,225.2c0-1.1,0.7-2,1.7-2c1,0,1.5,0.7,1.5,1.7c0,0.1,0,0.2,0,0.3h-2.6c0,0.8,0.3,1.5,1.2,1.5
			c0.5,0,0.9-0.2,1.1-0.3l0.2,0.5c-0.2,0.1-0.6,0.4-1.3,0.4C33.5,227.3,32.9,226.4,32.9,225.2z M35.5,224.8c0-0.5-0.3-1-0.9-1
			c-0.6,0-1,0.4-1.1,1H35.5z"/>
		<path class="st0" d="M37,223.3h0.6v0.6c0.2-0.3,0.5-0.7,1-0.7c0.2,0,0.4,0.1,0.4,0.1l-0.1,0.6c0,0-0.1-0.1-0.3-0.1
			c-0.6,0-0.9,0.7-0.9,0.8v2.6H37V223.3z"/>
		<path class="st0" d="M39.2,228c0-0.4,0.3-0.8,0.7-1c-0.2-0.1-0.3-0.3-0.3-0.6c0-0.3,0.2-0.5,0.4-0.6c-0.4-0.2-0.7-0.7-0.7-1.2
			c0-0.8,0.6-1.4,1.5-1.4c0.2,0,0.4,0,0.6,0.1h1.2v0.5H42c0.2,0.2,0.3,0.5,0.3,0.8c0,0.8-0.6,1.4-1.5,1.4c-0.2,0-0.3,0-0.4,0
			c-0.2,0.1-0.3,0.2-0.3,0.3c0,0.2,0.2,0.3,0.5,0.3c0.8,0,2,0,2,1.2c0,0.8-0.9,1.3-1.9,1.3C39.9,229.1,39.2,228.7,39.2,228z
			 M42,227.8c0-0.6-0.5-0.6-1-0.6c-0.2,0-0.5,0-0.7-0.1c-0.4,0.2-0.5,0.5-0.5,0.8c0,0.4,0.3,0.7,1,0.7C41.5,228.6,42,228.3,42,227.8
			z M41.7,224.6c0-0.5-0.3-0.9-0.9-0.9c-0.6,0-0.9,0.4-0.9,0.9s0.3,0.9,0.9,0.9C41.4,225.6,41.7,225.2,41.7,224.6z"/>
		<path class="st0" d="M45.1,221.8h1.4c1,0,1.7,0.4,1.7,1.3c0,0.6-0.4,1-1,1.2v0c0.7,0.1,1.2,0.6,1.2,1.3c0,1.1-0.8,1.5-2,1.5h-1.4
			V221.8z M46.5,224.1c0.8,0,1.2-0.3,1.2-0.9c0-0.6-0.4-0.8-1.2-0.8h-0.7v1.8H46.5z M46.5,226.6c0.9,0,1.4-0.3,1.4-1
			c0-0.6-0.3-1-1.3-1h-0.8v2H46.5z"/>
		<path class="st0" d="M49.1,226.2c0-1,1.1-1.3,2-1.3h0.2v-0.4c0-0.6-0.2-0.8-0.8-0.8c-0.4,0-0.7,0.1-1,0.4l-0.3-0.4
			c0.4-0.4,0.8-0.5,1.4-0.5c0.8,0,1.3,0.4,1.3,1.3v1.8c0,0.4,0,0.7,0.1,0.9h-0.6c0-0.1,0-0.3-0.1-0.5c-0.3,0.3-0.7,0.6-1.2,0.6
			C49.6,227.3,49.1,226.9,49.1,226.2z M51.4,226.2v-0.9h-0.2c-0.8,0-1.4,0.2-1.4,0.9c0,0.4,0.3,0.5,0.6,0.5
			C50.8,226.8,51.1,226.5,51.4,226.2z"/>
		<path class="st0" d="M53.1,223.3h0.6v0.6c0.2-0.3,0.5-0.7,1-0.7c0.2,0,0.4,0.1,0.4,0.1l-0.1,0.6c0,0-0.1-0.1-0.3-0.1
			c-0.6,0-0.9,0.7-0.9,0.8v2.6h-0.6V223.3z"/>
		<path class="st0" d="M55.3,225.2c0-1.3,0.8-2,1.8-2c0.6,0,1,0.2,1.2,0.4l-0.3,0.4c-0.2-0.2-0.5-0.3-0.9-0.3
			c-0.8,0-1.1,0.7-1.1,1.5c0,0.8,0.4,1.5,1.2,1.5c0.5,0,0.8-0.2,0.9-0.3l0.2,0.4c-0.2,0.1-0.5,0.4-1.2,0.4
			C55.9,227.3,55.3,226.3,55.3,225.2z"/>
		<path class="st0" d="M59,221.4h0.6v5.8H59V221.4z"/>
		<path class="st0" d="M60.5,226.2c0-1,1.1-1.3,2-1.3h0.2v-0.4c0-0.6-0.2-0.8-0.8-0.8c-0.4,0-0.7,0.1-1,0.4l-0.3-0.4
			c0.4-0.4,0.8-0.5,1.4-0.5c0.8,0,1.3,0.4,1.3,1.3v1.8c0,0.4,0,0.7,0.1,0.9h-0.6c0-0.1,0-0.3-0.1-0.5c-0.3,0.3-0.7,0.6-1.2,0.6
			C60.9,227.3,60.5,226.9,60.5,226.2z M62.7,226.2v-0.9h-0.2c-0.8,0-1.4,0.2-1.4,0.9c0,0.4,0.3,0.5,0.6,0.5
			C62.1,226.8,62.4,226.5,62.7,226.2z"/>
		<path class="st0" d="M63.8,229l0.1-0.5c0.1,0,0.1,0,0.3,0c0.5,0,0.8-0.3,1-0.9l0.2-0.5l-1.4-3.8h0.7l1.1,3.1h0l1.1-3.1h0.6
			l-1.6,4.4c-0.3,0.7-0.6,1.3-1.5,1.3C63.9,229,63.8,229,63.8,229z"/>
		<path class="st0" d="M67.6,226.9l0.3-0.4c0.1,0.1,0.5,0.3,1,0.3c0.5,0,0.8-0.2,0.8-0.6s-0.3-0.5-0.8-0.7c-0.6-0.3-1.1-0.5-1.1-1.2
			c0-0.6,0.4-1.1,1.2-1.1c0.6,0,1,0.3,1.1,0.4l-0.3,0.4c-0.1-0.1-0.4-0.3-0.9-0.3c-0.4,0-0.6,0.2-0.6,0.5c0,0.4,0.3,0.5,0.7,0.7
			c0.6,0.3,1.2,0.5,1.2,1.2c0,0.7-0.5,1.1-1.4,1.1C68.3,227.3,67.9,227.1,67.6,226.9z"/>
		<path class="st0" d="M74.3,221.8h0.6l2,5.3h-0.7l-0.5-1.3h-2.4l-0.5,1.3h-0.6L74.3,221.8z M75.5,225.3l-0.7-1.8
			c-0.2-0.4-0.2-0.7-0.3-0.9h0c-0.1,0.3-0.2,0.5-0.3,0.9l-0.7,1.8H75.5z"/>
		<path class="st0" d="M77.2,226.9l0.3-0.4c0.1,0.1,0.5,0.3,1,0.3c0.5,0,0.8-0.2,0.8-0.6s-0.3-0.5-0.8-0.7c-0.6-0.3-1.1-0.5-1.1-1.2
			c0-0.6,0.4-1.1,1.2-1.1c0.6,0,1,0.3,1.1,0.4l-0.3,0.4c-0.1-0.1-0.4-0.3-0.9-0.3c-0.4,0-0.6,0.2-0.6,0.5c0,0.4,0.3,0.5,0.7,0.7
			c0.6,0.3,1.2,0.5,1.2,1.2c0,0.7-0.5,1.1-1.4,1.1C77.9,227.3,77.5,227.1,77.2,226.9z"/>
		<path class="st0" d="M80.6,222.2c0-0.2,0.2-0.4,0.4-0.4c0.2,0,0.4,0.2,0.4,0.4c0,0.2-0.2,0.4-0.4,0.4
			C80.8,222.6,80.6,222.4,80.6,222.2z M80.7,223.3h0.6v3.8h-0.6V223.3z"/>
		<path class="st0" d="M82.2,226.2c0-1,1.1-1.3,2-1.3h0.2v-0.4c0-0.6-0.2-0.8-0.8-0.8c-0.4,0-0.7,0.1-1,0.4l-0.3-0.4
			c0.4-0.4,0.8-0.5,1.4-0.5c0.8,0,1.3,0.4,1.3,1.3v1.8c0,0.4,0,0.7,0.1,0.9h-0.6c0-0.1,0-0.3-0.1-0.5c-0.3,0.3-0.7,0.6-1.2,0.6
			C82.7,227.3,82.2,226.9,82.2,226.2z M84.4,226.2v-0.9h-0.2c-0.8,0-1.4,0.2-1.4,0.9c0,0.4,0.3,0.5,0.6,0.5
			C83.8,226.8,84.2,226.5,84.4,226.2z"/>
		<path class="st0" d="M87.9,221.8h0.6v2.3h3v-2.3h0.6v5.3h-0.6v-2.5h-3v2.5h-0.6V221.8z"/>
		<path class="st0" d="M94.7,225.1l-1.8-3.3h0.7l1.4,2.7h0l1.4-2.7h0.6l-1.7,3.3v2h-0.6V225.1z"/>
		<path class="st0" d="M100.4,222.4h-1.5v-0.5h3.7v0.5H101v4.8h-0.6V222.4z"/>
		<path class="st0" d="M102.3,225.3c0-0.9,0.5-2,1.8-2s1.8,1.1,1.8,2c0,0.9-0.5,2-1.8,2S102.3,226.1,102.3,225.3z M105.3,225.3
			c0-0.8-0.4-1.5-1.2-1.5c-0.8,0-1.1,0.7-1.1,1.5c0,0.8,0.4,1.5,1.2,1.5C104.9,226.8,105.3,226.1,105.3,225.3z"/>
		<path class="st0" d="M106.9,226.2v-2.5h-0.6v-0.5h0.6v-1.1h0.6v1.1h1v0.5h-1v2.4c0,0.4,0.1,0.6,0.4,0.6c0.2,0,0.5-0.1,0.5-0.2
			l0.2,0.4c-0.1,0.1-0.4,0.2-0.8,0.2C107.2,227.3,106.9,226.9,106.9,226.2z"/>
		<path class="st0" d="M109.1,226.2c0-1,1.1-1.3,2-1.3h0.2v-0.4c0-0.6-0.2-0.8-0.8-0.8c-0.4,0-0.7,0.1-1,0.4l-0.3-0.4
			c0.4-0.4,0.8-0.5,1.4-0.5c0.8,0,1.3,0.4,1.3,1.3v1.8c0,0.4,0,0.7,0.1,0.9h-0.6c0-0.1,0-0.3-0.1-0.5c-0.3,0.3-0.7,0.6-1.2,0.6
			C109.6,227.3,109.1,226.9,109.1,226.2z M111.4,226.2v-0.9h-0.2c-0.8,0-1.4,0.2-1.4,0.9c0,0.4,0.3,0.5,0.6,0.5
			C110.8,226.8,111.1,226.5,111.4,226.2z"/>
		<path class="st0" d="M113.1,221.4h0.6v5.8h-0.6V221.4z"/>
		<path class="st0" d="M116.6,221.8h1.4c1.1,0,1.8,0.5,1.8,1.4c0,0.9-0.6,1.3-1.5,1.4v0c0.1,0.1,0.2,0.2,0.6,0.7l1.3,1.8h-0.7
			l-1.1-1.5c-0.6-0.9-0.7-0.9-1.1-0.9h-0.1v2.5h-0.6V221.8z M118,224.2c0.8,0,1.2-0.3,1.2-0.9c0-0.6-0.4-0.9-1.2-0.9h-0.8v1.8H118z"
			/>
		<path class="st0" d="M120.4,225.2c0-1.1,0.7-2,1.7-2c1,0,1.5,0.7,1.5,1.7c0,0.1,0,0.2,0,0.3h-2.6c0,0.8,0.3,1.5,1.2,1.5
			c0.5,0,0.9-0.2,1.1-0.3l0.2,0.5c-0.2,0.1-0.6,0.4-1.3,0.4C121.1,227.3,120.4,226.4,120.4,225.2z M123.1,224.8c0-0.5-0.3-1-0.9-1
			c-0.6,0-1,0.4-1.1,1H123.1z"/>
		<path class="st0" d="M124.7,226.2v-2.5h-0.6v-0.5h0.6v-1.1h0.6v1.1h1v0.5h-1v2.4c0,0.4,0.1,0.6,0.4,0.6c0.2,0,0.5-0.1,0.5-0.2
			l0.2,0.4c-0.1,0.1-0.4,0.2-0.8,0.2C125,227.3,124.7,226.9,124.7,226.2z"/>
		<path class="st0" d="M127.1,226.1v-2.7h0.6v2.6c0,0.5,0.2,0.8,0.7,0.8c0.6,0,1-0.6,1.1-0.7v-2.7h0.6v3c0,0.3,0,0.7,0.1,0.8h-0.6
			c0-0.1,0-0.4-0.1-0.6c-0.2,0.2-0.6,0.7-1.2,0.7C127.4,227.3,127.1,226.7,127.1,226.1z"/>
		<path class="st0" d="M131.2,223.3h0.6v0.6c0.2-0.3,0.5-0.7,1-0.7c0.2,0,0.4,0.1,0.4,0.1l-0.1,0.6c0,0-0.1-0.1-0.3-0.1
			c-0.6,0-0.9,0.7-0.9,0.8v2.6h-0.6V223.3z"/>
		<path class="st0" d="M133.8,223.3h0.6v0.6c0.3-0.4,0.8-0.6,1.2-0.6c0.8,0,1.1,0.5,1.1,1.2v2.7h-0.6v-2.6c0-0.5-0.2-0.8-0.7-0.8
			c-0.4,0-0.8,0.3-1.1,0.7v2.7h-0.6V223.3z"/>
		<path class="st0" d="M139.7,221.8h0.6v5.3h-0.6V221.8z"/>
		<path class="st0" d="M141.7,223.3h0.6v0.6c0.3-0.4,0.8-0.6,1.2-0.6c0.8,0,1.1,0.5,1.1,1.2v2.7H144v-2.6c0-0.5-0.2-0.8-0.7-0.8
			c-0.4,0-0.8,0.3-1.1,0.7v2.7h-0.6V223.3z"/>
		<path class="st0" d="M145.4,225.3c0-1.2,0.7-2,1.7-2c0.4,0,0.7,0.1,1,0.3v-2.2h0.6v5c0,0.3,0,0.6,0.1,0.8h-0.6
			c0-0.1-0.1-0.3-0.1-0.4c-0.3,0.3-0.6,0.5-1.1,0.5C146.1,227.3,145.4,226.5,145.4,225.3z M148.1,226.2v-2.1
			c-0.2-0.2-0.5-0.4-0.9-0.4c-0.7,0-1.1,0.6-1.1,1.5c0,0.9,0.3,1.5,1.1,1.5C147.5,226.7,147.8,226.5,148.1,226.2z"/>
		<path class="st0" d="M149.4,225.2c0-1.1,0.7-2,1.7-2c1,0,1.5,0.7,1.5,1.7c0,0.1,0,0.2,0,0.3h-2.6c0,0.8,0.3,1.5,1.2,1.5
			c0.5,0,0.9-0.2,1.1-0.3l0.2,0.5c-0.2,0.1-0.6,0.4-1.3,0.4C150,227.3,149.4,226.4,149.4,225.2z M152.1,224.8c0-0.5-0.3-1-0.9-1
			c-0.6,0-1,0.4-1.1,1H152.1z"/>
		<path class="st0" d="M154.3,225.2l-1.2-1.8h0.7c0,0,0.9,1.3,0.9,1.4l0.9-1.4h0.6l-1.2,1.8l1.4,2h-0.7l-1.1-1.6l-1,1.6H153
			L154.3,225.2z"/>
	</g>
	<line class="st1" x1="0" y1="225.1" x2="6" y2="225.1"/>
	<g>
		<path class="st0" d="M8.8,232.8h1.4c1,0,1.7,0.4,1.7,1.3c0,0.6-0.4,1-1,1.2v0c0.7,0.1,1.2,0.6,1.2,1.3c0,1.1-0.8,1.5-2,1.5H8.8
			V232.8z M10.1,235.1c0.8,0,1.2-0.3,1.2-0.9c0-0.6-0.4-0.8-1.2-0.8H9.4v1.8H10.1z M10.2,237.6c0.9,0,1.4-0.3,1.4-1
			c0-0.6-0.3-1-1.3-1H9.4v2H10.2z"/>
		<path class="st0" d="M13.1,232.3h0.6v5.8h-0.6V232.3z"/>
		<path class="st0" d="M14.5,236.2c0-0.9,0.5-2,1.8-2s1.8,1.1,1.8,2c0,0.9-0.5,2-1.8,2S14.5,237.1,14.5,236.2z M17.5,236.2
			c0-0.8-0.4-1.5-1.2-1.5c-0.8,0-1.1,0.7-1.1,1.5c0,0.8,0.4,1.5,1.2,1.5C17.1,237.7,17.5,237,17.5,236.2z"/>
		<path class="st0" d="M18.6,236.2c0-0.9,0.5-2,1.8-2s1.8,1.1,1.8,2c0,0.9-0.5,2-1.8,2C19.1,238.2,18.6,237.1,18.6,236.2z
			 M21.6,236.2c0-0.8-0.4-1.5-1.2-1.5s-1.1,0.7-1.1,1.5c0,0.8,0.4,1.5,1.2,1.5C21.2,237.7,21.6,237,21.6,236.2z"/>
		<path class="st0" d="M23,234.3h0.6v0.5c0.2-0.2,0.5-0.6,1.2-0.6c0.6,0,0.9,0.3,1,0.6c0.3-0.3,0.7-0.6,1.2-0.6
			c0.8,0,1.1,0.5,1.1,1.2v2.7h-0.6v-2.6c0-0.5-0.1-0.8-0.6-0.8c-0.5,0-0.8,0.4-1,0.6v2.8h-0.6v-2.6c0-0.5-0.2-0.8-0.6-0.8
			c-0.6,0-1,0.6-1,0.7v2.7H23V234.3z"/>
		<path class="st0" d="M29.2,237.9v-5.6h0.6v2.2c0.2-0.2,0.6-0.4,1-0.4c1,0,1.7,0.8,1.7,2c0,1.2-0.8,2-1.9,2
			C29.9,238.2,29.4,238.1,29.2,237.9z M31.7,236.2c0-0.8-0.3-1.5-1.1-1.5c-0.3,0-0.7,0.2-0.8,0.4v2.5c0.2,0.1,0.4,0.1,0.7,0.1
			C31.3,237.7,31.7,237,31.7,236.2z"/>
		<path class="st0" d="M32.9,236.2c0-1.1,0.7-2,1.7-2c1,0,1.5,0.7,1.5,1.7c0,0.1,0,0.2,0,0.3h-2.6c0,0.8,0.3,1.5,1.2,1.5
			c0.5,0,0.9-0.2,1.1-0.3l0.2,0.5c-0.2,0.1-0.6,0.4-1.3,0.4C33.5,238.2,32.9,237.3,32.9,236.2z M35.5,235.7c0-0.5-0.3-1-0.9-1
			c-0.6,0-1,0.4-1.1,1H35.5z"/>
		<path class="st0" d="M37,234.3h0.6v0.6c0.2-0.3,0.5-0.7,1-0.7c0.2,0,0.4,0.1,0.4,0.1l-0.1,0.6c0,0-0.1-0.1-0.3-0.1
			c-0.6,0-0.9,0.7-0.9,0.8v2.6H37V234.3z"/>
		<path class="st0" d="M39.2,238.9c0-0.4,0.3-0.8,0.7-1c-0.2-0.1-0.3-0.3-0.3-0.6c0-0.3,0.2-0.5,0.4-0.6c-0.4-0.2-0.7-0.7-0.7-1.2
			c0-0.8,0.6-1.4,1.5-1.4c0.2,0,0.4,0,0.6,0.1h1.2v0.5H42c0.2,0.2,0.3,0.5,0.3,0.8c0,0.8-0.6,1.4-1.5,1.4c-0.2,0-0.3,0-0.4,0
			c-0.2,0.1-0.3,0.2-0.3,0.3c0,0.2,0.2,0.3,0.5,0.3c0.8,0,2,0,2,1.2c0,0.8-0.9,1.3-1.9,1.3C39.9,240,39.2,239.7,39.2,238.9z
			 M42,238.8c0-0.6-0.5-0.6-1-0.6c-0.2,0-0.5,0-0.7-0.1c-0.4,0.2-0.5,0.5-0.5,0.8c0,0.4,0.3,0.7,1,0.7C41.5,239.5,42,239.2,42,238.8
			z M41.7,235.6c0-0.5-0.3-0.9-0.9-0.9c-0.6,0-0.9,0.4-0.9,0.9s0.3,0.9,0.9,0.9C41.4,236.5,41.7,236.1,41.7,235.6z"/>
		<path class="st0" d="M45.1,232.8h1.4c1,0,1.7,0.4,1.7,1.3c0,0.6-0.4,1-1,1.2v0c0.7,0.1,1.2,0.6,1.2,1.3c0,1.1-0.8,1.5-2,1.5h-1.4
			V232.8z M46.5,235.1c0.8,0,1.2-0.3,1.2-0.9c0-0.6-0.4-0.8-1.2-0.8h-0.7v1.8H46.5z M46.5,237.6c0.9,0,1.4-0.3,1.4-1
			c0-0.6-0.3-1-1.3-1h-0.8v2H46.5z"/>
		<path class="st0" d="M49.1,237.2c0-1,1.1-1.3,2-1.3h0.2v-0.4c0-0.6-0.2-0.8-0.8-0.8c-0.4,0-0.7,0.1-1,0.4l-0.3-0.4
			c0.4-0.4,0.8-0.5,1.4-0.5c0.8,0,1.3,0.4,1.3,1.3v1.8c0,0.4,0,0.7,0.1,0.9h-0.6c0-0.1,0-0.3-0.1-0.5c-0.3,0.3-0.7,0.6-1.2,0.6
			C49.6,238.2,49.1,237.8,49.1,237.2z M51.4,237.1v-0.9h-0.2c-0.8,0-1.4,0.2-1.4,0.9c0,0.4,0.3,0.5,0.6,0.5
			C50.8,237.7,51.1,237.5,51.4,237.1z"/>
		<path class="st0" d="M53.1,234.3h0.6v0.6c0.2-0.3,0.5-0.7,1-0.7c0.2,0,0.4,0.1,0.4,0.1l-0.1,0.6c0,0-0.1-0.1-0.3-0.1
			c-0.6,0-0.9,0.7-0.9,0.8v2.6h-0.6V234.3z"/>
		<path class="st0" d="M55.3,236.2c0-1.3,0.8-2,1.8-2c0.6,0,1,0.2,1.2,0.4l-0.3,0.4c-0.2-0.2-0.5-0.3-0.9-0.3
			c-0.8,0-1.1,0.7-1.1,1.5c0,0.8,0.4,1.5,1.2,1.5c0.5,0,0.8-0.2,0.9-0.3l0.2,0.4c-0.2,0.1-0.5,0.4-1.2,0.4
			C55.9,238.2,55.3,237.2,55.3,236.2z"/>
		<path class="st0" d="M59,232.3h0.6v5.8H59V232.3z"/>
		<path class="st0" d="M60.5,237.2c0-1,1.1-1.3,2-1.3h0.2v-0.4c0-0.6-0.2-0.8-0.8-0.8c-0.4,0-0.7,0.1-1,0.4l-0.3-0.4
			c0.4-0.4,0.8-0.5,1.4-0.5c0.8,0,1.3,0.4,1.3,1.3v1.8c0,0.4,0,0.7,0.1,0.9h-0.6c0-0.1,0-0.3-0.1-0.5c-0.3,0.3-0.7,0.6-1.2,0.6
			C60.9,238.2,60.5,237.8,60.5,237.2z M62.7,237.1v-0.9h-0.2c-0.8,0-1.4,0.2-1.4,0.9c0,0.4,0.3,0.5,0.6,0.5
			C62.1,237.7,62.4,237.5,62.7,237.1z"/>
		<path class="st0" d="M63.8,239.9l0.1-0.5c0.1,0,0.1,0,0.3,0c0.5,0,0.8-0.3,1-0.9l0.2-0.5l-1.4-3.8h0.7l1.1,3.1h0l1.1-3.1h0.6
			l-1.6,4.3c-0.3,0.7-0.6,1.3-1.5,1.3C63.9,240,63.8,239.9,63.8,239.9z"/>
		<path class="st0" d="M67.6,237.8l0.3-0.4c0.1,0.1,0.5,0.3,1,0.3c0.5,0,0.8-0.2,0.8-0.6s-0.3-0.5-0.8-0.7c-0.6-0.3-1.1-0.5-1.1-1.2
			c0-0.6,0.4-1.1,1.2-1.1c0.6,0,1,0.3,1.1,0.4l-0.3,0.4c-0.1-0.1-0.4-0.3-0.9-0.3c-0.4,0-0.6,0.2-0.6,0.5c0,0.4,0.3,0.5,0.7,0.7
			c0.6,0.3,1.2,0.5,1.2,1.2c0,0.7-0.5,1.1-1.4,1.1C68.3,238.2,67.9,238,67.6,237.8z"/>
		<path class="st0" d="M72.5,235.4c0-1.4,1-2.7,2.6-2.7c0.7,0,1.1,0.2,1.5,0.4l-0.3,0.5c-0.3-0.2-0.7-0.4-1.2-0.4
			c-1.3,0-1.9,1.1-1.9,2.2c0,1.2,0.6,2.3,2,2.3c0.6,0,1-0.2,1.3-0.5l0.3,0.4c-0.3,0.3-0.9,0.5-1.6,0.5
			C73.4,238.2,72.5,236.9,72.5,235.4z"/>
		<path class="st0" d="M77.4,232.3H78v2.5c0.2-0.2,0.6-0.6,1.2-0.6c0.8,0,1.1,0.5,1.1,1.2v2.7h-0.6v-2.6c0-0.5-0.2-0.8-0.7-0.8
			c-0.6,0-1,0.6-1.1,0.7v2.7h-0.6V232.3z"/>
		<path class="st0" d="M81.4,233.1c0-0.2,0.2-0.4,0.4-0.4c0.2,0,0.4,0.2,0.4,0.4c0,0.2-0.2,0.4-0.4,0.4
			C81.6,233.5,81.4,233.4,81.4,233.1z M81.6,234.3h0.6v3.8h-0.6V234.3z"/>
		<path class="st0" d="M83.4,234.3h0.6v0.6c0.3-0.4,0.8-0.6,1.2-0.6c0.8,0,1.1,0.5,1.1,1.2v2.7h-0.6v-2.6c0-0.5-0.2-0.8-0.7-0.8
			c-0.4,0-0.8,0.3-1.1,0.7v2.7h-0.6V234.3z"/>
		<path class="st0" d="M87.1,237.2c0-1,1.1-1.3,2-1.3h0.2v-0.4c0-0.6-0.2-0.8-0.8-0.8c-0.4,0-0.7,0.1-1,0.4l-0.3-0.4
			c0.4-0.4,0.8-0.5,1.4-0.5c0.8,0,1.3,0.4,1.3,1.3v1.8c0,0.4,0,0.7,0.1,0.9h-0.6c0-0.1,0-0.3-0.1-0.5c-0.3,0.3-0.7,0.6-1.2,0.6
			C87.6,238.2,87.1,237.8,87.1,237.2z M89.4,237.1v-0.9h-0.2c-0.8,0-1.4,0.2-1.4,0.9c0,0.4,0.3,0.5,0.6,0.5
			C88.8,237.7,89.1,237.5,89.4,237.1z"/>
		<path class="st0" d="M92.8,232.8h0.6v2.3h3v-2.3h0.6v5.3h-0.6v-2.5h-3v2.5h-0.6V232.8z"/>
		<path class="st0" d="M99.6,236.1l-1.8-3.3h0.7l1.4,2.7h0l1.4-2.7h0.6l-1.7,3.3v2h-0.6V236.1z"/>
		<path class="st0" d="M105.3,233.3h-1.5v-0.5h3.7v0.5h-1.5v4.8h-0.6V233.3z"/>
		<path class="st0" d="M107.3,236.2c0-0.9,0.5-2,1.8-2c1.3,0,1.8,1.1,1.8,2c0,0.9-0.5,2-1.8,2S107.3,237.1,107.3,236.2z
			 M110.2,236.2c0-0.8-0.4-1.5-1.2-1.5c-0.8,0-1.1,0.7-1.1,1.5c0,0.8,0.4,1.5,1.2,1.5C109.8,237.7,110.2,237,110.2,236.2z"/>
		<path class="st0" d="M111.8,237.2v-2.5h-0.6v-0.5h0.6v-1.1h0.6v1.1h1v0.5h-1v2.4c0,0.4,0.1,0.6,0.4,0.6c0.2,0,0.5-0.1,0.5-0.2
			l0.2,0.4c-0.1,0.1-0.4,0.2-0.8,0.2C112.2,238.2,111.8,237.8,111.8,237.2z"/>
		<path class="st0" d="M114.1,237.2c0-1,1.1-1.3,2-1.3h0.2v-0.4c0-0.6-0.2-0.8-0.8-0.8c-0.4,0-0.7,0.1-1,0.4l-0.3-0.4
			c0.4-0.4,0.8-0.5,1.4-0.5c0.8,0,1.3,0.4,1.3,1.3v1.8c0,0.4,0,0.7,0.1,0.9h-0.6c0-0.1,0-0.3-0.1-0.5c-0.3,0.3-0.7,0.6-1.2,0.6
			C114.5,238.2,114.1,237.8,114.1,237.2z M116.3,237.1v-0.9h-0.2c-0.8,0-1.4,0.2-1.4,0.9c0,0.4,0.3,0.5,0.6,0.5
			C115.7,237.7,116,237.5,116.3,237.1z"/>
		<path class="st0" d="M118,232.3h0.6v5.8H118V232.3z"/>
		<path class="st0" d="M121.5,232.8h1.4c1.1,0,1.8,0.5,1.8,1.4c0,0.9-0.6,1.3-1.5,1.4v0c0.1,0.1,0.2,0.2,0.6,0.7l1.3,1.8h-0.7
			l-1.1-1.5c-0.6-0.9-0.7-0.9-1.1-0.9h-0.1v2.5h-0.6V232.8z M122.9,235.1c0.8,0,1.2-0.3,1.2-0.9c0-0.6-0.4-0.9-1.2-0.9h-0.8v1.8
			H122.9z"/>
		<path class="st0" d="M125.4,236.2c0-1.1,0.7-2,1.7-2c1,0,1.5,0.7,1.5,1.7c0,0.1,0,0.2,0,0.3H126c0,0.8,0.3,1.5,1.2,1.5
			c0.5,0,0.9-0.2,1.1-0.3l0.2,0.5c-0.2,0.1-0.6,0.4-1.3,0.4C126,238.2,125.4,237.3,125.4,236.2z M128,235.7c0-0.5-0.3-1-0.9-1
			c-0.6,0-1,0.4-1.1,1H128z"/>
		<path class="st0" d="M129.6,237.2v-2.5H129v-0.5h0.6v-1.1h0.6v1.1h1v0.5h-1v2.4c0,0.4,0.1,0.6,0.4,0.6c0.2,0,0.5-0.1,0.5-0.2
			l0.2,0.4c-0.1,0.1-0.4,0.2-0.8,0.2C130,238.2,129.6,237.8,129.6,237.2z"/>
		<path class="st0" d="M132,237v-2.7h0.6v2.6c0,0.5,0.2,0.8,0.7,0.8c0.6,0,1-0.6,1.1-0.7v-2.7h0.6v3c0,0.3,0,0.7,0.1,0.8h-0.6
			c0-0.1,0-0.4-0.1-0.6c-0.2,0.2-0.6,0.7-1.2,0.7C132.3,238.2,132,237.7,132,237z"/>
		<path class="st0" d="M136.1,234.3h0.6v0.6c0.2-0.3,0.5-0.7,1-0.7c0.2,0,0.4,0.1,0.4,0.1l-0.1,0.6c0,0-0.1-0.1-0.3-0.1
			c-0.6,0-0.9,0.7-0.9,0.8v2.6h-0.6V234.3z"/>
		<path class="st0" d="M138.7,234.3h0.6v0.6c0.3-0.4,0.8-0.6,1.2-0.6c0.8,0,1.1,0.5,1.1,1.2v2.7h-0.6v-2.6c0-0.5-0.2-0.8-0.7-0.8
			c-0.4,0-0.8,0.3-1.1,0.7v2.7h-0.6V234.3z"/>
		<path class="st0" d="M144.6,232.8h0.6v5.3h-0.6V232.8z"/>
		<path class="st0" d="M146.6,234.3h0.6v0.6c0.3-0.4,0.8-0.6,1.2-0.6c0.8,0,1.1,0.5,1.1,1.2v2.7h-0.6v-2.6c0-0.5-0.2-0.8-0.7-0.8
			c-0.4,0-0.8,0.3-1.1,0.7v2.7h-0.6V234.3z"/>
		<path class="st0" d="M150.3,236.2c0-1.2,0.7-2,1.7-2c0.4,0,0.7,0.1,1,0.3v-2.2h0.6v5c0,0.3,0,0.6,0.1,0.8h-0.6
			c0-0.1-0.1-0.3-0.1-0.4c-0.3,0.3-0.6,0.5-1.1,0.5C151,238.2,150.3,237.5,150.3,236.2z M153,237.1V235c-0.2-0.2-0.5-0.4-0.9-0.4
			c-0.7,0-1.1,0.6-1.1,1.5c0,0.9,0.3,1.5,1.1,1.5C152.4,237.7,152.7,237.5,153,237.1z"/>
		<path class="st0" d="M154.3,236.2c0-1.1,0.7-2,1.7-2c1,0,1.5,0.7,1.5,1.7c0,0.1,0,0.2,0,0.3H155c0,0.8,0.3,1.5,1.2,1.5
			c0.5,0,0.9-0.2,1.1-0.3l0.2,0.5c-0.2,0.1-0.6,0.4-1.3,0.4C154.9,238.2,154.3,237.3,154.3,236.2z M157,235.7c0-0.5-0.3-1-0.9-1
			c-0.6,0-1,0.4-1.1,1H157z"/>
		<path class="st0" d="M159.3,236.1l-1.2-1.8h0.7c0,0,0.9,1.3,0.9,1.4l0.9-1.4h0.6l-1.2,1.8l1.4,2h-0.7l-1.1-1.6l-1,1.6h-0.6
			L159.3,236.1z"/>
	</g>
	<line class="st2" x1="0" y1="236.1" x2="6" y2="236.1"/>
</g>
<g>
	<path class="st0" d="M29.5,199.4H30l2.4,3.4c0.2,0.3,0.4,0.6,0.5,0.7h0c0-0.1,0-0.3,0-0.7v-3.5h0.5v5.1h-0.5l-2.5-3.6
		c-0.2-0.2-0.3-0.5-0.4-0.7h0c0,0.1,0,0.3,0,0.6v3.7h-0.5V199.4z"/>
</g>
<g>
	<path class="st0" d="M34.6,202.6c0-0.8,0.4-1.9,1.7-1.9s1.7,1.1,1.7,1.9c0,0.8-0.5,1.9-1.7,1.9C35,204.5,34.6,203.5,34.6,202.6z
		 M37.4,202.6c0-0.8-0.4-1.4-1.2-1.4s-1.1,0.6-1.1,1.4c0,0.8,0.3,1.4,1.1,1.4S37.4,203.4,37.4,202.6z"/>
	<path class="st0" d="M38.4,200.8H39l1,2.9h0l1-2.9h0.6l-1.3,3.6h-0.5L38.4,200.8z"/>
</g>
<path class="st0" d="M42.3,201.5h1.5v0.5h-1.5V201.5z M45.6,199.9l-1,0.3l-0.1-0.5l1.2-0.4h0.5v5.1h-0.6V199.9z M47.3,202.4
	c0-1.9,1.1-3.1,3-3.1l0.1,0.4c-0.7,0-1.4,0.2-1.8,0.6c-0.3,0.3-0.6,0.8-0.7,1.5c0.3-0.3,0.7-0.4,1.1-0.4c0.9,0,1.6,0.6,1.6,1.5
	s-0.6,1.6-1.6,1.6C47.8,204.5,47.3,203.4,47.3,202.4z M50,203c0-0.7-0.3-1.1-1-1.1c-0.5,0-0.8,0.2-1.1,0.4v0.1c0,1,0.4,1.7,1.1,1.7
	C49.7,204.1,50,203.5,50,203z"/>
<g>
	<path class="st0" d="M66.5,199.4h0.6l2.4,3.4c0.2,0.3,0.4,0.6,0.5,0.7h0c0-0.1,0-0.3,0-0.7v-3.5h0.5v5.1H70l-2.5-3.6
		c-0.2-0.2-0.3-0.5-0.4-0.7h0c0,0.1,0,0.3,0,0.6v3.7h-0.5V199.4z"/>
</g>
<g>
	<path class="st0" d="M71.6,202.6c0-0.8,0.4-1.9,1.7-1.9s1.7,1.1,1.7,1.9c0,0.8-0.5,1.9-1.7,1.9S71.6,203.5,71.6,202.6z M74.5,202.6
		c0-0.8-0.4-1.4-1.2-1.4s-1.1,0.6-1.1,1.4c0,0.8,0.3,1.4,1.1,1.4S74.5,203.4,74.5,202.6z"/>
	<path class="st0" d="M75.5,200.8h0.6l1,2.9h0l1-2.9h0.6l-1.3,3.6h-0.5L75.5,200.8z"/>
</g>
<path class="st0" d="M79.3,201.5h1.5v0.5h-1.5V201.5z M82.6,199.9l-1,0.3l-0.1-0.5l1.2-0.4h0.5v5.1h-0.6V199.9z M84.7,204.4l1.8-4.6
	h-2.3v-0.5h2.9v0.4l-1.9,4.8L84.7,204.4z"/>
<g>
	<path class="st0" d="M104.1,199.4h0.6l2.4,3.4c0.2,0.3,0.4,0.6,0.5,0.7h0c0-0.1,0-0.3,0-0.7v-3.5h0.5v5.1h-0.5l-2.5-3.6
		c-0.2-0.2-0.3-0.5-0.4-0.7h0c0,0.1,0,0.3,0,0.6v3.7h-0.5V199.4z"/>
</g>
<g>
	<path class="st0" d="M109.2,202.6c0-0.8,0.4-1.9,1.7-1.9s1.7,1.1,1.7,1.9c0,0.8-0.5,1.9-1.7,1.9S109.2,203.5,109.2,202.6z
		 M112,202.6c0-0.8-0.4-1.4-1.2-1.4s-1.1,0.6-1.1,1.4c0,0.8,0.3,1.4,1.1,1.4S112,203.4,112,202.6z"/>
	<path class="st0" d="M113,200.8h0.6l1,2.9h0l1-2.9h0.6l-1.3,3.6h-0.5L113,200.8z"/>
</g>
<path class="st0" d="M116.9,201.5h1.5v0.5h-1.5V201.5z M120.2,199.9l-1,0.3l-0.1-0.5l1.2-0.4h0.5v5.1h-0.6V199.9z M121.9,203.2
	c0-0.7,0.6-1.2,1.1-1.4c-0.5-0.3-0.9-0.6-0.9-1.3c0-0.7,0.6-1.2,1.4-1.2c0.9,0,1.4,0.5,1.4,1.2c0,0.7-0.6,1-1,1.3
	c0.5,0.3,1.1,0.7,1.1,1.4c0,0.8-0.6,1.4-1.6,1.4C122.3,204.5,121.9,203.9,121.9,203.2z M124.3,203.2c0-0.6-0.6-0.9-1-1.2
	c-0.3,0.2-0.8,0.6-0.8,1.2c0,0.5,0.3,0.9,0.9,0.9C124,204,124.3,203.7,124.3,203.2z M124.3,200.5c0-0.4-0.3-0.7-0.8-0.7
	s-0.8,0.3-0.8,0.7c0,0.5,0.5,0.8,0.8,1C123.8,201.3,124.3,201,124.3,200.5z"/>
<g>
	<path class="st0" d="M140.8,199.4h0.6l2.4,3.4c0.2,0.3,0.4,0.6,0.5,0.7h0c0-0.1,0-0.3,0-0.7v-3.5h0.5v5.1h-0.5l-2.5-3.6
		c-0.2-0.2-0.3-0.5-0.4-0.7h0c0,0.1,0,0.3,0,0.6v3.7h-0.5V199.4z"/>
</g>
<g>
	<path class="st0" d="M145.9,202.6c0-0.8,0.4-1.9,1.7-1.9c1.2,0,1.7,1.1,1.7,1.9c0,0.8-0.5,1.9-1.7,1.9
		C146.4,204.5,145.9,203.5,145.9,202.6z M148.7,202.6c0-0.8-0.4-1.4-1.2-1.4s-1.1,0.6-1.1,1.4c0,0.8,0.3,1.4,1.1,1.4
		S148.7,203.4,148.7,202.6z"/>
	<path class="st0" d="M149.8,200.8h0.6l1,2.9h0l1-2.9h0.6l-1.3,3.6h-0.5L149.8,200.8z"/>
</g>
<path class="st0" d="M153.6,201.5h1.5v0.5h-1.5V201.5z M156.9,199.9l-1,0.3l-0.1-0.5l1.2-0.4h0.5v5.1h-0.6V199.9z M158.9,204.1
	c0.8,0,1.4-0.2,1.8-0.7c0.3-0.3,0.5-0.8,0.6-1.4c-0.3,0.3-0.7,0.4-1.1,0.4c-0.9,0-1.6-0.6-1.6-1.5s0.6-1.6,1.6-1.6
	c1.2,0,1.7,1.1,1.7,2.1c0,1.9-1,3.1-2.9,3.1L158.9,204.1z M161.3,201.6v-0.1c0-1-0.4-1.7-1.1-1.7c-0.7,0-1,0.6-1,1.1
	c0,0.7,0.3,1.1,1,1.1C160.7,202,161,201.8,161.3,201.6z"/>
<g>
	<path class="st0" d="M176.9,199.4h0.6l2.4,3.4c0.2,0.3,0.4,0.6,0.5,0.7h0c0-0.1,0-0.3,0-0.7v-3.5h0.5v5.1h-0.5l-2.5-3.6
		c-0.2-0.2-0.3-0.5-0.4-0.7h0c0,0.1,0,0.3,0,0.6v3.7h-0.5V199.4z"/>
</g>
<g>
	<path class="st0" d="M182,202.6c0-0.8,0.4-1.9,1.7-1.9c1.2,0,1.7,1.1,1.7,1.9c0,0.8-0.5,1.9-1.7,1.9
		C182.5,204.5,182,203.5,182,202.6z M184.8,202.6c0-0.8-0.4-1.4-1.2-1.4s-1.1,0.6-1.1,1.4c0,0.8,0.3,1.4,1.1,1.4
		S184.8,203.4,184.8,202.6z"/>
	<path class="st0" d="M185.8,200.8h0.6l1,2.9h0l1-2.9h0.6l-1.3,3.6h-0.5L185.8,200.8z"/>
</g>
<path class="st0" d="M189.7,201.5h1.5v0.5h-1.5V201.5z M192,204.1c0.9-0.9,2.4-2.3,2.4-3.4c0-0.6-0.4-0.9-0.9-0.9
	c-0.5,0-0.9,0.2-1.1,0.5l-0.3-0.4c0.3-0.3,0.8-0.6,1.5-0.6c0.9,0,1.5,0.5,1.5,1.3c0,1.2-1.2,2.4-2.2,3.3c0,0,0.3,0,0.6,0h1.7v0.5
	H192V204.1z M195.9,201.9c0-1.3,0.5-2.6,1.9-2.6c1.4,0,1.9,1.4,1.9,2.6s-0.5,2.6-1.9,2.6C196.5,204.5,195.9,203.2,195.9,201.9z
	 M199.2,201.9c0-1.2-0.4-2.1-1.3-2.1c-0.9,0-1.3,0.9-1.3,2.1s0.4,2.1,1.3,2.1C198.7,204.1,199.2,203.1,199.2,201.9z"/>
<g>
	<path class="st0" d="M215.3,199.4h0.6l2.4,3.4c0.2,0.3,0.4,0.6,0.5,0.7h0c0-0.1,0-0.3,0-0.7v-3.5h0.5v5.1h-0.5l-2.5-3.6
		c-0.2-0.2-0.3-0.5-0.4-0.7h0c0,0.1,0,0.3,0,0.6v3.7h-0.5V199.4z"/>
</g>
<g>
	<path class="st0" d="M220.4,202.6c0-0.8,0.4-1.9,1.7-1.9c1.2,0,1.7,1.1,1.7,1.9c0,0.8-0.5,1.9-1.7,1.9
		C220.9,204.5,220.4,203.5,220.4,202.6z M223.2,202.6c0-0.8-0.4-1.4-1.2-1.4s-1.1,0.6-1.1,1.4c0,0.8,0.3,1.4,1.1,1.4
		S223.2,203.4,223.2,202.6z"/>
	<path class="st0" d="M224.2,200.8h0.6l1,2.9h0l1-2.9h0.6l-1.3,3.6h-0.5L224.2,200.8z"/>
</g>
<path class="st0" d="M228.1,201.5h1.5v0.5h-1.5V201.5z M230.4,204.1c0.9-0.9,2.4-2.3,2.4-3.4c0-0.6-0.4-0.9-0.9-0.9
	c-0.5,0-0.9,0.2-1.1,0.5l-0.3-0.4c0.3-0.3,0.8-0.6,1.5-0.6c0.9,0,1.5,0.5,1.5,1.3c0,1.2-1.2,2.4-2.2,3.3c0,0,0.3,0,0.6,0h1.7v0.5
	h-3.1V204.1z M235.2,199.9l-1,0.3l-0.1-0.5l1.2-0.4h0.5v5.1h-0.6V199.9z"/>
<g>
	<path class="st0" d="M12.4,135l-3.1,1.7V136l2.6-1.4v0l-2.6-1.4v-0.6l3.1,1.7h1.9v0.6H12.4z"/>
	<path class="st0" d="M9.6,132.1c-0.2,0-0.4-0.2-0.4-0.4s0.2-0.4,0.4-0.4c0.2,0,0.4,0.2,0.4,0.4S9.8,132.1,9.6,132.1z M10.7,131.9
		v-0.6h3.6v0.6H10.7z"/>
	<path class="st0" d="M12.5,130.3c-1.1,0-1.9-0.7-1.9-1.6c0-0.9,0.6-1.4,1.6-1.4c0.1,0,0.2,0,0.3,0v2.5c0.8,0,1.5-0.3,1.5-1.1
		c0-0.5-0.2-0.9-0.3-1l0.4-0.2c0.1,0.2,0.4,0.6,0.4,1.3C14.4,129.7,13.5,130.3,12.5,130.3z M12,127.8c-0.5,0-1,0.3-1,0.9
		c0,0.6,0.4,0.9,1,1V127.8z"/>
	<path class="st0" d="M8.8,126.2v-0.6h5.5v0.6H8.8z"/>
	<path class="st0" d="M12.5,124.6c-1.2,0-1.9-0.7-1.9-1.6c0-0.4,0.1-0.7,0.3-0.9H8.8v-0.6h4.7c0.3,0,0.6,0,0.7-0.1v0.6
		c-0.1,0-0.3,0.1-0.4,0.1c0.3,0.3,0.5,0.6,0.5,1.1C14.4,124,13.7,124.6,12.5,124.6z M13.4,122.1h-2c-0.2,0.2-0.3,0.5-0.3,0.9
		c0,0.7,0.6,1.1,1.4,1.1c0.8,0,1.4-0.3,1.4-1C13.9,122.7,13.7,122.3,13.4,122.1z"/>
	<path class="st0" d="M13.4,118.3h-2.3v0.6h-0.4v-0.6h-1v-0.6h1v-0.9h0.4v0.9h2.3c0.4,0,0.5-0.1,0.5-0.4c0-0.2-0.1-0.4-0.2-0.5
		l0.4-0.2c0.1,0.1,0.2,0.4,0.2,0.8C14.4,118,14,118.3,13.4,118.3z"/>
	<path class="st0" d="M12.5,116.1c-0.9,0-1.9-0.4-1.9-1.7s1.1-1.7,1.9-1.7c0.9,0,1.9,0.5,1.9,1.7S13.3,116.1,12.5,116.1z
		 M12.5,113.2c-0.8,0-1.4,0.4-1.4,1.2s0.6,1.1,1.4,1.1c0.8,0,1.4-0.3,1.4-1.1S13.3,113.2,12.5,113.2z"/>
	<path class="st0" d="M9.2,110.3v-0.6l3.4-0.9c0.4-0.1,0.8-0.2,0.9-0.2v0c0,0-0.5-0.1-0.9-0.2l-3.4-1v-0.6l3.4-1
		c0.4-0.1,0.9-0.2,0.9-0.2v0c0,0-0.5-0.1-0.9-0.2l-3.4-0.9V104l5.1,1.4v0.5l-3.4,1c-0.4,0.1-0.9,0.2-1,0.2v0c0,0,0.6,0.1,1,0.3
		l3.4,1v0.5L9.2,110.3z"/>
	<path class="st0" d="M12.5,103.7c-0.9,0-1.9-0.4-1.9-1.7s1.1-1.7,1.9-1.7c0.9,0,1.9,0.5,1.9,1.7C14.4,103.3,13.3,103.7,12.5,103.7z
		 M12.5,100.9c-0.8,0-1.4,0.4-1.4,1.2s0.6,1.1,1.4,1.1c0.8,0,1.4-0.3,1.4-1.1S13.3,100.9,12.5,100.9z"/>
	<path class="st0" d="M10.7,99.3v-0.6h0.6c-0.2-0.1-0.7-0.5-0.7-1c0-0.2,0.1-0.3,0.1-0.4l0.5,0.1c0,0-0.1,0.1-0.1,0.3
		c0,0.5,0.6,0.9,0.7,0.9h2.4v0.6H10.7z"/>
	<path class="st0" d="M14.1,96.9l-0.4-0.2c0.1-0.1,0.3-0.5,0.3-0.9c0-0.5-0.2-0.7-0.5-0.7s-0.5,0.3-0.7,0.8c-0.2,0.6-0.5,1-1.1,1
		c-0.6,0-1-0.4-1-1.2c0-0.6,0.3-1,0.3-1.1l0.4,0.3C11.2,95,11,95.3,11,95.7c0,0.4,0.2,0.6,0.5,0.6c0.3,0,0.5-0.3,0.7-0.7
		c0.2-0.6,0.5-1.1,1.1-1.1c0.7,0,1.1,0.5,1.1,1.3C14.4,96.3,14.2,96.7,14.1,96.9z"/>
	<path class="st0" d="M13.4,93.3h-2.3v0.6h-0.4v-0.6h-1v-0.6h1v-0.9h0.4v0.9h2.3c0.4,0,0.5-0.1,0.5-0.4c0-0.2-0.1-0.4-0.2-0.5
		l0.4-0.2c0.1,0.1,0.2,0.4,0.2,0.8C14.4,93,14,93.3,13.4,93.3z"/>
	<path class="st0" d="M12.2,89.1c-1.3,0-2.5-0.5-3.3-1.4v-0.5c0.7,0.6,1.8,1.3,3.3,1.3c1.4,0,2.5-0.5,3.5-1.3v0.5
		C14.7,88.6,13.5,89.1,12.2,89.1z"/>
	<path class="st0" d="M11.6,86.9c-0.5,0-1.1-0.3-1.1-1.1c0-0.8,0.6-1.1,1-1.1s1.1,0.3,1.1,1.1C12.7,86.6,12.1,86.9,11.6,86.9z
		 M10.7,83.4V83l3.6,2.2v0.5L10.7,83.4z M11.6,85.2c-0.4,0-0.7,0.2-0.7,0.6s0.3,0.6,0.7,0.6c0.4,0,0.7-0.2,0.7-0.6
		S12,85.2,11.6,85.2z M13.3,83.9c-0.5,0-1.1-0.3-1.1-1.1c0-0.8,0.6-1.1,1-1.1s1.1,0.3,1.1,1.1C14.4,83.6,13.8,83.9,13.3,83.9z
		 M13.3,82.2c-0.4,0-0.7,0.2-0.7,0.6s0.3,0.6,0.7,0.6s0.7-0.2,0.7-0.6S13.7,82.2,13.3,82.2z"/>
	<path class="st0" d="M12.3,80c-1.4,0-2.5,0.5-3.5,1.3v-0.5c0.9-0.9,2.2-1.4,3.5-1.4c1.3,0,2.5,0.5,3.3,1.4v0.5
		C15,80.7,13.8,80,12.3,80z"/>
</g>
<path class="st0" d="M23.9,195.2c0.9-0.9,2.4-2.3,2.4-3.4c0-0.6-0.4-0.9-0.9-0.9c-0.5,0-0.9,0.2-1.1,0.5L24,191
	c0.3-0.3,0.8-0.6,1.5-0.6c0.9,0,1.5,0.5,1.5,1.3c0,1.2-1.2,2.4-2.2,3.3c0,0,0.3,0,0.6,0H27v0.5h-3.1V195.2z M27.9,195.1
	c0-0.3,0.2-0.5,0.5-0.5s0.5,0.2,0.5,0.5s-0.2,0.5-0.5,0.5S27.9,195.4,27.9,195.1z M29.6,193c0-1.3,0.5-2.6,1.9-2.6
	c1.4,0,1.9,1.4,1.9,2.6s-0.5,2.6-1.9,2.6C30.1,195.6,29.6,194.2,29.6,193z M32.8,193c0-1.2-0.4-2.1-1.3-2.1c-0.9,0-1.3,0.9-1.3,2.1
	s0.4,2.1,1.3,2.1C32.4,195.1,32.8,194.2,32.8,193z"/>
<path class="st0" d="M23.9,165.2c0-1.9,1.1-3.1,3-3.1l0.1,0.4c-0.7,0-1.4,0.2-1.8,0.6c-0.3,0.3-0.6,0.8-0.7,1.5
	c0.3-0.3,0.7-0.4,1.1-0.4c0.9,0,1.6,0.6,1.6,1.5s-0.6,1.6-1.6,1.6C24.4,167.4,23.9,166.2,23.9,165.2z M26.6,165.8
	c0-0.7-0.3-1.1-1-1.1c-0.5,0-0.8,0.2-1.1,0.4v0.1c0,1,0.4,1.7,1.1,1.7C26.3,166.9,26.6,166.3,26.6,165.8z M27.9,166.9
	c0-0.3,0.2-0.5,0.5-0.5s0.5,0.2,0.5,0.5s-0.2,0.5-0.5,0.5S27.9,167.1,27.9,166.9z M29.7,164.7c0-1.3,0.5-2.6,1.9-2.6
	c1.4,0,1.9,1.4,1.9,2.6s-0.5,2.6-1.9,2.6C30.2,167.4,29.7,166,29.7,164.7z M32.9,164.7c0-1.2-0.4-2.1-1.3-2.1
	c-0.9,0-1.3,0.9-1.3,2.1s0.4,2.1,1.3,2.1C32.5,166.9,32.9,165.9,32.9,164.7z"/>
<path class="st0" d="M23.2,134.4l-1,0.3l-0.1-0.5l1.2-0.4h0.5v5.1h-0.6V134.4z M24.9,136.4c0-1.3,0.5-2.6,1.9-2.6
	c1.4,0,1.9,1.4,1.9,2.6s-0.5,2.6-1.9,2.6C25.5,139,24.9,137.7,24.9,136.4z M28.2,136.4c0-1.2-0.4-2.1-1.3-2.1
	c-0.9,0-1.3,0.9-1.3,2.1s0.4,2.1,1.3,2.1C27.7,138.6,28.2,137.6,28.2,136.4z M29.6,138.6c0-0.3,0.2-0.5,0.5-0.5s0.5,0.2,0.5,0.5
	S30.3,139,30,139S29.6,138.8,29.6,138.6z M31.3,136.4c0-1.3,0.5-2.6,1.9-2.6c1.4,0,1.9,1.4,1.9,2.6s-0.5,2.6-1.9,2.6
	C31.8,139,31.3,137.7,31.3,136.4z M34.5,136.4c0-1.2-0.4-2.1-1.3-2.1c-0.9,0-1.3,0.9-1.3,2.1s0.4,2.1,1.3,2.1
	C34.1,138.6,34.5,137.6,34.5,136.4z"/>
<path class="st0" d="M23.5,107.4l-1,0.3l-0.1-0.5l1.2-0.4H24v5.1h-0.6V107.4z M27.4,110.8H25v-0.5l2.3-3.4h0.6v3.4h0.7v0.5h-0.7v1.1
	h-0.5V110.8z M26.3,110.2h1.1v-2.6h0l-1.7,2.6C25.8,110.3,26,110.2,26.3,110.2z M29.3,111.5c0-0.3,0.2-0.5,0.5-0.5s0.5,0.2,0.5,0.5
	S30,112,29.8,112S29.3,111.8,29.3,111.5z M31,109.4c0-1.3,0.5-2.6,1.9-2.6c1.4,0,1.9,1.4,1.9,2.6s-0.5,2.6-1.9,2.6
	C31.6,112,31,110.6,31,109.4z M34.2,109.4c0-1.2-0.4-2.1-1.3-2.1c-0.9,0-1.3,0.9-1.3,2.1s0.4,2.1,1.3,2.1
	C33.8,111.5,34.2,110.6,34.2,109.4z"/>
<path class="st0" d="M23.6,79.1l-1,0.3L22.5,79l1.2-0.4h0.5v5.1h-0.6V79.1z M25.3,82.4c0-0.7,0.6-1.2,1.1-1.4
	c-0.5-0.3-0.9-0.6-0.9-1.3c0-0.7,0.6-1.2,1.4-1.2c0.9,0,1.4,0.5,1.4,1.2c0,0.7-0.6,1-1,1.3c0.5,0.3,1.1,0.7,1.1,1.4
	c0,0.8-0.6,1.4-1.6,1.4C25.8,83.7,25.3,83.1,25.3,82.4z M27.8,82.4c0-0.6-0.6-0.9-1-1.2c-0.3,0.2-0.8,0.6-0.8,1.2
	c0,0.5,0.3,0.9,0.9,0.9C27.4,83.3,27.8,82.9,27.8,82.4z M27.7,79.7c0-0.4-0.3-0.7-0.8-0.7S26,79.3,26,79.7c0,0.5,0.5,0.8,0.8,1
	C27.2,80.5,27.7,80.2,27.7,79.7z M29.2,83.3c0-0.3,0.2-0.5,0.5-0.5s0.5,0.2,0.5,0.5s-0.2,0.5-0.5,0.5S29.2,83.5,29.2,83.3z
	 M30.9,81.1c0-1.3,0.5-2.6,1.9-2.6c1.4,0,1.9,1.4,1.9,2.6s-0.5,2.6-1.9,2.6C31.4,83.7,30.9,82.4,30.9,81.1z M34.1,81.1
	c0-1.2-0.4-2.1-1.3-2.1c-0.9,0-1.3,0.9-1.3,2.1s0.4,2.1,1.3,2.1C33.7,83.3,34.1,82.3,34.1,81.1z"/>
<path class="st0" d="M22,55.7c0.9-0.9,2.4-2.3,2.4-3.4c0-0.6-0.4-0.9-0.9-0.9c-0.5,0-0.9,0.2-1.1,0.5L22,51.5
	c0.3-0.3,0.8-0.6,1.5-0.6c0.9,0,1.5,0.5,1.5,1.3c0,1.2-1.2,2.4-2.2,3.3c0,0,0.3,0,0.6,0h1.7V56H22V55.7z M25.8,55.7
	c0.9-0.9,2.4-2.3,2.4-3.4c0-0.6-0.4-0.9-0.9-0.9c-0.5,0-0.9,0.2-1.1,0.5l-0.3-0.4c0.3-0.3,0.8-0.6,1.5-0.6c0.9,0,1.5,0.5,1.5,1.3
	c0,1.2-1.2,2.4-2.2,3.3c0,0,0.3,0,0.6,0h1.7V56h-3.1V55.7z M29.8,55.6c0-0.3,0.2-0.5,0.5-0.5s0.5,0.2,0.5,0.5s-0.2,0.5-0.5,0.5
	S29.8,55.9,29.8,55.6z M31.5,53.5c0-1.3,0.5-2.6,1.9-2.6c1.4,0,1.9,1.4,1.9,2.6s-0.5,2.6-1.9,2.6C32.1,56.1,31.5,54.7,31.5,53.5z
	 M34.7,53.5c0-1.2-0.4-2.1-1.3-2.1c-0.9,0-1.3,0.9-1.3,2.1s0.4,2.1,1.3,2.1C34.3,55.6,34.7,54.7,34.7,53.5z"/>
<path class="st0" d="M21.9,27c0.9-0.9,2.4-2.3,2.4-3.4c0-0.6-0.4-0.9-0.9-0.9c-0.5,0-0.9,0.2-1.1,0.5L22,22.8
	c0.3-0.3,0.8-0.6,1.5-0.6c0.9,0,1.5,0.5,1.5,1.3c0,1.2-1.2,2.4-2.2,3.3c0,0,0.3,0,0.6,0H25v0.5h-3.1V27z M25.8,25.3
	c0-1.9,1.1-3.1,3-3.1l0.1,0.4c-0.7,0-1.4,0.2-1.8,0.6c-0.3,0.3-0.6,0.8-0.7,1.5c0.3-0.3,0.7-0.4,1.1-0.4c0.9,0,1.6,0.6,1.6,1.5
	s-0.6,1.6-1.6,1.6C26.3,27.4,25.8,26.3,25.8,25.3z M28.5,25.9c0-0.7-0.3-1.1-1-1.1c-0.5,0-0.8,0.2-1.1,0.4v0.1c0,1,0.4,1.7,1.1,1.7
	C28.2,27,28.5,26.4,28.5,25.9z M29.9,26.9c0-0.3,0.2-0.5,0.5-0.5s0.5,0.2,0.5,0.5s-0.2,0.5-0.5,0.5S29.9,27.2,29.9,26.9z M31.6,24.8
	c0-1.3,0.5-2.6,1.9-2.6c1.4,0,1.9,1.4,1.9,2.6s-0.5,2.6-1.9,2.6C32.1,27.4,31.6,26.1,31.6,24.8z M34.8,24.8c0-1.2-0.4-2.1-1.3-2.1
	c-0.9,0-1.3,0.9-1.3,2.1s0.4,2.1,1.3,2.1C34.4,27,34.8,26,34.8,24.8z"/>
<line class="st3" x1="37.8" y1="25.9" x2="226.3" y2="25.9"/>
<line class="st3" x1="37.8" y1="53.9" x2="226.3" y2="53.9"/>
<line class="st3" x1="37.8" y1="81.9" x2="226.3" y2="81.9"/>
<line class="st3" x1="37.8" y1="109.9" x2="226.3" y2="109.9"/>
<line class="st3" x1="37.8" y1="165.9" x2="226.3" y2="165.9"/>
<line class="st3" x1="37.8" y1="137.9" x2="226.3" y2="137.9"/>
<line class="st3" x1="37.8" y1="193.8" x2="226.3" y2="193.8"/>
<line class="st4" x1="39.8" y1="193.7" x2="39.8" y2="199.3"/>
<line class="st4" x1="76.6" y1="193.7" x2="76.6" y2="199.3"/>
<line class="st4" x1="114.3" y1="193.7" x2="114.3" y2="199.3"/>
<line class="st4" x1="151.1" y1="193.7" x2="151.1" y2="199.3"/>
<line class="st4" x1="188.1" y1="193.7" x2="188.1" y2="199.3"/>
<line class="st4" x1="226.1" y1="193.7" x2="226.1" y2="199.3"/>
<line class="st4" x1="39.8" y1="25.7" x2="39.8" y2="193.8"/>
<line class="st4" x1="226.3" y1="25.7" x2="226.3" y2="193.8"/>
<path class="st5" d="M40.3,170.7l1-1.9v-2.4l1,1.2l0.6-3.3l0.6,3.8l0.8,1l0.6-2.7l0.6,1.4l0.7-1.5c0.2-0.5,0.5-0.5,0.6,0.1l0.7,4.8
	l1.4-2.1l0.1,2.4l0.6-0.7c0.3-0.4,0.6-0.2,0.7,0.3l0.6,4.4c0.1,0.5,0.2,0.6,0.3,0l0.7-4.1l1.1,1.9l1-2.9l1.8,2.7l2.3,0.7
	c0.5,0.2,1.2-0.1,1.4-0.6l1.4-2.7l1.7,3.5c0.2,0.5,0.4,0.5,0.5-0.1l0.1-3.5l1.7-2.6l1.7,2.2l0.6-1.1c0.3-0.6,1.2-0.5,2,0.2l3.4,3.1
	l2-1.9l1.3,1.5c0.4,0.4,0.9,0.4,1.2-0.1l1.7-2.9l0.9,2.7c0.2,0.5,0.4,0.5,0.4,0l0.4-3.8l0.8,0.3c0.4,0.2,1,0.7,1.3,1.2l1.6,2.8
	c0.3,0.5,0.5,0.4,0.6-0.1l0.3-4.3l1.5,0.6l0.6-3.7l1.5,1.8c0,0,1.1,2.1,1.1,1.8v-4.5l0.7,0.7c0.4,0.4,0.8,0.3,0.9-0.2
	c0,0,0.6-2.7,0.6-2.4s1.3,3.9,1.3,3.9c0.2,0.5,0.4,0.5,0.5,0l0.5-3.3c0,0,0.7,0.4,0.9,0.4s0.7-5.1,0.7-5.1l1.9,2.5
	c0.3,0.4,0.7,0.3,0.7-0.2l0.4-4.5l1.8,2.2l-0.4-3l0.6,0.4c0.3,0.2,0.6-0.5,0.7-1.6l0.1-5.5l0.6,3.3c0.1,0.5,0.2,0.5,0.3,0l0.3-3.2
	c0.1-0.5,0.1-0.5,0.1,0l0.2,5l1.1,3.9l2.2-2.9l0.9,1.8l1.4-3.7c0,0,1.5,3,1.7,2.9s0.6-2.7,0.6-2.7l1.3,0.7l-0.3-3.1l0.7,0.2
	c0.4,0.1,0.7-0.2,0.7-0.8v-4.9l1.6,2.9l0.7-3.6c0.1-0.5,0.4-0.6,0.6-0.1l1.5,3.1l1.1-3.1l0.8,2.2l0.5-0.9c0.3-0.5,0.7-0.1,0.9,1
	l0.8,3.9l0.3,4.1l0.6-0.7c0.3-0.4,0.7,0.2,0.7,1.3l0.2,4.6c0.1,1.1,0.3,1.1,0.5,0l0.8-4.6c0.2-1.1,0.6-1.1,0.9-0.1l1.7,5.4l2.6-2.7
	l1.5,1.4l1.5-2.1l1.8,1.5l2.2,2.9l0.4,2.7l1.7-3.1l0.5,1.6l0.6-1.8l0.5,0.6c0.3,0.4,0.4,0.2,0.4-0.4l-0.1-3.7l1.3,2.4l0.6-3.1l1.1,2
	c0,0,1.1-1.3,1.1-1c0.1,0.3,0.3,3.1,0.3,3.1l0.8-1.4c0.3-0.5,0.5-0.4,0.6,0.1l0.4,3.2l0.9-3.1c0.2-0.5,0.4-0.5,0.5,0l0.6,3l1.2-2.2
	l0.9,2.3l0.6-2.3l1.1,1.2l0.6-3c0.1-0.5,0.3-0.5,0.4,0l0.5,3.3l0.7-0.3c0.4-0.2,0.8,0.1,0.8,0.7l0.4,4.4l1.2-1.1l0.4,0.3
	c0.2,0.1,0.4-0.2,0.5-0.7l0.5-3.3c0.1-0.5,0.3-0.6,0.5-0.1l1.5,3.4c0.2,0.5,0.4,0.5,0.4-0.1l0.2-4l1.1,1.6c0.3,0.5,0.5,0.4,0.4-0.2
	l-0.6-4.7l0.5-1.1c0.3-0.6,0.5-3.3,0.4-6.1l-0.2-8.7l0.6-4.7l0.1-20.2c0-2.8,0.2-2.8,0.5,0l0.7,7.4l0.8,3.1l0.4-0.6
	c0.2-0.3,0.4,1.6,0.3,4.4l-0.1,7.8c0,0.6,0.1,0.6,0.3,0l1.2-3.9c0.2-0.5,0.4-0.5,0.5,0l0.8,3.2l0.7-0.1c0.4-0.1,0.6,0.3,0.6,0.9
	l-0.4,4.7c0,0,1.4-2.7,1.4-2.4c0,0.3,0.5,10.8,0.5,10.8l0.9-3.6c0.1-0.5,0.3-0.5,0.4,0l0.4,3.5l0.4-1c0.2-0.5,0.4-0.5,0.5,0.1
	l0.3,3.4l1.8-1.6l-0.2,2.7c0,0.6,0.1,1.4,0.4,1.9l1.6,3l1.2-2.1l1.3,3.1l0.4-3.5l0.8,0.8c0.4,0.4,0.8-0.6,0.8-2.2l0.1-5.7l1.1,3.8
	c0.1,0.5,0.3,0.5,0.4,0l0.4-3.7l1,2.1l0.6-2c0.2-0.5,0.3-0.5,0.3,0l0.1,4.1l2.2-1.2l-1,3.5l0.7-0.4c0.4-0.2,0.9,0,1,0.6l1.1,3.6
	l1.3-1.3l0.4,1.3c0.2,0.5,0.4,0.5,0.5,0l0.7-3.7c0.1-0.5,0.3-0.5,0.4,0l0.9,4.8l1.3-3l0.9,2.8c0.3,1.1,0.8,1,1-0.1l0.9-5.3
	c0.2-1.1,0.4-1.1,0.5,0l0.4,5c0,0,1.6-4.8,1.6-4.5s0.3,4.1,0.3,4.1l1.4-3.2l0.3,3.3l1.1-2.3l0.4,3.9l1.1-2.4l1.1,2.4l0.3-3.1
	l0.8,1.1c0.3,0.4,0.6,0.4,0.5-0.2l-0.2-3.3l1.7,0.7l-0.3-3.3l0.6,0.6c0.3,0.3,0.6,0.2,0.5-0.4l-0.3-4l1.3,3.3
	c0.2,0.5,0.3,0.5,0.3-0.1l-0.2-4.6l0.7,0.9c0.4,0.5,0.7-0.5,0.7-2.1l-0.1-5.3c0-1.1,0.1-1.1,0.4,0l0.9,4c0.1,0.5,0.3,0.5,0.4,0
	c0,0,0.5-3,0.6-2.8c0.1,0.3,0.9,2.2,0.9,2.2c0.2,0.5,0.4,0.5,0.4-0.1V142l0.6,1.1c0.3,0.6,0.7-0.3,0.7-1.9l0.1-5.5l1.1,2.3
	c0.6,1.3,1,1,1-0.7l0-6.6l0.2-9.2c0-1.7,0.2-1.7,0.3,0l0.6,6.8c0.3,2.7,0.6,2.7,0.8,0l0.4-7.2l0.6-5.6c0.3-2.7,0.6-2.7,0.6,0
	l0.3,8.9c0,1.7,0.4,1.7,0.8,0.1l1.2-5"/>
<path class="st6" d="M40.6,169.8l1.5-4.1c0.4-1,0.9-1,1.2,0.1l1.2,4.4l0.8-3.4c0,0,1.7,7.5,2.2,7.2c0.6-0.3,2.2-4.1,2.2-4.1
	s0.3,9.2,0.8,8.5c0.6-0.7,2.5-6.2,2.5-6.2l1.4,3.1l1.4-2.4l1.7,2.1l1.5-1.4c0.4-0.4,1-0.3,1.3,0.2l1.7,2.9c0,0,1.7-10.6,2.2-10.6
	c0.6,0,1.1,2.1,1.7,2.4c0.6,0.3,3.1-1.4,3.1-1.4s1.7,2.7,2.2,3.1c0.6,0.3,2.8-1.7,2.8-1.7s1.1,2.1,1.7,2.1c0.6,0,2-1.7,2-1.7
	l0.6-1.7l1.4,2.2v-2.1c0-1.1,0.3-1.8,0.6-1.5c0,0,0.3,0.7,0.6,0.5c0.3-0.2,1.1-1.7,1.3-1.4c0.1,0.3,1.5,4.9,1.5,4.9
	c0.3,1.1,0.7,1,0.9-0.1l0.7-5.2l2-2.4c0,0,2,4.8,2.1,4.4s0.1-4.8,0.1-4.8l1.3,0.3l0.8-2.4c0,0,1.7,0.9,1.8,0.5
	c0.1-0.3-0.3-1.9-0.3-1.9l1.1,0.5l-0.1-2.4l0.6,0.2c0.3,0.1,0.6-0.3,0.6-0.8l0.1-3.4l1.2,0.6c0.7,0.3,1.2-0.3,1.3-1.4l0.3-4.7
	l0.8,0.7c0.5,0.4,1-0.2,1.2-1.3l0.9-4.5l0.8-6.7c0.1-1.1,0.4-1.1,0.6,0l1.2,5.6c0.1,0.5,0.2,1.4,0.2,2v3.1l2.1-2.2
	c0,0,1.8,2,1.8,1.7c0-0.3,1-3.6,1-3.6l1.1,0.9c0.6,0.5,1.4-0.5,1.7-2.1l1.1-5.4l0.4-3.8c0,0,1.4,1.5,1.5,1c0.1-0.5,1.1-3.8,1.1-3.8
	l1.5,3.2l0.3,2.9l1.5-1c0.5-0.3,0.9-0.1,1,0.4l0.6,4l0.4-0.9c0.2-0.5,0.5,0,0.5,1.1l0.2,4.3l0.7-0.2c0.4-0.1,0.7,1.2,0.8,2.8
	c0,0,0.2,5.4,0.2,5c0-0.3,0.8-2.8,0.8-2.8c0.5-1.4,1.2-1.2,1.6,0.4l1.5,5.5c0,0,1.8-2.9,2-2.6c0.1,0.3,0.3,1.4,0.3,1.4l1.8-1.5
	l0.4,1l1.3-2.6l1.5,2.2l1.4-0.7c0,0,0.6,5.1,0.8,5c0.3-0.2,2.2-4.4,2.2-4.4l0.7,0.3c0.4,0.2,0.9-0.5,1.1-1.6l0.9-4.2l2,0.5l0.3-2.9
	l2,2.9c0,0,0.4,4.1,0.6,3.2c0.1-0.9,0.8-4.6,0.8-4.6s1.1,3.2,1.1,3.6c0,0.3,1.7-0.7,1.7-0.7l2.1,1.9l0.4-3.5c0.1-1.1,0.6-1.2,1-0.1
	l1.6,4c0,0,1.1,5.3,1.3,5.6c0.1,0.3,2.1-4.4,2.1-4.4c0.2-0.5,0.6-0.5,0.8,0l1.2,3l0.7-3.4l0.5,1.4c0.3,0.8,0.5-2.2,0.5-6.6l0.1-11.8
	l1.4-25.8l0.1-0.3c0-0.1,0.2,2.4,0.5,5.7l0.6,9.4l1.4,14.4l0.8-1.7c0.4-0.9,1-0.4,1.3,1.2l1,5.8l1.3-1.5c0.4-0.4,0.7-0.3,0.7,0.2
	l0.2,4.6l1.1-2.2l0.4,3.9l1.1-2.4v3.9l1.4-0.2l0.1,2.4l1.3-1.2l0.6,3.6l1.7-1.9l0.4,3.4l1.2-1.6c0.3-0.4,0.7-1.2,0.7-1.8
	c0,0,0.9-9.3,1-8.7c0.1,0.5,1,5.3,1,5.3c0.1,0.5,0.4,0.6,0.6,0.1l1.8-3.4l0.7,3.9c0,0,1.4-3.1,1.4-2.7c0,0.3,0.1,4.4,0.1,4.4
	l0.5-0.9c0.3-0.5,0.5-0.4,0.6,0.1l0.5,4.3l1.3-1.4v3.2l0.8-0.3c0.4-0.2,1-1.7,1.2-3.3c0,0,0.4-4.7,0.6-4c0.1,0.7,0.5,3.6,0.5,3.6
	c0.2,1.6,0.7,1.9,1.2,0.7c0,0,0.6-2.7,0.8-2.2c0.3,0.5,0.9,3.3,0.9,3.3c0.3,1.6,0.8,1.5,1-0.2l0.9-6.1c0.1-0.5,0.2-0.5,0.3,0l0.5,4
	c0.1,0.5,0.3,0.6,0.5,0.1l1.3-3.3l0.6,2.3c0.1,0.5,0.4,0.5,0.5,0c0,0,0.6-2.5,0.6-2.1c0,0.3,2.1,4.8,2.1,4.4s0.7-2.9,0.8-2.4
	c0.1,0.5,0.5,1.8,0.5,1.8c0.1,0.5,0.3,0.5,0.3,0l0.2-4l0.6,0.4c0.3,0.2,0.6,0,0.5-0.6l-0.3-3.4h0.8c0.5,0,0.9-0.4,0.9-1l0.2-3.8
	l0.7,0.8c0.4,0.4,0.6-0.1,0.5-1.2c0,0-0.5-6.2-0.5-5.7c0,0.5,1.4,4.3,1.4,4.3c0.4,1,0.6,1,0.5-0.1l-0.4-4.3l0.8-13.9
	c0.1-1.7,0.4-1.7,0.7,0l1,5.3l0.8-3.8l0.5,1.2c0.3,0.7,0.5-0.1,0.6-1.8l0.2-5.7l0.6,0.8c0.3,0.4,0.6-0.1,0.5-1.2l0-4.8
	c0-3.7,0.3-6.3,0.8-5.6c0,0,0.4,0.8,0.8,1.1c0.4,0.3,0.2-34.4,0.2-34.4c0-4.7,0.3-4.7,0.8,0l1.4,13.7c0.2,1.6,0.4,1.6,0.5,0l0.5-5.6
	l-1.1-12.5l0.2-7.2c0-0.6,0.1-0.6,0.2,0l0.6,4.5c0.4,3,0.6,1.7,0.6-3c0,0-0.7-26-0.4-26c0.3,0,0.9,2.7,0.9,2.7
	c0.3,1.5,0.6,6.5,0.6,11.2v20c0,2.8,0.2,2.8,0.4,0l0.7-8.2"/>
</svg>
