<?xml version="1.0" encoding="utf-8"?>
<!-- Generator: Adobe Illustrator 26.0.1, SVG Export Plug-In . SVG Version: 6.00 Build 0)  -->
<svg version="1.1" id="Layer_3" xmlns="http://www.w3.org/2000/svg" xmlns:xlink="http://www.w3.org/1999/xlink" x="0px" y="0px"
	 viewBox="0 0 250 250" style="enable-background:new 0 0 250 250;" xml:space="preserve">
<style type="text/css">
	.st0{fill:#4D4D4F;}
	.st1{fill:none;stroke:#B19E4E;stroke-linecap:round;stroke-linejoin:round;stroke-miterlimit:10;}
	.st2{fill:none;stroke:#BCBEC0;stroke-width:0.5;}
</style>
<g>
	<path class="st0" d="M8,122.8v-0.6l3.6-1.3c0.4-0.2,0.7-0.2,1-0.3v0c-0.3-0.1-0.5-0.2-1-0.3L8,118.9v-0.6l5.3-0.7v0.6l-3.5,0.5
		c-0.4,0-0.6,0.1-0.7,0.1v0c0.2,0.1,0.4,0.1,0.7,0.2l3.5,1.3v0.6l-3.5,1.3c-0.3,0.1-0.6,0.2-0.7,0.3v0c0.2,0,0.4,0,0.8,0.1l3.5,0.4
		v0.6L8,122.8z"/>
	<path class="st0" d="M12.2,116.5H9.5v-0.6h2.6c0.5,0,0.8-0.2,0.8-0.7c0-0.6-0.6-1-0.7-1.1H9.5v-0.6h3c0.3,0,0.7,0,0.8-0.1v0.6
		c-0.1,0-0.4,0-0.6,0.1c0.2,0.2,0.7,0.6,0.7,1.2C13.4,116.2,12.9,116.5,12.2,116.5z"/>
	<path class="st0" d="M7.6,112.2v-0.6h5.8v0.6H7.6z"/>
	<path class="st0" d="M12.4,110H10v0.6H9.5V110H8.4v-0.6h1.1v-1H10v1h2.4c0.4,0,0.6-0.1,0.6-0.4c0-0.2-0.1-0.5-0.2-0.5l0.4-0.2
		c0.1,0.1,0.2,0.4,0.2,0.8C13.4,109.7,13.1,110,12.4,110z"/>
	<path class="st0" d="M8.4,107.4c-0.2,0-0.4-0.2-0.4-0.4s0.2-0.4,0.4-0.4s0.4,0.2,0.4,0.4S8.6,107.4,8.4,107.4z M9.5,107.3v-0.6h3.8
		v0.6H9.5z"/>
	<path class="st0" d="M9.5,105.2v-0.6h0.4c-0.2-0.2-0.5-0.6-0.5-1.1c0-0.9,0.7-1.6,2-1.6c1.2,0,2,0.7,2,1.7c0,0.5-0.2,0.8-0.3,1h2
		v0.6H9.5z M11.4,102.6c-0.9,0-1.5,0.3-1.5,1.1c0,0.5,0.4,0.9,0.5,1h2.1c0.2-0.2,0.4-0.4,0.4-0.9C12.9,103,12.3,102.6,11.4,102.6z"
		/>
	<path class="st0" d="M7.6,100.9v-0.6h5.8v0.6H7.6z"/>
	<path class="st0" d="M11.4,99.2c-1.1,0-2-0.7-2-1.7c0-1,0.7-1.5,1.7-1.5c0.1,0,0.2,0,0.3,0v2.6c0.8,0,1.5-0.3,1.5-1.2
		c0-0.5-0.2-0.9-0.3-1.1l0.5-0.2c0.1,0.2,0.4,0.6,0.4,1.3C13.4,98.6,12.5,99.2,11.4,99.2z M11,96.6c-0.5,0-1,0.3-1,0.9
		c0,0.6,0.4,1,1,1.1V96.6z"/>
	<path class="st0" d="M13.1,95.2L12.6,95c0.1-0.1,0.3-0.5,0.3-1c0-0.5-0.2-0.8-0.6-0.8c-0.4,0-0.5,0.3-0.7,0.8
		c-0.3,0.6-0.5,1.1-1.2,1.1c-0.6,0-1.1-0.4-1.1-1.2c0-0.6,0.3-1,0.4-1.1l0.4,0.3c-0.1,0.1-0.3,0.4-0.3,0.9c0,0.4,0.2,0.6,0.5,0.6
		c0.4,0,0.5-0.3,0.7-0.7c0.3-0.6,0.5-1.2,1.2-1.2c0.7,0,1.1,0.5,1.1,1.4C13.5,94.6,13.3,95,13.1,95.2z"/>
	<path class="st0" d="M11.1,89.9c-1.3,0-2.6-0.6-3.5-1.4v-0.6c0.7,0.7,1.9,1.4,3.5,1.4c1.5,0,2.7-0.5,3.7-1.4v0.6
		C13.8,89.4,12.5,89.9,11.1,89.9z"/>
	<path class="st0" d="M11.3,86.3l-1.8,1.2v-0.7c0,0,1.3-0.9,1.4-0.9l-1.4-0.9v-0.6l1.8,1.2l2-1.4v0.7L11.8,86l1.6,1v0.6L11.3,86.3z"
		/>
	<path class="st0" d="M11.3,82.6c-1.5,0-2.7,0.5-3.7,1.4v-0.6c1-0.9,2.3-1.4,3.7-1.4c1.4,0,2.6,0.6,3.5,1.4V84
		C14.1,83.3,12.9,82.6,11.3,82.6z"/>
</g>
<path class="st0" d="M19.8,19.1h-2.5v-0.5l2.4-3.6h0.6v3.6h0.8v0.5h-0.8v1.2h-0.6V19.1z M18.6,18.6h1.2v-2.7h0l-1.8,2.8
	C18.1,18.6,18.4,18.6,18.6,18.6z M21.8,19.9c0-0.3,0.2-0.5,0.5-0.5s0.5,0.2,0.5,0.5s-0.2,0.5-0.5,0.5S21.8,20.2,21.8,19.9z
	 M23.6,17.6c0-1.3,0.5-2.8,2-2.8c1.4,0,2,1.4,2,2.8s-0.6,2.8-2,2.8C24.2,20.4,23.6,19,23.6,17.6z M27,17.6c0-1.3-0.4-2.3-1.4-2.3
	c-1,0-1.4,1-1.4,2.3s0.4,2.3,1.4,2.3C26.6,19.9,27,18.9,27,17.6z"/>
<path class="st0" d="M19.3,69.5l0.1-0.5c0.1,0,0.3,0.1,0.7,0.1c1,0,1.5-0.4,1.5-1.1c0-0.8-0.7-1.1-1.7-1.1v-0.4
	c0.8,0,1.6-0.4,1.6-1.1c0-0.4-0.3-0.7-0.9-0.7c-0.5,0-0.8,0.2-1.1,0.4l-0.3-0.4c0.3-0.2,0.8-0.5,1.4-0.5c1,0,1.5,0.5,1.5,1.2
	c0,0.7-0.6,1.1-1.2,1.3v0c0.7,0.1,1.3,0.6,1.3,1.4c0,1.1-0.9,1.7-2.1,1.7C19.6,69.6,19.4,69.5,19.3,69.5z M23.1,69
	c0-0.3,0.2-0.5,0.5-0.5s0.5,0.2,0.5,0.5s-0.2,0.5-0.5,0.5S23.1,69.3,23.1,69z M25,66.8c0-1.3,0.5-2.8,2-2.8c1.4,0,2,1.4,2,2.8
	s-0.6,2.8-2,2.8C25.5,69.6,25,68.1,25,66.8z M28.3,66.8c0-1.3-0.4-2.3-1.4-2.3c-1,0-1.4,1-1.4,2.3s0.4,2.3,1.4,2.3
	C27.9,69.1,28.3,68.1,28.3,66.8z"/>
<path class="st0" d="M19,116.3c0.9-0.9,2.5-2.4,2.5-3.6c0-0.7-0.4-1-0.9-1c-0.6,0-0.9,0.3-1.2,0.5l-0.3-0.4c0.3-0.4,0.8-0.7,1.5-0.7
	c0.9,0,1.6,0.5,1.6,1.4c0,1.2-1.3,2.5-2.3,3.5c0,0,0.3,0,0.6,0h1.8v0.5H19V116.3z M23.1,116.3c0-0.3,0.2-0.5,0.5-0.5
	s0.5,0.2,0.5,0.5s-0.2,0.5-0.5,0.5S23.1,116.5,23.1,116.3z M25,114c0-1.3,0.5-2.8,2-2.8c1.4,0,2,1.4,2,2.8s-0.6,2.8-2,2.8
	C25.5,116.8,25,115.3,25,114z M28.3,114c0-1.3-0.4-2.3-1.4-2.3c-1,0-1.4,1-1.4,2.3s0.4,2.3,1.4,2.3C27.9,116.3,28.3,115.3,28.3,114z
	"/>
<path class="st0" d="M21.3,160.1l-1,0.3l-0.1-0.5l1.3-0.4h0.5v5.3h-0.6V160.1z M23.1,164.5c0-0.3,0.2-0.5,0.5-0.5s0.5,0.2,0.5,0.5
	s-0.2,0.5-0.5,0.5S23.1,164.7,23.1,164.5z M25,162.2c0-1.3,0.5-2.8,2-2.8c1.4,0,2,1.4,2,2.8s-0.6,2.8-2,2.8
	C25.5,165,25,163.5,25,162.2z M28.3,162.2c0-1.3-0.4-2.3-1.4-2.3c-1,0-1.4,1-1.4,2.3s0.4,2.3,1.4,2.3
	C27.9,164.5,28.3,163.5,28.3,162.2z"/>
<path class="st0" d="M18.3,210.3c0-1.3,0.5-2.8,2-2.8c1.4,0,2,1.4,2,2.8s-0.6,2.8-2,2.8C18.8,213.1,18.3,211.6,18.3,210.3z
	 M21.6,210.3c0-1.3-0.4-2.3-1.4-2.3c-1,0-1.4,1-1.4,2.3s0.4,2.3,1.4,2.3C21.2,212.6,21.6,211.6,21.6,210.3z M23.1,212.5
	c0-0.3,0.2-0.5,0.5-0.5s0.5,0.2,0.5,0.5s-0.2,0.5-0.5,0.5S23.1,212.8,23.1,212.5z M25,210.3c0-1.3,0.5-2.8,2-2.8c1.4,0,2,1.4,2,2.8
	s-0.6,2.8-2,2.8C25.5,213.1,25,211.6,25,210.3z M28.3,210.3c0-1.3-0.4-2.3-1.4-2.3c-1,0-1.4,1-1.4,2.3s0.4,2.3,1.4,2.3
	C27.9,212.6,28.3,211.6,28.3,210.3z"/>
<g>
	<path class="st0" d="M22,219h0.6l1.3,3.6c0.2,0.4,0.2,0.7,0.3,1h0c0.1-0.3,0.2-0.5,0.3-1l1.3-3.6h0.6l0.7,5.3h-0.6l-0.5-3.5
		c0-0.4-0.1-0.6-0.1-0.7h0c-0.1,0.2-0.1,0.4-0.2,0.7l-1.3,3.5h-0.6l-1.3-3.5c-0.1-0.3-0.2-0.6-0.3-0.7h0c0,0.2,0,0.4-0.1,0.8
		l-0.4,3.5h-0.6L22,219z"/>
	<path class="st0" d="M28.1,223.4c0-1,1.1-1.3,2-1.3h0.2v-0.4c0-0.6-0.2-0.8-0.8-0.8c-0.4,0-0.7,0.1-1,0.4l-0.3-0.4
		c0.4-0.4,0.8-0.5,1.4-0.5c0.8,0,1.3,0.4,1.3,1.3v1.8c0,0.4,0,0.7,0.1,0.9h-0.6c0-0.1,0-0.3-0.1-0.5c-0.3,0.3-0.7,0.6-1.2,0.6
		C28.6,224.4,28.1,224,28.1,223.4z M30.3,223.3v-0.9h-0.2c-0.8,0-1.4,0.2-1.4,0.9c0,0.4,0.3,0.5,0.6,0.5
		C29.7,223.9,30.1,223.7,30.3,223.3z"/>
	<path class="st0" d="M32.3,220.5h0.6v0.6c0.2-0.3,0.5-0.7,1-0.7c0.2,0,0.4,0.1,0.4,0.1l-0.1,0.6c0,0-0.1-0.1-0.3-0.1
		c-0.6,0-0.9,0.7-0.9,0.8v2.6h-0.6V220.5z"/>
	<path class="st0" d="M34.7,221.8h1.6v0.5h-1.6V221.8z"/>
</g>
<path class="st0" d="M38.2,219.5l-1,0.3l-0.1-0.5l1.3-0.4h0.5v5.3h-0.6V219.5z M40,222.1c0-2,1.2-3.3,3.1-3.3l0.1,0.5
	c-0.8,0-1.4,0.2-1.9,0.6c-0.4,0.4-0.6,0.9-0.7,1.6c0.3-0.3,0.7-0.5,1.2-0.5c1,0,1.6,0.7,1.6,1.6s-0.6,1.7-1.7,1.7
	C40.5,224.4,40,223.2,40,222.1z M42.9,222.7c0-0.8-0.4-1.2-1.1-1.2c-0.5,0-0.8,0.2-1.1,0.5v0.1c0,1.1,0.4,1.8,1.2,1.8
	C42.6,223.9,42.9,223.3,42.9,222.7z"/>
<g>
	<path class="st0" d="M59.7,219h0.6l1.3,3.6c0.2,0.4,0.2,0.7,0.3,1h0c0.1-0.3,0.2-0.5,0.3-1l1.3-3.6h0.6l0.7,5.3h-0.6l-0.5-3.5
		c0-0.4-0.1-0.6-0.1-0.7h0c-0.1,0.2-0.1,0.4-0.2,0.7l-1.3,3.5h-0.6l-1.3-3.5c-0.1-0.3-0.2-0.6-0.3-0.7h0c0,0.2,0,0.4-0.1,0.8
		l-0.4,3.5h-0.6L59.7,219z"/>
	<path class="st0" d="M65.8,223.4c0-1,1.1-1.3,2-1.3H68v-0.4c0-0.6-0.2-0.8-0.8-0.8c-0.4,0-0.7,0.1-1,0.4l-0.3-0.4
		c0.4-0.4,0.8-0.5,1.4-0.5c0.8,0,1.3,0.4,1.3,1.3v1.8c0,0.4,0,0.7,0.1,0.9h-0.6c0-0.1,0-0.3-0.1-0.5c-0.3,0.3-0.7,0.6-1.2,0.6
		C66.2,224.4,65.8,224,65.8,223.4z M68,223.3v-0.9h-0.2c-0.8,0-1.4,0.2-1.4,0.9c0,0.4,0.3,0.5,0.6,0.5
		C67.4,223.9,67.7,223.7,68,223.3z"/>
	<path class="st0" d="M69.9,220.5h0.6v0.6c0.2-0.3,0.5-0.7,1-0.7c0.2,0,0.4,0.1,0.4,0.1l-0.1,0.6c0,0-0.1-0.1-0.3-0.1
		c-0.6,0-0.9,0.7-0.9,0.8v2.6h-0.6V220.5z"/>
	<path class="st0" d="M72.4,221.8H74v0.5h-1.6V221.8z"/>
</g>
<path class="st0" d="M75.8,219.5l-1,0.3l-0.1-0.5l1.3-0.4h0.5v5.3h-0.6V219.5z M78,224.3l1.9-4.8h-2.4V219h3v0.4l-2,5.1L78,224.3z"
	/>
<g>
	<path class="st0" d="M96.9,219h0.6l1.3,3.6c0.2,0.4,0.2,0.7,0.3,1h0c0.1-0.3,0.2-0.5,0.3-1l1.3-3.6h0.6l0.7,5.3h-0.6l-0.5-3.5
		c0-0.4-0.1-0.6-0.1-0.7h0c-0.1,0.2-0.1,0.4-0.2,0.7l-1.3,3.5h-0.6l-1.3-3.5c-0.1-0.3-0.2-0.6-0.3-0.7h0c0,0.2,0,0.4-0.1,0.8
		l-0.4,3.5h-0.6L96.9,219z"/>
	<path class="st0" d="M103,223.4c0-1,1.1-1.3,2-1.3h0.2v-0.4c0-0.6-0.2-0.8-0.8-0.8c-0.4,0-0.7,0.1-1,0.4l-0.3-0.4
		c0.4-0.4,0.8-0.5,1.4-0.5c0.8,0,1.3,0.4,1.3,1.3v1.8c0,0.4,0,0.7,0.1,0.9h-0.6c0-0.1,0-0.3-0.1-0.5c-0.3,0.3-0.7,0.6-1.2,0.6
		C103.5,224.4,103,224,103,223.4z M105.2,223.3v-0.9h-0.2c-0.8,0-1.4,0.2-1.4,0.9c0,0.4,0.3,0.5,0.6,0.5
		C104.6,223.9,105,223.7,105.2,223.3z"/>
	<path class="st0" d="M107.2,220.5h0.6v0.6c0.2-0.3,0.5-0.7,1-0.7c0.2,0,0.4,0.1,0.4,0.1L109,221c0,0-0.1-0.1-0.3-0.1
		c-0.6,0-0.9,0.7-0.9,0.8v2.6h-0.6V220.5z"/>
	<path class="st0" d="M109.6,221.8h1.6v0.5h-1.6V221.8z"/>
</g>
<path class="st0" d="M113.1,219.5l-1,0.3l-0.1-0.5l1.3-0.4h0.5v5.3h-0.6V219.5z M114.9,223c0-0.7,0.7-1.2,1.1-1.5
	c-0.5-0.3-1-0.7-1-1.3c0-0.8,0.7-1.3,1.5-1.3c0.9,0,1.5,0.5,1.5,1.3c0,0.7-0.6,1-1.1,1.3c0.5,0.3,1.2,0.7,1.2,1.5
	c0,0.8-0.6,1.4-1.6,1.4C115.4,224.4,114.9,223.7,114.9,223z M117.5,223c0-0.6-0.6-1-1.1-1.2c-0.4,0.2-0.9,0.6-0.9,1.2
	c0,0.5,0.3,0.9,1,0.9C117.1,223.9,117.5,223.5,117.5,223z M117.4,220.2c0-0.4-0.3-0.8-0.8-0.8s-0.9,0.3-0.9,0.8c0,0.5,0.5,0.8,0.9,1
	C116.9,221,117.4,220.7,117.4,220.2z"/>
<g>
	<path class="st0" d="M133.7,219h0.6l1.3,3.6c0.2,0.4,0.2,0.7,0.3,1h0c0.1-0.3,0.2-0.5,0.3-1l1.3-3.6h0.6l0.7,5.3h-0.6l-0.5-3.5
		c0-0.4-0.1-0.6-0.1-0.7h0c-0.1,0.2-0.1,0.4-0.2,0.7l-1.3,3.5h-0.6l-1.3-3.5c-0.1-0.3-0.2-0.6-0.3-0.7h0c0,0.2,0,0.4-0.1,0.8
		l-0.4,3.5h-0.6L133.7,219z"/>
	<path class="st0" d="M139.7,223.4c0-1,1.1-1.3,2-1.3h0.2v-0.4c0-0.6-0.2-0.8-0.8-0.8c-0.4,0-0.7,0.1-1,0.4l-0.3-0.4
		c0.4-0.4,0.8-0.5,1.4-0.5c0.8,0,1.3,0.4,1.3,1.3v1.8c0,0.4,0,0.7,0.1,0.9h-0.6c0-0.1,0-0.3-0.1-0.5c-0.3,0.3-0.7,0.6-1.2,0.6
		C140.2,224.4,139.7,224,139.7,223.4z M142,223.3v-0.9h-0.2c-0.8,0-1.4,0.2-1.4,0.9c0,0.4,0.3,0.5,0.6,0.5
		C141.4,223.9,141.7,223.7,142,223.3z"/>
	<path class="st0" d="M143.9,220.5h0.6v0.6c0.2-0.3,0.5-0.7,1-0.7c0.2,0,0.4,0.1,0.4,0.1l-0.1,0.6c0,0-0.1-0.1-0.3-0.1
		c-0.6,0-0.9,0.7-0.9,0.8v2.6h-0.6V220.5z"/>
	<path class="st0" d="M146.4,221.8h1.6v0.5h-1.6V221.8z"/>
</g>
<path class="st0" d="M149.8,219.5l-1,0.3l-0.1-0.5l1.3-0.4h0.5v5.3h-0.6V219.5z M151.9,224c0.8,0,1.5-0.2,1.9-0.8
	c0.3-0.4,0.5-0.8,0.6-1.5c-0.3,0.3-0.7,0.5-1.2,0.5c-1,0-1.6-0.7-1.6-1.6s0.6-1.7,1.7-1.7c1.3,0,1.8,1.2,1.8,2.3c0,2-1,3.3-3,3.3
	L151.9,224z M154.4,221.3v-0.1c0-1.1-0.4-1.8-1.2-1.8c-0.7,0-1,0.6-1,1.2c0,0.8,0.4,1.2,1.1,1.2
	C153.8,221.7,154.1,221.6,154.4,221.3z"/>
<g>
	<path class="st0" d="M170.1,219h0.6l1.3,3.6c0.2,0.4,0.2,0.7,0.3,1h0c0.1-0.3,0.2-0.5,0.3-1l1.3-3.6h0.6l0.7,5.3h-0.6l-0.5-3.5
		c0-0.4-0.1-0.6-0.1-0.7h0c-0.1,0.2-0.1,0.4-0.2,0.7l-1.3,3.5h-0.6l-1.3-3.5c-0.1-0.3-0.2-0.6-0.3-0.7h0c0,0.2,0,0.4-0.1,0.8
		l-0.4,3.5h-0.6L170.1,219z"/>
	<path class="st0" d="M176.2,223.4c0-1,1.1-1.3,2-1.3h0.2v-0.4c0-0.6-0.2-0.8-0.8-0.8c-0.4,0-0.7,0.1-1,0.4l-0.3-0.4
		c0.4-0.4,0.8-0.5,1.4-0.5c0.8,0,1.3,0.4,1.3,1.3v1.8c0,0.4,0,0.7,0.1,0.9h-0.6c0-0.1,0-0.3-0.1-0.5c-0.3,0.3-0.7,0.6-1.2,0.6
		C176.7,224.4,176.2,224,176.2,223.4z M178.4,223.3v-0.9h-0.2c-0.8,0-1.4,0.2-1.4,0.9c0,0.4,0.3,0.5,0.6,0.5
		C177.8,223.9,178.2,223.7,178.4,223.3z"/>
	<path class="st0" d="M180.4,220.5h0.6v0.6c0.2-0.3,0.5-0.7,1-0.7c0.2,0,0.4,0.1,0.4,0.1l-0.1,0.6c0,0-0.1-0.1-0.3-0.1
		c-0.6,0-0.9,0.7-0.9,0.8v2.6h-0.6V220.5z"/>
	<path class="st0" d="M182.8,221.8h1.6v0.5h-1.6V221.8z"/>
</g>
<path class="st0" d="M185.2,224c0.9-0.9,2.5-2.4,2.5-3.6c0-0.7-0.4-1-0.9-1c-0.6,0-0.9,0.3-1.2,0.5l-0.3-0.4
	c0.3-0.4,0.8-0.7,1.5-0.7c0.9,0,1.6,0.5,1.6,1.4c0,1.2-1.3,2.5-2.3,3.5c0,0,0.3,0,0.6,0h1.8v0.5h-3.3V224z M189.4,221.6
	c0-1.3,0.5-2.8,2-2.8c1.4,0,2,1.4,2,2.8s-0.6,2.8-2,2.8C189.9,224.4,189.4,222.9,189.4,221.6z M192.8,221.6c0-1.3-0.4-2.3-1.4-2.3
	c-1,0-1.4,1-1.4,2.3s0.4,2.3,1.4,2.3C192.3,223.9,192.8,222.9,192.8,221.6z"/>
<g>
	<path class="st0" d="M208.3,219h0.6l1.3,3.6c0.2,0.4,0.2,0.7,0.3,1h0c0.1-0.3,0.2-0.5,0.3-1l1.3-3.6h0.6l0.7,5.3h-0.6l-0.5-3.5
		c0-0.4-0.1-0.6-0.1-0.7h0c-0.1,0.2-0.1,0.4-0.2,0.7l-1.3,3.5h-0.6l-1.3-3.5c-0.1-0.3-0.2-0.6-0.3-0.7h0c0,0.2,0,0.4-0.1,0.8
		l-0.4,3.5h-0.6L208.3,219z"/>
	<path class="st0" d="M214.4,223.4c0-1,1.1-1.3,2-1.3h0.2v-0.4c0-0.6-0.2-0.8-0.8-0.8c-0.4,0-0.7,0.1-1,0.4l-0.3-0.4
		c0.4-0.4,0.8-0.5,1.4-0.5c0.8,0,1.3,0.4,1.3,1.3v1.8c0,0.4,0,0.7,0.1,0.9h-0.6c0-0.1,0-0.3-0.1-0.5c-0.3,0.3-0.7,0.6-1.2,0.6
		C214.8,224.4,214.4,224,214.4,223.4z M216.6,223.3v-0.9h-0.2c-0.8,0-1.4,0.2-1.4,0.9c0,0.4,0.3,0.5,0.6,0.5
		C216,223.9,216.3,223.7,216.6,223.3z"/>
	<path class="st0" d="M218.5,220.5h0.6v0.6c0.2-0.3,0.5-0.7,1-0.7c0.2,0,0.4,0.1,0.4,0.1l-0.1,0.6c0,0-0.1-0.1-0.3-0.1
		c-0.6,0-0.9,0.7-0.9,0.8v2.6h-0.6V220.5z"/>
	<path class="st0" d="M221,221.8h1.6v0.5H221V221.8z"/>
</g>
<path class="st0" d="M223.4,224c0.9-0.9,2.5-2.4,2.5-3.6c0-0.7-0.4-1-0.9-1c-0.6,0-0.9,0.3-1.2,0.5l-0.3-0.4
	c0.3-0.4,0.8-0.7,1.5-0.7c0.9,0,1.6,0.5,1.6,1.4c0,1.2-1.3,2.5-2.3,3.5c0,0,0.3,0,0.6,0h1.8v0.5h-3.3V224z M228.5,219.5l-1,0.3
	l-0.1-0.5l1.3-0.4h0.5v5.3h-0.6V219.5z"/>
<polyline class="st1" points="33.2,197.1 42.5,185.5 51.9,182.2 61.1,191.3 70.2,174.9 79.5,177.8 88.8,177.8 98,185 107.1,174.4 
	116.5,174.4 125.8,171 135,186.9 144.1,191.8 153.4,186 162.7,200 172,198.5 181.2,205.8 190.5,206.3 199.8,184.1 209,173.4 
	218.1,125.7 227.5,83.2 236.8,69.7 "/>
<line class="st2" x1="30.8" y1="210.4" x2="237.6" y2="210.4"/>
<line class="st2" x1="143.6" y1="213.9" x2="143.6" y2="210"/>
<line class="st2" x1="106.9" y1="213.9" x2="106.9" y2="210"/>
<line class="st2" x1="69.6" y1="213.9" x2="69.6" y2="210"/>
<line class="st2" x1="32.3" y1="213.9" x2="32.3" y2="17.2"/>
<line class="st2" x1="237.4" y1="211" x2="237.4" y2="17.2"/>
<line class="st2" x1="180.9" y1="213.9" x2="180.9" y2="210"/>
<line class="st2" x1="217.9" y1="213.9" x2="217.9" y2="210"/>
<line class="st2" x1="30.8" y1="17.3" x2="237.6" y2="17.3"/>
<line class="st2" x1="30.8" y1="65.9" x2="237.6" y2="65.9"/>
<line class="st2" x1="30.8" y1="114" x2="237.6" y2="114"/>
<line class="st2" x1="30.8" y1="162.4" x2="237.6" y2="162.4"/>
</svg>
