<?xml version="1.0" encoding="utf-8"?>
<!-- Generator: Adobe Illustrator 26.0.1, SVG Export Plug-In . SVG Version: 6.00 Build 0)  -->
<svg version="1.1" id="Layer_1" xmlns="http://www.w3.org/2000/svg" xmlns:xlink="http://www.w3.org/1999/xlink" x="0px" y="0px"
	 viewBox="0 0 23.5 23.7" style="enable-background:new 0 0 23.5 23.7;" xml:space="preserve">
<style type="text/css">
	.st0{fill:#FFFFFF;}
</style>
<g>
	<path class="st0" d="M17.1,6.8C17,6.9,17,6.6,17,6.4s-0.3-0.3-0.4-0.1c-0.1,0.2-0.1,0.3-0.2,0.5c-0.1,0.2-0.1,0.1-0.2,0.1
		c-0.1,0-0.2,0-0.2,0.2C16.3,7,16.5,7,16.7,7s0.5,0,0.6,0.1C17.2,7,17.2,6.8,17.1,6.8L17.1,6.8z"/>
	<path class="st0" d="M13.4,18.5c0-2.3,1.5-4.2,3.7-4.7c0-0.1,0-0.3,0-0.4c0-0.3,0.1-0.6,0.2-0.9c0.1-0.3,0.1-0.6,0.1-0.9
		c0-0.2,0-0.4-0.1-0.5c-0.1-0.1-0.3-0.2-0.4-0.2c-0.2,0-0.4,0.3-0.6,0.3s-0.4-0.1-0.6-0.2c-0.2-0.2-0.4-0.3-0.6-0.5
		s-0.3-0.5-0.3-0.9c0-0.3,0-0.6,0.1-0.8c0-0.1,0.1-0.3,0.1-0.4C15,8.1,15,8.3,15.1,8.1c0.1-0.2,0.2-0.4,0.3-0.6
		c0.1-0.2,0.2-0.3,0.4-0.5c-0.4-0.1-0.4-0.7-0.2-1.1c0.2,0,0.7,0.1,0.4-0.3c-0.1-0.1-0.4-0.1-0.2-0.3c0.1-0.1,0.2-0.1,0.4-0.1
		c0-0.1,0.1-0.2,0.2-0.2c-0.2-0.1-0.3-0.3-0.5-0.4c-0.1-0.1-0.2-0.5,0-0.6c0.5,0.5,1,1.1,1.4,1.8v0.1c0,0,0.2,0.3,0.2,0.5
		c0,0.1,0.1,0.1,0.1,0.2c0.1,0.3,0.2,0.6,0.3,0.9v0.1c-0.2-0.1-0.4-0.5-0.5-0.7c0,0.1,0,0.2,0,0.2h-0.1c0.1,0.1,0.1,0.2,0.1,0.2
		c0,0.1,0.1,0.1,0.1,0.2C17.6,7.6,17.7,8,17.9,8V7.9c0.3,0.1,0.4,0.6,0.4,0.9c0.1,0.6,0.1,1.2,0.1,1.7c-0.1,1.1-0.4,2.2-0.9,3.2
		c0.2,0,0.4-0.1,0.7-0.1c0.3,0,0.6,0,0.8,0.1c0.5-1.2,0.8-2.5,0.8-3.8c0-5.5-4.4-9.9-9.9-9.9S0,4.4,0,9.9s4.4,9.9,9.9,9.9
		c1.2,0,2.4-0.2,3.5-0.6C13.4,18.9,13.4,18.7,13.4,18.5z M12.8,15.2c-0.1,0.2-0.1,0.5-0.3,0.8c-0.3,0.5-0.8,0.2-1.1,0.6
		c-0.1,0.1-0.1,0.4-0.2,0.5c-0.1,0.1-0.5,0.1-0.6,0.2c-0.1,0.1-0.1,0.3-0.3,0.5C10.1,18,9.9,17.9,9.8,18c-0.1,0.1-0.4,0.4-0.6,0.5
		c-0.3-0.1-0.5-0.1-0.7-0.2c-0.4-0.5,0.2-1.7,0.1-2.2c-0.1-0.3-0.5-0.6-0.8-0.9s-0.5-0.6-0.7-1c-0.2-0.3-0.2-0.7,0.1-1
		c0.1-0.2,0.2-0.5,0.2-0.7c0-0.1,0.4-0.4,0.3-0.5c-0.2,0-0.5,0-0.7-0.1c-0.2-0.1-0.2-0.5-0.3-0.6c-0.4-0.3-1-0.1-1.4-0.4
		c-0.4-0.2-0.7-0.5-1-0.9C4.1,9.6,4,8.7,3.5,8.6c-0.1,0.3,0,0.7,0.1,1c0.1,0.3,0.3,0.9-0.2,0.7c0-0.4,0-0.8-0.1-1.2
		C3.2,8.7,2.9,8.3,2.8,7.9c0-0.4,0-0.8,0-1.2S2.6,5.9,2.6,5.5c0.3-0.4,0.6-0.9,0.9-1.2C3.8,4,4.1,3.8,4.4,3.6
		c0.3-0.2,0.7-0.3,1.1-0.4s0.8-0.1,1.2-0.1C6.6,2.8,6.3,2.6,6.8,2.6c0.3,0,0.4,0.3,0.7,0.2C7.4,2.7,6.9,2.4,7.4,2.3
		c0-0.2,0-0.3,0-0.5l0.3-0.1c0.5-0.1,1.1-0.2,1.6-0.3l0.2,0.1c-0.1,0-0.1,0.1-0.2,0.1c-0.2,0-0.4,0.1-0.6,0.2
		C8.2,2.1,8.8,2.1,9.1,2.2c0.3,0.1,0.5,0.4,0.8,0.5c0.3,0.1,0.6-0.1,0.5,0.5c-0.2,0.1-0.5,0-0.6-0.2C9.9,3.2,10,3.4,10,3.7
		c-0.4,0.1-0.6,0-0.9-0.2C8.8,3.4,8.6,3.4,8.3,3.3c0-0.1,0-0.1,0-0.2c0.3,0,0.6,0,0.4-0.4c-0.5,0-0.6,0.2-0.9,0.5
		c0.8,0.2,0.1,0.5-0.3,0.5S6.6,3.6,6.4,4C6.2,4.4,6.8,4.5,7.2,4.6c0.4,0.1,0.3,0,0.4,0.2C7.7,5,7.7,5.2,7.9,5.3C8,5.2,7.8,5,7.9,4.8
		C8,4.6,8.2,4.7,8.4,4.6C8.2,4.4,7.9,4.3,8,4s0.5-0.3,0.8-0.3c0.4,0,0.4,0.2,0.7,0.3C10,4.2,10,3.9,10.3,4.4
		c0.3,0.4,0.7,0.8,1.1,1.2c0.8,0.7-0.6,0.7-0.8,0.2c0.1,0,0.2-0.1,0.2-0.1c-0.4-0.1-0.9-0.1-1.3,0c0,0.1,0,0.1,0,0.2
		c0.2,0,0.4,0,0.6,0.1c0,0,0,0.2,0.1,0.3c0.1,0.1,0.3,0,0.4,0c0.1,0.5-1,0.3-1.3,0.5c0,0.1-0.1,0.2-0.1,0.3C8.6,6.9,8.6,7.5,8.4,7.8
		C8.2,8.2,8,8.3,7.8,8.5S7.5,8.8,7.5,8.9C7.5,9,7.9,9,7.9,9.3c0,0.5-0.7,0-0.8-0.3C6.5,8.9,5.7,8.8,5.4,9.6c-0.1,0.3,0,0.6,0.3,0.7
		h0.1c0.3,0,0.2-0.2,0.4-0.3c0.2,0,0.3,0,0.5,0c0.1,0.3,0.1,0.4,0.2,0.7C7,10.8,7.1,11,7.2,11.2c0.1,0.2,0.1,0.5,0.4,0.6
		c0.3,0.1,0.6-0.1,0.6,0.3c0.5,0,0.9,0.1,1.3,0.3c0.3,0.2,0.4,0.5,0.8,0.6c0.6,0.2,0.7,0.1,0.9,0.7c0.1,0.3-0.1,0.4,0.2,0.4
		c0.2,0,0.5-0.1,0.8-0.1c0.4,0,0.8,0.3,0.8,0.7C13,14.9,12.9,15,12.8,15.2z M13.2,2.8c-0.1,0.1-0.4-0.1-0.5,0.1
		c-0.1,0.2,0.1,0.5,0,0.6c-0.1,0.1-0.4,0.2-0.6,0.2C11.7,3.6,11.3,3.4,11,3c0,0-0.2-0.4-0.1-0.5c0.1-0.1,0.2,0,0.2-0.1
		c0-0.1,0-0.2-0.1-0.3c0,0.2-0.1,0.2-0.2,0.1c-0.1-0.1-0.1-0.3-0.2-0.5c-0.1-0.2-0.5-0.1-0.7-0.2c-0.1,0-0.2-0.1-0.3-0.1h0.3
		c1.2,0,2.3,0.2,3.3,0.7c0,0.1,0.1,0.2,0.2,0.2c0.1,0.1,0.5,0.2,0.1,0.2c-0.1,0-0.2,0-0.2,0S13.3,2.7,13.2,2.8z"/>
</g>
<path class="st0" d="M18.2,23.7c-2.9,0-5.3-2.4-5.3-5.3s2.4-5.3,5.3-5.3s5.3,2.4,5.3,5.3l0,0C23.5,21.4,21.2,23.7,18.2,23.7z
	 M18.2,14.2c-2.4,0-4.3,1.9-4.3,4.3s1.9,4.3,4.3,4.3s4.3-1.9,4.3-4.3l0,0C22.5,16.1,20.6,14.2,18.2,14.2
	C18.3,14.2,18.3,14.2,18.2,14.2z"/>
<path class="st0" d="M17.8,18.9l-0.4-0.6h-1.2v-0.6h0.9l-1-1.9H17l1.2,2.3l1.2-2.3h0.9l-1,1.9h0.9v0.6H19l-0.4,0.6h1.6v0.6h-1.6v2
	h-0.8v-2h-1.6v-0.6H17.8z"/>
</svg>
