<?xml version="1.0" encoding="utf-8"?>
<!-- Generator: Adobe Illustrator 26.0.1, SVG Export Plug-In . SVG Version: 6.00 Build 0)  -->
<svg version="1.1" id="Layer_1" xmlns="http://www.w3.org/2000/svg" xmlns:xlink="http://www.w3.org/1999/xlink" x="0px" y="0px"
	 viewBox="0 0 21.6 23.7" style="enable-background:new 0 0 21.6 23.7;" xml:space="preserve">
<style type="text/css">
	.st0{fill:#FFFFFF;}
</style>
<g>
	<g>
		<polygon class="st0" points="0.4,13.8 7.2,19.2 11.4,15.7 17.7,20.9 15.2,23.3 21.1,23.3 21.1,17.6 19,19.6 11.4,13.3 7.2,16.8 
			0.4,11.5 		"/>
	</g>
	<g>
		<path class="st0" d="M21.5,23.7h-7.4l2.9-2.8l-5.6-4.7l-4.2,3.5L0,14v-3.4l7.2,5.7l4.3-3.5l7.5,6.3l2.5-2.4V23.7z M16.2,22.8h4.4
			v-4.2L19,20.2l-7.6-6.3l-4.2,3.5l-6.3-5v1.2l6.3,5l4.3-3.5l6.9,5.8L16.2,22.8z"/>
	</g>
	<g>
		<path class="st0" d="M16.9,6c-2,0-3.7,1.6-3.7,3.7s1.6,3.7,3.7,3.7s3.7-1.6,3.7-3.7S18.9,6,16.9,6 M16.9,14.2
			c-2.5,0-4.6-2-4.6-4.6s2-4.6,4.6-4.6c2.5,0,4.6,2,4.6,4.6S19.4,14.2,16.9,14.2"/>
	</g>
	<g>
		<path class="st0" d="M16.9,14.4c-2.6,0-4.7-2.1-4.7-4.7S14.3,5,16.9,5s4.7,2.1,4.7,4.7S19.5,14.4,16.9,14.4z M16.9,5.3
			c-2.4,0-4.4,2-4.4,4.4s2,4.4,4.4,4.4s4.4-2,4.4-4.4S19.3,5.3,16.9,5.3z M16.9,13.5c-2.1,0-3.8-1.7-3.8-3.8s1.7-3.8,3.8-3.8
			s3.8,1.7,3.8,3.8C20.7,11.8,19,13.5,16.9,13.5z M16.9,6.2c-1.9,0-3.5,1.6-3.5,3.5s1.6,3.5,3.5,3.5s3.5-1.6,3.5-3.5
			C20.4,7.7,18.8,6.2,16.9,6.2z"/>
	</g>
	<g>
		<path class="st0" d="M18.2,11.8c-0.1,0-0.2,0-0.3-0.1l-1.5-1.5c-0.1-0.1-0.1-0.2-0.1-0.3V7.7c0-0.2,0.2-0.4,0.4-0.4
			s0.4,0.2,0.4,0.4v2l1.4,1.4c0.2,0.2,0.2,0.4,0,0.6C18.5,11.8,18.4,11.8,18.2,11.8z"/>
	</g>
	<g>
		<path class="st0" d="M6.1,1.2C3.4,1.2,1.3,3.3,1.3,6s2.2,4.8,4.8,4.8s4.8-2.2,4.8-4.8C10.9,3.3,8.8,1.2,6.1,1.2 M6.1,12
			c-3.3,0-6-2.7-6-6s2.7-6,6-6s6,2.7,6,6S9.4,12,6.1,12"/>
	</g>
	<g>
		<path class="st0" d="M2.6,6.5V4.9h0.6v1.6c0,0.4,0.1,0.6,0.5,0.6s0.5-0.2,0.5-0.6V4.9h0.6v1.6c0,0.8-0.4,1.2-1.1,1.2
			C3,7.6,2.6,7.3,2.6,6.5z"/>
	</g>
	<g>
		<path class="st0" d="M5.3,7.4L5.6,7c0.1,0,0.3,0.2,0.6,0.2c0.3,0,0.4-0.1,0.4-0.3c0-0.2-0.3-0.3-0.6-0.4C5.6,6.3,5.3,6.1,5.3,5.6
			s0.4-0.8,0.9-0.8C6.7,4.9,6.9,5,7,5.1L6.8,5.6C6.7,5.5,6.5,5.4,6.3,5.4S6,5.5,6,5.6C6,5.8,6.2,5.8,6.5,6c0.4,0.2,0.7,0.3,0.7,0.8
			s-0.4,0.8-1,0.8C5.7,7.6,5.4,7.5,5.3,7.4z"/>
	</g>
	<g>
		<path class="st0" d="M7.4,4.9h0.9c1,0,1.5,0.5,1.5,1.3S9.3,7.6,8.3,7.6H7.4V4.9z M8.3,7.1c0.5,0,0.8-0.3,0.8-0.8S8.9,5.4,8.3,5.4
			H8.1V7L8.3,7.1L8.3,7.1z"/>
	</g>
</g>
</svg>
