<?xml version="1.0" encoding="utf-8"?>
<!-- Generator: Adobe Illustrator 26.0.1, SVG Export Plug-In . SVG Version: 6.00 Build 0)  -->
<svg version="1.1" id="Layer_1" xmlns="http://www.w3.org/2000/svg" xmlns:xlink="http://www.w3.org/1999/xlink" x="0px" y="0px"
	 viewBox="0 0 21.7 20.9" style="enable-background:new 0 0 21.7 20.9;" xml:space="preserve">
<style type="text/css">
	.st0{fill:#FFFFFF;}
</style>
<g>
	<path class="st0" d="M11.4,20.9H0v-9.2h11.4V20.9z M1,19.9h9.4v-7.2H1V19.9z"/>
</g>
<g>
	<path class="st0" d="M21.7,20.9H10.4v-5.9h11.4V20.9z M11.4,19.9h9.4v-3.9h-9.4V19.9z"/>
</g>
<path class="st0" d="M16.6,5.6c-2.3,0-4.2,1.9-4.2,4.2c0,2.3,1.9,4.2,4.2,4.2c2.3,0,4.2-1.9,4.2-4.2C20.8,7.5,19,5.6,16.6,5.6z
	 M19.9,9.8c0,1.8-1.5,3.3-3.3,3.3c-1.8,0-3.3-1.5-3.3-3.3c0-1.8,1.5-3.3,3.3-3.3C18.4,6.6,19.9,8,19.9,9.8z"/>
<g>
	<path class="st0" d="M16.1,10.4h1l0.2-0.4H16l0-0.2h1.2l0.2-0.4h-1.4c0.1-0.5,0.4-0.7,0.8-0.7c0.2,0,0.4,0.1,0.7,0.2l0.3-0.6
		c-0.3-0.2-0.6-0.2-0.9-0.2c-0.4,0-0.7,0.1-1,0.4c-0.2,0.2-0.4,0.6-0.5,1h-0.3l-0.2,0.4h0.5c0,0,0,0,0,0.1v0.2h-0.3l-0.2,0.4h0.5
		c0.1,0.4,0.2,0.7,0.5,1c0.3,0.3,0.6,0.4,1,0.4c0.3,0,0.5-0.1,0.8-0.2l0-0.7c-0.3,0.2-0.5,0.3-0.8,0.3
		C16.5,11.2,16.2,10.9,16.1,10.4"/>
</g>
<g>
	<path class="st0" d="M5.8,1C3.5,1,1.5,2.9,1.5,5.3c0,2.3,1.9,4.3,4.3,4.3c2.3,0,4.3-1.9,4.3-4.3C10.1,2.9,8.2,1,5.8,1 M5.8,10.6
		c-2.9,0-5.3-2.4-5.3-5.3C0.5,2.4,2.9,0,5.8,0s5.3,2.4,5.3,5.3C11.1,8.2,8.7,10.6,5.8,10.6"/>
</g>
<g>
	<path class="st0" d="M5.2,4.3C5.1,4.2,5,4.1,5,3.9c0-0.2,0.1-0.3,0.2-0.4c0.1-0.1,0.3-0.2,0.4-0.2v1.3C5.4,4.5,5.3,4.4,5.2,4.3
		 M6.1,5.5c0.2,0.1,0.4,0.2,0.5,0.3c0.1,0.1,0.2,0.3,0.2,0.5c0,0.2-0.1,0.3-0.2,0.5S6.3,7,6.1,7V5.5z M4.4,7.1
		c0.1,0.1,0.3,0.3,0.5,0.4c0.2,0.1,0.4,0.2,0.7,0.2v0.4c0,0.1,0,0.2,0,0.2c0,0,0.1,0.1,0.2,0.1c0.1,0,0.1,0,0.2-0.1
		c0-0.1,0-0.2,0-0.3V7.7c0.3,0,0.6-0.1,0.8-0.3c0.2-0.1,0.4-0.3,0.5-0.5c0.1-0.2,0.2-0.5,0.2-0.7c0-0.2,0-0.4-0.1-0.6
		C7.4,5.4,7.3,5.3,7.2,5.1C7,5,6.9,4.9,6.7,4.9C6.6,4.8,6.3,4.7,6.1,4.7V3.3c0.3,0.1,0.5,0.3,0.5,0.6C6.7,4,6.8,4.2,7,4.2
		c0.1,0,0.2,0,0.3-0.1C7.4,4,7.4,3.9,7.4,3.8c0-0.1,0-0.2-0.1-0.3C7.3,3.3,7.2,3.2,7.1,3.1C7,2.9,6.8,2.8,6.7,2.7
		C6.5,2.7,6.3,2.6,6.1,2.6V2.2C6.1,2,6,1.9,5.8,1.9C5.7,1.9,5.6,2,5.6,2.2v0.4C5.2,2.6,4.8,2.8,4.6,3S4.2,3.6,4.2,4
		c0,0.3,0.1,0.5,0.2,0.7C4.5,4.9,4.7,5,4.9,5.1c0.2,0.1,0.5,0.2,0.8,0.3V7c-0.2,0-0.3-0.1-0.4-0.2C5.2,6.7,5.1,6.6,5.1,6.5
		C5,6.4,5,6.3,4.9,6.1c0-0.1-0.1-0.2-0.1-0.2c-0.1,0-0.2-0.1-0.3-0.1c-0.1,0-0.2,0-0.3,0.1C4.1,6,4.1,6.1,4.1,6.2
		c0,0.1,0,0.3,0.1,0.4C4.2,6.8,4.3,7,4.4,7.1"/>
</g>
</svg>
