<?xml version="1.0" encoding="utf-8"?>
<!-- Generator: Adobe Illustrator 26.0.1, SVG Export Plug-In . SVG Version: 6.00 Build 0)  -->
<svg version="1.1" id="Layer_1" xmlns="http://www.w3.org/2000/svg" xmlns:xlink="http://www.w3.org/1999/xlink" x="0px" y="0px"
	 viewBox="0 0 28.3 21.8" style="enable-background:new 0 0 28.3 21.8;" xml:space="preserve">
<style type="text/css">
	.st0{fill:#FFFFFF;}
	.st1{opacity:0.4;fill:#FFFFFF;}
	.st2{opacity:0.7;fill:#FFFFFF;}
</style>
<g>
	<path class="st0" d="M18.5,8.2c0-0.2,0.1-0.4,0.1-0.6c0-0.2,0.1-0.4,0.1-0.6c0-0.1,0-0.2-0.1-0.3c0,0-0.2-0.1-0.3-0.1
		c-0.1,0-0.2,0.2-0.3,0.2c-0.1,0-0.3,0-0.3-0.1c-0.1-0.1-0.2-0.2-0.4-0.3c-0.1-0.1-0.2-0.3-0.2-0.5c0-0.2,0-0.3,0.1-0.5
		c0-0.1,0-0.2,0.1-0.2c0-0.2,0-0.1,0.1-0.2c0.1-0.1,0.1-0.2,0.2-0.4c0.1-0.1,0.1-0.2,0.2-0.3c-0.2-0.1-0.2-0.5-0.1-0.7
		c0.1,0,0.4,0,0.3-0.2c-0.1-0.1-0.2-0.1-0.1-0.2c0-0.1,0.2-0.1,0.2-0.1c0-0.1,0.1-0.1,0.1-0.2l0,0c-0.1-0.1-0.2-0.2-0.2-0.2
		c-0.1-0.1-0.1-0.3,0-0.4c0.3,0.3,0.6,0.7,0.8,1.1c0,0,0,0.1,0,0.1c0,0.1,0.1,0.2,0.1,0.3C18.9,3.9,19,4,19,4
		c0.1,0.2,0.1,0.4,0.2,0.6c0,0,0,0,0,0.1c-0.1-0.1-0.2-0.3-0.3-0.4c0,0,0,0.1,0,0.1c0,0-0.1,0-0.1,0c0-0.1-0.1-0.2-0.1-0.2
		c0,0,0,0.1,0,0.1c-0.1,0-0.1-0.2-0.2-0.3c0-0.1-0.2-0.2-0.3-0.1c-0.1,0.1-0.1,0.2-0.1,0.3c0,0-0.1,0.1-0.1,0.1c0,0-0.1,0-0.1,0.1
		c0.1,0,0.2-0.1,0.4,0c0.1,0,0.3,0,0.4,0c0,0,0,0.1,0.1,0.2c0,0.1,0.1,0.1,0.1,0.1c0.1,0.1,0.1,0.3,0.2,0.3c0,0,0-0.1,0-0.1
		c0.2,0.1,0.3,0.4,0.3,0.6c0,0.3,0.1,0.7,0.1,1.1c-0.1,0.9-0.3,1.7-0.8,2.5C18.6,8.7,18.5,8.4,18.5,8.2 M13.3,11.3
		c-0.3-0.3,0.1-1,0.1-1.4c0-0.2-0.3-0.4-0.5-0.6c-0.1-0.2-0.3-0.4-0.4-0.6c-0.1-0.3-0.1-0.4,0.1-0.6c0.1-0.2,0.1-0.3,0.1-0.5
		c0,0,0.2-0.3,0.2-0.3c0,0,0,0,0,0c-0.2,0-0.3,0-0.4-0.1c-0.1-0.1-0.1-0.3-0.2-0.4c-0.2-0.2-0.6-0.1-0.9-0.3
		c-0.2-0.2-0.5-0.3-0.6-0.6c-0.1-0.2-0.2-0.8-0.5-0.8c0,0.3,0,0.3,0.1,0.6c0.1,0.2,0.2,0.5-0.1,0.4c0-0.3,0-0.5-0.1-0.7
		C10,5.3,9.8,5.1,9.8,4.8c0-0.2,0-0.5,0-0.8c0-0.3-0.1-0.5-0.1-0.7c0.2-0.3,0.4-0.5,0.6-0.8c0.2-0.2,0.3-0.3,0.5-0.4
		c0.2-0.1,0.4-0.2,0.7-0.2c0.2-0.1,0.5,0,0.8-0.1c-0.1-0.2-0.2-0.3,0.1-0.3c0.2,0,0.2,0.2,0.4,0.1c-0.1-0.1-0.4-0.3-0.1-0.3
		c0-0.1,0-0.2,0-0.3C12.6,1,12.7,1,12.8,1c0.3-0.1,0.6-0.1,1-0.2c0,0,0.1,0,0.1,0c0,0,0.1,0,0.1,0c0.1,0,0.1,0,0.2,0
		c0.7,0,1.4,0.2,2.1,0.4c0,0,0.1,0.1,0.1,0.1c0.1,0.1,0.3,0.1,0.1,0.1c-0.1,0-0.1,0-0.2,0c-0.1,0.1,0,0.1-0.1,0.2
		c-0.1,0-0.2,0-0.3,0.1c-0.1,0.1,0,0.3,0,0.4c0,0.1-0.2,0.1-0.3,0.1c-0.3,0-0.5-0.2-0.7-0.4c-0.1-0.1-0.2-0.3-0.1-0.3
		c0-0.1,0.1,0,0.2-0.1c0-0.1,0-0.1-0.1-0.2c0,0.1-0.1,0.1-0.2,0.1c-0.1-0.1-0.1-0.2-0.1-0.3c-0.1-0.1-0.3-0.1-0.5-0.1
		c-0.1,0-0.1-0.1-0.2-0.1c0,0-0.1,0.1-0.1,0.1c-0.1,0-0.2,0-0.3,0.1c-0.3,0.2,0,0.2,0.2,0.3c0.2,0.1,0.3,0.3,0.5,0.3
		c0.2,0.1,0.3,0,0.3,0.3c-0.1,0-0.3,0-0.4-0.1c0.1,0.1,0.1,0.2,0.1,0.4c-0.2,0.1-0.3,0-0.5-0.1c-0.1-0.1-0.4,0-0.5-0.1
		c0,0,0-0.1,0-0.1c0.2,0,0.3,0,0.3-0.2c-0.3,0-0.4,0.1-0.6,0.3c0.5,0.2,0,0.3-0.2,0.3c-0.2,0-0.6-0.1-0.7,0.2
		c-0.1,0.3,0.3,0.3,0.5,0.4c0.1,0,0.2,0,0.3,0.1c0.1,0.1,0,0.2,0.2,0.3C13,3.2,12.9,3,12.9,3C13,2.8,13,2.9,13.2,2.8
		c-0.1-0.2-0.3-0.2-0.3-0.4c0.1-0.2,0.3-0.2,0.5-0.2c0.3,0,0.3,0.1,0.4,0.2c0.3,0.1,0.3-0.1,0.5,0.2C14.6,3,14.8,3.1,15,3.4
		c0.5,0.5-0.4,0.4-0.5,0.1c0,0,0.1-0.1,0.1-0.1c-0.2-0.1-0.6-0.1-0.8,0c0,0,0,0.1,0,0.1c0.2,0,0.2,0,0.4,0.1c0,0,0,0.1,0,0.2
		c0,0,0.2,0,0.3,0c0,0.3-0.6,0.2-0.8,0.3c0,0.1,0,0.1,0,0.2c-0.4-0.1-0.4,0.3-0.5,0.5c-0.1,0.2-0.3,0.3-0.4,0.4
		c-0.1,0.1-0.2,0.1-0.1,0.2c0,0.2,0.2,0.1,0.2,0.2c0,0.3-0.4,0-0.5-0.2c-0.4-0.1-0.9-0.1-1,0.3c-0.1,0.2,0,0.4,0.2,0.5
		c0.2,0,0.1-0.1,0.3-0.2c0.1,0,0.2,0,0.3,0c0.1,0.2,0,0.3,0.1,0.4c0.1,0.2,0.1,0.1,0.2,0.3c0,0.1,0.1,0.3,0.3,0.4
		c0.2,0.1,0.4-0.1,0.4,0.2c0.3,0,0.6,0,0.8,0.2c0.2,0.1,0.3,0.3,0.5,0.4C14.8,8,14.9,8,15,8.4c0,0.2-0.1,0.2,0.2,0.3
		c0.1,0,0.3-0.1,0.5-0.1c0.2,0,0.5,0.2,0.5,0.4c0,0.2-0.1,0.2-0.1,0.3c-0.1,0.1-0.1,0.3-0.2,0.5c-0.2,0.3-0.5,0.1-0.7,0.4
		c-0.1,0.1,0,0.2-0.1,0.3c-0.1,0.1-0.3,0.1-0.4,0.1c-0.1,0.1-0.1,0.2-0.2,0.3c-0.1,0.1-0.3,0-0.4,0.1c-0.2,0.1-0.2,0.2-0.4,0.3
		C13.5,11.3,13.4,11.3,13.3,11.3 M9.6,3.4L9.6,3.4C9.6,3.4,9.6,3.4,9.6,3.4C9.6,3.4,9.6,3.4,9.6,3.4 M14.2,0C10.8,0,8,2.7,8,6.1
		c0,3.4,2.7,6.1,6.1,6.1c3.4,0,6.1-2.7,6.1-6.1C20.3,2.7,17.5,0,14.2,0"/>
	<path class="st1" d="M21.5,12.4c2.8,2.2,4.6,5.6,4.6,9.4h-5.2c0-2.4-1.2-4.5-3.1-5.7L21.5,12.4z"/>
	<path class="st0" d="M2.2,21.8c0-3.8,1.8-7.2,4.6-9.4l3.7,3.7c-1.9,1.2-3.1,3.3-3.1,5.7H2.2z"/>
	<path class="st2" d="M7.7,11.8c2-1.4,3.9-1.9,6.5-1.9c2.6,0,4.6,0.6,6.5,1.9L17,15.7c-0.9-0.5-1.7-0.6-2.8-0.6
		c-1.1,0-1.9,0.1-2.8,0.6L7.7,11.8z"/>
	<path class="st0" d="M13,21.3c-0.2-0.4,0-0.9,0.4-1.2l5-1.5l-4.2,3.1C13.7,22,13.2,21.8,13,21.3"/>
</g>
</svg>
