<?xml version="1.0" encoding="utf-8"?>
<!-- Generator: Adobe Illustrator 26.0.1, SVG Export Plug-In . SVG Version: 6.00 Build 0)  -->
<svg version="1.1" id="Layer_1" xmlns="http://www.w3.org/2000/svg" xmlns:xlink="http://www.w3.org/1999/xlink" x="0px" y="0px"
	 viewBox="0 0 16.3 29" style="enable-background:new 0 0 16.3 29;" xml:space="preserve">
<style type="text/css">
	.st0{fill:#FFFFFF;}
</style>
<path class="st0" d="M8.1,24c-1.9,0-1.9-2.8,0-2.8S10,24,8.1,24z M8.1,23.2c0.8,0,0.8-1.3,0-1.3C7.3,21.9,7.3,23.2,8.1,23.2z"/>
<path class="st0" d="M8.1,5.7c1.8,0,1.8,2.8,0,2.8S6.3,5.7,8.1,5.7z M7.5,7.1c0,0.8,1.3,0.8,1.3,0C8.8,6.2,7.5,6.2,7.5,7.1z"/>
<path class="st0" d="M2.8,11c0,1.8-2.8,1.8-2.8,0C0,9.1,2.8,9.1,2.8,11z M0.8,11c0,0.8,1.3,0.8,1.3,0C2.2,10,0.7,10,0.8,11z"/>
<path class="st0" d="M2.8,18.8c0,1.8-2.9,1.8-2.8,0C0,16.9,2.9,16.9,2.8,18.8z M1.4,19.4c0.9,0,0.9-1.3,0-1.3
	C0.6,18.1,0.6,19.4,1.4,19.4z"/>
<path class="st0" d="M14.9,17.3c1.8,0,1.8,2.8,0,2.8C13,20.1,13,17.3,14.9,17.3z M14.2,18.7c0,0.9,1.3,0.9,1.3,0
	C15.5,17.9,14.2,17.9,14.2,18.7z"/>
<path class="st0" d="M13.4,11c0-1.9,2.8-1.9,2.8,0C16.3,12.8,13.5,12.9,13.4,11z M14.8,11.6c0.8,0.1,1-1.2,0.2-1.3
	C14.1,10.2,13.9,11.6,14.8,11.6L14.8,11.6z"/>
<path class="st0" d="M10.4,22.7l-0.1-0.8c1.1-0.3,2.1-0.9,3-1.7l0.6,0.5C12.9,21.6,11.7,22.3,10.4,22.7z"/>
<path class="st0" d="M13.8,9c-0.2,0.1-0.4,0.3-0.6,0.4c-1-0.7-1.9-1.3-3-1.8L10.4,7C11.7,7.4,12.9,8,13.8,9z"/>
<path class="st0" d="M2.5,20.7L3,20.2C3.9,21,4.9,21.6,6,22l-0.1,0.7C4.6,22.3,3.4,21.6,2.5,20.7z"/>
<path class="st0" d="M3.1,9.5L2.5,9c1-0.9,2.2-1.6,3.5-2C5.9,7.2,6,7.4,6,7.7s0,0.1-0.1,0.1C4.9,8.1,3.9,8.8,3.1,9.5z"/>
<path class="st0" d="M1,16.6l-0.7,0.3c-0.3-1.3-0.3-2.7,0-4L1,13.2C0.7,14.3,0.7,15.4,1,16.6z"/>
<path class="st0" d="M16,16.9l-0.7-0.3c0.3-1.1,0.3-2.3,0-3.4l0.7-0.3C16.3,14.2,16.3,15.5,16,16.9z"/>
<path class="st0" d="M6,17.9c0.5,0.5,1.1,0.8,1.8,0.8c0,0.2-0.1,0.8,0.1,1c0.7,0.5,0.6-0.6,0.6-1c3.1-0.3,3.2-4.2,0-4.6v-2.2
	c0.4,0.1,0.7,0.4,0.8,0.9c0.1,0.3,0.3,0.6,0.7,0.6c0.6,0,0.8-0.7,0.5-1.2c-0.3-0.8-1.2-1.2-2-1.3c0-0.3,0.1-1-0.3-1
	c-0.4,0-0.3,0.7-0.3,1c-3,0.2-2.9,4,0,4.4v2.4c-1-0.2-0.9-1.1-1.4-1.7C5.1,15.4,5.3,17.2,6,17.9z M8.5,15.4c1.4,0.3,1.4,2,0,2.3
	V15.4z M7.1,13.5c-0.2-0.2-0.2-0.4-0.2-0.6c0-0.5,0.5-0.9,0.9-1v2C7.6,13.8,7.3,13.7,7.1,13.5z"/>
<path class="st0" d="M11,2.8c-0.2-0.1-0.4-0.2-0.6-0.2c-0.4,0-0.9,0-1.4,0H8.8c-0.1,0-0.3,0-0.5,0L8.1,2.7l0.1,0.6
	c0,0.2,0,0.2-0.2,0.2H7.9L5.5,2.4C5.3,2.3,5.3,2,5.4,1.9l2-1.8C7.5,0,7.5,0,7.6,0c0.2,0,0.2,0.7,0.3,0.8c0.3,0,0.6,0,0.9,0L9.2,1
	c0.1,0,0.3,0.1,0.5,0.1h0.1C10.9,1.6,12,2.6,12,3.8C11.8,3.4,11.4,3.1,11,2.8z"/>
<path class="st0" d="M5,26.9c-0.3-0.4-0.5-1.2-0.5-1.7c0.7,1.6,2.5,1.4,3.9,1.2c0-0.2-0.3-1,0.2-0.8l2.5,1.1c0.8,0.3-1.6,2-2,2.3
	c-0.5,0.3-0.4-0.5-0.4-0.7C7.3,28.3,5.7,27.9,5,26.9z"/>
</svg>
