<?xml version="1.0" encoding="utf-8"?>
<!-- Generator: Adobe Illustrator 26.0.1, SVG Export Plug-In . SVG Version: 6.00 Build 0)  -->
<svg version="1.1" id="Layer_1" xmlns="http://www.w3.org/2000/svg" xmlns:xlink="http://www.w3.org/1999/xlink" x="0px" y="0px"
	 viewBox="0 0 28.6 16.3" style="enable-background:new 0 0 28.6 16.3;" xml:space="preserve">
<style type="text/css">
	.st0{fill:#FFFFFF;}
</style>
<path class="st0" d="M22.5,10.6c-2.9,0-5.3-2.4-5.3-5.3S19.6,0,22.5,0s5.3,2.4,5.3,5.3S25.4,10.6,22.5,10.6L22.5,10.6z M22.5,1
	c-2.4,0-4.3,1.9-4.3,4.2c0,2.4,1.9,4.3,4.2,4.3c2.4,0,4.3-1.9,4.3-4.2l0,0C26.8,2.9,24.9,1,22.5,1L22.5,1L22.5,1z"/>
<path class="st0" d="M21,7.4c0.2,0.2,0.3,0.3,0.5,0.4C21.8,7.9,22,8,22.3,8v0.5c0,0.1,0,0.2,0,0.2c0,0.1,0.1,0.1,0.2,0.1
	s0.2,0,0.2-0.1s0-0.2,0-0.3V8c0.3,0,0.6-0.1,0.9-0.3c0.2-0.1,0.5-0.3,0.6-0.6c0.1-0.2,0.2-0.5,0.2-0.8c0-0.2,0-0.4-0.1-0.6
	S24.1,5.4,24,5.2c-0.1-0.1-0.3-0.2-0.5-0.3c-0.2-0.1-0.4-0.1-0.7-0.2V3.2c0.3,0.1,0.5,0.3,0.6,0.6c0,0.2,0.2,0.4,0.5,0.4
	c0.1,0,0.2-0.1,0.3-0.1c0.1-0.1,0.1-0.2,0.1-0.3s0-0.2-0.1-0.4C24.1,3.2,24,3.1,23.9,3c-0.1-0.2-0.3-0.3-0.5-0.4
	c-0.2-0.1-0.4-0.1-0.7-0.2V2.1c0-0.2-0.1-0.3-0.2-0.3s-0.2,0.1-0.2,0.3v0.4c-0.4,0-0.8,0.2-1.2,0.5c-0.3,0.3-0.4,0.6-0.4,1
	c0,0.3,0.1,0.6,0.2,0.8C21,5,21.2,5.2,21.4,5.3c0.3,0.1,0.5,0.2,0.8,0.3v1.7c-0.1,0-0.3-0.1-0.4-0.2s-0.2-0.2-0.2-0.3
	c-0.1-0.2-0.1-0.3-0.2-0.5c0-0.1-0.1-0.2-0.2-0.2C21.2,6,21.1,6,21,6s-0.2,0.1-0.3,0.1c-0.1,0.1-0.1,0.2-0.1,0.3
	c0,0.2,0,0.3,0.1,0.5C20.8,7.1,20.9,7.3,21,7.4z M22.8,5.7c0.2,0,0.4,0.1,0.5,0.3c0.1,0.1,0.2,0.3,0.2,0.5S23.4,6.9,23.3,7
	c-0.2,0.2-0.4,0.3-0.6,0.3V5.7H22.8z M21.8,4.3c-0.1-0.1-0.2-0.3-0.2-0.4c0-0.2,0-0.3,0.2-0.5c0.1-0.1,0.3-0.2,0.5-0.2v1.4
	C22.1,4.5,21.9,4.4,21.8,4.3L21.8,4.3z"/>
<path class="st0" d="M11.7,10.5L6.4,2.9c0-0.1-0.1-0.2-0.2-0.2C6,2.5,5.6,2.7,5.4,2.9l-4.1,8.3c0,0.1-0.1,0.2-0.1,0.3
	c0,0.3,0.3,0.6,0.6,0.6l9.4-0.7c0.1,0,0.2,0,0.3-0.1C11.8,11.2,11.9,10.8,11.7,10.5z M5.7,5.2l0.9-0.1c0.2,0,0.2,0,0.3,0.2L7,8.8
	C7,9,6.9,9,6.8,9H6.2C6.1,9,6,9,5.9,8.8L5.4,5.5C5.4,5.3,5.4,5.2,5.7,5.2z M6.6,10.9c-0.4,0-0.7-0.2-0.8-0.6l0,0
	c0-0.4,0.3-0.7,0.6-0.7l0,0l0,0c0.4,0,0.7,0.2,0.8,0.6C7.3,10.5,7,10.9,6.6,10.9z"/>
<rect x="0" y="11.2" transform="matrix(0.9973 -7.358549e-02 7.358549e-02 0.9973 -0.8259 1.0841)" class="st0" width="28.6" height="1.1"/>
<polygon class="st0" points="10.3,16.3 14.3,12.3 18.3,16.3 "/>
</svg>
