<?xml version="1.0" encoding="utf-8"?>
<!-- Generator: Adobe Illustrator 26.0.1, SVG Export Plug-In . SVG Version: 6.00 Build 0)  -->
<svg version="1.1" id="Layer_3" xmlns="http://www.w3.org/2000/svg" xmlns:xlink="http://www.w3.org/1999/xlink" x="0px" y="0px"
	 viewBox="0 0 250 250" style="enable-background:new 0 0 250 250;" xml:space="preserve">
<style type="text/css">
	.st0{fill:#4D4D4F;}
	.st1{fill:none;stroke:#BCBEC0;stroke-width:0.5;}
	.st2{fill:#B19E4E;}
	.st3{fill:#E3DBC0;}
	.st4{fill:#FFCF01;}
	.st5{fill:#5C5B59;}
	.st6{fill:none;stroke:#5C5B59;stroke-width:1.6;}
	.st7{fill:none;stroke:#D4C79D;stroke-width:1.6;}
	.st8{fill:none;stroke:#B19E4E;stroke-width:1.6;}
	.st9{fill:none;stroke:#FFCF01;stroke-width:1.6;}
</style>
<g>
	<path class="st0" d="M62.6,17.7H64l2.6,6.7H65l-0.5-1.2h-2.7l-0.4,1.2h-1.4L62.6,17.7z M64.2,21.9l-0.6-1.6c-0.2-0.6-0.3-1-0.4-1.1
		h0c-0.1,0.2-0.2,0.6-0.4,1.1l-0.6,1.6H64.2z"/>
	<path class="st0" d="M66.8,23.8l0.6-1c0.1,0.1,0.7,0.5,1.4,0.5c0.7,0,1.1-0.3,1.1-0.8c0-0.6-0.7-0.8-1.5-1.1
		c-0.8-0.4-1.4-0.9-1.4-2c0-1.1,1-1.8,2.1-1.8c1.1,0,1.7,0.3,1.9,0.6l-0.6,1c-0.2-0.1-0.7-0.4-1.3-0.4c-0.5,0-0.9,0.2-0.9,0.7
		c0,0.5,0.5,0.7,1.2,1c0.9,0.4,1.7,0.8,1.7,2.1c0,1.2-0.9,2-2.4,2C67.8,24.4,67.1,24,66.8,23.8z"/>
	<path class="st0" d="M72.3,17.7h3.8v1.2h-2.4v1.5h2.2v1.1h-2.2v1.7h2.5v1.2h-3.9V17.7z"/>
	<path class="st0" d="M79.3,17.7h1.4l2.6,6.7h-1.5l-0.4-1.2h-2.7l-0.4,1.2h-1.4L79.3,17.7z M80.9,21.9l-0.6-1.6
		c-0.2-0.6-0.3-1-0.4-1.1h0c0,0.2-0.2,0.6-0.3,1.1L79,21.9H80.9z"/>
	<path class="st0" d="M84,17.7h1.4l2.4,3.4c0.4,0.6,0.6,1,0.7,1.1h0c0-0.1,0-0.5,0-1v-3.5h1.3v6.7h-1.3l-2.6-3.7
		c-0.4-0.5-0.6-0.9-0.6-1h0c0,0.1,0,0.5,0,0.9v3.8H84V17.7z"/>
	<path class="st0" d="M93.1,17.7h1.4v6.7h-1.4V17.7z"/>
	<path class="st0" d="M95.8,19.5h1.3v0.6c0.4-0.4,0.8-0.7,1.5-0.7c1.1,0,1.5,0.7,1.5,1.6v3.4h-1.3v-3.1c0-0.5-0.2-0.7-0.6-0.7
		c-0.4,0-0.8,0.3-1,0.6v3.3h-1.3V19.5z"/>
	<path class="st0" d="M101.5,22.9v-2.5h-0.8v-1h0.8V18h1.3v1.4h1.1v1h-1.1v2.2c0,0.5,0.1,0.7,0.5,0.7c0.3,0,0.5-0.1,0.6-0.2l0.3,1
		c-0.2,0.1-0.6,0.3-1.2,0.3C101.9,24.4,101.5,23.9,101.5,22.9z"/>
	<path class="st0" d="M104.5,21.9c0-1.5,1.1-2.5,2.4-2.5c1.4,0,2.1,0.9,2.1,2.4c0,0.2,0,0.3,0,0.5h-3.1c0.1,0.7,0.4,1.3,1.2,1.3
		c0.7,0,1-0.2,1.3-0.3l0.4,0.9c-0.3,0.2-0.8,0.5-1.8,0.5C105.4,24.4,104.5,23.4,104.5,21.9z M107.7,21.3c0-0.5-0.2-1-0.8-1
		c-0.6,0-0.9,0.4-1,1H107.7z"/>
	<path class="st0" d="M109.8,19.5h1.3v0.7c0.2-0.4,0.6-0.8,1.2-0.8c0.4,0,0.5,0.1,0.7,0.1l-0.3,1.2c-0.1,0-0.2-0.1-0.5-0.1
		c-0.6,0-0.9,0.5-1.1,0.7v3.1h-1.3V19.5z"/>
	<path class="st0" d="M113.5,19.5h1.3v0.6c0.3-0.4,0.8-0.7,1.5-0.7c1.1,0,1.5,0.7,1.5,1.6v3.4h-1.3v-3.1c0-0.5-0.2-0.7-0.6-0.7
		c-0.4,0-0.8,0.3-1,0.6v3.3h-1.3V19.5z"/>
	<path class="st0" d="M118.6,21.9c0-1.5,1.1-2.5,2.4-2.5c1.4,0,2.1,0.9,2.1,2.4c0,0.2,0,0.3,0,0.5H120c0.1,0.7,0.4,1.3,1.2,1.3
		c0.7,0,1-0.2,1.3-0.3l0.4,0.9c-0.3,0.2-0.8,0.5-1.8,0.5C119.5,24.4,118.6,23.4,118.6,21.9z M121.8,21.3c0-0.5-0.2-1-0.8-1
		c-0.6,0-0.9,0.4-1,1H121.8z"/>
	<path class="st0" d="M124.2,22.9v-2.5h-0.8v-1h0.8V18h1.3v1.4h1.1v1h-1.1v2.2c0,0.5,0.1,0.7,0.5,0.7c0.3,0,0.5-0.1,0.6-0.2l0.3,1
		c-0.2,0.1-0.6,0.3-1.2,0.3C124.6,24.4,124.2,23.9,124.2,22.9z"/>
	<path class="st0" d="M129,21.9c0-1.5,1.1-2.5,2.4-2.5c1.4,0,2.1,0.9,2.1,2.4c0,0.2,0,0.3,0,0.5h-3.1c0.1,0.7,0.4,1.3,1.2,1.3
		c0.7,0,1-0.2,1.3-0.3l0.4,0.9c-0.3,0.2-0.8,0.5-1.8,0.5C129.9,24.4,129,23.4,129,21.9z M132.2,21.3c0-0.5-0.2-1-0.8-1
		c-0.6,0-0.9,0.4-1,1H132.2z"/>
	<path class="st0" d="M134.2,21h2.3V22h-2.3V21z"/>
	<path class="st0" d="M137.2,21c0-1.8,1.2-3.4,3.4-3.4c0.9,0,1.5,0.2,2,0.5l-0.6,1c-0.4-0.2-0.8-0.4-1.4-0.4c-1.2,0-1.9,1-1.9,2.2
		c0,1.3,0.6,2.3,1.9,2.3c0.7,0,1.2-0.2,1.5-0.5l0.6,1c-0.3,0.3-1.1,0.7-2.1,0.7C138.4,24.4,137.2,22.8,137.2,21z"/>
	<path class="st0" d="M143,21.9c0-1.2,0.7-2.6,2.4-2.6s2.5,1.3,2.5,2.5c0,1.2-0.8,2.6-2.5,2.6C143.8,24.4,143,23.2,143,21.9z
		 M146.5,21.9c0-0.9-0.3-1.6-1.1-1.6c-0.7,0-1,0.6-1,1.5c0,0.9,0.3,1.6,1,1.6C146.2,23.4,146.5,22.8,146.5,21.9z"/>
	<path class="st0" d="M148.7,19.5h1.3v0.6c0.4-0.4,0.8-0.7,1.5-0.7c1.1,0,1.5,0.7,1.5,1.6v3.4h-1.3v-3.1c0-0.5-0.2-0.7-0.6-0.7
		c-0.4,0-0.8,0.3-1,0.6v3.3h-1.3V19.5z"/>
	<path class="st0" d="M153.7,21.9c0-1.2,0.7-2.6,2.4-2.6s2.5,1.3,2.5,2.5c0,1.2-0.8,2.6-2.5,2.6C154.4,24.4,153.7,23.2,153.7,21.9z
		 M157.2,21.9c0-0.9-0.3-1.6-1.1-1.6c-0.7,0-1,0.6-1,1.5c0,0.9,0.3,1.6,1,1.6C156.9,23.4,157.2,22.8,157.2,21.9z"/>
	<path class="st0" d="M159.4,19.5h1.3v0.6c0.2-0.3,0.7-0.7,1.5-0.7c0.7,0,1.1,0.3,1.2,0.8c0.4-0.5,0.9-0.8,1.6-0.8
		c1,0,1.4,0.7,1.4,1.6v3.4H165v-3.1c0-0.5-0.1-0.7-0.6-0.7c-0.4,0-0.7,0.3-0.9,0.5v3.3h-1.3v-3.1c0-0.5-0.2-0.7-0.6-0.7
		c-0.5,0-0.8,0.5-0.9,0.6v3.3h-1.3V19.5z"/>
	<path class="st0" d="M166.7,26.6l0.2-1c0.1,0,0.2,0,0.5,0c0.7,0,0.9-0.3,1.1-0.8l0.2-0.5l-1.8-4.8h1.4l1.1,3.2h0l1-3.2h1.4l-2,5.4
		c-0.4,1.1-0.9,1.8-2.3,1.8C167,26.7,166.8,26.6,166.7,26.6z"/>
	<path class="st0" d="M173.7,23.8l0.6-1c0.2,0.1,0.7,0.5,1.4,0.5c0.7,0,1.1-0.3,1.1-0.8c0-0.6-0.7-0.8-1.5-1.1
		c-0.8-0.4-1.4-0.9-1.4-2c0-1.1,1-1.8,2.1-1.8c1.1,0,1.7,0.3,1.9,0.6l-0.6,1c-0.2-0.1-0.7-0.4-1.3-0.4c-0.5,0-0.9,0.2-0.9,0.7
		c0,0.5,0.5,0.7,1.2,1c0.9,0.4,1.7,0.8,1.7,2.1c0,1.2-0.9,2-2.4,2C174.7,24.4,174,24,173.7,23.8z"/>
	<path class="st0" d="M178.8,18c0-0.4,0.3-0.8,0.8-0.8s0.8,0.4,0.8,0.8c0,0.4-0.3,0.8-0.8,0.8S178.8,18.5,178.8,18z M179,19.5h1.3
		v4.9H179V19.5z"/>
	<path class="st0" d="M181.3,23.6l2.1-3.1h-2v-1h3.6v0.8l-2.1,3.1h2.1v1h-3.8V23.6z"/>
	<path class="st0" d="M185.4,21.9c0-1.5,1.1-2.5,2.4-2.5c1.4,0,2.1,0.9,2.1,2.4c0,0.2,0,0.3,0,0.5h-3.1c0.1,0.7,0.4,1.3,1.2,1.3
		c0.7,0,1-0.2,1.3-0.3l0.4,0.9c-0.3,0.2-0.8,0.5-1.8,0.5C186.3,24.4,185.4,23.4,185.4,21.9z M188.6,21.3c0-0.5-0.2-1-0.8-1
		c-0.6,0-0.9,0.4-1,1H188.6z"/>
</g>
<g>
	<line class="st1" x1="31.1" y1="41.5" x2="234.3" y2="41.5"/>
	<line class="st1" x1="31.1" y1="77.4" x2="234.3" y2="77.4"/>
	<line class="st1" x1="31.1" y1="114.3" x2="234.3" y2="114.3"/>
	<line class="st1" x1="31.1" y1="150.5" x2="234.3" y2="150.5"/>
	<line class="st1" x1="31.1" y1="187.2" x2="234.3" y2="187.2"/>
	<path class="st0" d="M18.1,42.8h-2.5v-0.5l2.4-3.6h0.6v3.6h0.8v0.5h-0.8V44h-0.6V42.8z M17,42.2h1.2v-2.7h0l-1.8,2.8
		C16.4,42.2,16.7,42.2,17,42.2z M20.1,41.3c0-1.3,0.5-2.8,2-2.8c1.4,0,2,1.4,2,2.8s-0.6,2.8-2,2.8C20.7,44.1,20.1,42.6,20.1,41.3z
		 M23.5,41.3c0-1.3-0.4-2.3-1.4-2.3c-1,0-1.4,1-1.4,2.3s0.4,2.3,1.4,2.3C23.1,43.6,23.5,42.6,23.5,41.3z M25,41.3
		c0-1.3,0.5-2.8,2-2.8c1.4,0,2,1.4,2,2.8s-0.6,2.8-2,2.8C25.6,44.1,25,42.6,25,41.3z M28.4,41.3c0-1.3-0.4-2.3-1.4-2.3
		c-1,0-1.4,1-1.4,2.3s0.4,2.3,1.4,2.3C27.9,43.6,28.4,42.6,28.4,41.3z"/>
	<path class="st0" d="M49.8,198.9c0.9-0.9,2.5-2.4,2.5-3.6c0-0.7-0.4-1-0.9-1c-0.6,0-0.9,0.3-1.2,0.5l-0.3-0.4
		c0.3-0.4,0.8-0.7,1.5-0.7c0.9,0,1.6,0.5,1.6,1.4c0,1.2-1.3,2.5-2.3,3.5c0,0,0.3,0,0.6,0H53v0.5h-3.3V198.9z M53.7,196.6
		c0-1.3,0.5-2.8,2-2.8c1.4,0,2,1.4,2,2.8s-0.6,2.8-2,2.8C54.2,199.3,53.7,197.9,53.7,196.6z M57,196.6c0-1.3-0.4-2.3-1.4-2.3
		c-1,0-1.4,1-1.4,2.3s0.4,2.3,1.4,2.3C56.6,198.8,57,197.8,57,196.6z M59.2,194.5l-1,0.3l-0.1-0.5l1.3-0.4h0.5v5.3h-0.6V194.5z
		 M61.1,198.9c0.8,0,1.5-0.2,1.9-0.8c0.3-0.4,0.5-0.8,0.6-1.5c-0.3,0.3-0.7,0.5-1.2,0.5c-1,0-1.6-0.7-1.6-1.6s0.6-1.7,1.7-1.7
		c1.3,0,1.8,1.2,1.8,2.3c0,2-1,3.3-3,3.3L61.1,198.9z M63.6,196.2v-0.1c0-1.1-0.4-1.8-1.2-1.8c-0.7,0-1,0.6-1,1.2
		c0,0.8,0.4,1.2,1.1,1.2C63,196.6,63.3,196.5,63.6,196.2z"/>
	<path class="st0" d="M99.1,198.9c0.9-0.9,2.5-2.4,2.5-3.6c0-0.7-0.4-1-0.9-1c-0.6,0-0.9,0.3-1.2,0.5l-0.3-0.4
		c0.3-0.4,0.8-0.7,1.5-0.7c0.9,0,1.6,0.5,1.6,1.4c0,1.2-1.3,2.5-2.3,3.5c0,0,0.3,0,0.6,0h1.8v0.5h-3.3V198.9z M103,196.6
		c0-1.3,0.5-2.8,2-2.8c1.4,0,2,1.4,2,2.8s-0.6,2.8-2,2.8C103.6,199.3,103,197.9,103,196.6z M106.4,196.6c0-1.3-0.4-2.3-1.4-2.3
		c-1,0-1.4,1-1.4,2.3s0.4,2.3,1.4,2.3C106,198.8,106.4,197.8,106.4,196.6z M107.6,198.9c0.9-0.9,2.5-2.4,2.5-3.6c0-0.7-0.4-1-0.9-1
		c-0.6,0-0.9,0.3-1.2,0.5l-0.3-0.4c0.3-0.4,0.8-0.7,1.5-0.7c0.9,0,1.6,0.5,1.6,1.4c0,1.2-1.3,2.5-2.3,3.5c0,0,0.3,0,0.6,0h1.8v0.5
		h-3.3V198.9z M111.5,196.6c0-1.3,0.5-2.8,2-2.8c1.4,0,2,1.4,2,2.8s-0.6,2.8-2,2.8C112,199.3,111.5,197.9,111.5,196.6z M114.8,196.6
		c0-1.3-0.4-2.3-1.4-2.3c-1,0-1.4,1-1.4,2.3s0.4,2.3,1.4,2.3C114.4,198.8,114.8,197.8,114.8,196.6z"/>
	<path class="st0" d="M150.9,198.9c0.9-0.9,2.5-2.4,2.5-3.6c0-0.7-0.4-1-0.9-1c-0.6,0-0.9,0.3-1.2,0.5l-0.3-0.4
		c0.3-0.4,0.8-0.7,1.5-0.7c0.9,0,1.6,0.5,1.6,1.4c0,1.2-1.3,2.5-2.3,3.5c0,0,0.3,0,0.6,0h1.8v0.5h-3.3V198.9z M154.8,196.6
		c0-1.3,0.5-2.8,2-2.8c1.4,0,2,1.4,2,2.8s-0.6,2.8-2,2.8C155.4,199.3,154.8,197.9,154.8,196.6z M158.2,196.6c0-1.3-0.4-2.3-1.4-2.3
		c-1,0-1.4,1-1.4,2.3s0.4,2.3,1.4,2.3C157.8,198.8,158.2,197.8,158.2,196.6z M159.3,198.9c0.9-0.9,2.5-2.4,2.5-3.6
		c0-0.7-0.4-1-0.9-1c-0.6,0-0.9,0.3-1.2,0.5l-0.3-0.4c0.3-0.4,0.8-0.7,1.5-0.7c0.9,0,1.6,0.5,1.6,1.4c0,1.2-1.3,2.5-2.3,3.5
		c0,0,0.3,0,0.6,0h1.8v0.5h-3.3V198.9z M164.2,194.5l-1,0.3l-0.1-0.5l1.3-0.4h0.5v5.3h-0.6V194.5z"/>
	<path class="st0" d="M200.7,198.9c0.9-0.9,2.5-2.4,2.5-3.6c0-0.7-0.4-1-0.9-1c-0.6,0-0.9,0.3-1.2,0.5l-0.3-0.4
		c0.3-0.4,0.8-0.7,1.5-0.7c0.9,0,1.6,0.5,1.6,1.4c0,1.2-1.3,2.5-2.3,3.5c0,0,0.3,0,0.6,0h1.8v0.5h-3.3V198.9z M204.6,196.6
		c0-1.3,0.5-2.8,2-2.8c1.4,0,2,1.4,2,2.8s-0.6,2.8-2,2.8C205.1,199.3,204.6,197.9,204.6,196.6z M207.9,196.6c0-1.3-0.4-2.3-1.4-2.3
		c-1,0-1.4,1-1.4,2.3s0.4,2.3,1.4,2.3C207.5,198.8,207.9,197.8,207.9,196.6z M209.1,198.9c0.9-0.9,2.5-2.4,2.5-3.6
		c0-0.7-0.4-1-0.9-1c-0.6,0-0.9,0.3-1.2,0.5l-0.3-0.4c0.3-0.4,0.8-0.7,1.5-0.7c0.9,0,1.6,0.5,1.6,1.4c0,1.2-1.3,2.5-2.3,3.5
		c0,0,0.3,0,0.6,0h1.8v0.5h-3.3V198.9z M212.9,199.3l0.1-0.5c0.1,0,0.2,0,0.5,0c0.9,0,1.7-0.4,1.7-1.3c0-0.9-0.7-1.2-1.6-1.2
		c-0.2,0-0.4,0-0.4,0l0.2-2.5h2.4v0.5h-1.8l-0.1,1.4c1.3,0,2,0.6,2,1.6c0,1.2-1,1.8-2.4,1.8C213.2,199.3,213,199.3,212.9,199.3z"/>
	<g>
		<path class="st0" d="M18.7,30.4V27h0.6v3.3c0,1.1,0.5,1.6,1.5,1.6c1,0,1.4-0.6,1.4-1.5V27h0.6v3.3c0,1.3-0.6,2.1-2,2.1
			C19.3,32.4,18.7,31.6,18.7,30.4z"/>
		<path class="st0" d="M23.9,31.9l0.3-0.4c0.1,0.1,0.5,0.5,1.2,0.5c0.7,0,1.1-0.4,1.1-0.9c0-0.6-0.6-0.9-1.2-1.2
			c-0.6-0.3-1.2-0.7-1.2-1.5c0-0.9,0.7-1.4,1.6-1.4c0.8,0,1.2,0.3,1.4,0.4l-0.3,0.5c-0.2-0.1-0.5-0.4-1.1-0.4
			c-0.5,0-0.9,0.3-0.9,0.8c0,0.5,0.4,0.8,1,1c0.7,0.3,1.5,0.7,1.5,1.7c0,0.8-0.7,1.4-1.7,1.4C24.6,32.4,24.1,32.1,23.9,31.9z"/>
		<path class="st0" d="M28.4,27h1.2c2.1,0,3,1.1,3,2.6s-0.9,2.7-3.1,2.7h-1.2V27z M29.7,31.8c1.5,0,2.3-0.8,2.3-2.2
			c0-1.4-0.8-2.1-2.4-2.1h-0.6v4.3H29.7z"/>
	</g>
	<g>
		<path class="st0" d="M35.7,32.1v-5.6h0.6v2.2c0.2-0.2,0.6-0.4,1-0.4c1,0,1.7,0.8,1.7,2c0,1.2-0.8,2-1.9,2
			C36.5,32.4,36,32.3,35.7,32.1z M38.3,30.4c0-0.8-0.3-1.5-1.1-1.5c-0.3,0-0.7,0.2-0.8,0.4v2.5c0.2,0.1,0.4,0.1,0.7,0.1
			C37.9,31.9,38.3,31.2,38.3,30.4z"/>
		<path class="st0" d="M39.9,27.4c0-0.2,0.2-0.4,0.4-0.4c0.2,0,0.4,0.2,0.4,0.4s-0.2,0.4-0.4,0.4C40.1,27.8,39.9,27.6,39.9,27.4z
			 M40,28.5h0.6v3.8H40V28.5z"/>
		<path class="st0" d="M42.1,26.6h0.6v5.8h-0.6V26.6z"/>
		<path class="st0" d="M44.2,26.6h0.6v5.8h-0.6V26.6z"/>
		<path class="st0" d="M46.1,27.4c0-0.2,0.2-0.4,0.4-0.4c0.2,0,0.4,0.2,0.4,0.4s-0.2,0.4-0.4,0.4C46.2,27.8,46.1,27.6,46.1,27.4z
			 M46.2,28.5h0.6v3.8h-0.6V28.5z"/>
		<path class="st0" d="M47.9,30.4c0-0.9,0.5-2,1.8-2c1.3,0,1.8,1.1,1.8,2s-0.5,2-1.8,2C48.4,32.4,47.9,31.3,47.9,30.4z M50.8,30.4
			c0-0.8-0.4-1.5-1.2-1.5c-0.8,0-1.1,0.7-1.1,1.5s0.4,1.5,1.2,1.5C50.5,31.9,50.8,31.3,50.8,30.4z"/>
		<path class="st0" d="M52.5,28.5h0.6v0.6c0.3-0.4,0.8-0.6,1.2-0.6c0.8,0,1.1,0.5,1.1,1.2v2.7h-0.6v-2.6c0-0.5-0.2-0.8-0.7-0.8
			c-0.4,0-0.8,0.3-1.1,0.7v2.7h-0.6V28.5z"/>
	</g>
	<path class="st0" d="M16.3,80l0.1-0.5c0.1,0,0.3,0.1,0.7,0.1c1,0,1.5-0.4,1.5-1.1c0-0.8-0.7-1.1-1.7-1.1v-0.4
		c0.8,0,1.6-0.4,1.6-1.1c0-0.4-0.3-0.7-0.9-0.7c-0.5,0-0.8,0.2-1.1,0.4l-0.3-0.4c0.3-0.2,0.8-0.5,1.4-0.5c1,0,1.5,0.5,1.5,1.2
		c0,0.7-0.6,1.1-1.2,1.3v0c0.7,0.1,1.3,0.6,1.3,1.4c0,1.1-0.9,1.7-2.1,1.7C16.6,80.1,16.4,80,16.3,80z M20.1,77.3
		c0-1.3,0.5-2.8,2-2.8c1.4,0,2,1.4,2,2.8s-0.6,2.8-2,2.8C20.7,80.1,20.1,78.6,20.1,77.3z M23.5,77.3c0-1.3-0.4-2.3-1.4-2.3
		c-1,0-1.4,1-1.4,2.3s0.4,2.3,1.4,2.3C23.1,79.6,23.5,78.6,23.5,77.3z M25,77.3c0-1.3,0.5-2.8,2-2.8c1.4,0,2,1.4,2,2.8
		s-0.6,2.8-2,2.8C25.6,80.1,25,78.6,25,77.3z M28.4,77.3c0-1.3-0.4-2.3-1.4-2.3c-1,0-1.4,1-1.4,2.3s0.4,2.3,1.4,2.3
		C27.9,79.6,28.4,78.6,28.4,77.3z"/>
	<path class="st0" d="M16,116.1c0.9-0.9,2.5-2.4,2.5-3.6c0-0.7-0.4-1-0.9-1c-0.6,0-0.9,0.3-1.2,0.5l-0.3-0.4
		c0.3-0.4,0.8-0.7,1.5-0.7c0.9,0,1.6,0.5,1.6,1.4c0,1.2-1.3,2.5-2.3,3.5c0,0,0.3,0,0.6,0h1.8v0.5H16V116.1z M20.1,113.8
		c0-1.3,0.5-2.8,2-2.8c1.4,0,2,1.4,2,2.8s-0.6,2.8-2,2.8C20.7,116.5,20.1,115.1,20.1,113.8z M23.5,113.8c0-1.3-0.4-2.3-1.4-2.3
		c-1,0-1.4,1-1.4,2.3s0.4,2.3,1.4,2.3C23.1,116,23.5,115,23.5,113.8z M25,113.8c0-1.3,0.5-2.8,2-2.8c1.4,0,2,1.4,2,2.8
		s-0.6,2.8-2,2.8C25.6,116.5,25,115.1,25,113.8z M28.4,113.8c0-1.3-0.4-2.3-1.4-2.3c-1,0-1.4,1-1.4,2.3s0.4,2.3,1.4,2.3
		C27.9,116,28.4,115,28.4,113.8z"/>
	<path class="st0" d="M18.4,148l-1,0.3l-0.1-0.5l1.3-0.4H19v5.3h-0.6V148z M20.3,150.2c0-1.3,0.5-2.8,2-2.8c1.4,0,2,1.4,2,2.8
		s-0.6,2.8-2,2.8C20.8,152.9,20.3,151.5,20.3,150.2z M23.7,150.2c0-1.3-0.4-2.3-1.4-2.3c-1,0-1.4,1-1.4,2.3s0.4,2.3,1.4,2.3
		C23.2,152.4,23.7,151.4,23.7,150.2z M25.1,150.2c0-1.3,0.5-2.8,2-2.8c1.4,0,2,1.4,2,2.8s-0.6,2.8-2,2.8
		C25.7,152.9,25.1,151.5,25.1,150.2z M28.5,150.2c0-1.3-0.4-2.3-1.4-2.3c-1,0-1.4,1-1.4,2.3s0.4,2.3,1.4,2.3
		C28.1,152.4,28.5,151.4,28.5,150.2z"/>
	<path class="st0" d="M25,186c0-1.3,0.5-2.8,2-2.8c1.4,0,2,1.4,2,2.8s-0.6,2.8-2,2.8C25.6,188.7,25,187.3,25,186z M28.4,186
		c0-1.3-0.4-2.3-1.4-2.3c-1,0-1.4,1-1.4,2.3s0.4,2.3,1.4,2.3C27.9,188.2,28.4,187.2,28.4,186z"/>
	<line class="st1" x1="32.2" y1="189.8" x2="32.2" y2="38.5"/>
	<line class="st1" x1="233.2" y1="189.8" x2="233.2" y2="38.5"/>
	<line class="st1" x1="57" y1="189.8" x2="57" y2="187.2"/>
	<line class="st1" x1="107.4" y1="189.8" x2="107.4" y2="187.2"/>
	<line class="st1" x1="158.1" y1="189.8" x2="158.1" y2="187.2"/>
	<line class="st1" x1="208.3" y1="189.8" x2="208.3" y2="187.2"/>
	<path class="st0" d="M53.6,147.1c0.8,0,1.5-0.2,1.9-0.8c0.3-0.4,0.5-0.8,0.6-1.5c-0.3,0.3-0.7,0.5-1.2,0.5c-1,0-1.6-0.7-1.6-1.6
		s0.6-1.7,1.7-1.7c1.3,0,1.8,1.2,1.8,2.3c0,2-1,3.3-3,3.3L53.6,147.1z M56.1,144.4v-0.1c0-1.1-0.4-1.8-1.2-1.8c-0.7,0-1,0.6-1,1.2
		c0,0.8,0.4,1.2,1.1,1.2C55.5,144.8,55.8,144.7,56.1,144.4z M57.6,147.1c0.8,0,1.5-0.2,1.9-0.8c0.3-0.4,0.5-0.8,0.6-1.5
		c-0.3,0.3-0.7,0.5-1.2,0.5c-1,0-1.6-0.7-1.6-1.6s0.6-1.7,1.7-1.7c1.3,0,1.8,1.2,1.8,2.3c0,2-1,3.3-3,3.3L57.6,147.1z M60.1,144.4
		v-0.1c0-1.1-0.4-1.8-1.2-1.8c-0.7,0-1,0.6-1,1.2c0,0.8,0.4,1.2,1.1,1.2C59.5,144.8,59.8,144.7,60.1,144.4z"/>
	<path class="st0" d="M104.3,137.2l-1,0.3l-0.1-0.5l1.3-0.4h0.5v5.3h-0.6V137.2z M106.9,137.2l-1,0.3l-0.1-0.5l1.3-0.4h0.5v5.3h-0.6
		V137.2z M108.8,142l1.9-4.8h-2.4v-0.5h3v0.4l-2,5.1L108.8,142z"/>
	<path class="st0" d="M154.3,116.6l-1,0.3l-0.1-0.5l1.3-0.4h0.5v5.3h-0.6V116.6z M156.2,121.4l1.9-4.8h-2.4V116h3v0.4l-2,5.1
		L156.2,121.4z M161.6,120.1h-2.5v-0.5l2.4-3.6h0.6v3.6h0.8v0.5h-0.8v1.2h-0.6V120.1z M160.5,119.6h1.2v-2.7h0l-1.8,2.8
		C159.9,119.6,160.2,119.6,160.5,119.6z"/>
	<path class="st0" d="M203,51.4l0.1-0.5c0.1,0,0.3,0.1,0.7,0.1c1,0,1.5-0.4,1.5-1.1c0-0.8-0.7-1.1-1.7-1.1v-0.4
		c0.8,0,1.6-0.4,1.6-1.1c0-0.4-0.3-0.7-0.9-0.7c-0.5,0-0.8,0.2-1.1,0.4l-0.3-0.4c0.3-0.2,0.8-0.5,1.4-0.5c1,0,1.5,0.5,1.5,1.2
		c0,0.7-0.6,1.1-1.2,1.3v0c0.7,0.1,1.3,0.6,1.3,1.4c0,1.1-0.9,1.7-2.1,1.7C203.3,51.4,203.1,51.4,203,51.4z M206.6,49.2
		c0-2,1.2-3.3,3.1-3.3l0.1,0.5c-0.8,0-1.4,0.2-1.9,0.6c-0.4,0.4-0.6,0.9-0.7,1.6c0.3-0.3,0.7-0.5,1.2-0.5c1,0,1.6,0.7,1.6,1.6
		s-0.6,1.7-1.7,1.7C207.1,51.4,206.6,50.2,206.6,49.2z M209.4,49.8c0-0.8-0.4-1.2-1.1-1.2c-0.5,0-0.8,0.2-1.1,0.5v0.1
		c0,1.1,0.4,1.8,1.2,1.8C209.1,50.9,209.4,50.3,209.4,49.8z M210.5,51.4l0.1-0.5c0.1,0,0.3,0.1,0.7,0.1c1,0,1.5-0.4,1.5-1.1
		c0-0.8-0.7-1.1-1.7-1.1v-0.4c0.8,0,1.6-0.4,1.6-1.1c0-0.4-0.3-0.7-0.9-0.7c-0.5,0-0.8,0.2-1.1,0.4l-0.3-0.4
		c0.3-0.2,0.8-0.5,1.4-0.5c1,0,1.5,0.5,1.5,1.2c0,0.7-0.6,1.1-1.2,1.3v0c0.7,0.1,1.3,0.6,1.3,1.4c0,1.1-0.9,1.7-2.1,1.7
		C210.9,51.4,210.6,51.4,210.5,51.4z"/>
	<rect x="200.9" y="80" class="st2" width="14.7" height="107.2"/>
	<rect x="200.9" y="55.3" class="st3" width="14.7" height="15.7"/>
	<rect x="200.9" y="70.7" class="st4" width="14.7" height="31.3"/>
	<rect x="200.9" y="86.5" class="st5" width="14.7" height="15.6"/>
	<rect x="150.7" y="131.8" class="st4" width="14.7" height="4.8"/>
	<rect x="150.7" y="136.5" class="st2" width="14.7" height="50.6"/>
	<rect x="150.7" y="136.5" class="st5" width="14.7" height="6.8"/>
	<rect x="150.7" y="124" class="st3" width="14.7" height="7.9"/>
	<rect x="100" y="150" class="st4" width="14.7" height="5.2"/>
	<rect x="100" y="155.2" class="st2" width="14.7" height="31.9"/>
	<rect x="100" y="155.2" class="st5" width="14.7" height="4.8"/>
	<rect x="100" y="144.7" class="st3" width="14.7" height="6.1"/>
	<rect x="49.7" y="155.8" class="st4" width="14.7" height="12.6"/>
	<rect x="49.7" y="168.1" class="st2" width="14.7" height="19"/>
	<rect x="49.7" y="168.1" class="st5" width="14.7" height="5.1"/>
	<rect x="49.7" y="150.8" class="st3" width="14.7" height="5.1"/>
</g>
<path class="st0" d="M85.2,223.8h-1.5v-0.5h3.7v0.5h-1.5v4.8h-0.6V223.8z"/>
<path class="st0" d="M87.7,224.7h0.6v0.6c0.2-0.3,0.5-0.7,1-0.7c0.2,0,0.4,0.1,0.4,0.1l-0.1,0.6c0,0-0.1-0.1-0.3-0.1
	c-0.6,0-0.9,0.7-0.9,0.8v2.6h-0.6V224.7z"/>
<path class="st0" d="M90,227.7c0-1,1.1-1.3,2-1.3h0.2V226c0-0.6-0.2-0.8-0.8-0.8c-0.4,0-0.7,0.1-1,0.4l-0.3-0.4
	c0.4-0.4,0.8-0.5,1.4-0.5c0.8,0,1.3,0.4,1.3,1.3v1.8c0,0.4,0,0.7,0.1,0.9h-0.6c0-0.1,0-0.3-0.1-0.5c-0.3,0.3-0.7,0.6-1.2,0.6
	C90.4,228.7,90,228.3,90,227.7z M92.2,227.6v-0.9H92c-0.8,0-1.4,0.2-1.4,0.9c0,0.4,0.3,0.5,0.6,0.5C91.6,228.2,91.9,228,92.2,227.6z
	"/>
<path class="st0" d="M93.9,224.7h0.6v0.6c0.3-0.4,0.8-0.6,1.2-0.6c0.8,0,1.1,0.5,1.1,1.2v2.7h-0.6V226c0-0.5-0.2-0.8-0.7-0.8
	c-0.4,0-0.8,0.3-1.1,0.7v2.7h-0.6V224.7z"/>
<path class="st0" d="M97.7,228.3l0.3-0.4c0.1,0.1,0.5,0.3,1,0.3c0.5,0,0.8-0.2,0.8-0.6s-0.3-0.5-0.8-0.7c-0.6-0.3-1.1-0.5-1.1-1.2
	c0-0.6,0.4-1.1,1.2-1.1c0.6,0,1,0.3,1.1,0.4l-0.3,0.4c-0.1-0.1-0.4-0.3-0.9-0.3c-0.4,0-0.6,0.2-0.6,0.5c0,0.4,0.3,0.5,0.7,0.7
	c0.6,0.3,1.2,0.5,1.2,1.2c0,0.7-0.5,1.1-1.4,1.1C98.3,228.7,97.9,228.5,97.7,228.3z"/>
<path class="st0" d="M101.1,224.7h0.6v0.4c0.2-0.2,0.6-0.5,1.1-0.5c0.9,0,1.6,0.7,1.6,2c0,1.2-0.7,2-1.7,2c-0.5,0-0.8-0.2-1-0.3v2
	h-0.6V224.7z M103.7,226.7c0-0.9-0.3-1.5-1.1-1.5c-0.5,0-0.9,0.4-1,0.5v2.1c0.2,0.2,0.4,0.4,0.9,0.4
	C103.3,228.2,103.7,227.5,103.7,226.7z"/>
<path class="st0" d="M104.8,226.7c0-0.9,0.5-2,1.8-2s1.8,1.1,1.8,2c0,0.9-0.5,2-1.8,2S104.8,227.6,104.8,226.7z M107.8,226.7
	c0-0.8-0.4-1.5-1.2-1.5c-0.8,0-1.1,0.7-1.1,1.5c0,0.8,0.4,1.5,1.2,1.5C107.4,228.2,107.8,227.5,107.8,226.7z"/>
<path class="st0" d="M109.2,224.7h0.6v0.6c0.2-0.3,0.5-0.7,1-0.7c0.2,0,0.4,0.1,0.4,0.1l-0.1,0.6c0,0-0.1-0.1-0.3-0.1
	c-0.6,0-0.9,0.7-0.9,0.8v2.6h-0.6V224.7z"/>
<path class="st0" d="M112.1,227.7v-2.5h-0.6v-0.5h0.6v-1.1h0.6v1.1h1v0.5h-1v2.4c0,0.4,0.1,0.6,0.4,0.6c0.2,0,0.5-0.1,0.5-0.2
	l0.2,0.4c-0.1,0.1-0.4,0.2-0.8,0.2C112.4,228.7,112.1,228.3,112.1,227.7z"/>
<path class="st0" d="M115.9,227.2c0-0.7,0.3-1.1,1.1-1.5c-0.4-0.5-0.7-0.9-0.7-1.3c0-0.7,0.6-1.2,1.4-1.2c0.8,0,1.3,0.5,1.3,1.1
	c0,0.6-0.4,1-1.2,1.5l1.4,1.5c0.2-0.3,0.4-0.8,0.4-1.2l0.6,0.1c-0.1,0.6-0.3,1.1-0.6,1.5l0.9,0.9h-0.8l-0.5-0.5
	c-0.4,0.4-1,0.6-1.6,0.6C116.5,228.7,115.9,228,115.9,227.2z M118.8,227.7l-1.6-1.6c-0.5,0.3-0.8,0.6-0.8,1.1c0,0.5,0.4,1,1.2,1
	C118.1,228.2,118.5,228,118.8,227.7z M118.4,224.3c0-0.4-0.3-0.7-0.7-0.7c-0.5,0-0.8,0.3-0.8,0.7c0,0.3,0.1,0.6,0.6,1.1
	C118.2,225.1,118.4,224.7,118.4,224.3z"/>
<path class="st0" d="M122.8,223.3h2.8v0.5h-2.2v1.7h1.9v0.5h-1.9v2.6h-0.6V223.3z"/>
<path class="st0" d="M126,226.7c0-0.9,0.5-2,1.8-2c1.3,0,1.8,1.1,1.8,2c0,0.9-0.5,2-1.8,2C126.5,228.7,126,227.6,126,226.7z
	 M129,226.7c0-0.8-0.4-1.5-1.2-1.5c-0.8,0-1.1,0.7-1.1,1.5c0,0.8,0.4,1.5,1.2,1.5C128.6,228.2,129,227.5,129,226.7z"/>
<path class="st0" d="M130.1,226.7c0-0.9,0.5-2,1.8-2c1.3,0,1.8,1.1,1.8,2c0,0.9-0.5,2-1.8,2C130.6,228.7,130.1,227.6,130.1,226.7z
	 M133.1,226.7c0-0.8-0.4-1.5-1.2-1.5c-0.8,0-1.1,0.7-1.1,1.5c0,0.8,0.4,1.5,1.2,1.5C132.7,228.2,133.1,227.5,133.1,226.7z"/>
<path class="st0" d="M134.2,226.7c0-1.2,0.7-2,1.7-2c0.4,0,0.7,0.1,1,0.3v-2.2h0.6v5c0,0.3,0,0.6,0.1,0.8h-0.6
	c0-0.1-0.1-0.3-0.1-0.4c-0.3,0.3-0.6,0.5-1.1,0.5C134.8,228.7,134.2,228,134.2,226.7z M136.8,227.6v-2.1c-0.2-0.2-0.5-0.4-0.9-0.4
	c-0.7,0-1.1,0.6-1.1,1.5c0,0.9,0.3,1.5,1.1,1.5C136.2,228.2,136.6,228,136.8,227.6z"/>
<line class="st6" x1="75.3" y1="226.1" x2="81.3" y2="226.1"/>
<path class="st0" d="M84.5,238.2c0-1.5,1-2.8,2.6-2.8s2.6,1.3,2.6,2.8c0,1.5-1,2.8-2.6,2.8S84.5,239.6,84.5,238.2z M89.1,238.2
	c0-1.2-0.7-2.2-2-2.2s-2,1-2,2.2s0.7,2.2,2,2.2C88.4,240.4,89.1,239.4,89.1,238.2z"/>
<path class="st0" d="M90.7,237h0.6v0.6c0.3-0.4,0.8-0.6,1.2-0.6c0.8,0,1.1,0.5,1.1,1.2v2.7h-0.6v-2.6c0-0.5-0.2-0.8-0.7-0.8
	c-0.4,0-0.8,0.3-1.1,0.7v2.7h-0.6V237z"/>
<path class="st0" d="M94.8,235.1h0.6v5.8h-0.6V235.1z"/>
<path class="st0" d="M96.5,235.8c0-0.2,0.2-0.4,0.4-0.4s0.4,0.2,0.4,0.4c0,0.2-0.2,0.4-0.4,0.4S96.5,236.1,96.5,235.8z M96.6,237
	h0.6v3.8h-0.6V237z"/>
<path class="st0" d="M98.4,237H99v0.6c0.3-0.4,0.8-0.6,1.2-0.6c0.8,0,1.1,0.5,1.1,1.2v2.7h-0.6v-2.6c0-0.5-0.2-0.8-0.7-0.8
	c-0.4,0-0.8,0.3-1.1,0.7v2.7h-0.6V237z"/>
<path class="st0" d="M102.2,238.9c0-1.1,0.7-2,1.7-2c1,0,1.5,0.7,1.5,1.7c0,0.1,0,0.2,0,0.3h-2.6c0,0.8,0.3,1.5,1.2,1.5
	c0.5,0,0.9-0.2,1.1-0.3l0.2,0.5c-0.2,0.1-0.6,0.4-1.3,0.4C102.8,240.9,102.2,240,102.2,238.9z M104.8,238.4c0-0.5-0.3-1-0.9-1
	c-0.6,0-1,0.4-1.1,1H104.8z"/>
<path class="st0" d="M108.4,235.5h0.6l1.3,3.6c0.2,0.4,0.2,0.7,0.3,1h0c0.1-0.3,0.2-0.5,0.3-1l1.3-3.6h0.6l0.7,5.3H113l-0.5-3.5
	c0-0.4-0.1-0.6-0.1-0.7h0c-0.1,0.2-0.1,0.4-0.2,0.7l-1.3,3.5h-0.6l-1.3-3.5c-0.1-0.3-0.2-0.6-0.3-0.7h0c0,0.2,0,0.4-0.1,0.8
	l-0.4,3.5h-0.6L108.4,235.5z"/>
<path class="st0" d="M114.3,238.9c0-1.1,0.7-2,1.7-2c1,0,1.5,0.7,1.5,1.7c0,0.1,0,0.2,0,0.3h-2.6c0,0.8,0.3,1.5,1.2,1.5
	c0.5,0,0.9-0.2,1.1-0.3l0.2,0.5c-0.2,0.1-0.6,0.4-1.3,0.4C114.9,240.9,114.3,240,114.3,238.9z M116.9,238.4c0-0.5-0.3-1-0.9-1
	c-0.6,0-1,0.4-1.1,1H116.9z"/>
<path class="st0" d="M118,238.9c0-1.2,0.7-2,1.7-2c0.4,0,0.7,0.1,1,0.3v-2.2h0.6v5c0,0.3,0,0.6,0.1,0.8h-0.6c0-0.1-0.1-0.3-0.1-0.4
	c-0.3,0.3-0.6,0.5-1.1,0.5C118.7,240.9,118,240.2,118,238.9z M120.7,239.9v-2.1c-0.2-0.2-0.5-0.4-0.9-0.4c-0.7,0-1.1,0.6-1.1,1.5
	c0,0.9,0.3,1.5,1.1,1.5C120.1,240.4,120.5,240.2,120.7,239.9z"/>
<path class="st0" d="M122.3,235.8c0-0.2,0.2-0.4,0.4-0.4c0.2,0,0.4,0.2,0.4,0.4c0,0.2-0.2,0.4-0.4,0.4
	C122.5,236.3,122.3,236.1,122.3,235.8z M122.5,237h0.6v3.8h-0.6V237z"/>
<path class="st0" d="M123.9,239.9c0-1,1.1-1.3,2-1.3h0.2v-0.4c0-0.6-0.2-0.8-0.8-0.8c-0.4,0-0.7,0.1-1,0.4l-0.3-0.4
	c0.4-0.4,0.8-0.5,1.4-0.5c0.8,0,1.3,0.4,1.3,1.3v1.8c0,0.4,0,0.7,0.1,0.9h-0.6c0-0.1,0-0.3-0.1-0.5c-0.3,0.3-0.7,0.6-1.2,0.6
	C124.4,240.9,123.9,240.5,123.9,239.9z M126.2,239.9V239H126c-0.8,0-1.4,0.2-1.4,0.9c0,0.4,0.3,0.5,0.6,0.5
	C125.6,240.4,125.9,240.2,126.2,239.9z"/>
<line class="st7" x1="75.3" y1="238.4" x2="81.3" y2="238.4"/>
<path class="st0" d="M9,223.2h2.7v0.5H9.6v1.7h1.9v0.5H9.6v2h2.2v0.5H9V223.2z"/>
<path class="st0" d="M12.2,226h1.6v0.5h-1.6V226z"/>
<path class="st0" d="M14,226.6c0-1.3,0.8-2,1.8-2c0.6,0,1,0.2,1.2,0.4l-0.3,0.4c-0.2-0.2-0.5-0.3-0.9-0.3c-0.8,0-1.1,0.7-1.1,1.5
	c0,0.8,0.4,1.5,1.2,1.5c0.5,0,0.8-0.2,0.9-0.3l0.2,0.4c-0.2,0.1-0.5,0.4-1.2,0.4C14.6,228.6,14,227.7,14,226.6z"/>
<path class="st0" d="M17,226.6c0-0.9,0.5-2,1.8-2s1.8,1.1,1.8,2c0,0.9-0.5,2-1.8,2C17.5,228.6,17,227.5,17,226.6z M19.9,226.6
	c0-0.8-0.4-1.5-1.2-1.5c-0.8,0-1.1,0.7-1.1,1.5c0,0.8,0.4,1.5,1.2,1.5C19.6,228.1,19.9,227.4,19.9,226.6z"/>
<path class="st0" d="M21,224.7h0.6v0.5c0.2-0.2,0.5-0.6,1.2-0.6c0.6,0,0.9,0.3,1,0.6c0.3-0.3,0.7-0.6,1.2-0.6c0.8,0,1.1,0.5,1.1,1.2
	v2.7h-0.6v-2.6c0-0.5-0.1-0.8-0.6-0.8c-0.5,0-0.8,0.4-1,0.6v2.8h-0.6v-2.6c0-0.5-0.2-0.8-0.6-0.8c-0.6,0-1,0.6-1,0.7v2.7H21V224.7z"
	/>
<path class="st0" d="M26.9,224.7h0.6v0.5c0.2-0.2,0.5-0.6,1.2-0.6c0.6,0,0.9,0.3,1,0.6c0.3-0.3,0.7-0.6,1.2-0.6
	c0.8,0,1.1,0.5,1.1,1.2v2.7h-0.6v-2.6c0-0.5-0.1-0.8-0.6-0.8c-0.5,0-0.8,0.4-1,0.6v2.8h-0.6v-2.6c0-0.5-0.2-0.8-0.6-0.8
	c-0.6,0-1,0.6-1,0.7v2.7h-0.6V224.7z"/>
<path class="st0" d="M32.4,226.6c0-1.1,0.7-2,1.7-2c1,0,1.5,0.7,1.5,1.7c0,0.1,0,0.2,0,0.3H33c0,0.8,0.3,1.5,1.2,1.5
	c0.5,0,0.9-0.2,1.1-0.3l0.2,0.5c-0.2,0.1-0.6,0.4-1.3,0.4C33,228.6,32.4,227.7,32.4,226.6z M35,226.1c0-0.5-0.3-1-0.9-1
	c-0.6,0-1,0.4-1.1,1H35z"/>
<path class="st0" d="M36.1,224.7h0.6v0.6c0.2-0.3,0.5-0.7,1-0.7c0.2,0,0.4,0.1,0.4,0.1l-0.1,0.6c0,0-0.1-0.1-0.3-0.1
	c-0.6,0-0.9,0.7-0.9,0.8v2.6h-0.6V224.7z"/>
<path class="st0" d="M37.9,226.6c0-1.3,0.8-2,1.8-2c0.6,0,1,0.2,1.2,0.4l-0.3,0.4c-0.2-0.2-0.5-0.3-0.9-0.3c-0.8,0-1.1,0.7-1.1,1.5
	c0,0.8,0.4,1.5,1.2,1.5c0.5,0,0.8-0.2,0.9-0.3l0.2,0.4c-0.2,0.1-0.5,0.4-1.2,0.4C38.5,228.6,37.9,227.7,37.9,226.6z"/>
<path class="st0" d="M41,226.6c0-1.1,0.7-2,1.7-2c1,0,1.5,0.7,1.5,1.7c0,0.1,0,0.2,0,0.3h-2.6c0,0.8,0.3,1.5,1.2,1.5
	c0.5,0,0.9-0.2,1.1-0.3l0.2,0.5c-0.2,0.1-0.6,0.4-1.3,0.4C41.6,228.6,41,227.7,41,226.6z M43.6,226.1c0-0.5-0.3-1-0.9-1
	c-0.6,0-1,0.4-1.1,1H43.6z"/>
<line class="st8" x1="0.1" y1="226.1" x2="6.1" y2="226.1"/>
<path class="st0" d="M9.3,238.1c0-1.5,1-2.8,2.6-2.8s2.6,1.3,2.6,2.8c0,1.5-1,2.8-2.6,2.8S9.3,239.6,9.3,238.1z M13.8,238.1
	c0-1.2-0.7-2.2-2-2.2c-1.3,0-2,1-2,2.2s0.7,2.2,2,2.2C13.1,240.3,13.8,239.3,13.8,238.1z"/>
<path class="st0" d="M15.5,236.9H16v0.6c0.3-0.4,0.8-0.6,1.2-0.6c0.8,0,1.1,0.5,1.1,1.2v2.7h-0.6v-2.6c0-0.5-0.2-0.8-0.7-0.8
	c-0.4,0-0.8,0.3-1.1,0.7v2.7h-0.6V236.9z"/>
<path class="st0" d="M19.5,235h0.6v5.8h-0.6V235z"/>
<path class="st0" d="M21.2,235.8c0-0.2,0.2-0.4,0.4-0.4s0.4,0.2,0.4,0.4c0,0.2-0.2,0.4-0.4,0.4S21.2,236,21.2,235.8z M21.4,236.9
	h0.6v3.8h-0.6V236.9z"/>
<path class="st0" d="M23.2,236.9h0.6v0.6c0.3-0.4,0.8-0.6,1.2-0.6c0.8,0,1.1,0.5,1.1,1.2v2.7h-0.6v-2.6c0-0.5-0.2-0.8-0.7-0.8
	c-0.4,0-0.8,0.3-1.1,0.7v2.7h-0.6V236.9z"/>
<path class="st0" d="M26.9,238.8c0-1.1,0.7-2,1.7-2c1,0,1.5,0.7,1.5,1.7c0,0.1,0,0.2,0,0.3h-2.6c0,0.8,0.3,1.5,1.2,1.5
	c0.5,0,0.9-0.2,1.1-0.3l0.2,0.5c-0.2,0.1-0.6,0.4-1.3,0.4C27.5,240.9,26.9,240,26.9,238.8z M29.5,238.4c0-0.5-0.3-1-0.9-1
	c-0.6,0-1,0.4-1.1,1H29.5z"/>
<path class="st0" d="M33.7,236h-1.5v-0.5h3.7v0.5h-1.5v4.8h-0.6V236z"/>
<path class="st0" d="M36.1,236.9h0.6v0.6c0.2-0.3,0.5-0.7,1-0.7c0.2,0,0.4,0.1,0.4,0.1l-0.1,0.6c0,0-0.1-0.1-0.3-0.1
	c-0.6,0-0.9,0.7-0.9,0.8v2.6h-0.6V236.9z"/>
<path class="st0" d="M38.4,239.8c0-1,1.1-1.3,2-1.3h0.2v-0.4c0-0.6-0.2-0.8-0.8-0.8c-0.4,0-0.7,0.1-1,0.4l-0.3-0.4
	c0.4-0.4,0.8-0.5,1.4-0.5c0.8,0,1.3,0.4,1.3,1.3v1.8c0,0.4,0,0.7,0.1,0.9h-0.6c0-0.1,0-0.3-0.1-0.5c-0.3,0.3-0.7,0.6-1.2,0.6
	C38.8,240.9,38.4,240.4,38.4,239.8z M40.6,239.8v-0.9h-0.2c-0.8,0-1.4,0.2-1.4,0.9c0,0.4,0.3,0.5,0.6,0.5
	C40,240.4,40.3,240.1,40.6,239.8z"/>
<path class="st0" d="M41.7,236.9h0.6l1.1,3.1h0l1.1-3.1h0.6l-1.4,3.8h-0.5L41.7,236.9z"/>
<path class="st0" d="M45.4,238.8c0-1.1,0.7-2,1.7-2c1,0,1.5,0.7,1.5,1.7c0,0.1,0,0.2,0,0.3h-2.6c0,0.8,0.3,1.5,1.2,1.5
	c0.5,0,0.9-0.2,1.1-0.3l0.2,0.5c-0.2,0.1-0.6,0.4-1.3,0.4C46,240.9,45.4,240,45.4,238.8z M48.1,238.4c0-0.5-0.3-1-0.9-1
	c-0.6,0-1,0.4-1.1,1H48.1z"/>
<path class="st0" d="M49.5,235h0.6v5.8h-0.6V235z"/>
<line class="st9" x1="0.1" y1="238.3" x2="6.1" y2="238.3"/>
</svg>
