<?xml version="1.0" encoding="utf-8"?>
<!-- Generator: Adobe Illustrator 26.0.1, SVG Export Plug-In . SVG Version: 6.00 Build 0)  -->
<svg version="1.1" id="Layer_3" xmlns="http://www.w3.org/2000/svg" xmlns:xlink="http://www.w3.org/1999/xlink" x="0px" y="0px"
	 viewBox="0 0 250 250" style="enable-background:new 0 0 250 250;" xml:space="preserve">
<style type="text/css">
	.st0{fill:none;stroke:#BCBEC0;stroke-width:0.5;}
	.st1{fill:#4D4D4F;}
	.st2{fill:none;stroke:#B19E4E;stroke-linecap:round;stroke-linejoin:round;stroke-miterlimit:10;}
</style>
<line class="st0" x1="29" y1="16.7" x2="231.9" y2="16.7"/>
<line class="st0" x1="29" y1="50" x2="231.9" y2="50"/>
<line class="st0" x1="29" y1="116.9" x2="231.9" y2="116.9"/>
<line class="st0" x1="29" y1="183.8" x2="231.9" y2="183.8"/>
<line class="st0" x1="29" y1="83.7" x2="231.9" y2="83.7"/>
<line class="st0" x1="29" y1="150.7" x2="231.9" y2="150.7"/>
<line class="st0" x1="29" y1="217.6" x2="231.9" y2="217.6"/>
<path class="st1" d="M19.8,18.2h-2.5v-0.5l2.4-3.6h0.6v3.6h0.8v0.5h-0.8v1.2h-0.6V18.2z M18.6,17.7h1.2v-2.7h0l-1.8,2.8
	C18,17.7,18.3,17.7,18.6,17.7z M21.8,19c0-0.3,0.2-0.5,0.5-0.5s0.5,0.2,0.5,0.5s-0.2,0.5-0.5,0.5S21.8,19.3,21.8,19z M23.5,19.5
	l0.1-0.5c0.1,0,0.2,0,0.5,0c0.9,0,1.7-0.4,1.7-1.3c0-0.9-0.7-1.2-1.6-1.2c-0.2,0-0.4,0-0.4,0l0.2-2.5h2.4v0.5h-1.8L24.4,16
	c1.3,0,2,0.6,2,1.6c0,1.2-1,1.8-2.4,1.8C23.8,19.5,23.6,19.5,23.5,19.5z"/>
<path class="st1" d="M18.5,52.5H16V52l2.4-3.6h0.6V52h0.8v0.5h-0.8v1.2h-0.6V52.5z M17.4,52h1.2v-2.7h0L16.7,52
	C16.8,52,17.1,52,17.4,52z M20.5,53.3c0-0.3,0.2-0.5,0.5-0.5s0.5,0.2,0.5,0.5s-0.2,0.5-0.5,0.5S20.5,53.6,20.5,53.3z M22.4,51
	c0-1.3,0.5-2.8,2-2.8c1.4,0,2,1.4,2,2.8s-0.6,2.8-2,2.8C22.9,53.8,22.4,52.4,22.4,51z M25.7,51c0-1.3-0.4-2.3-1.4-2.3
	c-1,0-1.4,1-1.4,2.3s0.4,2.3,1.4,2.3C25.3,53.3,25.7,52.3,25.7,51z"/>
<path class="st1" d="M17.9,86.9l0.1-0.5c0.1,0,0.3,0.1,0.7,0.1c1,0,1.5-0.4,1.5-1.1c0-0.8-0.7-1.1-1.7-1.1v-0.4
	c0.8,0,1.6-0.4,1.6-1.1c0-0.4-0.3-0.7-0.9-0.7c-0.5,0-0.8,0.2-1.1,0.4l-0.3-0.4c0.3-0.2,0.8-0.5,1.4-0.5c1,0,1.5,0.5,1.5,1.2
	c0,0.7-0.6,1.1-1.2,1.3v0c0.7,0.1,1.3,0.6,1.3,1.4c0,1.1-0.9,1.7-2.1,1.7C18.3,86.9,18,86.9,17.9,86.9z M21.8,86.4
	c0-0.3,0.2-0.5,0.5-0.5s0.5,0.2,0.5,0.5s-0.2,0.5-0.5,0.5S21.8,86.7,21.8,86.4z M23.5,86.9l0.1-0.5c0.1,0,0.2,0,0.5,0
	c0.9,0,1.7-0.4,1.7-1.3c0-0.9-0.7-1.2-1.6-1.2c-0.2,0-0.4,0-0.4,0l0.2-2.5h2.4V82h-1.8l-0.1,1.4c1.3,0,2,0.6,2,1.6
	c0,1.2-1,1.8-2.4,1.8C23.8,86.9,23.6,86.9,23.5,86.9z"/>
<path class="st1" d="M16.7,121.2l0.1-0.5c0.1,0,0.3,0.1,0.7,0.1c1,0,1.5-0.4,1.5-1.1c0-0.8-0.7-1.1-1.7-1.1v-0.4
	c0.8,0,1.6-0.4,1.6-1.1c0-0.4-0.3-0.7-0.9-0.7c-0.5,0-0.8,0.2-1.1,0.4l-0.3-0.4c0.3-0.2,0.8-0.5,1.4-0.5c1,0,1.5,0.5,1.5,1.2
	c0,0.7-0.6,1.1-1.2,1.3v0c0.7,0.1,1.3,0.6,1.3,1.4c0,1.1-0.9,1.7-2.1,1.7C17,121.3,16.8,121.2,16.7,121.2z M20.5,120.8
	c0-0.3,0.2-0.5,0.5-0.5s0.5,0.2,0.5,0.5s-0.2,0.5-0.5,0.5S20.5,121,20.5,120.8z M22.4,118.5c0-1.3,0.5-2.8,2-2.8c1.4,0,2,1.4,2,2.8
	c0,1.3-0.6,2.8-2,2.8C22.9,121.3,22.4,119.8,22.4,118.5z M25.7,118.5c0-1.3-0.4-2.3-1.4-2.3c-1,0-1.4,1-1.4,2.3
	c0,1.3,0.4,2.3,1.4,2.3C25.3,120.8,25.7,119.8,25.7,118.5z"/>
<path class="st1" d="M17.6,153.7c0.9-0.9,2.5-2.4,2.5-3.6c0-0.7-0.4-1-0.9-1c-0.6,0-0.9,0.3-1.2,0.5l-0.3-0.4
	c0.3-0.4,0.8-0.7,1.5-0.7c0.9,0,1.6,0.5,1.6,1.4c0,1.2-1.3,2.5-2.3,3.5c0,0,0.3,0,0.6,0h1.8v0.5h-3.3V153.7z M21.8,153.6
	c0-0.3,0.2-0.5,0.5-0.5s0.5,0.2,0.5,0.5s-0.2,0.5-0.5,0.5S21.8,153.9,21.8,153.6z M23.5,154.1l0.1-0.5c0.1,0,0.2,0,0.5,0
	c0.9,0,1.7-0.4,1.7-1.3c0-0.9-0.7-1.2-1.6-1.2c-0.2,0-0.4,0-0.4,0l0.2-2.5h2.4v0.5h-1.8l-0.1,1.4c1.3,0,2,0.6,2,1.6
	c0,1.2-1,1.8-2.4,1.8C23.8,154.1,23.6,154.1,23.5,154.1z"/>
<path class="st1" d="M16.4,187.2c0.9-0.9,2.5-2.4,2.5-3.6c0-0.7-0.4-1-0.9-1c-0.6,0-0.9,0.3-1.2,0.5l-0.3-0.4
	c0.3-0.4,0.8-0.7,1.5-0.7c0.9,0,1.6,0.5,1.6,1.4c0,1.2-1.3,2.5-2.3,3.5c0,0,0.3,0,0.6,0h1.8v0.5h-3.3V187.2z M20.5,187.1
	c0-0.3,0.2-0.5,0.5-0.5s0.5,0.2,0.5,0.5s-0.2,0.5-0.5,0.5S20.5,187.4,20.5,187.1z M22.4,184.8c0-1.3,0.5-2.8,2-2.8
	c1.4,0,2,1.4,2,2.8s-0.6,2.8-2,2.8C22.9,187.6,22.4,186.1,22.4,184.8z M25.7,184.8c0-1.3-0.4-2.3-1.4-2.3c-1,0-1.4,1-1.4,2.3
	s0.4,2.3,1.4,2.3C25.3,187.1,25.7,186.1,25.7,184.8z"/>
<path class="st1" d="M19.9,215.6l-1,0.3l-0.1-0.5l1.3-0.4h0.5v5.3h-0.6V215.6z M21.8,220c0-0.3,0.2-0.5,0.5-0.5s0.5,0.2,0.5,0.5
	s-0.2,0.5-0.5,0.5S21.8,220.2,21.8,220z M23.5,220.4l0.1-0.5c0.1,0,0.2,0,0.5,0c0.9,0,1.7-0.4,1.7-1.3c0-0.9-0.7-1.2-1.6-1.2
	c-0.2,0-0.4,0-0.4,0l0.2-2.5h2.4v0.5h-1.8l-0.1,1.4c1.3,0,2,0.6,2,1.6c0,1.2-1,1.8-2.4,1.8C23.8,220.5,23.6,220.4,23.5,220.4z"/>
<g>
	<path class="st1" d="M20.4,231.5l0.1-0.5c0.1,0,0.2,0.1,0.3,0.1c0.4,0,0.6-0.3,0.6-0.9v-5.3h0.6v5.4c0,0.9-0.4,1.4-1.2,1.4
		C20.7,231.5,20.5,231.5,20.4,231.5z"/>
	<path class="st1" d="M23.3,229.1c0-1,1.1-1.3,2-1.3h0.2v-0.4c0-0.6-0.2-0.8-0.8-0.8c-0.4,0-0.7,0.1-1,0.4l-0.3-0.4
		c0.4-0.4,0.8-0.5,1.4-0.5c0.8,0,1.3,0.4,1.3,1.3v1.8c0,0.4,0,0.7,0.1,0.9h-0.6c0-0.1,0-0.3-0.1-0.5c-0.3,0.3-0.7,0.6-1.2,0.6
		C23.8,230.1,23.3,229.7,23.3,229.1z M25.5,229.1v-0.9h-0.2c-0.8,0-1.4,0.2-1.4,0.9c0,0.4,0.3,0.5,0.6,0.5
		C24.9,229.6,25.3,229.4,25.5,229.1z"/>
	<path class="st1" d="M27.5,226.2H28v0.6c0.3-0.4,0.8-0.6,1.2-0.6c0.8,0,1.1,0.5,1.1,1.2v2.7h-0.6v-2.6c0-0.5-0.2-0.8-0.7-0.8
		c-0.4,0-0.8,0.3-1.1,0.7v2.7h-0.6V226.2z"/>
	<path class="st1" d="M31.6,227.5h1.6v0.5h-1.6V227.5z"/>
</g>
<path class="st1" d="M34,229.7c0.9-0.9,2.5-2.4,2.5-3.6c0-0.7-0.4-1-0.9-1c-0.6,0-0.9,0.3-1.2,0.5l-0.3-0.4c0.3-0.4,0.8-0.7,1.5-0.7
	c0.9,0,1.6,0.5,1.6,1.4c0,1.2-1.3,2.5-2.3,3.5c0,0,0.3,0,0.6,0h1.8v0.5H34V229.7z M39.1,225.2l-1,0.3l-0.1-0.5l1.3-0.4h0.5v5.3h-0.6
	V225.2z"/>
<g>
	<path class="st1" d="M99,224.7h0.6l1.3,3.6c0.2,0.4,0.2,0.7,0.3,1h0c0.1-0.3,0.2-0.5,0.3-1l1.3-3.6h0.6l0.7,5.3h-0.6l-0.5-3.5
		c0-0.4-0.1-0.6-0.1-0.7h0c-0.1,0.2-0.1,0.4-0.2,0.7l-1.3,3.5H101l-1.3-3.5c-0.1-0.3-0.2-0.6-0.3-0.7h0c0,0.2,0,0.4-0.1,0.8
		l-0.4,3.5h-0.6L99,224.7z"/>
	<path class="st1" d="M105.1,229.1c0-1,1.1-1.3,2-1.3h0.2v-0.4c0-0.6-0.2-0.8-0.8-0.8c-0.4,0-0.7,0.1-1,0.4l-0.3-0.4
		c0.4-0.4,0.8-0.5,1.4-0.5c0.8,0,1.3,0.4,1.3,1.3v1.8c0,0.4,0,0.7,0.1,0.9h-0.6c0-0.1,0-0.3-0.1-0.5c-0.3,0.3-0.7,0.6-1.2,0.6
		C105.6,230.1,105.1,229.7,105.1,229.1z M107.3,229.1v-0.9h-0.2c-0.8,0-1.4,0.2-1.4,0.9c0,0.4,0.3,0.5,0.6,0.5
		C106.8,229.6,107.1,229.4,107.3,229.1z"/>
	<path class="st1" d="M108.7,231.8l0.1-0.5c0.1,0,0.1,0,0.3,0c0.5,0,0.8-0.3,1-0.9l0.2-0.5l-1.4-3.8h0.7l1.1,3.1h0l1.1-3.1h0.6
		l-1.6,4.3c-0.3,0.7-0.6,1.3-1.5,1.3C108.9,231.9,108.8,231.8,108.7,231.8z"/>
	<path class="st1" d="M112.9,227.5h1.6v0.5h-1.6V227.5z"/>
</g>
<path class="st1" d="M115.3,229.7c0.9-0.9,2.5-2.4,2.5-3.6c0-0.7-0.4-1-0.9-1c-0.6,0-0.9,0.3-1.2,0.5l-0.3-0.4
	c0.3-0.4,0.8-0.7,1.5-0.7c0.9,0,1.6,0.5,1.6,1.4c0,1.2-1.3,2.5-2.3,3.5c0,0,0.3,0,0.6,0h1.8v0.5h-3.3V229.7z M120.4,225.2l-1,0.3
	l-0.1-0.5l1.3-0.4h0.5v5.3h-0.6V225.2z"/>
<g>
	<path class="st1" d="M59.4,224.7H60l1.3,3.6c0.2,0.4,0.2,0.7,0.3,1h0c0.1-0.3,0.2-0.5,0.3-1l1.3-3.6h0.6l0.7,5.3H64l-0.5-3.5
		c0-0.4-0.1-0.6-0.1-0.7h0c-0.1,0.2-0.1,0.4-0.2,0.7l-1.3,3.5h-0.6l-1.3-3.5c-0.1-0.3-0.2-0.6-0.3-0.7h0c0,0.2,0,0.4-0.1,0.8
		l-0.4,3.5h-0.6L59.4,224.7z"/>
	<path class="st1" d="M65.5,229.1c0-1,1.1-1.3,2-1.3h0.2v-0.4c0-0.6-0.2-0.8-0.8-0.8c-0.4,0-0.7,0.1-1,0.4l-0.3-0.4
		c0.4-0.4,0.8-0.5,1.4-0.5c0.8,0,1.3,0.4,1.3,1.3v1.8c0,0.4,0,0.7,0.1,0.9h-0.6c0-0.1,0-0.3-0.1-0.5c-0.3,0.3-0.7,0.6-1.2,0.6
		C65.9,230.1,65.5,229.7,65.5,229.1z M67.7,229.1v-0.9h-0.2c-0.8,0-1.4,0.2-1.4,0.9c0,0.4,0.3,0.5,0.6,0.5
		C67.1,229.6,67.4,229.4,67.7,229.1z"/>
	<path class="st1" d="M69.6,226.2h0.6v0.6c0.2-0.3,0.5-0.7,1-0.7c0.2,0,0.4,0.1,0.4,0.1l-0.1,0.6c0,0-0.1-0.1-0.3-0.1
		c-0.6,0-0.9,0.7-0.9,0.8v2.6h-0.6V226.2z"/>
	<path class="st1" d="M72.1,227.5h1.6v0.5h-1.6V227.5z"/>
</g>
<path class="st1" d="M74.5,229.7c0.9-0.9,2.5-2.4,2.5-3.6c0-0.7-0.4-1-0.9-1c-0.6,0-0.9,0.3-1.2,0.5l-0.3-0.4
	c0.3-0.4,0.8-0.7,1.5-0.7c0.9,0,1.6,0.5,1.6,1.4c0,1.2-1.3,2.5-2.3,3.5c0,0,0.3,0,0.6,0h1.8v0.5h-3.3V229.7z M79.6,225.2l-1,0.3
	l-0.1-0.5l1.3-0.4h0.5v5.3h-0.6V225.2z"/>
<g>
	<path class="st1" d="M141,231.5l0.1-0.5c0.1,0,0.2,0.1,0.3,0.1c0.4,0,0.6-0.3,0.6-0.9v-5.3h0.6v5.4c0,0.9-0.4,1.4-1.2,1.4
		C141.2,231.5,141,231.5,141,231.5z"/>
	<path class="st1" d="M144.1,228.9v-2.7h0.6v2.6c0,0.5,0.2,0.8,0.7,0.8c0.6,0,1-0.6,1.1-0.7v-2.7h0.6v3c0,0.3,0,0.7,0.1,0.8h-0.6
		c0-0.1,0-0.4-0.1-0.6c-0.2,0.2-0.6,0.7-1.2,0.7C144.4,230.1,144.1,229.6,144.1,228.9z"/>
	<path class="st1" d="M148.4,224.3h0.6v5.8h-0.6V224.3z"/>
	<path class="st1" d="M150.2,227.5h1.6v0.5h-1.6V227.5z"/>
</g>
<path class="st1" d="M152.6,229.7c0.9-0.9,2.5-2.4,2.5-3.6c0-0.7-0.4-1-0.9-1c-0.6,0-0.9,0.3-1.2,0.5l-0.3-0.4
	c0.3-0.4,0.8-0.7,1.5-0.7c0.9,0,1.6,0.5,1.6,1.4c0,1.2-1.3,2.5-2.3,3.5c0,0,0.3,0,0.6,0h1.8v0.5h-3.3V229.7z M157.7,225.2l-1,0.3
	l-0.1-0.5l1.3-0.4h0.5v5.3h-0.6V225.2z"/>
<g>
	<path class="st1" d="M179.9,229.6l0.3-0.4c0.1,0.1,0.5,0.5,1.2,0.5c0.7,0,1.1-0.4,1.1-0.9c0-0.6-0.6-0.9-1.2-1.2
		c-0.6-0.3-1.2-0.7-1.2-1.5c0-0.9,0.7-1.4,1.6-1.4c0.8,0,1.2,0.3,1.4,0.4l-0.3,0.5c-0.2-0.1-0.5-0.4-1.1-0.4c-0.5,0-0.9,0.3-0.9,0.8
		c0,0.5,0.4,0.8,1,1c0.7,0.3,1.5,0.7,1.5,1.7c0,0.8-0.7,1.4-1.7,1.4C180.6,230.1,180,229.8,179.9,229.6z"/>
	<path class="st1" d="M183.9,228.1c0-1.1,0.7-2,1.7-2c1,0,1.5,0.7,1.5,1.7c0,0.1,0,0.2,0,0.3h-2.6c0,0.8,0.3,1.5,1.2,1.5
		c0.5,0,0.9-0.2,1.1-0.3l0.2,0.5c-0.2,0.1-0.6,0.4-1.3,0.4C184.5,230.1,183.9,229.2,183.9,228.1z M186.5,227.6c0-0.5-0.3-1-0.9-1
		c-0.6,0-1,0.4-1.1,1H186.5z"/>
	<path class="st1" d="M188.2,226.2h0.6v0.4c0.2-0.2,0.6-0.5,1.1-0.5c0.9,0,1.6,0.7,1.6,2c0,1.2-0.7,2-1.7,2c-0.5,0-0.8-0.2-1-0.3v2
		h-0.6V226.2z M190.9,228.1c0-0.9-0.3-1.5-1.1-1.5c-0.5,0-0.9,0.4-1,0.5v2.1c0.2,0.2,0.4,0.4,0.9,0.4
		C190.5,229.6,190.9,229,190.9,228.1z"/>
	<path class="st1" d="M192.3,227.5h1.6v0.5h-1.6V227.5z"/>
</g>
<path class="st1" d="M194.7,229.7c0.9-0.9,2.5-2.4,2.5-3.6c0-0.7-0.4-1-0.9-1c-0.6,0-0.9,0.3-1.2,0.5l-0.3-0.4
	c0.3-0.4,0.8-0.7,1.5-0.7c0.9,0,1.6,0.5,1.6,1.4c0,1.2-1.3,2.5-2.3,3.5c0,0,0.3,0,0.6,0h1.8v0.5h-3.3V229.7z M199.8,225.2l-1,0.3
	l-0.1-0.5l1.3-0.4h0.5v5.3h-0.6V225.2z"/>
<g>
	<path class="st1" d="M220.9,224.7h0.6l2.5,3.6c0.2,0.4,0.4,0.6,0.5,0.8h0c0-0.1,0-0.3,0-0.7v-3.7h0.6v5.3h-0.6l-2.6-3.8
		c-0.2-0.2-0.3-0.5-0.4-0.7h0c0,0.1,0,0.3,0,0.6v3.9h-0.6V224.7z"/>
	<path class="st1" d="M226.2,228.1c0-0.9,0.5-2,1.8-2c1.3,0,1.8,1.1,1.8,2s-0.5,2-1.8,2C226.7,230.1,226.2,229,226.2,228.1z
		 M229.1,228.1c0-0.8-0.4-1.5-1.2-1.5c-0.8,0-1.1,0.7-1.1,1.5c0,0.8,0.4,1.5,1.2,1.5C228.8,229.6,229.1,228.9,229.1,228.1z"/>
	<path class="st1" d="M230.2,226.2h0.6l1.1,3.1h0l1.1-3.1h0.6l-1.4,3.8h-0.5L230.2,226.2z"/>
	<path class="st1" d="M234.3,227.5h1.6v0.5h-1.6V227.5z"/>
</g>
<path class="st1" d="M236.7,229.7c0.9-0.9,2.5-2.4,2.5-3.6c0-0.7-0.4-1-0.9-1c-0.6,0-0.9,0.3-1.2,0.5l-0.3-0.4
	c0.3-0.4,0.8-0.7,1.5-0.7c0.9,0,1.6,0.5,1.6,1.4c0,1.2-1.3,2.5-2.3,3.5c0,0,0.3,0,0.6,0h1.8v0.5h-3.3V229.7z M241.8,225.2l-1,0.3
	l-0.1-0.5l1.3-0.4h0.5v5.3h-0.6V225.2z"/>
<line class="st0" x1="30.5" y1="221.3" x2="30.5" y2="17.1"/>
<line class="st0" x1="109.8" y1="221.3" x2="109.8" y2="217.6"/>
<line class="st0" x1="69.6" y1="221.3" x2="69.6" y2="217.6"/>
<line class="st0" x1="150.1" y1="221.3" x2="150.1" y2="217.6"/>
<line class="st0" x1="190.4" y1="221.3" x2="190.4" y2="217.6"/>
<line class="st0" x1="231.7" y1="221.3" x2="231.7" y2="17.1"/>
<polyline class="st2" points="30,146.6 31.7,158 32.5,162.7 32.9,168.3 33.8,169.3 34.6,169.3 36.3,171.2 37.1,175.9 37.9,183.4 
	38.4,184.4 39.2,185.3 40.9,185.3 41.7,187.2 42.5,189.1 42.9,184.4 43.8,185.3 45.8,173 46.3,171.2 47.1,161.7 47.5,159.8 
	48.3,149.5 50.4,163.6 50.8,158 51.7,162.7 52.1,147.6 52.9,146.6 55,129.7 55.4,136.3 56.2,137.2 56.7,147.6 57.5,141 59.6,137.2 
	60,140 60.8,141 61.2,147.6 62.1,141 64.2,141 64.6,133.4 65.4,121.2 66.2,116.5 66.6,125.9 68.7,126.8 69.1,132.5 70,128.7 
	70.8,133.4 71.2,135.3 73.3,134.4 73.7,137.2 74.6,130.6 75.4,133.4 75.8,126.8 77.9,125.9 78.7,123.1 79.1,125 80,124 80.4,126.8 
	82.5,127.8 83.3,126.8 83.7,123.1 84.5,126.8 85,134.4 87,132.5 87.9,132.5 88.3,133.4 89.1,131.6 89.5,123.1 91.6,120.2 
	92.4,119.3 92.9,115.5 93.7,114.6 94.1,110.8 96.2,101.4 97,98.5 97.4,100.4 98.3,89.1 99.1,99.5 100.8,106.1 101.6,110.8 
	102,108.9 102.8,111.8 103.7,107 105.3,107 106.2,114.6 106.6,115.5 107.4,115.5 108.3,159.8 109.9,129.7 110.7,137.2 111.6,134.4 
	112,128.7 112.8,131.6 114.5,130.6 115.3,128.7 116.2,128.7 116.6,128.7 117.4,130.6 119.5,131.6 119.9,128.7 120.7,123.1 
	121.1,127.8 122,128.7 124.1,125 124.5,121.2 125.3,127.8 125.7,130.6 126.6,137.2 128.6,140 129.1,138.2 129.9,135.3 130.3,134.4 
	131.1,125 133.2,120.2 133.6,117.4 134.5,111.8 134.9,96.7 135.7,101.4 137.8,100.4 138.2,106.1 139,105.1 139.9,111.8 140.3,108.9 
	142.4,102.3 142.8,98.5 143.6,98.5 144.4,103.3 144.9,90.1 146.9,64.6 147.4,39.1 148.2,55.2 149,70.3 149.4,59.9 151.5,64.6 
	152.4,60.8 152.8,66.5 153.6,61.8 154,59.9 156.1,67.4 156.9,76.9 157.3,76.9 158.2,72.1 158.6,68.4 160.7,59.9 161.5,46.7 
	161.9,49.5 162.8,35.4 163.2,28.8 165.2,37.3 166.1,58.9 166.5,58.9 167.3,56.1 167.7,54.2 169.8,56.1 170.7,66.5 171.1,73.1 
	171.9,77.8 172.7,75 174.4,79.7 175.2,87.2 175.6,86.3 176.5,75 177.3,79.7 179,74 179.8,67.4 180.2,59.9 181.1,53.3 181.9,59.9 
	183.6,47.6 184.4,48.6 185.2,48.6 185.6,53.3 186.5,47.6 188.1,48.6 189,53.3 189.8,50.5 190.2,51.4 191,51.4 193.1,40.1 193.5,41 
	194.4,38.2 194.8,56.1 195.6,61.8 197.7,73.1 198.1,65.5 198.9,67.4 199.4,66.5 200.2,75 202.3,79.7 202.7,84.4 203.5,90.1 
	203.9,86.3 204.8,89.1 206.9,89.1 207.3,82.5 208.1,75 208.5,75 209.3,72.1 211.4,67.4 211.8,61.8 212.7,63.7 213.5,65.5 
	213.9,55.2 216,54.2 216.4,54.2 217.3,59.9 218.1,71.2 218.5,74 220.6,71.2 221,78.7 221.8,77.8 222.7,68.4 223.1,69.3 225.2,66.5 
	226,62.7 226.4,62.7 227.2,64.6 227.7,50.5 229.7,51.4 "/>
</svg>
