<?xml version="1.0" encoding="utf-8"?>
<!-- Generator: Adobe Illustrator 26.0.1, SVG Export Plug-In . SVG Version: 6.00 Build 0)  -->
<svg version="1.1" id="Layer_3" xmlns="http://www.w3.org/2000/svg" xmlns:xlink="http://www.w3.org/1999/xlink" x="0px" y="0px"
	 viewBox="0 0 250 250" style="enable-background:new 0 0 250 250;" xml:space="preserve">
<style type="text/css">
	.st0{fill:none;stroke:#BCBEC0;stroke-width:0.5;}
	.st1{fill:#4D4D4F;}
	.st2{fill:#B19E4E;}
	.st3{fill:#5C5B59;}
	.st4{fill:#FFCF01;}
	.st5{fill:#B9B9B9;}
	.st6{fill:#D4C79D;}
	.st7{fill:none;stroke:#D4C79D;stroke-width:1.6;}
	.st8{fill:none;stroke:#FFCF01;stroke-width:1.6;}
	.st9{fill:none;stroke:#B19E4E;stroke-width:1.6;}
	.st10{fill:none;stroke:#B9B9B9;stroke-width:1.6;}
	.st11{fill:none;stroke:#5C5B59;stroke-width:1.6;}
</style>
<line class="st0" x1="29.5" y1="17" x2="233" y2="17"/>
<line class="st0" x1="29.5" y1="86.4" x2="233" y2="86.4"/>
<line class="st0" x1="29.5" y1="51.3" x2="233" y2="51.3"/>
<line class="st0" x1="29.5" y1="120.3" x2="233" y2="120.3"/>
<line class="st0" x1="29.5" y1="153.9" x2="233" y2="153.9"/>
<path class="st1" d="M15.3,14.2l-1,0.3L14.1,14l1.3-0.4h0.5V19h-0.6V14.2z M17.1,16.3c0-1.3,0.5-2.8,2-2.8c1.4,0,2,1.4,2,2.8
	s-0.6,2.8-2,2.8C17.7,19.1,17.1,17.6,17.1,16.3z M20.5,16.3c0-1.3-0.4-2.3-1.4-2.3c-1,0-1.4,1-1.4,2.3s0.4,2.3,1.4,2.3
	C20.1,18.6,20.5,17.6,20.5,16.3z M22,16.3c0-1.3,0.5-2.8,2-2.8c1.4,0,2,1.4,2,2.8s-0.6,2.8-2,2.8C22.5,19.1,22,17.6,22,16.3z
	 M25.3,16.3c0-1.3-0.4-2.3-1.4-2.3c-1,0-1.4,1-1.4,2.3s0.4,2.3,1.4,2.3C24.9,18.6,25.3,17.6,25.3,16.3z"/>
<path class="st1" d="M17.9,52c0-0.7,0.7-1.2,1.1-1.5c-0.5-0.3-1-0.7-1-1.3c0-0.8,0.7-1.3,1.5-1.3c0.9,0,1.5,0.5,1.5,1.3
	c0,0.7-0.6,1-1.1,1.3c0.5,0.3,1.2,0.7,1.2,1.5c0,0.8-0.6,1.4-1.6,1.4C18.4,53.4,17.9,52.8,17.9,52z M20.5,52c0-0.6-0.6-1-1.1-1.2
	c-0.4,0.2-0.9,0.6-0.9,1.2c0,0.5,0.3,0.9,1,0.9C20.2,52.9,20.5,52.5,20.5,52z M20.4,49.2c0-0.4-0.3-0.8-0.8-0.8s-0.9,0.3-0.9,0.8
	c0,0.5,0.5,0.8,0.9,1C20,50,20.4,49.7,20.4,49.2z M22,50.7c0-1.3,0.5-2.8,2-2.8c1.4,0,2,1.4,2,2.8s-0.6,2.8-2,2.8
	C22.5,53.4,22,52,22,50.7z M25.3,50.7c0-1.3-0.4-2.3-1.4-2.3c-1,0-1.4,1-1.4,2.3s0.4,2.3,1.4,2.3C24.9,52.9,25.3,51.9,25.3,50.7z"/>
<path class="st1" d="M17.8,86.7c0-2,1.2-3.3,3.1-3.3l0.1,0.5c-0.8,0-1.4,0.2-1.9,0.6c-0.4,0.4-0.6,0.9-0.7,1.6
	c0.3-0.3,0.7-0.5,1.2-0.5c1,0,1.6,0.7,1.6,1.6s-0.6,1.7-1.7,1.7C18.3,88.9,17.8,87.7,17.8,86.7z M20.6,87.2c0-0.8-0.4-1.2-1.1-1.2
	c-0.5,0-0.8,0.2-1.1,0.5v0.1c0,1.1,0.4,1.8,1.2,1.8C20.3,88.4,20.6,87.8,20.6,87.2z M22,86.2c0-1.3,0.5-2.8,2-2.8c1.4,0,2,1.4,2,2.8
	s-0.6,2.8-2,2.8C22.5,88.9,22,87.5,22,86.2z M25.3,86.2c0-1.3-0.4-2.3-1.4-2.3c-1,0-1.4,1-1.4,2.3s0.4,2.3,1.4,2.3
	C24.9,88.4,25.3,87.4,25.3,86.2z"/>
<path class="st1" d="M20,121.8h-2.5v-0.5l2.4-3.6h0.6v3.6h0.8v0.5h-0.8v1.2H20V121.8z M18.8,121.3H20v-2.7h0l-1.8,2.8
	C18.3,121.3,18.5,121.3,18.8,121.3z M22,120.4c0-1.3,0.5-2.8,2-2.8c1.4,0,2,1.4,2,2.8s-0.6,2.8-2,2.8C22.5,123.1,22,121.7,22,120.4z
	 M25.3,120.4c0-1.3-0.4-2.3-1.4-2.3c-1,0-1.4,1-1.4,2.3s0.4,2.3,1.4,2.3C24.9,122.6,25.3,121.6,25.3,120.4z"/>
<path class="st1" d="M17.8,156.6c0.9-0.9,2.5-2.4,2.5-3.6c0-0.7-0.4-1-0.9-1c-0.6,0-0.9,0.3-1.2,0.5l-0.3-0.4
	c0.3-0.4,0.8-0.7,1.5-0.7c0.9,0,1.6,0.5,1.6,1.4c0,1.2-1.3,2.5-2.3,3.5c0,0,0.3,0,0.6,0h1.8v0.5h-3.3V156.6z M22,154.3
	c0-1.3,0.5-2.8,2-2.8c1.4,0,2,1.4,2,2.8c0,1.3-0.6,2.8-2,2.8C22.5,157,22,155.6,22,154.3z M25.3,154.3c0-1.3-0.4-2.3-1.4-2.3
	c-1,0-1.4,1-1.4,2.3c0,1.3,0.4,2.3,1.4,2.3C24.9,156.5,25.3,155.5,25.3,154.3z"/>
<path class="st1" d="M22,187c0-1.3,0.5-2.8,2-2.8c1.4,0,2,1.4,2,2.8s-0.6,2.8-2,2.8C22.5,189.8,22,188.3,22,187z M25.3,187
	c0-1.3-0.4-2.3-1.4-2.3c-1,0-1.4,1-1.4,2.3s0.4,2.3,1.4,2.3C24.9,189.3,25.3,188.3,25.3,187z"/>
<line class="st0" x1="30.8" y1="187.6" x2="30.8" y2="17.1"/>
<line class="st0" x1="233" y1="188.2" x2="233" y2="17.1"/>
<rect x="223.1" y="51.6" class="st2" width="4.5" height="136.1"/>
<rect x="216.6" y="119.8" class="st3" width="4.5" height="67.9"/>
<rect x="204.4" y="158.8" class="st4" width="4.5" height="29.1"/>
<rect x="197.9" y="170" class="st5" width="4.5" height="17.9"/>
<rect x="210.7" y="145.2" class="st6" width="4.5" height="42.5"/>
<rect x="182.9" y="59.2" class="st2" width="4.5" height="128.5"/>
<rect x="176.4" y="123.5" class="st3" width="4.5" height="64.2"/>
<rect x="164.2" y="161.1" class="st4" width="4.5" height="26.8"/>
<rect x="157.6" y="171.7" class="st5" width="4.5" height="16.2"/>
<rect x="170.4" y="147" class="st6" width="4.5" height="40.7"/>
<rect x="142.6" y="68.7" class="st2" width="4.5" height="119"/>
<rect x="136.1" y="127.3" class="st3" width="4.5" height="60.5"/>
<rect x="123.9" y="162" class="st4" width="4.5" height="25.9"/>
<rect x="117.4" y="171.4" class="st5" width="4.5" height="16.5"/>
<rect x="130.1" y="148" class="st6" width="4.5" height="39.7"/>
<rect x="102.1" y="77.1" class="st2" width="4.5" height="110.6"/>
<rect x="95.6" y="134" class="st3" width="4.5" height="53.7"/>
<rect x="83.4" y="164.3" class="st4" width="4.5" height="23.6"/>
<rect x="76.9" y="171.9" class="st5" width="4.5" height="16"/>
<rect x="89.6" y="149.8" class="st6" width="4.5" height="37.9"/>
<rect x="61.5" y="86.1" class="st2" width="4.5" height="101.6"/>
<rect x="55" y="136.3" class="st3" width="4.5" height="51.4"/>
<rect x="42.8" y="165.5" class="st4" width="4.5" height="22.5"/>
<rect x="36.3" y="172" class="st5" width="4.5" height="15.9"/>
<rect x="49.1" y="151.7" class="st6" width="4.5" height="36"/>
<line class="st0" x1="29.5" y1="187.8" x2="233.6" y2="187.8"/>
<path class="st1" d="M43.6,198.3c0.9-0.9,2.5-2.4,2.5-3.6c0-0.7-0.4-1-0.9-1c-0.6,0-0.9,0.3-1.2,0.5l-0.3-0.4
	c0.3-0.4,0.8-0.7,1.5-0.7c0.9,0,1.6,0.5,1.6,1.4c0,1.2-1.3,2.5-2.3,3.5c0,0,0.3,0,0.6,0h1.8v0.5h-3.3V198.3z M47.7,196
	c0-1.3,0.5-2.8,2-2.8c1.4,0,2,1.4,2,2.8s-0.6,2.8-2,2.8C48.3,198.8,47.7,197.3,47.7,196z M51.1,196c0-1.3-0.4-2.3-1.4-2.3
	c-1,0-1.4,1-1.4,2.3s0.4,2.3,1.4,2.3C50.7,198.3,51.1,197.3,51.1,196z M53.5,193.9l-1,0.3l-0.1-0.5l1.3-0.4h0.5v5.3h-0.6V193.9z
	 M55.4,196.5c0-2,1.2-3.3,3.1-3.3l0.1,0.5c-0.8,0-1.4,0.2-1.9,0.6c-0.4,0.4-0.6,0.9-0.7,1.6c0.3-0.3,0.7-0.5,1.2-0.5
	c1,0,1.6,0.7,1.6,1.6s-0.6,1.7-1.7,1.7C55.9,198.8,55.4,197.6,55.4,196.5z M58.2,197.1c0-0.8-0.4-1.2-1.1-1.2
	c-0.5,0-0.8,0.2-1.1,0.5v0.1c0,1.1,0.4,1.8,1.2,1.8C57.9,198.3,58.2,197.7,58.2,197.1z"/>
<path class="st1" d="M84.4,198.3c0.9-0.9,2.5-2.4,2.5-3.6c0-0.7-0.4-1-0.9-1c-0.6,0-0.9,0.3-1.2,0.5l-0.3-0.4
	c0.3-0.4,0.8-0.7,1.5-0.7c0.9,0,1.6,0.5,1.6,1.4c0,1.2-1.3,2.5-2.3,3.5c0,0,0.3,0,0.6,0h1.8v0.5h-3.3V198.3z M88.5,196
	c0-1.3,0.5-2.8,2-2.8c1.4,0,2,1.4,2,2.8s-0.6,2.8-2,2.8C89.1,198.8,88.5,197.3,88.5,196z M91.9,196c0-1.3-0.4-2.3-1.4-2.3
	c-1,0-1.4,1-1.4,2.3s0.4,2.3,1.4,2.3C91.5,198.3,91.9,197.3,91.9,196z M94.3,193.9l-1,0.3l-0.1-0.5l1.3-0.4h0.5v5.3h-0.6V193.9z
	 M96.5,198.7l1.9-4.8H96v-0.5h3v0.4l-2,5.1L96.5,198.7z"/>
<path class="st1" d="M124.7,198.3c0.9-0.9,2.5-2.4,2.5-3.6c0-0.7-0.4-1-0.9-1c-0.6,0-0.9,0.3-1.2,0.5l-0.3-0.4
	c0.3-0.4,0.8-0.7,1.5-0.7c0.9,0,1.6,0.5,1.6,1.4c0,1.2-1.3,2.5-2.3,3.5c0,0,0.3,0,0.6,0h1.8v0.5h-3.3V198.3z M128.9,196
	c0-1.3,0.5-2.8,2-2.8c1.4,0,2,1.4,2,2.8s-0.6,2.8-2,2.8C129.5,198.8,128.9,197.3,128.9,196z M132.3,196c0-1.3-0.4-2.3-1.4-2.3
	c-1,0-1.4,1-1.4,2.3s0.4,2.3,1.4,2.3C131.8,198.3,132.3,197.3,132.3,196z M134.7,193.9l-1,0.3l-0.1-0.5l1.3-0.4h0.5v5.3h-0.6V193.9z
	 M136.5,197.4c0-0.7,0.7-1.2,1.1-1.5c-0.5-0.3-1-0.7-1-1.3c0-0.8,0.7-1.3,1.5-1.3c0.9,0,1.5,0.5,1.5,1.3c0,0.7-0.6,1-1.1,1.3
	c0.5,0.3,1.2,0.7,1.2,1.5c0,0.8-0.6,1.4-1.6,1.4C137,198.8,136.5,198.1,136.5,197.4z M139.1,197.3c0-0.6-0.6-1-1.1-1.2
	c-0.4,0.2-0.9,0.6-0.9,1.2c0,0.5,0.3,0.9,1,0.9C138.7,198.3,139.1,197.9,139.1,197.3z M139,194.5c0-0.4-0.3-0.8-0.8-0.8
	s-0.9,0.3-0.9,0.8c0,0.5,0.5,0.8,0.9,1C138.5,195.3,139,195,139,194.5z"/>
<path class="st1" d="M164.9,198.3c0.9-0.9,2.5-2.4,2.5-3.6c0-0.7-0.4-1-0.9-1c-0.6,0-0.9,0.3-1.2,0.5l-0.3-0.4
	c0.3-0.4,0.8-0.7,1.5-0.7c0.9,0,1.6,0.5,1.6,1.4c0,1.2-1.3,2.5-2.3,3.5c0,0,0.3,0,0.6,0h1.8v0.5h-3.3V198.3z M169,196
	c0-1.3,0.5-2.8,2-2.8c1.4,0,2,1.4,2,2.8s-0.6,2.8-2,2.8C169.6,198.8,169,197.3,169,196z M172.4,196c0-1.3-0.4-2.3-1.4-2.3
	c-1,0-1.4,1-1.4,2.3s0.4,2.3,1.4,2.3C172,198.3,172.4,197.3,172.4,196z M174.8,193.9l-1,0.3l-0.1-0.5l1.3-0.4h0.5v5.3h-0.6V193.9z
	 M176.9,198.3c0.8,0,1.5-0.2,1.9-0.8c0.3-0.4,0.5-0.8,0.6-1.5c-0.3,0.3-0.7,0.5-1.2,0.5c-1,0-1.6-0.7-1.6-1.6s0.6-1.7,1.7-1.7
	c1.3,0,1.8,1.2,1.8,2.3c0,2-1,3.3-3,3.3L176.9,198.3z M179.4,195.6v-0.1c0-1.1-0.4-1.8-1.2-1.8c-0.7,0-1,0.6-1,1.2
	c0,0.8,0.4,1.2,1.1,1.2C178.8,196.1,179.1,195.9,179.4,195.6z"/>
<path class="st1" d="M204.2,198.3c0.9-0.9,2.5-2.4,2.5-3.6c0-0.7-0.4-1-0.9-1c-0.6,0-0.9,0.3-1.2,0.5l-0.3-0.4
	c0.3-0.4,0.8-0.7,1.5-0.7c0.9,0,1.6,0.5,1.6,1.4c0,1.2-1.3,2.5-2.3,3.5c0,0,0.3,0,0.6,0h1.8v0.5h-3.3V198.3z M208.3,196
	c0-1.3,0.5-2.8,2-2.8c1.4,0,2,1.4,2,2.8s-0.6,2.8-2,2.8C208.9,198.8,208.3,197.3,208.3,196z M211.7,196c0-1.3-0.4-2.3-1.4-2.3
	c-1,0-1.4,1-1.4,2.3s0.4,2.3,1.4,2.3C211.3,198.3,211.7,197.3,211.7,196z M213.1,198.3c0.9-0.9,2.5-2.4,2.5-3.6c0-0.7-0.4-1-0.9-1
	c-0.6,0-0.9,0.3-1.2,0.5l-0.3-0.4c0.3-0.4,0.8-0.7,1.5-0.7c0.9,0,1.6,0.5,1.6,1.4c0,1.2-1.3,2.5-2.3,3.5c0,0,0.3,0,0.6,0h1.8v0.5
	h-3.3V198.3z M217.2,196c0-1.3,0.5-2.8,2-2.8c1.4,0,2,1.4,2,2.8s-0.6,2.8-2,2.8C217.8,198.8,217.2,197.3,217.2,196z M220.6,196
	c0-1.3-0.4-2.3-1.4-2.3c-1,0-1.4,1-1.4,2.3s0.4,2.3,1.4,2.3C220.2,198.3,220.6,197.3,220.6,196z"/>
<g>
	<path class="st1" d="M62.7,206.3H64c2.1,0,3,1.1,3,2.6s-0.9,2.7-3.1,2.7h-1.2V206.3z M64,211.1c1.5,0,2.3-0.8,2.3-2.2
		c0-1.4-0.8-2.1-2.4-2.1h-0.6v4.3H64z"/>
	<path class="st1" d="M67.7,206.6c0-0.2,0.2-0.4,0.4-0.4s0.4,0.2,0.4,0.4c0,0.2-0.2,0.4-0.4,0.4S67.7,206.9,67.7,206.6z M67.9,207.8
		h0.6v3.8h-0.6V207.8z"/>
	<path class="st1" d="M69.3,211.4l0.3-0.4c0.1,0.1,0.5,0.3,1,0.3c0.5,0,0.8-0.2,0.8-0.6s-0.3-0.5-0.8-0.7c-0.6-0.3-1.1-0.5-1.1-1.2
		c0-0.6,0.4-1.1,1.2-1.1c0.6,0,1,0.3,1.1,0.4l-0.3,0.4c-0.1-0.1-0.4-0.3-0.9-0.3c-0.4,0-0.6,0.2-0.6,0.5c0,0.4,0.3,0.5,0.7,0.7
		c0.6,0.3,1.2,0.5,1.2,1.2c0,0.7-0.5,1.1-1.4,1.1C70,211.7,69.6,211.5,69.3,211.4z"/>
	<path class="st1" d="M72.8,207.8h0.6v0.4c0.2-0.2,0.6-0.5,1.1-0.5c0.9,0,1.6,0.7,1.6,2c0,1.2-0.7,2-1.7,2c-0.5,0-0.8-0.2-1-0.3v2
		h-0.6V207.8z M75.4,209.7c0-0.9-0.3-1.5-1.1-1.5c-0.5,0-0.9,0.4-1,0.5v2.1c0.2,0.2,0.4,0.4,0.9,0.4C75,211.2,75.4,210.6,75.4,209.7
		z"/>
	<path class="st1" d="M76.5,209.7c0-0.9,0.5-2,1.8-2c1.3,0,1.8,1.1,1.8,2c0,0.9-0.5,2-1.8,2S76.5,210.6,76.5,209.7z M79.5,209.7
		c0-0.8-0.4-1.5-1.2-1.5c-0.8,0-1.1,0.7-1.1,1.5c0,0.8,0.4,1.5,1.2,1.5S79.5,210.5,79.5,209.7z"/>
	<path class="st1" d="M80.6,211.4l0.3-0.4c0.1,0.1,0.5,0.3,1,0.3c0.5,0,0.8-0.2,0.8-0.6s-0.3-0.5-0.8-0.7c-0.6-0.3-1.1-0.5-1.1-1.2
		c0-0.6,0.4-1.1,1.2-1.1c0.6,0,1,0.3,1.1,0.4l-0.3,0.4c-0.1-0.1-0.4-0.3-0.9-0.3c-0.4,0-0.6,0.2-0.6,0.5c0,0.4,0.3,0.5,0.7,0.7
		c0.6,0.3,1.2,0.5,1.2,1.2c0,0.7-0.5,1.1-1.4,1.1C81.3,211.7,80.8,211.5,80.6,211.4z"/>
	<path class="st1" d="M83.8,210.7c0-1,1.1-1.3,2-1.3H86V209c0-0.6-0.2-0.8-0.8-0.8c-0.4,0-0.7,0.1-1,0.4l-0.3-0.4
		c0.4-0.4,0.8-0.5,1.4-0.5c0.8,0,1.3,0.4,1.3,1.3v1.8c0,0.4,0,0.7,0.1,0.9h-0.6c0-0.1,0-0.3-0.1-0.5c-0.3,0.3-0.7,0.6-1.2,0.6
		C84.2,211.7,83.8,211.3,83.8,210.7z M86,210.7v-0.9h-0.2c-0.8,0-1.4,0.2-1.4,0.9c0,0.4,0.3,0.5,0.6,0.5
		C85.4,211.2,85.8,211,86,210.7z"/>
	<path class="st1" d="M87.7,211.4v-5.6h0.6v2.2c0.2-0.2,0.6-0.4,1-0.4c1,0,1.7,0.8,1.7,2c0,1.2-0.8,2-1.9,2
		C88.4,211.7,87.9,211.6,87.7,211.4z M90.3,209.7c0-0.8-0.3-1.5-1.1-1.5c-0.3,0-0.7,0.2-0.8,0.4v2.5c0.2,0.1,0.4,0.1,0.7,0.1
		C89.8,211.2,90.3,210.5,90.3,209.7z"/>
	<path class="st1" d="M91.7,205.9h0.6v5.8h-0.6V205.9z"/>
	<path class="st1" d="M93.2,209.7c0-1.1,0.7-2,1.7-2c1,0,1.5,0.7,1.5,1.7c0,0.1,0,0.2,0,0.3h-2.6c0,0.8,0.3,1.5,1.2,1.5
		c0.5,0,0.9-0.2,1.1-0.3l0.2,0.5c-0.2,0.1-0.6,0.4-1.3,0.4C93.8,211.7,93.2,210.8,93.2,209.7z M95.8,209.2c0-0.5-0.3-1-0.9-1
		c-0.6,0-1,0.4-1.1,1H95.8z"/>
	<path class="st1" d="M98.8,206.6c0-0.2,0.2-0.4,0.4-0.4c0.2,0,0.4,0.2,0.4,0.4c0,0.2-0.2,0.4-0.4,0.4
		C99,207.1,98.8,206.9,98.8,206.6z M99,207.8h0.6v3.8H99V207.8z"/>
	<path class="st1" d="M100.8,207.8h0.6v0.6c0.3-0.4,0.8-0.6,1.2-0.6c0.8,0,1.1,0.5,1.1,1.2v2.7h-0.6V209c0-0.5-0.2-0.8-0.7-0.8
		c-0.4,0-0.8,0.3-1.1,0.7v2.7h-0.6V207.8z"/>
	<path class="st1" d="M104.5,209.7c0-1.3,0.8-2,1.8-2c0.6,0,1,0.2,1.2,0.4l-0.3,0.4c-0.2-0.2-0.5-0.3-0.9-0.3
		c-0.8,0-1.1,0.7-1.1,1.5c0,0.8,0.4,1.5,1.2,1.5c0.5,0,0.8-0.2,0.9-0.3l0.2,0.4c-0.2,0.1-0.5,0.4-1.2,0.4
		C105.1,211.7,104.5,210.8,104.5,209.7z"/>
	<path class="st1" d="M107.8,209.7c0-0.9,0.5-2,1.8-2s1.8,1.1,1.8,2c0,0.9-0.5,2-1.8,2C108.3,211.7,107.8,210.6,107.8,209.7z
		 M110.8,209.7c0-0.8-0.4-1.5-1.2-1.5s-1.1,0.7-1.1,1.5c0,0.8,0.4,1.5,1.2,1.5C110.4,211.2,110.8,210.5,110.8,209.7z"/>
	<path class="st1" d="M112.2,207.8h0.6v0.5c0.2-0.2,0.5-0.6,1.2-0.6c0.6,0,0.9,0.3,1,0.6c0.3-0.3,0.7-0.6,1.2-0.6
		c0.8,0,1.1,0.5,1.1,1.2v2.7h-0.6V209c0-0.5-0.1-0.8-0.6-0.8c-0.5,0-0.8,0.4-1,0.6v2.8h-0.6V209c0-0.5-0.2-0.8-0.6-0.8
		c-0.6,0-1,0.6-1,0.7v2.7h-0.6V207.8z"/>
	<path class="st1" d="M118.1,209.7c0-1.1,0.7-2,1.7-2c1,0,1.5,0.7,1.5,1.7c0,0.1,0,0.2,0,0.3h-2.6c0,0.8,0.3,1.5,1.2,1.5
		c0.5,0,0.9-0.2,1.1-0.3l0.2,0.5c-0.2,0.1-0.6,0.4-1.3,0.4C118.7,211.7,118.1,210.8,118.1,209.7z M120.7,209.2c0-0.5-0.3-1-0.9-1
		c-0.6,0-1,0.4-1.1,1H120.7z"/>
	<path class="st1" d="M123.8,207.8h0.6v0.4c0.2-0.2,0.6-0.5,1.1-0.5c0.9,0,1.6,0.7,1.6,2c0,1.2-0.7,2-1.7,2c-0.5,0-0.8-0.2-1-0.3v2
		h-0.6V207.8z M126.5,209.7c0-0.9-0.3-1.5-1.1-1.5c-0.5,0-0.9,0.4-1,0.5v2.1c0.2,0.2,0.4,0.4,0.9,0.4
		C126.1,211.2,126.5,210.6,126.5,209.7z"/>
	<path class="st1" d="M127.6,209.7c0-1.1,0.7-2,1.7-2c1,0,1.5,0.7,1.5,1.7c0,0.1,0,0.2,0,0.3h-2.6c0,0.8,0.3,1.5,1.2,1.5
		c0.5,0,0.9-0.2,1.1-0.3l0.2,0.5c-0.2,0.1-0.6,0.4-1.3,0.4C128.2,211.7,127.6,210.8,127.6,209.7z M130.2,209.2c0-0.5-0.3-1-0.9-1
		c-0.6,0-1,0.4-1.1,1H130.2z"/>
	<path class="st1" d="M131.7,207.8h0.6v0.6c0.2-0.3,0.5-0.7,1-0.7c0.2,0,0.4,0.1,0.4,0.1l-0.1,0.6c0,0-0.1-0.1-0.3-0.1
		c-0.6,0-0.9,0.7-0.9,0.8v2.6h-0.6V207.8z"/>
	<path class="st1" d="M135.6,209.7c0-1.3,0.8-2,1.8-2c0.6,0,1,0.2,1.2,0.4l-0.3,0.4c-0.2-0.2-0.5-0.3-0.9-0.3
		c-0.8,0-1.1,0.7-1.1,1.5c0,0.8,0.4,1.5,1.2,1.5c0.5,0,0.8-0.2,0.9-0.3l0.2,0.4c-0.2,0.1-0.5,0.4-1.2,0.4
		C136.2,211.7,135.6,210.8,135.6,209.7z"/>
	<path class="st1" d="M139,210.7c0-1,1.1-1.3,2-1.3h0.2V209c0-0.6-0.2-0.8-0.8-0.8c-0.4,0-0.7,0.1-1,0.4l-0.3-0.4
		c0.4-0.4,0.8-0.5,1.4-0.5c0.8,0,1.3,0.4,1.3,1.3v1.8c0,0.4,0,0.7,0.1,0.9h-0.6c0-0.1,0-0.3-0.1-0.5c-0.3,0.3-0.7,0.6-1.2,0.6
		C139.5,211.7,139,211.3,139,210.7z M141.3,210.7v-0.9h-0.2c-0.8,0-1.4,0.2-1.4,0.9c0,0.4,0.3,0.5,0.6,0.5
		C140.7,211.2,141,211,141.3,210.7z"/>
	<path class="st1" d="M143,207.8h0.6v0.4c0.2-0.2,0.6-0.5,1.1-0.5c0.9,0,1.6,0.7,1.6,2c0,1.2-0.7,2-1.7,2c-0.5,0-0.8-0.2-1-0.3v2
		H143V207.8z M145.6,209.7c0-0.9-0.3-1.5-1.1-1.5c-0.5,0-0.9,0.4-1,0.5v2.1c0.2,0.2,0.4,0.4,0.9,0.4
		C145.2,211.2,145.6,210.6,145.6,209.7z"/>
	<path class="st1" d="M147,206.6c0-0.2,0.2-0.4,0.4-0.4s0.4,0.2,0.4,0.4c0,0.2-0.2,0.4-0.4,0.4S147,206.9,147,206.6z M147.1,207.8
		h0.6v3.8h-0.6V207.8z"/>
	<path class="st1" d="M149.1,210.7v-2.5h-0.6v-0.5h0.6v-1.1h0.6v1.1h1v0.5h-1v2.4c0,0.4,0.1,0.6,0.4,0.6c0.2,0,0.5-0.1,0.5-0.2
		l0.2,0.4c-0.1,0.1-0.4,0.2-0.8,0.2C149.4,211.7,149.1,211.3,149.1,210.7z"/>
	<path class="st1" d="M151.3,210.7c0-1,1.1-1.3,2-1.3h0.2V209c0-0.6-0.2-0.8-0.8-0.8c-0.4,0-0.7,0.1-1,0.4l-0.3-0.4
		c0.4-0.4,0.8-0.5,1.4-0.5c0.8,0,1.3,0.4,1.3,1.3v1.8c0,0.4,0,0.7,0.1,0.9h-0.6c0-0.1,0-0.3-0.1-0.5c-0.3,0.3-0.7,0.6-1.2,0.6
		C151.8,211.7,151.3,211.3,151.3,210.7z M153.5,210.7v-0.9h-0.2c-0.8,0-1.4,0.2-1.4,0.9c0,0.4,0.3,0.5,0.6,0.5
		C152.9,211.2,153.3,211,153.5,210.7z"/>
	<path class="st1" d="M156.7,209.4c0-1.3,0.6-2.6,1.4-3.5h0.6c-0.7,0.7-1.4,1.9-1.4,3.5c0,1.5,0.5,2.7,1.4,3.7h-0.6
		C157.2,212,156.7,210.8,156.7,209.4z"/>
	<path class="st1" d="M159.1,206.6c0-0.2,0.2-0.4,0.4-0.4c0.2,0,0.4,0.2,0.4,0.4c0,0.2-0.2,0.4-0.4,0.4
		C159.3,207.1,159.1,206.9,159.1,206.6z M159.2,207.8h0.6v3.8h-0.6V207.8z"/>
	<path class="st1" d="M161,207.8h0.6v0.6c0.3-0.4,0.8-0.6,1.2-0.6c0.8,0,1.1,0.5,1.1,1.2v2.7h-0.6V209c0-0.5-0.2-0.8-0.7-0.8
		c-0.4,0-0.8,0.3-1.1,0.7v2.7H161V207.8z"/>
	<path class="st1" d="M166.5,206.3h0.8l-0.1,1.8h-0.5L166.5,206.3z"/>
</g>
<path class="st1" d="M167.6,209c0-1.3,0.5-2.8,2-2.8c1.4,0,2,1.4,2,2.8s-0.6,2.8-2,2.8C168.2,211.7,167.6,210.3,167.6,209z M171,209
	c0-1.3-0.4-2.3-1.4-2.3c-1,0-1.4,1-1.4,2.3s0.4,2.3,1.4,2.3C170.6,211.2,171,210.2,171,209z M172.2,209c0-1.3,0.5-2.8,2-2.8
	c1.4,0,2,1.4,2,2.8s-0.6,2.8-2,2.8C172.8,211.7,172.2,210.3,172.2,209z M175.6,209c0-1.3-0.4-2.3-1.4-2.3c-1,0-1.4,1-1.4,2.3
	s0.4,2.3,1.4,2.3C175.2,211.2,175.6,210.2,175.6,209z M176.9,209c0-1.3,0.5-2.8,2-2.8c1.4,0,2,1.4,2,2.8s-0.6,2.8-2,2.8
	C177.4,211.7,176.9,210.3,176.9,209z M180.2,209c0-1.3-0.4-2.3-1.4-2.3c-1,0-1.4,1-1.4,2.3s0.4,2.3,1.4,2.3
	C179.8,211.2,180.2,210.2,180.2,209z"/>
<g>
	<path class="st1" d="M183.5,206.3h1.4c1.1,0,1.8,0.5,1.8,1.4c0,0.9-0.6,1.3-1.5,1.4v0c0.1,0.1,0.2,0.2,0.6,0.7l1.3,1.8h-0.7
		l-1.1-1.5c-0.6-0.9-0.7-0.9-1.1-0.9h-0.1v2.5h-0.6V206.3z M184.9,208.7c0.8,0,1.2-0.3,1.2-0.9c0-0.6-0.4-0.9-1.2-0.9h-0.8v1.8
		H184.9z"/>
	<path class="st1" d="M188.3,206.3h0.6l1.3,3.6c0.2,0.4,0.2,0.7,0.3,1h0c0.1-0.3,0.2-0.5,0.3-1l1.3-3.6h0.6l0.7,5.3h-0.6l-0.5-3.5
		c0-0.4-0.1-0.6-0.1-0.7h0c-0.1,0.2-0.1,0.4-0.2,0.7l-1.3,3.5h-0.6l-1.3-3.5c-0.1-0.3-0.2-0.6-0.3-0.7h0c0,0.2,0,0.4-0.1,0.8
		l-0.4,3.5h-0.6L188.3,206.3z"/>
	<path class="st1" d="M194.6,206.3h1.4c1,0,1.7,0.4,1.7,1.3c0,0.6-0.4,1-1,1.2v0c0.7,0.1,1.2,0.6,1.2,1.3c0,1.1-0.8,1.5-2,1.5h-1.4
		V206.3z M195.9,208.6c0.8,0,1.2-0.3,1.2-0.9c0-0.6-0.4-0.8-1.2-0.8h-0.7v1.8H195.9z M196,211.1c0.9,0,1.4-0.3,1.4-1
		c0-0.6-0.3-1-1.3-1h-0.8v2H196z"/>
	<path class="st1" d="M199.7,209.5c0-1.5-0.5-2.7-1.4-3.7h0.6c0.9,1,1.4,2.3,1.4,3.7c0,1.4-0.6,2.6-1.4,3.5h-0.6
		C198.9,212.4,199.7,211.1,199.7,209.5z"/>
</g>
<g>
	<g>
		<path class="st1" d="M8.8,222.7h1.4c1,0,1.7,0.4,1.7,1.3c0,0.6-0.4,1-1,1.2v0c0.7,0.1,1.2,0.6,1.2,1.3c0,1.1-0.8,1.5-2,1.5H8.8
			V222.7z M10.2,225c0.8,0,1.2-0.3,1.2-0.9c0-0.6-0.4-0.8-1.2-0.8H9.4v1.8H10.2z M10.2,227.5c0.9,0,1.4-0.3,1.4-1c0-0.6-0.3-1-1.3-1
			H9.4v2H10.2z"/>
		<path class="st1" d="M12.8,226.1c0-0.9,0.5-2,1.8-2s1.8,1.1,1.8,2c0,0.9-0.5,2-1.8,2S12.8,227,12.8,226.1z M15.8,226.1
			c0-0.8-0.4-1.5-1.2-1.5c-0.8,0-1.1,0.7-1.1,1.5c0,0.8,0.4,1.5,1.2,1.5S15.8,226.9,15.8,226.1z"/>
		<path class="st1" d="M17.4,227.1v-2.5h-0.6v-0.5h0.6v-1.1H18v1.1h1v0.5h-1v2.4c0,0.4,0.1,0.6,0.4,0.6c0.2,0,0.5-0.1,0.5-0.2
			l0.2,0.4c-0.1,0.1-0.4,0.2-0.8,0.2C17.7,228.1,17.4,227.7,17.4,227.1z"/>
		<path class="st1" d="M20,227.1v-2.5h-0.6v-0.5H20v-1.1h0.6v1.1h1v0.5h-1v2.4c0,0.4,0.1,0.6,0.4,0.6c0.2,0,0.5-0.1,0.5-0.2l0.2,0.4
			c-0.1,0.1-0.4,0.2-0.8,0.2C20.3,228.1,20,227.7,20,227.1z"/>
		<path class="st1" d="M22.1,226.1c0-0.9,0.5-2,1.8-2s1.8,1.1,1.8,2c0,0.9-0.5,2-1.8,2C22.6,228.1,22.1,227,22.1,226.1z M25.1,226.1
			c0-0.8-0.4-1.5-1.2-1.5c-0.8,0-1.1,0.7-1.1,1.5c0,0.8,0.4,1.5,1.2,1.5C24.7,227.6,25.1,226.9,25.1,226.1z"/>
		<path class="st1" d="M26.5,224.2h0.6v0.5c0.2-0.2,0.5-0.6,1.2-0.6c0.6,0,0.9,0.3,1,0.6c0.3-0.3,0.7-0.6,1.2-0.6
			c0.8,0,1.1,0.5,1.1,1.2v2.7H31v-2.6c0-0.5-0.1-0.8-0.6-0.8c-0.5,0-0.8,0.4-1,0.6v2.8h-0.6v-2.6c0-0.5-0.2-0.8-0.6-0.8
			c-0.6,0-1,0.6-1,0.7v2.7h-0.6V224.2z"/>
	</g>
	<path class="st1" d="M34,227.6c0.9-0.9,2.5-2.4,2.5-3.6c0-0.7-0.4-1-0.9-1c-0.6,0-0.9,0.3-1.2,0.5l-0.3-0.4
		c0.3-0.4,0.8-0.7,1.5-0.7c0.9,0,1.6,0.5,1.6,1.4c0,1.2-1.3,2.5-2.3,3.5c0,0,0.3,0,0.6,0h1.8v0.5H34V227.6z M37.9,225.3
		c0-1.3,0.5-2.8,2-2.8c1.4,0,2,1.4,2,2.8s-0.6,2.8-2,2.8C38.4,228.1,37.9,226.6,37.9,225.3z M41.2,225.3c0-1.3-0.4-2.3-1.4-2.3
		c-1,0-1.4,1-1.4,2.3s0.4,2.3,1.4,2.3C40.8,227.6,41.2,226.6,41.2,225.3z M42.4,223.9c0-0.6,0.4-1.3,1.4-1.3c1,0,1.4,0.7,1.4,1.3
		c0,0.6-0.4,1.3-1.4,1.3C42.8,225.3,42.4,224.5,42.4,223.9z M44.6,223.9c0-0.5-0.3-0.9-0.9-0.9s-0.9,0.4-0.9,0.9
		c0,0.5,0.3,0.9,0.9,0.9C44.3,224.8,44.6,224.4,44.6,223.9z M46.8,222.7h0.6L44,228h-0.6L46.8,222.7z M45.7,226.7
		c0-0.6,0.4-1.3,1.4-1.3c1,0,1.4,0.7,1.4,1.3c0,0.6-0.4,1.3-1.4,1.3C46.1,228,45.7,227.3,45.7,226.7z M47.9,226.7
		c0-0.5-0.3-0.9-0.9-0.9s-0.9,0.4-0.9,0.9c0,0.5,0.3,0.9,0.9,0.9C47.6,227.6,47.9,227.2,47.9,226.7z"/>
	<g>
		<path class="st1" d="M139.2,222.7h0.6l1.3,3.6c0.2,0.4,0.2,0.7,0.3,1h0c0.1-0.3,0.2-0.5,0.3-1l1.3-3.6h0.6l0.7,5.3h-0.6l-0.5-3.5
			c0-0.4-0.1-0.6-0.1-0.7h0c-0.1,0.2-0.1,0.4-0.2,0.7l-1.3,3.5h-0.6l-1.3-3.5c-0.1-0.3-0.2-0.6-0.3-0.7h0c0,0.2,0,0.4-0.1,0.8
			L139,228h-0.6L139.2,222.7z"/>
		<path class="st1" d="M145.2,223c0-0.2,0.2-0.4,0.4-0.4c0.2,0,0.4,0.2,0.4,0.4c0,0.2-0.2,0.4-0.4,0.4
			C145.4,223.4,145.2,223.2,145.2,223z M145.3,224.2h0.6v3.8h-0.6V224.2z"/>
		<path class="st1" d="M146.8,226.1c0-1.2,0.7-2,1.7-2c0.4,0,0.7,0.1,1,0.3v-2.2h0.6v5c0,0.3,0,0.6,0.1,0.8h-0.6
			c0-0.1-0.1-0.3-0.1-0.4c-0.3,0.3-0.6,0.5-1.1,0.5C147.5,228.1,146.8,227.4,146.8,226.1z M149.5,227v-2.1c-0.2-0.2-0.5-0.4-0.9-0.4
			c-0.7,0-1.1,0.6-1.1,1.5c0,0.9,0.3,1.5,1.1,1.5C148.8,227.6,149.2,227.4,149.5,227z"/>
		<path class="st1" d="M150.8,226.1c0-1.2,0.7-2,1.7-2c0.4,0,0.7,0.1,1,0.3v-2.2h0.6v5c0,0.3,0,0.6,0.1,0.8h-0.6
			c0-0.1-0.1-0.3-0.1-0.4c-0.3,0.3-0.6,0.5-1.1,0.5C151.5,228.1,150.8,227.4,150.8,226.1z M153.5,227v-2.1c-0.2-0.2-0.5-0.4-0.9-0.4
			c-0.7,0-1.1,0.6-1.1,1.5c0,0.9,0.3,1.5,1.1,1.5C152.9,227.6,153.2,227.4,153.5,227z"/>
		<path class="st1" d="M155.2,222.2h0.6v5.8h-0.6V222.2z"/>
		<path class="st1" d="M156.6,226c0-1.1,0.7-2,1.7-2c1,0,1.5,0.7,1.5,1.7c0,0.1,0,0.2,0,0.3h-2.6c0,0.8,0.3,1.5,1.2,1.5
			c0.5,0,0.9-0.2,1.1-0.3l0.2,0.5c-0.2,0.1-0.6,0.4-1.3,0.4C157.2,228.1,156.6,227.2,156.6,226z M159.3,225.6c0-0.5-0.3-1-0.9-1
			c-0.6,0-1,0.4-1.1,1H159.3z"/>
	</g>
	<path class="st1" d="M161.9,227.6c0.9-0.9,2.5-2.4,2.5-3.6c0-0.7-0.4-1-0.9-1c-0.6,0-0.9,0.3-1.2,0.5l-0.3-0.4
		c0.3-0.4,0.8-0.7,1.5-0.7c0.9,0,1.6,0.5,1.6,1.4c0,1.2-1.3,2.5-2.3,3.5c0,0,0.3,0,0.6,0h1.8v0.5h-3.3V227.6z M165.9,225.3
		c0-1.3,0.5-2.8,2-2.8c1.4,0,2,1.4,2,2.8s-0.6,2.8-2,2.8C166.4,228.1,165.9,226.6,165.9,225.3z M169.2,225.3c0-1.3-0.4-2.3-1.4-2.3
		c-1,0-1.4,1-1.4,2.3s0.4,2.3,1.4,2.3C168.8,227.6,169.2,226.6,169.2,225.3z M170.4,223.9c0-0.6,0.4-1.3,1.4-1.3
		c1,0,1.4,0.7,1.4,1.3c0,0.6-0.4,1.3-1.4,1.3C170.8,225.3,170.4,224.5,170.4,223.9z M172.6,223.9c0-0.5-0.3-0.9-0.9-0.9
		s-0.9,0.4-0.9,0.9c0,0.5,0.3,0.9,0.9,0.9C172.3,224.8,172.6,224.4,172.6,223.9z M174.8,222.7h0.6L172,228h-0.6L174.8,222.7z
		 M173.7,226.7c0-0.6,0.4-1.3,1.4-1.3c1,0,1.4,0.7,1.4,1.3c0,0.6-0.4,1.3-1.4,1.3C174.1,228,173.7,227.3,173.7,226.7z M175.9,226.7
		c0-0.5-0.3-0.9-0.9-0.9s-0.9,0.4-0.9,0.9c0,0.5,0.3,0.9,0.9,0.9C175.6,227.6,175.9,227.2,175.9,226.7z"/>
	<line class="st7" x1="129.8" y1="225.7" x2="135.8" y2="225.7"/>
	<g>
		<path class="st1" d="M63.8,222.7h0.6v4.8h2.1v0.5h-2.7V222.7z"/>
		<path class="st1" d="M66.9,226.1c0-0.9,0.5-2,1.8-2c1.3,0,1.8,1.1,1.8,2c0,0.9-0.5,2-1.8,2S66.9,227,66.9,226.1z M69.8,226.1
			c0-0.8-0.4-1.5-1.2-1.5c-0.8,0-1.1,0.7-1.1,1.5c0,0.8,0.4,1.5,1.2,1.5C69.5,227.6,69.8,226.9,69.8,226.1z"/>
		<path class="st1" d="M70.8,224.2h0.6l0.8,2.9h0l0.9-2.9h0.6l0.9,2.9h0l0.8-2.9H76l-1.2,3.8h-0.5l-1-3h0l-1,3h-0.5L70.8,224.2z"/>
		<path class="st1" d="M76.3,226c0-1.1,0.7-2,1.7-2c1,0,1.5,0.7,1.5,1.7c0,0.1,0,0.2,0,0.3H77c0,0.8,0.3,1.5,1.2,1.5
			c0.5,0,0.9-0.2,1.1-0.3l0.2,0.5c-0.2,0.1-0.6,0.4-1.3,0.4C76.9,228.1,76.3,227.2,76.3,226z M79,225.6c0-0.5-0.3-1-0.9-1
			c-0.6,0-1,0.4-1.1,1H79z"/>
		<path class="st1" d="M80.4,224.2H81v0.6c0.2-0.3,0.5-0.7,1-0.7c0.2,0,0.4,0.1,0.4,0.1l-0.1,0.6c0,0-0.1-0.1-0.3-0.1
			c-0.6,0-0.9,0.7-0.9,0.8v2.6h-0.6V224.2z"/>
		<path class="st1" d="M82.7,225.4h1.6v0.5h-1.6V225.4z"/>
		<path class="st1" d="M85.2,224.2h0.6v0.5c0.2-0.2,0.5-0.6,1.2-0.6c0.6,0,0.9,0.3,1,0.6c0.3-0.3,0.7-0.6,1.2-0.6
			c0.8,0,1.1,0.5,1.1,1.2v2.7h-0.6v-2.6c0-0.5-0.1-0.8-0.6-0.8c-0.5,0-0.8,0.4-1,0.6v2.8h-0.6v-2.6c0-0.5-0.2-0.8-0.6-0.8
			c-0.6,0-1,0.6-1,0.7v2.7h-0.6V224.2z"/>
		<path class="st1" d="M91.3,223c0-0.2,0.2-0.4,0.4-0.4c0.2,0,0.4,0.2,0.4,0.4c0,0.2-0.2,0.4-0.4,0.4
			C91.5,223.4,91.3,223.2,91.3,223z M91.4,224.2H92v3.8h-0.6V224.2z"/>
		<path class="st1" d="M92.9,226.1c0-1.2,0.7-2,1.7-2c0.4,0,0.7,0.1,1,0.3v-2.2h0.6v5c0,0.3,0,0.6,0.1,0.8h-0.6
			c0-0.1-0.1-0.3-0.1-0.4c-0.3,0.3-0.6,0.5-1.1,0.5C93.6,228.1,92.9,227.4,92.9,226.1z M95.6,227v-2.1c-0.2-0.2-0.5-0.4-0.9-0.4
			c-0.7,0-1.1,0.6-1.1,1.5c0,0.9,0.3,1.5,1.1,1.5C94.9,227.6,95.3,227.4,95.6,227z"/>
		<path class="st1" d="M96.9,226.1c0-1.2,0.7-2,1.7-2c0.4,0,0.7,0.1,1,0.3v-2.2h0.6v5c0,0.3,0,0.6,0.1,0.8h-0.6
			c0-0.1-0.1-0.3-0.1-0.4c-0.3,0.3-0.6,0.5-1.1,0.5C97.6,228.1,96.9,227.4,96.9,226.1z M99.6,227v-2.1c-0.2-0.2-0.5-0.4-0.9-0.4
			c-0.7,0-1.1,0.6-1.1,1.5c0,0.9,0.3,1.5,1.1,1.5C99,227.6,99.4,227.4,99.6,227z"/>
		<path class="st1" d="M101.3,222.2h0.6v5.8h-0.6V222.2z"/>
		<path class="st1" d="M102.7,226c0-1.1,0.7-2,1.7-2c1,0,1.5,0.7,1.5,1.7c0,0.1,0,0.2,0,0.3h-2.6c0,0.8,0.3,1.5,1.2,1.5
			c0.5,0,0.9-0.2,1.1-0.3l0.2,0.5c-0.2,0.1-0.6,0.4-1.3,0.4C103.3,228.1,102.7,227.2,102.7,226z M105.4,225.6c0-0.5-0.3-1-0.9-1
			c-0.6,0-1,0.4-1.1,1H105.4z"/>
	</g>
	<path class="st1" d="M108,227.6c0.9-0.9,2.5-2.4,2.5-3.6c0-0.7-0.4-1-0.9-1c-0.6,0-0.9,0.3-1.2,0.5l-0.3-0.4
		c0.3-0.4,0.8-0.7,1.5-0.7c0.9,0,1.6,0.5,1.6,1.4c0,1.2-1.3,2.5-2.3,3.5c0,0,0.3,0,0.6,0h1.8v0.5H108V227.6z M111.9,225.3
		c0-1.3,0.5-2.8,2-2.8c1.4,0,2,1.4,2,2.8s-0.6,2.8-2,2.8C112.5,228.1,111.9,226.6,111.9,225.3z M115.3,225.3c0-1.3-0.4-2.3-1.4-2.3
		c-1,0-1.4,1-1.4,2.3s0.4,2.3,1.4,2.3C114.9,227.6,115.3,226.6,115.3,225.3z M116.4,223.9c0-0.6,0.4-1.3,1.4-1.3
		c1,0,1.4,0.7,1.4,1.3c0,0.6-0.4,1.3-1.4,1.3C116.8,225.3,116.4,224.5,116.4,223.9z M118.7,223.9c0-0.5-0.3-0.9-0.9-0.9
		s-0.9,0.4-0.9,0.9c0,0.5,0.3,0.9,0.9,0.9C118.3,224.8,118.7,224.4,118.7,223.9z M120.9,222.7h0.6l-3.4,5.3h-0.6L120.9,222.7z
		 M119.8,226.7c0-0.6,0.4-1.3,1.4-1.3c1,0,1.4,0.7,1.4,1.3c0,0.6-0.4,1.3-1.4,1.3C120.2,228,119.8,227.3,119.8,226.7z M122,226.7
		c0-0.5-0.3-0.9-0.9-0.9s-0.9,0.4-0.9,0.9c0,0.5,0.3,0.9,0.9,0.9C121.7,227.6,122,227.2,122,226.7z"/>
	<line class="st8" x1="55.2" y1="225.7" x2="61.2" y2="225.7"/>
	<g>
		<path class="st1" d="M8.4,236.3v-3.3h0.6v3.3c0,1.1,0.5,1.6,1.5,1.6c1,0,1.4-0.6,1.4-1.5v-3.4h0.6v3.3c0,1.3-0.6,2.1-2,2.1
			C9,238.3,8.4,237.5,8.4,236.3z"/>
		<path class="st1" d="M13.7,234.4h0.6v0.4c0.2-0.2,0.6-0.5,1.1-0.5c0.9,0,1.6,0.7,1.6,2c0,1.2-0.7,2-1.7,2c-0.5,0-0.8-0.2-1-0.3v2
			h-0.6V234.4z M16.3,236.3c0-0.9-0.3-1.5-1.1-1.5c-0.5,0-0.9,0.4-1,0.5v2.1c0.2,0.2,0.4,0.4,0.9,0.4
			C15.9,237.8,16.3,237.2,16.3,236.3z"/>
		<path class="st1" d="M17.7,234.4h0.6v0.4c0.2-0.2,0.6-0.5,1.1-0.5c0.9,0,1.6,0.7,1.6,2c0,1.2-0.7,2-1.7,2c-0.5,0-0.8-0.2-1-0.3v2
			h-0.6V234.4z M20.4,236.3c0-0.9-0.3-1.5-1.1-1.5c-0.5,0-0.9,0.4-1,0.5v2.1c0.2,0.2,0.4,0.4,0.9,0.4
			C20,237.8,20.4,237.2,20.4,236.3z"/>
		<path class="st1" d="M21.5,236.3c0-1.1,0.7-2,1.7-2c1,0,1.5,0.7,1.5,1.7c0,0.1,0,0.2,0,0.3h-2.6c0,0.8,0.3,1.5,1.2,1.5
			c0.5,0,0.9-0.2,1.1-0.3l0.2,0.5c-0.2,0.1-0.6,0.4-1.3,0.4C22.1,238.3,21.5,237.4,21.5,236.3z M24.1,235.9c0-0.5-0.3-1-0.9-1
			c-0.6,0-1,0.4-1.1,1H24.1z"/>
		<path class="st1" d="M25.6,234.4h0.6v0.6c0.2-0.3,0.5-0.7,1-0.7c0.2,0,0.4,0.1,0.4,0.1l-0.1,0.6c0,0-0.1-0.1-0.3-0.1
			c-0.6,0-0.9,0.7-0.9,0.8v2.6h-0.6V234.4z"/>
		<path class="st1" d="M27.8,235.7h1.6v0.5h-1.6V235.7z"/>
		<path class="st1" d="M30.4,234.4h0.6v0.5c0.2-0.2,0.5-0.6,1.2-0.6c0.6,0,0.9,0.3,1,0.6c0.3-0.3,0.7-0.6,1.2-0.6
			c0.8,0,1.1,0.5,1.1,1.2v2.7h-0.6v-2.6c0-0.5-0.1-0.8-0.6-0.8c-0.5,0-0.8,0.4-1,0.6v2.8h-0.6v-2.6c0-0.5-0.2-0.8-0.6-0.8
			c-0.6,0-1,0.6-1,0.7v2.7h-0.6V234.4z"/>
		<path class="st1" d="M36.5,233.3c0-0.2,0.2-0.4,0.4-0.4c0.2,0,0.4,0.2,0.4,0.4c0,0.2-0.2,0.4-0.4,0.4
			C36.6,233.7,36.5,233.5,36.5,233.3z M36.6,234.4h0.6v3.8h-0.6V234.4z"/>
		<path class="st1" d="M38.1,236.3c0-1.2,0.7-2,1.7-2c0.4,0,0.7,0.1,1,0.3v-2.2h0.6v5c0,0.3,0,0.6,0.1,0.8h-0.6
			c0-0.1-0.1-0.3-0.1-0.4c-0.3,0.3-0.6,0.5-1.1,0.5C38.7,238.3,38.1,237.6,38.1,236.3z M40.7,237.3v-2.1c-0.2-0.2-0.5-0.4-0.9-0.4
			c-0.7,0-1.1,0.6-1.1,1.5c0,0.9,0.3,1.5,1.1,1.5C40.1,237.8,40.5,237.6,40.7,237.3z"/>
		<path class="st1" d="M42.1,236.3c0-1.2,0.7-2,1.7-2c0.4,0,0.7,0.1,1,0.3v-2.2h0.6v5c0,0.3,0,0.6,0.1,0.8h-0.6
			c0-0.1-0.1-0.3-0.1-0.4c-0.3,0.3-0.6,0.5-1.1,0.5C42.7,238.3,42.1,237.6,42.1,236.3z M44.7,237.3v-2.1c-0.2-0.2-0.5-0.4-0.9-0.4
			c-0.7,0-1.1,0.6-1.1,1.5c0,0.9,0.3,1.5,1.1,1.5C44.1,237.8,44.5,237.6,44.7,237.3z"/>
		<path class="st1" d="M46.5,232.5H47v5.8h-0.6V232.5z"/>
		<path class="st1" d="M47.9,236.3c0-1.1,0.7-2,1.7-2c1,0,1.5,0.7,1.5,1.7c0,0.1,0,0.2,0,0.3h-2.6c0,0.8,0.3,1.5,1.2,1.5
			c0.5,0,0.9-0.2,1.1-0.3L51,238c-0.2,0.1-0.6,0.4-1.3,0.4C48.5,238.3,47.9,237.4,47.9,236.3z M50.5,235.9c0-0.5-0.3-1-0.9-1
			c-0.6,0-1,0.4-1.1,1H50.5z"/>
	</g>
	<path class="st1" d="M53.2,237.9c0.9-0.9,2.5-2.4,2.5-3.6c0-0.7-0.4-1-0.9-1c-0.6,0-0.9,0.3-1.2,0.5l-0.3-0.4
		c0.3-0.4,0.8-0.7,1.5-0.7c0.9,0,1.6,0.5,1.6,1.4c0,1.2-1.3,2.5-2.3,3.5c0,0,0.3,0,0.6,0h1.8v0.5h-3.3V237.9z M57.1,235.6
		c0-1.3,0.5-2.8,2-2.8c1.4,0,2,1.4,2,2.8s-0.6,2.8-2,2.8C57.6,238.3,57.1,236.9,57.1,235.6z M60.5,235.6c0-1.3-0.4-2.3-1.4-2.3
		c-1,0-1.4,1-1.4,2.3s0.4,2.3,1.4,2.3C60,237.8,60.5,236.8,60.5,235.6z M61.6,234.2c0-0.6,0.4-1.3,1.4-1.3c1,0,1.4,0.7,1.4,1.3
		c0,0.6-0.4,1.3-1.4,1.3C62,235.5,61.6,234.8,61.6,234.2z M63.8,234.2c0-0.5-0.3-0.9-0.9-0.9s-0.9,0.4-0.9,0.9
		c0,0.5,0.3,0.9,0.9,0.9C63.5,235.1,63.8,234.7,63.8,234.2z M66.1,232.9h0.6l-3.4,5.3h-0.6L66.1,232.9z M64.9,237
		c0-0.6,0.4-1.3,1.4-1.3c1,0,1.4,0.7,1.4,1.3c0,0.6-0.4,1.3-1.4,1.3C65.3,238.3,64.9,237.6,64.9,237z M67.2,237
		c0-0.5-0.3-0.9-0.9-0.9s-0.9,0.4-0.9,0.9c0,0.5,0.3,0.9,0.9,0.9C66.8,237.9,67.2,237.5,67.2,237z"/>
	<g>
		<path class="st1" d="M85.1,233.5h-1.5v-0.5h3.7v0.5h-1.5v4.8h-0.6V233.5z"/>
		<path class="st1" d="M87.1,236.3c0-0.9,0.5-2,1.8-2s1.8,1.1,1.8,2c0,0.9-0.5,2-1.8,2C87.6,238.3,87.1,237.2,87.1,236.3z M90,236.3
			c0-0.8-0.4-1.5-1.2-1.5c-0.8,0-1.1,0.7-1.1,1.5c0,0.8,0.4,1.5,1.2,1.5C89.7,237.8,90,237.2,90,236.3z"/>
		<path class="st1" d="M91.5,234.4h0.6v0.4c0.2-0.2,0.6-0.5,1.1-0.5c0.9,0,1.6,0.7,1.6,2c0,1.2-0.7,2-1.7,2c-0.5,0-0.8-0.2-1-0.3v2
			h-0.6V234.4z M94.1,236.3c0-0.9-0.3-1.5-1.1-1.5c-0.5,0-0.9,0.4-1,0.5v2.1c0.2,0.2,0.4,0.4,0.9,0.4
			C93.7,237.8,94.1,237.2,94.1,236.3z"/>
	</g>
	<path class="st1" d="M96.8,237.9c0.9-0.9,2.5-2.4,2.5-3.6c0-0.7-0.4-1-0.9-1c-0.6,0-0.9,0.3-1.2,0.5l-0.3-0.4
		c0.3-0.4,0.8-0.7,1.5-0.7c0.9,0,1.6,0.5,1.6,1.4c0,1.2-1.3,2.5-2.3,3.5c0,0,0.3,0,0.6,0h1.8v0.5h-3.3V237.9z M100.7,235.6
		c0-1.3,0.5-2.8,2-2.8c1.4,0,2,1.4,2,2.8s-0.6,2.8-2,2.8C101.3,238.3,100.7,236.9,100.7,235.6z M104.1,235.6c0-1.3-0.4-2.3-1.4-2.3
		c-1,0-1.4,1-1.4,2.3s0.4,2.3,1.4,2.3C103.7,237.8,104.1,236.8,104.1,235.6z M105.2,234.2c0-0.6,0.4-1.3,1.4-1.3
		c1,0,1.4,0.7,1.4,1.3c0,0.6-0.4,1.3-1.4,1.3C105.6,235.5,105.2,234.8,105.2,234.2z M107.5,234.2c0-0.5-0.3-0.9-0.9-0.9
		s-0.9,0.4-0.9,0.9c0,0.5,0.3,0.9,0.9,0.9C107.1,235.1,107.5,234.7,107.5,234.2z M109.7,232.9h0.6l-3.4,5.3h-0.6L109.7,232.9z
		 M108.6,237c0-0.6,0.4-1.3,1.4-1.3c1,0,1.4,0.7,1.4,1.3c0,0.6-0.4,1.3-1.4,1.3C109,238.3,108.6,237.6,108.6,237z M110.8,237
		c0-0.5-0.3-0.9-0.9-0.9s-0.9,0.4-0.9,0.9c0,0.5,0.3,0.9,0.9,0.9C110.5,237.9,110.8,237.5,110.8,237z"/>
	<line class="st9" x1="75.6" y1="236" x2="81.6" y2="236"/>
	<line class="st10" x1="0" y1="225.8" x2="6" y2="225.8"/>
	<line class="st11" x1="0" y1="236" x2="6" y2="236"/>
</g>
</svg>
