<?xml version="1.0" encoding="utf-8"?>
<!-- Generator: Adobe Illustrator 26.0.1, SVG Export Plug-In . SVG Version: 6.00 Build 0)  -->
<svg version="1.1" id="Layer_3" xmlns="http://www.w3.org/2000/svg" xmlns:xlink="http://www.w3.org/1999/xlink" x="0px" y="0px"
	 viewBox="0 0 250 250" style="enable-background:new 0 0 250 250;" xml:space="preserve">
<style type="text/css">
	.st0{fill:#4D4D4F;}
	.st1{fill:#B19E4E;}
	.st2{fill:none;stroke:#BCBEC0;stroke-width:0.5;}
</style>
<g>
	<path class="st0" d="M87,198.6h0.6l1.3,3.6c0.2,0.4,0.2,0.7,0.3,1l0,0c0.1-0.3,0.2-0.5,0.3-1l1.3-3.6h0.6l0.7,5.3h-0.6l-0.5-3.5
		c0-0.4-0.1-0.6-0.1-0.7l0,0c-0.1,0.2-0.1,0.4-0.2,0.7l-1.3,3.5h-0.6l-1.3-3.5c-0.1-0.3-0.2-0.6-0.3-0.7l0,0c0,0.2,0,0.4-0.1,0.8
		l-0.4,3.5h-0.6L87,198.6z"/>
	<path class="st0" d="M93,202c0-0.9,0.5-2,1.8-2s1.8,1.1,1.8,2s-0.5,2-1.8,2C93.4,204,93,202.9,93,202z M95.9,202
		c0-0.8-0.4-1.5-1.2-1.5s-1.1,0.7-1.1,1.5s0.4,1.5,1.2,1.5S95.9,202.8,95.9,202z"/>
	<path class="st0" d="M97.2,202c0-1.2,0.7-2,1.7-2c0.4,0,0.7,0.1,1,0.3v-2.2h0.6v5c0,0.3,0,0.6,0.1,0.8H100c0-0.1-0.1-0.3-0.1-0.4
		c-0.3,0.3-0.6,0.5-1.1,0.5C97.9,204,97.2,203.3,97.2,202z M99.9,202.9v-2.1c-0.2-0.2-0.5-0.4-0.9-0.4c-0.7,0-1.1,0.6-1.1,1.5
		s0.3,1.5,1.1,1.5C99.2,203.5,99.6,203.3,99.9,202.9z"/>
	<path class="st0" d="M101.6,198.9c0-0.2,0.2-0.4,0.4-0.4c0.2,0,0.4,0.2,0.4,0.4s-0.2,0.4-0.4,0.4
		C101.8,199.3,101.6,199.1,101.6,198.9z M101.8,200.1h0.6v3.8h-0.6V200.1z"/>
	<path class="st0" d="M103.9,200.5h-0.6V200h0.6v-0.5c0-0.9,0.5-1.5,1.5-1.5c0.7,0,1,0.2,1.2,0.4l-0.3,0.5c-0.2-0.1-0.5-0.3-1-0.3
		c-0.6,0-0.9,0.4-0.9,1v0.5h2.2v3.8H106v-3.4h-1.6v3.4h-0.6L103.9,200.5L103.9,200.5z"/>
	<path class="st0" d="M107.7,201.9c0-1.1,0.7-2,1.7-2s1.5,0.7,1.5,1.7c0,0.1,0,0.2,0,0.3h-2.6c0,0.8,0.3,1.5,1.2,1.5
		c0.5,0,0.9-0.2,1.1-0.3l0.2,0.5c-0.2,0.1-0.6,0.4-1.3,0.4C108.3,204,107.7,203.1,107.7,201.9z M110.3,201.5c0-0.5-0.3-1-0.9-1
		s-1,0.4-1.1,1H110.3z"/>
	<path class="st0" d="M111.6,202c0-1.2,0.7-2,1.7-2c0.4,0,0.7,0.1,1,0.3v-2.2h0.6v5c0,0.3,0,0.6,0.1,0.8h-0.6c0-0.1-0.1-0.3-0.1-0.4
		c-0.3,0.3-0.6,0.5-1.1,0.5C112.3,204,111.6,203.3,111.6,202z M114.3,202.9v-2.1c-0.2-0.2-0.5-0.4-0.9-0.4c-0.7,0-1.1,0.6-1.1,1.5
		s0.3,1.5,1.1,1.5C113.6,203.5,114,203.3,114.3,202.9z"/>
	<path class="st0" d="M118,198.6h1.2c2.1,0,3,1.1,3,2.6s-0.9,2.7-3.1,2.7H118V198.6z M119.3,203.4c1.5,0,2.3-0.8,2.3-2.2
		s-0.8-2.1-2.4-2.1h-0.6v4.3H119.3z"/>
	<path class="st0" d="M123.3,202.8v-2.7h0.6v2.6c0,0.5,0.2,0.8,0.7,0.8c0.6,0,1-0.6,1.1-0.7v-2.7h0.6v3c0,0.3,0,0.7,0.1,0.8h-0.6
		c0-0.1,0-0.4-0.1-0.6c-0.2,0.2-0.6,0.7-1.2,0.7C123.6,204,123.3,203.4,123.3,202.8z"/>
	<path class="st0" d="M127.6,200.1h0.6v0.6c0.2-0.3,0.5-0.7,1-0.7c0.2,0,0.4,0.1,0.4,0.1l-0.1,0.6c0,0-0.1-0.1-0.3-0.1
		c-0.6,0-0.9,0.7-0.9,0.8v2.6h-0.6L127.6,200.1L127.6,200.1z"/>
	<path class="st0" d="M130,203c0-1,1.1-1.3,2-1.3h0.2v-0.4c0-0.6-0.2-0.8-0.8-0.8c-0.4,0-0.7,0.1-1,0.4l-0.3-0.4
		c0.4-0.4,0.8-0.5,1.4-0.5c0.8,0,1.3,0.4,1.3,1.3v1.8c0,0.4,0,0.7,0.1,0.9h-0.6c0-0.1,0-0.3-0.1-0.5c-0.3,0.3-0.7,0.6-1.2,0.6
		C130.5,204,130,203.6,130,203z M132.2,202.9V202H132c-0.8,0-1.4,0.2-1.4,0.9c0,0.4,0.3,0.5,0.6,0.5
		C131.6,203.5,132,203.3,132.2,202.9z"/>
	<path class="st0" d="M134.2,203v-2.5h-0.6V200h0.6v-1h0.6v1.1h1v0.5h-1v2.4c0,0.4,0.1,0.6,0.4,0.6c0.2,0,0.5-0.1,0.5-0.2l0.2,0.4
		c-0.1,0.1-0.4,0.2-0.8,0.2C134.6,204,134.2,203.6,134.2,203z"/>
	<path class="st0" d="M136.8,198.9c0-0.2,0.2-0.4,0.4-0.4s0.4,0.2,0.4,0.4s-0.2,0.4-0.4,0.4C137,199.3,136.8,199.1,136.8,198.9z
		 M136.9,200.1h0.6v3.8h-0.6V200.1z"/>
	<path class="st0" d="M138.5,202c0-0.9,0.5-2,1.8-2s1.8,1.1,1.8,2s-0.5,2-1.8,2S138.5,202.9,138.5,202z M141.5,202
		c0-0.8-0.4-1.5-1.2-1.5s-1.1,0.7-1.1,1.5s0.4,1.5,1.2,1.5C141.1,203.5,141.5,202.8,141.5,202z"/>
	<path class="st0" d="M143.1,200.1h0.6v0.6c0.3-0.4,0.8-0.6,1.2-0.6c0.8,0,1.1,0.5,1.1,1.2v2.7h-0.6v-2.6c0-0.5-0.2-0.8-0.7-0.8
		c-0.4,0-0.8,0.3-1.1,0.7v2.7H143v-3.9L143.1,200.1L143.1,200.1z"/>
</g>
<g>
	<path class="st0" d="M149,202.1c0-1.1,0.5-2.1,1.2-2.8h0.4c-0.5,0.6-1.1,1.5-1.1,2.8c0,1.2,0.4,2.1,1.1,2.9h-0.4
		C149.5,204.2,149,203.2,149,202.1z"/>
	<path class="st0" d="M151,205.3l0.1-0.4c0,0,0.1,0,0.2,0c0.4,0,0.6-0.2,0.8-0.7l0.1-0.4l-1.2-3.1h0.5l0.9,2.5l0,0l0.9-2.5h0.5
		l-1.3,3.5c-0.2,0.6-0.5,1.1-1.2,1.1C151.1,205.4,151,205.4,151,205.3z"/>
	<path class="st0" d="M154.2,202.3c0-0.9,0.6-1.6,1.4-1.6c0.8,0,1.2,0.5,1.2,1.4c0,0.1,0,0.1,0,0.2h-2.1c0,0.7,0.3,1.2,1,1.2
		c0.4,0,0.7-0.2,0.9-0.3l0.2,0.4c-0.2,0.1-0.5,0.3-1.1,0.3C154.7,204,154.2,203.2,154.2,202.3z M156.3,202c0-0.4-0.2-0.8-0.7-0.8
		s-0.8,0.3-0.8,0.8H156.3z"/>
	<path class="st0" d="M157.4,203.1c0-0.8,0.9-1.1,1.6-1.1h0.1v-0.3c0-0.5-0.2-0.6-0.6-0.6c-0.3,0-0.5,0.1-0.8,0.3l-0.2-0.3
		c0.3-0.3,0.7-0.4,1.1-0.4c0.7,0,1,0.3,1,1v1.4c0,0.3,0,0.6,0.1,0.7h-0.5c0-0.1,0-0.3,0-0.4c-0.2,0.3-0.5,0.4-0.9,0.4
		C157.8,204,157.4,203.6,157.4,203.1z M159.2,203.1v-0.7H159c-0.7,0-1.1,0.2-1.1,0.7c0,0.3,0.3,0.4,0.5,0.4
		C158.7,203.6,159,203.4,159.2,203.1z"/>
	<path class="st0" d="M160.7,200.8h0.5v0.5c0.1-0.2,0.4-0.6,0.8-0.6c0.2,0,0.3,0,0.3,0.1l-0.1,0.4c0,0-0.1-0.1-0.3-0.1
		c-0.5,0-0.7,0.5-0.8,0.6v2.1h-0.5v-3H160.7z"/>
	<path class="st0" d="M162.7,203.7l0.2-0.4c0.1,0.1,0.4,0.2,0.8,0.2c0.4,0,0.6-0.2,0.6-0.4c0-0.3-0.2-0.4-0.7-0.6
		c-0.5-0.2-0.8-0.4-0.8-0.9s0.4-0.8,1-0.8c0.5,0,0.8,0.2,0.9,0.3l-0.2,0.3c-0.1-0.1-0.3-0.2-0.7-0.2c-0.3,0-0.5,0.2-0.5,0.4
		c0,0.3,0.2,0.4,0.6,0.6c0.5,0.2,1,0.4,1,0.9c0,0.6-0.4,0.9-1.1,0.9C163.3,204,162.9,203.8,162.7,203.7z"/>
	<path class="st0" d="M166.3,202.2c0-1.2-0.4-2.1-1.1-2.9h0.4c0.7,0.8,1.2,1.8,1.2,2.9c0,1.1-0.5,2.1-1.2,2.8h-0.4
		C165.7,204.5,166.3,203.5,166.3,202.2z"/>
</g>
<g>
	<path class="st0" d="M1.6,224.8h0.6l1.8,3.7c0.1,0.3,0.2,0.6,0.3,0.8l0,0c0-0.2,0.1-0.5,0.1-0.8l0.6-3.7h0.6l-0.9,5.3H4.2l-1.8-3.8
		c-0.1-0.2-0.2-0.4-0.3-0.7l0,0c0,0.2-0.1,0.4-0.1,0.8l-0.7,3.8H0.7L1.6,224.8z"/>
	<path class="st0" d="M6,228.6c0-1.2,0.8-2.4,2-2.4c0.9,0,1.4,0.8,1.4,1.6c0,1.3-0.8,2.5-2,2.5C6.4,230.2,6,229.4,6,228.6z
		 M8.8,227.8c0-0.8-0.3-1.2-0.8-1.2c-0.8,0-1.4,1-1.4,1.9c0,0.7,0.3,1.1,0.8,1.1C8.2,229.7,8.8,228.7,8.8,227.8z"/>
	<path class="st0" d="M10.1,229.5c0-0.1,0-0.2,0-0.4l0.4-2.4H9.9l0.1-0.5h0.7l0.2-1.1l0.6-0.1l-0.2,1.2h0.9l-0.1,0.5h-1l-0.4,2.3
		c0,0.2-0.1,0.3-0.1,0.4c0,0.2,0.1,0.3,0.2,0.3c0.3,0,0.5-0.2,0.7-0.4l0.3,0.4c-0.3,0.2-0.6,0.5-1.1,0.5
		C10.4,230.2,10.1,230,10.1,229.5z"/>
	<path class="st0" d="M12.5,228.8c0-1.4,0.9-2.6,2.1-2.6c0.6,0,1,0.3,1,0.9c0,1-1.2,1.4-2.5,1.5v0.2c0,0.6,0.3,0.9,0.8,0.9
		c0.4,0,0.8-0.2,1-0.5l0.3,0.4c-0.2,0.2-0.7,0.6-1.4,0.6C12.9,230.2,12.5,229.6,12.5,228.8z M13.1,228.1c1-0.1,1.8-0.5,1.8-1
		c0-0.3-0.2-0.4-0.5-0.4C13.9,226.7,13.3,227.3,13.1,228.1z"/>
	<path class="st0" d="M15.8,229.7c0-0.3,0.2-0.5,0.5-0.5s0.5,0.2,0.5,0.5s-0.2,0.5-0.5,0.5C16.1,230.2,15.8,230,15.8,229.7z
		 M16.3,226.7c0-0.3,0.2-0.5,0.5-0.5s0.5,0.2,0.5,0.5s-0.2,0.5-0.5,0.5C16.6,227.2,16.3,227,16.3,226.7z"/>
	<path class="st0" d="M20.5,224.8h1.2c1.8,0,2.6,0.8,2.6,2.1c0,1.7-1.1,3.3-3.3,3.3h-1.4L20.5,224.8z M21.1,229.6
		c1.6,0,2.5-1.2,2.5-2.7c0-1.1-0.6-1.6-2-1.6H21l-0.8,4.3H21.1z"/>
	<path class="st0" d="M24.7,229c0-1.4,0.8-2.9,2.3-2.9c0.6,0,0.9,0.1,1.1,0.2l-0.4,2.1c-0.2,1.1-0.2,1.7-0.2,1.7h-0.6
		c0.1-0.4,0.1-0.8,0.2-1.2l0,0c-0.3,0.6-0.7,1.3-1.4,1.3C25,230.2,24.7,229.7,24.7,229z M27.3,227.1l0.1-0.4c-0.1,0-0.3-0.1-0.5-0.1
		c-1,0-1.6,1.1-1.6,2.3c0,0.5,0.2,0.7,0.5,0.7C26.5,229.7,27.2,228.3,27.3,227.1z"/>
	<path class="st0" d="M28.8,229.5c0-0.1,0-0.2,0-0.4l0.4-2.4h-0.7l0.1-0.5h0.7l0.2-1.1l0.6-0.1l-0.2,1.2h0.9l-0.1,0.5h-1l-0.4,2.3
		c0,0.2-0.1,0.3-0.1,0.4c0,0.2,0.1,0.3,0.2,0.3c0.3,0,0.5-0.2,0.7-0.4l0.3,0.4c-0.3,0.2-0.6,0.5-1.1,0.5
		C29,230.2,28.8,230,28.8,229.5z"/>
	<path class="st0" d="M31.2,229c0-1.4,0.8-2.9,2.3-2.9c0.6,0,0.9,0.1,1.1,0.2l-0.4,2.1c-0.2,1.1-0.2,1.7-0.2,1.7h-0.6
		c0.1-0.4,0.1-0.8,0.2-1.2l0,0c-0.3,0.6-0.7,1.3-1.4,1.3C31.5,230.2,31.2,229.7,31.2,229z M33.8,227.1l0.1-0.4
		c-0.1,0-0.3-0.1-0.5-0.1c-1,0-1.6,1.1-1.6,2.3c0,0.5,0.2,0.7,0.5,0.7C32.9,229.7,33.6,228.3,33.8,227.1z"/>
	<path class="st0" d="M35.5,231.8l0.2-0.5c0.1,0.1,0.3,0.1,0.5,0.1c0.5,0,0.7-0.5,0.8-1l0.7-3.7h-0.8l0.1-0.5h0.8l0.1-0.6
		c0.2-0.9,0.6-1.4,1.5-1.4c0.4,0,0.8,0.2,0.9,0.2L40,225c-0.1-0.1-0.4-0.2-0.7-0.2c-0.6,0-0.8,0.4-0.9,0.9l-0.1,0.6h0.9l-0.1,0.5h-1
		l-0.7,3.8c-0.2,1-0.5,1.5-1.4,1.5C35.9,232,35.7,231.9,35.5,231.8z"/>
	<path class="st0" d="M39.3,228.6c0-1.2,0.8-2.4,2-2.4c0.9,0,1.4,0.8,1.4,1.6c0,1.3-0.8,2.5-2,2.5C39.7,230.2,39.3,229.4,39.3,228.6
		z M42,227.8c0-0.8-0.3-1.2-0.8-1.2c-0.8,0-1.4,1-1.4,1.9c0,0.7,0.3,1.1,0.8,1.1C41.5,229.7,42,228.7,42,227.8z"/>
	<path class="st0" d="M43.8,226.3h0.6c-0.1,0.4-0.2,1-0.3,1.3l0,0c0.3-0.6,0.8-1.4,1.4-1.4c0.2,0,0.3,0,0.4,0.1l-0.2,0.6
		c-0.1,0-0.1,0-0.2,0c-0.7,0-1.3,1-1.7,2.9l-0.1,0.4h-0.6L43.8,226.3z"/>
	<path class="st0" d="M48.1,228.6c0-0.2,0-0.3,0-0.5l0.6-3.3h0.6l-0.6,3.3c0,0.2-0.1,0.4-0.1,0.5c0,0.8,0.4,1.1,1.2,1.1
		c1,0,1.5-0.5,1.6-1.6l0.6-3.3h0.6l-0.6,3.4c-0.2,1.2-0.9,2-2.3,2C48.7,230.2,48.1,229.6,48.1,228.6z"/>
	<path class="st0" d="M52.9,229.7c0-0.3,0.2-0.5,0.5-0.5s0.5,0.2,0.5,0.5s-0.2,0.5-0.5,0.5C53.1,230.2,52.9,230,52.9,229.7z"/>
	<path class="st0" d="M54.4,229.6l0.4-0.4c0.2,0.2,0.6,0.5,1.3,0.5s1-0.4,1-0.9s-0.3-0.8-0.8-1.2c-0.5-0.5-1-0.9-1-1.5
		c0-0.9,0.7-1.3,1.5-1.3c0.7,0,1.1,0.3,1.3,0.4l-0.3,0.5c-0.2-0.2-0.5-0.4-1-0.4c-0.6,0-0.9,0.3-0.9,0.8c0,0.4,0.3,0.7,0.8,1.1
		c0.5,0.5,1,0.9,1,1.6c0,0.7-0.5,1.4-1.6,1.4C55.1,230.2,54.6,229.8,54.4,229.6z"/>
	<path class="st0" d="M58.3,229.7c0-0.3,0.2-0.5,0.5-0.5s0.5,0.2,0.5,0.5s-0.2,0.5-0.5,0.5S58.3,230,58.3,229.7z"/>
	<path class="st0" d="M63,224.8h0.6l-0.4,2.3h3l0.4-2.3h0.6l-1,5.3h-0.6l0.5-2.5h-3l-0.5,2.5H62L63,224.8z"/>
	<path class="st0" d="M69.2,228.1l-1.2-3.3h0.6l1,2.7l0,0l1.8-2.7H72l-2.3,3.3l-0.4,2h-0.6L69.2,228.1z"/>
	<path class="st0" d="M70.9,231c0.2-0.2,0.4-0.4,0.4-0.7s-0.2-0.4-0.2-0.7s0.2-0.5,0.4-0.5c0.3,0,0.5,0.2,0.5,0.5
		c0,0.7-0.6,1.3-0.9,1.5L70.9,231z"/>
	<path class="st0" d="M75,228.6c0-0.2,0-0.3,0-0.5l0.6-3.3h0.6l-0.6,3.3c0,0.2-0.1,0.4-0.1,0.5c0,0.8,0.4,1.1,1.2,1.1
		c1,0,1.5-0.5,1.6-1.6l0.6-3.3h0.6l-0.6,3.4c-0.2,1.2-0.9,2-2.3,2C75.6,230.2,75,229.6,75,228.6z"/>
	<path class="st0" d="M79.8,229.7c0-0.3,0.2-0.5,0.5-0.5s0.5,0.2,0.5,0.5s-0.2,0.5-0.5,0.5S79.8,230,79.8,229.7z"/>
	<path class="st0" d="M81.3,229.6l0.4-0.4c0.2,0.2,0.6,0.5,1.3,0.5c0.7,0,1-0.4,1-0.9s-0.3-0.8-0.8-1.2c-0.5-0.5-1-0.9-1-1.5
		c0-0.9,0.7-1.3,1.5-1.3c0.7,0,1.1,0.3,1.3,0.4l-0.3,0.5c-0.2-0.2-0.5-0.4-1-0.4c-0.6,0-0.9,0.3-0.9,0.8c0,0.4,0.3,0.7,0.8,1.1
		c0.5,0.5,1,0.9,1,1.6c0,0.7-0.5,1.4-1.6,1.4C82,230.2,81.5,229.8,81.3,229.6z"/>
	<path class="st0" d="M85.2,229.7c0-0.3,0.2-0.5,0.5-0.5s0.5,0.2,0.5,0.5s-0.2,0.5-0.5,0.5C85.4,230.2,85.2,230,85.2,229.7z"/>
	<path class="st0" d="M89.9,224.8h0.6l-1,5.3H89L89.9,224.8z"/>
	<path class="st0" d="M91.2,228c0-1.8,1.3-3.3,3.1-3.3c0.8,0,1.4,0.2,1.6,0.4l-0.4,0.5c-0.3-0.2-0.7-0.4-1.3-0.4
		c-1.4,0-2.4,1.2-2.4,2.7c0,1,0.5,1.8,1.6,1.8c0.8,0,1.2-0.3,1.3-0.3l0.3-1.5h-1.2l0.1-0.5h1.8l-0.4,2.4c-0.1,0.1-0.8,0.5-1.9,0.5
		C92,230.2,91.2,229.2,91.2,228z"/>
	<path class="st0" d="M98.3,229c0-1.4,0.8-2.9,2.3-2.9c0.6,0,0.9,0.1,1.1,0.2l-0.4,2.1c-0.2,1.1-0.2,1.7-0.2,1.7h-0.6
		c0.1-0.4,0.1-0.8,0.2-1.2l0,0c-0.3,0.6-0.7,1.3-1.4,1.3C98.6,230.2,98.3,229.7,98.3,229z M100.9,227.1l0.1-0.4
		c-0.1,0-0.3-0.1-0.5-0.1c-1,0-1.6,1.1-1.6,2.3c0,0.5,0.2,0.7,0.5,0.7C100.1,229.7,100.8,228.3,100.9,227.1z"/>
	<path class="st0" d="M102.8,226.3h0.6c0,0.3-0.2,0.9-0.3,1.2l0,0c0.3-0.5,0.8-1.3,1.6-1.3c0.5,0,0.8,0.4,0.8,0.9c0,0.1,0,0.3,0,0.4
		l-0.5,2.6h-0.6l0.5-2.6c0-0.1,0-0.2,0-0.4c0-0.3-0.1-0.5-0.4-0.5c-0.6,0-1.4,0.9-1.8,3l-0.1,0.4H102L102.8,226.3z"/>
	<path class="st0" d="M106.2,229c0-1.5,0.9-2.8,2.3-2.8c0.3,0,0.5,0,0.6,0.1l0.3-1.9h0.6l-0.7,4.1c-0.2,1.1-0.2,1.7-0.2,1.7h-0.6
		c0.1-0.4,0.1-0.8,0.2-1.2l0,0c-0.3,0.6-0.8,1.3-1.5,1.3S106.2,229.6,106.2,229z M108.9,227.1l0.1-0.4c-0.1,0-0.3-0.1-0.6-0.1
		c-1,0-1.6,1.1-1.6,2.2c0,0.5,0.1,0.8,0.5,0.8C108,229.7,108.7,228.3,108.9,227.1z"/>
	<path class="st0" d="M112.3,228.6c0-0.2,0-0.3,0-0.5l0.6-3.3h0.6l-0.6,3.3c0,0.2-0.1,0.4-0.1,0.5c0,0.8,0.4,1.1,1.2,1.1
		c1,0,1.5-0.5,1.6-1.6l0.6-3.3h0.6l-0.6,3.4c-0.2,1.2-0.9,2-2.3,2C112.8,230.2,112.3,229.6,112.3,228.6z"/>
	<path class="st0" d="M117,229.7c0-0.3,0.2-0.5,0.5-0.5s0.5,0.2,0.5,0.5s-0.2,0.5-0.5,0.5S117,230,117,229.7z"/>
	<path class="st0" d="M118.5,229.6l0.4-0.4c0.2,0.2,0.6,0.5,1.3,0.5c0.7,0,1-0.4,1-0.9s-0.3-0.8-0.8-1.2c-0.5-0.5-1-0.9-1-1.5
		c0-0.9,0.7-1.3,1.5-1.3c0.7,0,1.1,0.3,1.3,0.4l-0.3,0.5c-0.2-0.2-0.5-0.4-1-0.4c-0.6,0-0.9,0.3-0.9,0.8c0,0.4,0.3,0.7,0.8,1.1
		c0.5,0.5,1,0.9,1,1.6c0,0.7-0.5,1.4-1.6,1.4C119.2,230.2,118.7,229.8,118.5,229.6z"/>
	<path class="st0" d="M122.4,229.7c0-0.3,0.2-0.5,0.5-0.5s0.5,0.2,0.5,0.5s-0.2,0.5-0.5,0.5S122.4,230,122.4,229.7z"/>
	<path class="st0" d="M127.7,225.3h-1.5l0.1-0.5h3.6l-0.1,0.5h-1.5l-0.9,4.8h-0.6L127.7,225.3z"/>
	<path class="st0" d="M130,226.3h0.6c-0.1,0.4-0.2,1-0.3,1.3l0,0c0.3-0.6,0.8-1.4,1.4-1.4c0.2,0,0.3,0,0.4,0.1l-0.2,0.6
		c-0.1,0-0.1,0-0.2,0c-0.7,0-1.3,1-1.7,2.9l-0.1,0.4h-0.6L130,226.3z"/>
	<path class="st0" d="M132,228.8c0-1.4,0.9-2.6,2.1-2.6c0.6,0,1,0.3,1,0.9c0,1-1.2,1.4-2.5,1.5v0.2c0,0.6,0.3,0.9,0.8,0.9
		c0.4,0,0.8-0.2,1-0.5l0.3,0.4c-0.2,0.2-0.7,0.6-1.4,0.6C132.4,230.2,132,229.6,132,228.8z M132.6,228.1c1-0.1,1.8-0.5,1.8-1
		c0-0.3-0.2-0.4-0.5-0.4C133.4,226.7,132.8,227.3,132.6,228.1z"/>
	<path class="st0" d="M135.4,229c0-1.4,0.8-2.9,2.3-2.9c0.6,0,0.9,0.1,1.1,0.2l-0.4,2.1c-0.2,1.1-0.2,1.7-0.2,1.7h-0.6
		c0.1-0.4,0.1-0.8,0.2-1.2l0,0c-0.3,0.6-0.7,1.3-1.4,1.3C135.7,230.2,135.4,229.7,135.4,229z M138.1,227.1l0.1-0.4
		c-0.1,0-0.3-0.1-0.5-0.1c-1,0-1.6,1.1-1.6,2.3c0,0.5,0.2,0.7,0.5,0.7C137.2,229.7,137.9,228.3,138.1,227.1z"/>
	<path class="st0" d="M139,229.8l0.3-0.4c0.2,0.2,0.5,0.3,0.9,0.3s0.6-0.2,0.6-0.5s-0.2-0.5-0.6-0.9c-0.4-0.4-0.6-0.7-0.6-1.1
		c0-0.6,0.5-1,1.2-1c0.4,0,0.7,0.1,0.9,0.3l-0.3,0.4c-0.1-0.1-0.3-0.2-0.7-0.2s-0.6,0.2-0.6,0.5s0.2,0.4,0.5,0.8
		c0.5,0.5,0.7,0.7,0.7,1.2c0,0.6-0.4,1-1.3,1C139.5,230.2,139.2,230,139,229.8z"/>
	<path class="st0" d="M142.2,229.3c0-0.1,0-0.2,0-0.4l0.5-2.6h0.6l-0.5,2.6c0,0.1,0,0.2,0,0.4c0,0.3,0.1,0.5,0.4,0.5
		c0.6,0,1.4-0.9,1.8-2.8l0.1-0.6h0.6l-0.4,2.2c-0.2,1.1-0.2,1.7-0.2,1.7h-0.6c0.1-0.4,0.1-0.9,0.2-1.3l0,0c-0.3,0.6-0.8,1.4-1.6,1.4
		C142.5,230.2,142.2,229.9,142.2,229.3z"/>
	<path class="st0" d="M146.8,226.3h0.6c-0.1,0.4-0.2,1-0.3,1.3l0,0c0.3-0.6,0.8-1.4,1.4-1.4c0.2,0,0.3,0,0.4,0.1l-0.2,0.6
		c-0.1,0-0.1,0-0.2,0c-0.7,0-1.3,1-1.7,2.9l-0.1,0.4h-0.6L146.8,226.3z"/>
	<path class="st0" d="M149.7,226.3h0.6l-0.7,3.8H149L149.7,226.3z M149.8,225.1c0-0.2,0.2-0.4,0.4-0.4s0.4,0.2,0.4,0.4
		s-0.2,0.4-0.4,0.4S149.8,225.3,149.8,225.1z"/>
	<path class="st0" d="M150.8,228.8c0-1.4,0.9-2.6,2.1-2.6c0.6,0,1,0.3,1,0.9c0,1-1.2,1.4-2.5,1.5v0.2c0,0.6,0.3,0.9,0.8,0.9
		c0.4,0,0.8-0.2,1-0.5l0.3,0.4c-0.2,0.2-0.7,0.6-1.4,0.6C151.2,230.2,150.8,229.6,150.8,228.8z M151.5,228.1c1-0.1,1.8-0.5,1.8-1
		c0-0.3-0.2-0.4-0.5-0.4C152.2,226.7,151.7,227.3,151.5,228.1z"/>
	<path class="st0" d="M153.9,229.8l0.3-0.4c0.2,0.2,0.5,0.3,0.9,0.3s0.6-0.2,0.6-0.5s-0.2-0.5-0.6-0.9c-0.4-0.4-0.6-0.7-0.6-1.1
		c0-0.6,0.5-1,1.2-1c0.4,0,0.7,0.1,0.9,0.3l-0.3,0.4c-0.1-0.1-0.3-0.2-0.7-0.2s-0.6,0.2-0.6,0.5s0.2,0.4,0.5,0.8
		c0.5,0.5,0.7,0.7,0.7,1.2c0,0.6-0.4,1-1.3,1C154.5,230.2,154.1,230,153.9,229.8z"/>
	<path class="st0" d="M159.6,226.3h0.6l-0.7,3.8h-0.6L159.6,226.3z M159.6,225.1c0-0.2,0.2-0.4,0.4-0.4s0.4,0.2,0.4,0.4
		s-0.2,0.4-0.4,0.4S159.6,225.3,159.6,225.1z"/>
	<path class="st0" d="M160.4,229.8l0.3-0.4c0.2,0.2,0.5,0.3,0.9,0.3s0.6-0.2,0.6-0.5s-0.2-0.5-0.6-0.9c-0.4-0.4-0.6-0.7-0.6-1.1
		c0-0.6,0.5-1,1.2-1c0.4,0,0.7,0.1,0.9,0.3l-0.3,0.4c-0.1-0.1-0.3-0.2-0.7-0.2s-0.6,0.2-0.6,0.5s0.2,0.4,0.5,0.8
		c0.5,0.5,0.7,0.7,0.7,1.2c0,0.6-0.4,1-1.3,1C161,230.2,160.6,230,160.4,229.8z"/>
	<path class="st0" d="M165.3,230.1l1-5.7h0.6l-0.4,1.9c-0.1,0.3-0.1,0.7-0.3,1.2l0,0c0.3-0.6,0.8-1.3,1.5-1.3s0.9,0.6,0.9,1.2
		c0,1.4-0.8,2.8-2.3,2.8C165.9,230.2,165.4,230.1,165.3,230.1z M168.1,227.5c0-0.4-0.1-0.8-0.5-0.8c-0.8,0-1.4,1.5-1.6,2.6l-0.1,0.4
		c0.1,0,0.2,0.1,0.6,0.1C167.5,229.7,168.1,228.6,168.1,227.5z"/>
	<path class="st0" d="M169.2,229c0-1.4,0.8-2.9,2.3-2.9c0.6,0,0.9,0.1,1.1,0.2l-0.4,2.1c-0.2,1.1-0.2,1.7-0.2,1.7h-0.6
		c0.1-0.4,0.1-0.8,0.2-1.2l0,0c-0.3,0.6-0.7,1.3-1.4,1.3C169.5,230.2,169.2,229.7,169.2,229z M171.8,227.1l0.1-0.4
		c-0.1,0-0.3-0.1-0.5-0.1c-1,0-1.6,1.1-1.6,2.3c0,0.5,0.2,0.7,0.5,0.7C171,229.7,171.7,228.3,171.8,227.1z"/>
	<path class="st0" d="M172.7,229.8l0.3-0.4c0.2,0.2,0.5,0.3,0.9,0.3s0.6-0.2,0.6-0.5s-0.2-0.5-0.6-0.9c-0.4-0.4-0.6-0.7-0.6-1.1
		c0-0.6,0.5-1,1.2-1c0.4,0,0.7,0.1,0.9,0.3l-0.3,0.4c-0.1-0.1-0.3-0.2-0.7-0.2s-0.6,0.2-0.6,0.5s0.2,0.4,0.5,0.8
		c0.5,0.5,0.7,0.7,0.7,1.2c0,0.6-0.4,1-1.3,1C173.3,230.2,172.9,230,172.7,229.8z"/>
	<path class="st0" d="M175.8,228.8c0-1.4,0.9-2.6,2.1-2.6c0.6,0,1,0.3,1,0.9c0,1-1.2,1.4-2.5,1.5v0.2c0,0.6,0.3,0.9,0.8,0.9
		c0.4,0,0.8-0.2,1-0.5l0.3,0.4c-0.2,0.2-0.7,0.6-1.4,0.6C176.2,230.2,175.8,229.6,175.8,228.8z M176.5,228.1c1-0.1,1.8-0.5,1.8-1
		c0-0.3-0.2-0.4-0.5-0.4C177.2,226.7,176.7,227.3,176.5,228.1z"/>
	<path class="st0" d="M179.3,229c0-1.5,0.9-2.8,2.3-2.8c0.3,0,0.5,0,0.6,0.1l0.3-1.9h0.6l-0.7,4.1c-0.2,1.1-0.2,1.7-0.2,1.7h-0.6
		c0.1-0.4,0.1-0.8,0.2-1.2l0,0c-0.3,0.6-0.8,1.3-1.5,1.3S179.3,229.6,179.3,229z M182,227.1l0.1-0.4c-0.1,0-0.3-0.1-0.6-0.1
		c-1,0-1.6,1.1-1.6,2.2c0,0.5,0.1,0.8,0.5,0.8C181.1,229.7,181.8,228.3,182,227.1z"/>
</g>
<g>
	<path class="st0" d="M0.5,237.4c0-1.2,0.8-2.4,2-2.4c0.9,0,1.4,0.8,1.4,1.6c0,1.3-0.8,2.5-2,2.5C0.9,239,0.5,238.2,0.5,237.4z
		 M3.3,236.6c0-0.8-0.3-1.2-0.8-1.2c-0.8,0-1.4,1-1.4,1.9c0,0.7,0.3,1.1,0.8,1.1C2.7,238.5,3.3,237.5,3.3,236.6z"/>
	<path class="st0" d="M5.1,235.1h0.6c0,0.3-0.2,0.9-0.3,1.2l0,0c0.3-0.5,0.8-1.3,1.6-1.3c0.5,0,0.8,0.4,0.8,0.9c0,0.1,0,0.3,0,0.4
		l-0.5,2.6H6.7l0.5-2.6c0-0.1,0-0.2,0-0.4c0-0.3-0.1-0.5-0.4-0.5c-0.6,0-1.4,0.9-1.8,3l-0.1,0.4H4.4L5.1,235.1z"/>
	<path class="st0" d="M11.3,233.6h1.3c0.9,0,1.5,0.4,1.5,1.2s-0.4,1.2-1.2,1.4l0,0c0.5,0.1,1,0.5,1,1.1c0,1.2-0.9,1.7-2.2,1.7h-1.4
		L11.3,233.6z M11.8,238.4c1.1,0,1.5-0.4,1.5-1.2c0-0.5-0.4-0.9-1.1-0.9h-0.8l-0.4,2L11.8,238.4L11.8,238.4z M12.3,235.9
		c0.8,0,1.3-0.4,1.3-1c0-0.5-0.3-0.7-1-0.7h-0.7l-0.3,1.8h0.7V235.9z"/>
	<path class="st0" d="M15.7,233.2h0.6l-1,5.8h-0.6L15.7,233.2z"/>
	<path class="st0" d="M16.5,237.4c0-1.2,0.8-2.4,2-2.4c0.9,0,1.4,0.8,1.4,1.6c0,1.3-0.8,2.5-2,2.5C16.9,239,16.5,238.2,16.5,237.4z
		 M19.2,236.6c0-0.8-0.3-1.2-0.8-1.2c-0.8,0-1.4,1-1.4,1.9c0,0.7,0.3,1.1,0.8,1.1C18.7,238.5,19.2,237.5,19.2,236.6z"/>
	<path class="st0" d="M20.3,237.4c0-1.2,0.8-2.4,2-2.4c0.9,0,1.4,0.8,1.4,1.6c0,1.3-0.8,2.5-2,2.5C20.7,239,20.3,238.2,20.3,237.4z
		 M23.1,236.6c0-0.8-0.3-1.2-0.8-1.2c-0.8,0-1.4,1-1.4,1.9c0,0.7,0.3,1.1,0.8,1.1C22.5,238.5,23.1,237.5,23.1,236.6z"/>
	<path class="st0" d="M24.8,235.1h0.6c0,0.3-0.2,0.8-0.2,1.2l0,0c0.2-0.5,0.8-1.3,1.5-1.3c0.6,0,0.8,0.4,0.8,0.9c0,0.1,0,0.3,0,0.4
		l0,0c0.3-0.6,0.8-1.3,1.6-1.3c0.5,0,0.8,0.4,0.8,0.9c0,0.1,0,0.3,0,0.4l-0.5,2.6h-0.6l0.4-2.5c0.1-0.4,0.1-1-0.3-1
		c-0.7,0-1.4,1-1.8,3l-0.1,0.4h-0.6l0.4-2.5c0.1-0.4,0.1-1-0.4-1c-0.6,0-1.4,1-1.7,3l-0.1,0.4H24L24.8,235.1z"/>
	<path class="st0" d="M30.4,238.9l1-5.7H32l-0.4,1.9c-0.1,0.3-0.1,0.7-0.3,1.2l0,0c0.3-0.6,0.8-1.3,1.5-1.3s0.9,0.6,0.9,1.2
		c0,1.4-0.8,2.8-2.3,2.8C31.1,239,30.5,238.9,30.4,238.9z M33.3,236.3c0-0.4-0.1-0.8-0.5-0.8c-0.8,0-1.4,1.5-1.6,2.6l-0.1,0.4
		c0.1,0,0.2,0.1,0.6,0.1C32.7,238.5,33.3,237.4,33.3,236.3z"/>
	<path class="st0" d="M34.3,237.6c0-1.4,0.9-2.6,2.1-2.6c0.6,0,1,0.3,1,0.9c0,1-1.2,1.4-2.5,1.5v0.2c0,0.6,0.3,0.9,0.8,0.9
		c0.4,0,0.8-0.2,1-0.5l0.3,0.4c-0.2,0.2-0.7,0.6-1.4,0.6C34.7,239,34.3,238.4,34.3,237.6z M35,236.9c1-0.1,1.8-0.5,1.8-1
		c0-0.3-0.2-0.4-0.5-0.4C35.7,235.5,35.1,236.1,35,236.9z"/>
	<path class="st0" d="M38.5,235.1H39c-0.1,0.4-0.2,1-0.3,1.3l0,0c0.3-0.6,0.8-1.4,1.4-1.4c0.2,0,0.3,0,0.4,0.1l-0.2,0.6
		c-0.1,0-0.1,0-0.2,0c-0.7,0-1.3,1-1.7,2.9l-0.1,0.4h-0.6L38.5,235.1z"/>
	<path class="st0" d="M40.1,240.4l0.3-0.5c0.2,0.2,0.5,0.3,0.9,0.3c0.8,0,1.1-0.5,1.3-1.3l0.1-0.3c0.1-0.3,0.1-0.6,0.2-0.8l0,0
		c-0.3,0.6-0.8,1.3-1.5,1.3s-0.9-0.6-0.9-1.2c0-1.5,0.9-2.8,2.3-2.8c0.5,0,1,0.1,1.2,0.1l-0.7,3.8c-0.2,1.3-0.8,1.8-1.9,1.8
		C40.7,240.7,40.3,240.5,40.1,240.4z M43.2,235.9l0.1-0.4c-0.1,0-0.3-0.1-0.6-0.1c-1,0-1.6,1.1-1.6,2.2c0,0.5,0.1,0.8,0.5,0.8
		C42.3,238.5,43,237.1,43.2,235.9z"/>
	<path class="st0" d="M47.2,233.6h1.3c0.9,0,1.5,0.4,1.5,1.2s-0.4,1.2-1.2,1.4l0,0c0.5,0.1,1,0.5,1,1.1c0,1.2-0.9,1.7-2.2,1.7h-1.4
		L47.2,233.6z M47.6,238.4c1.1,0,1.5-0.4,1.5-1.2c0-0.5-0.4-0.9-1.1-0.9h-0.8l-0.4,2L47.6,238.4L47.6,238.4z M48.1,235.9
		c0.8,0,1.3-0.4,1.3-1c0-0.5-0.3-0.7-1-0.7h-0.7l-0.3,1.8h0.7V235.9z"/>
	<path class="st0" d="M50.5,237.8c0-1.4,0.8-2.9,2.3-2.9c0.6,0,0.9,0.1,1.1,0.2l-0.4,2.1c-0.2,1.1-0.2,1.7-0.2,1.7h-0.6
		c0.1-0.4,0.1-0.8,0.2-1.2l0,0c-0.3,0.6-0.7,1.3-1.4,1.3C50.8,239,50.5,238.5,50.5,237.8z M53.2,235.9l0.1-0.4
		c-0.1,0-0.3-0.1-0.5-0.1c-1,0-1.6,1.1-1.6,2.3c0,0.5,0.2,0.7,0.5,0.7C52.3,238.5,53,237.1,53.2,235.9z"/>
	<path class="st0" d="M55.1,235.1h0.6c-0.1,0.4-0.2,1-0.3,1.3l0,0c0.3-0.6,0.8-1.4,1.4-1.4c0.2,0,0.3,0,0.4,0.1l-0.2,0.6
		c-0.1,0-0.1,0-0.2,0c-0.7,0-1.3,1-1.7,2.9L55,239h-0.6L55.1,235.1z"/>
	<path class="st0" d="M57.1,237.5c0-1.5,1-2.5,2.1-2.5c0.5,0,0.8,0.1,0.9,0.3l-0.3,0.5c-0.1-0.1-0.3-0.2-0.7-0.2
		c-0.7,0-1.5,0.8-1.5,2c0,0.7,0.3,1,0.7,1c0.5,0,0.8-0.3,0.9-0.4l0.3,0.4c-0.2,0.2-0.7,0.6-1.3,0.6C57.6,239,57.1,238.5,57.1,237.5z
		"/>
	<path class="st0" d="M61.5,233.2H62l-1,5.8h-0.6L61.5,233.2z"/>
	<path class="st0" d="M62.3,237.8c0-1.4,0.8-2.9,2.3-2.9c0.6,0,0.9,0.1,1.1,0.2l-0.4,2.1c-0.2,1.1-0.2,1.7-0.2,1.7h-0.6
		c0.1-0.4,0.1-0.8,0.2-1.2l0,0c-0.3,0.6-0.7,1.3-1.4,1.3C62.6,239,62.3,238.5,62.3,237.8z M64.9,235.9l0.1-0.4
		c-0.1,0-0.3-0.1-0.5-0.1c-1,0-1.6,1.1-1.6,2.3c0,0.5,0.2,0.7,0.5,0.7C64,238.5,64.7,237.1,64.9,235.9z"/>
	<path class="st0" d="M65.1,240.5l0.2-0.5c0.1,0,0.2,0.1,0.5,0.1c0.4,0,0.7-0.2,1.2-1.1l-0.8-4h0.6l0.5,2.8c0,0.2,0.1,0.4,0.1,0.5
		l0,0c0.1-0.2,0.1-0.4,0.2-0.5l1.3-2.8h0.6l-1.4,2.9c-0.9,1.9-1.4,2.7-2.4,2.7C65.3,240.7,65.2,240.6,65.1,240.5z"/>
	<path class="st0" d="M69.3,238.6l0.3-0.4c0.2,0.2,0.5,0.3,0.9,0.3s0.6-0.2,0.6-0.5s-0.2-0.5-0.6-0.9s-0.6-0.7-0.6-1.1
		c0-0.6,0.5-1,1.2-1c0.4,0,0.7,0.1,0.9,0.3l-0.3,0.4c-0.1-0.1-0.3-0.2-0.7-0.2c-0.4,0-0.6,0.2-0.6,0.5s0.2,0.4,0.5,0.8
		c0.5,0.5,0.7,0.7,0.7,1.2c0,0.6-0.4,1-1.3,1C69.9,239,69.5,238.8,69.3,238.6z"/>
	<path class="st0" d="M75.3,233.6H78l-0.1,0.5h-2.1l-0.3,1.7h1.9l-0.1,0.5h-1.8l-0.5,2.6h-0.6L75.3,233.6z"/>
	<path class="st0" d="M78.7,235.1h0.6l-0.7,3.8H78L78.7,235.1z M78.8,233.9c0-0.2,0.2-0.4,0.4-0.4c0.2,0,0.4,0.2,0.4,0.4
		s-0.2,0.4-0.4,0.4C79,234.3,78.8,234.1,78.8,233.9z"/>
	<path class="st0" d="M81,236.9l-0.9-1.9h0.6l0.6,1.4l1.1-1.4H83l-1.5,1.9l0.9,2h-0.6l-0.7-1.5l-1.2,1.5h-0.6L81,236.9z"/>
	<path class="st0" d="M83.1,237.6c0-1.4,0.9-2.6,2.1-2.6c0.6,0,1,0.3,1,0.9c0,1-1.2,1.4-2.5,1.5v0.2c0,0.6,0.3,0.9,0.8,0.9
		c0.4,0,0.8-0.2,1-0.5l0.3,0.4c-0.2,0.2-0.7,0.6-1.4,0.6C83.5,239,83.1,238.4,83.1,237.6z M83.7,236.9c1-0.1,1.8-0.5,1.8-1
		c0-0.3-0.2-0.4-0.5-0.4C84.5,235.5,83.9,236.1,83.7,236.9z"/>
	<path class="st0" d="M86.5,237.8c0-1.5,0.9-2.8,2.3-2.8c0.3,0,0.5,0,0.6,0.1l0.3-1.9h0.6l-0.7,4.1c-0.2,1.1-0.2,1.7-0.2,1.7h-0.6
		c0.1-0.4,0.1-0.8,0.2-1.2l0,0c-0.3,0.6-0.8,1.3-1.5,1.3S86.5,238.4,86.5,237.8z M89.2,235.9l0.1-0.4c-0.1,0-0.3-0.1-0.6-0.1
		c-1,0-1.6,1.1-1.6,2.2c0,0.5,0.1,0.8,0.5,0.8C88.3,238.5,89,237.1,89.2,235.9z"/>
	<path class="st0" d="M93.3,233.6h0.6l-1,5.3h-0.6L93.3,233.6z"/>
	<path class="st0" d="M95,235.1h0.6c0,0.3-0.2,0.9-0.3,1.2l0,0c0.3-0.5,0.8-1.3,1.6-1.3c0.5,0,0.8,0.4,0.8,0.9c0,0.1,0,0.3,0,0.4
		l-0.5,2.6h-0.6l0.5-2.6c0-0.1,0-0.2,0-0.4c0-0.3-0.1-0.5-0.4-0.5c-0.6,0-1.4,0.9-1.8,3l-0.1,0.4h-0.6L95,235.1z"/>
	<path class="st0" d="M98.3,237.5c0-1.5,1-2.5,2.1-2.5c0.5,0,0.8,0.1,0.9,0.3l-0.3,0.5c-0.1-0.1-0.3-0.2-0.7-0.2
		c-0.7,0-1.5,0.8-1.5,2c0,0.7,0.3,1,0.7,1c0.5,0,0.8-0.3,0.9-0.4l0.3,0.4c-0.2,0.2-0.7,0.6-1.3,0.6C98.8,239,98.3,238.5,98.3,237.5z
		"/>
	<path class="st0" d="M101.5,237.4c0-1.2,0.8-2.4,2-2.4c0.9,0,1.4,0.8,1.4,1.6c0,1.3-0.8,2.5-2,2.5
		C101.9,239,101.5,238.2,101.5,237.4z M104.3,236.6c0-0.8-0.3-1.2-0.8-1.2c-0.8,0-1.4,1-1.4,1.9c0,0.7,0.3,1.1,0.8,1.1
		C103.7,238.5,104.3,237.5,104.3,236.6z"/>
	<path class="st0" d="M106,235.1h0.6c0,0.3-0.2,0.8-0.2,1.2l0,0c0.2-0.5,0.8-1.3,1.5-1.3c0.6,0,0.8,0.4,0.8,0.9c0,0.1,0,0.3,0,0.4
		l0,0c0.3-0.6,0.8-1.3,1.6-1.3c0.5,0,0.8,0.4,0.8,0.9c0,0.1,0,0.3,0,0.4l-0.5,2.6H110l0.4-2.5c0.1-0.4,0.1-1-0.3-1
		c-0.7,0-1.4,1-1.8,3l-0.1,0.4h-0.6l0.4-2.5c0.1-0.4,0.1-1-0.4-1c-0.6,0-1.4,1-1.7,3l-0.1,0.4h-0.6L106,235.1z"/>
	<path class="st0" d="M111.6,237.6c0-1.4,0.9-2.6,2.1-2.6c0.6,0,1,0.3,1,0.9c0,1-1.2,1.4-2.5,1.5v0.2c0,0.6,0.3,0.9,0.8,0.9
		c0.4,0,0.8-0.2,1-0.5l0.3,0.4c-0.2,0.2-0.7,0.6-1.4,0.6C112,239,111.6,238.4,111.6,237.6z M112.3,236.9c1-0.1,1.8-0.5,1.8-1
		c0-0.3-0.2-0.4-0.5-0.4C113,235.5,112.5,236.1,112.3,236.9z"/>
	<path class="st0" d="M118,233.6h0.6l-1,5.3H117L118,233.6z"/>
	<path class="st0" d="M119.6,235.1h0.6c0,0.3-0.2,0.9-0.3,1.2l0,0c0.3-0.5,0.8-1.3,1.6-1.3c0.5,0,0.8,0.4,0.8,0.9c0,0.1,0,0.3,0,0.4
		l-0.5,2.6h-0.6l0.5-2.6c0-0.1,0-0.2,0-0.4c0-0.3-0.1-0.5-0.4-0.5c-0.6,0-1.4,0.9-1.8,3l-0.1,0.4h-0.6L119.6,235.1z"/>
	<path class="st0" d="M123,237.8c0-1.5,0.9-2.8,2.3-2.8c0.3,0,0.5,0,0.6,0.1l0.3-1.9h0.6l-0.7,4.1c-0.2,1.1-0.2,1.7-0.2,1.7h-0.6
		c0.1-0.4,0.1-0.8,0.2-1.2l0,0c-0.3,0.6-0.8,1.3-1.5,1.3S123,238.4,123,237.8z M125.7,235.9l0.1-0.4c-0.1,0-0.3-0.1-0.6-0.1
		c-1,0-1.6,1.1-1.6,2.2c0,0.5,0.1,0.8,0.5,0.8C124.8,238.5,125.5,237.1,125.7,235.9z"/>
	<path class="st0" d="M127.6,235.1h0.6l-0.7,3.8h-0.6L127.6,235.1z M127.7,233.9c0-0.2,0.2-0.4,0.4-0.4s0.4,0.2,0.4,0.4
		s-0.2,0.4-0.4,0.4C127.9,234.3,127.7,234.1,127.7,233.9z"/>
	<path class="st0" d="M128.7,237.5c0-1.5,1-2.5,2.1-2.5c0.5,0,0.8,0.1,0.9,0.3l-0.3,0.5c-0.1-0.1-0.3-0.2-0.7-0.2
		c-0.7,0-1.5,0.8-1.5,2c0,0.7,0.3,1,0.7,1c0.5,0,0.8-0.3,0.9-0.4l0.3,0.4c-0.2,0.2-0.7,0.6-1.3,0.6
		C129.2,239,128.7,238.5,128.7,237.5z"/>
	<path class="st0" d="M131.9,237.6c0-1.4,0.9-2.6,2.1-2.6c0.6,0,1,0.3,1,0.9c0,1-1.2,1.4-2.5,1.5v0.2c0,0.6,0.3,0.9,0.8,0.9
		c0.4,0,0.8-0.2,1-0.5l0.3,0.4c-0.2,0.2-0.7,0.6-1.4,0.6C132.3,239,131.9,238.4,131.9,237.6z M132.5,236.9c1-0.1,1.8-0.5,1.8-1
		c0-0.3-0.2-0.4-0.5-0.4C133.3,235.5,132.7,236.1,132.5,236.9z"/>
	<path class="st0" d="M135,238.6l0.3-0.4c0.2,0.2,0.5,0.3,0.9,0.3s0.6-0.2,0.6-0.5s-0.2-0.5-0.6-0.9c-0.4-0.4-0.6-0.7-0.6-1.1
		c0-0.6,0.5-1,1.2-1c0.4,0,0.7,0.1,0.9,0.3l-0.3,0.4c-0.1-0.1-0.3-0.2-0.7-0.2s-0.6,0.2-0.6,0.5s0.2,0.4,0.5,0.8
		c0.5,0.5,0.7,0.7,0.7,1.2c0,0.6-0.4,1-1.3,1C135.6,239,135.2,238.8,135,238.6z"/>
</g>
<g>
	<path class="st0" d="M1.3,213.9L2,213l-1.1-0.3l0.1-0.4l1.1,0.4v-1.1h0.5v1.1l1.1-0.4l0.2,0.4L2.7,213l0.7,0.9L3,214.2l-0.7-1
		l-0.7,1L1.3,213.9z"/>
	<path class="st0" d="M5.3,211.4h0.6l1.3,3.6c0.2,0.4,0.2,0.7,0.3,1l0,0c0.1-0.3,0.2-0.5,0.3-1l1.3-3.6h0.6l0.7,5.3H9.9l-0.5-3.5
		c0-0.4-0.1-0.6-0.1-0.7l0,0c-0.1,0.2-0.1,0.4-0.2,0.7l-1.3,3.5H7.2l-1.3-3.5c-0.1-0.3-0.2-0.6-0.3-0.7l0,0c0,0.2,0,0.4-0.1,0.8
		l-0.4,3.5H4.6L5.3,211.4z"/>
	<path class="st0" d="M11.3,214.9c0-0.9,0.5-2,1.8-2s1.8,1.1,1.8,2s-0.5,2-1.8,2S11.3,215.8,11.3,214.9z M14.3,214.9
		c0-0.8-0.4-1.5-1.2-1.5s-1.1,0.7-1.1,1.5s0.4,1.5,1.2,1.5C13.9,216.4,14.3,215.7,14.3,214.9z"/>
	<path class="st0" d="M15.5,216.5l0.3-0.4c0.1,0.1,0.5,0.3,1,0.3s0.8-0.2,0.8-0.6c0-0.4-0.3-0.5-0.8-0.7c-0.6-0.3-1.1-0.5-1.1-1.2
		c0-0.6,0.4-1.1,1.2-1.1c0.6,0,1,0.3,1.1,0.4l-0.3,0.4c-0.1-0.1-0.4-0.3-0.9-0.3c-0.4,0-0.6,0.2-0.6,0.5c0,0.4,0.3,0.5,0.7,0.7
		c0.6,0.3,1.2,0.5,1.2,1.2s-0.5,1.1-1.4,1.1C16.2,216.9,15.8,216.7,15.5,216.5z"/>
	<path class="st0" d="M19.3,215.9v-2.5h-0.6v-0.5h0.6v-1.1h0.6v1.1h1v0.5h-1v2.4c0,0.4,0.1,0.6,0.4,0.6c0.2,0,0.5-0.1,0.5-0.2
		l0.2,0.4c-0.1,0.1-0.4,0.2-0.8,0.2C19.6,216.9,19.3,216.5,19.3,215.9z"/>
	<path class="st0" d="M23.2,212.9h0.6l0.8,2.9l0,0l0.9-2.9h0.6l0.9,2.9l0,0l0.8-2.9h0.6l-1.2,3.8h-0.5l-1-3l0,0l-1,3h-0.5
		L23.2,212.9z"/>
	<path class="st0" d="M29.2,211.8c0-0.2,0.2-0.4,0.4-0.4s0.4,0.2,0.4,0.4s-0.2,0.4-0.4,0.4S29.2,212,29.2,211.8z M29.3,212.9h0.6
		v3.8h-0.6V212.9z"/>
	<path class="st0" d="M30.9,214.9c0-1.2,0.7-2,1.7-2c0.4,0,0.7,0.1,1,0.3V211h0.6v5c0,0.3,0,0.6,0.1,0.8h-0.6c0-0.1-0.1-0.3-0.1-0.4
		c-0.3,0.3-0.6,0.5-1.1,0.5C31.6,216.9,30.9,216.1,30.9,214.9z M33.6,215.8v-2.1c-0.2-0.2-0.5-0.4-0.9-0.4c-0.7,0-1.1,0.6-1.1,1.5
		s0.3,1.5,1.1,1.5C33,216.3,33.4,216.1,33.6,215.8z"/>
	<path class="st0" d="M35.1,214.8c0-1.1,0.7-2,1.7-2s1.5,0.7,1.5,1.7c0,0.1,0,0.2,0,0.3h-2.6c0,0.8,0.3,1.5,1.2,1.5
		c0.5,0,0.9-0.2,1.1-0.3l0.2,0.5c-0.2,0.1-0.6,0.4-1.3,0.4C35.7,216.9,35.1,216,35.1,214.8z M37.8,214.4c0-0.5-0.3-1-0.9-1
		c-0.6,0-1,0.4-1.1,1H37.8z"/>
	<path class="st0" d="M39.4,211H40v5.8h-0.6V211z"/>
	<path class="st0" d="M40.7,218.6l0.1-0.5c0.1,0,0.1,0,0.3,0c0.5,0,0.8-0.3,1-0.9l0.2-0.5l-1.4-3.8h0.7l1.1,3.1l0,0l1.1-3.1h0.6
		l-1.6,4.3c-0.3,0.7-0.6,1.3-1.5,1.3C40.9,218.6,40.8,218.6,40.7,218.6z"/>
	<path class="st0" d="M47,213.4h-0.6v-0.5H47v-0.6c0-0.9,0.5-1.4,1.4-1.4c0.4,0,0.6,0.1,0.6,0.1l-0.2,0.5c0,0-0.2-0.1-0.5-0.1
		c-0.5,0-0.8,0.3-0.8,1v0.5h1v0.5h-1v3.4H47V213.4z"/>
	<path class="st0" d="M49,214.9c0-0.9,0.5-2,1.8-2s1.8,1.1,1.8,2s-0.5,2-1.8,2S49,215.8,49,214.9z M52,214.9c0-0.8-0.4-1.5-1.2-1.5
		s-1.1,0.7-1.1,1.5s0.4,1.5,1.2,1.5C51.6,216.4,52,215.7,52,214.9z"/>
	<path class="st0" d="M53.6,211h0.6v5.8h-0.6V211z"/>
	<path class="st0" d="M55.6,211h0.6v5.8h-0.6V211z"/>
	<path class="st0" d="M57.2,214.9c0-0.9,0.5-2,1.8-2s1.8,1.1,1.8,2s-0.5,2-1.8,2S57.2,215.8,57.2,214.9z M60.1,214.9
		c0-0.8-0.4-1.5-1.2-1.5s-1.1,0.7-1.1,1.5s0.4,1.5,1.2,1.5S60.1,215.7,60.1,214.9z"/>
	<path class="st0" d="M61.2,212.9h0.6l0.8,2.9l0,0l0.9-2.9h0.6l0.9,2.9l0,0l0.8-2.9h0.6l-1.2,3.8h-0.5l-1-3l0,0l-1,3h-0.5
		L61.2,212.9z"/>
	<path class="st0" d="M66.9,214.8c0-1.1,0.7-2,1.7-2s1.5,0.7,1.5,1.7c0,0.1,0,0.2,0,0.3h-2.6c0,0.8,0.3,1.5,1.2,1.5
		c0.5,0,0.9-0.2,1.1-0.3l0.2,0.5c-0.2,0.1-0.6,0.4-1.3,0.4C67.6,216.9,66.9,216,66.9,214.8z M69.6,214.4c0-0.5-0.3-1-0.9-1
		s-1,0.4-1.1,1H69.6z"/>
	<path class="st0" d="M70.9,214.9c0-1.2,0.7-2,1.7-2c0.4,0,0.7,0.1,1,0.3V211h0.6v5c0,0.3,0,0.6,0.1,0.8h-0.6c0-0.1-0.1-0.3-0.1-0.4
		c-0.3,0.3-0.6,0.5-1.1,0.5C71.5,216.9,70.9,216.1,70.9,214.9z M73.5,215.8v-2.1c-0.2-0.2-0.5-0.4-0.9-0.4c-0.7,0-1.1,0.6-1.1,1.5
		s0.3,1.5,1.1,1.5C72.9,216.3,73.3,216.1,73.5,215.8z"/>
	<path class="st0" d="M77.1,211.8c0-0.2,0.2-0.4,0.4-0.4s0.4,0.2,0.4,0.4s-0.2,0.4-0.4,0.4S77.1,212,77.1,211.8z M77.2,212.9h0.6
		v3.8h-0.6V212.9z"/>
	<path class="st0" d="M79.2,212.9h0.6v0.6c0.3-0.4,0.8-0.6,1.2-0.6c0.8,0,1.1,0.5,1.1,1.2v2.7h-0.6v-2.6c0-0.5-0.2-0.8-0.7-0.8
		c-0.4,0-0.8,0.3-1.1,0.7v2.7h-0.6L79.2,212.9L79.2,212.9z"/>
	<path class="st0" d="M83.1,214.9c0-1.2,0.7-2,1.7-2c0.4,0,0.7,0.1,1,0.3V211h0.6v5c0,0.3,0,0.6,0.1,0.8h-0.6c0-0.1-0.1-0.3-0.1-0.4
		c-0.3,0.3-0.6,0.5-1.1,0.5C83.8,216.9,83.1,216.1,83.1,214.9z M85.8,215.8v-2.1c-0.2-0.2-0.5-0.4-0.9-0.4c-0.7,0-1.1,0.6-1.1,1.5
		s0.3,1.5,1.1,1.5C85.1,216.3,85.5,216.1,85.8,215.8z"/>
	<path class="st0" d="M87.3,214.8c0-1.1,0.7-2,1.7-2s1.5,0.7,1.5,1.7c0,0.1,0,0.2,0,0.3h-2.6c0,0.8,0.3,1.5,1.2,1.5
		c0.5,0,0.9-0.2,1.1-0.3l0.2,0.5c-0.2,0.1-0.6,0.4-1.3,0.4C87.9,216.9,87.3,216,87.3,214.8z M89.9,214.4c0-0.5-0.3-1-0.9-1
		s-1,0.4-1.1,1H89.9z"/>
	<path class="st0" d="M92.3,214.8l-1.2-1.8h0.7c0,0,0.9,1.3,0.9,1.4l0.9-1.4h0.6l-1.2,1.8l1.4,2h-0.7l-1.1-1.6l-1,1.6H91L92.3,214.8
		z"/>
	<path class="st0" d="M97.1,213.4h-0.6v-0.5h0.6v-0.6c0-0.9,0.5-1.4,1.4-1.4c0.4,0,0.6,0.1,0.6,0.1l-0.2,0.5c0,0-0.2-0.1-0.5-0.1
		c-0.5,0-0.8,0.3-0.8,1v0.5h1v0.5h-1v3.4H97L97.1,213.4L97.1,213.4z"/>
	<path class="st0" d="M99.2,214.9c0-0.9,0.5-2,1.8-2s1.8,1.1,1.8,2s-0.5,2-1.8,2S99.2,215.8,99.2,214.9z M102.1,214.9
		c0-0.8-0.4-1.5-1.2-1.5c-0.8,0-1.1,0.7-1.1,1.5s0.4,1.5,1.2,1.5C101.7,216.4,102.1,215.7,102.1,214.9z"/>
	<path class="st0" d="M103.7,212.9h0.6v0.6c0.2-0.3,0.5-0.7,1-0.7c0.2,0,0.4,0.1,0.4,0.1l-0.1,0.6c0,0-0.1-0.1-0.3-0.1
		c-0.6,0-0.9,0.7-0.9,0.8v2.6h-0.6L103.7,212.9L103.7,212.9z"/>
	<path class="st0" d="M108,216.5l0.3-0.4c0.1,0.1,0.5,0.3,1,0.3s0.8-0.2,0.8-0.6c0-0.4-0.3-0.5-0.8-0.7c-0.6-0.3-1.1-0.5-1.1-1.2
		c0-0.6,0.4-1.1,1.2-1.1c0.6,0,1,0.3,1.1,0.4l-0.3,0.4c-0.1-0.1-0.4-0.3-0.9-0.3c-0.4,0-0.6,0.2-0.6,0.5c0,0.4,0.3,0.5,0.7,0.7
		c0.6,0.3,1.2,0.5,1.2,1.2s-0.5,1.1-1.4,1.1C108.6,216.9,108.2,216.7,108,216.5z"/>
	<path class="st0" d="M111.2,214.8c0-1.1,0.7-2,1.7-2s1.5,0.7,1.5,1.7c0,0.1,0,0.2,0,0.3h-2.6c0,0.8,0.3,1.5,1.2,1.5
		c0.5,0,0.9-0.2,1.1-0.3l0.2,0.5c-0.2,0.1-0.6,0.4-1.3,0.4C111.8,216.9,111.2,216,111.2,214.8z M113.9,214.4c0-0.5-0.3-1-0.9-1
		s-1,0.4-1.1,1H113.9z"/>
	<path class="st0" d="M115.5,212.9h0.6v0.6c0.3-0.4,0.8-0.6,1.2-0.6c0.8,0,1.1,0.5,1.1,1.2v2.7h-0.6v-2.6c0-0.5-0.2-0.8-0.7-0.8
		c-0.4,0-0.8,0.3-1.1,0.7v2.7h-0.6L115.5,212.9L115.5,212.9z"/>
	<path class="st0" d="M119.6,211.8c0-0.2,0.2-0.4,0.4-0.4s0.4,0.2,0.4,0.4s-0.2,0.4-0.4,0.4S119.6,212,119.6,211.8z M119.8,212.9
		h0.6v3.8h-0.6V212.9z"/>
	<path class="st0" d="M121.4,214.9c0-0.9,0.5-2,1.8-2s1.8,1.1,1.8,2s-0.5,2-1.8,2S121.4,215.8,121.4,214.9z M124.3,214.9
		c0-0.8-0.4-1.5-1.2-1.5c-0.8,0-1.1,0.7-1.1,1.5s0.4,1.5,1.2,1.5S124.3,215.7,124.3,214.9z"/>
	<path class="st0" d="M125.9,212.9h0.6v0.6c0.2-0.3,0.5-0.7,1-0.7c0.2,0,0.4,0.1,0.4,0.1l-0.1,0.6c0,0-0.1-0.1-0.3-0.1
		c-0.6,0-0.9,0.7-0.9,0.8v2.6H126L125.9,212.9L125.9,212.9z"/>
	<path class="st0" d="M130.5,211h0.6v5.8h-0.6V211z"/>
	<path class="st0" d="M132.1,214.9c0-0.9,0.5-2,1.8-2s1.8,1.1,1.8,2s-0.5,2-1.8,2S132.1,215.8,132.1,214.9z M135,214.9
		c0-0.8-0.4-1.5-1.2-1.5s-1.1,0.7-1.1,1.5s0.4,1.5,1.2,1.5S135,215.7,135,214.9z"/>
	<path class="st0" d="M136.3,215.8c0-1,1.1-1.3,2-1.3h0.2v-0.4c0-0.6-0.2-0.8-0.8-0.8c-0.4,0-0.7,0.1-1,0.4l-0.3-0.4
		c0.4-0.4,0.8-0.5,1.4-0.5c0.8,0,1.3,0.4,1.3,1.3v1.8c0,0.4,0,0.7,0.1,0.9h-0.6c0-0.1,0-0.3-0.1-0.5c-0.3,0.3-0.7,0.6-1.2,0.6
		C136.8,216.9,136.3,216.5,136.3,215.8z M138.6,215.8v-0.9h-0.2c-0.8,0-1.4,0.2-1.4,0.9c0,0.4,0.3,0.5,0.6,0.5
		C138,216.4,138.3,216.1,138.6,215.8z"/>
	<path class="st0" d="M140.4,212.9h0.6v0.6c0.3-0.4,0.8-0.6,1.2-0.6c0.8,0,1.1,0.5,1.1,1.2v2.7h-0.6v-2.6c0-0.5-0.2-0.8-0.7-0.8
		c-0.4,0-0.8,0.3-1.1,0.7v2.7h-0.6v-3.9H140.4z"/>
	<path class="st0" d="M144.3,216.5l0.3-0.4c0.1,0.1,0.5,0.3,1,0.3s0.8-0.2,0.8-0.6c0-0.4-0.3-0.5-0.8-0.7c-0.6-0.3-1.1-0.5-1.1-1.2
		c0-0.6,0.4-1.1,1.2-1.1c0.6,0,1,0.3,1.1,0.4l-0.3,0.4c-0.1-0.1-0.4-0.3-0.9-0.3c-0.4,0-0.6,0.2-0.6,0.5c0,0.4,0.3,0.5,0.7,0.7
		c0.6,0.3,1.2,0.5,1.2,1.2s-0.5,1.1-1.4,1.1C145,216.9,144.6,216.7,144.3,216.5z"/>
</g>
<g>
	<g>
		<path class="st0" d="M8.8,127.8l-3.3,1.8v-0.7l2.7-1.4v0l-2.7-1.4v-0.6l3.3,1.7h2v0.6H8.8z"/>
		<path class="st0" d="M5.8,124.8c-0.2,0-0.4-0.2-0.4-0.4s0.2-0.4,0.4-0.4s0.4,0.2,0.4,0.4S6.1,124.8,5.8,124.8z M7,124.6V124h3.8
			v0.6H7z"/>
		<path class="st0" d="M8.9,122.9c-1.1,0-2-0.7-2-1.7c0-1,0.7-1.5,1.7-1.5c0.1,0,0.2,0,0.3,0v2.6c0.8,0,1.5-0.3,1.5-1.2
			c0-0.5-0.2-0.9-0.3-1.1l0.5-0.2c0.1,0.2,0.4,0.6,0.4,1.3C10.9,122.3,10,122.9,8.9,122.9z M8.4,120.3c-0.5,0-1,0.3-1,0.9
			c0,0.6,0.4,1,1,1.1V120.3z"/>
		<path class="st0" d="M5.1,118.6V118h5.8v0.6H5.1z"/>
		<path class="st0" d="M8.9,116.9c-1.2,0-2-0.7-2-1.7c0-0.4,0.1-0.7,0.3-1H5.1v-0.6h5c0.3,0,0.6,0,0.8-0.1v0.6
			c-0.1,0-0.3,0.1-0.4,0.1c0.3,0.3,0.5,0.6,0.5,1.1C10.9,116.3,10.2,116.9,8.9,116.9z M9.9,114.2H7.7c-0.2,0.2-0.4,0.5-0.4,0.9
			c0,0.7,0.6,1.1,1.5,1.1c0.9,0,1.5-0.3,1.5-1.1C10.4,114.9,10.2,114.5,9.9,114.2z"/>
		<path class="st0" d="M9.9,110.3H7.4v0.6H7v-0.6H5.9v-0.6H7v-1h0.5v1h2.4c0.4,0,0.6-0.1,0.6-0.4c0-0.2-0.1-0.5-0.2-0.5l0.4-0.2
			c0.1,0.1,0.2,0.4,0.2,0.8C10.9,109.9,10.5,110.3,9.9,110.3z"/>
		<path class="st0" d="M8.9,107.9c-0.9,0-2-0.5-2-1.8s1.1-1.8,2-1.8s2,0.5,2,1.8C10.9,107.4,9.8,107.9,8.9,107.9z M8.9,105
			c-0.8,0-1.5,0.4-1.5,1.2s0.7,1.1,1.5,1.1s1.5-0.4,1.5-1.2C10.4,105.3,9.7,105,8.9,105z"/>
		<path class="st0" d="M5.5,101.9v-0.7l3.6-0.9c0.4-0.1,0.9-0.2,0.9-0.2v0c0,0-0.5-0.1-0.9-0.2l-3.6-1v-0.6l3.5-1
			C9.4,97.1,9.9,97,10,97v0c0,0-0.5-0.1-0.9-0.2l-3.5-0.9v-0.6l5.3,1.5v0.6l-3.6,1c-0.4,0.1-1,0.2-1,0.2v0c0,0,0.6,0.1,1,0.3
			l3.6,1.1v0.6L5.5,101.9z"/>
		<path class="st0" d="M8.9,94.9c-0.9,0-2-0.5-2-1.8c0-1.3,1.1-1.8,2-1.8s2,0.5,2,1.8C10.9,94.4,9.8,94.9,8.9,94.9z M8.9,92
			c-0.8,0-1.5,0.4-1.5,1.2c0,0.8,0.7,1.1,1.5,1.1s1.5-0.4,1.5-1.2C10.4,92.3,9.7,92,8.9,92z"/>
		<path class="st0" d="M7,90.3v-0.6h0.6c-0.3-0.2-0.7-0.5-0.7-1c0-0.2,0.1-0.4,0.1-0.4l0.6,0.1c0,0-0.1,0.1-0.1,0.3
			c0,0.6,0.7,0.9,0.8,0.9h2.6v0.6H7z"/>
		<path class="st0" d="M10.5,87.8l-0.4-0.3c0.1-0.1,0.3-0.5,0.3-1c0-0.5-0.2-0.8-0.6-0.8c-0.4,0-0.5,0.3-0.7,0.8
			c-0.3,0.6-0.5,1.1-1.2,1.1c-0.6,0-1.1-0.4-1.1-1.2c0-0.6,0.3-1,0.4-1.1l0.4,0.3c-0.1,0.1-0.3,0.4-0.3,0.9c0,0.4,0.2,0.6,0.5,0.6
			c0.4,0,0.5-0.3,0.7-0.7c0.3-0.6,0.5-1.2,1.2-1.2c0.7,0,1.1,0.5,1.1,1.4C10.9,87.1,10.7,87.5,10.5,87.8z"/>
		<path class="st0" d="M9.9,83.9H7.4v0.6H7v-0.6H5.9v-0.6H7v-1h0.5v1h2.4c0.4,0,0.6-0.1,0.6-0.4c0-0.2-0.1-0.5-0.2-0.5l0.4-0.2
			c0.1,0.1,0.2,0.4,0.2,0.8C10.9,83.6,10.5,83.9,9.9,83.9z"/>
		<path class="st0" d="M8.6,79.6c-1.3,0-2.6-0.6-3.5-1.4v-0.6C5.7,78.2,7,79,8.6,79c1.5,0,2.7-0.5,3.7-1.4v0.6
			C11.2,79,9.9,79.6,8.6,79.6z"/>
	</g>
	<path class="st0" d="M6.7,77.2c-0.6,0-1.3-0.4-1.3-1.4c0-1,0.7-1.4,1.3-1.4c0.6,0,1.3,0.4,1.3,1.4C8.1,76.8,7.4,77.2,6.7,77.2z
		 M5.5,72.7v-0.6l5.3,3.4v0.6L5.5,72.7z M6.7,75c-0.5,0-0.9,0.3-0.9,0.9s0.4,0.9,0.9,0.9c0.5,0,0.9-0.3,0.9-0.9
		C7.6,75.3,7.3,75,6.7,75z M9.5,73.9c-0.6,0-1.3-0.4-1.3-1.4c0-1,0.7-1.4,1.3-1.4c0.6,0,1.3,0.4,1.3,1.4
		C10.9,73.5,10.1,73.9,9.5,73.9z M9.5,71.6c-0.5,0-0.9,0.3-0.9,0.9s0.4,0.9,0.9,0.9c0.5,0,0.9-0.3,0.9-0.9C10.4,72,10,71.6,9.5,71.6
		z"/>
	<g>
		<path class="st0" d="M8.7,69.3c-1.5,0-2.7,0.5-3.7,1.4v-0.6c1-0.9,2.3-1.4,3.7-1.4c1.4,0,2.6,0.6,3.5,1.4v0.6
			C11.5,70.1,10.3,69.3,8.7,69.3z"/>
	</g>
	<path class="st0" d="M16.9,20.9l0.1-0.5c0.1,0,0.2,0,0.5,0c0.9,0,1.7-0.4,1.7-1.3c0-0.9-0.7-1.2-1.6-1.2c-0.2,0-0.4,0-0.4,0
		l0.2-2.5h2.4V16h-1.8l-0.1,1.4c1.3,0,2,0.6,2,1.6c0,1.2-1,1.8-2.4,1.8C17.2,20.9,17,20.9,16.9,20.9z M20.6,20.4
		c0-0.3,0.2-0.5,0.5-0.5s0.5,0.2,0.5,0.5s-0.2,0.5-0.5,0.5S20.6,20.7,20.6,20.4z M22.4,18.2c0-1.3,0.5-2.8,2-2.8c1.4,0,2,1.4,2,2.8
		s-0.6,2.8-2,2.8C23,20.9,22.4,19.5,22.4,18.2z M25.8,18.2c0-1.3-0.4-2.3-1.4-2.3c-1,0-1.4,1-1.4,2.3s0.4,2.3,1.4,2.3
		C25.4,20.4,25.8,19.4,25.8,18.2z"/>
	<path class="st0" d="M15.7,179.2c0-1.3,0.5-2.8,2-2.8c1.4,0,2,1.4,2,2.8s-0.6,2.8-2,2.8C16.3,181.9,15.7,180.5,15.7,179.2z
		 M19.1,179.2c0-1.3-0.4-2.3-1.4-2.3c-1,0-1.4,1-1.4,2.3s0.4,2.3,1.4,2.3C18.7,181.4,19.1,180.4,19.1,179.2z M20.6,181.4
		c0-0.3,0.2-0.5,0.5-0.5s0.5,0.2,0.5,0.5s-0.2,0.5-0.5,0.5S20.6,181.7,20.6,181.4z M22.4,179.2c0-1.3,0.5-2.8,2-2.8
		c1.4,0,2,1.4,2,2.8s-0.6,2.8-2,2.8C23,181.9,22.4,180.5,22.4,179.2z M25.8,179.2c0-1.3-0.4-2.3-1.4-2.3c-1,0-1.4,1-1.4,2.3
		s0.4,2.3,1.4,2.3C25.4,181.4,25.8,180.4,25.8,179.2z"/>
	<path class="st0" d="M27.9,189.8c0-1.3,0.5-2.8,2-2.8c1.4,0,2,1.4,2,2.8s-0.6,2.8-2,2.8C28.4,192.5,27.9,191.1,27.9,189.8z
		 M31.2,189.8c0-1.3-0.4-2.3-1.4-2.3c-1,0-1.4,1-1.4,2.3s0.4,2.3,1.4,2.3C30.8,192,31.2,191,31.2,189.8z"/>
	<path class="st0" d="M70.9,192.1c0.9-0.9,2.5-2.4,2.5-3.6c0-0.7-0.4-1-0.9-1c-0.6,0-0.9,0.3-1.2,0.5l-0.3-0.4
		c0.3-0.4,0.8-0.7,1.5-0.7c0.9,0,1.6,0.5,1.6,1.4c0,1.2-1.3,2.5-2.3,3.5c0,0,0.3,0,0.6,0h1.8v0.5h-3.3V192.1z"/>
	<path class="st0" d="M114.7,191.2h-2.5v-0.5l2.4-3.6h0.6v3.6h0.8v0.5h-0.8v1.2h-0.6V191.2z M113.5,190.7h1.2V188h0l-1.8,2.8
		C113,190.7,113.3,190.7,113.5,190.7z"/>
	<path class="st0" d="M154.6,190.3c0-2,1.2-3.3,3.1-3.3l0.1,0.5c-0.8,0-1.4,0.2-1.9,0.6c-0.4,0.4-0.6,0.9-0.7,1.6
		c0.3-0.3,0.7-0.5,1.2-0.5c1,0,1.6,0.7,1.6,1.6s-0.6,1.7-1.7,1.7C155.1,192.5,154.6,191.4,154.6,190.3z M157.4,190.9
		c0-0.8-0.4-1.2-1.1-1.2c-0.5,0-0.8,0.2-1.1,0.5v0.1c0,1.1,0.4,1.8,1.2,1.8C157.1,192,157.4,191.4,157.4,190.9z"/>
	<path class="st0" d="M197.3,191.2c0-0.7,0.7-1.2,1.1-1.5c-0.5-0.3-1-0.7-1-1.3c0-0.8,0.7-1.3,1.5-1.3c0.9,0,1.5,0.5,1.5,1.3
		c0,0.7-0.6,1-1.1,1.3c0.5,0.3,1.2,0.7,1.2,1.5c0,0.8-0.6,1.4-1.6,1.4C197.8,192.5,197.3,191.9,197.3,191.2z M199.9,191.1
		c0-0.6-0.6-1-1.1-1.2c-0.4,0.2-0.9,0.6-0.9,1.2c0,0.5,0.3,0.9,1,0.9C199.6,192,199.9,191.6,199.9,191.1z M199.8,188.3
		c0-0.4-0.3-0.8-0.8-0.8s-0.9,0.3-0.9,0.8c0,0.5,0.5,0.8,0.9,1C199.4,189.1,199.8,188.8,199.8,188.3z"/>
	<path class="st0" d="M234.2,187.7l-1,0.3l-0.1-0.5l1.3-0.4h0.5v5.3h-0.6V187.7z M236,189.8c0-1.3,0.5-2.8,2-2.8c1.4,0,2,1.4,2,2.8
		s-0.6,2.8-2,2.8C236.6,192.5,236,191.1,236,189.8z M239.4,189.8c0-1.3-0.4-2.3-1.4-2.3c-1,0-1.4,1-1.4,2.3s0.4,2.3,1.4,2.3
		C239,192,239.4,191,239.4,189.8z"/>
	<path class="st0" d="M18.6,50.9h-2.5v-0.5l2.4-3.6h0.6v3.6h0.8v0.5h-0.8v1.2h-0.6V50.9z M17.4,50.4h1.2v-2.7h0l-1.8,2.8
		C16.9,50.4,17.2,50.4,17.4,50.4z M20.6,51.7c0-0.3,0.2-0.5,0.5-0.5s0.5,0.2,0.5,0.5s-0.2,0.5-0.5,0.5S20.6,52,20.6,51.7z
		 M22.4,49.5c0-1.3,0.5-2.8,2-2.8c1.4,0,2,1.4,2,2.8s-0.6,2.8-2,2.8C23,52.2,22.4,50.8,22.4,49.5z M25.8,49.5c0-1.3-0.4-2.3-1.4-2.3
		c-1,0-1.4,1-1.4,2.3s0.4,2.3,1.4,2.3C25.4,51.7,25.8,50.7,25.8,49.5z"/>
	<path class="st0" d="M16.8,85.1l0.1-0.5c0.1,0,0.3,0.1,0.7,0.1c1,0,1.5-0.4,1.5-1.1c0-0.8-0.7-1.1-1.7-1.1V82
		c0.8,0,1.6-0.4,1.6-1.1c0-0.4-0.3-0.7-0.9-0.7c-0.5,0-0.8,0.2-1.1,0.4l-0.3-0.4c0.3-0.2,0.8-0.5,1.4-0.5c1,0,1.5,0.5,1.5,1.2
		c0,0.7-0.6,1.1-1.2,1.3v0c0.7,0.1,1.3,0.6,1.3,1.4c0,1.1-0.9,1.7-2.1,1.7C17.1,85.2,16.9,85.1,16.8,85.1z M20.6,84.7
		c0-0.3,0.2-0.5,0.5-0.5s0.5,0.2,0.5,0.5s-0.2,0.5-0.5,0.5S20.6,84.9,20.6,84.7z M22.4,82.4c0-1.3,0.5-2.8,2-2.8c1.4,0,2,1.4,2,2.8
		s-0.6,2.8-2,2.8C23,85.2,22.4,83.7,22.4,82.4z M25.8,82.4c0-1.3-0.4-2.3-1.4-2.3c-1,0-1.4,1-1.4,2.3s0.4,2.3,1.4,2.3
		C25.4,84.7,25.8,83.7,25.8,82.4z"/>
	<path class="st0" d="M16.5,118.1c0.9-0.9,2.5-2.4,2.5-3.6c0-0.7-0.4-1-0.9-1c-0.6,0-0.9,0.3-1.2,0.5l-0.3-0.4
		c0.3-0.4,0.8-0.7,1.5-0.7c0.9,0,1.6,0.5,1.6,1.4c0,1.2-1.3,2.5-2.3,3.5c0,0,0.3,0,0.6,0h1.8v0.5h-3.3V118.1z M20.6,118
		c0-0.3,0.2-0.5,0.5-0.5s0.5,0.2,0.5,0.5s-0.2,0.5-0.5,0.5S20.6,118.3,20.6,118z M22.4,115.7c0-1.3,0.5-2.8,2-2.8c1.4,0,2,1.4,2,2.8
		s-0.6,2.8-2,2.8C23,118.5,22.4,117,22.4,115.7z M25.8,115.7c0-1.3-0.4-2.3-1.4-2.3c-1,0-1.4,1-1.4,2.3s0.4,2.3,1.4,2.3
		C25.4,118,25.8,117,25.8,115.7z"/>
	<path class="st0" d="M18.8,144.4l-1,0.3l-0.1-0.5l1.3-0.4h0.5v5.3h-0.6V144.4z M20.6,148.8c0-0.3,0.2-0.5,0.5-0.5s0.5,0.2,0.5,0.5
		s-0.2,0.5-0.5,0.5S20.6,149.1,20.6,148.8z M22.4,146.6c0-1.3,0.5-2.8,2-2.8c1.4,0,2,1.4,2,2.8s-0.6,2.8-2,2.8
		C23,149.3,22.4,147.9,22.4,146.6z M25.8,146.6c0-1.3-0.4-2.3-1.4-2.3c-1,0-1.4,1-1.4,2.3s0.4,2.3,1.4,2.3
		C25.4,148.8,25.8,147.8,25.8,146.6z"/>
	<path class="st1" d="M34.5,41.6c1.4,0,2.5-1.1,2.5-2.5c0-1.4-1.1-2.5-2.5-2.5c-1.4,0-2.5,1.1-2.5,2.5C32,40.5,33.1,41.6,34.5,41.6"
		/>
	<path class="st1" d="M118.3,26.7c1.4,0,2.5-1.1,2.5-2.5c0-1.4-1.1-2.5-2.5-2.5c-1.4,0-2.5,1.1-2.5,2.5
		C115.8,25.6,116.9,26.7,118.3,26.7"/>
	<path class="st1" d="M176.3,144c1.4,0,2.5-1.1,2.5-2.5c0-1.4-1.1-2.5-2.5-2.5c-1.4,0-2.5,1.1-2.5,2.5
		C173.8,142.8,174.9,144,176.3,144"/>
	<line class="st2" x1="29.8" y1="17.1" x2="239.2" y2="17.1"/>
	<line class="st2" x1="30.3" y1="16.5" x2="30.3" y2="179.5"/>
	<line class="st2" x1="72.4" y1="16.5" x2="72.4" y2="179.5"/>
	<line class="st2" x1="114.2" y1="16.5" x2="114.2" y2="179.5"/>
	<line class="st2" x1="155.6" y1="16.5" x2="155.6" y2="179.5"/>
	<line class="st2" x1="198" y1="16.5" x2="198" y2="179.5"/>
	<line class="st2" x1="239" y1="16.5" x2="239" y2="179.5"/>
	<line class="st2" x1="29.8" y1="49.6" x2="239.2" y2="49.6"/>
	<line class="st2" x1="29.8" y1="82.2" x2="239.2" y2="82.2"/>
	<line class="st2" x1="29.8" y1="114.7" x2="239.2" y2="114.7"/>
	<line class="st2" x1="29.8" y1="147.2" x2="239.2" y2="147.2"/>
	<line class="st2" x1="29.8" y1="179.8" x2="239.2" y2="179.8"/>
	<path class="st0" d="M41.2,35.2l0.4-0.6c0.1,0.1,0.6,0.6,1.5,0.6c0.8,0,1.4-0.5,1.4-1.1c0-0.8-0.8-1.1-1.5-1.5
		c-0.8-0.4-1.5-0.8-1.5-1.9c0-1.1,0.9-1.7,1.9-1.7c1,0,1.5,0.4,1.7,0.5l-0.4,0.6c-0.2-0.2-0.7-0.5-1.4-0.5c-0.7,0-1.2,0.4-1.2,1
		c0,0.7,0.5,1,1.2,1.3c0.9,0.4,1.9,0.9,1.9,2.2c0,1-0.9,1.8-2.2,1.8C42.1,35.9,41.4,35.4,41.2,35.2z M46,34.1c0-0.8,0.4-1.3,1.4-1.9
		c-0.6-0.6-0.8-1.1-0.8-1.7c0-0.9,0.7-1.5,1.8-1.5c0.9,0,1.6,0.6,1.6,1.4c0,0.7-0.5,1.2-1.5,1.8l1.7,1.9c0.3-0.4,0.4-0.9,0.5-1.5
		l0.7,0.1c-0.1,0.7-0.4,1.4-0.8,1.9l1.1,1.2h-1l-0.6-0.6c-0.5,0.5-1.2,0.8-1.9,0.8C46.8,35.9,46,35,46,34.1z M49.7,34.6l-1.9-2
		c-0.6,0.4-1,0.8-1,1.4c0,0.7,0.5,1.2,1.5,1.2C48.8,35.2,49.3,35,49.7,34.6z M49.2,30.4c0-0.4-0.3-0.8-0.9-0.8c-0.6,0-1,0.4-1,0.9
		c0,0.4,0.2,0.7,0.7,1.3C48.9,31.4,49.2,30.9,49.2,30.4z M52.7,29.1h1.7c1.3,0,2.3,0.6,2.3,1.9c0,1.3-0.9,2-2.4,2h-0.8v2.7h-0.8
		V29.1z M54.2,32.4c1.2,0,1.6-0.5,1.6-1.4c0-0.8-0.4-1.3-1.6-1.3h-0.8v2.6H54.2z M62.3,28.6H63l-3.2,8.8h-0.7L62.3,28.6z M65.9,29.1
		h0.8v6h2.6v0.7h-3.4V29.1z M70,35.2l0.4-0.6c0.1,0.1,0.6,0.6,1.5,0.6c0.8,0,1.4-0.5,1.4-1.1c0-0.8-0.8-1.1-1.5-1.5
		c-0.8-0.4-1.5-0.8-1.5-1.9c0-1.1,0.9-1.7,1.9-1.7c1,0,1.5,0.4,1.7,0.5l-0.4,0.6c-0.2-0.2-0.7-0.5-1.4-0.5c-0.7,0-1.2,0.4-1.2,1
		c0,0.7,0.5,1,1.2,1.3c0.9,0.4,1.9,0.9,1.9,2.2c0,1-0.9,1.8-2.2,1.8C70.9,35.9,70.2,35.4,70,35.2z M76.5,29.8h-1.9v-0.7h4.6v0.7
		h-1.9v6h-0.8V29.8z M81.7,29.1h0.8l2.6,6.7h-0.8l-0.6-1.6h-3l-0.6,1.6h-0.8L81.7,29.1z M83.3,33.4l-0.8-2.3
		c-0.2-0.6-0.3-0.8-0.4-1.1h0c-0.1,0.3-0.2,0.6-0.4,1.1l-0.8,2.3H83.3z"/>
	<g>
		<path class="st0" d="M41.7,40.1h0.8v6h2.6v0.7h-3.4V40.1z"/>
	</g>
	<g>
		<path class="st0" d="M45.6,44.3c0-1.4,0.9-2.5,2.2-2.5c1.2,0,1.9,0.8,1.9,2.2c0,0.1,0,0.2,0,0.3h-3.2c0,1,0.4,1.9,1.5,1.9
			c0.7,0,1.1-0.3,1.3-0.4l0.3,0.6c-0.2,0.2-0.8,0.5-1.6,0.5C46.3,46.9,45.6,45.7,45.6,44.3z M48.9,43.8c0-0.7-0.3-1.3-1.2-1.3
			c-0.8,0-1.2,0.5-1.3,1.3H48.9z"/>
		<path class="st0" d="M50.1,42h0.8l1.4,3.8h0l1.3-3.8h0.8l-1.8,4.8h-0.7L50.1,42z"/>
		<path class="st0" d="M54.7,44.3c0-1.4,0.9-2.5,2.2-2.5c1.2,0,1.9,0.8,1.9,2.2c0,0.1,0,0.2,0,0.3h-3.2c0,1,0.4,1.9,1.5,1.9
			c0.7,0,1.1-0.3,1.3-0.4l0.3,0.6c-0.2,0.2-0.8,0.5-1.6,0.5C55.4,46.9,54.7,45.7,54.7,44.3z M58,43.8c0-0.7-0.3-1.3-1.2-1.3
			c-0.8,0-1.2,0.5-1.3,1.3H58z"/>
		<path class="st0" d="M59.8,42h0.7v0.8c0.2-0.3,0.6-0.9,1.3-0.9c0.3,0,0.4,0.1,0.5,0.1l-0.2,0.7c-0.1,0-0.2-0.1-0.4-0.1
			c-0.7,0-1.1,0.8-1.2,1v3.2h-0.7V42z"/>
		<path class="st0" d="M62.7,45.6c0-1.3,1.4-1.6,2.6-1.6h0.2v-0.5c0-0.7-0.3-1-1-1c-0.4,0-0.8,0.1-1.2,0.5l-0.4-0.5
			c0.5-0.4,1-0.7,1.7-0.7c1,0,1.6,0.5,1.6,1.6v2.2c0,0.5,0,0.9,0.1,1.1h-0.7c0-0.1-0.1-0.4-0.1-0.6c-0.3,0.4-0.8,0.7-1.4,0.7
			C63.3,46.9,62.7,46.4,62.7,45.6z M65.5,45.6v-1.1h-0.2c-1,0-1.8,0.3-1.8,1.1c0,0.5,0.4,0.7,0.7,0.7C64.7,46.2,65.1,46,65.5,45.6z"
			/>
		<path class="st0" d="M67.2,47.8c0-0.5,0.3-1,0.8-1.2c-0.3-0.1-0.4-0.3-0.4-0.7c0-0.3,0.2-0.6,0.5-0.8c-0.5-0.3-0.8-0.8-0.8-1.5
			c0-1,0.8-1.8,1.9-1.8c0.3,0,0.5,0,0.8,0.1h1.6v0.6h-0.7c0.2,0.3,0.3,0.7,0.3,1.1c0,1-0.8,1.8-1.9,1.8c-0.2,0-0.4,0-0.5-0.1
			c-0.2,0.1-0.3,0.2-0.3,0.4c0,0.3,0.3,0.4,0.7,0.4c1,0.1,2.5,0,2.5,1.5c0,1-1.1,1.6-2.4,1.6C68,49.1,67.2,48.7,67.2,47.8z
			 M70.7,47.6c0-0.8-0.7-0.8-1.2-0.8c-0.3,0-0.6,0-0.9-0.1c-0.4,0.3-0.6,0.6-0.6,1c0,0.5,0.4,0.8,1.2,0.8
			C70.1,48.5,70.7,48.2,70.7,47.6z M70.3,43.6c0-0.7-0.4-1.2-1.2-1.2S68,42.9,68,43.6s0.4,1.2,1.2,1.2S70.3,44.3,70.3,43.6z"/>
		<path class="st0" d="M72,44.3c0-1.4,0.9-2.5,2.2-2.5c1.2,0,1.9,0.8,1.9,2.2c0,0.1,0,0.2,0,0.3h-3.2c0,1,0.4,1.9,1.5,1.9
			c0.7,0,1.1-0.3,1.3-0.4l0.3,0.6c-0.2,0.2-0.8,0.5-1.6,0.5C72.7,46.9,72,45.7,72,44.3z M75.3,43.8c0-0.7-0.3-1.3-1.2-1.3
			c-0.8,0-1.2,0.5-1.3,1.3H75.3z"/>
		<path class="st0" d="M76.7,44.4c0-1.5,0.9-2.5,2.1-2.5c0.5,0,0.9,0.1,1.2,0.4v-2.7h0.7v6.2c0,0.3,0.1,0.7,0.1,1h-0.7
			c0-0.1-0.1-0.4-0.1-0.6c-0.3,0.4-0.8,0.7-1.4,0.7C77.5,46.9,76.7,46,76.7,44.4z M80,45.6v-2.6c-0.3-0.3-0.7-0.4-1.1-0.4
			c-0.9,0-1.4,0.8-1.4,1.9c0,1.1,0.4,1.9,1.3,1.9C79.3,46.2,79.7,46,80,45.6z"/>
	</g>
	<g>
		<path class="st0" d="M41.7,51.1h0.8v6h2.6v0.7h-3.4V51.1z"/>
		<path class="st0" d="M45.5,55.4c0-1.1,0.6-2.5,2.2-2.5s2.3,1.4,2.3,2.5c0,1.1-0.6,2.5-2.3,2.5S45.5,56.5,45.5,55.4z M49.2,55.4
			c0-1-0.5-1.9-1.5-1.9c-1,0-1.4,0.8-1.4,1.9c0,1,0.5,1.9,1.4,1.9C48.7,57.2,49.2,56.4,49.2,55.4z"/>
		<path class="st0" d="M50.6,56.6c0-1.3,1.4-1.6,2.6-1.6h0.2v-0.5c0-0.7-0.3-1-1-1c-0.4,0-0.8,0.1-1.2,0.5l-0.4-0.5
			c0.5-0.4,1-0.7,1.7-0.7c1,0,1.6,0.5,1.6,1.6v2.2c0,0.5,0,0.9,0.1,1.1h-0.7c0-0.1-0.1-0.4-0.1-0.6c-0.3,0.4-0.8,0.7-1.4,0.7
			C51.2,57.9,50.6,57.4,50.6,56.6z M53.4,56.6v-1.1h-0.2c-1,0-1.8,0.3-1.8,1.1c0,0.5,0.4,0.7,0.7,0.7C52.6,57.2,53.1,57,53.4,56.6z"
			/>
		<path class="st0" d="M55.5,53h0.7v0.7c0.4-0.5,1-0.8,1.6-0.8c1,0,1.4,0.7,1.4,1.5v3.4h-0.7v-3.3c0-0.6-0.2-1-0.8-1
			c-0.5,0-1,0.4-1.4,0.9v3.4h-0.7V53z"/>
		<path class="st0" d="M62.9,51.1h0.8v6.7h-0.8V51.1z"/>
		<path class="st0" d="M65.3,53H66v0.7c0.4-0.5,1-0.8,1.6-0.8c1,0,1.4,0.7,1.4,1.5v3.4h-0.7v-3.3c0-0.6-0.2-1-0.8-1
			c-0.5,0-1,0.4-1.4,0.9v3.4h-0.7V53z"/>
		<path class="st0" d="M70,55.4c0-1.5,0.9-2.5,2.1-2.5c0.5,0,0.9,0.1,1.2,0.4v-2.7h0.7v6.2c0,0.3,0.1,0.7,0.1,1h-0.7
			c0-0.1-0.1-0.4-0.1-0.6c-0.3,0.4-0.8,0.7-1.4,0.7C70.8,57.9,70,57,70,55.4z M73.3,56.6v-2.6c-0.3-0.3-0.7-0.4-1.1-0.4
			c-0.9,0-1.4,0.8-1.4,1.9c0,1.1,0.4,1.9,1.3,1.9C72.6,57.2,73,57,73.3,56.6z"/>
		<path class="st0" d="M75,55.3c0-1.4,0.9-2.5,2.2-2.5c1.2,0,1.9,0.8,1.9,2.2c0,0.1,0,0.2,0,0.3h-3.2c0,1,0.4,1.9,1.5,1.9
			c0.7,0,1.1-0.3,1.3-0.4l0.3,0.6c-0.2,0.2-0.8,0.5-1.6,0.5C75.8,57.9,75,56.7,75,55.3z M78.3,54.8c0-0.7-0.3-1.3-1.2-1.3
			c-0.8,0-1.2,0.5-1.3,1.3H78.3z"/>
		<path class="st0" d="M81.2,55.2L79.6,53h0.8c0,0,1.1,1.6,1.2,1.7l1.1-1.7h0.8L82,55.2l1.7,2.6h-0.8l-1.3-2l-1.2,2h-0.8L81.2,55.2z
			"/>
		<path class="st0" d="M84.7,54.1l0.8-1.1l-1.4-0.4l0.2-0.5l1.3,0.5l0-1.4h0.6l0,1.4l1.3-0.5l0.2,0.5L86.4,53l0.8,1.1l-0.5,0.3
			L86,53.3l-0.8,1.2L84.7,54.1z"/>
	</g>
	<g>
		<path class="st0" d="M125.5,26.6v-4.2h0.8v4.1c0,1.4,0.6,2,1.8,2c1.2,0,1.8-0.8,1.8-1.9v-4.2h0.7v4.1c0,1.6-0.8,2.6-2.5,2.6
			C126.2,29.2,125.5,28.2,125.5,26.6z"/>
		<path class="st0" d="M131.6,28.6c0-0.3,0.3-0.6,0.6-0.6c0.3,0,0.6,0.3,0.6,0.6s-0.3,0.6-0.6,0.6C131.9,29.2,131.6,28.9,131.6,28.6
			z"/>
		<path class="st0" d="M133.6,28.5L134,28c0.2,0.1,0.6,0.6,1.5,0.6c0.8,0,1.4-0.5,1.4-1.1c0-0.8-0.8-1.1-1.5-1.5
			c-0.8-0.4-1.5-0.8-1.5-1.9c0-1.1,0.9-1.7,1.9-1.7c1,0,1.5,0.4,1.7,0.5l-0.4,0.6c-0.2-0.2-0.7-0.5-1.4-0.5c-0.7,0-1.2,0.4-1.2,1
			c0,0.7,0.5,1,1.2,1.3c0.9,0.4,1.9,0.9,1.9,2.2c0,1-0.9,1.8-2.2,1.8C134.5,29.2,133.9,28.8,133.6,28.5z"/>
		<path class="st0" d="M138.5,28.6c0-0.3,0.3-0.6,0.6-0.6s0.6,0.3,0.6,0.6s-0.3,0.6-0.6,0.6S138.5,28.9,138.5,28.6z"/>
		<path class="st0" d="M143.1,22.4h0.8v2.8h3.8v-2.8h0.8v6.7h-0.8v-3.2h-3.8v3.2h-0.8V22.4z"/>
		<path class="st0" d="M151.7,26.6l-2.2-4.1h0.9l1.8,3.4h0l1.8-3.4h0.8l-2.2,4.1v2.5h-0.8V26.6z"/>
	</g>
	<g>
		<path class="st0" d="M182.7,96.4v-4.2h0.8v4.1c0,1.4,0.6,2,1.8,2c1.2,0,1.8-0.8,1.8-1.9v-4.2h0.7v4.1c0,1.6-0.8,2.6-2.5,2.6
			C183.5,99,182.7,98,182.7,96.4z"/>
		<path class="st0" d="M188.9,98.4c0-0.3,0.3-0.6,0.6-0.6s0.6,0.3,0.6,0.6s-0.3,0.6-0.6,0.6S188.9,98.7,188.9,98.4z"/>
		<path class="st0" d="M190.9,98.3l0.4-0.6c0.1,0.1,0.6,0.6,1.5,0.6c0.8,0,1.4-0.5,1.4-1.1c0-0.8-0.8-1.2-1.5-1.5
			c-0.8-0.4-1.5-0.8-1.5-1.9c0-1.1,0.9-1.7,1.9-1.7c1,0,1.5,0.4,1.7,0.5l-0.4,0.6c-0.2-0.2-0.7-0.5-1.4-0.5c-0.7,0-1.2,0.4-1.2,1
			c0,0.7,0.5,1,1.2,1.3c0.9,0.4,1.9,0.9,1.9,2.2c0,1-0.9,1.8-2.2,1.8C191.8,99,191.1,98.6,190.9,98.3z"/>
		<path class="st0" d="M195.8,98.4c0-0.3,0.3-0.6,0.6-0.6c0.3,0,0.6,0.3,0.6,0.6s-0.3,0.6-0.6,0.6C196.1,99,195.8,98.7,195.8,98.4z"
			/>
		<path class="st0" d="M200.5,92.2h0.8v6.7h-0.8V92.2z"/>
		<path class="st0" d="M202.7,95.5c0-1.8,1.2-3.4,3.3-3.4c0.9,0,1.6,0.2,2.1,0.6l-0.4,0.6c-0.5-0.4-1-0.6-1.7-0.6
			c-1.7,0-2.5,1.3-2.5,2.8c0,1.4,0.8,2.8,2.5,2.8c0.7,0,1.3-0.2,1.6-0.4v-1.9h-1.4v-0.7h2.2v2.9c-0.5,0.4-1.4,0.7-2.4,0.7
			C203.9,99,202.7,97.3,202.7,95.5z"/>
	</g>
	<path class="st1" d="M209,106.1c1.4,0,2.5-1.1,2.5-2.5c0-1.4-1.1-2.5-2.5-2.5c-1.4,0-2.5,1.1-2.5,2.5
		C206.5,104.9,207.7,106.1,209,106.1"/>
	<g>
		<path class="st0" d="M113.3,141.4v-4.2h0.8v4.1c0,1.4,0.6,2,1.8,2c1.2,0,1.8-0.8,1.8-1.9v-4.2h0.7v4.1c0,1.6-0.8,2.6-2.5,2.6
			C114.1,144,113.3,143,113.3,141.4z"/>
		<path class="st0" d="M119.4,143.4c0-0.3,0.3-0.6,0.6-0.6s0.6,0.3,0.6,0.6s-0.3,0.6-0.6,0.6S119.4,143.7,119.4,143.4z"/>
		<path class="st0" d="M121.4,143.3l0.4-0.6c0.1,0.1,0.6,0.6,1.5,0.6c0.8,0,1.4-0.5,1.4-1.1c0-0.8-0.8-1.2-1.5-1.5
			c-0.8-0.4-1.5-0.8-1.5-1.9c0-1.1,0.9-1.7,1.9-1.7c1,0,1.5,0.4,1.7,0.5l-0.4,0.6c-0.2-0.2-0.7-0.5-1.4-0.5c-0.7,0-1.2,0.4-1.2,1
			c0,0.7,0.5,1,1.2,1.3c0.9,0.4,1.9,0.9,1.9,2.2c0,1-0.9,1.8-2.2,1.8C122.3,144,121.6,143.6,121.4,143.3z"/>
		<path class="st0" d="M126.2,143.4c0-0.3,0.3-0.6,0.6-0.6s0.6,0.3,0.6,0.6s-0.3,0.6-0.6,0.6S126.2,143.7,126.2,143.4z"/>
		<path class="st0" d="M131.9,137.9H130v-0.7h4.6v0.7h-1.9v6h-0.8V137.9z"/>
		<path class="st0" d="M134.9,139.1h0.7v0.8c0.2-0.3,0.6-0.9,1.3-0.9c0.3,0,0.4,0.1,0.5,0.1l-0.2,0.7c0,0-0.2-0.1-0.4-0.1
			c-0.7,0-1.1,0.8-1.2,1v3.2h-0.7V139.1z"/>
		<path class="st0" d="M137.7,141.5c0-1.4,0.9-2.5,2.2-2.5c1.2,0,1.9,0.8,1.9,2.2c0,0.1,0,0.2,0,0.3h-3.2c0,1,0.4,1.9,1.5,1.9
			c0.7,0,1.1-0.3,1.3-0.4l0.3,0.6c-0.2,0.2-0.8,0.5-1.6,0.5C138.5,144,137.7,142.9,137.7,141.5z M141,140.9c0-0.7-0.3-1.3-1.2-1.3
			c-0.8,0-1.2,0.5-1.3,1.3H141z"/>
		<path class="st0" d="M142.5,142.7c0-1.3,1.4-1.7,2.6-1.7h0.2v-0.4c0-0.7-0.3-1-1-1c-0.4,0-0.8,0.1-1.2,0.5l-0.4-0.5
			c0.5-0.4,1-0.7,1.7-0.7c1,0,1.6,0.5,1.6,1.6v2.2c0,0.5,0,0.9,0.1,1.1h-0.7c0-0.1-0.1-0.4-0.1-0.6c-0.3,0.4-0.8,0.7-1.4,0.7
			C143,144,142.5,143.5,142.5,142.7z M145.2,142.7v-1.1H145c-1,0-1.8,0.3-1.8,1.1c0,0.5,0.4,0.7,0.7,0.7
			C144.5,143.4,144.9,143.1,145.2,142.7z"/>
		<path class="st0" d="M147,143.6l0.3-0.6c0.2,0.1,0.6,0.4,1.2,0.4c0.6,0,1-0.2,1-0.7s-0.4-0.6-1.1-0.9c-0.8-0.3-1.3-0.7-1.3-1.5
			c0-0.7,0.6-1.3,1.5-1.3c0.8,0,1.3,0.3,1.4,0.5l-0.4,0.5c-0.2-0.1-0.5-0.4-1.1-0.4c-0.5,0-0.8,0.2-0.8,0.7c0,0.4,0.4,0.6,0.9,0.9
			c0.8,0.3,1.5,0.7,1.5,1.5c0,0.9-0.7,1.4-1.7,1.4C147.8,144,147.3,143.8,147,143.6z"/>
		<path class="st0" d="M151.2,142.5v-3.4h0.7v3.3c0,0.6,0.2,1,0.9,1c0.7,0,1.3-0.7,1.4-0.9v-3.4h0.7v3.8c0,0.4,0,0.8,0.1,1h-0.7
			c0-0.1-0.1-0.5-0.1-0.7c-0.2,0.3-0.7,0.8-1.6,0.8C151.6,144,151.2,143.3,151.2,142.5z"/>
		<path class="st0" d="M156.3,139.1h0.7v0.8c0.2-0.3,0.6-0.9,1.3-0.9c0.3,0,0.4,0.1,0.5,0.1l-0.2,0.7c0,0-0.2-0.1-0.4-0.1
			c-0.7,0-1.1,0.8-1.2,1v3.2h-0.7V139.1z"/>
		<path class="st0" d="M159.5,137.7c0-0.3,0.2-0.5,0.5-0.5s0.5,0.2,0.5,0.5c0,0.3-0.2,0.5-0.5,0.5S159.5,138,159.5,137.7z
			 M159.7,139.1h0.7v4.8h-0.7V139.1z"/>
		<path class="st0" d="M161.5,141.5c0-1.4,0.9-2.5,2.2-2.5c1.2,0,1.9,0.8,1.9,2.2c0,0.1,0,0.2,0,0.3h-3.2c0,1,0.4,1.9,1.5,1.9
			c0.7,0,1.1-0.3,1.3-0.4l0.3,0.6c-0.2,0.2-0.8,0.5-1.6,0.5C162.2,144,161.5,142.9,161.5,141.5z M164.8,140.9c0-0.7-0.3-1.3-1.2-1.3
			c-0.8,0-1.2,0.5-1.3,1.3H164.8z"/>
		<path class="st0" d="M166.2,143.6l0.3-0.6c0.2,0.1,0.6,0.4,1.2,0.4c0.6,0,1-0.2,1-0.7s-0.4-0.6-1.1-0.9c-0.7-0.3-1.3-0.7-1.3-1.5
			c0-0.7,0.6-1.3,1.5-1.3c0.8,0,1.3,0.3,1.4,0.5l-0.4,0.5c-0.2-0.1-0.5-0.4-1.1-0.4c-0.5,0-0.8,0.2-0.8,0.7c0,0.4,0.4,0.6,0.9,0.9
			c0.8,0.3,1.5,0.7,1.5,1.5c0,0.9-0.7,1.4-1.7,1.4C167,144,166.5,143.8,166.2,143.6z"/>
	</g>
</g>
</svg>
