<?xml version="1.0" encoding="utf-8"?>
<!-- Generator: Adobe Illustrator 26.0.1, SVG Export Plug-In . SVG Version: 6.00 Build 0)  -->
<svg version="1.1" id="Layer_3" xmlns="http://www.w3.org/2000/svg" xmlns:xlink="http://www.w3.org/1999/xlink" x="0px" y="0px"
	 viewBox="0 0 250 250" style="enable-background:new 0 0 250 250;" xml:space="preserve">
<style type="text/css">
	.st0{fill:#4D4D4F;}
	.st1{fill:none;stroke:#B19E4E;stroke-width:1.6;}
	.st2{fill:none;stroke:#5C5B59;stroke-width:1.6;}
	.st3{fill:none;stroke:#BCBEC0;stroke-width:0.5;}
	.st4{fill:#B19E4E;}
	.st5{fill:none;stroke:#5C5B59;stroke-linecap:round;stroke-linejoin:round;stroke-miterlimit:10;}
</style>
<g>
	<g>
		<path class="st0" d="M0.6,235.3l0.7-0.9L0.1,234l0.1-0.4l1.1,0.4l0-1.1h0.5l0,1.1l1.1-0.4L3,234l-1.1,0.3l0.7,0.9l-0.4,0.3l-0.7-1
			l-0.7,1L0.6,235.3z"/>
		<path class="st0" d="M3.6,237.7l0.3-0.4c0.1,0.1,0.5,0.5,1.2,0.5c0.7,0,1.1-0.4,1.1-0.9c0-0.6-0.6-0.9-1.2-1.2
			c-0.6-0.3-1.2-0.7-1.2-1.5c0-0.9,0.7-1.4,1.6-1.4c0.8,0,1.2,0.3,1.4,0.4l-0.3,0.5c-0.2-0.1-0.5-0.4-1.1-0.4
			c-0.5,0-0.9,0.3-0.9,0.8c0,0.5,0.4,0.8,1,1c0.7,0.3,1.5,0.7,1.5,1.7c0,0.8-0.7,1.4-1.7,1.4C4.3,238.2,3.8,237.9,3.6,237.7z"/>
	</g>
	<g>
		<path class="st0" d="M7.8,237v-2.7h0.6v2.6c0,0.5,0.2,0.8,0.7,0.8c0.6,0,1-0.6,1.1-0.7v-2.7h0.6v3c0,0.3,0,0.7,0.1,0.8h-0.6
			c0-0.1,0-0.4-0.1-0.6c-0.2,0.2-0.6,0.7-1.2,0.7C8.1,238.2,7.8,237.7,7.8,237z"/>
		<path class="st0" d="M11.5,236.2c0-1.3,0.8-2,1.8-2c0.6,0,1,0.2,1.2,0.4l-0.3,0.4c-0.2-0.2-0.5-0.3-0.9-0.3
			c-0.8,0-1.1,0.7-1.1,1.5c0,0.8,0.4,1.5,1.2,1.5c0.5,0,0.8-0.2,0.9-0.3l0.2,0.4c-0.2,0.1-0.5,0.4-1.2,0.4
			C12.2,238.2,11.5,237.3,11.5,236.2z"/>
		<path class="st0" d="M14.9,236.2c0-1.3,0.8-2,1.8-2c0.6,0,1,0.2,1.2,0.4l-0.3,0.4c-0.2-0.2-0.5-0.3-0.9-0.3
			c-0.8,0-1.1,0.7-1.1,1.5c0,0.8,0.4,1.5,1.2,1.5c0.5,0,0.8-0.2,0.9-0.3l0.2,0.4c-0.2,0.1-0.5,0.4-1.2,0.4
			C15.5,238.2,14.9,237.3,14.9,236.2z"/>
		<path class="st0" d="M18.3,236.2c0-1.1,0.7-2,1.7-2c1,0,1.5,0.7,1.5,1.7c0,0.1,0,0.2,0,0.3h-2.6c0,0.8,0.3,1.5,1.2,1.5
			c0.5,0,0.9-0.2,1.1-0.3l0.2,0.5c-0.2,0.1-0.6,0.4-1.3,0.4C18.9,238.2,18.3,237.3,18.3,236.2z M20.9,235.7c0-0.5-0.3-1-0.9-1
			c-0.6,0-1,0.4-1.1,1H20.9z"/>
		<path class="st0" d="M22,236.2c0-1.1,0.7-2,1.7-2c1,0,1.5,0.7,1.5,1.7c0,0.1,0,0.2,0,0.3h-2.6c0,0.8,0.3,1.5,1.2,1.5
			c0.5,0,0.9-0.2,1.1-0.3l0.2,0.5c-0.2,0.1-0.6,0.4-1.3,0.4C22.7,238.2,22,237.3,22,236.2z M24.7,235.7c0-0.5-0.3-1-0.9-1
			c-0.6,0-1,0.4-1.1,1H24.7z"/>
		<path class="st0" d="M25.8,236.2c0-1.2,0.7-2,1.7-2c0.4,0,0.7,0.1,1,0.3v-2.2h0.6v5c0,0.3,0,0.6,0.1,0.8h-0.6
			c0-0.1-0.1-0.3-0.1-0.4c-0.3,0.3-0.6,0.5-1.1,0.5C26.5,238.2,25.8,237.5,25.8,236.2z M28.5,237.2v-2.1c-0.2-0.2-0.5-0.4-0.9-0.4
			c-0.7,0-1.1,0.6-1.1,1.5c0,0.9,0.3,1.5,1.1,1.5C27.9,237.7,28.2,237.5,28.5,237.2z"/>
		<path class="st0" d="M29.8,236.2c0-1.1,0.7-2,1.7-2c1,0,1.5,0.7,1.5,1.7c0,0.1,0,0.2,0,0.3h-2.6c0,0.8,0.3,1.5,1.2,1.5
			c0.5,0,0.9-0.2,1.1-0.3l0.2,0.5c-0.2,0.1-0.6,0.4-1.3,0.4C30.4,238.2,29.8,237.3,29.8,236.2z M32.5,235.7c0-0.5-0.3-1-0.9-1
			c-0.6,0-1,0.4-1.1,1H32.5z"/>
		<path class="st0" d="M33.6,236.2c0-1.2,0.7-2,1.7-2c0.4,0,0.7,0.1,1,0.3v-2.2h0.6v5c0,0.3,0,0.6,0.1,0.8h-0.6
			c0-0.1-0.1-0.3-0.1-0.4c-0.3,0.3-0.6,0.5-1.1,0.5C34.3,238.2,33.6,237.5,33.6,236.2z M36.3,237.2v-2.1c-0.2-0.2-0.5-0.4-0.9-0.4
			c-0.7,0-1.1,0.6-1.1,1.5c0,0.9,0.3,1.5,1.1,1.5C35.7,237.7,36,237.5,36.3,237.2z"/>
		<path class="st0" d="M39.6,237.9v-5.6h0.6v2.2c0.2-0.2,0.6-0.4,1-0.4c1,0,1.7,0.8,1.7,2c0,1.2-0.8,2-1.9,2
			C40.3,238.2,39.9,238.1,39.6,237.9z M42.2,236.2c0-0.8-0.3-1.5-1.1-1.5c-0.3,0-0.7,0.2-0.8,0.4v2.5c0.2,0.1,0.4,0.1,0.7,0.1
			C41.7,237.7,42.2,237,42.2,236.2z"/>
		<path class="st0" d="M43.1,240l0.1-0.5c0.1,0,0.1,0,0.3,0c0.5,0,0.8-0.3,1-0.9l0.2-0.5l-1.4-3.8h0.7l1.1,3.1h0l1.1-3.1h0.6
			l-1.6,4.3c-0.3,0.7-0.6,1.3-1.5,1.3C43.2,240,43.1,240,43.1,240z"/>
		<path class="st0" d="M48.6,237.7l0.3-0.4c0.1,0.1,0.5,0.5,1.2,0.5c0.7,0,1.1-0.4,1.1-0.9c0-0.6-0.6-0.9-1.2-1.2
			c-0.6-0.3-1.2-0.7-1.2-1.5c0-0.9,0.7-1.4,1.6-1.4c0.8,0,1.2,0.3,1.4,0.4l-0.3,0.5c-0.2-0.1-0.5-0.4-1.1-0.4
			c-0.5,0-0.9,0.3-0.9,0.8c0,0.5,0.4,0.8,1,1c0.7,0.3,1.5,0.7,1.5,1.7c0,0.8-0.7,1.4-1.7,1.4C49.3,238.2,48.8,237.9,48.6,237.7z"/>
		<path class="st0" d="M52.5,235.5c0-1.5,1-2.8,2.6-2.8c1.6,0,2.6,1.3,2.6,2.8c0,1.5-1,2.8-2.6,2.8S52.5,237,52.5,235.5z
			 M57.1,235.5c0-1.2-0.7-2.2-2-2.2c-1.3,0-2,1-2,2.2s0.7,2.2,2,2.2C56.4,237.7,57.1,236.7,57.1,235.5z"/>
		<path class="st0" d="M58.7,232.8h2.8v0.5h-2.2v1.7h1.9v0.5h-1.9v2.6h-0.6V232.8z"/>
		<path class="st0" d="M62.5,232.8H64c1.1,0,1.8,0.5,1.8,1.4c0,0.9-0.6,1.3-1.5,1.4v0c0.1,0.1,0.2,0.2,0.6,0.7l1.3,1.8h-0.7
			l-1.1-1.5c-0.6-0.9-0.7-0.9-1.1-0.9h-0.1v2.5h-0.6V232.8z M63.9,235.2c0.8,0,1.2-0.3,1.2-0.9c0-0.6-0.4-0.9-1.2-0.9h-0.8v1.8H63.9
			z"/>
	</g>
	<g>
		<path class="st0" d="M9.3,212.9h1.4c1,0,1.7,0.4,1.7,1.3c0,0.6-0.4,1-1,1.2v0c0.7,0.1,1.2,0.6,1.2,1.3c0,1.1-0.8,1.5-2,1.5H9.3
			V212.9z M10.6,215.2c0.8,0,1.2-0.3,1.2-0.9c0-0.6-0.4-0.8-1.2-0.8H9.9v1.8H10.6z M10.6,217.7c0.9,0,1.4-0.3,1.4-1
			c0-0.6-0.3-1-1.3-1H9.9v2H10.6z"/>
	</g>
	<g>
		<path class="st0" d="M13.6,212.4h0.6v5.8h-0.6V212.4z"/>
		<path class="st0" d="M15,216.3c0-0.9,0.5-2,1.8-2s1.8,1.1,1.8,2c0,0.9-0.5,2-1.8,2S15,217.2,15,216.3z M18,216.3
			c0-0.8-0.4-1.5-1.2-1.5c-0.8,0-1.1,0.7-1.1,1.5c0,0.8,0.4,1.5,1.2,1.5S18,217.1,18,216.3z"/>
		<path class="st0" d="M19.1,216.3c0-0.9,0.5-2,1.8-2c1.3,0,1.8,1.1,1.8,2c0,0.9-0.5,2-1.8,2S19.1,217.2,19.1,216.3z M22.1,216.3
			c0-0.8-0.4-1.5-1.2-1.5c-0.8,0-1.1,0.7-1.1,1.5c0,0.8,0.4,1.5,1.2,1.5C21.7,217.8,22.1,217.1,22.1,216.3z"/>
		<path class="st0" d="M23.5,214.4h0.6v0.5c0.2-0.2,0.5-0.6,1.2-0.6c0.6,0,0.9,0.3,1,0.6c0.3-0.3,0.7-0.6,1.2-0.6
			c0.8,0,1.1,0.5,1.1,1.2v2.7H28v-2.6c0-0.5-0.1-0.8-0.6-0.8c-0.5,0-0.8,0.4-1,0.6v2.8h-0.6v-2.6c0-0.5-0.2-0.8-0.6-0.8
			c-0.6,0-1,0.6-1,0.7v2.7h-0.6V214.4z"/>
		<path class="st0" d="M29.7,218v-5.6h0.6v2.2c0.2-0.2,0.6-0.4,1-0.4c1,0,1.7,0.8,1.7,2c0,1.2-0.8,2-1.9,2
			C30.4,218.3,29.9,218.2,29.7,218z M32.2,216.3c0-0.8-0.3-1.5-1.1-1.5c-0.3,0-0.7,0.2-0.8,0.4v2.5c0.2,0.1,0.4,0.1,0.7,0.1
			C31.8,217.8,32.2,217,32.2,216.3z"/>
		<path class="st0" d="M33.3,216.2c0-1.1,0.7-2,1.7-2c1,0,1.5,0.7,1.5,1.7c0,0.1,0,0.2,0,0.3H34c0,0.8,0.3,1.5,1.2,1.5
			c0.5,0,0.9-0.2,1.1-0.3l0.2,0.5c-0.2,0.1-0.6,0.4-1.3,0.4C34,218.3,33.3,217.4,33.3,216.2z M36,215.8c0-0.5-0.3-1-0.9-1
			c-0.6,0-1,0.4-1.1,1H36z"/>
		<path class="st0" d="M37.4,214.4H38v0.6c0.2-0.3,0.5-0.7,1-0.7c0.2,0,0.4,0.1,0.4,0.1l-0.1,0.6c0,0-0.1-0.1-0.3-0.1
			c-0.6,0-0.9,0.7-0.9,0.8v2.6h-0.6V214.4z"/>
		<path class="st0" d="M39.7,219c0-0.4,0.3-0.8,0.7-1c-0.2-0.1-0.3-0.3-0.3-0.6c0-0.3,0.2-0.5,0.4-0.6c-0.4-0.2-0.7-0.7-0.7-1.2
			c0-0.8,0.6-1.4,1.5-1.4c0.2,0,0.4,0,0.6,0.1h1.2v0.5h-0.6c0.2,0.2,0.3,0.5,0.3,0.8c0,0.8-0.6,1.4-1.5,1.4c-0.2,0-0.3,0-0.4,0
			c-0.2,0.1-0.3,0.2-0.3,0.3c0,0.2,0.2,0.3,0.5,0.3c0.8,0,2,0,2,1.2c0,0.8-0.9,1.3-1.9,1.3C40.4,220.1,39.7,219.8,39.7,219z
			 M42.5,218.8c0-0.6-0.5-0.6-1-0.6c-0.2,0-0.5,0-0.7-0.1c-0.4,0.2-0.5,0.5-0.5,0.8c0,0.4,0.3,0.7,1,0.7
			C42,219.6,42.5,219.3,42.5,218.8z M42.2,215.7c0-0.5-0.3-0.9-0.9-0.9c-0.6,0-0.9,0.4-0.9,0.9c0,0.5,0.3,0.9,0.9,0.9
			C41.8,216.6,42.2,216.2,42.2,215.7z"/>
		<path class="st0" d="M45.6,212.9h2.8v0.5h-2.2v1.7h1.9v0.5h-1.9v2.6h-0.6V212.9z"/>
		<path class="st0" d="M49.4,212.9h1.4c1.1,0,1.8,0.5,1.8,1.4c0,0.9-0.6,1.3-1.5,1.4v0c0.1,0.1,0.2,0.2,0.6,0.7l1.3,1.8h-0.7
			l-1.1-1.5c-0.6-0.9-0.7-0.9-1.1-0.9H50v2.5h-0.6V212.9z M50.8,215.2c0.8,0,1.2-0.3,1.2-0.9c0-0.6-0.4-0.9-1.2-0.9H50v1.8H50.8z"/>
		<path class="st0" d="M53.8,212.9h0.6l2.5,3.6c0.2,0.4,0.4,0.6,0.5,0.8h0c0-0.1,0-0.3,0-0.7v-3.7H58v5.3h-0.6l-2.6-3.8
			c-0.2-0.2-0.3-0.5-0.4-0.7h0c0,0.1,0,0.3,0,0.6v3.9h-0.6V212.9z"/>
		<path class="st0" d="M60.4,216.2l2-1.8l0.3,0.3l-1.6,1.4l1.6,1.4l-0.3,0.4L60.4,216.2z"/>
	</g>
	<path class="st0" d="M63.2,218.2l0.1-0.5c0.1,0,0.2,0,0.5,0c0.9,0,1.7-0.4,1.7-1.3c0-0.9-0.7-1.2-1.6-1.2c-0.2,0-0.4,0-0.4,0
		l0.2-2.5h2.4v0.5h-1.8l-0.1,1.4c1.3,0,2,0.6,2,1.6c0,1.2-1,1.8-2.4,1.8C63.4,218.3,63.3,218.3,63.2,218.2z"/>
	<g>
		<path class="st0" d="M66.3,220l0.1-0.5c0.1,0,0.1,0,0.3,0c0.5,0,0.8-0.3,1-0.9l0.2-0.5l-1.4-3.8h0.7l1.1,3.1h0l1.1-3.1h0.6
			l-1.6,4.3c-0.3,0.7-0.6,1.3-1.5,1.3C66.5,220,66.4,220,66.3,220z"/>
		<path class="st0" d="M70.5,214.4h0.6v0.6c0.2-0.3,0.5-0.7,1-0.7c0.2,0,0.4,0.1,0.4,0.1l-0.1,0.6c0,0-0.1-0.1-0.3-0.1
			c-0.6,0-0.9,0.7-0.9,0.8v2.6h-0.6V214.4z"/>
		<path class="st0" d="M74.9,212.9h0.6v5.3h-0.6V212.9z"/>
		<path class="st0" d="M76.9,214.4h0.6v0.6c0.3-0.4,0.8-0.6,1.2-0.6c0.8,0,1.1,0.5,1.1,1.2v2.7h-0.6v-2.6c0-0.5-0.2-0.8-0.7-0.8
			c-0.4,0-0.8,0.3-1.1,0.7v2.7h-0.6V214.4z"/>
		<path class="st0" d="M80.6,216.3c0-1.2,0.7-2,1.7-2c0.4,0,0.7,0.1,1,0.3v-2.2h0.6v5c0,0.3,0,0.6,0.1,0.8h-0.6
			c0-0.1-0.1-0.3-0.1-0.4c-0.3,0.3-0.6,0.5-1.1,0.5C81.3,218.3,80.6,217.6,80.6,216.3z M83.3,217.2v-2.1c-0.2-0.2-0.5-0.4-0.9-0.4
			c-0.7,0-1.1,0.6-1.1,1.5c0,0.9,0.3,1.5,1.1,1.5C82.7,217.8,83,217.6,83.3,217.2z"/>
		<path class="st0" d="M84.6,216.2c0-1.1,0.7-2,1.7-2c1,0,1.5,0.7,1.5,1.7c0,0.1,0,0.2,0,0.3h-2.6c0,0.8,0.3,1.5,1.2,1.5
			c0.5,0,0.9-0.2,1.1-0.3l0.2,0.5c-0.2,0.1-0.6,0.4-1.3,0.4C85.3,218.3,84.6,217.4,84.6,216.2z M87.3,215.8c0-0.5-0.3-1-0.9-1
			c-0.6,0-1,0.4-1.1,1H87.3z"/>
		<path class="st0" d="M89.6,216.2l-1.2-1.8H89c0,0,0.9,1.3,0.9,1.4l0.9-1.4h0.6l-1.2,1.8l1.4,2h-0.7l-1.1-1.6l-1,1.6h-0.6
			L89.6,216.2z"/>
		<path class="st0" d="M95.2,216.2l-1.8-3.3h0.7l1.4,2.7h0l1.4-2.7h0.6l-1.7,3.3v2h-0.6V216.2z"/>
		<path class="st0" d="M98,213.2c0-0.2,0.2-0.4,0.4-0.4c0.2,0,0.4,0.2,0.4,0.4c0,0.2-0.2,0.4-0.4,0.4C98.2,213.6,98,213.4,98,213.2z
			 M98.1,214.4h0.6v3.8h-0.6V214.4z"/>
		<path class="st0" d="M99.6,216.2c0-1.1,0.7-2,1.7-2c1,0,1.5,0.7,1.5,1.7c0,0.1,0,0.2,0,0.3h-2.6c0,0.8,0.3,1.5,1.2,1.5
			c0.5,0,0.9-0.2,1.1-0.3l0.2,0.5c-0.2,0.1-0.6,0.4-1.3,0.4C100.2,218.3,99.6,217.4,99.6,216.2z M102.3,215.8c0-0.5-0.3-1-0.9-1
			c-0.6,0-1,0.4-1.1,1H102.3z"/>
		<path class="st0" d="M103.7,212.4h0.6v5.8h-0.6V212.4z"/>
		<path class="st0" d="M105.1,216.3c0-1.2,0.7-2,1.7-2c0.4,0,0.7,0.1,1,0.3v-2.2h0.6v5c0,0.3,0,0.6,0.1,0.8h-0.6
			c0-0.1-0.1-0.3-0.1-0.4c-0.3,0.3-0.6,0.5-1.1,0.5C105.8,218.3,105.1,217.6,105.1,216.3z M107.8,217.2v-2.1
			c-0.2-0.2-0.5-0.4-0.9-0.4c-0.7,0-1.1,0.6-1.1,1.5c0,0.9,0.3,1.5,1.1,1.5C107.2,217.8,107.6,217.6,107.8,217.2z"/>
		<path class="st0" d="M109.3,215.6h1.6v0.5h-1.6V215.6z"/>
		<path class="st0" d="M112.5,213.4h-1.5v-0.5h3.7v0.5h-1.5v4.8h-0.6V213.4z"/>
		<path class="st0" d="M114.4,216.3c0-0.9,0.5-2,1.8-2s1.8,1.1,1.8,2c0,0.9-0.5,2-1.8,2C114.9,218.3,114.4,217.2,114.4,216.3z
			 M117.4,216.3c0-0.8-0.4-1.5-1.2-1.5c-0.8,0-1.1,0.7-1.1,1.5c0,0.8,0.4,1.5,1.2,1.5C117,217.8,117.4,217.1,117.4,216.3z"/>
		<path class="st0" d="M118.6,215.6h1.6v0.5h-1.6V215.6z"/>
		<path class="st0" d="M120.4,212.9h0.7l0.9,3.6c0.1,0.4,0.2,0.9,0.2,0.9h0c0,0,0.1-0.5,0.2-0.9l1-3.6h0.6l1,3.5
			c0.1,0.4,0.2,0.9,0.2,0.9h0c0,0,0.1-0.5,0.2-0.9l0.9-3.5h0.6l-1.5,5.3H125l-1-3.6c-0.1-0.4-0.2-1-0.2-1h0c0,0-0.1,0.6-0.3,1
			l-1.1,3.6h-0.6L120.4,212.9z"/>
		<path class="st0" d="M127.1,216.3c0-0.9,0.5-2,1.8-2c1.3,0,1.8,1.1,1.8,2c0,0.9-0.5,2-1.8,2C127.6,218.3,127.1,217.2,127.1,216.3z
			 M130.1,216.3c0-0.8-0.4-1.5-1.2-1.5c-0.8,0-1.1,0.7-1.1,1.5c0,0.8,0.4,1.5,1.2,1.5C129.7,217.8,130.1,217.1,130.1,216.3z"/>
		<path class="st0" d="M131.5,214.4h0.6v0.6c0.2-0.3,0.5-0.7,1-0.7c0.2,0,0.4,0.1,0.4,0.1l-0.1,0.6c0,0-0.1-0.1-0.3-0.1
			c-0.6,0-0.9,0.7-0.9,0.8v2.6h-0.6V214.4z"/>
		<path class="st0" d="M133.8,217.9l0.3-0.4c0.1,0.1,0.5,0.3,1,0.3c0.5,0,0.8-0.2,0.8-0.6s-0.3-0.5-0.8-0.7
			c-0.6-0.3-1.1-0.5-1.1-1.2c0-0.6,0.4-1.1,1.2-1.1c0.6,0,1,0.3,1.1,0.4l-0.3,0.4c-0.1-0.1-0.4-0.3-0.9-0.3c-0.4,0-0.6,0.2-0.6,0.5
			c0,0.4,0.3,0.5,0.7,0.7c0.6,0.3,1.2,0.5,1.2,1.2c0,0.7-0.5,1.1-1.4,1.1C134.5,218.3,134,218.1,133.8,217.9z"/>
		<path class="st0" d="M137.4,217.3v-2.5h-0.6v-0.5h0.6v-1.1h0.6v1.1h1v0.5h-1v2.4c0,0.4,0.1,0.6,0.4,0.6c0.2,0,0.5-0.1,0.5-0.2
			l0.2,0.4c-0.1,0.1-0.4,0.2-0.8,0.2C137.7,218.3,137.4,217.9,137.4,217.3z"/>
		<path class="st0" d="M141.3,216c0-1.3,0.6-2.6,1.4-3.5h0.6c-0.7,0.7-1.4,1.9-1.4,3.5c0,1.5,0.5,2.7,1.4,3.7h-0.6
			C141.8,218.6,141.3,217.3,141.3,216z"/>
	</g>
	<path class="st0" d="M143.3,214.1c0-0.6,0.4-1.3,1.4-1.3c1,0,1.4,0.7,1.4,1.3c0,0.6-0.4,1.3-1.4,1.3
		C143.7,215.5,143.3,214.7,143.3,214.1z M145.5,214.1c0-0.5-0.3-0.9-0.9-0.9s-0.9,0.4-0.9,0.9c0,0.5,0.3,0.9,0.9,0.9
		C145.2,215,145.5,214.6,145.5,214.1z M147.8,212.9h0.6l-3.4,5.3h-0.6L147.8,212.9z M146.6,216.9c0-0.6,0.4-1.3,1.4-1.3
		c1,0,1.4,0.7,1.4,1.3c0,0.6-0.4,1.3-1.4,1.3C147,218.2,146.6,217.5,146.6,216.9z M148.9,216.9c0-0.5-0.3-0.9-0.9-0.9
		s-0.9,0.4-0.9,0.9c0,0.5,0.3,0.9,0.9,0.9C148.5,217.8,148.9,217.4,148.9,216.9z"/>
	<g>
		<path class="st0" d="M150.9,216.1c0-1.5-0.5-2.7-1.4-3.7h0.6c0.9,1,1.4,2.3,1.4,3.7c0,1.4-0.6,2.6-1.4,3.5h-0.6
			C150.2,218.9,150.9,217.7,150.9,216.1z"/>
	</g>
	<line class="st1" x1="0" y1="215.7" x2="6" y2="215.7"/>
	<g>
		<path class="st0" d="M8.7,222.2h2.7v0.5H9.4v1.7h1.9v0.5H9.4v2h2.2v0.5H8.7V222.2z"/>
	</g>
	<g>
		<path class="st0" d="M12.7,224.1H12v-0.5h0.7v-0.5c0-0.9,0.5-1.5,1.5-1.5c0.6,0,0.9,0.2,1,0.3c0.2-0.2,0.6-0.4,1-0.4
			c0.4,0,0.6,0.1,0.6,0.1l-0.2,0.5c0,0-0.2-0.1-0.5-0.1c-0.5,0-0.8,0.3-0.8,1v0.5h1v0.5h-1v3.4h-0.6v-3.4h-1.5v3.4h-0.6V224.1z
			 M14.8,223.6v-0.6c0-0.2,0-0.4,0.1-0.6c-0.1-0.1-0.3-0.2-0.8-0.2c-0.5,0-0.9,0.3-0.9,1.1v0.3H14.8z"/>
		<path class="st0" d="M16.7,225.5c0-1.1,0.7-2,1.7-2c1,0,1.5,0.7,1.5,1.7c0,0.1,0,0.2,0,0.3h-2.6c0,0.8,0.3,1.5,1.2,1.5
			c0.5,0,0.9-0.2,1.1-0.3l0.2,0.5c-0.2,0.1-0.6,0.4-1.3,0.4C17.3,227.6,16.7,226.7,16.7,225.5z M19.4,225.1c0-0.5-0.3-1-0.9-1
			c-0.6,0-1,0.4-1.1,1H19.4z"/>
		<path class="st0" d="M20.5,225.6c0-1.3,0.8-2,1.8-2c0.6,0,1,0.2,1.2,0.4l-0.3,0.4c-0.2-0.2-0.5-0.3-0.9-0.3
			c-0.8,0-1.1,0.7-1.1,1.5c0,0.8,0.4,1.5,1.2,1.5c0.5,0,0.8-0.2,0.9-0.3l0.2,0.4c-0.2,0.1-0.5,0.4-1.2,0.4
			C21.1,227.6,20.5,226.6,20.5,225.6z"/>
		<path class="st0" d="M24.4,226.6v-2.5h-0.6v-0.5h0.6v-1.1H25v1.1h1v0.5h-1v2.4c0,0.4,0.1,0.6,0.4,0.6c0.2,0,0.5-0.1,0.5-0.2
			l0.2,0.4c-0.1,0.1-0.4,0.2-0.8,0.2C24.7,227.6,24.4,227.2,24.4,226.6z"/>
		<path class="st0" d="M26.8,222.5c0-0.2,0.2-0.4,0.4-0.4s0.4,0.2,0.4,0.4c0,0.2-0.2,0.4-0.4,0.4S26.8,222.7,26.8,222.5z
			 M26.9,223.6h0.6v3.8h-0.6V223.6z"/>
		<path class="st0" d="M28.2,223.6h0.6l1.1,3.1h0l1.1-3.1h0.6l-1.4,3.8h-0.5L28.2,223.6z"/>
		<path class="st0" d="M31.9,225.5c0-1.1,0.7-2,1.7-2c1,0,1.5,0.7,1.5,1.7c0,0.1,0,0.2,0,0.3h-2.6c0,0.8,0.3,1.5,1.2,1.5
			c0.5,0,0.9-0.2,1.1-0.3l0.2,0.5c-0.2,0.1-0.6,0.4-1.3,0.4C32.5,227.6,31.9,226.7,31.9,225.5z M34.5,225.1c0-0.5-0.3-1-0.9-1
			c-0.6,0-1,0.4-1.1,1H34.5z"/>
		<path class="st0" d="M37.7,222.2h2.8v0.5h-2.2v1.7h1.9v0.5h-1.9v2.6h-0.6V222.2z"/>
		<path class="st0" d="M40.9,225.5c0-1.1,0.7-2,1.7-2c1,0,1.5,0.7,1.5,1.7c0,0.1,0,0.2,0,0.3h-2.6c0,0.8,0.3,1.5,1.2,1.5
			c0.5,0,0.9-0.2,1.1-0.3l0.2,0.5c-0.2,0.1-0.6,0.4-1.3,0.4C41.5,227.6,40.9,226.7,40.9,225.5z M43.6,225.1c0-0.5-0.3-1-0.9-1
			c-0.6,0-1,0.4-1.1,1H43.6z"/>
		<path class="st0" d="M44.7,225.6c0-1.2,0.7-2,1.7-2c0.4,0,0.7,0.1,1,0.3v-2.2H48v5c0,0.3,0,0.6,0.1,0.8h-0.6
			c0-0.1-0.1-0.3-0.1-0.4c-0.3,0.3-0.6,0.5-1.1,0.5C45.4,227.6,44.7,226.9,44.7,225.6z M47.4,226.5v-2.1c-0.2-0.2-0.5-0.4-0.9-0.4
			c-0.7,0-1.1,0.6-1.1,1.5c0,0.9,0.3,1.5,1.1,1.5C46.8,227.1,47.1,226.9,47.4,226.5z"/>
		<path class="st0" d="M50.8,222.2h2.8v0.5h-2.2v1.7h1.9v0.5h-1.9v2.6h-0.6V222.2z"/>
		<path class="st0" d="M54.2,226.4v-2.7h0.6v2.6c0,0.5,0.2,0.8,0.7,0.8c0.6,0,1-0.6,1.1-0.7v-2.7h0.6v3c0,0.3,0,0.7,0.1,0.8h-0.6
			c0-0.1,0-0.4-0.1-0.6c-0.2,0.2-0.6,0.7-1.2,0.7C54.6,227.6,54.2,227,54.2,226.4z"/>
		<path class="st0" d="M58.4,223.6h0.6v0.6c0.3-0.4,0.8-0.6,1.2-0.6c0.8,0,1.1,0.5,1.1,1.2v2.7h-0.6v-2.6c0-0.5-0.2-0.8-0.7-0.8
			c-0.4,0-0.8,0.3-1.1,0.7v2.7h-0.6V223.6z"/>
		<path class="st0" d="M62.1,225.6c0-1.2,0.7-2,1.7-2c0.4,0,0.7,0.1,1,0.3v-2.2h0.6v5c0,0.3,0,0.6,0.1,0.8h-0.6
			c0-0.1-0.1-0.3-0.1-0.4c-0.3,0.3-0.6,0.5-1.1,0.5C62.8,227.6,62.1,226.9,62.1,225.6z M64.8,226.5v-2.1c-0.2-0.2-0.5-0.4-0.9-0.4
			c-0.7,0-1.1,0.6-1.1,1.5c0,0.9,0.3,1.5,1.1,1.5C64.2,227.1,64.5,226.9,64.8,226.5z"/>
		<path class="st0" d="M66.2,227.2l0.3-0.4c0.1,0.1,0.5,0.3,1,0.3c0.5,0,0.8-0.2,0.8-0.6s-0.3-0.5-0.8-0.7c-0.6-0.3-1.1-0.5-1.1-1.2
			c0-0.6,0.4-1.1,1.2-1.1c0.6,0,1,0.3,1.1,0.4l-0.3,0.4c-0.1-0.1-0.4-0.3-0.9-0.3c-0.4,0-0.6,0.2-0.6,0.5c0,0.4,0.3,0.5,0.7,0.7
			c0.6,0.3,1.2,0.5,1.2,1.2c0,0.7-0.5,1.1-1.4,1.1C66.8,227.6,66.4,227.4,66.2,227.2z"/>
		<path class="st0" d="M71.4,222.2h1.4c1.1,0,1.8,0.5,1.8,1.4c0,0.9-0.6,1.3-1.5,1.4v0c0.1,0.1,0.2,0.2,0.6,0.7l1.3,1.8h-0.7
			l-1.1-1.5c-0.6-0.9-0.7-0.9-1.1-0.9H72v2.5h-0.6V222.2z M72.8,224.5c0.8,0,1.2-0.3,1.2-0.9c0-0.6-0.4-0.9-1.2-0.9H72v1.8H72.8z"/>
		<path class="st0" d="M75.3,226.6c0-1,1.1-1.3,2-1.3h0.2v-0.4c0-0.6-0.2-0.8-0.8-0.8c-0.4,0-0.7,0.1-1,0.4l-0.3-0.4
			c0.4-0.4,0.8-0.5,1.4-0.5c0.8,0,1.3,0.4,1.3,1.3v1.8c0,0.4,0,0.7,0.1,0.9h-0.6c0-0.1,0-0.3-0.1-0.5c-0.3,0.3-0.7,0.6-1.2,0.6
			C75.8,227.6,75.3,227.2,75.3,226.6z M77.6,226.5v-0.9h-0.2c-0.8,0-1.4,0.2-1.4,0.9c0,0.4,0.3,0.5,0.6,0.5
			C77,227.1,77.3,226.9,77.6,226.5z"/>
		<path class="st0" d="M79.4,226.6v-2.5h-0.6v-0.5h0.6v-1.1H80v1.1h1v0.5h-1v2.4c0,0.4,0.1,0.6,0.4,0.6c0.2,0,0.5-0.1,0.5-0.2
			l0.2,0.4c-0.1,0.1-0.4,0.2-0.8,0.2C79.7,227.6,79.4,227.2,79.4,226.6z"/>
		<path class="st0" d="M81.5,225.5c0-1.1,0.7-2,1.7-2c1,0,1.5,0.7,1.5,1.7c0,0.1,0,0.2,0,0.3h-2.6c0,0.8,0.3,1.5,1.2,1.5
			c0.5,0,0.9-0.2,1.1-0.3l0.2,0.5c-0.2,0.1-0.6,0.4-1.3,0.4C82.1,227.6,81.5,226.7,81.5,225.5z M84.1,225.1c0-0.5-0.3-1-0.9-1
			c-0.6,0-1,0.4-1.1,1H84.1z"/>
		<path class="st0" d="M87,225.2c0-1.3,0.6-2.6,1.4-3.5H89c-0.7,0.7-1.4,1.9-1.4,3.5c0,1.5,0.5,2.7,1.4,3.7h-0.6
			C87.6,227.9,87,226.6,87,225.2z"/>
	</g>
	<path class="st0" d="M89,223.4c0-0.6,0.4-1.3,1.4-1.3c1,0,1.4,0.7,1.4,1.3c0,0.6-0.4,1.3-1.4,1.3C89.4,224.8,89,224,89,223.4z
		 M91.2,223.4c0-0.5-0.3-0.9-0.9-0.9s-0.9,0.4-0.9,0.9c0,0.5,0.3,0.9,0.9,0.9C90.9,224.3,91.2,223.9,91.2,223.4z M93.5,222.2H94
		l-3.4,5.3h-0.6L93.5,222.2z M92.3,226.2c0-0.6,0.4-1.3,1.4-1.3c1,0,1.4,0.7,1.4,1.3c0,0.6-0.4,1.3-1.4,1.3
		C92.7,227.5,92.3,226.8,92.3,226.2z M94.6,226.2c0-0.5-0.3-0.9-0.9-0.9s-0.9,0.4-0.9,0.9c0,0.5,0.3,0.9,0.9,0.9
		C94.2,227.1,94.6,226.7,94.6,226.2z"/>
	<g>
		<path class="st0" d="M96.6,225.4c0-1.5-0.5-2.7-1.4-3.7h0.6c0.9,1,1.4,2.3,1.4,3.7c0,1.4-0.6,2.6-1.4,3.5h-0.6
			C95.9,228.2,96.6,227,96.6,225.4z"/>
	</g>
	<line class="st2" x1="0" y1="225.3" x2="6" y2="225.3"/>
</g>
<line class="st3" x1="28.6" y1="16.1" x2="231.6" y2="16.1"/>
<line class="st3" x1="28.6" y1="54" x2="231.6" y2="54"/>
<line class="st3" x1="28.6" y1="91.7" x2="231.6" y2="91.7"/>
<line class="st3" x1="28.6" y1="91.8" x2="231.6" y2="91.8"/>
<line class="st3" x1="28.6" y1="130.1" x2="231.6" y2="130.1"/>
<line class="st3" x1="28.6" y1="167.6" x2="231.6" y2="167.6"/>
<g>
	<path class="st0" d="M19.3,174.7H20l2.5,3.6c0.2,0.4,0.4,0.6,0.5,0.8h0c0-0.1,0-0.3,0-0.7v-3.7h0.6v5.3h-0.6l-2.6-3.8
		c-0.2-0.2-0.3-0.5-0.4-0.7h0c0,0.1,0,0.3,0,0.6v3.9h-0.6V174.7z"/>
</g>
<g>
	<path class="st0" d="M24.7,178.1c0-0.9,0.5-2,1.8-2s1.8,1.1,1.8,2s-0.5,2-1.8,2C25.2,180.1,24.7,179,24.7,178.1z M27.7,178.1
		c0-0.8-0.4-1.5-1.2-1.5c-0.8,0-1.1,0.7-1.1,1.5s0.4,1.5,1.2,1.5C27.3,179.6,27.7,178.9,27.7,178.1z"/>
	<path class="st0" d="M28.7,176.2h0.6l1.1,3.1h0l1.1-3.1h0.6l-1.4,3.8h-0.5L28.7,176.2z"/>
</g>
<path class="st0" d="M32.8,177h1.6v0.5h-1.6V177z M36.3,175.3l-1,0.3l-0.1-0.5l1.3-0.4h0.5v5.3h-0.6V175.3z M38.1,177.9
	c0-2,1.2-3.3,3.1-3.3l0.1,0.5c-0.8,0-1.4,0.2-1.9,0.6c-0.4,0.4-0.6,0.9-0.7,1.6c0.3-0.3,0.7-0.5,1.2-0.5c1,0,1.6,0.7,1.6,1.6
	s-0.6,1.7-1.7,1.7C38.7,180.1,38.1,178.9,38.1,177.9z M41,178.5c0-0.8-0.4-1.2-1.1-1.2c-0.5,0-0.8,0.2-1.1,0.5v0.1
	c0,1.1,0.4,1.8,1.2,1.8C40.7,179.6,41,179,41,178.5z"/>
<g>
	<path class="st0" d="M59.1,174.7h0.6l2.5,3.6c0.2,0.4,0.4,0.6,0.5,0.8h0c0-0.1,0-0.3,0-0.7v-3.7h0.6v5.3h-0.6l-2.6-3.8
		c-0.2-0.2-0.3-0.5-0.4-0.7h0c0,0.1,0,0.3,0,0.6v3.9h-0.6V174.7z"/>
</g>
<g>
	<path class="st0" d="M64.5,178.1c0-0.9,0.5-2,1.8-2s1.8,1.1,1.8,2s-0.5,2-1.8,2S64.5,179,64.5,178.1z M67.4,178.1
		c0-0.8-0.4-1.5-1.2-1.5c-0.8,0-1.1,0.7-1.1,1.5s0.4,1.5,1.2,1.5C67,179.6,67.4,178.9,67.4,178.1z"/>
	<path class="st0" d="M68.5,176.2h0.6l1.1,3.1h0l1.1-3.1h0.6l-1.4,3.8h-0.5L68.5,176.2z"/>
</g>
<path class="st0" d="M72.6,177h1.6v0.5h-1.6V177z M76,175.3l-1,0.3l-0.1-0.5l1.3-0.4h0.5v5.3H76V175.3z M78.2,180l1.9-4.8h-2.4v-0.5
	h3v0.4l-2,5.1L78.2,180z"/>
<g>
	<path class="st0" d="M98.9,174.7h0.6l2.5,3.6c0.2,0.4,0.4,0.6,0.5,0.8h0c0-0.1,0-0.3,0-0.7v-3.7h0.6v5.3h-0.6l-2.6-3.8
		c-0.2-0.2-0.3-0.5-0.4-0.7h0c0,0.1,0,0.3,0,0.6v3.9h-0.6V174.7z"/>
</g>
<g>
	<path class="st0" d="M104.3,178.1c0-0.9,0.5-2,1.8-2s1.8,1.1,1.8,2s-0.5,2-1.8,2C104.8,180.1,104.3,179,104.3,178.1z M107.3,178.1
		c0-0.8-0.4-1.5-1.2-1.5c-0.8,0-1.1,0.7-1.1,1.5s0.4,1.5,1.2,1.5C106.9,179.6,107.3,178.9,107.3,178.1z"/>
	<path class="st0" d="M108.3,176.2h0.6l1.1,3.1h0l1.1-3.1h0.6l-1.4,3.8h-0.5L108.3,176.2z"/>
</g>
<path class="st0" d="M112.4,177h1.6v0.5h-1.6V177z M115.9,175.3l-1,0.3l-0.1-0.5l1.3-0.4h0.5v5.3h-0.6V175.3z M117.7,178.7
	c0-0.7,0.7-1.2,1.1-1.5c-0.5-0.3-1-0.7-1-1.3c0-0.8,0.7-1.3,1.5-1.3c0.9,0,1.5,0.5,1.5,1.3c0,0.7-0.6,1-1.1,1.3
	c0.5,0.3,1.2,0.7,1.2,1.5c0,0.8-0.6,1.4-1.6,1.4C118.2,180.1,117.7,179.5,117.7,178.7z M120.3,178.7c0-0.6-0.6-1-1.1-1.2
	c-0.4,0.2-0.9,0.6-0.9,1.2c0,0.5,0.3,0.9,1,0.9C119.9,179.6,120.3,179.2,120.3,178.7z M120.2,175.9c0-0.4-0.3-0.8-0.8-0.8
	s-0.9,0.3-0.9,0.8c0,0.5,0.5,0.8,0.9,1C119.7,176.7,120.2,176.4,120.2,175.9z"/>
<g>
	<path class="st0" d="M138.2,174.7h0.6l2.5,3.6c0.2,0.4,0.4,0.6,0.5,0.8h0c0-0.1,0-0.3,0-0.7v-3.7h0.6v5.3h-0.6l-2.6-3.8
		c-0.2-0.2-0.3-0.5-0.4-0.7h0c0,0.1,0,0.3,0,0.6v3.9h-0.6V174.7z"/>
</g>
<g>
	<path class="st0" d="M143.5,178.1c0-0.9,0.5-2,1.8-2c1.3,0,1.8,1.1,1.8,2s-0.5,2-1.8,2C144,180.1,143.5,179,143.5,178.1z
		 M146.5,178.1c0-0.8-0.4-1.5-1.2-1.5c-0.8,0-1.1,0.7-1.1,1.5s0.4,1.5,1.2,1.5C146.1,179.6,146.5,178.9,146.5,178.1z"/>
	<path class="st0" d="M147.6,176.2h0.6l1.1,3.1h0l1.1-3.1h0.6l-1.4,3.8H149L147.6,176.2z"/>
</g>
<path class="st0" d="M151.6,177h1.6v0.5h-1.6V177z M155.1,175.3l-1,0.3l-0.1-0.5l1.3-0.4h0.5v5.3h-0.6V175.3z M157.2,179.7
	c0.8,0,1.5-0.2,1.9-0.8c0.3-0.4,0.5-0.8,0.6-1.5c-0.3,0.3-0.7,0.5-1.2,0.5c-1,0-1.6-0.7-1.6-1.6s0.6-1.7,1.7-1.7
	c1.3,0,1.8,1.2,1.8,2.3c0,2-1,3.3-3,3.3L157.2,179.7z M159.7,177v-0.1c0-1.1-0.4-1.8-1.2-1.8c-0.7,0-1,0.6-1,1.2
	c0,0.8,0.4,1.2,1.1,1.2C159.1,177.4,159.4,177.3,159.7,177z"/>
<g>
	<path class="st0" d="M176.9,174.7h0.6l2.5,3.6c0.2,0.4,0.4,0.6,0.5,0.8h0c0-0.1,0-0.3,0-0.7v-3.7h0.6v5.3h-0.6l-2.6-3.8
		c-0.2-0.2-0.3-0.5-0.4-0.7h0c0,0.1,0,0.3,0,0.6v3.9h-0.6V174.7z"/>
</g>
<g>
	<path class="st0" d="M182.3,178.1c0-0.9,0.5-2,1.8-2c1.3,0,1.8,1.1,1.8,2s-0.5,2-1.8,2S182.3,179,182.3,178.1z M185.3,178.1
		c0-0.8-0.4-1.5-1.2-1.5s-1.1,0.7-1.1,1.5s0.4,1.5,1.2,1.5S185.3,178.9,185.3,178.1z"/>
	<path class="st0" d="M186.3,176.2h0.6l1.1,3.1h0l1.1-3.1h0.6l-1.4,3.8h-0.5L186.3,176.2z"/>
</g>
<path class="st0" d="M190.4,177h1.6v0.5h-1.6V177z M192.7,179.7c0.9-0.9,2.5-2.4,2.5-3.6c0-0.7-0.4-1-0.9-1c-0.6,0-0.9,0.3-1.2,0.5
	l-0.3-0.4c0.3-0.4,0.8-0.7,1.5-0.7c0.9,0,1.6,0.5,1.6,1.4c0,1.2-1.3,2.5-2.3,3.5c0,0,0.3,0,0.6,0h1.8v0.5h-3.3V179.7z M196.9,177.4
	c0-1.3,0.5-2.8,2-2.8c1.4,0,2,1.4,2,2.8s-0.6,2.8-2,2.8C197.4,180.1,196.9,178.7,196.9,177.4z M200.2,177.4c0-1.3-0.4-2.3-1.4-2.3
	c-1,0-1.4,1-1.4,2.3s0.4,2.3,1.4,2.3C199.8,179.6,200.2,178.6,200.2,177.4z"/>
<g>
	<path class="st0" d="M217.3,174.7h0.6l2.5,3.6c0.2,0.4,0.4,0.6,0.5,0.8h0c0-0.1,0-0.3,0-0.7v-3.7h0.6v5.3h-0.6l-2.6-3.8
		c-0.2-0.2-0.3-0.5-0.4-0.7h0c0,0.1,0,0.3,0,0.6v3.9h-0.6V174.7z"/>
</g>
<g>
	<path class="st0" d="M222.7,178.1c0-0.9,0.5-2,1.8-2c1.3,0,1.8,1.1,1.8,2s-0.5,2-1.8,2C223.2,180.1,222.7,179,222.7,178.1z
		 M225.7,178.1c0-0.8-0.4-1.5-1.2-1.5c-0.8,0-1.1,0.7-1.1,1.5s0.4,1.5,1.2,1.5C225.3,179.6,225.7,178.9,225.7,178.1z"/>
	<path class="st0" d="M226.7,176.2h0.6l1.1,3.1h0l1.1-3.1h0.6l-1.4,3.8h-0.5L226.7,176.2z"/>
</g>
<path class="st0" d="M230.8,177h1.6v0.5h-1.6V177z M233.2,179.7c0.9-0.9,2.5-2.4,2.5-3.6c0-0.7-0.4-1-0.9-1c-0.6,0-0.9,0.3-1.2,0.5
	l-0.3-0.4c0.3-0.4,0.8-0.7,1.5-0.7c0.9,0,1.6,0.5,1.6,1.4c0,1.2-1.3,2.5-2.3,3.5c0,0,0.3,0,0.6,0h1.8v0.5h-3.3V179.7z M238.3,175.3
	l-1,0.3l-0.1-0.5l1.3-0.4h0.5v5.3h-0.6V175.3z"/>
<line class="st3" x1="30.2" y1="171.1" x2="30.2" y2="16.3"/>
<line class="st3" x1="231.5" y1="168" x2="231.5" y2="15.8"/>
<line class="st3" x1="188.7" y1="171.1" x2="188.7" y2="167.8"/>
<line class="st3" x1="149" y1="171.1" x2="149" y2="167.8"/>
<line class="st3" x1="109.7" y1="171.1" x2="109.7" y2="167.8"/>
<line class="st3" x1="69.7" y1="171.1" x2="69.7" y2="167.8"/>
<line class="st3" x1="228.1" y1="171.1" x2="228.1" y2="167.8"/>
<path class="st0" d="M17.7,18.2h-2.5v-0.5l2.4-3.6h0.6v3.6h0.8v0.5h-0.8v1.2h-0.6V18.2z M16.6,17.7h1.2V15h0l-1.8,2.8
	C16,17.7,16.3,17.7,16.6,17.7z M19.7,19c0-0.3,0.2-0.5,0.5-0.5s0.5,0.2,0.5,0.5s-0.2,0.5-0.5,0.5S19.7,19.3,19.7,19z M21.6,16.8
	c0-1.3,0.5-2.8,2-2.8c1.4,0,2,1.4,2,2.8s-0.6,2.8-2,2.8C22.1,19.5,21.6,18.1,21.6,16.8z M25,16.8c0-1.3-0.4-2.3-1.4-2.3
	c-1,0-1.4,1-1.4,2.3s0.4,2.3,1.4,2.3C24.5,19,25,18,25,16.8z"/>
<path class="st0" d="M15.9,57.1l0.1-0.5c0.1,0,0.3,0.1,0.7,0.1c1,0,1.5-0.4,1.5-1.1c0-0.8-0.7-1.1-1.7-1.1V54c0.8,0,1.6-0.4,1.6-1.1
	c0-0.4-0.3-0.7-0.9-0.7c-0.5,0-0.8,0.2-1.1,0.4l-0.3-0.4c0.3-0.2,0.8-0.5,1.4-0.5c1,0,1.5,0.5,1.5,1.2c0,0.7-0.6,1.1-1.2,1.3v0
	c0.7,0.1,1.3,0.6,1.3,1.4c0,1.1-0.9,1.7-2.1,1.7C16.2,57.2,16,57.1,15.9,57.1z M19.7,56.7c0-0.3,0.2-0.5,0.5-0.5s0.5,0.2,0.5,0.5
	s-0.2,0.5-0.5,0.5S19.7,56.9,19.7,56.7z M21.6,54.4c0-1.3,0.5-2.8,2-2.8c1.4,0,2,1.4,2,2.8s-0.6,2.8-2,2.8
	C22.1,57.2,21.6,55.7,21.6,54.4z M25,54.4c0-1.3-0.4-2.3-1.4-2.3c-1,0-1.4,1-1.4,2.3s0.4,2.3,1.4,2.3C24.5,56.7,25,55.7,25,54.4z"/>
<path class="st0" d="M15.6,93.6c0.9-0.9,2.5-2.4,2.5-3.6c0-0.7-0.4-1-0.9-1c-0.6,0-0.9,0.3-1.2,0.5l-0.3-0.4
	c0.3-0.4,0.8-0.7,1.5-0.7c0.9,0,1.6,0.5,1.6,1.4c0,1.2-1.3,2.5-2.3,3.5c0,0,0.3,0,0.6,0h1.8v0.5h-3.3V93.6z M19.7,93.5
	c0-0.3,0.2-0.5,0.5-0.5s0.5,0.2,0.5,0.5S20.5,94,20.2,94S19.7,93.8,19.7,93.5z M21.6,91.3c0-1.3,0.5-2.8,2-2.8c1.4,0,2,1.4,2,2.8
	S25,94,23.6,94C22.1,94,21.6,92.6,21.6,91.3z M25,91.3c0-1.3-0.4-2.3-1.4-2.3c-1,0-1.4,1-1.4,2.3s0.4,2.3,1.4,2.3
	C24.5,93.5,25,92.5,25,91.3z"/>
<path class="st0" d="M17.9,128.5l-1,0.3l-0.1-0.5l1.3-0.4h0.5v5.3h-0.6V128.5z M19.7,132.8c0-0.3,0.2-0.5,0.5-0.5s0.5,0.2,0.5,0.5
	s-0.2,0.5-0.5,0.5S19.7,133.1,19.7,132.8z M21.6,130.6c0-1.3,0.5-2.8,2-2.8c1.4,0,2,1.4,2,2.8s-0.6,2.8-2,2.8
	C22.1,133.3,21.6,131.9,21.6,130.6z M25,130.6c0-1.3-0.4-2.3-1.4-2.3c-1,0-1.4,1-1.4,2.3s0.4,2.3,1.4,2.3
	C24.5,132.8,25,131.8,25,130.6z"/>
<path class="st0" d="M14.9,168.3c0-1.3,0.5-2.8,2-2.8c1.4,0,2,1.4,2,2.8s-0.6,2.8-2,2.8C15.4,171.1,14.9,169.7,14.9,168.3z
	 M18.2,168.3c0-1.3-0.4-2.3-1.4-2.3c-1,0-1.4,1-1.4,2.3s0.4,2.3,1.4,2.3C17.8,170.6,18.2,169.6,18.2,168.3z M19.7,170.6
	c0-0.3,0.2-0.5,0.5-0.5s0.5,0.2,0.5,0.5s-0.2,0.5-0.5,0.5S19.7,170.9,19.7,170.6z M21.6,168.3c0-1.3,0.5-2.8,2-2.8
	c1.4,0,2,1.4,2,2.8s-0.6,2.8-2,2.8C22.1,171.1,21.6,169.7,21.6,168.3z M25,168.3c0-1.3-0.4-2.3-1.4-2.3c-1,0-1.4,1-1.4,2.3
	s0.4,2.3,1.4,2.3C24.5,170.6,25,169.6,25,168.3z"/>
<path class="st4" d="M31.1,117.2h1.1v50.2h-1.1V117.2z M34.4,115.5h1.1v52h-1.1V115.5z M37.7,115.1h1.1v52.4h-1.1V115.1z M41,115.2
	h1.1v52.3H41V115.2z M44.3,113.3h1.1v54.2h-1.1V113.3z M47.6,111.7h1v55.8h-1V111.7z M50.9,110.5h1v57h-1V110.5z M54.2,108.6h1v58.9
	h-1V108.6z M57.6,107.8h1v59.7h-1V107.8z M60.9,105.6h1v61.9h-1V105.6z M64.2,105.5h1.1v62h-1.1V105.5z M67.5,105.8h1.1v61.7h-1.1
	V105.8z M70.8,103.8h1.1v63.7h-1.1V103.8z M74.1,99.7h1.1v67.8h-1.1V99.7z M77.4,96.1h1.1v71.4h-1.1V96.1z M80.7,89.6h1.1v77.9h-1.1
	V89.6z M84,80.8H85v86.7H84V80.8z M87.3,66h1.1v101.5h-1.1V66z M90.6,66.7h1.1v100.8h-1.1V66.7z M93.9,64.7h1v102.8h-1V64.7z
	 M97.2,65.5h1v102h-1V65.5z M100.5,66.7h1v100.8h-1V66.7z M103.8,63.5h1v104h-1V63.5z M107.1,55.6h1v111.9h-1V55.6z M110.4,41.9h1
	v125.6h-1V41.9z M113.7,31.5h1.1v136h-1.1V31.5z M117,40.5h1.1v127H117V40.5z M120.3,46.7h1.1v120.8h-1.1V46.7z M123.6,49.5h1.1v118
	h-1.1V49.5z M126.9,52.5h1.1v115h-1.1V52.5z M130.2,54h1.1v113.5h-1.1V54z M133.5,62h1.1v105.5h-1.1V62z M136.9,65.6h1.1v101.9h-1.1
	V65.6z M140.2,68.7h1.1v98.8h-1.1V68.7z M143.5,70.6h1v96.9h-1V70.6z M146.8,79.6h1v87.9h-1V79.6z M150.1,80.2h1v87.3h-1V80.2z
	 M153.4,80.7h1v86.8h-1V80.7z M156.7,89.1h1v78.4h-1V89.1z M160,93.9h1v73.6h-1V93.9z M163.3,30.7h1.1v136.8h-1.1V30.7z M166.6,92.4
	h1.1v75.1h-1.1V92.4z M169.9,116.1h1.1v51.4h-1.1V116.1z M173.2,132.5h1.1v35h-1.1V132.5z M176.5,140.6h1.1v26.9h-1.1V140.6z
	 M179.8,143.7h1.1v23.8h-1.1V143.7z M183.1,144.2h1.1v23.3h-1.1V144.2z M186.4,146.1h1.1v21.4h-1.1V146.1z M189.8,147.8h1v19.7h-1
	V147.8z M193.1,147.8h1v19.7h-1V147.8z M196.4,151.7h1v15.8h-1V151.7z M199.7,152.9h1v14.6h-1V152.9z M203,151.4h1v16.1h-1V151.4z
	 M206.3,152.3h1v15.2h-1V152.3z M209.6,154.8h1.1v12.7h-1.1V154.8z M212.9,154.9h1.1v12.6h-1.1V154.9z M216.2,155.3h1.1v12.2h-1.1
	V155.3z M219.5,155.5h1.1v12h-1.1V155.5z M222.8,156h1.1v11.5h-1.1V156z M226.1,155.5h1.1v12h-1.1V155.5z M229.4,152.4h1.1v15.1
	h-1.1V152.4z"/>
<polyline class="st5" points="32,151.8 35.3,146.9 38.6,142.7 41.9,142.3 45.2,137.4 48.5,133.2 51.8,132.8 55.1,127.9 58.4,123.7 
	61.7,123.3 65,123.7 68.3,123.7 71.5,123.3 74.8,118 78.1,113.8 81.4,113.4 84.7,110 88,103.2 91.3,102.8 94.6,98.2 97.8,94.8 
	101.1,94.8 104.5,93.3 107.8,84.1 111,83.8 114.3,81.2 117.6,76.2 120.9,76.2 124.2,75.8 127.5,75.5 130.8,76.6 134.1,77 
	137.3,76.2 140.6,86.4 143.9,89.9 147.2,97.8 150.5,108.5 157.1,108.5 160.4,107.4 163.7,142.7 167,165.5 170.3,165.5 173.6,164.3 
	176.8,163.9 180.1,163.6 183.4,163.9 196.6,163.9 199.9,164.3 203.2,164.7 206.5,164.7 209.8,165.1 216.3,163.6 219.6,163.9 
	222.9,164.3 229.5,164.3 "/>
</svg>
