<?xml version="1.0" encoding="utf-8"?>
<!-- Generator: Adobe Illustrator 24.3.0, SVG Export Plug-In . SVG Version: 6.00 Build 0)  -->
<svg version="1.1" id="Layer_1" xmlns="http://www.w3.org/2000/svg" xmlns:xlink="http://www.w3.org/1999/xlink" x="0px" y="0px"
	 viewBox="0 0 2856.5 524.8" style="enable-background:new 0 0 2856.5 524.8;" xml:space="preserve">
<style type="text/css">
	.st0{fill:#FFFFFF;}
	.st1{opacity:0.3;}
	.st2{fill:none;}
</style>
<g>
	<g>
		<g>
			<g>
				<polygon class="st0" points="1456.3,160.2 1456.3,350.1 1503.6,350.1 1503.6,285 1504.2,285 1552,350.1 1605.4,350.1 
					1552.6,280.4 1601.4,219.7 1547.4,219.7 1504.2,275.6 1503.6,275.6 1503.6,160.2 				"/>
				<path class="st0" d="M1074.4,218c-8.2,0-18.6,1.7-24.7,3.8v-61.7h-47.9v183.3c13.1,5.1,35.4,9.4,58.7,9.4
					c53.1,0,82.4-23.4,82.4-72.3C1142.8,240.8,1115,218,1074.4,218z M1063.6,322.1c-5.5,0-11-0.8-13.9-1.8v-69.6
					c3.8-1.4,9.6-2.6,15.1-2.6c19.2,0,30.2,13.1,30.2,36C1095,308.2,1083.4,322.1,1063.6,322.1z"/>
				<polygon class="st0" points="607,175 570.1,283.1 533.3,175 477.6,175 452.3,350.1 497.8,350.1 512.4,229.7 555,350.1 
					585.2,350.1 627.9,229.7 642.4,350.1 687.9,350.1 662.7,175 				"/>
				<path class="st0" d="M1301.9,226.3v123.8h47.9v-99.4c0,0,7.9-3.3,16.8-3.3c17.1,0,23.3,7.1,23.3,18V350h47.9v-89.2
					c0-28.3-21.5-44.9-70.5-44.9C1339.9,215.9,1319.3,220.7,1301.9,226.3"/>
				<path class="st0" d="M1219.5,215.9c-28.6,0-47.9,5.7-61.8,10.4l11.6,26.6c11.3-3.9,29.4-8,44.5-8c16.2,0,24.9,4.8,24.9,15.3v5.1
					c-47.3,2.1-89.6,10.1-89.6,44.7c0,27.8,24.4,43,73.7,43c25,0,49-4.3,61-9.4V265C1283.6,230.4,1262.1,215.9,1219.5,215.9z
					 M1238.6,323.5c-3.2,1-10.7,1.9-17.4,1.9c-17.2,0-27.9-5.8-27.9-16.5c0-15.4,19.5-17.9,45.3-18.8V323.5z"/>
				<path class="st0" d="M764.5,215.9c-24.3,0-47.8,5.7-61.8,10.4l11.6,26.6c11.3-3.9,29.3-8,44.5-8c16.2,0,24.9,4.8,24.9,15.3v5.1
					c-47.3,2.1-89.6,10.1-89.6,44.7c0,27.8,24.4,43,73.7,43c24.9,0,49-4.3,61-9.4V265C828.7,230.4,807.2,215.9,764.5,215.9z
					 M783.7,323.5c-3.2,1-10.8,1.9-17.4,1.9c-17.2,0-27.9-5.8-27.9-16.5c0-15.4,19.5-17.9,45.2-18.8v33.4H783.7z"/>
				<polygon class="st0" points="941.5,219.7 910,312.3 878.2,219.7 826.1,219.7 885.1,350.1 861.5,402.1 911.8,402.1 993.6,219.7 
									"/>
			</g>
			<g>
				<path class="st0" d="M213.7,323.1c2.4-1.1,4.6-4.8,4.6-4.8s-4.6-1-7.9-3.2C210.1,318.9,212.8,322.3,213.7,323.1 M237.8,293.4
					c1.4,1.7,3.2,7.1,1.4,8.4s-3.5-0.4-5.5-0.6c-1.1,3.4-0.8,6.9-2.5,8.5c10-4.8,14-6.9,14.9-13.4c0.3-2.1-4.6-3-7.1-3h-0.1
					C238.5,293.3,238.1,293.4,237.8,293.4 M194.1,295.8c0,3.8,7.7,8.7,7.7,8.7s-2-7.7-1.4-13.5C198.7,291.2,194.9,293.7,194.1,295.8
					 M166.6,254.6c-3.9,1.1-6.9,4.4-7.6,5.2c0.6,2.2,6.2,8,9.9,10.6c2.9-1.9,2-4.3,1.5-5.2c-0.7-1.5-4.3-2.4-3.2-5.8
					c0.8-2.1,3.2-2.1,3.6-3c0.3-0.7-0.8-1.9-2.8-1.9l0,0C167.5,254.4,167.1,254.5,166.6,254.6 M231.4,209.4c2.1,5.3-1.6,7.1-3,3.4
					c0.3,2,1.3,3.6,2.4,3.6c2.1,0.1,3.9-4.9,7.9-7C234.8,209.6,232.7,209.5,231.4,209.4 M206.8,261.6c8,2.1,8.5,8.6,3.4,13
					c-3.5-10.5-18.4,1.5-23.5,8.1C188.1,270.8,200.9,260.1,206.8,261.6 M206.6,255.8c-10-2.5-18.9,9.2-23.8,18.1
					C184.6,261.8,199.5,241.9,206.6,255.8 M200.2,243.6c-5.7,1.8-10,5.2-15.6,12.4C188,244.4,195.9,240.2,200.2,243.6 M361.3,208.3
					c35.6,64.6,1.3,147.3-74.9,164.6c9.1-11.8,16.5-28.5,15.6-34.2c-9.9,7.2-29.4,10.4-33.8,8c18.2-16.4,15.4-33.7,4.8-35.1
					c-10.6-1.3-23,14.9-22,37.2c-8.9-4-37.8,1.5-40.4-21.4c-3.3-5-4.7-13.6-3.6-16.9c26,14.9,14.9-18.6,30.6-21.8
					c-1.7-4.7-14.8-15.5-32.5,2.1c-0.8,2.9-0.6,14.4,0.7,18.5c-8.1-1.2-14.4-8.8-15.9-10.9c-8.6-0.8-17-3.3-25-25
					c-6.8-4.4-10.3-8.9-12.7-13.8c0.1-1.1,1.1-6.6,6.1-11.2c0,0-1.8,4.7-0.7,6.7c8.8-7,12.7-5.2,16.2-3.3c2,1,3.8,2.1,6.4,1.5
					c0.2,8.3-8.5,14-7.9,22.1c5,13.3,8.4,14.7,18.4,16.2c11.9-5.9,21.8-19.5,36.4-19.6c11.8-0.1,26.6,5.7,29,22
					c1.7,11.7-23.4,28.4-33.2,25.1c-16.1,17.3,10.8,23.1,19.8,20.5c6.4-29.6,22.3-38.1,34.7-33.8c13.8,4.8,15.6,22.2,6.1,32.1
					c7.6-1.8,18.7-7.7,22.5-21.9c3,3.2,3.9,10.7,4.2,13.3c8-11.5,5.5-36.9-0.9-46.5c5.2,0.4,10,2.4,15.2,6.8
					c3.6-18.7-8.4-42-13.8-46c3.6-0.4,8.7,0,15.7,3.4c-1.8-11.2-11.8-18.4-11.8-26.9c4,7.9,25.4,10.2,24.1,39.5
					c-2.5-2.4-7.9-4.8-10.5-5.1c7.5,18.9,7,37.7,2.9,50.9c-1.6-2.7-4.2-5.9-6.8-6.9c2.5,10.5-0.8,39.3-8,50.8
					c48.2-33.1,15.1-83.7,36.4-104.3c-4.5,21.8,6.6,40.5,5.3,53.2C368.5,277.8,371.4,243.7,361.3,208.3 M261.3,209.3
					c3-2.7,12.6-2.4,17.6,1.6c-7.1-0.1-15.4,8.3-19.6,32c2.2,2.5,15.3,22.4,0.1,47.7c4.2-18.6-7.3-54.3-20.2-36.1
					c8.7,3.8,11.5,10.9,9.2,17.7c-3.5-6.6-12.6-13.8-21.5-10.8c-4.5,1.5-10.4,1.5-14.8-5.1c-5.8-8.4,3.9-18.9-12.6-18
					c20-10.1,14.2,9.6,23.8,11.9c11.2,2.7,12.5-4.2,16.3-8.6c3.1-3.7,8.8-6.5,14.8-2.5C257.3,230.3,253.2,216.6,261.3,209.3
					 M274.1,267.6c-2.8-15.6,23.1-40.4,6.8-65.9c30.7,24.9,6.6,39.5,22.1,60.2c-6-1.8-12-7.2-13.8-10c-8.6,11.4,21.2,27.1,1.4,53.6
					C291.6,290.2,276.9,283.1,274.1,267.6 M241.4,182.9c3.6,0,9.9,2.6,7.4,5.5c-8.6,7.9-20.1,4.7-29.2,12.7
					C223.2,191,239.9,189.6,241.4,182.9 M244.5,204.7c0.8-12.9,25.5-14.3,10.2-21.9c14.6,1.9,17.9,7.4,14.4,11.3
					c-3,3.4-16.8,7.9-20.8,12.7c15.1-0.3-2.4,7.6-7.6,25.7c-2.3,8.1-20.3,5.5-23.1,1.3c4.6,1,18.8-2.1,24.3-21.2
					c0.2-0.4-0.3-0.6-0.6-0.2c-7,7.6-12.2,9-15.2,7c-3.2,2.6-4.6,4.4-7.4,9.6c-5.1-4.7-2.8-8.7,2.1-13.3c0.7-0.6-0.1-1.5-1-2
					c-4.6-1.9-5.5-8.2-0.8-10.6c-1.3,4.1,3.2,6.4,7,2.9c2.1-1.8,4.7-1.4,7.9-0.9c1.5,0.2,3,0.4,4.7,0.4l0,0
					C240.5,205.7,242.4,205.5,244.5,204.7 M276.6,184.4c-1.3-4,2.8-14.7,5.6-13.1c6.5,3.5,10.8,19,9.9,26.7
					C287.4,192.3,284,189.1,276.6,184.4 M263.9,166.8c0.8-3.9,3.5-14.6,7.1-20.1c3.3-5.1,9.5-5.6,17.6,1.1
					c8.4,6.9,14.3,9.8,25.8,24.5c9.7,4.4,25,10,38.1,26.2c-5.7-3.8-12.2-5.2-17.5-5.9c10.7,9.4,17.8,25,12.4,47.7
					c-2.1-21.2-17.7-30.2-27.2-36.9c5.2,18-17.3,11.7-24.2-1.8c2.3,0.7,4.6,0.6,6-0.3c-0.7-27.4-13.6-43.2-19.3-48
					c-7.3-6.1-11.3,8.5-13.8,19.6c-0.8,3.7-4,6.3-8,6.1c0.9-1.3,1.9-4.8,2.1-5.9c-11.3,0.8-24.2,7.6-32.1,11.1
					c-20,9-25,13.5-29.4,28.7c-15.8,6.6-34.1,24.9-41.8,33.5c4.7-12.4,16.3-27.2,34.9-38.2c4.3-11.1,2.9-18.7,48.1-36.1
					c1.1-6.6,0.9-14.6,2.8-14.6c1.9,0,8.6,3,13.3,9.9C260.9,167.2,262.7,167,263.9,166.8 M133.5,262.1
					c-0.1,71.3,57.5,129.2,128.9,129.4c71.3,0.1,129.2-57.5,129.3-128.8c0.1-71.3-57.5-129.2-128.9-129.4c-0.1,0-0.1,0-0.2,0
					C191.4,133.3,133.7,190.9,133.5,262.1 M262.4,402.8c-77.6-0.2-140.2-63.1-140.1-140.6c0.1-77.5,63.1-140.2,140.6-140.1
					c77.5,0.1,140.2,63.1,140.1,140.6c-0.1,77.4-62.9,140.1-140.3,140.1C262.6,402.8,262.5,402.8,262.4,402.8 M116.8,262.1
					c-0.2,80.5,65,145.9,145.5,146c80.5,0.2,145.9-65,146.1-145.5s-65-145.9-145.5-146c-0.1,0-0.2,0-0.3,0
					C182.2,116.6,117,181.7,116.8,262.1"/>
			</g>
		</g>
		<rect x="1721.8" y="174.9" class="st0" width="5.8" height="233.2"/>
		<g>
			<path class="st0" d="M2209.5,151c-11.8-7-26.1-11.5-43.5-13.5c-20.5-2.5-43-2.5-67.1-0.1l-67.1,7.8c-47.6,5.4-88.1,8.3-120.3,8.2
				c-67-0.1-115.1-12.6-143.2-37.1c23.5,38.4,65.4,57.8,125.8,57.9c25.1,0.1,61.4-4.3,109.5-12.7c48.1-8.4,84-12.8,108-13.3
				c25.1-0.5,46.6,3.1,64,9.6c25.1,9,37.3,24,37.3,44.8c0,20.4-13.4,41.7-40.6,65.1c-25.1,21.3-48.7,33.7-70.7,37.2
				c-11.7,1.5-22.5,0.9-32.7-1.6c17.4-0.5,34.3-5.9,51.2-16.8c-10.2,5.4-21,8.9-32.3,10.4c-16.4,2.5-31.2,0.4-45-6.1
				c-1.5-1-3.6-2-5.1-3.5c9.8-11.4,20.5-23.8,33.4-37.2l38.4-41.2c11.8-11.9,23.1-20.4,33.9-24.8c9.7-4.5,23-7.5,40.9-8.9
				c-5.6-3-11.7-5-18.9-5.5c-37.4-3.1-86,29.7-145,97.7c-4.6-8.5-6.6-17.9-6.6-27.9c0-14.4,4.1-27.8,12.9-39.3
				c9.8-12.9,21.5-19.8,35.9-20.3c12.8-0.5,24.6,3.5,35.8,12c-8.7-11.5-21.5-17.4-37.4-18c-29.2-0.5-49.2,14.8-60,46.2
				c2.6-16.4,10.3-28.8,22.6-38.2c-21,8.4-34.4,32.2-34.4,56.1c0,17.4,6.6,31.8,19.4,43.8l-15.9,20.4l-13.3,17.4c0,0,0-0.1,0.1-0.2
				c-15.4,25.2-57.9,79.6-82.7,94.1c-24.8,14.5-37,21.6-53.2,19.8c10.9,5,30.2,5.5,29.7,5.5c26.6,2.6,57.4-16.8,91.7-58
				c15.4-18.4,30.8-37.7,46.7-59.1l17.5-22.8c12.8,7.5,28.1,12,47.1,12.5c9.2,0.5,18.9-0.5,29.7-2.9c31.7-6.9,59.4-22.8,83.5-47.1
				c28.7-29.3,43.1-54.1,43.1-74.5C2232.5,171.9,2224.9,160,2209.5,151"/>
			<path class="st0" d="M2198.2,302c0,1.4,0.2,1.9,1.1,2.3c2.7,0.9,6.4,1.3,9.6,1.3c5.1,0,6.7-0.5,8.9-2.1c3.8-2.8,7.5-8.6,7.5-19
				c0-17.9-11.8-23-19.3-23.1c-3.1,0-5.4,0.1-6.7,0.5c-0.8,0.3-1.1,0.8-1.1,1.8L2198.2,302z M2183.3,292.1c0-19.2,0-22.8-0.2-26.8
				c-0.3-4.3-1.3-6.3-5.4-7.2c-1-0.2-3.1-0.4-4.9-0.4c-1.4,0-2.2-0.3-2.2-1.1c0-0.9,0.9-1.1,2.9-1.1c6.6,0,14.5,0.4,17.2,0.4
				c4.3,0,13.9-0.4,17.8-0.4c7.9,0,16.3,0.7,23.1,5.5c3.6,2.3,8.6,8.7,8.6,17.2c0,9.3-4,17.9-16.7,28.2
				c11.2,14.1,19.9,25.3,27.3,33.2c7,7.3,12.2,8.1,14.1,8.5c1.4,0.3,2.5,0.4,3.6,0.4c1,0,1.4,0.5,1.4,1c0,1-0.9,1.3-2.3,1.3l-12,0
				c-7.1,0-10.2-0.6-13.5-2.4c-5.4-2.8-10.2-8.8-17.3-18.5c-5-6.9-10.8-15.5-12.4-17.4c-0.6-0.8-1.3-0.9-2.2-0.9l-11-0.3
				c-0.6,0-1,0.3-1,1v1.8c0,11.7-0.1,21.6,0.6,26.9c0.4,3.7,1.1,6.5,4.9,7c1.9,0.2,4.7,0.5,6.2,0.5c1.1,0,1.5,0.4,1.5,1
				c0,1-0.8,1.3-2.5,1.3c-7.3,0-16.6-0.3-18.5-0.3c-2.4,0-10.3,0.3-15.4,0.3c-1.6,0-2.5-0.3-2.5-1.3c0-0.5,0.5-1,2.1-1
				c1.8,0,3.3-0.3,4.4-0.5c2.6-0.5,3.2-3.3,3.8-7c0.6-5.3,0.6-15.2,0.6-26.8L2183.3,292.1z"/>
			<path class="st0" d="M2289.3,292.3c0-19.2,0-22.8-0.2-26.8c-0.3-4.3-1.2-6.2-5.5-7.2c-1-0.2-3.1-0.4-4.9-0.4
				c-1.3,0-2.1-0.3-2.1-1.1c0-0.9,0.8-1.1,2.8-1.1c3.4,0,7.1,0.2,10.2,0.2c3.3,0.1,6.2,0.3,8,0.3c4,0,29.1,0.1,31.5-0.1
				c2.4-0.2,4.5-0.5,5.4-0.7c0.7-0.2,1.4-0.6,2.1-0.6c0.6,0,0.7,0.6,0.7,1.2c0,0.8-0.6,2.3-1,8.2c-0.1,1.2-0.4,6.8-0.6,8.3
				c-0.1,0.6-0.4,1.3-1.3,1.3c-0.8,0-1.1-0.6-1.1-1.7c0-0.9-0.2-3-0.8-4.5c-0.8-2.2-2.2-3.7-8.4-4.5c-2.2-0.3-15.5-0.6-18-0.6
				c-0.6,0-0.8,0.4-0.8,1.3l-0.1,31.8c0,0.9,0.2,1.4,0.8,1.4c2.8,0,17.2,0,20.2-0.2c3-0.2,4.9-0.6,6-1.9c0.9-1,1.4-1.7,2-1.7
				c0.5,0,0.9,0.3,0.9,1.1c0,0.7-0.5,2.8-1.1,9.2c-0.1,2.5-0.4,7.6-0.4,8.4c0,1.1,0,2.4-1.2,2.4c-0.8,0-1.1-0.5-1.1-1.1
				c-0.2-1.3-0.2-2.9-0.5-4.6c-0.7-2.5-2.4-4.4-7.1-4.8c-2.4-0.3-14.8-0.4-17.9-0.4c-0.6,0-0.7,0.4-0.7,1.2l0,10
				c0,4.3-0.2,15.9,0,19.6c0.2,8.7,2.2,10.5,15.1,10.6c3.2,0,8.6,0,11.8-1.4c3.3-1.5,4.8-4.2,5.7-9.3c0.3-1.4,0.5-1.9,1.4-1.9
				c1.1,0,1.1,1,1.1,2.3c0,2.8-1.1,11.4-1.7,14c-0.9,3.3-2,3.3-6.9,3.3c-9.4,0-16.4-0.4-21.8-0.5c-5.5-0.2-9.3-0.3-13.2-0.3
				c-1.3,0-4.1,0-7.2,0.1c-2.8,0-6.1,0.2-8.7,0.2c-1.7,0-2.6-0.3-2.6-1.3c0-0.5,0.6-1,2.1-1c1.9,0,3.4-0.3,4.5-0.5
				c2.5-0.5,3.2-3.3,3.7-7c0.6-5.2,0.6-15.2,0.7-26.8L2289.3,292.3z"/>
			<path class="st0" d="M2377.4,256.4c0.4-2.1,1.1-3.3,2.2-3.3c1,0,1.8,0.6,3.4,3.9l34.2,71.2l34.4-71.9c1-2,1.7-3,2.8-3
				c1.2,0,1.9,1.3,2.3,3.9L2468,335c1.1,8,2.4,11.6,6.2,12.7c3.7,1.1,6.2,1.3,7.8,1.3c1.1,0,2,0.2,2,0.9c0,1-1.5,1.4-3.2,1.3
				c-3.2,0-20.6-0.3-25.6-0.7c-2.9-0.3-3.6-0.6-3.6-1.4c0-0.7,0.6-1.1,1.4-1.4c0.8-0.2,1.2-1.9,0.7-5.4l-7.5-55.5h-0.5L2418,344
				c-2.9,5.9-3.5,7-4.7,7c-1.1,0-2.4-2.5-4.4-6.3c-3.1-5.8-13-25.1-14.5-28.6c-1.2-2.6-8.7-18.5-13-28h-0.5l-6.7,50.1
				c-0.2,2.2-0.4,3.9-0.4,6c0,2.4,1.7,3.5,3.8,4c2.2,0.5,4,0.6,5.3,0.6c1,0,1.9,0.3,1.9,0.9c0,1.1-1.2,1.3-3.1,1.3
				c-5.3,0-11-0.3-13.2-0.3c-2.4,0-8.5,0.3-12.5,0.3c-1.3,0-2.3-0.2-2.3-1.4c0-0.6,0.8-0.9,2-0.9c1,0,1.9,0,3.8-0.4
				c3.5-0.7,4.5-5.6,5.2-9.9L2377.4,256.4z"/>
			<path class="st0" d="M2509.3,292.7c0-19.2,0-22.8-0.2-26.7c-0.2-4.3-1.5-6.4-4.3-7.1c-1.4-0.4-3-0.5-4.6-0.5
				c-1.2,0-2-0.3-1.9-1.2c0-0.8,0.9-1,3-1c4.8,0,12.8,0.4,16.4,0.4c3.1,0,10.6-0.4,15.3-0.4c1.7,0,2.7,0.2,2.7,1
				c0,0.9-0.7,1.2-2,1.2c-1.3,0-2.3,0.1-3.8,0.4c-3.4,0.6-4.4,2.8-4.6,7.2c-0.3,4-0.3,7.5-0.3,26.8l0,22.1c0,12.2-0.1,22.2,0.4,27.6
				c0.5,3.5,1.3,5.7,5.1,6.2c1.7,0.2,4.5,0.5,6.4,0.5c1.4,0,2,0.4,2,1c0,0.9-1,1.3-2.4,1.3c-8.3,0-16.3-0.4-19.7-0.4
				c-2.8,0-10.9,0.3-15.8,0.3c-1.7,0-2.6-0.3-2.5-1.3c0-0.5,0.5-1,2-1c1.9,0,3.4-0.3,4.5-0.5c2.5-0.5,3.2-2.6,3.6-6.3
				c0.7-5.3,0.7-15.3,0.7-27.5L2509.3,292.7z"/>
			<path class="st0" d="M2567.3,292.8c0-19.2,0-22.8-0.2-26.8c-0.3-4.3-1.3-6.3-5.4-7.2c-1-0.2-3.1-0.3-4.9-0.3
				c-1.4,0-2.2-0.3-2.2-1.1c0-0.9,0.9-1.1,2.8-1.1c3.3,0,7.1,0.1,10.2,0.1c3.3,0.1,6.2,0.3,7.9,0.3c4,0,29.1,0.1,31.5-0.1
				c2.4-0.2,4.5-0.5,5.4-0.7c0.7-0.2,1.4-0.6,2-0.6c0.6,0,0.8,0.6,0.8,1.2c0,0.8-0.6,2.3-1.1,8.2c-0.1,1.2-0.3,6.8-0.6,8.3
				c-0.1,0.7-0.4,1.4-1.3,1.4c-0.9,0-1.1-0.6-1.1-1.7c0-0.9-0.2-3-0.7-4.5c-0.9-2.3-2.2-3.8-8.4-4.5c-2.2-0.3-15.4-0.6-17.9-0.6
				c-0.6,0-0.9,0.4-0.9,1.3l0,31.8c0,0.9,0.1,1.4,0.9,1.4c2.8,0,17.3,0,20.2-0.2c3-0.2,4.9-0.6,6.1-1.9c0.9-1,1.4-1.7,2-1.7
				c0.5,0,0.9,0.3,0.9,1.1c0,0.7-0.5,2.8-1,9.2c-0.1,2.5-0.5,7.6-0.5,8.4c0,1.1,0,2.4-1.2,2.4c-0.9,0-1.1-0.5-1.1-1.1
				c-0.1-1.3-0.1-2.9-0.5-4.6c-0.6-2.5-2.3-4.4-7-4.9c-2.4-0.3-14.9-0.4-17.9-0.4c-0.6,0-0.7,0.5-0.7,1.2l0,10
				c0,4.3-0.2,15.9,0,19.5c0.2,8.7,2.2,10.5,15.1,10.6c3.3,0,8.6,0,11.8-1.4c3.3-1.5,4.8-4.2,5.7-9.4c0.3-1.4,0.5-1.9,1.4-1.9
				c1,0,1,1,1,2.2c0,2.9-1.1,11.5-1.7,14c-1,3.3-2,3.3-6.8,3.3c-9.4,0-16.4-0.3-21.8-0.5c-5.4-0.3-9.3-0.3-13.1-0.3
				c-1.4,0-4.2,0-7.2,0.1c-3,0-6.1,0.3-8.7,0.2c-1.7,0-2.5-0.3-2.5-1.3c0-0.6,0.5-1,2-1c1.9,0,3.4-0.3,4.5-0.5
				c2.5-0.5,3.2-3.3,3.7-7c0.6-5.2,0.6-15.2,0.7-26.8L2567.3,292.8z"/>
			<path class="st0" d="M2661.6,302.9c0,1.5,0.2,2,1.1,2.3c2.6,0.9,6.4,1.3,9.6,1.3c5,0,6.7-0.5,9-2.1c3.7-2.8,7.4-8.6,7.5-19
				c0-17.9-11.8-23-19.2-23c-3.2,0-5.4,0.1-6.7,0.4c-0.9,0.3-1.1,0.8-1.1,1.8L2661.6,302.9z M2646.8,293c0-19.2,0-22.7-0.2-26.8
				c-0.2-4.3-1.3-6.3-5.4-7.2c-1-0.2-3.1-0.4-4.9-0.4c-1.4,0-2.1-0.3-2.1-1.1c0-0.9,0.9-1.2,2.8-1.1c6.7,0,14.6,0.4,17.3,0.4
				c4.3,0,13.8-0.4,17.8-0.4c7.9,0,16.4,0.8,23.2,5.5c3.5,2.3,8.6,8.7,8.5,17.2c0,9.3-3.9,17.9-16.7,28.2
				c11.2,14.1,19.9,25.4,27.3,33.2c7.1,7.3,12.2,8.2,14.1,8.5c1.4,0.3,2.5,0.4,3.5,0.4c1,0,1.5,0.4,1.5,1c0,1.1-0.9,1.3-2.4,1.3
				l-12,0c-7.1,0-10.2-0.7-13.5-2.4c-5.4-2.8-10.2-8.8-17.2-18.5c-5.1-6.9-10.8-15.5-12.5-17.4c-0.6-0.8-1.4-0.9-2.3-0.9l-10.9-0.3
				c-0.7,0-1,0.2-1,1v1.8c0,11.7-0.1,21.6,0.6,26.9c0.4,3.7,1.2,6.5,4.9,7c1.9,0.2,4.6,0.5,6.2,0.5c1,0,1.5,0.5,1.5,1
				c0,0.9-0.9,1.3-2.6,1.3c-7.3,0-16.7-0.4-18.5-0.4c-2.4,0-10.3,0.3-15.3,0.3c-1.7,0-2.6-0.3-2.6-1.3c0-0.6,0.6-1,2.1-1
				c1.9,0,3.4-0.3,4.5-0.5c2.6-0.5,3.2-3.3,3.6-7c0.7-5.2,0.7-15.2,0.7-26.8L2646.8,293z"/>
		</g>
	</g>
	<g>
		<g>
			<g class="st1">
				<path class="st2" d="M2759.2,370c0.5-0.2,0.9-1,0.9-1s-0.9-0.2-1.6-0.6C2758.5,369.1,2759,369.8,2759.2,370 M2764.1,364
					c0.3,0.4,0.6,1.4,0.3,1.7c-0.4,0.3-0.7-0.1-1.1-0.1c-0.2,0.7-0.2,1.4-0.5,1.7c2-1,2.8-1.4,3-2.7c0.1-0.4-0.9-0.6-1.4-0.6l0,0
					C2764.2,364,2764.1,364,2764.1,364 M2755.3,364.5c0,0.8,1.5,1.7,1.5,1.7s-0.4-1.5-0.3-2.7
					C2756.2,363.6,2755.5,364.1,2755.3,364.5 M2749.8,356.3c-0.8,0.2-1.4,0.9-1.5,1c0.1,0.4,1.2,1.6,2,2.1c0.6-0.4,0.4-0.8,0.3-1
					c-0.1-0.3-0.9-0.5-0.6-1.2c0.2-0.4,0.6-0.4,0.7-0.6c0.1-0.1-0.2-0.4-0.6-0.4l0,0C2750,356.2,2749.9,356.2,2749.8,356.3
					 M2762.8,347.2c0.4,1.1-0.3,1.4-0.6,0.7c0.1,0.4,0.3,0.7,0.5,0.7c0.4,0,0.8-1,1.6-1.4C2763.5,347.2,2763,347.2,2762.8,347.2
					 M2757.9,357.7c1.6,0.4,1.7,1.7,0.7,2.6c-0.7-2.1-3.7,0.3-4.7,1.6C2754.1,359.5,2756.7,357.4,2757.9,357.7 M2757.8,356.5
					c-2-0.5-3.8,1.8-4.8,3.6C2753.4,357.7,2756.4,353.7,2757.8,356.5 M2756.5,354.1c-1.1,0.4-2,1-3.1,2.5
					C2754.1,354.2,2755.7,353.4,2756.5,354.1 M2788.8,347c7.1,12.9,0.3,29.5-15,32.9c1.8-2.3,3.3-5.7,3.1-6.8
					c-2,1.4-5.9,2.1-6.8,1.6c3.6-3.3,3.1-6.7,1-7s-4.6,3-4.4,7.5c-1.8-0.8-7.6,0.3-8.1-4.3c-0.7-1-0.9-2.7-0.7-3.4
					c5.2,3,3-3.7,6.1-4.4c-0.3-0.9-3-3.1-6.5,0.4c-0.2,0.6-0.1,2.9,0.1,3.7c-1.6-0.2-2.9-1.8-3.2-2.2c-1.7-0.2-3.4-0.7-5-5
					c-1.4-0.9-2.1-1.8-2.5-2.8c0-0.2,0.2-1.3,1.2-2.2c0,0-0.4,0.9-0.1,1.3c1.8-1.4,2.5-1,3.2-0.7c0.4,0.2,0.8,0.4,1.3,0.3
					c0,1.7-1.7,2.8-1.6,4.4c1,2.6,1.7,2.9,3.7,3.2c2.4-1.2,4.4-3.9,7.3-3.9c2.4,0,5.3,1.1,5.8,4.4c0.3,2.3-4.7,5.7-6.6,5
					c-3.2,3.5,2.2,4.6,4,4.1c1.3-5.9,4.5-7.6,6.9-6.7c2.8,0.9,3.1,4.4,1.2,6.4c1.5-0.4,3.7-1.5,4.5-4.4c0.6,0.6,0.8,2.1,0.8,2.7
					c1.6-2.3,1.1-7.4-0.2-9.3c1,0.1,2,0.5,3,1.4c0.7-3.7-1.7-8.4-2.8-9.2c0.7-0.1,1.7,0,3.1,0.7c-0.4-2.2-2.4-3.7-2.3-5.4
					c0.8,1.6,5.1,2,4.8,7.9c-0.5-0.5-1.6-1-2.1-1c1.5,3.8,1.4,7.5,0.6,10.2c-0.3-0.5-0.8-1.2-1.4-1.4c0.5,2.1-0.2,7.9-1.6,10.2
					c9.6-6.6,3-16.7,7.3-20.9c-0.9,4.4,1.3,8.1,1.1,10.6C2790.2,360.9,2790.8,354.1,2788.8,347 M2768.7,347.2
					c0.6-0.5,2.5-0.5,3.5,0.3c-1.4,0-3.1,1.7-3.9,6.4c0.4,0.5,3.1,4.5,0,9.5c0.8-3.7-1.5-10.9-4-7.2c1.7,0.8,2.3,2.2,1.8,3.5
					c-0.7-1.3-2.5-2.8-4.3-2.2c-0.9,0.3-2.1,0.3-3-1c-1.1-1.7,0.8-3.8-2.5-3.6c4-2,2.8,1.9,4.8,2.4c2.2,0.5,2.5-0.8,3.3-1.7
					c0.6-0.7,1.8-1.3,3-0.5C2768,351.4,2767.1,348.6,2768.7,347.2 M2771.3,358.9c-0.5-3.1,4.6-8.1,1.4-13.2c6.2,5,1.3,7.9,4.4,12
					c-1.2-0.4-2.4-1.4-2.8-2c-1.7,2.3,4.2,5.4,0.3,10.7C2774.8,363.4,2771.9,361.9,2771.3,358.9 M2764.8,341.9c0.7,0,2,0.5,1.5,1.1
					c-1.7,1.6-4,0.9-5.9,2.5C2761.1,343.5,2764.5,343.3,2764.8,341.9 M2765.4,346.3c0.2-2.6,5.1-2.9,2-4.4c2.9,0.4,3.6,1.5,2.9,2.3
					c-0.6,0.7-3.4,1.6-4.2,2.5c3-0.1-0.5,1.5-1.5,5.2c-0.4,1.6-4.1,1.1-4.6,0.3c0.9,0.2,3.8-0.4,4.9-4.2c0-0.1-0.1-0.1-0.1,0
					c-1.4,1.5-2.4,1.8-3,1.4c-0.6,0.5-0.9,0.9-1.5,1.9c-1-0.9-0.6-1.7,0.4-2.7c0.1-0.1,0-0.3-0.2-0.4c-0.9-0.4-1.1-1.6-0.2-2.1
					c-0.3,0.8,0.6,1.3,1.4,0.6c0.4-0.4,0.9-0.3,1.6-0.2c0.3,0,0.6,0.1,0.9,0.1l0,0C2764.6,346.5,2765,346.4,2765.4,346.3
					 M2771.8,342.2c-0.3-0.8,0.6-2.9,1.1-2.6c1.3,0.7,2.2,3.8,2,5.3C2774,343.8,2773.3,343.2,2771.8,342.2 M2769.3,338.7
					c0.1-0.8,0.7-2.9,1.4-4c0.7-1,1.9-1.1,3.5,0.2c1.7,1.4,2.9,1.9,5.2,4.9c1.9,0.9,5,2,7.6,5.2c-1.1-0.8-2.4-1-3.5-1.2
					c2.2,1.9,3.6,5,2.5,9.5c-0.4-4.2-3.5-6-5.4-7.4c1,3.6-3.5,2.3-4.8-0.4c0.5,0.1,0.9,0.1,1.2-0.1c-0.1-5.5-2.7-8.6-3.8-9.6
					c-1.5-1.2-2.3,1.7-2.8,3.9c-0.2,0.7-0.8,1.3-1.6,1.2c0.2-0.3,0.4-1,0.4-1.2c-2.3,0.2-4.8,1.5-6.4,2.2c-4,1.8-5,2.7-5.9,5.7
					c-3.2,1.3-6.8,5-8.3,6.7c0.9-2.5,3.3-5.4,7-7.6c0.9-2.2,0.6-3.7,9.6-7.2c0.2-1.3,0.2-2.9,0.6-2.9c0.4,0,1.7,0.6,2.7,2
					C2768.7,338.8,2769,338.7,2769.3,338.7 M2743.2,357.8c0,14.3,11.5,25.8,25.8,25.9c14.3,0,25.8-11.5,25.9-25.8
					c0-14.3-11.5-25.8-25.8-25.9c0,0,0,0-0.1,0C2754.8,332,2743.2,343.5,2743.2,357.8 M2769,385.9c-15.5,0-28-12.6-28-28.1
					s12.6-28,28.1-28s28,12.6,28,28.1S2784.5,385.9,2769,385.9L2769,385.9 M2739.9,357.8c0,16.1,13,29.2,29.1,29.2
					s29.2-13,29.2-29.1s-13-29.2-29.1-29.2c0,0,0,0-0.1,0C2752.9,328.7,2739.9,341.7,2739.9,357.8"/>
			</g>
			<g class="st1">
				<path class="st2" d="M2817.5,370c0.5-0.2,0.9-1,0.9-1s-0.9-0.2-1.6-0.6C2816.8,369.1,2817.4,369.8,2817.5,370 M2822.4,364
					c0.3,0.4,0.6,1.4,0.3,1.7c-0.4,0.3-0.7-0.1-1.1-0.1c-0.2,0.7-0.2,1.4-0.5,1.7c2-1,2.8-1.4,3-2.7c0.1-0.4-0.9-0.6-1.4-0.6l0,0
					C2822.5,364,2822.4,364,2822.4,364 M2813.6,364.5c0,0.8,1.5,1.7,1.5,1.7s-0.4-1.5-0.3-2.7
					C2814.6,363.6,2813.8,364.1,2813.6,364.5 M2808.1,356.3c-0.8,0.2-1.4,0.9-1.5,1c0.1,0.4,1.2,1.6,2,2.1c0.6-0.4,0.4-0.8,0.3-1
					c-0.1-0.3-0.9-0.5-0.6-1.2c0.1-0.4,0.7-0.4,0.7-0.6c0.1-0.1-0.2-0.4-0.5-0.4l0,0C2808.3,356.2,2808.2,356.2,2808.1,356.3
					 M2821.1,347.2c0.4,1.1-0.3,1.4-0.6,0.7c0.1,0.4,0.3,0.7,0.5,0.7c0.4,0,0.8-1,1.6-1.4C2821.8,347.2,2821.4,347.2,2821.1,347.2
					 M2816.2,357.7c1.6,0.4,1.7,1.7,0.7,2.6c-0.7-2.1-3.7,0.3-4.7,1.6C2812.4,359.5,2815,357.4,2816.2,357.7 M2816.1,356.5
					c-2-0.5-3.8,1.8-4.8,3.6C2811.7,357.7,2814.7,353.7,2816.1,356.5 M2814.8,354.1c-1.1,0.4-2,1-3.1,2.5
					C2812.4,354.2,2814,353.4,2814.8,354.1 M2847.1,347c7.1,12.9,0.3,29.5-15,32.9c1.8-2.3,3.3-5.7,3.1-6.8c-2,1.4-5.9,2.1-6.8,1.6
					c3.6-3.3,3.1-6.7,1-7s-4.6,3-4.4,7.5c-1.8-0.8-7.6,0.3-8.1-4.3c-0.7-1-0.9-2.7-0.7-3.4c5.2,3,3-3.7,6.1-4.4
					c-0.3-0.9-3-3.1-6.5,0.4c-0.2,0.6-0.1,2.9,0.1,3.7c-1.6-0.2-2.9-1.8-3.2-2.2c-1.7-0.2-3.4-0.7-5-5c-1.4-0.9-2.1-1.8-2.5-2.8
					c0-0.2,0.2-1.3,1.2-2.2c0,0-0.4,0.9-0.1,1.3c1.8-1.4,2.5-1,3.2-0.7c0.4,0.2,0.8,0.4,1.3,0.3c0,1.7-1.7,2.8-1.6,4.4
					c1,2.6,1.7,2.9,3.7,3.2c2.4-1.2,4.4-3.9,7.3-3.9c2.4,0,5.3,1.1,5.8,4.4c0.3,2.3-4.7,5.7-6.6,5c-3.2,3.5,2.2,4.6,4,4.1
					c1.3-5.9,4.5-7.6,6.9-6.7c2.7,0.9,3.1,4.4,1.2,6.4c1.5-0.4,3.7-1.5,4.5-4.4c0.6,0.6,0.8,2.1,0.8,2.7c1.6-2.3,1.1-7.4-0.2-9.3
					c1,0.1,2,0.5,3,1.4c0.7-3.7-1.7-8.4-2.8-9.2c0.7-0.1,1.7,0,3.1,0.7c-0.4-2.2-2.4-3.7-2.3-5.4c0.8,1.6,5.1,2,4.8,7.9
					c-0.5-0.5-1.6-1-2.1-1c1.5,3.8,1.4,7.5,0.6,10.2c-0.3-0.5-0.8-1.2-1.4-1.4c0.5,2.1-0.1,7.9-1.6,10.2c9.6-6.6,3-16.7,7.3-20.9
					c-0.9,4.4,1.3,8.1,1.1,10.6C2848.5,360.9,2849.1,354.1,2847.1,347 M2827.1,347.2c0.6-0.5,2.5-0.5,3.5,0.3
					c-1.4,0-3.1,1.7-3.9,6.4c0.4,0.5,3.1,4.5,0,9.5c0.8-3.7-1.5-10.9-4-7.2c1.7,0.8,2.3,2.2,1.8,3.5c-0.7-1.3-2.5-2.8-4.3-2.2
					c-0.9,0.3-2.1,0.3-3-1c-1.2-1.7,0.8-3.8-2.5-3.6c4-2,2.8,1.9,4.8,2.4c2.2,0.5,2.5-0.8,3.3-1.7c0.6-0.7,1.8-1.3,3-0.5
					C2826.3,351.4,2825.4,348.6,2827.1,347.2 M2829.6,358.9c-0.5-3.1,4.6-8.1,1.4-13.2c6.1,5,1.3,7.9,4.4,12c-1.2-0.4-2.4-1.4-2.8-2
					c-1.7,2.3,4.2,5.4,0.3,10.7C2833.1,363.4,2830.2,361.9,2829.6,358.9 M2823.1,341.9c0.7,0,2,0.5,1.5,1.1c-1.7,1.6-4,0.9-5.8,2.5
					C2819.5,343.5,2822.8,343.3,2823.1,341.9 M2823.7,346.3c0.2-2.6,5.1-2.9,2-4.4c2.9,0.4,3.6,1.5,2.9,2.3
					c-0.6,0.7-3.3,1.6-4.2,2.5c3-0.1-0.5,1.5-1.5,5.2c-0.5,1.6-4.1,1.1-4.6,0.3c0.9,0.2,3.8-0.4,4.9-4.2c0-0.1,0-0.1-0.1,0
					c-1.4,1.5-2.4,1.8-3,1.4c-0.6,0.5-0.9,0.9-1.5,1.9c-1-0.9-0.6-1.7,0.4-2.7c0.1-0.1,0-0.3-0.2-0.4c-0.9-0.4-1.1-1.6-0.2-2.1
					c-0.3,0.8,0.6,1.3,1.4,0.6c0.4-0.4,0.9-0.3,1.6-0.2c0.3,0,0.6,0.1,0.9,0.1l0,0C2822.9,346.5,2823.3,346.4,2823.7,346.3
					 M2830.1,342.2c-0.3-0.8,0.6-2.9,1.1-2.6c1.3,0.7,2.2,3.8,2,5.3C2832.3,343.8,2831.6,343.2,2830.1,342.2 M2827.6,338.7
					c0.2-0.8,0.7-2.9,1.4-4c0.7-1,1.9-1.1,3.5,0.2c1.7,1.4,2.9,1.9,5.2,4.9c1.9,0.9,5,2,7.6,5.2c-1.1-0.8-2.4-1-3.5-1.2
					c2.1,1.9,3.6,5,2.5,9.5c-0.4-4.2-3.5-6-5.5-7.4c1,3.6-3.5,2.3-4.8-0.4c0.4,0.1,0.9,0.1,1.2-0.1c-0.1-5.5-2.7-8.6-3.9-9.6
					c-1.5-1.2-2.3,1.7-2.8,3.9c-0.2,0.7-0.8,1.3-1.6,1.2c0.2-0.3,0.4-1,0.4-1.2c-2.3,0.2-4.8,1.5-6.4,2.2c-4,1.8-5,2.7-5.9,5.7
					c-3.2,1.3-6.8,5-8.4,6.7c0.9-2.5,3.3-5.4,7-7.6c0.9-2.2,0.6-3.7,9.6-7.2c0.2-1.3,0.2-2.9,0.6-2.9c0.4,0,1.7,0.6,2.7,2
					C2827,338.8,2827.3,338.7,2827.6,338.7 M2801.5,357.8c0,14.3,11.5,25.8,25.8,25.9c14.3,0,25.8-11.5,25.9-25.8
					c0-14.3-11.5-25.8-25.8-25.9l0,0C2813.1,332,2801.5,343.5,2801.5,357.8 M2827.3,385.9c-15.5,0-28-12.6-28-28.1s12.6-28,28.1-28
					s28,12.6,28,28.1S2842.8,385.9,2827.3,385.9L2827.3,385.9 M2798.2,357.8c0,16.1,13,29.2,29.1,29.2s29.2-13,29.2-29.1
					s-13-29.2-29.1-29.2c0,0,0,0-0.1,0C2811.3,328.7,2798.2,341.7,2798.2,357.8"/>
			</g>
		</g>
		<g>
			<g>
				<g class="st1">
					<path class="st2" d="M252.8,99.6c0.5-0.2,0.9-1,0.9-1s-0.9-0.2-1.6-0.6C252.1,98.8,252.7,99.5,252.8,99.6 M257.7,93.7
						c0.3,0.3,0.6,1.4,0.3,1.7c-0.4,0.3-0.7-0.1-1.1-0.1c-0.2,0.7-0.2,1.4-0.5,1.7c2-1,2.8-1.4,3-2.7c0.1-0.4-0.9-0.6-1.4-0.6l0,0
						C257.8,93.7,257.7,93.7,257.7,93.7 M248.9,94.1c0,0.8,1.5,1.7,1.5,1.7s-0.4-1.5-0.3-2.7C249.9,93.2,249.1,93.7,248.9,94.1
						 M243.4,85.9c-0.8,0.2-1.4,0.9-1.5,1c0.1,0.4,1.2,1.6,2,2.1c0.6-0.4,0.4-0.9,0.3-1c-0.1-0.3-0.9-0.5-0.6-1.2
						c0.2-0.4,0.6-0.4,0.7-0.6c0.1-0.1-0.2-0.4-0.6-0.4l0,0C243.6,85.9,243.5,85.9,243.4,85.9 M256.4,76.9c0.4,1.1-0.3,1.4-0.6,0.7
						c0.1,0.4,0.3,0.7,0.5,0.7c0.4,0,0.8-1,1.6-1.4C257.1,76.9,256.7,76.9,256.4,76.9 M251.5,87.3c1.6,0.4,1.7,1.7,0.7,2.6
						c-0.7-2.1-3.7,0.3-4.7,1.6C247.7,89.1,250.3,87,251.5,87.3 M251.4,86.2c-2-0.5-3.8,1.8-4.8,3.6C247,87.3,250,83.4,251.4,86.2
						 M250.1,83.7c-1.2,0.4-2,1-3.1,2.5C247.7,83.9,249.3,83,250.1,83.7 M282.4,76.6c7.1,12.9,0.3,29.5-15,32.9
						c1.8-2.4,3.3-5.7,3.1-6.8c-2,1.4-5.9,2.1-6.8,1.6c3.6-3.3,3.1-6.7,1-7s-4.6,3-4.4,7.5c-1.8-0.8-7.6,0.3-8.1-4.3
						c-0.7-1-0.9-2.7-0.7-3.4c5.2,3,3-3.7,6.1-4.4c-0.3-0.9-3-3.1-6.5,0.4c-0.2,0.6-0.1,2.9,0.1,3.7c-1.6-0.2-2.9-1.8-3.2-2.2
						c-1.7-0.2-3.4-0.7-5-5c-1.4-0.9-2.1-1.8-2.5-2.8c0-0.2,0.2-1.3,1.2-2.2c0,0-0.4,0.9-0.1,1.4c1.8-1.4,2.5-1.1,3.2-0.7
						c0.4,0.2,0.8,0.4,1.3,0.3c0,1.7-1.7,2.8-1.6,4.4c1,2.6,1.7,2.9,3.7,3.2c2.4-1.2,4.4-3.9,7.3-3.9c2.4,0,5.3,1.1,5.8,4.4
						c0.3,2.3-4.7,5.7-6.6,5c-3.2,3.5,2.2,4.6,4,4.1c1.3-5.9,4.5-7.6,6.9-6.8c2.7,1,3.1,4.4,1.2,6.4c1.5-0.4,3.7-1.6,4.5-4.4
						c0.6,0.6,0.8,2.2,0.8,2.7c1.6-2.3,1.1-7.4-0.2-9.3c1,0.1,2,0.5,3,1.4c0.7-3.7-1.7-8.4-2.8-9.2c0.7-0.1,1.7,0,3.1,0.7
						c-0.4-2.2-2.4-3.7-2.4-5.4c0.8,1.6,5.1,2,4.8,7.9c-0.5-0.5-1.6-1-2.1-1c1.5,3.8,1.4,7.5,0.6,10.2c-0.3-0.5-0.8-1.2-1.4-1.4
						c0.5,2.1-0.2,7.9-1.6,10.2c9.6-6.6,3-16.7,7.3-20.9c-0.9,4.4,1.3,8.1,1.1,10.6C283.8,90.5,284.4,83.7,282.4,76.6 M262.4,76.9
						c0.6-0.5,2.5-0.5,3.5,0.3c-1.4,0-3.1,1.6-3.9,6.4c0.4,0.5,3.1,4.5,0,9.6c0.8-3.7-1.5-10.9-4-7.2c1.7,0.8,2.3,2.2,1.8,3.5
						c-0.7-1.3-2.5-2.8-4.3-2.2c-0.9,0.3-2.1,0.3-3-1c-1.2-1.7,0.8-3.8-2.5-3.6c4-2,2.8,1.9,4.8,2.4c2.2,0.5,2.5-0.8,3.3-1.7
						c0.6-0.7,1.8-1.3,3-0.5C261.6,81.1,260.7,78.3,262.4,76.9 M264.9,88.5c-0.5-3.1,4.6-8.1,1.4-13.2c6.1,5,1.3,7.9,4.4,12
						c-1.2-0.4-2.4-1.4-2.8-2c-1.7,2.3,4.2,5.4,0.3,10.7C268.4,93,265.5,91.6,264.9,88.5 M258.4,71.6c0.7,0,2,0.5,1.5,1.1
						c-1.7,1.6-4,0.9-5.9,2.5C254.8,73.2,258.1,72.9,258.4,71.6 M259,75.9c0.2-2.6,5.1-2.9,2-4.4c2.9,0.4,3.6,1.5,2.9,2.3
						c-0.6,0.7-3.3,1.6-4.2,2.5c3-0.1-0.5,1.5-1.5,5.1c-0.5,1.6-4.1,1.1-4.6,0.3c0.9,0.2,3.8-0.4,4.9-4.2c0-0.1-0.1-0.1-0.1,0
						c-1.4,1.5-2.4,1.8-3,1.4c-0.6,0.5-0.9,0.9-1.5,1.9c-1-0.9-0.6-1.8,0.4-2.7c0.1-0.1,0-0.3-0.2-0.4c-0.9-0.4-1.1-1.6-0.2-2.1
						c-0.3,0.8,0.6,1.3,1.4,0.6c0.4-0.4,0.9-0.3,1.6-0.2c0.3,0,0.6,0.1,0.9,0.1l0,0C258.2,76.1,258.6,76.1,259,75.9 M265.4,71.9
						c-0.3-0.8,0.6-2.9,1.1-2.6c1.3,0.7,2.2,3.8,2,5.3C267.6,73.4,266.9,72.8,265.4,71.9 M262.9,68.4c0.2-0.8,0.7-2.9,1.4-4
						c0.7-1,1.9-1.1,3.5,0.2c1.7,1.4,2.9,1.9,5.2,4.9c1.9,0.9,5,2,7.6,5.2c-1.1-0.7-2.4-1-3.5-1.2c2.1,1.9,3.6,5,2.5,9.5
						c-0.4-4.2-3.5-6-5.4-7.4c1,3.6-3.5,2.3-4.8-0.4c0.5,0.1,0.9,0.1,1.2-0.1c-0.1-5.5-2.7-8.6-3.9-9.6c-1.5-1.2-2.3,1.7-2.8,3.9
						c-0.2,0.7-0.8,1.3-1.6,1.2c0.2-0.2,0.4-1,0.4-1.2c-2.3,0.2-4.8,1.5-6.4,2.2c-4,1.8-5,2.7-5.9,5.7c-3.2,1.3-6.8,5-8.4,6.7
						c0.9-2.5,3.3-5.4,7-7.7c0.9-2.2,0.6-3.7,9.6-7.2c0.2-1.3,0.2-2.9,0.6-2.9s1.7,0.6,2.7,2C262.3,68.4,262.6,68.4,262.9,68.4
						 M236.8,87.4c0,14.3,11.5,25.8,25.8,25.9c14.3,0,25.8-11.5,25.9-25.8c0-14.3-11.5-25.8-25.8-25.9l0,0
						C248.4,61.6,236.8,73.2,236.8,87.4 M262.6,115.5c-15.5,0-28-12.6-28-28.1s12.6-28,28.1-28s28,12.6,28,28.1
						S278.1,115.5,262.6,115.5L262.6,115.5 M233.5,87.4c0,16.1,13,29.2,29.1,29.2s29.2-13,29.2-29.1s-13-29.2-29.1-29.2
						c0,0,0,0-0.1,0C246.6,58.3,233.5,71.3,233.5,87.4"/>
				</g>
				<g class="st1">
					<path class="st2" d="M252.8,41.3c0.5-0.2,0.9-1,0.9-1s-0.9-0.2-1.6-0.6C252.1,40.5,252.7,41.1,252.8,41.3 M257.7,35.4
						c0.3,0.4,0.6,1.4,0.3,1.7c-0.4,0.3-0.7-0.1-1.1-0.1c-0.2,0.7-0.2,1.4-0.5,1.7c2-1,2.8-1.4,3-2.7c0.1-0.4-0.9-0.6-1.4-0.6l0,0
						C257.8,35.3,257.7,35.3,257.7,35.4 M248.9,35.8c0,0.8,1.5,1.7,1.5,1.7s-0.4-1.5-0.3-2.7C249.9,34.9,249.1,35.4,248.9,35.8
						 M243.4,27.6c-0.8,0.2-1.4,0.9-1.5,1c0.1,0.4,1.2,1.6,2,2.1c0.6-0.4,0.4-0.8,0.3-1c-0.1-0.3-0.9-0.5-0.6-1.2
						c0.2-0.4,0.6-0.4,0.7-0.6c0.1-0.1-0.2-0.4-0.6-0.4l0,0C243.6,27.6,243.5,27.6,243.4,27.6 M256.4,18.6c0.4,1.1-0.3,1.4-0.6,0.7
						c0.1,0.4,0.3,0.7,0.5,0.7c0.4,0,0.8-1,1.6-1.4C257.1,18.6,256.7,18.6,256.4,18.6 M251.5,29c1.6,0.4,1.7,1.7,0.7,2.6
						c-0.7-2.1-3.7,0.3-4.7,1.6C247.7,30.8,250.3,28.7,251.5,29 M251.4,27.8c-2-0.5-3.8,1.8-4.8,3.6C247,29,250,25.1,251.4,27.8
						 M250.1,25.4c-1.2,0.4-2,1.1-3.1,2.5C247.7,25.6,249.3,24.7,250.1,25.4 M282.4,18.3c7.1,12.9,0.3,29.5-15,32.9
						c1.8-2.3,3.3-5.7,3.1-6.8c-2,1.4-5.9,2.1-6.8,1.6c3.6-3.3,3.1-6.7,1-7c-2.1-0.3-4.6,3-4.4,7.4c-1.8-0.8-7.6,0.3-8.1-4.3
						c-0.7-1-0.9-2.7-0.7-3.4c5.2,3,3-3.7,6.1-4.4c-0.3-0.9-3-3.1-6.5,0.4c-0.2,0.6-0.1,2.9,0.1,3.7c-1.6-0.2-2.9-1.8-3.2-2.2
						c-1.7-0.2-3.4-0.7-5-5c-1.4-0.9-2.1-1.8-2.5-2.8c0-0.2,0.2-1.3,1.2-2.2c0,0-0.4,0.9-0.1,1.3c1.8-1.4,2.5-1,3.2-0.7
						c0.4,0.2,0.8,0.4,1.3,0.3c0,1.7-1.7,2.8-1.6,4.4c1,2.6,1.7,2.9,3.7,3.2c2.4-1.2,4.4-3.9,7.3-3.9c2.4,0,5.3,1.1,5.8,4.4
						c0.3,2.3-4.7,5.7-6.6,5c-3.2,3.5,2.2,4.6,4,4.1c1.3-5.9,4.5-7.6,6.9-6.7c2.7,0.9,3.1,4.4,1.2,6.4c1.5-0.4,3.7-1.5,4.5-4.4
						c0.6,0.6,0.8,2.1,0.8,2.7c1.6-2.3,1.1-7.4-0.2-9.3c1,0.1,2,0.5,3,1.4c0.7-3.7-1.7-8.4-2.8-9.2c0.7-0.1,1.7,0,3.1,0.7
						c-0.4-2.2-2.4-3.7-2.4-5.4c0.8,1.6,5.1,2,4.8,7.9c-0.5-0.5-1.6-1-2.1-1c1.5,3.8,1.4,7.5,0.6,10.2c-0.3-0.5-0.8-1.2-1.4-1.4
						c0.5,2.1-0.2,7.9-1.6,10.2c9.6-6.6,3-16.7,7.3-20.9c-0.9,4.4,1.3,8.1,1.1,10.6C283.8,32.2,284.4,25.4,282.4,18.3 M262.4,18.5
						c0.6-0.5,2.5-0.5,3.5,0.3c-1.4,0-3.1,1.6-3.9,6.4c0.4,0.5,3.1,4.5,0,9.5c0.8-3.7-1.5-10.9-4-7.2c1.7,0.8,2.3,2.2,1.8,3.5
						c-0.7-1.3-2.5-2.8-4.3-2.2c-0.9,0.3-2.1,0.3-3-1c-1.2-1.7,0.8-3.8-2.5-3.6c4-2,2.8,1.9,4.8,2.4c2.2,0.5,2.5-0.8,3.3-1.7
						c0.6-0.7,1.8-1.3,3-0.5C261.6,22.7,260.7,20,262.4,18.5 M264.9,30.2c-0.5-3.1,4.6-8.1,1.4-13.2c6.1,5,1.3,7.9,4.4,12
						c-1.2-0.4-2.4-1.4-2.8-2c-1.7,2.3,4.2,5.4,0.3,10.7C268.4,34.7,265.5,33.3,264.9,30.2 M258.4,13.2c0.7,0,2,0.5,1.5,1.1
						c-1.7,1.6-4,0.9-5.9,2.5C254.8,14.9,258.1,14.6,258.4,13.2 M259,17.6c0.2-2.6,5.1-2.9,2-4.4c2.9,0.4,3.6,1.5,2.9,2.3
						c-0.6,0.7-3.3,1.6-4.2,2.5c3-0.1-0.5,1.5-1.5,5.2c-0.5,1.6-4.1,1.1-4.6,0.3c0.9,0.2,3.8-0.4,4.9-4.2c0-0.1-0.1-0.1-0.1,0
						c-1.4,1.5-2.4,1.8-3,1.4c-0.6,0.5-0.9,0.9-1.5,1.9c-1-0.9-0.6-1.7,0.4-2.7c0.1-0.1,0-0.3-0.2-0.4c-0.9-0.4-1.1-1.6-0.2-2.1
						c-0.3,0.8,0.6,1.3,1.4,0.6c0.4-0.4,0.9-0.3,1.6-0.2c0.3,0,0.6,0.1,0.9,0.1l0,0C258.2,17.8,258.6,17.8,259,17.6 M265.4,13.6
						c-0.3-0.8,0.6-2.9,1.1-2.6c1.3,0.7,2.2,3.8,2,5.3C267.6,15.1,266.9,14.5,265.4,13.6 M262.9,10c0.2-0.8,0.7-2.9,1.4-4
						c0.7-1,1.9-1.1,3.5,0.2c1.7,1.4,2.9,1.9,5.2,4.9c1.9,0.9,5,2,7.6,5.2c-1.1-0.8-2.4-1-3.5-1.2c2.1,1.9,3.6,5,2.5,9.5
						c-0.4-4.2-3.5-6-5.4-7.4c1,3.6-3.5,2.3-4.8-0.4c0.5,0.1,0.9,0.1,1.2-0.1c-0.1-5.5-2.7-8.6-3.9-9.6c-1.5-1.2-2.3,1.7-2.8,3.9
						c-0.2,0.7-0.8,1.3-1.6,1.2c0.2-0.3,0.4-1,0.4-1.2c-2.3,0.2-4.8,1.5-6.4,2.2c-4,1.8-5,2.7-5.9,5.7c-3.2,1.3-6.8,5-8.4,6.7
						c0.9-2.5,3.3-5.4,7-7.6c0.9-2.2,0.6-3.7,9.6-7.2c0.2-1.3,0.2-2.9,0.6-2.9s1.7,0.6,2.7,2C262.3,10.1,262.6,10.1,262.9,10
						 M236.8,29.1c0,14.3,11.5,25.8,25.8,25.9c14.3,0,25.8-11.5,25.9-25.8c0-14.3-11.5-25.8-25.8-25.9l0,0
						C248.4,3.3,236.8,14.9,236.8,29.1 M262.6,57.2c-15.5,0-28-12.6-28-28.1s12.6-28,28.1-28s28,12.6,28,28.1S278.1,57.2,262.6,57.2
						L262.6,57.2 M233.5,29.1c0,16.1,13,29.2,29.1,29.2s29.2-13,29.2-29.1S278.8,0,262.7,0c0,0,0,0-0.1,0
						C246.6,0,233.5,13,233.5,29.1"/>
				</g>
			</g>
			<g>
				<g class="st1">
					<path class="st2" d="M252.8,507.8c0.5-0.2,0.9-1,0.9-1s-0.9-0.2-1.6-0.6C252.1,506.9,252.7,507.6,252.8,507.8 M257.7,501.8
						c0.3,0.3,0.6,1.4,0.3,1.7c-0.4,0.3-0.7-0.1-1.1-0.1c-0.2,0.7-0.2,1.4-0.5,1.7c2-1,2.8-1.4,3-2.7c0.1-0.4-0.9-0.6-1.4-0.6l0,0
						C257.8,501.8,257.7,501.8,257.7,501.8 M248.9,502.3c0,0.8,1.5,1.7,1.5,1.7s-0.4-1.5-0.3-2.7
						C249.9,501.4,249.1,501.9,248.9,502.3 M243.4,494.1c-0.8,0.2-1.4,0.9-1.5,1c0.1,0.4,1.2,1.6,2,2.1c0.6-0.4,0.4-0.9,0.3-1.1
						c-0.1-0.3-0.9-0.5-0.6-1.2c0.2-0.4,0.6-0.4,0.7-0.6c0.1-0.1-0.2-0.4-0.6-0.4l0,0C243.6,494.1,243.5,494.1,243.4,494.1
						 M256.4,485c0.4,1.1-0.3,1.4-0.6,0.7c0.1,0.4,0.3,0.7,0.5,0.7c0.4,0,0.8-1,1.6-1.4C257.1,485.1,256.7,485,256.4,485
						 M251.5,495.5c1.6,0.4,1.7,1.7,0.7,2.6c-0.7-2.1-3.7,0.3-4.7,1.6C247.7,497.3,250.3,495.2,251.5,495.5 M251.4,494.3
						c-2-0.5-3.8,1.8-4.8,3.6C247,495.5,250,491.5,251.4,494.3 M250.1,491.9c-1.2,0.4-2,1-3.1,2.5
						C247.7,492,249.3,491.2,250.1,491.9 M282.4,484.8c7.1,12.9,0.3,29.5-15,32.9c1.8-2.4,3.3-5.7,3.1-6.8c-2,1.4-5.9,2.1-6.8,1.6
						c3.6-3.3,3.1-6.7,1-7s-4.6,3-4.4,7.5c-1.8-0.8-7.6,0.3-8.1-4.3c-0.7-1-0.9-2.7-0.7-3.4c5.2,3,3-3.7,6.1-4.4
						c-0.3-0.9-3-3.1-6.5,0.4c-0.2,0.6-0.1,2.9,0.1,3.7c-1.6-0.2-2.9-1.8-3.2-2.2c-1.7-0.2-3.4-0.7-5-5c-1.4-0.9-2.1-1.8-2.5-2.8
						c0-0.2,0.2-1.3,1.2-2.2c0,0-0.4,0.9-0.1,1.3c1.8-1.4,2.5-1,3.2-0.7c0.4,0.2,0.8,0.4,1.3,0.3c0,1.7-1.7,2.8-1.6,4.4
						c1,2.7,1.7,2.9,3.7,3.2c2.4-1.2,4.4-3.9,7.3-3.9c2.4,0,5.3,1.1,5.8,4.4c0.3,2.3-4.7,5.7-6.6,5c-3.2,3.5,2.2,4.6,4,4.1
						c1.3-5.9,4.5-7.6,6.9-6.8c2.7,1,3.1,4.4,1.2,6.4c1.5-0.4,3.7-1.5,4.5-4.4c0.6,0.6,0.8,2.1,0.8,2.7c1.6-2.3,1.1-7.4-0.2-9.3
						c1,0.1,2,0.5,3,1.4c0.7-3.7-1.7-8.4-2.8-9.2c0.7-0.1,1.7,0,3.1,0.7c-0.4-2.2-2.4-3.7-2.4-5.4c0.8,1.6,5.1,2,4.8,7.9
						c-0.5-0.5-1.6-1-2.1-1c1.5,3.8,1.4,7.5,0.6,10.2c-0.3-0.5-0.8-1.2-1.4-1.4c0.5,2.1-0.2,7.9-1.6,10.2c9.6-6.6,3-16.7,7.3-20.9
						c-0.9,4.4,1.3,8.1,1.1,10.7C283.8,498.7,284.4,491.9,282.4,484.8 M262.4,485c0.6-0.5,2.5-0.5,3.5,0.3c-1.4,0-3.1,1.7-3.9,6.4
						c0.4,0.5,3.1,4.5,0,9.6c0.8-3.7-1.5-10.8-4-7.2c1.7,0.8,2.3,2.2,1.8,3.5c-0.7-1.3-2.5-2.8-4.3-2.2c-0.9,0.3-2.1,0.3-3-1
						c-1.2-1.7,0.8-3.8-2.5-3.6c4-2,2.8,1.9,4.8,2.4c2.2,0.5,2.5-0.8,3.3-1.7c0.6-0.7,1.8-1.3,3-0.5
						C261.6,489.2,260.7,486.5,262.4,485 M264.9,496.7c-0.5-3.1,4.6-8.1,1.4-13.2c6.1,5,1.3,7.9,4.4,12c-1.2-0.4-2.4-1.5-2.8-2
						c-1.7,2.3,4.2,5.4,0.3,10.7C268.4,501.2,265.5,499.8,264.9,496.7 M258.4,479.7c0.7,0,2,0.5,1.5,1.1c-1.7,1.6-4,0.9-5.9,2.5
						C254.8,481.4,258.1,481.1,258.4,479.7 M259,484.1c0.2-2.6,5.1-2.9,2-4.4c2.9,0.4,3.6,1.5,2.9,2.3c-0.6,0.7-3.3,1.6-4.2,2.5
						c3-0.1-0.5,1.5-1.5,5.2c-0.5,1.6-4.1,1.1-4.6,0.3c0.9,0.2,3.8-0.4,4.9-4.2c0-0.1-0.1-0.1-0.1,0c-1.4,1.5-2.4,1.8-3,1.4
						c-0.6,0.5-0.9,0.9-1.5,1.9c-1-0.9-0.6-1.7,0.4-2.7c0.1-0.1,0-0.3-0.2-0.4c-0.9-0.4-1.1-1.6-0.2-2.1c-0.3,0.8,0.6,1.3,1.4,0.6
						c0.4-0.4,0.9-0.3,1.6-0.2c0.3,0,0.6,0.1,0.9,0.1l0,0C258.2,484.3,258.6,484.3,259,484.1 M265.4,480c-0.3-0.8,0.6-2.9,1.1-2.6
						c1.3,0.7,2.2,3.8,2,5.3C267.6,481.6,266.9,481,265.4,480 M262.9,476.5c0.2-0.8,0.7-2.9,1.4-4c0.7-1,1.9-1.1,3.5,0.2
						c1.7,1.4,2.9,2,5.2,4.9c1.9,0.9,5,2,7.6,5.2c-1.1-0.7-2.4-1-3.5-1.2c2.1,1.9,3.6,5,2.5,9.5c-0.4-4.2-3.5-6-5.4-7.4
						c1,3.6-3.5,2.3-4.8-0.4c0.5,0.1,0.9,0.1,1.2,0c-0.1-5.5-2.7-8.6-3.9-9.6c-1.5-1.2-2.3,1.7-2.8,3.9c-0.2,0.7-0.8,1.3-1.6,1.2
						c0.2-0.3,0.4-1,0.4-1.2c-2.3,0.2-4.8,1.5-6.4,2.2c-4,1.8-5,2.7-5.9,5.7c-3.2,1.3-6.8,5-8.4,6.7c0.9-2.5,3.3-5.4,7-7.6
						c0.9-2.2,0.6-3.7,9.6-7.2c0.2-1.3,0.2-2.9,0.6-2.9s1.7,0.6,2.7,2C262.3,476.6,262.6,476.6,262.9,476.5 M236.8,495.6
						c0,14.3,11.5,25.8,25.8,25.9c14.3,0,25.8-11.5,25.9-25.8c0-14.3-11.5-25.8-25.8-25.9l0,0C248.4,469.8,236.8,481.4,236.8,495.6
						 M262.6,523.7c-15.5,0-28-12.6-28-28.1s12.6-28,28.1-28s28,12.6,28,28.1S278.1,523.7,262.6,523.7L262.6,523.7 M233.5,495.6
						c0,16.1,13,29.2,29.1,29.2s29.2-13,29.2-29.1s-13-29.2-29.1-29.2c0,0,0,0-0.1,0C246.6,466.5,233.5,479.5,233.5,495.6"/>
				</g>
				<g class="st1">
					<path class="st2" d="M252.8,449.5c0.5-0.2,0.9-1,0.9-1s-0.9-0.2-1.6-0.6C252.1,448.6,252.7,449.3,252.8,449.5 M257.7,443.5
						c0.3,0.4,0.6,1.4,0.3,1.7c-0.4,0.3-0.7-0.1-1.1-0.1c-0.2,0.7-0.2,1.4-0.5,1.7c2-1,2.8-1.4,3-2.7c0.1-0.4-0.9-0.6-1.4-0.6l0,0
						C257.8,443.5,257.7,443.5,257.7,443.5 M248.9,444c0,0.8,1.5,1.7,1.5,1.7s-0.4-1.5-0.3-2.7C249.9,443.1,249.1,443.6,248.9,444
						 M243.4,435.8c-0.8,0.2-1.4,0.9-1.5,1c0.1,0.4,1.2,1.6,2,2.1c0.6-0.4,0.4-0.8,0.3-1.1c-0.1-0.3-0.9-0.5-0.6-1.2
						c0.2-0.4,0.6-0.4,0.7-0.6c0.1-0.1-0.2-0.4-0.6-0.4l0,0C243.6,435.7,243.5,435.7,243.4,435.8 M256.4,426.7
						c0.4,1.1-0.3,1.4-0.6,0.7c0.1,0.4,0.3,0.7,0.5,0.7c0.4,0,0.8-1,1.6-1.4C257.1,426.8,256.7,426.7,256.4,426.7 M251.5,437.2
						c1.6,0.4,1.7,1.7,0.7,2.6c-0.7-2.1-3.7,0.3-4.7,1.6C247.7,439,250.3,436.9,251.5,437.2 M251.4,436c-2-0.5-3.8,1.8-4.8,3.6
						C247,437.2,250,433.2,251.4,436 M250.1,433.6c-1.2,0.4-2,1-3.1,2.5C247.7,433.7,249.3,432.9,250.1,433.6 M282.4,426.5
						c7.1,12.9,0.3,29.5-15,32.9c1.8-2.3,3.3-5.7,3.1-6.8c-2,1.4-5.9,2.1-6.8,1.6c3.6-3.3,3.1-6.7,1-7s-4.6,3-4.4,7.4
						c-1.8-0.8-7.6,0.3-8.1-4.3c-0.7-1-0.9-2.7-0.7-3.4c5.2,3,3-3.7,6.1-4.4c-0.3-0.9-3-3.1-6.5,0.4c-0.2,0.6-0.1,2.9,0.1,3.7
						c-1.6-0.2-2.9-1.8-3.2-2.2c-1.7-0.2-3.4-0.7-5-5c-1.4-0.9-2.1-1.8-2.5-2.8c0-0.2,0.2-1.3,1.2-2.2c0,0-0.4,0.9-0.1,1.3
						c1.8-1.4,2.5-1,3.2-0.7c0.4,0.2,0.8,0.4,1.3,0.3c0,1.7-1.7,2.8-1.6,4.4c1,2.6,1.7,2.9,3.7,3.2c2.4-1.2,4.4-3.9,7.3-3.9
						c2.4,0,5.3,1.1,5.8,4.4c0.3,2.3-4.7,5.7-6.6,5c-3.2,3.5,2.2,4.6,4,4.1c1.3-5.9,4.5-7.6,6.9-6.8c2.7,1,3.1,4.4,1.2,6.4
						c1.5-0.4,3.7-1.6,4.5-4.4c0.6,0.6,0.8,2.1,0.8,2.7c1.6-2.3,1.1-7.4-0.2-9.3c1,0.1,2,0.5,3,1.4c0.7-3.7-1.7-8.4-2.8-9.2
						c0.7-0.1,1.7,0,3.1,0.7c-0.4-2.2-2.4-3.7-2.4-5.4c0.8,1.6,5.1,2,4.8,7.9c-0.5-0.5-1.6-1-2.1-1c1.5,3.8,1.4,7.5,0.6,10.2
						c-0.3-0.5-0.8-1.2-1.4-1.4c0.5,2.1-0.2,7.9-1.6,10.2c9.6-6.6,3-16.7,7.3-20.9c-0.9,4.3,1.3,8.1,1.1,10.6
						C283.8,440.4,284.4,433.6,282.4,426.5 M262.4,426.7c0.6-0.5,2.5-0.5,3.5,0.3c-1.4,0-3.1,1.6-3.9,6.4c0.4,0.5,3.1,4.5,0,9.5
						c0.8-3.7-1.5-10.9-4-7.2c1.7,0.8,2.3,2.2,1.8,3.5c-0.7-1.3-2.5-2.8-4.3-2.2c-0.9,0.3-2.1,0.3-3-1c-1.2-1.7,0.8-3.8-2.5-3.6
						c4-2,2.8,1.9,4.8,2.4c2.2,0.5,2.5-0.8,3.3-1.7c0.6-0.7,1.8-1.3,3-0.5C261.6,430.9,260.7,428.2,262.4,426.7 M264.9,438.4
						c-0.5-3.1,4.6-8.1,1.4-13.2c6.1,5,1.3,7.9,4.4,12c-1.2-0.4-2.4-1.4-2.8-2c-1.7,2.3,4.2,5.4,0.3,10.7
						C268.4,442.9,265.5,441.5,264.9,438.4 M258.4,421.4c0.7,0,2,0.5,1.5,1.1c-1.7,1.6-4,1-5.9,2.5
						C254.8,423.1,258.1,422.8,258.4,421.4 M259,425.8c0.2-2.6,5.1-2.9,2-4.4c2.9,0.4,3.6,1.5,2.9,2.3c-0.6,0.7-3.3,1.6-4.2,2.5
						c3-0.1-0.5,1.5-1.5,5.1c-0.5,1.6-4.1,1.1-4.6,0.3c0.9,0.2,3.8-0.4,4.9-4.2c0-0.1-0.1-0.1-0.1,0c-1.4,1.5-2.4,1.8-3,1.4
						c-0.6,0.5-0.9,0.9-1.5,1.9c-1-0.9-0.6-1.8,0.4-2.7c0.1-0.1,0-0.3-0.2-0.4c-0.9-0.4-1.1-1.6-0.2-2.1c-0.3,0.8,0.6,1.3,1.4,0.6
						c0.4-0.4,0.9-0.3,1.6-0.2c0.3,0,0.6,0.1,0.9,0.1l0,0C258.2,426,258.6,425.9,259,425.8 M265.4,421.7c-0.3-0.8,0.6-2.9,1.1-2.6
						c1.3,0.7,2.2,3.8,2,5.3C267.6,423.3,266.9,422.7,265.4,421.7 M262.9,418.2c0.2-0.8,0.7-2.9,1.4-4c0.7-1,1.9-1.1,3.5,0.2
						c1.7,1.4,2.9,1.9,5.2,4.9c1.9,0.9,5,2,7.6,5.2c-1.1-0.7-2.4-1-3.5-1.2c2.1,1.9,3.6,5,2.5,9.5c-0.4-4.2-3.5-6-5.4-7.4
						c1,3.6-3.5,2.3-4.8-0.4c0.5,0.1,0.9,0.1,1.2-0.1c-0.1-5.5-2.7-8.6-3.9-9.6c-1.5-1.2-2.3,1.7-2.8,3.9c-0.2,0.7-0.8,1.3-1.6,1.2
						c0.2-0.2,0.4-1,0.4-1.2c-2.3,0.2-4.8,1.5-6.4,2.2c-4,1.8-5,2.7-5.9,5.7c-3.2,1.3-6.8,5-8.4,6.7c0.9-2.5,3.3-5.4,7-7.7
						c0.9-2.2,0.6-3.7,9.6-7.2c0.2-1.3,0.2-2.9,0.6-2.9s1.7,0.6,2.7,2C262.3,418.3,262.6,418.2,262.9,418.2 M236.8,437.3
						c0,14.3,11.5,25.9,25.8,25.9c14.3,0,25.8-11.5,25.9-25.8c0-14.3-11.5-25.8-25.8-25.9l0,0C248.4,411.5,236.8,423,236.8,437.3
						 M262.6,465.4c-15.5,0-28-12.6-28-28.1s12.6-28,28.1-28s28,12.6,28,28.1S278.1,465.4,262.6,465.4L262.6,465.4 M233.5,437.3
						c0,16.1,13,29.2,29.1,29.2s29.2-13,29.2-29.1s-13-29.2-29.1-29.2c0,0,0,0-0.1,0C246.6,408.2,233.5,421.2,233.5,437.3"/>
				</g>
			</g>
			<g>
				<g class="st1">
					<path class="st2" d="M19.4,274.5c0.5-0.2,0.9-1,0.9-1s-0.9-0.2-1.6-0.6C18.7,273.7,19.2,274.4,19.4,274.5 M24.2,268.6
						c0.3,0.3,0.6,1.4,0.3,1.7c-0.4,0.3-0.7-0.1-1.1-0.1c-0.2,0.7-0.2,1.4-0.5,1.7c2-1,2.8-1.4,3-2.7c0.1-0.4-0.9-0.6-1.4-0.6l0,0
						C24.3,268.6,24.2,268.6,24.2,268.6 M15.4,269.1c0,0.8,1.5,1.7,1.5,1.7s-0.4-1.6-0.3-2.7C16.4,268.2,15.6,268.7,15.4,269.1
						 M9.9,260.8c-0.8,0.2-1.4,0.9-1.5,1c0.1,0.4,1.2,1.6,2,2.1c0.6-0.4,0.4-0.9,0.3-1c-0.1-0.3-0.9-0.5-0.6-1.2
						c0.2-0.4,0.6-0.4,0.7-0.6c0.1-0.1-0.2-0.4-0.6-0.4l0,0C10.1,260.8,10,260.8,9.9,260.8 M22.9,251.8c0.4,1.1-0.3,1.4-0.6,0.7
						c0.1,0.4,0.3,0.7,0.5,0.7c0.4,0,0.8-1,1.6-1.4C23.6,251.8,23.2,251.8,22.9,251.8 M18,262.2c1.6,0.4,1.7,1.7,0.7,2.6
						c-0.7-2.1-3.7,0.3-4.7,1.6C14.2,264.1,16.8,261.9,18,262.2 M18,261.1c-2-0.5-3.8,1.8-4.8,3.6C13.5,262.3,16.5,258.3,18,261.1
						 M16.7,258.6c-1.1,0.4-2,1-3.1,2.5C14.2,258.8,15.8,258,16.7,258.6 M48.9,251.6c7.1,12.9,0.3,29.5-15,32.9
						c1.8-2.4,3.3-5.7,3.1-6.8c-2,1.4-5.9,2.1-6.8,1.6c3.6-3.3,3.1-6.7,1-7s-4.6,3-4.4,7.4c-1.8-0.8-7.6,0.3-8.1-4.3
						c-0.7-1-0.9-2.7-0.7-3.4c5.2,3,3-3.7,6.1-4.4c-0.3-0.9-3-3.1-6.5,0.4c-0.2,0.6-0.1,2.9,0.1,3.7c-1.6-0.2-2.9-1.8-3.2-2.2
						c-1.7-0.2-3.4-0.7-5-5c-1.4-0.9-2.1-1.8-2.6-2.8c0-0.2,0.2-1.3,1.2-2.2c0,0-0.4,1-0.1,1.4c1.8-1.4,2.5-1,3.2-0.7
						c0.4,0.2,0.8,0.4,1.3,0.3c0,1.7-1.7,2.8-1.6,4.4c1,2.7,1.7,2.9,3.7,3.2c2.4-1.2,4.4-3.9,7.3-3.9c2.4,0,5.3,1.1,5.8,4.4
						c0.3,2.3-4.7,5.7-6.6,5c-3.2,3.5,2.2,4.6,4,4.1c1.3-5.9,4.5-7.6,6.9-6.7c2.8,1,3.1,4.4,1.2,6.4c1.5-0.4,3.7-1.6,4.5-4.4
						c0.6,0.6,0.8,2.1,0.8,2.7c1.6-2.3,1.1-7.4-0.2-9.3c1,0.1,2,0.5,3,1.4c0.7-3.7-1.7-8.4-2.8-9.2c0.7-0.1,1.7,0,3.1,0.7
						c-0.4-2.2-2.4-3.7-2.3-5.4c0.8,1.6,5.1,2,4.8,7.9c-0.5-0.5-1.6-1-2.1-1c1.5,3.8,1.4,7.5,0.6,10.2c-0.3-0.5-0.8-1.2-1.4-1.4
						c0.5,2.1-0.2,7.9-1.6,10.2c9.6-6.6,3-16.7,7.3-20.9c-0.9,4.3,1.3,8.1,1.1,10.6C50.3,265.5,50.9,258.7,48.9,251.6 M28.9,251.8
						c0.6-0.5,2.5-0.5,3.5,0.3c-1.4,0-3.1,1.6-3.9,6.4c0.4,0.5,3.1,4.5,0,9.5c0.8-3.7-1.5-10.8-4-7.2c1.7,0.8,2.3,2.2,1.8,3.5
						c-0.7-1.3-2.5-2.7-4.3-2.2c-0.9,0.3-2.1,0.3-3-1c-1.1-1.7,0.8-3.8-2.5-3.6c4-2,2.8,1.9,4.8,2.4c2.2,0.5,2.5-0.8,3.3-1.7
						c0.6-0.7,1.8-1.3,3-0.5C28.1,256,27.3,253.2,28.9,251.8 M31.5,263.4c-0.5-3.1,4.6-8.1,1.4-13.2c6.1,5,1.3,7.9,4.4,12
						c-1.2-0.4-2.4-1.4-2.8-2c-1.7,2.3,4.2,5.4,0.3,10.7C35,268,32,266.5,31.5,263.4 M24.9,246.5c0.7,0,2,0.5,1.5,1.1
						c-1.7,1.6-4,1-5.9,2.5C21.3,248.1,24.6,247.8,24.9,246.5 M25.5,250.8c0.2-2.6,5.1-2.9,2-4.4c2.9,0.4,3.6,1.5,2.9,2.3
						c-0.6,0.7-3.3,1.6-4.2,2.5c3-0.1-0.5,1.5-1.5,5.1c-0.5,1.6-4.1,1.1-4.6,0.3c0.9,0.2,3.8-0.4,4.9-4.2c0-0.1-0.1-0.1-0.1,0
						c-1.4,1.5-2.4,1.8-3,1.4c-0.6,0.5-0.9,0.9-1.5,1.9c-1-0.9-0.6-1.7,0.4-2.7c0.1-0.1,0-0.3-0.2-0.4c-0.9-0.4-1.1-1.6-0.2-2.1
						c-0.3,0.8,0.6,1.3,1.4,0.6c0.4-0.4,0.9-0.3,1.6-0.2c0.3,0,0.6,0.1,0.9,0.1l0,0C24.7,251.1,25.1,251,25.5,250.8 M32,246.8
						c-0.3-0.8,0.6-2.9,1.1-2.6c1.3,0.7,2.2,3.8,2,5.3C34.1,248.4,33.4,247.7,32,246.8 M29.4,243.3c0.2-0.8,0.7-2.9,1.4-4
						c0.7-1,1.9-1.1,3.5,0.2c1.7,1.4,2.9,2,5.2,4.9c1.9,0.9,5,2,7.6,5.2c-1.1-0.7-2.4-1-3.5-1.2c2.1,1.9,3.6,5,2.5,9.6
						c-0.4-4.3-3.5-6-5.4-7.4c1,3.6-3.5,2.3-4.8-0.4c0.5,0.1,0.9,0.1,1.2,0c-0.1-5.5-2.7-8.6-3.9-9.6c-1.5-1.2-2.3,1.7-2.8,3.9
						c-0.2,0.7-0.8,1.3-1.6,1.2c0.2-0.3,0.4-1,0.4-1.2c-2.3,0.2-4.8,1.5-6.4,2.2c-4,1.8-5,2.7-5.9,5.7c-3.2,1.3-6.8,5-8.4,6.7
						c0.9-2.5,3.3-5.4,7-7.7c0.9-2.2,0.6-3.7,9.6-7.2c0.2-1.3,0.2-2.9,0.6-2.9s1.7,0.6,2.7,2C28.8,243.4,29.2,243.3,29.4,243.3
						 M3.3,262.3c0,14.3,11.5,25.8,25.8,25.9c14.3,0,25.8-11.5,25.9-25.8c0-14.3-11.5-25.8-25.8-25.9l0,0
						C14.9,236.6,3.4,248.1,3.3,262.3 M29.1,290.5c-15.5,0-28-12.6-28-28.1s12.6-28,28.1-28s28.1,12.6,28,28.1
						C57.2,277.9,44.6,290.5,29.1,290.5L29.1,290.5 M0,262.3c0,16.1,13,29.2,29.1,29.2s29.2-13,29.2-29.1s-13-29.2-29.1-29.2
						c0,0,0,0-0.1,0C13.1,233.2,0,246.3,0,262.3"/>
				</g>
				<g class="st1">
					<path class="st2" d="M77.7,274.5c0.5-0.2,0.9-1,0.9-1s-0.9-0.2-1.6-0.6C77,273.7,77.5,274.4,77.7,274.5 M82.5,268.6
						c0.3,0.3,0.6,1.4,0.3,1.7c-0.4,0.3-0.7-0.1-1.1-0.1c-0.2,0.7-0.2,1.4-0.5,1.7c2-1,2.8-1.4,3-2.7c0.1-0.4-0.9-0.6-1.4-0.6l0,0
						C82.6,268.6,82.6,268.6,82.5,268.6 M73.8,269.1c0,0.8,1.5,1.7,1.5,1.7s-0.4-1.6-0.3-2.7C74.7,268.2,73.9,268.7,73.8,269.1
						 M68.3,260.8c-0.8,0.2-1.4,0.9-1.5,1c0.1,0.4,1.2,1.6,2,2.1c0.6-0.4,0.4-0.9,0.3-1c-0.1-0.3-0.9-0.5-0.6-1.2
						c0.2-0.4,0.6-0.4,0.7-0.6c0.1-0.1-0.2-0.4-0.6-0.4l0,0C68.5,260.8,68.4,260.8,68.3,260.8 M81.2,251.8c0.4,1.1-0.3,1.4-0.6,0.7
						c0.1,0.4,0.3,0.7,0.5,0.7c0.4,0,0.8-1,1.6-1.4C81.9,251.8,81.5,251.8,81.2,251.8 M76.3,262.2c1.6,0.4,1.7,1.7,0.7,2.6
						c-0.7-2.1-3.7,0.3-4.7,1.6C72.6,264.1,75.1,261.9,76.3,262.2 M76.3,261.1c-2-0.5-3.8,1.8-4.8,3.6
						C71.9,262.3,74.9,258.3,76.3,261.1 M75,258.6c-1.2,0.4-2,1-3.1,2.5C72.5,258.8,74.1,258,75,258.6 M107.2,251.6
						c7.1,12.9,0.3,29.5-15,32.9c1.8-2.4,3.3-5.7,3.1-6.8c-2,1.4-5.9,2.1-6.8,1.6c3.6-3.3,3.1-6.7,1-7s-4.6,3-4.4,7.4
						c-1.8-0.8-7.6,0.3-8.1-4.3c-0.7-1-0.9-2.7-0.7-3.4c5.2,3,3-3.7,6.1-4.4c-0.3-0.9-3-3.1-6.5,0.4c-0.2,0.6-0.1,2.9,0.1,3.7
						c-1.6-0.2-2.9-1.8-3.2-2.2c-1.7-0.2-3.4-0.7-5-5c-1.4-0.9-2.1-1.8-2.5-2.8c0-0.2,0.2-1.3,1.2-2.2c0,0-0.4,1-0.1,1.4
						c1.8-1.4,2.5-1,3.2-0.7c0.4,0.2,0.8,0.4,1.3,0.3c0,1.7-1.7,2.8-1.6,4.4c1,2.7,1.7,2.9,3.7,3.2c2.4-1.2,4.4-3.9,7.3-3.9
						c2.4,0,5.3,1.1,5.8,4.4c0.3,2.3-4.7,5.7-6.6,5c-3.2,3.5,2.2,4.6,4,4.1c1.3-5.9,4.5-7.6,6.9-6.7c2.7,1,3.1,4.4,1.2,6.4
						c1.5-0.4,3.7-1.6,4.5-4.4c0.6,0.6,0.8,2.1,0.8,2.7c1.6-2.3,1.1-7.4-0.2-9.3c1,0.1,2,0.5,3,1.4c0.7-3.7-1.7-8.4-2.8-9.2
						c0.7-0.1,1.7,0,3.1,0.7c-0.4-2.2-2.4-3.7-2.4-5.4c0.8,1.6,5.1,2,4.8,7.9c-0.5-0.5-1.6-1-2.1-1c1.5,3.8,1.4,7.5,0.6,10.2
						c-0.3-0.5-0.8-1.2-1.4-1.4c0.5,2.1-0.2,7.9-1.6,10.2c9.6-6.6,3-16.7,7.3-20.9c-0.9,4.3,1.3,8.1,1.1,10.6
						C108.6,265.5,109.2,258.7,107.2,251.6 M87.2,251.8c0.6-0.5,2.5-0.5,3.5,0.3c-1.4,0-3.1,1.6-3.9,6.4c0.4,0.5,3.1,4.5,0,9.5
						c0.8-3.7-1.5-10.8-4-7.2c1.7,0.8,2.3,2.2,1.8,3.5c-0.7-1.3-2.5-2.7-4.3-2.2c-0.9,0.3-2.1,0.3-3-1c-1.2-1.7,0.8-3.8-2.5-3.6
						c4-2,2.8,1.9,4.7,2.4c2.2,0.5,2.5-0.8,3.3-1.7c0.6-0.7,1.8-1.3,3-0.5C86.4,256,85.6,253.2,87.2,251.8 M89.8,263.4
						c-0.5-3.1,4.6-8.1,1.4-13.2c6.1,5,1.3,7.9,4.4,12c-1.2-0.4-2.4-1.4-2.8-2c-1.7,2.3,4.2,5.4,0.3,10.7
						C93.3,268,90.3,266.5,89.8,263.4 M83.2,246.5c0.7,0,2,0.5,1.5,1.1c-1.7,1.6-4,1-5.9,2.5C79.6,248.1,82.9,247.8,83.2,246.5
						 M83.9,250.8c0.2-2.6,5.1-2.9,2-4.4c2.9,0.4,3.6,1.5,2.9,2.3c-0.6,0.7-3.3,1.6-4.2,2.5c3-0.1-0.5,1.5-1.5,5.1
						c-0.4,1.6-4,1.1-4.6,0.3c0.9,0.2,3.8-0.4,4.9-4.2c0-0.1-0.1-0.1-0.1,0c-1.4,1.5-2.4,1.8-3,1.4c-0.6,0.5-0.9,0.9-1.5,1.9
						c-1-0.9-0.6-1.7,0.4-2.7c0.1-0.1,0-0.3-0.2-0.4c-0.9-0.4-1.1-1.6-0.2-2.1c-0.3,0.8,0.6,1.3,1.4,0.6c0.4-0.4,0.9-0.3,1.6-0.2
						c0.3,0,0.6,0.1,0.9,0.1l0,0C83,251.1,83.4,251,83.9,250.8 M90.3,246.8c-0.3-0.8,0.6-2.9,1.1-2.6c1.3,0.7,2.2,3.8,2,5.3
						C92.4,248.4,91.7,247.7,90.3,246.8 M87.7,243.3c0.2-0.8,0.7-2.9,1.4-4c0.7-1,1.9-1.1,3.5,0.2c1.7,1.4,2.9,2,5.2,4.9
						c1.9,0.9,5,2,7.6,5.2c-1.1-0.7-2.4-1-3.5-1.2c2.1,1.9,3.6,5,2.5,9.6c-0.4-4.3-3.5-6-5.4-7.4c1,3.6-3.5,2.3-4.8-0.4
						c0.5,0.1,0.9,0.1,1.2,0c-0.1-5.5-2.7-8.6-3.9-9.6c-1.5-1.2-2.3,1.7-2.8,3.9c-0.2,0.7-0.8,1.3-1.6,1.2c0.2-0.3,0.4-1,0.4-1.2
						c-2.3,0.2-4.8,1.5-6.4,2.2c-4,1.8-5,2.7-5.9,5.7c-3.2,1.3-6.8,5-8.4,6.7c1-2.5,3.3-5.4,7-7.7c0.9-2.2,0.6-3.7,9.6-7.2
						c0.2-1.3,0.2-2.9,0.6-2.9s1.7,0.6,2.7,2C87.1,243.4,87.5,243.3,87.7,243.3 M61.7,262.3c0,14.3,11.5,25.8,25.8,25.9
						c14.3,0,25.8-11.5,25.9-25.8c0-14.3-11.5-25.8-25.8-25.9c0,0,0,0-0.1,0C73.2,236.6,61.7,248.1,61.7,262.3 M87.4,290.5
						c-15.5,0-28-12.6-28-28.1s12.6-28,28.1-28s28,12.6,28,28.1C115.5,277.9,103,290.5,87.4,290.5C87.5,290.5,87.4,290.5,87.4,290.5
						 M58.3,262.3c0,16.1,13,29.2,29.1,29.2s29.2-13,29.2-29.1s-13-29.2-29.1-29.2c0,0,0,0-0.1,0C71.4,233.2,58.3,246.3,58.3,262.3"
						/>
				</g>
			</g>
			<g class="st1">
				<path class="st2" d="M423,84.8c0.4-0.2,0.7-0.7,0.7-0.7s-0.7-0.1-1.2-0.5C422.4,84.2,422.8,84.7,423,84.8 M426.6,80.4
					c0.2,0.3,0.5,1.1,0.2,1.3c-0.3,0.2-0.5-0.1-0.8-0.1c-0.2,0.5-0.1,1-0.4,1.3c1.5-0.7,2.1-1,2.2-2c0.1-0.3-0.7-0.5-1.1-0.5l0,0
					C426.7,80.4,426.6,80.4,426.6,80.4 M420,80.7c0,0.6,1.2,1.3,1.2,1.3s-0.3-1.2-0.2-2C420.7,80,420.1,80.4,420,80.7 M415.9,74.5
					c-0.6,0.2-1,0.7-1.1,0.8c0.1,0.3,0.9,1.2,1.5,1.6c0.4-0.3,0.3-0.6,0.2-0.8c-0.1-0.2-0.6-0.4-0.5-0.9c0.1-0.3,0.5-0.3,0.5-0.5
					c0-0.1-0.1-0.3-0.4-0.3l0,0C416,74.5,416,74.5,415.9,74.5 M425.6,67.8c0.3,0.8-0.2,1.1-0.5,0.5c0,0.3,0.2,0.5,0.4,0.5
					c0.3,0,0.6-0.7,1.2-1.1C426.1,67.8,425.8,67.8,425.6,67.8 M421.9,75.6c1.2,0.3,1.3,1.3,0.5,1.9c-0.5-1.6-2.8,0.2-3.5,1.2
					C419.1,77,421,75.4,421.9,75.6 M421.9,74.7c-1.5-0.4-2.8,1.4-3.6,2.7C418.6,75.6,420.8,72.6,421.9,74.7 M420.9,72.9
					c-0.9,0.3-1.5,0.8-2.3,1.9C419.1,73,420.3,72.4,420.9,72.9 M445.1,67.6c5.3,9.7,0.2,22.1-11.2,24.7c1.4-1.8,2.5-4.3,2.3-5.1
					c-1.5,1.1-4.4,1.6-5.1,1.2c2.7-2.5,2.3-5.1,0.7-5.3c-1.6-0.2-3.4,2.2-3.3,5.6c-1.3-0.6-5.7,0.2-6.1-3.2c-0.5-0.8-0.7-2-0.5-2.6
					c3.9,2.3,2.2-2.8,4.6-3.3c-0.3-0.7-2.2-2.3-4.9,0.3c-0.1,0.4-0.1,2.2,0.1,2.8c-1.2-0.2-2.2-1.3-2.4-1.6
					c-1.3-0.1-2.5-0.5-3.8-3.7c-1-0.7-1.5-1.3-1.9-2.1c0-0.2,0.2-1,0.9-1.7c0,0-0.3,0.7-0.1,1c1.3-1.1,1.9-0.8,2.4-0.5
					c0.3,0.1,0.6,0.3,1,0.2c0,1.2-1.3,2.1-1.2,3.3c0.8,2,1.3,2.2,2.8,2.4c1.8-0.9,3.3-2.9,5.5-2.9c1.8,0,4,0.9,4.4,3.3
					c0.2,1.8-3.5,4.3-5,3.8c-2.4,2.6,1.6,3.5,3,3.1c1-4.4,3.3-5.7,5.2-5.1c2.1,0.7,2.3,3.3,0.9,4.8c1.1-0.3,2.8-1.2,3.4-3.3
					c0.5,0.5,0.6,1.6,0.6,2c1.2-1.7,0.8-5.5-0.1-7c0.8,0.1,1.5,0.4,2.3,1c0.5-2.8-1.3-6.3-2.1-6.9c0.5-0.1,1.3,0,2.4,0.5
					c-0.3-1.7-1.8-2.8-1.8-4c0.6,1.2,3.8,1.5,3.6,5.9c-0.4-0.4-1.2-0.7-1.6-0.8c1.1,2.8,1,5.6,0.4,7.6c-0.3-0.4-0.6-0.9-1-1
					c0.4,1.6-0.1,5.9-1.2,7.6c7.2-5,2.3-12.6,5.5-15.6c-0.7,3.3,1,6.1,0.8,8C446.2,78,446.6,72.9,445.1,67.6 M430.1,67.8
					c0.5-0.4,1.9-0.4,2.6,0.2c-1.1,0-2.3,1.2-2.9,4.8c0.3,0.4,2.3,3.4,0,7.2c0.6-2.8-1.1-8.1-3-5.4c1.3,0.6,1.7,1.6,1.4,2.7
					c-0.5-1-1.9-2.1-3.2-1.6c-0.7,0.2-1.6,0.2-2.2-0.8c-0.9-1.3,0.6-2.8-1.9-2.7c3-1.5,2.1,1.4,3.6,1.8c1.7,0.4,1.9-0.6,2.4-1.3
					c0.5-0.6,1.3-1,2.2-0.4C429.5,70.9,428.9,68.8,430.1,67.8 M432,76.5c-0.4-2.3,3.5-6.1,1-9.9c4.6,3.7,1,5.9,3.3,9
					c-0.9-0.3-1.8-1.1-2.1-1.5c-1.3,1.7,3.2,4.1,0.2,8C434.7,79.9,432.4,78.8,432,76.5 M427.1,63.8c0.5,0,1.5,0.4,1.1,0.8
					c-1.3,1.2-3,0.7-4.4,1.9C424.4,65,426.9,64.8,427.1,63.8 M427.6,67.1c0.1-1.9,3.8-2.2,1.5-3.3c2.2,0.3,2.7,1.1,2.2,1.7
					c-0.4,0.5-2.5,1.2-3.1,1.9c2.3,0-0.4,1.1-1.1,3.9c-0.3,1.2-3,0.8-3.5,0.2c0.7,0.1,2.8-0.3,3.6-3.2c0-0.1,0-0.1-0.1,0
					c-1.1,1.1-1.8,1.3-2.3,1c-0.5,0.4-0.7,0.7-1.1,1.4c-0.8-0.7-0.4-1.3,0.3-2c0.1-0.1,0-0.2-0.1-0.3c-0.7-0.3-0.8-1.2-0.1-1.6
					c-0.2,0.6,0.5,1,1.1,0.4c0.3-0.3,0.7-0.2,1.2-0.1c0.2,0,0.4,0.1,0.7,0.1l0,0C427,67.2,427.3,67.2,427.6,67.1 M432.4,64
					c-0.2-0.6,0.4-2.2,0.8-2c1,0.5,1.6,2.8,1.5,4C434,65.2,433.5,64.7,432.4,64 M430.5,61.4c0.1-0.6,0.5-2.2,1.1-3
					c0.5-0.8,1.4-0.8,2.6,0.2c1.3,1,2.1,1.5,3.9,3.7c1.5,0.7,3.7,1.5,5.7,3.9c-0.9-0.6-1.8-0.8-2.6-0.9c1.6,1.4,2.7,3.7,1.9,7.1
					c-0.3-3.2-2.7-4.5-4.1-5.5c0.8,2.7-2.6,1.8-3.6-0.3c0.3,0.1,0.7,0.1,0.9,0c-0.1-4.1-2-6.5-2.9-7.2c-1.1-0.9-1.7,1.3-2.1,2.9
					c-0.1,0.5-0.6,0.9-1.2,0.9c0.1-0.2,0.3-0.7,0.3-0.9c-1.7,0.1-3.6,1.1-4.8,1.7c-3,1.4-3.7,2-4.4,4.3c-2.4,1-5.1,3.7-6.3,5
					c0.7-1.9,2.4-4.1,5.2-5.7c0.6-1.7,0.4-2.8,7.2-5.4c0.2-1,0.1-2.2,0.4-2.2s1.3,0.4,2,1.5C430,61.4,430.3,61.4,430.5,61.4
					 M410.9,75.7c0,10.7,8.6,19.4,19.3,19.4c10.7,0,19.4-8.6,19.4-19.3s-8.6-19.4-19.3-19.4l0,0C419.6,56.4,411,65,410.9,75.7
					 M430.3,96.8c-11.6,0-21-9.5-21-21.1s9.5-21,21.1-21s21,9.5,21,21.1C451.3,87.4,441.9,96.8,430.3,96.8L430.3,96.8 M408.4,75.7
					c0,12.1,9.7,21.9,21.8,21.9c12.1,0,21.9-9.7,21.9-21.8s-9.8-21.9-21.8-21.9l0,0C418.2,53.9,408.5,63.6,408.4,75.7"/>
			</g>
			<g>
				<g class="st1">
					<path class="st2" d="M1624.8,99.6c0.5-0.2,0.9-1,0.9-1s-0.9-0.2-1.6-0.6C1624.1,98.8,1624.6,99.5,1624.8,99.6 M1629.6,93.7
						c0.3,0.3,0.6,1.4,0.3,1.7c-0.4,0.3-0.7-0.1-1.1-0.1c-0.2,0.7-0.2,1.4-0.5,1.7c2-1,2.8-1.4,3-2.7c0.1-0.4-0.9-0.6-1.4-0.6l0,0
						C1629.7,93.7,1629.7,93.7,1629.6,93.7 M1620.9,94.1c0,0.8,1.5,1.7,1.5,1.7s-0.4-1.5-0.3-2.7C1621.8,93.2,1621,93.7,1620.9,94.1
						 M1615.4,85.9c-0.8,0.2-1.4,0.9-1.5,1c0.1,0.4,1.2,1.6,2,2.1c0.6-0.4,0.4-0.9,0.3-1c-0.1-0.3-0.9-0.5-0.6-1.2
						c0.2-0.4,0.7-0.4,0.7-0.6c0.1-0.1-0.2-0.4-0.6-0.4l0,0C1615.6,85.9,1615.5,85.9,1615.4,85.9 M1628.3,76.9
						c0.4,1.1-0.3,1.4-0.6,0.7c0,0.4,0.3,0.7,0.5,0.7c0.4,0,0.8-1,1.6-1.4C1629,76.9,1628.6,76.9,1628.3,76.9 M1623.4,87.3
						c1.6,0.4,1.7,1.7,0.7,2.6c-0.7-2.1-3.7,0.3-4.7,1.6C1619.7,89.1,1622.2,87,1623.4,87.3 M1623.4,86.2c-2-0.5-3.8,1.8-4.8,3.6
						C1619,87.3,1622,83.4,1623.4,86.2 M1622.1,83.7c-1.1,0.4-2,1-3.1,2.5C1619.6,83.9,1621.2,83,1622.1,83.7 M1654.3,76.6
						c7.1,12.9,0.3,29.5-15,32.9c1.8-2.4,3.3-5.7,3.1-6.8c-2,1.4-5.9,2.1-6.8,1.6c3.6-3.3,3.1-6.7,1-7s-4.6,3-4.4,7.5
						c-1.8-0.8-7.6,0.3-8.1-4.3c-0.6-1-0.9-2.7-0.7-3.4c5.2,3,3-3.7,6.1-4.4c-0.3-0.9-3-3.1-6.5,0.4c-0.2,0.6-0.1,2.9,0.1,3.7
						c-1.6-0.2-2.9-1.8-3.2-2.2c-1.7-0.2-3.4-0.7-5-5c-1.4-0.9-2.1-1.8-2.5-2.8c0-0.2,0.2-1.3,1.2-2.2c0,0-0.4,0.9-0.1,1.4
						c1.8-1.4,2.6-1.1,3.2-0.7c0.4,0.2,0.8,0.4,1.3,0.3c0,1.7-1.7,2.8-1.6,4.4c1,2.6,1.7,2.9,3.7,3.2c2.4-1.2,4.4-3.9,7.3-3.9
						c2.4,0,5.3,1.1,5.8,4.4c0.3,2.3-4.7,5.7-6.6,5c-3.2,3.5,2.2,4.6,4,4.1c1.3-5.9,4.5-7.6,6.9-6.8c2.7,1,3.1,4.4,1.2,6.4
						c1.5-0.4,3.7-1.6,4.5-4.4c0.6,0.6,0.8,2.2,0.8,2.7c1.6-2.3,1.1-7.4-0.2-9.3c1,0.1,2,0.5,3,1.4c0.7-3.7-1.7-8.4-2.8-9.2
						c0.7-0.1,1.7,0,3.1,0.7c-0.4-2.2-2.4-3.7-2.4-5.4c0.8,1.6,5.1,2,4.8,7.9c-0.5-0.5-1.6-1-2.1-1c1.5,3.8,1.4,7.5,0.6,10.2
						c-0.3-0.5-0.8-1.2-1.4-1.4c0.5,2.1-0.1,7.9-1.6,10.2c9.6-6.6,3-16.7,7.3-20.9c-0.9,4.4,1.3,8.1,1.1,10.6
						C1655.7,90.5,1656.3,83.7,1654.3,76.6 M1634.3,76.9c0.6-0.5,2.5-0.5,3.5,0.3c-1.4,0-3.1,1.6-3.9,6.4c0.4,0.5,3.1,4.5,0,9.6
						c0.8-3.7-1.5-10.9-4-7.2c1.7,0.8,2.3,2.2,1.8,3.5c-0.7-1.3-2.5-2.8-4.3-2.2c-0.9,0.3-2.1,0.3-3-1c-1.2-1.7,0.8-3.8-2.5-3.6
						c4-2,2.8,1.9,4.8,2.4c2.2,0.5,2.5-0.8,3.3-1.7c0.6-0.7,1.8-1.3,3-0.5C1633.5,81.1,1632.7,78.3,1634.3,76.9 M1636.9,88.5
						c-0.5-3.1,4.6-8.1,1.4-13.2c6.1,5,1.3,7.9,4.4,12c-1.2-0.4-2.4-1.4-2.8-2c-1.7,2.3,4.2,5.4,0.3,10.7
						C1640.4,93,1637.4,91.6,1636.9,88.5 M1630.3,71.6c0.7,0,2,0.5,1.5,1.1c-1.7,1.6-4,0.9-5.9,2.5
						C1626.7,73.2,1630,72.9,1630.3,71.6 M1631,75.9c0.2-2.6,5.1-2.9,2-4.4c2.9,0.4,3.6,1.5,2.9,2.3c-0.6,0.7-3.3,1.6-4.2,2.5
						c3-0.1-0.5,1.5-1.5,5.1c-0.5,1.6-4.1,1.1-4.6,0.3c0.9,0.2,3.8-0.4,4.9-4.2c0-0.1,0-0.1-0.1,0c-1.4,1.5-2.4,1.8-3,1.4
						c-0.6,0.5-0.9,0.9-1.5,1.9c-1-0.9-0.6-1.8,0.4-2.7c0.1-0.1,0-0.3-0.2-0.4c-0.9-0.4-1.1-1.6-0.2-2.1c-0.3,0.8,0.6,1.3,1.4,0.6
						c0.4-0.4,0.9-0.3,1.6-0.2c0.3,0,0.6,0.1,0.9,0.1l0,0C1630.1,76.1,1630.5,76.1,1631,75.9 M1637.4,71.9c-0.3-0.8,0.6-2.9,1.1-2.6
						c1.3,0.7,2.2,3.8,2,5.3C1639.5,73.4,1638.8,72.8,1637.4,71.9 M1634.8,68.4c0.2-0.8,0.7-2.9,1.4-4c0.7-1,1.9-1.1,3.5,0.2
						c1.7,1.4,2.9,1.9,5.2,4.9c1.9,0.9,5,2,7.6,5.2c-1.1-0.7-2.4-1-3.5-1.2c2.1,1.9,3.6,5,2.5,9.5c-0.4-4.2-3.5-6-5.4-7.4
						c1,3.6-3.5,2.3-4.8-0.4c0.4,0.1,0.9,0.1,1.2-0.1c-0.1-5.5-2.7-8.6-3.9-9.6c-1.5-1.2-2.3,1.7-2.8,3.9c-0.2,0.7-0.8,1.3-1.6,1.2
						c0.2-0.2,0.4-1,0.4-1.2c-2.3,0.2-4.8,1.5-6.4,2.2c-4,1.8-5,2.7-5.9,5.7c-3.2,1.3-6.8,5-8.4,6.7c1-2.5,3.3-5.4,7-7.7
						c0.9-2.2,0.6-3.7,9.6-7.2c0.2-1.3,0.2-2.9,0.6-2.9s1.7,0.6,2.7,2C1634.2,68.4,1634.6,68.4,1634.8,68.4 M1608.8,87.4
						c0,14.3,11.5,25.8,25.8,25.9c14.3,0,25.8-11.5,25.9-25.8c0-14.3-11.5-25.8-25.8-25.9l0,0C1620.3,61.6,1608.8,73.2,1608.8,87.4
						 M1634.5,115.5c-15.5,0-28-12.6-28-28.1s12.6-28,28.1-28s28,12.6,28,28.1S1650.1,115.5,1634.5,115.5
						C1634.6,115.5,1634.5,115.5,1634.5,115.5 M1605.4,87.4c0,16.1,13,29.2,29.1,29.2s29.2-13,29.2-29.1s-13-29.2-29.1-29.2
						c0,0,0,0-0.1,0C1618.5,58.3,1605.4,71.3,1605.4,87.4"/>
				</g>
				<g class="st1">
					<path class="st2" d="M1683.1,99.6c0.5-0.2,0.9-1,0.9-1s-0.9-0.2-1.6-0.6C1682.4,98.8,1682.9,99.5,1683.1,99.6 M1687.9,93.7
						c0.3,0.3,0.6,1.4,0.3,1.7c-0.4,0.3-0.7-0.1-1.1-0.1c-0.2,0.7-0.2,1.4-0.5,1.7c2-1,2.8-1.4,3-2.7c0.1-0.4-0.9-0.6-1.4-0.6l0,0
						C1688.1,93.7,1688,93.7,1687.9,93.7 M1679.2,94.1c0,0.8,1.6,1.7,1.6,1.7s-0.4-1.5-0.3-2.7C1680.1,93.2,1679.3,93.7,1679.2,94.1
						 M1673.7,85.9c-0.8,0.2-1.4,0.9-1.5,1c0.1,0.4,1.2,1.6,2,2.1c0.6-0.4,0.4-0.9,0.3-1c-0.1-0.3-0.9-0.5-0.6-1.2
						c0.1-0.4,0.6-0.4,0.7-0.6c0.1-0.1-0.2-0.4-0.6-0.4l0,0C1673.9,85.9,1673.8,85.9,1673.7,85.9 M1686.7,76.9
						c0.4,1.1-0.3,1.4-0.6,0.7c0.1,0.4,0.3,0.7,0.5,0.7c0.4,0,0.8-1,1.6-1.4C1687.3,76.9,1686.9,76.9,1686.7,76.9 M1681.7,87.3
						c1.6,0.4,1.7,1.7,0.7,2.6c-0.7-2.1-3.7,0.3-4.7,1.6C1678,89.1,1680.5,87,1681.7,87.3 M1681.7,86.2c-2-0.5-3.8,1.8-4.8,3.6
						C1677.3,87.3,1680.3,83.4,1681.7,86.2 M1680.4,83.7c-1.2,0.4-2,1-3.1,2.5C1678,83.9,1679.6,83,1680.4,83.7 M1712.6,76.6
						c7.1,12.9,0.3,29.5-15,32.9c1.8-2.4,3.3-5.7,3.1-6.8c-2,1.4-5.9,2.1-6.8,1.6c3.6-3.3,3.1-6.7,1-7s-4.6,3-4.4,7.5
						c-1.8-0.8-7.6,0.3-8.1-4.3c-0.7-1-1-2.7-0.7-3.4c5.2,3,3-3.7,6.1-4.4c-0.3-0.9-3-3.1-6.5,0.4c-0.2,0.6-0.1,2.9,0.1,3.7
						c-1.6-0.2-2.9-1.8-3.2-2.2c-1.7-0.2-3.4-0.7-5-5c-1.4-0.9-2.1-1.8-2.5-2.8c0-0.2,0.2-1.3,1.2-2.2c0,0-0.4,0.9-0.1,1.4
						c1.8-1.4,2.5-1.1,3.2-0.7c0.4,0.2,0.8,0.4,1.3,0.3c0,1.7-1.7,2.8-1.6,4.4c1,2.6,1.7,2.9,3.7,3.2c2.4-1.2,4.4-3.9,7.3-3.9
						c2.4,0,5.3,1.1,5.8,4.4c0.3,2.3-4.7,5.7-6.6,5c-3.2,3.5,2.2,4.6,4,4.1c1.3-5.9,4.5-7.6,7-6.8c2.7,1,3.1,4.4,1.2,6.4
						c1.5-0.4,3.7-1.6,4.5-4.4c0.6,0.6,0.8,2.2,0.8,2.7c1.6-2.3,1.1-7.4-0.2-9.3c1,0.1,2,0.5,3,1.4c0.7-3.7-1.7-8.4-2.8-9.2
						c0.7-0.1,1.7,0,3.1,0.7c-0.4-2.2-2.4-3.7-2.3-5.4c0.8,1.6,5.1,2,4.8,7.9c-0.5-0.5-1.6-1-2.1-1c1.5,3.8,1.4,7.5,0.6,10.2
						c-0.3-0.5-0.8-1.2-1.4-1.4c0.5,2.1-0.2,7.9-1.6,10.2c9.6-6.6,3-16.7,7.3-20.9c-0.9,4.4,1.3,8.1,1.1,10.6
						C1714.1,90.5,1714.6,83.7,1712.6,76.6 M1692.6,76.9c0.6-0.5,2.5-0.5,3.5,0.3c-1.4,0-3.1,1.6-3.9,6.4c0.4,0.5,3.1,4.5,0,9.6
						c0.8-3.7-1.5-10.9-4-7.2c1.7,0.8,2.3,2.2,1.8,3.5c-0.7-1.3-2.5-2.8-4.3-2.2c-0.9,0.3-2.1,0.3-3-1c-1.2-1.7,0.8-3.8-2.5-3.6
						c4-2,2.8,1.9,4.8,2.4c2.2,0.5,2.5-0.8,3.3-1.7c0.6-0.7,1.8-1.3,3-0.5C1691.8,81.1,1691,78.3,1692.6,76.9 M1695.2,88.5
						c-0.5-3.1,4.6-8.1,1.4-13.2c6.2,5,1.3,7.9,4.4,12c-1.2-0.4-2.4-1.4-2.8-2c-1.7,2.3,4.2,5.4,0.3,10.7
						C1698.7,93,1695.7,91.6,1695.2,88.5 M1688.6,71.6c0.7,0,2,0.5,1.5,1.1c-1.7,1.6-4,0.9-5.9,2.5
						C1685,73.2,1688.4,72.9,1688.6,71.6 M1689.3,75.9c0.2-2.6,5.1-2.9,2-4.4c2.9,0.4,3.6,1.5,2.9,2.3c-0.6,0.7-3.3,1.6-4.2,2.5
						c3-0.1-0.5,1.5-1.5,5.1c-0.5,1.6-4.1,1.1-4.6,0.3c0.9,0.2,3.8-0.4,4.9-4.2c0-0.1-0.1-0.1-0.1,0c-1.4,1.5-2.4,1.8-3,1.4
						c-0.6,0.5-0.9,0.9-1.5,1.9c-1-0.9-0.6-1.8,0.4-2.7c0.1-0.1,0-0.3-0.2-0.4c-0.9-0.4-1.1-1.6-0.2-2.1c-0.3,0.8,0.6,1.3,1.4,0.6
						c0.4-0.4,0.9-0.3,1.6-0.2c0.3,0,0.6,0.1,0.9,0.1l0,0C1688.5,76.1,1688.9,76.1,1689.3,75.9 M1695.7,71.9
						c-0.3-0.8,0.6-2.9,1.1-2.6c1.3,0.7,2.2,3.8,2,5.3C1697.8,73.4,1697.2,72.8,1695.7,71.9 M1693.1,68.4c0.2-0.8,0.7-2.9,1.4-4
						c0.7-1,1.9-1.1,3.5,0.2c1.7,1.4,2.9,1.9,5.2,4.9c1.9,0.9,5,2,7.6,5.2c-1.1-0.7-2.4-1-3.5-1.2c2.1,1.9,3.6,5,2.5,9.5
						c-0.4-4.2-3.5-6-5.4-7.4c1,3.6-3.5,2.3-4.8-0.4c0.5,0.1,0.9,0.1,1.2-0.1c-0.1-5.5-2.7-8.6-3.9-9.6c-1.5-1.2-2.3,1.7-2.8,3.9
						c-0.2,0.7-0.8,1.3-1.6,1.2c0.2-0.2,0.4-1,0.4-1.2c-2.3,0.2-4.8,1.5-6.4,2.2c-4,1.8-5,2.7-5.9,5.7c-3.2,1.3-6.8,5-8.4,6.7
						c1-2.5,3.3-5.4,7-7.7c0.9-2.2,0.6-3.7,9.6-7.2c0.2-1.3,0.2-2.9,0.6-2.9s1.7,0.6,2.7,2C1692.5,68.4,1692.9,68.4,1693.1,68.4
						 M1667.1,87.4c0,14.3,11.5,25.8,25.8,25.9c14.3,0,25.8-11.5,25.9-25.8c0-14.3-11.5-25.8-25.8-25.9l0,0
						C1678.7,61.6,1667.1,73.2,1667.1,87.4 M1692.8,115.5c-15.5,0-28-12.6-28-28.1s12.6-28,28.1-28s28,12.6,28,28.1
						S1708.4,115.5,1692.8,115.5C1692.9,115.5,1692.9,115.5,1692.8,115.5 M1663.7,87.4c0,16.1,13,29.2,29.1,29.2s29.2-13,29.2-29.1
						s-13-29.2-29.1-29.2c0,0,0,0-0.1,0C1676.8,58.3,1663.8,71.3,1663.7,87.4"/>
				</g>
			</g>
			<g>
				<g>
					<g class="st1">
						<path class="st2" d="M1747,216.2c0.5-0.2,0.9-1,0.9-1s-0.9-0.2-1.6-0.6C1746.3,215.4,1746.9,216.1,1747,216.2 M1751.9,210.3
							c0.3,0.4,0.6,1.4,0.3,1.7c-0.4,0.3-0.7-0.1-1.1-0.1c-0.2,0.7-0.2,1.4-0.5,1.7c2-1,2.8-1.4,3-2.7c0.1-0.4-0.9-0.6-1.4-0.6l0,0
							C1752,210.3,1751.9,210.3,1751.9,210.3 M1743.1,210.8c0,0.8,1.5,1.7,1.5,1.7s-0.4-1.5-0.3-2.7
							C1744.1,209.8,1743.3,210.4,1743.1,210.8 M1737.6,202.5c-0.8,0.2-1.4,0.9-1.5,1c0.1,0.4,1.2,1.6,2,2.1c0.6-0.4,0.4-0.8,0.3-1
							c-0.1-0.3-0.9-0.5-0.7-1.2c0.2-0.4,0.7-0.4,0.7-0.6c0.1-0.1-0.2-0.4-0.6-0.4l0,0C1737.8,202.5,1737.7,202.5,1737.6,202.5
							 M1750.6,193.5c0.4,1.1-0.3,1.4-0.6,0.7c0.1,0.4,0.3,0.7,0.5,0.7c0.4,0,0.8-1,1.6-1.4C1751.3,193.5,1750.9,193.5,1750.6,193.5
							 M1745.7,203.9c1.6,0.4,1.7,1.7,0.7,2.6c-0.7-2.1-3.7,0.3-4.7,1.6C1741.9,205.8,1744.5,203.6,1745.7,203.9 M1745.6,202.8
							c-2-0.5-3.8,1.8-4.8,3.6C1741.2,204,1744.2,200,1745.6,202.8 M1744.3,200.3c-1.1,0.4-2,1-3.1,2.5
							C1741.9,200.5,1743.5,199.7,1744.3,200.3 M1776.6,193.3c7.1,12.9,0.3,29.5-15,32.9c1.8-2.4,3.3-5.7,3.1-6.8
							c-2,1.4-5.9,2.1-6.8,1.6c3.6-3.3,3.1-6.7,1-7s-4.6,3-4.4,7.5c-1.8-0.8-7.6,0.3-8.1-4.3c-0.7-1-0.9-2.7-0.7-3.4
							c5.2,3,3-3.7,6.1-4.4c-0.3-0.9-3-3.1-6.5,0.4c-0.2,0.6-0.1,2.9,0.1,3.7c-1.6-0.2-2.9-1.8-3.2-2.2c-1.7-0.2-3.4-0.7-5-5
							c-1.4-0.9-2.1-1.8-2.6-2.8c0-0.2,0.2-1.3,1.2-2.2c0,0-0.4,0.9-0.1,1.3c1.8-1.4,2.6-1,3.2-0.7c0.4,0.2,0.8,0.4,1.3,0.3
							c0,1.7-1.7,2.8-1.6,4.4c1,2.7,1.7,2.9,3.7,3.2c2.4-1.2,4.4-3.9,7.3-3.9c2.4,0,5.3,1.1,5.8,4.4c0.3,2.3-4.7,5.7-6.6,5
							c-3.2,3.5,2.2,4.6,4,4.1c1.3-5.9,4.5-7.6,6.9-6.7c2.8,1,3.1,4.4,1.2,6.4c1.5-0.4,3.7-1.6,4.5-4.4c0.6,0.6,0.8,2.1,0.8,2.7
							c1.6-2.3,1.1-7.4-0.2-9.3c1,0.1,2,0.5,3,1.4c0.7-3.7-1.7-8.4-2.8-9.2c0.7-0.1,1.7,0,3.1,0.7c-0.4-2.2-2.4-3.7-2.3-5.4
							c0.8,1.6,5.1,2,4.8,7.9c-0.5-0.5-1.6-1-2.1-1c1.5,3.8,1.4,7.5,0.6,10.2c-0.3-0.5-0.8-1.2-1.4-1.4c0.5,2.1-0.2,7.9-1.6,10.2
							c9.6-6.6,3-16.7,7.3-20.9c-0.9,4.4,1.3,8.1,1.1,10.6C1778,207.2,1778.6,200.4,1776.6,193.3 M1756.6,193.5
							c0.6-0.5,2.5-0.5,3.5,0.3c-1.4,0-3.1,1.6-3.9,6.4c0.4,0.5,3.1,4.5,0,9.5c0.8-3.7-1.5-10.8-4-7.2c1.7,0.8,2.3,2.2,1.8,3.5
							c-0.7-1.3-2.5-2.7-4.3-2.2c-0.9,0.3-2.1,0.3-3-1c-1.1-1.7,0.8-3.8-2.5-3.6c4-2,2.8,1.9,4.8,2.4c2.2,0.5,2.5-0.8,3.3-1.7
							c0.6-0.7,1.8-1.3,3-0.5C1755.8,197.7,1754.9,194.9,1756.6,193.5 M1759.1,205.1c-0.6-3.1,4.6-8.1,1.4-13.2
							c6.2,5,1.3,7.9,4.4,12c-1.2-0.4-2.4-1.4-2.8-2c-1.7,2.3,4.2,5.4,0.3,10.7C1762.6,209.7,1759.7,208.2,1759.1,205.1
							 M1752.6,188.2c0.7,0,2,0.5,1.5,1.1c-1.7,1.6-4,0.9-5.9,2.5C1749,189.8,1752.3,189.5,1752.6,188.2 M1753.2,192.5
							c0.2-2.6,5.1-2.9,2-4.4c2.9,0.4,3.6,1.5,2.9,2.3c-0.6,0.7-3.4,1.6-4.2,2.5c3-0.1-0.5,1.5-1.5,5.1c-0.4,1.6-4.1,1.1-4.6,0.3
							c0.9,0.2,3.8-0.4,4.9-4.2c0-0.1,0-0.1-0.1-0.1c-1.4,1.5-2.5,1.8-3,1.4c-0.6,0.5-0.9,0.9-1.5,1.9c-1-0.9-0.6-1.7,0.4-2.7
							c0.1-0.1,0-0.3-0.2-0.4c-0.9-0.4-1.1-1.6-0.2-2.1c-0.3,0.8,0.6,1.3,1.4,0.6c0.4-0.4,0.9-0.3,1.6-0.2c0.3,0,0.6,0.1,0.9,0.1
							l0,0C1752.4,192.8,1752.8,192.7,1753.2,192.5 M1759.6,188.5c-0.3-0.8,0.6-2.9,1.1-2.6c1.3,0.7,2.2,3.8,2,5.3
							C1761.8,190.1,1761.1,189.4,1759.6,188.5 M1757.1,185c0.2-0.8,0.7-2.9,1.4-4c0.7-1,1.9-1.1,3.5,0.2c1.7,1.4,2.9,2,5.2,4.9
							c1.9,0.9,5,2,7.6,5.2c-1.1-0.8-2.4-1-3.5-1.2c2.1,1.9,3.6,5,2.5,9.6c-0.4-4.2-3.5-6-5.4-7.4c1,3.6-3.5,2.3-4.8-0.3
							c0.4,0.1,0.9,0.1,1.2-0.1c-0.1-5.5-2.7-8.6-3.9-9.6c-1.5-1.2-2.3,1.7-2.8,3.9c-0.2,0.7-0.8,1.3-1.6,1.2c0.2-0.3,0.4-1,0.4-1.2
							c-2.3,0.2-4.8,1.5-6.4,2.2c-4,1.8-5,2.7-5.9,5.7c-3.2,1.3-6.8,5-8.4,6.7c0.9-2.5,3.3-5.4,7-7.6c0.9-2.2,0.6-3.7,9.6-7.2
							c0.2-1.3,0.2-2.9,0.6-2.9s1.7,0.6,2.7,2C1756.5,185.1,1756.8,185,1757.1,185 M1731,204c0,14.3,11.5,25.8,25.8,25.9
							c14.3,0,25.8-11.5,25.9-25.8c0-14.3-11.5-25.8-25.8-25.9l0,0C1742.6,178.3,1731.1,189.8,1731,204 M1756.8,232.2
							c-15.5,0-28-12.6-28-28.1s12.6-28,28.1-28s28,12.6,28,28.1C1784.9,219.6,1772.3,232.2,1756.8,232.2L1756.8,232.2 M1727.7,204
							c0,16.1,13,29.2,29.1,29.2s29.2-13,29.2-29.1s-13-29.2-29.1-29.2c0,0,0,0-0.1,0C1740.8,174.9,1727.7,188,1727.7,204"/>
					</g>
					<g class="st1">
						<path class="st2" d="M1747,157.9c0.5-0.2,0.9-1,0.9-1s-0.9-0.2-1.6-0.6C1746.3,157.1,1746.9,157.8,1747,157.9 M1751.9,152
							c0.3,0.3,0.6,1.4,0.3,1.7c-0.4,0.3-0.7-0.1-1.1-0.1c-0.2,0.7-0.2,1.4-0.5,1.7c2-1,2.8-1.4,3-2.7c0.1-0.4-0.9-0.6-1.4-0.6l0,0
							C1752,152,1751.9,152,1751.9,152 M1743.1,152.5c0,0.8,1.5,1.7,1.5,1.7s-0.4-1.5-0.3-2.7C1744.1,151.5,1743.3,152,1743.1,152.5
							 M1737.6,144.2c-0.8,0.2-1.4,0.9-1.5,1c0.1,0.4,1.2,1.6,2,2.1c0.6-0.4,0.4-0.9,0.3-1.1c-0.1-0.3-0.9-0.5-0.7-1.2
							c0.2-0.4,0.7-0.4,0.7-0.6c0.1-0.1-0.2-0.4-0.6-0.4l0,0C1737.8,144.2,1737.7,144.2,1737.6,144.2 M1750.6,135.2
							c0.4,1.1-0.3,1.4-0.6,0.7c0.1,0.4,0.3,0.7,0.5,0.7c0.4,0,0.8-1,1.6-1.4C1751.3,135.2,1750.9,135.2,1750.6,135.2 M1745.7,145.6
							c1.6,0.4,1.7,1.7,0.7,2.6c-0.7-2.1-3.7,0.3-4.7,1.6C1741.9,147.5,1744.5,145.3,1745.7,145.6 M1745.6,144.5
							c-2-0.5-3.8,1.8-4.8,3.6C1741.2,145.7,1744.2,141.7,1745.6,144.5 M1744.3,142c-1.1,0.4-2,1-3.1,2.5
							C1741.9,142.2,1743.5,141.3,1744.3,142 M1776.6,135c7.1,12.9,0.3,29.5-15,32.9c1.8-2.4,3.3-5.7,3.1-6.8
							c-2,1.4-5.9,2.1-6.8,1.6c3.6-3.3,3.1-6.8,1-7c-2.1-0.3-4.6,3-4.4,7.4c-1.8-0.8-7.6,0.3-8.1-4.3c-0.7-1-0.9-2.7-0.7-3.4
							c5.2,3,3-3.7,6.1-4.4c-0.3-0.9-3-3.1-6.5,0.4c-0.2,0.6-0.1,2.9,0.1,3.7c-1.6-0.2-2.9-1.8-3.2-2.2c-1.7-0.2-3.4-0.7-5-5
							c-1.4-0.9-2.1-1.8-2.6-2.8c0-0.2,0.2-1.3,1.2-2.2c0,0-0.4,0.9-0.1,1.3c1.8-1.4,2.6-1,3.2-0.7c0.4,0.2,0.8,0.4,1.3,0.3
							c0,1.7-1.7,2.8-1.6,4.4c1,2.6,1.7,2.9,3.7,3.2c2.4-1.2,4.4-3.9,7.3-3.9c2.4,0,5.3,1.1,5.8,4.4c0.3,2.3-4.7,5.7-6.6,5
							c-3.2,3.5,2.2,4.6,4,4.1c1.3-5.9,4.5-7.6,6.9-6.8c2.8,1,3.1,4.4,1.2,6.4c1.5-0.4,3.7-1.5,4.5-4.4c0.6,0.6,0.8,2.1,0.8,2.7
							c1.6-2.3,1.1-7.4-0.2-9.3c1,0.1,2,0.5,3,1.4c0.7-3.7-1.7-8.4-2.8-9.2c0.7-0.1,1.7,0,3.1,0.7c-0.4-2.2-2.4-3.7-2.3-5.4
							c0.8,1.6,5.1,2,4.8,7.9c-0.5-0.5-1.6-1-2.1-1c1.5,3.8,1.4,7.5,0.6,10.2c-0.3-0.5-0.8-1.2-1.4-1.4c0.5,2.1-0.2,7.9-1.6,10.1
							c9.6-6.6,3-16.7,7.3-20.9c-0.9,4.4,1.3,8.1,1.1,10.7C1778,148.9,1778.6,142,1776.6,135 M1756.6,135.2c0.6-0.5,2.5-0.5,3.5,0.3
							c-1.4,0-3.1,1.7-3.9,6.4c0.4,0.5,3.1,4.5,0,9.5c0.8-3.7-1.5-10.8-4-7.2c1.7,0.8,2.3,2.2,1.8,3.5c-0.7-1.3-2.5-2.8-4.3-2.2
							c-0.9,0.3-2.1,0.3-3-1c-1.1-1.7,0.8-3.8-2.5-3.6c4-2,2.8,1.9,4.8,2.4c2.2,0.5,2.5-0.8,3.3-1.7c0.6-0.7,1.8-1.3,3-0.5
							C1755.8,139.4,1754.9,136.6,1756.6,135.2 M1759.1,146.8c-0.6-3.1,4.6-8.1,1.4-13.2c6.2,5,1.3,7.9,4.4,12
							c-1.2-0.4-2.4-1.5-2.8-2c-1.7,2.3,4.2,5.4,0.3,10.7C1762.6,151.4,1759.7,149.9,1759.1,146.8 M1752.6,129.9
							c0.7,0,2,0.5,1.5,1.1c-1.7,1.6-4,0.9-5.9,2.5C1749,131.5,1752.3,131.2,1752.6,129.9 M1753.2,134.2c0.2-2.6,5.1-2.9,2-4.4
							c2.9,0.4,3.6,1.5,2.9,2.3c-0.6,0.7-3.4,1.6-4.2,2.5c3-0.1-0.5,1.5-1.5,5.2c-0.4,1.6-4.1,1.1-4.6,0.3c0.9,0.2,3.8-0.4,4.9-4.2
							c0-0.1,0-0.1-0.1,0c-1.4,1.5-2.5,1.8-3,1.4c-0.6,0.5-0.9,0.9-1.5,1.9c-1-0.9-0.6-1.7,0.4-2.7c0.1-0.1,0-0.3-0.2-0.4
							c-0.9-0.4-1.1-1.6-0.2-2.1c-0.3,0.8,0.6,1.3,1.4,0.6c0.4-0.4,0.9-0.3,1.6-0.2c0.3,0.1,0.6,0.1,0.9,0.1l0,0
							C1752.4,134.4,1752.8,134.4,1753.2,134.2 M1759.6,130.2c-0.3-0.8,0.6-2.9,1.1-2.6c1.3,0.7,2.2,3.8,2,5.3
							C1761.8,131.8,1761.1,131.1,1759.6,130.2 M1757.1,126.7c0.2-0.8,0.7-2.9,1.4-4c0.7-1,1.9-1.1,3.5,0.2c1.7,1.4,2.9,2,5.2,4.9
							c1.9,0.9,5,2,7.6,5.2c-1.1-0.7-2.4-1-3.5-1.2c2.1,1.9,3.6,5,2.5,9.5c-0.4-4.2-3.5-6-5.4-7.4c1,3.6-3.5,2.3-4.8-0.4
							c0.4,0.1,0.9,0.1,1.2,0c-0.1-5.5-2.7-8.6-3.9-9.6c-1.5-1.2-2.3,1.7-2.8,3.9c-0.2,0.7-0.8,1.3-1.6,1.2c0.2-0.3,0.4-1,0.4-1.2
							c-2.3,0.2-4.8,1.5-6.4,2.2c-4,1.8-5,2.7-5.9,5.7c-3.2,1.3-6.8,5-8.4,6.7c0.9-2.5,3.3-5.4,7-7.6c0.9-2.2,0.6-3.7,9.6-7.2
							c0.2-1.3,0.2-2.9,0.6-2.9s1.7,0.6,2.7,2C1756.5,126.7,1756.8,126.7,1757.1,126.7 M1731,145.7c0,14.3,11.5,25.8,25.8,25.9
							c14.3,0,25.8-11.5,25.9-25.8c0-14.3-11.5-25.8-25.8-25.9l0,0C1742.6,120,1731.1,131.5,1731,145.7 M1756.8,173.9
							c-15.5,0-28-12.6-28-28.1s12.6-28,28.1-28s28,12.6,28,28.1C1784.9,161.3,1772.3,173.8,1756.8,173.9L1756.8,173.9
							 M1727.7,145.7c0,16.1,13,29.2,29.1,29.2s29.2-13,29.2-29.1s-13-29.2-29.1-29.2c0,0,0,0-0.1,0
							C1740.8,116.6,1727.7,129.6,1727.7,145.7"/>
					</g>
				</g>
				<g>
					<g class="st1">
						<path class="st2" d="M1747,332.9c0.5-0.2,0.9-1,0.9-1s-0.9-0.2-1.6-0.6C1746.3,332,1746.9,332.7,1747,332.9 M1751.9,326.9
							c0.3,0.3,0.6,1.4,0.3,1.7c-0.4,0.3-0.7-0.1-1.1-0.1c-0.2,0.7-0.2,1.4-0.5,1.7c2-1,2.8-1.4,3-2.7c0.1-0.4-0.9-0.6-1.4-0.6l0,0
							C1752,326.9,1751.9,326.9,1751.9,326.9 M1743.1,327.4c0,0.8,1.5,1.7,1.5,1.7s-0.4-1.5-0.3-2.7
							C1744.1,326.5,1743.3,327,1743.1,327.4 M1737.6,319.2c-0.8,0.2-1.4,0.9-1.5,1c0.1,0.4,1.2,1.6,2,2.1c0.6-0.4,0.4-0.9,0.3-1.1
							c-0.1-0.3-0.9-0.5-0.7-1.2c0.2-0.4,0.7-0.4,0.7-0.6c0.1-0.1-0.2-0.4-0.6-0.4l0,0C1737.8,319.1,1737.7,319.1,1737.6,319.2
							 M1750.6,310.1c0.4,1-0.3,1.4-0.6,0.7c0.1,0.4,0.3,0.7,0.5,0.7c0.4,0,0.8-1,1.6-1.4C1751.3,310.2,1750.9,310.1,1750.6,310.1
							 M1745.7,320.6c1.6,0.4,1.7,1.7,0.7,2.6c-0.7-2.1-3.7,0.3-4.7,1.6C1741.9,322.4,1744.5,320.3,1745.7,320.6 M1745.6,319.4
							c-2-0.5-3.8,1.8-4.8,3.6C1741.2,320.6,1744.2,316.6,1745.6,319.4 M1744.3,317c-1.1,0.4-2,1-3.1,2.5
							C1741.9,317.1,1743.5,316.3,1744.3,317 M1776.6,309.9c7.1,12.9,0.3,29.5-15,32.9c1.8-2.3,3.3-5.7,3.1-6.8
							c-2,1.4-5.9,2.1-6.8,1.6c3.6-3.3,3.1-6.7,1-7s-4.6,3-4.4,7.4c-1.8-0.8-7.6,0.3-8.1-4.3c-0.7-1-0.9-2.7-0.7-3.4
							c5.2,3,3-3.7,6.1-4.4c-0.3-0.9-3-3.1-6.5,0.4c-0.2,0.6-0.1,2.9,0.1,3.7c-1.6-0.2-2.9-1.8-3.2-2.2c-1.7-0.2-3.4-0.7-5-5
							c-1.4-0.9-2.1-1.8-2.6-2.8c0-0.2,0.2-1.3,1.2-2.2c0,0-0.4,1-0.1,1.3c1.8-1.4,2.6-1,3.2-0.7c0.4,0.2,0.8,0.4,1.3,0.3
							c0,1.7-1.7,2.8-1.6,4.4c1,2.6,1.7,2.9,3.7,3.2c2.4-1.2,4.4-3.9,7.3-3.9c2.4,0,5.3,1.1,5.8,4.4c0.3,2.3-4.7,5.7-6.6,5
							c-3.2,3.5,2.2,4.6,4,4.1c1.3-5.9,4.5-7.6,6.9-6.8c2.8,1,3.1,4.4,1.2,6.4c1.5-0.3,3.7-1.5,4.5-4.4c0.6,0.6,0.8,2.1,0.8,2.7
							c1.6-2.3,1.1-7.4-0.2-9.3c1,0.1,2,0.5,3,1.4c0.7-3.7-1.7-8.4-2.8-9.2c0.7-0.1,1.7,0,3.1,0.7c-0.4-2.2-2.4-3.7-2.3-5.4
							c0.8,1.6,5.1,2,4.8,7.9c-0.5-0.5-1.6-1-2.1-1c1.5,3.8,1.4,7.5,0.6,10.2c-0.3-0.5-0.8-1.2-1.4-1.4c0.5,2.1-0.2,7.9-1.6,10.2
							c9.6-6.6,3-16.7,7.3-20.9c-0.9,4.4,1.3,8.1,1.1,10.6C1778,323.8,1778.6,317,1776.6,309.9 M1756.6,310.1
							c0.6-0.5,2.5-0.5,3.5,0.3c-1.4,0-3.1,1.7-3.9,6.4c0.4,0.5,3.1,4.5,0,9.5c0.8-3.7-1.5-10.8-4-7.2c1.7,0.8,2.3,2.2,1.8,3.5
							c-0.7-1.3-2.5-2.8-4.3-2.2c-0.9,0.3-2.1,0.3-3-1c-1.1-1.7,0.8-3.8-2.5-3.6c4-2,2.8,1.9,4.8,2.4c2.2,0.5,2.5-0.8,3.3-1.7
							c0.6-0.7,1.8-1.3,3-0.5C1755.8,314.3,1754.9,311.5,1756.6,310.1 M1759.1,321.8c-0.6-3.1,4.6-8.1,1.4-13.2
							c6.2,5,1.3,7.9,4.4,12c-1.2-0.4-2.4-1.5-2.8-2c-1.7,2.3,4.2,5.4,0.3,10.7C1762.6,326.3,1759.7,324.9,1759.1,321.8
							 M1752.6,304.8c0.7,0,2,0.5,1.5,1.1c-1.7,1.6-4,0.9-5.9,2.5C1749,306.4,1752.3,306.2,1752.6,304.8 M1753.2,309.2
							c0.2-2.6,5.1-2.9,2-4.4c2.9,0.4,3.6,1.5,2.9,2.3c-0.6,0.7-3.4,1.6-4.2,2.5c3-0.1-0.5,1.5-1.5,5.2c-0.4,1.6-4.1,1.1-4.6,0.3
							c0.9,0.2,3.8-0.4,4.9-4.2c0-0.1,0-0.1-0.1,0c-1.4,1.5-2.5,1.8-3,1.4c-0.6,0.5-0.9,0.9-1.5,1.9c-1-0.9-0.6-1.7,0.4-2.7
							c0.1-0.1,0-0.3-0.2-0.4c-0.9-0.4-1.1-1.6-0.2-2.1c-0.3,0.8,0.6,1.3,1.4,0.6c0.4-0.4,0.9-0.3,1.6-0.2c0.3,0,0.6,0.1,0.9,0.1
							l0,0C1752.4,309.4,1752.8,309.3,1753.2,309.2 M1759.6,305.1c-0.3-0.8,0.6-2.9,1.1-2.6c1.3,0.7,2.2,3.8,2,5.3
							C1761.8,306.7,1761.1,306.1,1759.6,305.1 M1757.1,301.6c0.2-0.8,0.7-2.9,1.4-4c0.7-1,1.9-1.1,3.5,0.2c1.7,1.4,2.9,2,5.2,4.9
							c1.9,0.9,5,2,7.6,5.2c-1.1-0.7-2.4-1-3.5-1.2c2.1,1.9,3.6,5,2.5,9.5c-0.4-4.2-3.5-6-5.4-7.4c1,3.6-3.5,2.3-4.8-0.4
							c0.4,0.1,0.9,0.1,1.2,0c-0.1-5.5-2.7-8.6-3.9-9.6c-1.5-1.2-2.3,1.7-2.8,3.9c-0.2,0.7-0.8,1.3-1.6,1.2c0.2-0.2,0.4-1,0.4-1.2
							c-2.3,0.2-4.8,1.5-6.4,2.2c-4,1.8-5,2.7-5.9,5.7c-3.2,1.3-6.8,5-8.4,6.7c0.9-2.5,3.3-5.4,7-7.6c0.9-2.2,0.6-3.7,9.6-7.2
							c0.2-1.3,0.2-2.9,0.6-2.9s1.7,0.6,2.7,2C1756.5,301.7,1756.8,301.6,1757.1,301.6 M1731,320.7c0,14.3,11.5,25.8,25.8,25.9
							c14.3,0,25.8-11.5,25.9-25.8c0-14.3-11.5-25.8-25.8-25.9l0,0C1742.6,294.9,1731.1,306.4,1731,320.7 M1756.8,348.8
							c-15.5,0-28-12.6-28-28.1s12.6-28,28.1-28s28,12.6,28,28.1S1772.3,348.8,1756.8,348.8L1756.8,348.8 M1727.7,320.7
							c0,16.1,13,29.2,29.1,29.2s29.2-13,29.2-29.1s-13-29.2-29.1-29.2c0,0,0,0-0.1,0C1740.8,291.6,1727.7,304.6,1727.7,320.7"/>
					</g>
					<g class="st1">
						<path class="st2" d="M1747,274.5c0.5-0.2,0.9-1,0.9-1s-0.9-0.2-1.6-0.6C1746.3,273.7,1746.9,274.4,1747,274.5 M1751.9,268.6
							c0.3,0.4,0.6,1.4,0.3,1.7c-0.4,0.3-0.7-0.1-1.1-0.1c-0.2,0.7-0.2,1.4-0.5,1.7c2-1,2.8-1.4,3-2.7c0.1-0.4-0.9-0.6-1.4-0.6l0,0
							C1752,268.6,1751.9,268.6,1751.9,268.6 M1743.1,269.1c0,0.8,1.5,1.7,1.5,1.7s-0.4-1.5-0.3-2.7
							C1744.1,268.2,1743.3,268.7,1743.1,269.1 M1737.6,260.8c-0.8,0.2-1.4,0.9-1.5,1c0.1,0.4,1.2,1.6,2,2.1c0.6-0.4,0.4-0.8,0.3-1
							c-0.1-0.3-0.9-0.5-0.7-1.2c0.2-0.4,0.7-0.4,0.7-0.6c0.1-0.1-0.2-0.4-0.6-0.4l0,0C1737.8,260.8,1737.7,260.8,1737.6,260.8
							 M1750.6,251.8c0.4,1.1-0.3,1.4-0.6,0.7c0.1,0.4,0.3,0.7,0.5,0.7c0.4,0,0.8-1,1.6-1.4C1751.3,251.8,1750.9,251.8,1750.6,251.8
							 M1745.7,262.3c1.6,0.4,1.7,1.7,0.7,2.6c-0.7-2.1-3.7,0.3-4.7,1.6C1741.9,264.1,1744.5,261.9,1745.7,262.3 M1745.6,261.1
							c-2-0.5-3.8,1.8-4.8,3.6C1741.2,262.3,1744.2,258.3,1745.6,261.1 M1744.3,258.6c-1.1,0.4-2,1-3.1,2.5
							C1741.9,258.8,1743.5,258,1744.3,258.6 M1776.6,251.6c7.1,12.9,0.3,29.5-15,32.9c1.8-2.4,3.3-5.7,3.1-6.8
							c-2,1.4-5.9,2.1-6.8,1.6c3.6-3.3,3.1-6.7,1-7s-4.6,3-4.4,7.4c-1.8-0.8-7.6,0.3-8.1-4.3c-0.7-1-0.9-2.7-0.7-3.4
							c5.2,3,3-3.7,6.1-4.4c-0.3-0.9-3-3.1-6.5,0.4c-0.2,0.6-0.1,2.9,0.1,3.7c-1.6-0.2-2.9-1.8-3.2-2.2c-1.7-0.2-3.4-0.7-5-5
							c-1.4-0.9-2.1-1.8-2.6-2.8c0-0.2,0.2-1.3,1.2-2.2c0,0-0.4,0.9-0.1,1.3c1.8-1.4,2.6-1,3.2-0.7c0.4,0.2,0.8,0.4,1.3,0.3
							c0,1.7-1.7,2.8-1.6,4.4c1,2.7,1.7,2.9,3.7,3.2c2.4-1.2,4.4-3.9,7.3-3.9c2.4,0,5.3,1.1,5.8,4.4c0.3,2.3-4.7,5.7-6.6,5
							c-3.2,3.5,2.2,4.6,4,4.1c1.3-5.9,4.5-7.6,6.9-6.7c2.8,0.9,3.1,4.4,1.2,6.4c1.5-0.4,3.7-1.6,4.5-4.4c0.6,0.6,0.8,2.1,0.8,2.7
							c1.6-2.3,1.1-7.4-0.2-9.3c1,0.1,2,0.5,3,1.4c0.7-3.7-1.7-8.4-2.8-9.2c0.7-0.1,1.7,0,3.1,0.7c-0.4-2.2-2.4-3.7-2.3-5.4
							c0.8,1.6,5.1,2,4.8,7.9c-0.5-0.5-1.6-1-2.1-1c1.5,3.8,1.4,7.5,0.6,10.2c-0.3-0.5-0.8-1.2-1.4-1.4c0.5,2.1-0.2,7.9-1.6,10.2
							c9.6-6.6,3-16.7,7.3-20.9c-0.9,4.3,1.3,8.1,1.1,10.6C1778,265.5,1778.6,258.7,1776.6,251.6 M1756.6,251.8
							c0.6-0.5,2.5-0.5,3.5,0.3c-1.4,0-3.1,1.6-3.9,6.4c0.4,0.5,3.1,4.5,0,9.5c0.8-3.7-1.5-10.9-4-7.2c1.7,0.8,2.3,2.2,1.8,3.5
							c-0.7-1.3-2.5-2.8-4.3-2.2c-0.9,0.3-2.1,0.3-3-1c-1.1-1.7,0.8-3.8-2.5-3.6c4-2,2.8,1.9,4.8,2.4c2.2,0.5,2.5-0.8,3.3-1.7
							c0.6-0.7,1.8-1.3,3-0.5C1755.8,256,1754.9,253.2,1756.6,251.8 M1759.1,263.4c-0.6-3.1,4.6-8.1,1.4-13.2c6.2,5,1.3,7.9,4.4,12
							c-1.2-0.4-2.4-1.4-2.8-2c-1.7,2.3,4.2,5.4,0.3,10.7C1762.6,268,1759.7,266.5,1759.1,263.4 M1752.6,246.5c0.7,0,2,0.5,1.5,1.1
							c-1.7,1.6-4,1-5.9,2.5C1749,248.1,1752.3,247.9,1752.6,246.5 M1753.2,250.9c0.2-2.6,5.1-2.9,2-4.4c2.9,0.4,3.6,1.5,2.9,2.3
							c-0.6,0.7-3.4,1.6-4.2,2.5c3-0.1-0.5,1.5-1.5,5.1c-0.4,1.6-4.1,1.1-4.6,0.3c0.9,0.2,3.8-0.4,4.9-4.3c0-0.1,0-0.1-0.1,0
							c-1.4,1.5-2.5,1.8-3,1.4c-0.6,0.5-0.9,0.9-1.5,1.9c-1-0.9-0.6-1.8,0.4-2.7c0.1-0.1,0-0.3-0.2-0.4c-0.9-0.4-1.1-1.6-0.2-2.1
							c-0.3,0.8,0.6,1.3,1.4,0.6c0.4-0.4,0.9-0.3,1.6-0.2c0.3,0,0.6,0.1,0.9,0.1l0,0C1752.4,251.1,1752.8,251,1753.2,250.9
							 M1759.6,246.8c-0.3-0.8,0.6-2.9,1.1-2.6c1.3,0.7,2.2,3.8,2,5.3C1761.8,248.4,1761.1,247.7,1759.6,246.8 M1757.1,243.3
							c0.2-0.8,0.7-2.9,1.4-4c0.7-1,1.9-1.1,3.5,0.2c1.7,1.4,2.9,2,5.2,4.9c1.9,0.9,5,2,7.6,5.2c-1.1-0.7-2.4-1-3.5-1.2
							c2.1,1.9,3.6,5,2.5,9.6c-0.4-4.3-3.5-6-5.4-7.4c1,3.6-3.5,2.3-4.8-0.4c0.4,0.1,0.9,0.1,1.2-0.1c-0.1-5.5-2.7-8.6-3.9-9.6
							c-1.5-1.2-2.3,1.7-2.8,3.9c-0.2,0.7-0.8,1.3-1.6,1.2c0.2-0.3,0.4-1,0.4-1.2c-2.3,0.2-4.8,1.5-6.4,2.2c-4,1.8-5,2.7-5.9,5.7
							c-3.2,1.3-6.8,5-8.4,6.7c0.9-2.5,3.3-5.4,7-7.6c0.9-2.2,0.6-3.7,9.6-7.2c0.2-1.3,0.2-2.9,0.6-2.9s1.7,0.6,2.7,2
							C1756.5,243.4,1756.8,243.3,1757.1,243.3 M1731,262.4c0,14.3,11.5,25.8,25.8,25.9c14.3,0,25.8-11.5,25.9-25.8
							c0-14.3-11.5-25.8-25.8-25.9l0,0C1742.6,236.6,1731.1,248.1,1731,262.4 M1756.8,290.5c-15.5,0-28-12.6-28-28.1
							s12.6-28,28.1-28s28,12.6,28,28.1C1784.9,277.9,1772.3,290.5,1756.8,290.5L1756.8,290.5 M1727.7,262.4
							c0,16.1,13,29.2,29.1,29.2s29.2-13,29.2-29.1s-13-29.2-29.1-29.2c0,0,0,0-0.1,0C1740.8,233.2,1727.7,246.3,1727.7,262.4"/>
					</g>
				</g>
				<g>
					<g class="st1">
						<path class="st2" d="M1747,449.7c0.5-0.2,0.9-1,0.9-1s-0.9-0.2-1.6-0.6C1746.3,448.8,1746.9,449.5,1747,449.7 M1751.9,443.7
							c0.3,0.4,0.6,1.4,0.3,1.7c-0.4,0.3-0.7-0.1-1.1-0.1c-0.2,0.7-0.2,1.4-0.5,1.7c2-1,2.8-1.4,3-2.7c0.1-0.4-0.9-0.6-1.4-0.6l0,0
							C1752,443.7,1751.9,443.7,1751.9,443.7 M1743.1,444.2c0,0.8,1.5,1.7,1.5,1.7s-0.4-1.5-0.3-2.7
							C1744.1,443.3,1743.3,443.8,1743.1,444.2 M1737.6,436c-0.8,0.2-1.4,0.9-1.5,1c0.1,0.4,1.2,1.6,2,2.1c0.6-0.4,0.4-0.8,0.3-1.1
							c-0.1-0.3-0.9-0.5-0.7-1.2c0.2-0.4,0.7-0.4,0.7-0.6c0.1-0.1-0.2-0.4-0.6-0.4l0,0C1737.8,435.9,1737.7,436,1737.6,436
							 M1750.6,426.9c0.4,1.1-0.3,1.4-0.6,0.7c0.1,0.4,0.3,0.7,0.5,0.7c0.4,0,0.8-1,1.6-1.4C1751.3,427,1750.9,426.9,1750.6,426.9
							 M1745.7,437.4c1.6,0.4,1.7,1.7,0.7,2.6c-0.7-2.1-3.7,0.3-4.7,1.6C1741.9,439.2,1744.5,437.1,1745.7,437.4 M1745.6,436.2
							c-2-0.5-3.8,1.8-4.8,3.6C1741.2,437.4,1744.2,433.4,1745.6,436.2 M1744.3,433.8c-1.1,0.4-2,1-3.1,2.5
							C1741.9,433.9,1743.5,433.1,1744.3,433.8 M1776.6,426.7c7.1,12.9,0.3,29.5-15,32.9c1.8-2.4,3.3-5.7,3.1-6.8
							c-2,1.4-5.9,2.1-6.8,1.6c3.6-3.3,3.1-6.7,1-7s-4.6,3-4.4,7.4c-1.8-0.8-7.6,0.3-8.1-4.3c-0.7-1-0.9-2.7-0.7-3.4
							c5.2,3,3-3.7,6.1-4.4c-0.3-0.9-3-3.1-6.5,0.4c-0.2,0.6-0.1,2.9,0.1,3.7c-1.6-0.2-2.9-1.8-3.2-2.2c-1.7-0.2-3.4-0.6-5-5
							c-1.4-0.9-2.1-1.8-2.6-2.8c0-0.2,0.2-1.3,1.2-2.2c0,0-0.4,0.9-0.1,1.3c1.8-1.4,2.6-1,3.2-0.7c0.4,0.2,0.8,0.4,1.3,0.3
							c0,1.7-1.7,2.8-1.6,4.4c1,2.7,1.7,2.9,3.7,3.2c2.4-1.2,4.4-3.9,7.3-3.9c2.4,0,5.3,1.1,5.8,4.4c0.3,2.3-4.7,5.7-6.6,5
							c-3.2,3.5,2.2,4.6,4,4.1c1.3-5.9,4.5-7.6,6.9-6.8c2.8,1,3.1,4.4,1.2,6.4c1.5-0.4,3.7-1.6,4.5-4.4c0.6,0.6,0.8,2.1,0.8,2.7
							c1.6-2.3,1.1-7.4-0.2-9.3c1,0.1,2,0.5,3,1.4c0.7-3.7-1.7-8.4-2.8-9.2c0.7-0.1,1.7,0,3.1,0.7c-0.4-2.2-2.4-3.7-2.3-5.4
							c0.8,1.6,5.1,2,4.8,7.9c-0.5-0.5-1.6-1-2.1-1c1.5,3.8,1.4,7.5,0.6,10.2c-0.3-0.5-0.8-1.2-1.4-1.4c0.5,2.1-0.2,7.9-1.6,10.2
							c9.6-6.6,3-16.7,7.3-20.9c-0.9,4.3,1.3,8.1,1.1,10.6C1778,440.6,1778.6,433.8,1776.6,426.7 M1756.6,426.9
							c0.6-0.5,2.5-0.5,3.5,0.3c-1.4,0-3.1,1.6-3.9,6.4c0.4,0.5,3.1,4.5,0,9.5c0.8-3.7-1.5-10.8-4-7.2c1.7,0.8,2.3,2.2,1.8,3.5
							c-0.7-1.3-2.5-2.7-4.3-2.2c-0.9,0.3-2.1,0.3-3-1c-1.1-1.7,0.8-3.8-2.5-3.6c4-2,2.8,1.9,4.8,2.4c2.2,0.5,2.5-0.8,3.3-1.7
							c0.6-0.7,1.8-1.3,3-0.5C1755.8,431.1,1754.9,428.4,1756.6,426.9 M1759.1,438.6c-0.6-3.1,4.6-8.1,1.4-13.2
							c6.2,5,1.3,7.9,4.4,12c-1.2-0.4-2.4-1.4-2.8-2c-1.7,2.3,4.2,5.4,0.3,10.7C1762.6,443.1,1759.7,441.7,1759.1,438.6
							 M1752.6,421.6c0.7,0,2,0.5,1.5,1.1c-1.7,1.6-4,1-5.9,2.5C1749,423.3,1752.3,423,1752.6,421.6 M1753.2,426
							c0.2-2.6,5.1-2.9,2-4.4c2.9,0.4,3.6,1.5,2.9,2.3c-0.6,0.7-3.4,1.6-4.2,2.5c3-0.1-0.5,1.5-1.5,5.1c-0.4,1.6-4.1,1.1-4.6,0.3
							c0.9,0.2,3.8-0.4,4.9-4.2c0-0.1,0-0.1-0.1,0c-1.4,1.5-2.5,1.8-3,1.4c-0.6,0.5-0.9,0.9-1.5,1.9c-1-0.9-0.6-1.8,0.4-2.7
							c0.1-0.1,0-0.3-0.2-0.4c-0.9-0.4-1.1-1.6-0.2-2.1c-0.3,0.8,0.6,1.3,1.4,0.6c0.4-0.4,0.9-0.3,1.6-0.2c0.3,0,0.6,0.1,0.9,0.1
							l0,0C1752.4,426.2,1752.8,426.1,1753.2,426 M1759.6,421.9c-0.3-0.8,0.6-2.9,1.1-2.6c1.3,0.7,2.2,3.8,2,5.3
							C1761.8,423.5,1761.1,422.9,1759.6,421.9 M1757.1,418.4c0.2-0.8,0.7-2.9,1.4-4c0.7-1,1.9-1.1,3.5,0.2c1.7,1.4,2.9,2,5.2,4.9
							c1.9,0.9,5,2,7.6,5.2c-1.1-0.7-2.4-1-3.5-1.2c2.1,1.9,3.6,5,2.5,9.6c-0.4-4.2-3.5-6-5.4-7.4c1,3.6-3.5,2.3-4.8-0.4
							c0.4,0.1,0.9,0.1,1.2-0.1c-0.1-5.5-2.7-8.6-3.9-9.6c-1.5-1.2-2.3,1.7-2.8,3.9c-0.2,0.7-0.8,1.3-1.6,1.2c0.2-0.3,0.4-1,0.4-1.2
							c-2.3,0.2-4.8,1.5-6.4,2.2c-4,1.8-5,2.7-5.9,5.7c-3.2,1.3-6.8,5-8.4,6.7c0.9-2.5,3.3-5.4,7-7.6c0.9-2.2,0.6-3.7,9.6-7.2
							c0.2-1.3,0.2-2.9,0.6-2.9s1.7,0.6,2.7,2C1756.5,418.5,1756.8,418.4,1757.1,418.4 M1731,437.5c0,14.3,11.5,25.8,25.8,25.9
							c14.3,0,25.8-11.5,25.9-25.8c0-14.3-11.5-25.8-25.8-25.9l0,0C1742.6,411.7,1731.1,423.2,1731,437.5 M1756.8,465.6
							c-15.5,0-28-12.6-28-28.1s12.6-28,28.1-28s28,12.6,28,28.1S1772.3,465.6,1756.8,465.6L1756.8,465.6 M1727.7,437.5
							c0,16.1,13,29.2,29.1,29.2s29.2-13,29.2-29.1s-13-29.2-29.1-29.2c0,0,0,0-0.1,0C1740.8,408.4,1727.7,421.4,1727.7,437.5"/>
					</g>
					<g class="st1">
						<path class="st2" d="M1747,391.4c0.5-0.2,0.9-1,0.9-1s-0.9-0.2-1.6-0.6C1746.3,390.5,1746.9,391.2,1747,391.4 M1751.9,385.4
							c0.3,0.4,0.6,1.4,0.3,1.7c-0.4,0.3-0.7-0.1-1.1-0.1c-0.2,0.7-0.2,1.4-0.5,1.7c2-1,2.8-1.4,3-2.7c0.1-0.4-0.9-0.6-1.4-0.6l0,0
							C1752,385.4,1751.9,385.4,1751.9,385.4 M1743.1,385.9c0,0.8,1.5,1.7,1.5,1.7s-0.4-1.5-0.3-2.7
							C1744.1,385,1743.3,385.5,1743.1,385.9 M1737.6,377.7c-0.8,0.2-1.4,0.9-1.5,1c0.1,0.4,1.2,1.6,2,2.1c0.6-0.4,0.4-0.9,0.3-1
							c-0.1-0.3-0.9-0.5-0.7-1.2c0.2-0.4,0.7-0.4,0.7-0.6c0.1-0.1-0.2-0.4-0.6-0.4l0,0C1737.8,377.6,1737.7,377.6,1737.6,377.7
							 M1750.6,368.6c0.4,1.1-0.3,1.4-0.6,0.7c0.1,0.4,0.3,0.7,0.5,0.7c0.4,0,0.8-1,1.6-1.4C1751.3,368.7,1750.9,368.6,1750.6,368.6
							 M1745.7,379.1c1.6,0.4,1.7,1.7,0.7,2.6c-0.7-2.1-3.7,0.3-4.7,1.6C1741.9,380.9,1744.5,378.8,1745.7,379.1 M1745.6,377.9
							c-2-0.5-3.8,1.8-4.8,3.6C1741.2,379.1,1744.2,375.1,1745.6,377.9 M1744.3,375.5c-1.1,0.4-2,1-3.1,2.5
							C1741.9,375.6,1743.5,374.8,1744.3,375.5 M1776.6,368.4c7.1,12.9,0.3,29.5-15,32.9c1.8-2.4,3.3-5.7,3.1-6.8
							c-2,1.4-5.9,2.1-6.8,1.6c3.6-3.3,3.1-6.7,1-7s-4.6,3-4.4,7.5c-1.8-0.8-7.6,0.3-8.1-4.3c-0.7-1-0.9-2.7-0.7-3.4
							c5.2,3,3-3.7,6.1-4.4c-0.3-0.9-3-3.1-6.5,0.4c-0.2,0.6-0.1,2.9,0.1,3.7c-1.6-0.2-2.9-1.8-3.2-2.2c-1.7-0.2-3.4-0.7-5-5
							c-1.4-0.9-2.1-1.8-2.6-2.8c0-0.2,0.2-1.3,1.2-2.2c0,0-0.4,0.9-0.1,1.3c1.8-1.4,2.6-1,3.2-0.7c0.4,0.2,0.8,0.4,1.3,0.3
							c0,1.7-1.7,2.8-1.6,4.4c1,2.7,1.7,2.9,3.7,3.2c2.4-1.2,4.4-3.9,7.3-3.9c2.4,0,5.3,1.1,5.8,4.4c0.3,2.3-4.7,5.7-6.6,5
							c-3.2,3.5,2.2,4.6,4,4.1c1.3-5.9,4.5-7.6,6.9-6.7c2.8,1,3.1,4.4,1.2,6.4c1.5-0.4,3.7-1.5,4.5-4.4c0.6,0.6,0.8,2.1,0.8,2.7
							c1.6-2.3,1.1-7.4-0.2-9.3c1,0.1,2,0.5,3,1.4c0.7-3.7-1.7-8.4-2.8-9.2c0.7-0.1,1.7,0,3.1,0.7c-0.4-2.2-2.4-3.7-2.3-5.4
							c0.8,1.6,5.1,2,4.8,7.9c-0.5-0.5-1.6-1-2.1-1c1.5,3.8,1.4,7.5,0.6,10.2c-0.3-0.5-0.8-1.2-1.4-1.4c0.5,2.1-0.2,7.9-1.6,10.2
							c9.6-6.6,3-16.7,7.3-20.9c-0.9,4.4,1.3,8.1,1.1,10.7C1778,382.3,1778.6,375.5,1776.6,368.4 M1756.6,368.6
							c0.6-0.5,2.5-0.5,3.5,0.3c-1.4,0-3.1,1.6-3.9,6.4c0.4,0.5,3.1,4.5,0,9.5c0.8-3.7-1.5-10.8-4-7.2c1.7,0.8,2.3,2.2,1.8,3.5
							c-0.7-1.3-2.5-2.7-4.3-2.2c-0.9,0.3-2.1,0.3-3-1c-1.1-1.7,0.8-3.8-2.5-3.6c4-2,2.8,1.9,4.8,2.4c2.2,0.5,2.5-0.8,3.3-1.7
							c0.6-0.7,1.8-1.3,3-0.5C1755.8,372.8,1754.9,370.1,1756.6,368.6 M1759.1,380.2c-0.6-3.1,4.6-8.1,1.4-13.2
							c6.2,5,1.3,7.9,4.4,12c-1.2-0.4-2.4-1.4-2.8-2c-1.7,2.3,4.2,5.4,0.3,10.7C1762.6,384.8,1759.7,383.4,1759.1,380.2
							 M1752.6,363.3c0.7,0,2,0.5,1.5,1.1c-1.7,1.6-4,0.9-5.9,2.5C1749,364.9,1752.3,364.7,1752.6,363.3 M1753.2,367.7
							c0.2-2.6,5.1-2.9,2-4.4c2.9,0.4,3.6,1.5,2.9,2.3c-0.6,0.7-3.4,1.6-4.2,2.5c3-0.1-0.5,1.5-1.5,5.2c-0.4,1.6-4.1,1.1-4.6,0.3
							c0.9,0.2,3.8-0.4,4.9-4.2c0-0.1,0-0.1-0.1,0c-1.4,1.5-2.5,1.8-3,1.4c-0.6,0.5-0.9,0.9-1.5,1.9c-1-0.9-0.6-1.7,0.4-2.7
							c0.1-0.1,0-0.3-0.2-0.4c-0.9-0.4-1.1-1.6-0.2-2.1c-0.3,0.8,0.6,1.3,1.4,0.6c0.4-0.4,0.9-0.3,1.6-0.2c0.3,0,0.6,0.1,0.9,0.1
							l0,0C1752.4,367.9,1752.8,367.8,1753.2,367.7 M1759.6,363.6c-0.3-0.8,0.6-2.9,1.1-2.6c1.3,0.7,2.2,3.8,2,5.3
							C1761.8,365.2,1761.1,364.6,1759.6,363.6 M1757.1,360.1c0.2-0.8,0.7-2.9,1.4-4c0.7-1,1.9-1.1,3.5,0.2c1.7,1.4,2.9,1.9,5.2,4.9
							c1.9,0.9,5,2,7.6,5.2c-1.1-0.8-2.4-1.1-3.5-1.2c2.1,1.9,3.6,5,2.5,9.5c-0.4-4.2-3.5-6-5.4-7.4c1,3.6-3.5,2.3-4.8-0.4
							c0.4,0.1,0.9,0.1,1.2-0.1c-0.1-5.5-2.7-8.6-3.9-9.6c-1.5-1.2-2.3,1.7-2.8,3.9c-0.2,0.7-0.8,1.3-1.6,1.2c0.2-0.3,0.4-1,0.4-1.2
							c-2.3,0.2-4.8,1.5-6.4,2.2c-4,1.8-5,2.7-5.9,5.7c-3.2,1.3-6.8,5-8.4,6.7c0.9-2.5,3.3-5.4,7-7.6c0.9-2.2,0.6-3.7,9.6-7.2
							c0.2-1.3,0.2-2.9,0.6-2.9s1.7,0.6,2.7,2C1756.5,360.2,1756.8,360.1,1757.1,360.1 M1731,379.2c0,14.3,11.5,25.8,25.8,25.9
							c14.3,0,25.8-11.5,25.9-25.8c0-14.3-11.5-25.8-25.8-25.9l0,0C1742.6,353.4,1731.1,364.9,1731,379.2 M1756.8,407.3
							c-15.5,0-28-12.6-28-28.1s12.6-28,28.1-28s28,12.6,28,28.1S1772.3,407.3,1756.8,407.3L1756.8,407.3 M1727.7,379.2
							c0,16.1,13,29.2,29.1,29.2s29.2-13,29.2-29.1s-13-29.2-29.1-29.2c0,0,0,0-0.1,0C1740.8,350.1,1727.7,363.1,1727.7,379.2"/>
					</g>
				</g>
			</g>
			<g class="st1">
				<path class="st2" d="M1742.2,103.9c0.4-0.2,0.7-0.7,0.7-0.7s-0.7-0.1-1.2-0.5C1741.7,103.2,1742.1,103.7,1742.2,103.9
					 M1745.8,99.4c0.2,0.3,0.5,1.1,0.2,1.3c-0.3,0.2-0.5,0-0.8-0.1c-0.2,0.5-0.1,1-0.4,1.3c1.5-0.7,2.1-1,2.2-2
					C1747,99.6,1746.3,99.4,1745.8,99.4L1745.8,99.4C1745.9,99.4,1745.9,99.4,1745.8,99.4 M1739.3,99.8c0,0.6,1.2,1.3,1.2,1.3
					s-0.3-1.2-0.2-2C1740,99.1,1739.4,99.5,1739.3,99.8 M1735.1,93.6c-0.6,0.2-1,0.7-1.1,0.8c0.1,0.3,0.9,1.2,1.5,1.6
					c0.4-0.3,0.3-0.6,0.2-0.8c-0.1-0.2-0.6-0.4-0.5-0.9c0.1-0.3,0.5-0.3,0.5-0.5c0.1-0.1-0.1-0.3-0.4-0.3l0,0
					C1735.3,93.6,1735.2,93.6,1735.1,93.6 M1744.9,86.8c0.3,0.8-0.2,1.1-0.4,0.5c0,0.3,0.2,0.5,0.4,0.5c0.3,0,0.6-0.7,1.2-1
					C1745.4,86.8,1745.1,86.8,1744.9,86.8 M1741.2,94.6c1.2,0.3,1.3,1.3,0.5,1.9c-0.5-1.6-2.8,0.2-3.5,1.2
					C1738.4,96,1740.3,94.4,1741.2,94.6 M1741.1,93.8c-1.5-0.4-2.8,1.4-3.6,2.7C1737.8,94.7,1740.1,91.7,1741.1,93.8 M1740.2,91.9
					c-0.9,0.3-1.5,0.8-2.3,1.9C1738.4,92.1,1739.5,91.4,1740.2,91.9 M1764.4,86.6c5.3,9.7,0.2,22.1-11.2,24.7
					c1.4-1.8,2.5-4.3,2.3-5.1c-1.5,1.1-4.4,1.6-5.1,1.2c2.7-2.5,2.3-5.1,0.7-5.3c-1.6-0.2-3.4,2.2-3.3,5.6c-1.3-0.6-5.7,0.2-6.1-3.2
					c-0.5-0.8-0.7-2-0.5-2.5c3.9,2.2,2.2-2.8,4.6-3.3c-0.3-0.7-2.2-2.3-4.9,0.3c-0.1,0.4-0.1,2.2,0.1,2.8c-1.2-0.2-2.2-1.3-2.4-1.6
					c-1.3-0.1-2.6-0.5-3.8-3.8c-1-0.7-1.5-1.3-1.9-2.1c0-0.2,0.2-1,0.9-1.7c0,0-0.3,0.7-0.1,1c1.3-1.1,1.9-0.8,2.4-0.5
					c0.3,0.2,0.6,0.3,1,0.2c0,1.3-1.3,2.1-1.2,3.3c0.8,2,1.3,2.2,2.8,2.4c1.8-0.9,3.3-2.9,5.5-2.9c1.8,0,4,0.9,4.4,3.3
					c0.2,1.8-3.5,4.3-5,3.8c-2.4,2.6,1.6,3.5,3,3.1c1-4.4,3.3-5.7,5.2-5.1c2.1,0.7,2.3,3.3,0.9,4.8c1.1-0.3,2.8-1.2,3.4-3.3
					c0.4,0.5,0.6,1.6,0.6,2c1.2-1.7,0.8-5.5-0.1-7c0.8,0.1,1.5,0.4,2.3,1c0.5-2.8-1.3-6.3-2.1-6.9c0.5-0.1,1.3,0,2.4,0.5
					c-0.3-1.7-1.8-2.8-1.8-4c0.6,1.2,3.8,1.5,3.6,5.9c-0.4-0.4-1.2-0.7-1.6-0.8c1.1,2.8,1,5.7,0.4,7.6c-0.3-0.4-0.6-0.9-1-1
					c0.4,1.6-0.1,5.9-1.2,7.6c7.2-5,2.3-12.6,5.5-15.6c-0.7,3.3,1,6.1,0.8,8C1765.4,97.1,1765.9,92,1764.4,86.6 M1749.3,86.8
					c0.5-0.4,1.9-0.4,2.6,0.3c-1.1,0-2.3,1.2-2.9,4.8c0.3,0.4,2.3,3.4,0,7.2c0.6-2.8-1.1-8.1-3-5.4c1.3,0.6,1.7,1.6,1.4,2.7
					c-0.5-1-1.9-2.1-3.2-1.6c-0.7,0.2-1.6,0.2-2.2-0.8c-0.9-1.3,0.6-2.8-1.9-2.7c3-1.5,2.1,1.4,3.6,1.8c1.7,0.4,1.9-0.6,2.5-1.3
					c0.5-0.6,1.3-1,2.2-0.4C1748.8,90,1748.1,87.9,1749.3,86.8 M1751.3,95.5c-0.4-2.3,3.5-6.1,1-9.9c4.6,3.7,1,5.9,3.3,9
					c-0.9-0.3-1.8-1.1-2.1-1.5c-1.3,1.7,3.2,4.1,0.2,8C1753.9,98.9,1751.7,97.9,1751.3,95.5 M1746.4,82.8c0.5,0,1.5,0.4,1.1,0.8
					c-1.3,1.2-3,0.7-4.4,1.9C1743.6,84.1,1746.1,83.8,1746.4,82.8 M1746.8,86.1c0.1-1.9,3.8-2.2,1.5-3.3c2.2,0.3,2.7,1.1,2.2,1.7
					c-0.4,0.5-2.5,1.2-3.1,1.9c2.3,0-0.4,1.1-1.1,3.9c-0.3,1.2-3,0.8-3.5,0.2c0.7,0.1,2.8-0.3,3.7-3.2c0-0.1,0-0.1-0.1,0
					c-1.1,1.1-1.8,1.3-2.3,1c-0.5,0.4-0.7,0.7-1.1,1.4c-0.8-0.7-0.4-1.3,0.3-2c0.1-0.1,0-0.2-0.1-0.3c-0.7-0.3-0.8-1.2-0.1-1.6
					c-0.2,0.6,0.5,1,1.1,0.4c0.3-0.3,0.7-0.2,1.2-0.1c0.2,0,0.5,0.1,0.7,0.1l0,0C1746.2,86.3,1746.5,86.2,1746.8,86.1 M1751.7,83.1
					c-0.2-0.6,0.4-2.2,0.8-2c1,0.5,1.6,2.9,1.5,4C1753.3,84.2,1752.8,83.8,1751.7,83.1 M1749.7,80.4c0.1-0.6,0.5-2.2,1.1-3
					c0.5-0.8,1.4-0.8,2.6,0.2c1.3,1,2.2,1.5,3.9,3.7c1.5,0.7,3.7,1.5,5.7,3.9c-0.9-0.6-1.8-0.8-2.6-0.9c1.6,1.4,2.7,3.7,1.9,7.2
					c-0.3-3.2-2.7-4.5-4.1-5.5c0.8,2.7-2.6,1.7-3.6-0.3c0.3,0.1,0.7,0.1,0.9,0c-0.1-4.1-2-6.5-2.9-7.2c-1.1-0.9-1.7,1.3-2.1,2.9
					c-0.1,0.6-0.6,1-1.2,0.9c0.1-0.2,0.3-0.7,0.3-0.9c-1.7,0.1-3.6,1.1-4.8,1.7c-3,1.3-3.7,2-4.4,4.3c-2.4,1-5.1,3.7-6.3,5
					c0.7-1.9,2.4-4.1,5.2-5.7c0.6-1.7,0.4-2.8,7.2-5.4c0.2-1,0.1-2.2,0.4-2.2s1.3,0.4,2,1.5C1749.3,80.5,1749.6,80.4,1749.7,80.4
					 M1730.2,94.7c0,10.7,8.6,19.4,19.3,19.4c10.7,0,19.4-8.6,19.4-19.3s-8.6-19.4-19.3-19.4l0,0C1738.9,75.4,1730.2,84,1730.2,94.7
					 M1749.5,115.8c-11.6,0-21-9.5-21-21.1s9.5-21,21.1-21s21,9.5,21,21.1S1761.2,115.8,1749.5,115.8L1749.5,115.8 M1727.7,94.7
					c0,12.1,9.7,21.9,21.8,21.9c12.1,0,21.9-9.7,21.9-21.8s-9.8-21.9-21.8-21.9l0,0C1737.5,72.9,1727.7,82.7,1727.7,94.7"/>
			</g>
		</g>
	</g>
</g>
<g>
	<path class="st0" d="M2210.4,149.3c-11.8-7-26.1-11.5-43.5-13.5c-20.5-2.5-43-2.5-67.1-0.1l-67.1,7.8c-47.6,5.4-88.1,8.3-120.3,8.2
		c-67-0.1-115.1-12.6-143.2-37.1c23.5,38.4,65.4,57.8,125.8,57.9c25.1,0.1,61.4-4.3,109.5-12.7c48.1-8.4,84-12.8,108-13.3
		c25.1-0.5,46.6,3.1,64,9.6c25.1,9,37.3,24,37.3,44.8c0,20.4-13.4,41.7-40.6,65.1c-25.1,21.3-48.7,33.7-70.7,37.2
		c-11.7,1.5-22.5,0.9-32.7-1.6c17.4-0.5,34.3-5.9,51.2-16.8c-10.2,5.4-21,8.9-32.3,10.4c-16.4,2.5-31.2,0.4-45-6.1
		c-1.5-1-3.6-2-5.1-3.5c9.8-11.4,20.5-23.8,33.4-37.2l38.4-41.2c11.8-11.9,23.1-20.4,33.9-24.8c9.7-4.5,23-7.5,40.9-8.9
		c-5.6-3-11.7-5-18.9-5.5c-37.4-3.1-86,29.7-145,97.7c-4.6-8.5-6.6-17.9-6.6-27.9c0-14.4,4.1-27.8,12.9-39.3
		c9.8-12.9,21.5-19.8,35.9-20.3c12.8-0.5,24.6,3.5,35.8,12c-8.7-11.5-21.5-17.4-37.4-18c-29.2-0.5-49.2,14.8-60,46.2
		c2.6-16.4,10.3-28.8,22.6-38.2c-21,8.4-34.4,32.2-34.4,56.1c0,17.4,6.6,31.8,19.4,43.8l-15.9,20.4l-13.3,17.4c0,0,0-0.1,0.1-0.2
		c-15.4,25.2-57.9,79.6-82.7,94.1c-24.8,14.5-37,21.6-53.2,19.8c10.9,5,30.2,5.5,29.7,5.5c26.6,2.6,57.4-16.8,91.7-58
		c15.4-18.4,30.8-37.7,46.7-59.1l17.5-22.8c12.8,7.5,28.1,12,47.1,12.5c9.2,0.5,18.9-0.5,29.7-2.9c31.7-6.9,59.4-22.8,83.5-47.1
		c28.7-29.3,43.1-54.1,43.1-74.5C2233.3,170.3,2225.8,158.3,2210.4,149.3"/>
	<path class="st0" d="M2199.1,300.4c0,1.4,0.2,1.9,1.1,2.3c2.7,0.9,6.4,1.3,9.6,1.3c5.1,0,6.7-0.5,8.9-2.1c3.8-2.8,7.5-8.6,7.5-19
		c0-17.9-11.8-23-19.3-23.1c-3.1,0-5.4,0.1-6.7,0.5c-0.8,0.3-1.1,0.8-1.1,1.8L2199.1,300.4z M2184.2,290.4c0-19.2,0-22.8-0.2-26.8
		c-0.3-4.3-1.3-6.3-5.4-7.2c-1-0.2-3.1-0.4-4.9-0.4c-1.4,0-2.2-0.3-2.2-1.1c0-0.9,0.9-1.1,2.9-1.1c6.6,0,14.5,0.4,17.2,0.4
		c4.3,0,13.8-0.4,17.8-0.4c7.9,0,16.3,0.7,23.1,5.5c3.6,2.3,8.6,8.7,8.6,17.2c0,9.3-4,17.9-16.7,28.2c11.2,14.1,19.9,25.3,27.3,33.2
		c7,7.3,12.2,8.1,14.1,8.5c1.4,0.3,2.5,0.4,3.6,0.4c1,0,1.4,0.5,1.4,1c0,1-0.9,1.3-2.3,1.3l-12,0c-7.1,0-10.2-0.6-13.5-2.4
		c-5.4-2.8-10.2-8.8-17.3-18.5c-5-6.9-10.8-15.5-12.4-17.4c-0.6-0.8-1.3-0.9-2.2-0.9l-11-0.3c-0.6,0-1,0.3-1,1v1.8
		c0,11.7-0.1,21.6,0.6,26.9c0.4,3.7,1.1,6.5,4.9,7c1.9,0.2,4.7,0.5,6.2,0.5c1.1,0,1.5,0.4,1.5,1c0,1-0.8,1.3-2.5,1.3
		c-7.3,0-16.6-0.3-18.5-0.3c-2.4,0-10.3,0.3-15.4,0.3c-1.6,0-2.5-0.3-2.5-1.3c0-0.5,0.5-1,2.1-1c1.8,0,3.3-0.3,4.4-0.5
		c2.6-0.5,3.2-3.3,3.8-7c0.6-5.3,0.6-15.2,0.6-26.8L2184.2,290.4z"/>
	<path class="st0" d="M2290.2,290.6c0-19.2,0-22.8-0.2-26.8c-0.3-4.3-1.2-6.2-5.5-7.2c-1-0.2-3.1-0.4-4.9-0.4
		c-1.3,0-2.1-0.3-2.1-1.1c0-0.9,0.8-1.1,2.8-1.1c3.4,0,7.1,0.2,10.2,0.2c3.3,0.1,6.2,0.3,8,0.3c4,0,29.1,0.1,31.5-0.1
		c2.4-0.2,4.5-0.5,5.4-0.7c0.7-0.2,1.4-0.6,2.1-0.6c0.6,0,0.7,0.6,0.7,1.2c0,0.8-0.6,2.3-1,8.2c-0.1,1.2-0.4,6.8-0.6,8.3
		c-0.1,0.6-0.4,1.3-1.3,1.3c-0.8,0-1.1-0.6-1.1-1.7c0-0.9-0.2-3-0.8-4.5c-0.8-2.2-2.2-3.7-8.4-4.5c-2.2-0.3-15.5-0.6-18-0.6
		c-0.6,0-0.8,0.4-0.8,1.3l-0.1,31.8c0,0.9,0.2,1.4,0.8,1.4c2.8,0,17.2,0,20.2-0.2c3-0.2,4.9-0.6,6-1.9c0.9-1,1.4-1.7,2-1.7
		c0.5,0,0.9,0.3,0.9,1.1c0,0.7-0.5,2.8-1.1,9.2c-0.1,2.5-0.4,7.6-0.4,8.4c0,1.1,0,2.4-1.2,2.4c-0.8,0-1.1-0.5-1.1-1.1
		c-0.2-1.3-0.2-2.9-0.5-4.6c-0.7-2.5-2.4-4.4-7.1-4.8c-2.4-0.3-14.8-0.4-17.9-0.4c-0.6,0-0.7,0.4-0.7,1.2l0,10
		c0,4.3-0.2,15.9,0,19.6c0.2,8.7,2.2,10.5,15.1,10.6c3.2,0,8.6,0,11.8-1.4c3.3-1.5,4.8-4.2,5.7-9.3c0.3-1.4,0.5-1.9,1.4-1.9
		c1.1,0,1.1,1,1.1,2.3c0,2.8-1.1,11.4-1.7,14c-0.9,3.3-2,3.3-6.9,3.3c-9.4,0-16.4-0.4-21.8-0.5c-5.5-0.2-9.3-0.3-13.2-0.3
		c-1.3,0-4.1,0-7.2,0.1c-2.8,0-6.1,0.2-8.7,0.2c-1.7,0-2.6-0.3-2.6-1.3c0-0.5,0.6-1,2.1-1c1.9,0,3.4-0.3,4.5-0.5
		c2.5-0.5,3.2-3.3,3.7-7c0.6-5.2,0.6-15.2,0.7-26.8L2290.2,290.6z"/>
	<path class="st0" d="M2378.3,254.7c0.4-2.1,1.1-3.3,2.2-3.3c1,0,1.8,0.6,3.4,3.9l34.2,71.2l34.4-71.9c1-2,1.7-3,2.8-3
		c1.2,0,1.9,1.3,2.3,3.9l11.3,77.9c1.1,8,2.4,11.6,6.2,12.7c3.7,1.1,6.2,1.3,7.8,1.3c1.1,0,2,0.2,2,0.9c0,1-1.5,1.4-3.2,1.3
		c-3.2,0-20.6-0.3-25.6-0.7c-2.9-0.3-3.6-0.6-3.6-1.4c0-0.7,0.6-1.1,1.4-1.4c0.8-0.2,1.2-1.9,0.7-5.4l-7.5-55.5h-0.5l-27.6,57.2
		c-2.9,5.9-3.5,7-4.7,7c-1.1,0-2.4-2.5-4.4-6.3c-3.1-5.8-13-25.1-14.5-28.6c-1.2-2.6-8.7-18.5-13-28h-0.5l-6.7,50.1
		c-0.2,2.2-0.4,3.9-0.4,6c0,2.4,1.7,3.5,3.8,4c2.2,0.5,4,0.6,5.3,0.6c1,0,1.9,0.3,1.9,0.9c0,1.1-1.2,1.3-3.1,1.3
		c-5.3,0-11-0.3-13.2-0.3c-2.4,0-8.5,0.3-12.5,0.3c-1.3,0-2.3-0.2-2.3-1.4c0-0.6,0.8-0.9,2-0.9c1,0,1.9,0,3.8-0.4
		c3.5-0.7,4.5-5.6,5.2-9.9L2378.3,254.7z"/>
	<path class="st0" d="M2510.1,291c0-19.2,0-22.8-0.2-26.7c-0.2-4.3-1.5-6.4-4.3-7.1c-1.4-0.4-3-0.5-4.6-0.5c-1.2,0-2-0.3-1.9-1.2
		c0-0.8,0.9-1,3-1c4.8,0,12.8,0.4,16.4,0.4c3.1,0,10.6-0.4,15.3-0.4c1.7,0,2.7,0.2,2.7,1c0,0.9-0.7,1.2-2,1.2
		c-1.3,0-2.3,0.1-3.8,0.4c-3.4,0.6-4.4,2.8-4.6,7.2c-0.3,4-0.3,7.5-0.3,26.8l0,22.1c0,12.2-0.1,22.2,0.4,27.6
		c0.5,3.5,1.3,5.7,5.1,6.2c1.7,0.2,4.5,0.5,6.4,0.5c1.4,0,2,0.4,2,1c0,0.9-1,1.3-2.4,1.3c-8.3,0-16.3-0.4-19.7-0.4
		c-2.8,0-10.9,0.3-15.8,0.3c-1.7,0-2.6-0.3-2.5-1.3c0-0.5,0.5-1,2-1c1.9,0,3.4-0.3,4.5-0.5c2.5-0.5,3.3-2.6,3.6-6.3
		c0.7-5.3,0.7-15.3,0.7-27.5L2510.1,291z"/>
	<path class="st0" d="M2568.1,291.2c0-19.2,0-22.8-0.2-26.8c-0.3-4.3-1.3-6.3-5.4-7.2c-1-0.2-3.1-0.3-4.9-0.3
		c-1.4,0-2.2-0.3-2.2-1.1c0-0.9,0.9-1.1,2.8-1.1c3.3,0,7.1,0.1,10.2,0.1c3.3,0.1,6.2,0.3,7.9,0.3c4,0,29.1,0.1,31.5-0.1
		c2.4-0.2,4.5-0.5,5.4-0.7c0.7-0.2,1.4-0.6,2-0.6c0.6,0,0.8,0.6,0.8,1.2c0,0.8-0.6,2.3-1.1,8.2c-0.1,1.2-0.3,6.8-0.6,8.3
		c-0.1,0.7-0.4,1.4-1.3,1.4c-0.9,0-1.1-0.6-1.1-1.7c0-0.9-0.2-3-0.7-4.5c-0.9-2.3-2.2-3.8-8.4-4.5c-2.2-0.3-15.4-0.6-17.9-0.6
		c-0.6,0-0.9,0.4-0.9,1.3l0,31.8c0,0.9,0.1,1.4,0.9,1.4c2.8,0,17.3,0,20.2-0.2c3-0.2,4.9-0.6,6.1-1.9c0.9-1,1.4-1.7,2-1.7
		c0.5,0,0.9,0.3,0.9,1.1c0,0.7-0.5,2.8-1,9.2c-0.1,2.5-0.5,7.6-0.5,8.4c0,1.1,0,2.4-1.2,2.4c-0.9,0-1.1-0.5-1.1-1.1
		c-0.1-1.3-0.1-2.9-0.5-4.6c-0.6-2.5-2.3-4.4-7-4.9c-2.4-0.3-14.9-0.4-17.9-0.4c-0.6,0-0.7,0.5-0.7,1.2l0,10c0,4.3-0.2,15.9,0,19.5
		c0.2,8.7,2.2,10.5,15.1,10.6c3.3,0,8.6,0,11.8-1.4c3.3-1.5,4.8-4.2,5.7-9.4c0.3-1.4,0.5-1.9,1.4-1.9c1,0,1,1,1,2.2
		c0,2.9-1.1,11.5-1.7,14c-1,3.3-2,3.3-6.8,3.3c-9.4,0-16.4-0.3-21.8-0.5c-5.4-0.3-9.3-0.3-13.1-0.3c-1.4,0-4.2,0-7.2,0.1
		c-3,0-6.1,0.3-8.7,0.2c-1.7,0-2.5-0.3-2.5-1.3c0-0.6,0.5-1,2-1c1.9,0,3.4-0.3,4.5-0.5c2.5-0.5,3.2-3.3,3.7-7
		c0.6-5.2,0.6-15.2,0.7-26.8L2568.1,291.2z"/>
	<path class="st0" d="M2662.5,301.2c0,1.5,0.2,2,1.1,2.3c2.6,0.9,6.4,1.3,9.6,1.3c5,0,6.7-0.5,9-2.1c3.7-2.8,7.4-8.6,7.5-19
		c0-17.9-11.8-23-19.2-23c-3.2,0-5.4,0.1-6.7,0.4c-0.9,0.3-1.1,0.8-1.1,1.8L2662.5,301.2z M2647.6,291.3c0-19.2,0-22.7-0.2-26.8
		c-0.2-4.3-1.3-6.3-5.4-7.2c-1-0.2-3.1-0.4-4.9-0.4c-1.4,0-2.1-0.3-2.1-1.1c0-0.9,0.9-1.2,2.8-1.1c6.7,0,14.6,0.4,17.3,0.4
		c4.3,0,13.8-0.4,17.8-0.4c7.9,0,16.4,0.8,23.2,5.5c3.5,2.3,8.6,8.7,8.5,17.2c0,9.3-3.9,17.9-16.7,28.2
		c11.2,14.1,19.9,25.4,27.3,33.2c7.1,7.3,12.2,8.2,14.1,8.5c1.4,0.3,2.5,0.4,3.5,0.4c1,0,1.5,0.4,1.5,1c0,1.1-0.9,1.3-2.4,1.3l-12,0
		c-7.1,0-10.2-0.7-13.5-2.4c-5.4-2.8-10.2-8.8-17.2-18.5c-5.1-6.9-10.8-15.5-12.5-17.4c-0.6-0.8-1.4-0.9-2.3-0.9l-10.9-0.3
		c-0.7,0-1,0.2-1,1v1.8c0,11.7-0.1,21.6,0.6,26.9c0.4,3.7,1.2,6.5,4.9,7c1.9,0.2,4.6,0.5,6.2,0.5c1,0,1.5,0.5,1.5,1
		c0,0.9-0.9,1.3-2.6,1.3c-7.3,0-16.6-0.4-18.5-0.4c-2.4,0-10.3,0.3-15.3,0.3c-1.7,0-2.6-0.3-2.6-1.3c0-0.6,0.6-1,2.1-1
		c1.9,0,3.4-0.3,4.5-0.5c2.6-0.5,3.2-3.3,3.6-7c0.7-5.2,0.7-15.2,0.7-26.8L2647.6,291.3z"/>
</g>
</svg>
