<?xml version="1.0" encoding="utf-8"?>
<!-- Generator: Adobe Illustrator 26.0.1, SVG Export Plug-In . SVG Version: 6.00 Build 0)  -->
<svg version="1.1" id="Layer_3" xmlns="http://www.w3.org/2000/svg" xmlns:xlink="http://www.w3.org/1999/xlink" x="0px" y="0px"
	 viewBox="0 0 250 250" style="enable-background:new 0 0 250 250;" xml:space="preserve">
<style type="text/css">
	.st0{fill:#4D4D4F;}
	.st1{fill:none;stroke:#BCBEC0;stroke-width:0.5;}
	.st2{fill:#B19E4E;}
	.st3{fill:#999997;}
	.st4{fill:none;stroke:#B19E4E;stroke-width:1.6;}
	.st5{fill:none;stroke:#999997;stroke-width:1.6;}
</style>
<g>
	<path class="st0" d="M10.6,21h1.2c2.1,0,3,1.1,3,2.6s-0.9,2.7-3.1,2.7h-1.2V21z M11.9,25.8c1.5,0,2.3-0.8,2.3-2.2
		c0-1.4-0.8-2.1-2.4-2.1h-0.6v4.3H11.9z"/>
	<path class="st0" d="M15.7,24.4c0-0.9,0.5-2,1.8-2s1.8,1.1,1.8,2s-0.5,2-1.8,2S15.7,25.3,15.7,24.4z M18.7,24.4
		c0-0.8-0.4-1.5-1.2-1.5c-0.8,0-1.1,0.7-1.1,1.5c0,0.8,0.4,1.5,1.2,1.5C18.3,25.9,18.7,25.2,18.7,24.4z"/>
	<path class="st0" d="M20.5,25.4v-2.5h-0.6v-0.5h0.6v-1.1h0.6v1.1h1v0.5h-1v2.4c0,0.4,0.1,0.6,0.4,0.6c0.2,0,0.5-0.1,0.5-0.2
		l0.2,0.4c-0.1,0.1-0.4,0.2-0.8,0.2C20.8,26.4,20.5,26,20.5,25.4z"/>
	<path class="st0" d="M23,25.9c0-0.3,0.2-0.5,0.5-0.5c0.3,0,0.5,0.2,0.5,0.5c0,0.3-0.2,0.5-0.5,0.5C23.2,26.4,23,26.2,23,25.9z"/>
	<path class="st0" d="M24.8,24.4c0-1.3,0.8-2,1.8-2c0.6,0,1,0.2,1.2,0.4l-0.3,0.4c-0.2-0.2-0.5-0.3-0.9-0.3c-0.8,0-1.1,0.7-1.1,1.5
		c0,0.8,0.4,1.5,1.2,1.5c0.5,0,0.8-0.2,0.9-0.3l0.2,0.4c-0.2,0.1-0.5,0.4-1.2,0.4C25.4,26.4,24.8,25.5,24.8,24.4z"/>
	<path class="st0" d="M28.3,24.4c0-0.9,0.5-2,1.8-2s1.8,1.1,1.8,2s-0.5,2-1.8,2S28.3,25.3,28.3,24.4z M31.3,24.4
		c0-0.8-0.4-1.5-1.2-1.5c-0.8,0-1.1,0.7-1.1,1.5c0,0.8,0.4,1.5,1.2,1.5C30.9,25.9,31.3,25.2,31.3,24.4z"/>
	<path class="st0" d="M33,22.5h0.6V23c0.2-0.2,0.5-0.6,1.2-0.6c0.6,0,0.9,0.3,1,0.6c0.3-0.3,0.7-0.6,1.2-0.6c0.8,0,1.1,0.5,1.1,1.2
		v2.7h-0.6v-2.6c0-0.5-0.1-0.8-0.6-0.8c-0.5,0-0.8,0.4-1,0.6v2.8h-0.6v-2.6c0-0.5-0.2-0.8-0.6-0.8c-0.6,0-1,0.6-1,0.7v2.7H33V22.5z"
		/>
	<path class="st0" d="M41.2,26.1v-5.6h0.6v2.2c0.2-0.2,0.6-0.4,1-0.4c1,0,1.7,0.8,1.7,2c0,1.2-0.8,2-1.9,2
		C42,26.4,41.5,26.3,41.2,26.1z M43.8,24.4c0-0.8-0.3-1.5-1.1-1.5c-0.3,0-0.7,0.2-0.8,0.4v2.5c0.2,0.1,0.4,0.1,0.7,0.1
		C43.4,25.9,43.8,25.2,43.8,24.4z"/>
	<path class="st0" d="M45.4,25.2v-2.7H46v2.6c0,0.5,0.2,0.8,0.7,0.8c0.6,0,1-0.6,1.1-0.7v-2.7h0.6v3c0,0.3,0,0.7,0.1,0.8h-0.6
		c0-0.1,0-0.4-0.1-0.6c-0.2,0.2-0.6,0.7-1.2,0.7C45.8,26.4,45.4,25.9,45.4,25.2z"/>
	<path class="st0" d="M49.8,26.1v-5.6h0.6v2.2c0.2-0.2,0.6-0.4,1-0.4c1,0,1.7,0.8,1.7,2c0,1.2-0.8,2-1.9,2
		C50.5,26.4,50,26.3,49.8,26.1z M52.3,24.4c0-0.8-0.3-1.5-1.1-1.5c-0.3,0-0.7,0.2-0.8,0.4v2.5c0.2,0.1,0.4,0.1,0.7,0.1
		C51.9,25.9,52.3,25.2,52.3,24.4z"/>
	<path class="st0" d="M54,26.1v-5.6h0.6v2.2c0.2-0.2,0.6-0.4,1-0.4c1,0,1.7,0.8,1.7,2c0,1.2-0.8,2-1.9,2
		C54.7,26.4,54.3,26.3,54,26.1z M56.6,24.4c0-0.8-0.3-1.5-1.1-1.5c-0.3,0-0.7,0.2-0.8,0.4v2.5c0.2,0.1,0.4,0.1,0.7,0.1
		C56.1,25.9,56.6,25.2,56.6,24.4z"/>
	<path class="st0" d="M58.3,20.6h0.6v5.8h-0.6V20.6z"/>
	<path class="st0" d="M59.9,24.4c0-1.1,0.7-2,1.7-2c1,0,1.5,0.7,1.5,1.7c0,0.1,0,0.2,0,0.3h-2.6c0,0.8,0.3,1.5,1.2,1.5
		c0.5,0,0.9-0.2,1.1-0.3l0.2,0.5c-0.2,0.1-0.6,0.4-1.3,0.4C60.5,26.4,59.9,25.5,59.9,24.4z M62.6,23.9c0-0.5-0.3-1-0.9-1
		c-0.6,0-1,0.4-1.1,1H62.6z"/>
</g>
<g>
	<path class="st0" d="M10.2,43.1l0.3-0.4c0.1,0.1,0.5,0.5,1.2,0.5c0.7,0,1.1-0.4,1.1-0.9c0-0.6-0.6-0.9-1.2-1.2
		c-0.6-0.3-1.2-0.7-1.2-1.5c0-0.9,0.7-1.4,1.6-1.4c0.8,0,1.2,0.3,1.4,0.4L13,39c-0.2-0.1-0.5-0.4-1.1-0.4c-0.5,0-0.9,0.3-0.9,0.8
		c0,0.5,0.4,0.8,1,1c0.7,0.3,1.5,0.7,1.5,1.7c0,0.8-0.7,1.4-1.7,1.4C10.9,43.6,10.4,43.3,10.2,43.1z"/>
	<path class="st0" d="M14,41.6c0-1.1,0.7-2,1.7-2c1,0,1.5,0.7,1.5,1.7c0,0.1,0,0.2,0,0.3h-2.6c0,0.8,0.3,1.5,1.2,1.5
		c0.5,0,0.9-0.2,1.1-0.3l0.2,0.5c-0.2,0.1-0.6,0.4-1.3,0.4C14.6,43.6,14,42.7,14,41.6z M16.7,41.1c0-0.5-0.3-1-0.9-1
		c-0.6,0-1,0.4-1.1,1H16.7z"/>
	<path class="st0" d="M18.1,39.7h0.6v0.4c0.2-0.2,0.6-0.5,1.1-0.5c0.9,0,1.6,0.7,1.6,2c0,1.2-0.7,2-1.7,2c-0.5,0-0.8-0.2-1-0.3v2
		h-0.6V39.7z M20.8,41.6c0-0.9-0.3-1.5-1.1-1.5c-0.5,0-0.9,0.4-1,0.5v2.1c0.2,0.2,0.4,0.4,0.9,0.4C20.4,43.1,20.8,42.5,20.8,41.6z"
		/>
	<path class="st0" d="M22.4,42.6v-2.5h-0.6v-0.5h0.6v-1.1H23v1.1h1v0.5h-1v2.4c0,0.4,0.1,0.6,0.4,0.6c0.2,0,0.5-0.1,0.5-0.2l0.2,0.4
		c-0.1,0.1-0.4,0.2-0.8,0.2C22.7,43.6,22.4,43.2,22.4,42.6z"/>
	<path class="st0" d="M24.5,41.6c0-1.1,0.7-2,1.7-2c1,0,1.5,0.7,1.5,1.7c0,0.1,0,0.2,0,0.3h-2.6c0,0.8,0.3,1.5,1.2,1.5
		c0.5,0,0.9-0.2,1.1-0.3l0.2,0.5c-0.2,0.1-0.6,0.4-1.3,0.4C25.1,43.6,24.5,42.7,24.5,41.6z M27.1,41.1c0-0.5-0.3-1-0.9-1
		c-0.6,0-1,0.4-1.1,1H27.1z"/>
	<path class="st0" d="M28.6,39.7h0.6v0.5c0.2-0.2,0.5-0.6,1.2-0.6c0.6,0,0.9,0.3,1,0.6c0.3-0.3,0.7-0.6,1.2-0.6
		c0.8,0,1.1,0.5,1.1,1.2v2.7H33v-2.6c0-0.5-0.1-0.8-0.6-0.8c-0.5,0-0.8,0.4-1,0.6v2.8h-0.6v-2.6c0-0.5-0.2-0.8-0.6-0.8
		c-0.6,0-1,0.6-1,0.7v2.7h-0.6V39.7z"/>
	<path class="st0" d="M34.7,43.3v-5.6h0.6V40c0.2-0.2,0.6-0.4,1-0.4c1,0,1.7,0.8,1.7,2c0,1.2-0.8,2-1.9,2
		C35.5,43.6,35,43.5,34.7,43.3z M37.3,41.6c0-0.8-0.3-1.5-1.1-1.5c-0.3,0-0.7,0.2-0.8,0.4V43c0.2,0.1,0.4,0.1,0.7,0.1
		C36.9,43.1,37.3,42.4,37.3,41.6z"/>
	<path class="st0" d="M38.4,41.6c0-1.1,0.7-2,1.7-2c1,0,1.5,0.7,1.5,1.7c0,0.1,0,0.2,0,0.3H39c0,0.8,0.3,1.5,1.2,1.5
		c0.5,0,0.9-0.2,1.1-0.3l0.2,0.5c-0.2,0.1-0.6,0.4-1.3,0.4C39,43.6,38.4,42.7,38.4,41.6z M41.1,41.1c0-0.5-0.3-1-0.9-1
		c-0.6,0-1,0.4-1.1,1H41.1z"/>
	<path class="st0" d="M42.5,39.7h0.6v0.6c0.2-0.3,0.5-0.7,1-0.7c0.2,0,0.4,0.1,0.4,0.1l-0.1,0.6c0,0-0.1-0.1-0.3-0.1
		c-0.6,0-0.9,0.7-0.9,0.8v2.6h-0.6V39.7z"/>
</g>
<path class="st0" d="M47.4,38.8l-1,0.3l-0.1-0.5l1.3-0.4H48v5.3h-0.6V38.8z M49.9,38.8l-1,0.3l-0.1-0.5l1.3-0.4h0.5v5.3h-0.6V38.8z"
	/>
<g>
	<path class="st0" d="M53.6,42.6v-2.5H53v-0.5h0.6v-1.1h0.6v1.1h1v0.5h-1v2.4c0,0.4,0.1,0.6,0.4,0.6c0.2,0,0.5-0.1,0.5-0.2l0.2,0.4
		c-0.1,0.1-0.4,0.2-0.8,0.2C54,43.6,53.6,43.2,53.6,42.6z"/>
	<path class="st0" d="M55.7,41.6c0-1.1,0.7-2,1.7-2c1,0,1.5,0.7,1.5,1.7c0,0.1,0,0.2,0,0.3h-2.6c0,0.8,0.3,1.5,1.2,1.5
		c0.5,0,0.9-0.2,1.1-0.3l0.2,0.5c-0.2,0.1-0.6,0.4-1.3,0.4C56.3,43.6,55.7,42.7,55.7,41.6z M58.4,41.1c0-0.5-0.3-1-0.9-1
		c-0.6,0-1,0.4-1.1,1H58.4z"/>
	<path class="st0" d="M59.8,39.7h0.6v0.6c0.2-0.3,0.5-0.7,1-0.7c0.2,0,0.4,0.1,0.4,0.1l-0.1,0.6c0,0-0.1-0.1-0.3-0.1
		c-0.6,0-0.9,0.7-0.9,0.8v2.6h-0.6V39.7z"/>
	<path class="st0" d="M62.4,39.7H63v0.6c0.2-0.3,0.5-0.7,1-0.7c0.2,0,0.4,0.1,0.4,0.1l-0.1,0.6c0,0-0.1-0.1-0.3-0.1
		c-0.6,0-0.9,0.7-0.9,0.8v2.6h-0.6V39.7z"/>
	<path class="st0" d="M64.7,41.6c0-0.9,0.5-2,1.8-2s1.8,1.1,1.8,2s-0.5,2-1.8,2C65.2,43.6,64.7,42.5,64.7,41.6z M67.7,41.6
		c0-0.8-0.4-1.5-1.2-1.5c-0.8,0-1.1,0.7-1.1,1.5s0.4,1.5,1.2,1.5C67.3,43.1,67.7,42.4,67.7,41.6z"/>
	<path class="st0" d="M69.1,39.7h0.6v0.6c0.2-0.3,0.5-0.7,1-0.7c0.2,0,0.4,0.1,0.4,0.1L71,40.2c0,0-0.1-0.1-0.3-0.1
		c-0.6,0-0.9,0.7-0.9,0.8v2.6h-0.6V39.7z"/>
	<path class="st0" d="M71.6,38.5c0-0.2,0.2-0.4,0.4-0.4s0.4,0.2,0.4,0.4S72.3,39,72.1,39S71.6,38.8,71.6,38.5z M71.8,39.7h0.6v3.8
		h-0.6V39.7z"/>
	<path class="st0" d="M73.2,43.3l0.3-0.4c0.1,0.1,0.5,0.3,1,0.3c0.5,0,0.8-0.2,0.8-0.6c0-0.4-0.3-0.5-0.8-0.7
		c-0.6-0.3-1.1-0.5-1.1-1.2c0-0.6,0.4-1.1,1.2-1.1c0.6,0,1,0.3,1.1,0.4l-0.3,0.4c-0.1-0.1-0.4-0.3-0.9-0.3c-0.4,0-0.6,0.2-0.6,0.5
		c0,0.4,0.3,0.5,0.7,0.7c0.6,0.3,1.2,0.5,1.2,1.2c0,0.7-0.5,1.1-1.4,1.1C73.9,43.6,73.5,43.4,73.2,43.3z"/>
	<path class="st0" d="M76.9,42.6v-2.5h-0.6v-0.5h0.6v-1.1h0.6v1.1h1v0.5h-1v2.4c0,0.4,0.1,0.6,0.4,0.6c0.2,0,0.5-0.1,0.5-0.2
		l0.2,0.4c-0.1,0.1-0.4,0.2-0.8,0.2C77.2,43.6,76.9,43.2,76.9,42.6z"/>
	<path class="st0" d="M80.7,42.6c0-1,1.1-1.3,2-1.3h0.2v-0.4c0-0.6-0.2-0.8-0.8-0.8c-0.4,0-0.7,0.1-1,0.4l-0.3-0.4
		c0.4-0.4,0.8-0.5,1.4-0.5c0.8,0,1.3,0.4,1.3,1.3v1.8c0,0.4,0,0.7,0.1,0.9H83c0-0.1,0-0.3-0.1-0.5c-0.3,0.3-0.7,0.6-1.2,0.6
		C81.1,43.6,80.7,43.2,80.7,42.6z M82.9,42.6v-0.9h-0.2c-0.8,0-1.4,0.2-1.4,0.9c0,0.4,0.3,0.5,0.6,0.5
		C82.3,43.1,82.6,42.9,82.9,42.6z"/>
	<path class="st0" d="M84.7,42.6v-2.5h-0.6v-0.5h0.6v-1.1h0.6v1.1h1v0.5h-1v2.4c0,0.4,0.1,0.6,0.4,0.6c0.2,0,0.5-0.1,0.5-0.2
		l0.2,0.4c-0.1,0.1-0.4,0.2-0.8,0.2C85,43.6,84.7,43.2,84.7,42.6z"/>
	<path class="st0" d="M87.3,42.6v-2.5h-0.6v-0.5h0.6v-1.1h0.6v1.1h1v0.5h-1v2.4c0,0.4,0.1,0.6,0.4,0.6c0.2,0,0.5-0.1,0.5-0.2
		l0.2,0.4c-0.1,0.1-0.4,0.2-0.8,0.2C87.7,43.6,87.3,43.2,87.3,42.6z"/>
	<path class="st0" d="M89.6,42.6c0-1,1.1-1.3,2-1.3h0.2v-0.4c0-0.6-0.2-0.8-0.8-0.8c-0.4,0-0.7,0.1-1,0.4l-0.3-0.4
		c0.4-0.4,0.8-0.5,1.4-0.5c0.8,0,1.3,0.4,1.3,1.3v1.8c0,0.4,0,0.7,0.1,0.9h-0.6c0-0.1,0-0.3-0.1-0.5c-0.3,0.3-0.7,0.6-1.2,0.6
		C90,43.6,89.6,43.2,89.6,42.6z M91.8,42.6v-0.9h-0.2c-0.8,0-1.4,0.2-1.4,0.9c0,0.4,0.3,0.5,0.6,0.5C91.2,43.1,91.5,42.9,91.8,42.6z
		"/>
	<path class="st0" d="M93.2,41.6c0-1.3,0.8-2,1.8-2c0.6,0,1,0.2,1.2,0.4l-0.3,0.4c-0.2-0.2-0.5-0.3-0.9-0.3c-0.8,0-1.1,0.7-1.1,1.5
		c0,0.8,0.4,1.5,1.2,1.5c0.5,0,0.8-0.2,0.9-0.3l0.2,0.4c-0.2,0.1-0.5,0.4-1.2,0.4C93.8,43.6,93.2,42.7,93.2,41.6z"/>
	<path class="st0" d="M96.8,37.8h0.6v5.8h-0.6V37.8z M97.5,41.4l1.6-1.7h0.7l-1.6,1.7l1.7,2.1h-0.7L97.5,41.4z"/>
</g>
<path class="st0" d="M10.1,60.2c0.9-0.9,2.5-2.4,2.5-3.6c0-0.7-0.4-1-0.9-1c-0.6,0-0.9,0.3-1.2,0.5l-0.3-0.4
	c0.3-0.4,0.8-0.7,1.5-0.7c0.9,0,1.6,0.5,1.6,1.4c0,1.2-1.3,2.5-2.3,3.5c0,0,0.3,0,0.6,0h1.8v0.5h-3.3V60.2z M14.3,57.9
	c0-1.3,0.5-2.8,2-2.8c1.4,0,2,1.4,2,2.8s-0.6,2.8-2,2.8C14.9,60.6,14.3,59.2,14.3,57.9z M17.7,57.9c0-1.3-0.4-2.3-1.4-2.3
	c-1,0-1.4,1-1.4,2.3s0.4,2.3,1.4,2.3C17.2,60.1,17.7,59.1,17.7,57.9z M19.2,57.9c0-1.3,0.5-2.8,2-2.8c1.4,0,2,1.4,2,2.8
	s-0.6,2.8-2,2.8C19.7,60.6,19.2,59.2,19.2,57.9z M22.5,57.9c0-1.3-0.4-2.3-1.4-2.3c-1,0-1.4,1-1.4,2.3s0.4,2.3,1.4,2.3
	C22.1,60.1,22.5,59.1,22.5,57.9z M23.9,60.2c0.9-0.9,2.5-2.4,2.5-3.6c0-0.7-0.4-1-0.9-1c-0.6,0-0.9,0.3-1.2,0.5L24,55.8
	c0.3-0.4,0.8-0.7,1.5-0.7c0.9,0,1.6,0.5,1.6,1.4c0,1.2-1.3,2.5-2.3,3.5c0,0,0.3,0,0.6,0h1.8v0.5h-3.3V60.2z"/>
<g>
	<path class="st0" d="M30.2,56.7h0.6v0.6c0.2-0.3,0.5-0.7,1-0.7c0.2,0,0.4,0.1,0.4,0.1l-0.1,0.6c0,0-0.1-0.1-0.3-0.1
		c-0.6,0-0.9,0.7-0.9,0.8v2.6h-0.6V56.7z"/>
	<path class="st0" d="M32.7,58.6c0-1.1,0.7-2,1.7-2c1,0,1.5,0.7,1.5,1.7c0,0.1,0,0.2,0,0.3h-2.6c0,0.8,0.3,1.5,1.2,1.5
		c0.5,0,0.9-0.2,1.1-0.3l0.2,0.5c-0.2,0.1-0.6,0.4-1.3,0.4C33.3,60.6,32.7,59.7,32.7,58.6z M35.3,58.1c0-0.5-0.3-1-0.9-1
		c-0.6,0-1,0.4-1.1,1H35.3z"/>
	<path class="st0" d="M36.7,58.6c0-1.3,0.8-2,1.8-2c0.6,0,1,0.2,1.2,0.4l-0.3,0.4c-0.2-0.2-0.5-0.3-0.9-0.3c-0.8,0-1.1,0.7-1.1,1.5
		c0,0.8,0.4,1.5,1.2,1.5c0.5,0,0.8-0.2,0.9-0.3l0.2,0.4c-0.2,0.1-0.5,0.4-1.2,0.4C37.3,60.6,36.7,59.7,36.7,58.6z"/>
	<path class="st0" d="M40.3,58.6c0-1.1,0.7-2,1.7-2c1,0,1.5,0.7,1.5,1.7c0,0.1,0,0.2,0,0.3h-2.6c0,0.8,0.3,1.5,1.2,1.5
		c0.5,0,0.9-0.2,1.1-0.3l0.2,0.5c-0.2,0.1-0.6,0.4-1.3,0.4C40.9,60.6,40.3,59.7,40.3,58.6z M42.9,58.1c0-0.5-0.3-1-0.9-1
		c-0.6,0-1,0.4-1.1,1H42.9z"/>
	<path class="st0" d="M44.3,60.3l0.3-0.4c0.1,0.1,0.5,0.3,1,0.3c0.5,0,0.8-0.2,0.8-0.6c0-0.4-0.3-0.5-0.8-0.7
		c-0.6-0.3-1.1-0.5-1.1-1.2c0-0.6,0.4-1.1,1.2-1.1c0.6,0,1,0.3,1.1,0.4l-0.3,0.4c-0.1-0.1-0.4-0.3-0.9-0.3c-0.4,0-0.6,0.2-0.6,0.5
		c0,0.4,0.3,0.5,0.7,0.7c0.6,0.3,1.2,0.5,1.2,1.2c0,0.7-0.5,1.1-1.4,1.1C45,60.6,44.5,60.4,44.3,60.3z"/>
	<path class="st0" d="M47.6,60.3l0.3-0.4c0.1,0.1,0.5,0.3,1,0.3c0.5,0,0.8-0.2,0.8-0.6c0-0.4-0.3-0.5-0.8-0.7
		c-0.6-0.3-1.1-0.5-1.1-1.2c0-0.6,0.4-1.1,1.2-1.1c0.6,0,1,0.3,1.1,0.4l-0.3,0.4c-0.1-0.1-0.4-0.3-0.9-0.3c-0.4,0-0.6,0.2-0.6,0.5
		c0,0.4,0.3,0.5,0.7,0.7c0.6,0.3,1.2,0.5,1.2,1.2c0,0.7-0.5,1.1-1.4,1.1C48.3,60.6,47.9,60.4,47.6,60.3z"/>
	<path class="st0" d="M51.2,55.5c0-0.2,0.2-0.4,0.4-0.4s0.4,0.2,0.4,0.4S51.9,56,51.7,56S51.2,55.8,51.2,55.5z M51.4,56.7h0.6v3.8
		h-0.6V56.7z"/>
	<path class="st0" d="M53,58.6c0-0.9,0.5-2,1.8-2s1.8,1.1,1.8,2s-0.5,2-1.8,2C53.5,60.6,53,59.5,53,58.6z M56,58.6
		c0-0.8-0.4-1.5-1.2-1.5c-0.8,0-1.1,0.7-1.1,1.5s0.4,1.5,1.2,1.5C55.6,60.1,56,59.4,56,58.6z"/>
	<path class="st0" d="M57.7,56.7h0.6v0.6c0.3-0.4,0.8-0.6,1.2-0.6c0.8,0,1.1,0.5,1.1,1.2v2.7h-0.6v-2.6c0-0.5-0.2-0.8-0.7-0.8
		c-0.4,0-0.8,0.3-1.1,0.7v2.7h-0.6V56.7z"/>
</g>
<g>
	<path class="st0" d="M10.6,139.4H12c1,0,1.7,0.4,1.7,1.3c0,0.6-0.4,1-1,1.2v0c0.7,0.1,1.2,0.6,1.2,1.3c0,1.1-0.8,1.5-2,1.5h-1.4
		V139.4z M12,141.7c0.8,0,1.2-0.3,1.2-0.9c0-0.6-0.4-0.8-1.2-0.8h-0.7v1.8H12z M12,144.2c0.9,0,1.4-0.3,1.4-1c0-0.6-0.3-1-1.3-1
		h-0.8v2H12z"/>
	<path class="st0" d="M15.2,140.9h0.6v0.6c0.2-0.3,0.5-0.7,1-0.7c0.2,0,0.4,0.1,0.4,0.1l-0.1,0.6c0,0-0.1-0.1-0.3-0.1
		c-0.6,0-0.9,0.7-0.9,0.8v2.6h-0.6V140.9z"/>
	<path class="st0" d="M17.6,142.7c0-1.1,0.7-2,1.7-2c1,0,1.5,0.7,1.5,1.7c0,0.1,0,0.2,0,0.3h-2.6c0,0.8,0.3,1.5,1.2,1.5
		c0.5,0,0.9-0.2,1.1-0.3l0.2,0.5c-0.2,0.1-0.6,0.4-1.3,0.4C18.2,144.8,17.6,143.9,17.6,142.7z M20.3,142.3c0-0.5-0.3-1-0.9-1
		c-0.6,0-1,0.4-1.1,1H20.3z"/>
	<path class="st0" d="M22.8,142.7l-1.2-1.8h0.7c0,0,0.9,1.3,0.9,1.4l0.9-1.4h0.6l-1.2,1.8l1.4,2h-0.7l-1.1-1.6l-1,1.6h-0.6
		L22.8,142.7z"/>
	<path class="st0" d="M25.6,139.7c0-0.2,0.2-0.4,0.4-0.4s0.4,0.2,0.4,0.4s-0.2,0.4-0.4,0.4S25.6,139.9,25.6,139.7z M25.8,140.9h0.6
		v3.8h-0.6V140.9z"/>
	<path class="st0" d="M28,143.8v-2.5h-0.6v-0.5H28v-1.1h0.6v1.1h1v0.5h-1v2.4c0,0.4,0.1,0.6,0.4,0.6c0.2,0,0.5-0.1,0.5-0.2l0.2,0.4
		c-0.1,0.1-0.4,0.2-0.8,0.2C28.3,144.8,28,144.4,28,143.8z"/>
</g>
<g>
	<path class="st0" d="M10.6,154.4h2.8v0.5h-2.2v1.7h1.9v0.5h-1.9v2.6h-0.6V154.4z"/>
	<path class="st0" d="M14.3,154.8c0-0.2,0.2-0.4,0.4-0.4s0.4,0.2,0.4,0.4s-0.2,0.4-0.4,0.4S14.3,155,14.3,154.8z M14.5,155.9h0.6
		v3.8h-0.6V155.9z"/>
	<path class="st0" d="M16.5,155.9h0.6v0.6c0.3-0.4,0.8-0.6,1.2-0.6c0.8,0,1.1,0.5,1.1,1.2v2.7h-0.6v-2.6c0-0.5-0.2-0.8-0.7-0.8
		c-0.4,0-0.8,0.3-1.1,0.7v2.7h-0.6V155.9z"/>
	<path class="st0" d="M20.5,158.8c0-1,1.1-1.3,2-1.3h0.2v-0.4c0-0.6-0.2-0.8-0.8-0.8c-0.4,0-0.7,0.1-1,0.4l-0.3-0.4
		c0.4-0.4,0.8-0.5,1.4-0.5c0.8,0,1.3,0.4,1.3,1.3v1.8c0,0.4,0,0.7,0.1,0.9h-0.6c0-0.1,0-0.3-0.1-0.5c-0.3,0.3-0.7,0.6-1.2,0.6
		C21,159.8,20.5,159.4,20.5,158.8z M22.7,158.8v-0.9h-0.2c-0.8,0-1.4,0.2-1.4,0.9c0,0.4,0.3,0.5,0.6,0.5
		C22.1,159.3,22.5,159.1,22.7,158.8z"/>
	<path class="st0" d="M24.7,155.9h0.6v0.6c0.3-0.4,0.8-0.6,1.2-0.6c0.8,0,1.1,0.5,1.1,1.2v2.7h-0.6v-2.6c0-0.5-0.2-0.8-0.7-0.8
		c-0.4,0-0.8,0.3-1.1,0.7v2.7h-0.6V155.9z"/>
	<path class="st0" d="M28.7,157.8c0-1.3,0.8-2,1.8-2c0.6,0,1,0.2,1.2,0.4l-0.3,0.4c-0.2-0.2-0.5-0.3-0.9-0.3c-0.8,0-1.1,0.7-1.1,1.5
		c0,0.8,0.4,1.5,1.2,1.5c0.5,0,0.8-0.2,0.9-0.3l0.2,0.4c-0.2,0.1-0.5,0.4-1.2,0.4C29.3,159.8,28.7,158.9,28.7,157.8z"/>
	<path class="st0" d="M32.5,154.8c0-0.2,0.2-0.4,0.4-0.4s0.4,0.2,0.4,0.4s-0.2,0.4-0.4,0.4S32.5,155,32.5,154.8z M32.6,155.9h0.6
		v3.8h-0.6V155.9z"/>
	<path class="st0" d="M34.4,158.8c0-1,1.1-1.3,2-1.3h0.2v-0.4c0-0.6-0.2-0.8-0.8-0.8c-0.4,0-0.7,0.1-1,0.4l-0.3-0.4
		c0.4-0.4,0.8-0.5,1.4-0.5c0.8,0,1.3,0.4,1.3,1.3v1.8c0,0.4,0,0.7,0.1,0.9h-0.6c0-0.1,0-0.3-0.1-0.5c-0.3,0.3-0.7,0.6-1.2,0.6
		C34.8,159.8,34.4,159.4,34.4,158.8z M36.6,158.8v-0.9h-0.2c-0.8,0-1.4,0.2-1.4,0.9c0,0.4,0.3,0.5,0.6,0.5
		C36,159.3,36.3,159.1,36.6,158.8z"/>
	<path class="st0" d="M38.5,154h0.6v5.8h-0.6V154z"/>
	<path class="st0" d="M42.6,158.8v-2.5h-0.6v-0.5h0.6v-1.1h0.6v1.1h1v0.5h-1v2.4c0,0.4,0.1,0.6,0.4,0.6c0.2,0,0.5-0.1,0.5-0.2
		l0.2,0.4c-0.1,0.1-0.4,0.2-0.8,0.2C42.9,159.8,42.6,159.5,42.6,158.8z"/>
	<path class="st0" d="M45.2,158.6v-2.7h0.6v2.6c0,0.5,0.2,0.8,0.7,0.8c0.6,0,1-0.6,1.1-0.7v-2.7h0.6v3c0,0.3,0,0.7,0.1,0.8h-0.6
		c0-0.1,0-0.4-0.1-0.6c-0.2,0.2-0.6,0.7-1.2,0.7C45.5,159.8,45.2,159.3,45.2,158.6z"/>
	<path class="st0" d="M49.5,155.9h0.6v0.6c0.2-0.3,0.5-0.7,1-0.7c0.2,0,0.4,0.1,0.4,0.1l-0.1,0.6c0,0-0.1-0.1-0.3-0.1
		c-0.6,0-0.9,0.7-0.9,0.8v2.6h-0.6V155.9z"/>
	<path class="st0" d="M52.4,155.9h0.6v0.5c0.2-0.2,0.5-0.6,1.2-0.6c0.6,0,0.9,0.3,1,0.6c0.3-0.3,0.7-0.6,1.2-0.6
		c0.8,0,1.1,0.5,1.1,1.2v2.7h-0.6v-2.6c0-0.5-0.1-0.8-0.6-0.8c-0.5,0-0.8,0.4-1,0.6v2.8h-0.6v-2.6c0-0.5-0.2-0.8-0.6-0.8
		c-0.6,0-1,0.6-1,0.7v2.7h-0.6V155.9z"/>
	<path class="st0" d="M58.5,157.8c0-0.9,0.5-2,1.8-2s1.8,1.1,1.8,2c0,0.9-0.5,2-1.8,2S58.5,158.7,58.5,157.8z M61.4,157.8
		c0-0.8-0.4-1.5-1.2-1.5c-0.8,0-1.1,0.7-1.1,1.5c0,0.8,0.4,1.5,1.2,1.5C61,159.3,61.4,158.7,61.4,157.8z"/>
	<path class="st0" d="M63,154.8c0-0.2,0.2-0.4,0.4-0.4s0.4,0.2,0.4,0.4s-0.2,0.4-0.4,0.4S63,155,63,154.8z M63.1,155.9h0.6v3.8h-0.6
		V155.9z"/>
	<path class="st0" d="M65.2,154h0.6v5.8h-0.6V154z"/>
	<path class="st0" d="M69,154.8c0-0.2,0.2-0.4,0.4-0.4s0.4,0.2,0.4,0.4s-0.2,0.4-0.4,0.4S69,155,69,154.8z M69.1,155.9h0.6v3.8h-0.6
		V155.9z"/>
	<path class="st0" d="M71.1,155.9h0.6v0.6c0.3-0.4,0.8-0.6,1.2-0.6c0.8,0,1.1,0.5,1.1,1.2v2.7h-0.6v-2.6c0-0.5-0.2-0.8-0.7-0.8
		c-0.4,0-0.8,0.3-1.1,0.7v2.7h-0.6V155.9z"/>
	<path class="st0" d="M78.4,155h-1.5v-0.5h3.7v0.5H79v4.8h-0.6V155z"/>
	<path class="st0" d="M80.9,158.6v-2.7h0.6v2.6c0,0.5,0.2,0.8,0.7,0.8c0.6,0,1-0.6,1.1-0.7v-2.7h0.6v3c0,0.3,0,0.7,0.1,0.8h-0.6
		c0-0.1,0-0.4-0.1-0.6c-0.2,0.2-0.6,0.7-1.2,0.7C81.2,159.8,80.9,159.3,80.9,158.6z"/>
	<path class="st0" d="M85.2,155.9h0.6v0.6c0.2-0.3,0.5-0.7,1-0.7c0.2,0,0.4,0.1,0.4,0.1l-0.1,0.6c0,0-0.1-0.1-0.3-0.1
		c-0.6,0-0.9,0.7-0.9,0.8v2.6h-0.6V155.9z"/>
	<path class="st0" d="M88.1,154h0.6v5.8h-0.6V154z M88.7,157.6l1.6-1.7H91l-1.6,1.7l1.7,2.1h-0.7L88.7,157.6z"/>
	<path class="st0" d="M91.5,157.8c0-1.1,0.7-2,1.7-2c1,0,1.5,0.7,1.5,1.7c0,0.1,0,0.2,0,0.3h-2.6c0,0.8,0.3,1.5,1.2,1.5
		c0.5,0,0.9-0.2,1.1-0.3l0.2,0.5c-0.2,0.1-0.6,0.4-1.3,0.4C92.1,159.8,91.5,158.9,91.5,157.8z M94.1,157.4c0-0.5-0.3-1-0.9-1
		c-0.6,0-1,0.4-1.1,1H94.1z"/>
	<path class="st0" d="M95.3,161.6l0.1-0.5c0.1,0,0.1,0,0.3,0c0.5,0,0.8-0.3,1-0.9l0.2-0.5l-1.4-3.8H96l1.1,3.1h0l1.1-3.1h0.6
		l-1.6,4.3c-0.3,0.7-0.6,1.3-1.5,1.3C95.4,161.6,95.3,161.6,95.3,161.6z"/>
</g>
<g>
	<path class="st0" d="M11.5,172.3H10v-0.5h3.7v0.5h-1.5v4.8h-0.6V172.3z"/>
	<path class="st0" d="M14.2,173.3h0.6v0.6c0.2-0.3,0.5-0.7,1-0.7c0.2,0,0.4,0.1,0.4,0.1l-0.1,0.6c0,0-0.1-0.1-0.3-0.1
		c-0.6,0-0.9,0.7-0.9,0.8v2.6h-0.6V173.3z"/>
	<path class="st0" d="M16.7,176.2c0-1,1.1-1.3,2-1.3h0.2v-0.4c0-0.6-0.2-0.8-0.8-0.8c-0.4,0-0.7,0.1-1,0.4l-0.3-0.4
		c0.4-0.4,0.8-0.5,1.4-0.5c0.8,0,1.3,0.4,1.3,1.3v1.8c0,0.4,0,0.7,0.1,0.9H19c0-0.1,0-0.3-0.1-0.5c-0.3,0.3-0.7,0.6-1.2,0.6
		C17.2,177.2,16.7,176.8,16.7,176.2z M18.9,176.1v-0.9h-0.2c-0.8,0-1.4,0.2-1.4,0.9c0,0.4,0.3,0.5,0.6,0.5
		C18.3,176.7,18.7,176.5,18.9,176.1z"/>
	<path class="st0" d="M20.5,175.2c0-1.2,0.7-2,1.7-2c0.4,0,0.7,0.1,1,0.3v-2.2h0.6v5c0,0.3,0,0.6,0.1,0.8h-0.6
		c0-0.1-0.1-0.3-0.1-0.4c-0.3,0.3-0.6,0.5-1.1,0.5C21.2,177.2,20.5,176.5,20.5,175.2z M23.2,176.1V174c-0.2-0.2-0.5-0.4-0.9-0.4
		c-0.7,0-1.1,0.6-1.1,1.5c0,0.9,0.3,1.5,1.1,1.5C22.6,176.7,23,176.5,23.2,176.1z"/>
	<path class="st0" d="M24.8,175.2c0-1.1,0.7-2,1.7-2c1,0,1.5,0.7,1.5,1.7c0,0.1,0,0.2,0,0.3h-2.6c0,0.8,0.3,1.5,1.2,1.5
		c0.5,0,0.9-0.2,1.1-0.3l0.2,0.5c-0.2,0.1-0.6,0.4-1.3,0.4C25.4,177.2,24.8,176.3,24.8,175.2z M27.4,174.7c0-0.5-0.3-1-0.9-1
		c-0.6,0-1,0.4-1.1,1H27.4z"/>
	<path class="st0" d="M30.5,173.3h0.6l0.8,2.9h0l0.9-2.9h0.6l0.9,2.9h0l0.8-2.9h0.6l-1.2,3.8h-0.5l-1-3h0l-1,3h-0.5L30.5,173.3z"/>
	<path class="st0" d="M36.4,176.2c0-1,1.1-1.3,2-1.3h0.2v-0.4c0-0.6-0.2-0.8-0.8-0.8c-0.4,0-0.7,0.1-1,0.4l-0.3-0.4
		c0.4-0.4,0.8-0.5,1.4-0.5c0.8,0,1.3,0.4,1.3,1.3v1.8c0,0.4,0,0.7,0.1,0.9h-0.6c0-0.1,0-0.3-0.1-0.5c-0.3,0.3-0.7,0.6-1.2,0.6
		C36.8,177.2,36.4,176.8,36.4,176.2z M38.6,176.1v-0.9h-0.2c-0.8,0-1.4,0.2-1.4,0.9c0,0.4,0.3,0.5,0.6,0.5
		C38,176.7,38.3,176.5,38.6,176.1z"/>
	<path class="st0" d="M40.5,173.3h0.6v0.6c0.2-0.3,0.5-0.7,1-0.7c0.2,0,0.4,0.1,0.4,0.1l-0.1,0.6c0,0-0.1-0.1-0.3-0.1
		c-0.6,0-0.9,0.7-0.9,0.8v2.6h-0.6V173.3z"/>
	<path class="st0" d="M44.9,176.2c0-1,1.1-1.3,2-1.3h0.2v-0.4c0-0.6-0.2-0.8-0.8-0.8c-0.4,0-0.7,0.1-1,0.4l-0.3-0.4
		c0.4-0.4,0.8-0.5,1.4-0.5c0.8,0,1.3,0.4,1.3,1.3v1.8c0,0.4,0,0.7,0.1,0.9h-0.6c0-0.1,0-0.3-0.1-0.5c-0.3,0.3-0.7,0.6-1.2,0.6
		C45.4,177.2,44.9,176.8,44.9,176.2z M47.2,176.1v-0.9H47c-0.8,0-1.4,0.2-1.4,0.9c0,0.4,0.3,0.5,0.6,0.5
		C46.6,176.7,46.9,176.5,47.2,176.1z"/>
	<path class="st0" d="M49.1,173.3h0.6v0.6c0.3-0.4,0.8-0.6,1.2-0.6c0.8,0,1.1,0.5,1.1,1.2v2.7h-0.6v-2.6c0-0.5-0.2-0.8-0.7-0.8
		c-0.4,0-0.8,0.3-1.1,0.7v2.7h-0.6V173.3z"/>
	<path class="st0" d="M53.1,175.2c0-1.2,0.7-2,1.7-2c0.4,0,0.7,0.1,1,0.3v-2.2h0.6v5c0,0.3,0,0.6,0.1,0.8h-0.6
		c0-0.1-0.1-0.3-0.1-0.4c-0.3,0.3-0.6,0.5-1.1,0.5C53.7,177.2,53.1,176.5,53.1,175.2z M55.8,176.1V174c-0.2-0.2-0.5-0.4-0.9-0.4
		c-0.7,0-1.1,0.6-1.1,1.5c0,0.9,0.3,1.5,1.1,1.5C55.1,176.7,55.5,176.5,55.8,176.1z"/>
	<path class="st0" d="M59.6,173.3h0.6v0.6c0.2-0.3,0.5-0.7,1-0.7c0.2,0,0.4,0.1,0.4,0.1l-0.1,0.6c0,0-0.1-0.1-0.3-0.1
		c-0.6,0-0.9,0.7-0.9,0.8v2.6h-0.6V173.3z"/>
	<path class="st0" d="M62.1,176.2c0-1,1.1-1.3,2-1.3h0.2v-0.4c0-0.6-0.2-0.8-0.8-0.8c-0.4,0-0.7,0.1-1,0.4l-0.3-0.4
		c0.4-0.4,0.8-0.5,1.4-0.5c0.8,0,1.3,0.4,1.3,1.3v1.8c0,0.4,0,0.7,0.1,0.9h-0.6c0-0.1,0-0.3-0.1-0.5c-0.3,0.3-0.7,0.6-1.2,0.6
		C62.6,177.2,62.1,176.8,62.1,176.2z M64.3,176.1v-0.9h-0.2c-0.8,0-1.4,0.2-1.4,0.9c0,0.4,0.3,0.5,0.6,0.5
		C63.7,176.7,64.1,176.5,64.3,176.1z"/>
	<path class="st0" d="M66.4,176.2v-2.5h-0.6v-0.5h0.6v-1.1H67v1.1h1v0.5h-1v2.4c0,0.4,0.1,0.6,0.4,0.6c0.2,0,0.5-0.1,0.5-0.2
		l0.2,0.4c-0.1,0.1-0.4,0.2-0.8,0.2C66.7,177.2,66.4,176.8,66.4,176.2z"/>
	<path class="st0" d="M68.7,175.2c0-1.1,0.7-2,1.7-2c1,0,1.5,0.7,1.5,1.7c0,0.1,0,0.2,0,0.3h-2.6c0,0.8,0.3,1.5,1.2,1.5
		c0.5,0,0.9-0.2,1.1-0.3l0.2,0.5c-0.2,0.1-0.6,0.4-1.3,0.4C69.3,177.2,68.7,176.3,68.7,175.2z M71.3,174.7c0-0.5-0.3-1-0.9-1
		c-0.6,0-1,0.4-1.1,1H71.3z"/>
	<path class="st0" d="M74.9,171.3h0.6v2.5c0.2-0.2,0.6-0.6,1.2-0.6c0.8,0,1.1,0.5,1.1,1.2v2.7h-0.6v-2.6c0-0.5-0.2-0.8-0.7-0.8
		c-0.6,0-1,0.6-1.1,0.7v2.7h-0.6V171.3z"/>
	<path class="st0" d="M79.1,172.1c0-0.2,0.2-0.4,0.4-0.4s0.4,0.2,0.4,0.4s-0.2,0.4-0.4,0.4S79.1,172.3,79.1,172.1z M79.3,173.3h0.6
		v3.8h-0.6V173.3z"/>
	<path class="st0" d="M81.3,171.3h0.6v5.8h-0.6V171.3z M81.9,175l1.6-1.7h0.7l-1.6,1.7l1.7,2.1h-0.7L81.9,175z"/>
	<path class="st0" d="M84.7,175.2c0-1.1,0.7-2,1.7-2c1,0,1.5,0.7,1.5,1.7c0,0.1,0,0.2,0,0.3h-2.6c0,0.8,0.3,1.5,1.2,1.5
		c0.5,0,0.9-0.2,1.1-0.3l0.2,0.5c-0.2,0.1-0.6,0.4-1.3,0.4C85.3,177.2,84.7,176.3,84.7,175.2z M87.3,174.7c0-0.5-0.3-1-0.9-1
		c-0.6,0-1,0.4-1.1,1H87.3z"/>
</g>
<path class="st0" d="M96.4,208.7H98v0.5h-1.6V208.7z M98.4,211.8l0.1-0.5c0.1,0,0.2,0,0.5,0c0.9,0,1.7-0.4,1.7-1.3
	c0-0.9-0.7-1.2-1.6-1.2c-0.2,0-0.4,0-0.4,0l0.2-2.5h2.4v0.5h-1.8l-0.1,1.4c1.3,0,2,0.6,2,1.6c0,1.2-1,1.8-2.4,1.8
	C98.7,211.8,98.5,211.8,98.4,211.8z M101.7,209.1c0-1.3,0.5-2.8,2-2.8c1.4,0,2,1.4,2,2.8s-0.6,2.8-2,2.8
	C102.2,211.8,101.7,210.4,101.7,209.1z M105.1,209.1c0-1.3-0.4-2.3-1.4-2.3c-1,0-1.4,1-1.4,2.3s0.4,2.3,1.4,2.3
	C104.6,211.3,105.1,210.3,105.1,209.1z M106,207.7c0-0.6,0.4-1.3,1.4-1.3c1,0,1.4,0.7,1.4,1.3c0,0.6-0.4,1.3-1.4,1.3
	C106.4,209,106,208.3,106,207.7z M108.2,207.7c0-0.5-0.3-0.9-0.9-0.9s-0.9,0.4-0.9,0.9c0,0.5,0.3,0.9,0.9,0.9
	C107.9,208.6,108.2,208.2,108.2,207.7z M110.5,206.4h0.6l-3.4,5.3h-0.6L110.5,206.4z M109.3,210.4c0-0.6,0.4-1.3,1.4-1.3
	c1,0,1.4,0.7,1.4,1.3c0,0.6-0.4,1.3-1.4,1.3C109.7,211.8,109.3,211,109.3,210.4z M111.6,210.4c0-0.5-0.3-0.9-0.9-0.9
	s-0.9,0.4-0.9,0.9c0,0.5,0.3,0.9,0.9,0.9C111.2,211.3,111.6,211,111.6,210.4z"/>
<path class="st0" d="M129.6,208.7h1.6v0.5h-1.6V208.7z M131.6,211.8l0.1-0.5c0.1,0,0.3,0.1,0.7,0.1c1,0,1.5-0.4,1.5-1.1
	c0-0.8-0.7-1.1-1.7-1.1v-0.4c0.8,0,1.6-0.4,1.6-1.1c0-0.4-0.3-0.7-0.9-0.7c-0.5,0-0.8,0.2-1.1,0.4l-0.3-0.4c0.3-0.2,0.8-0.5,1.4-0.5
	c1,0,1.5,0.5,1.5,1.2c0,0.7-0.6,1.1-1.2,1.3v0c0.7,0.1,1.3,0.6,1.3,1.4c0,1.1-0.9,1.7-2.1,1.7C132,211.8,131.7,211.8,131.6,211.8z
	 M135,209.1c0-1.3,0.5-2.8,2-2.8c1.4,0,2,1.4,2,2.8s-0.6,2.8-2,2.8C135.5,211.8,135,210.4,135,209.1z M138.3,209.1
	c0-1.3-0.4-2.3-1.4-2.3c-1,0-1.4,1-1.4,2.3s0.4,2.3,1.4,2.3C137.9,211.3,138.3,210.3,138.3,209.1z M139.2,207.7
	c0-0.6,0.4-1.3,1.4-1.3c1,0,1.4,0.7,1.4,1.3c0,0.6-0.4,1.3-1.4,1.3C139.6,209,139.2,208.3,139.2,207.7z M141.5,207.7
	c0-0.5-0.3-0.9-0.9-0.9s-0.9,0.4-0.9,0.9c0,0.5,0.3,0.9,0.9,0.9C141.1,208.6,141.5,208.2,141.5,207.7z M143.7,206.4h0.6l-3.4,5.3
	h-0.6L143.7,206.4z M142.6,210.4c0-0.6,0.4-1.3,1.4-1.3c1,0,1.4,0.7,1.4,1.3c0,0.6-0.4,1.3-1.4,1.3C143,211.8,142.6,211,142.6,210.4
	z M144.8,210.4c0-0.5-0.3-0.9-0.9-0.9s-0.9,0.4-0.9,0.9c0,0.5,0.3,0.9,0.9,0.9C144.5,211.3,144.8,211,144.8,210.4z"/>
<path class="st0" d="M163.1,208.7h1.6v0.5h-1.6V208.7z M166.4,206.9l-1,0.3l-0.1-0.5l1.3-0.4h0.5v5.3h-0.6V206.9z M168.1,209.1
	c0-1.3,0.5-2.8,2-2.8c1.4,0,2,1.4,2,2.8s-0.6,2.8-2,2.8C168.6,211.8,168.1,210.4,168.1,209.1z M171.5,209.1c0-1.3-0.4-2.3-1.4-2.3
	c-1,0-1.4,1-1.4,2.3s0.4,2.3,1.4,2.3C171,211.3,171.5,210.3,171.5,209.1z M172.7,207.7c0-0.6,0.4-1.3,1.4-1.3c1,0,1.4,0.7,1.4,1.3
	c0,0.6-0.4,1.3-1.4,1.3C173.1,209,172.7,208.3,172.7,207.7z M174.9,207.7c0-0.5-0.3-0.9-0.9-0.9s-0.9,0.4-0.9,0.9
	c0,0.5,0.3,0.9,0.9,0.9C174.6,208.6,174.9,208.2,174.9,207.7z M177.1,206.4h0.6l-3.4,5.3h-0.6L177.1,206.4z M176,210.4
	c0-0.6,0.4-1.3,1.4-1.3c1,0,1.4,0.7,1.4,1.3c0,0.6-0.4,1.3-1.4,1.3C176.4,211.8,176,211,176,210.4z M178.2,210.4
	c0-0.5-0.3-0.9-0.9-0.9s-0.9,0.4-0.9,0.9c0,0.5,0.3,0.9,0.9,0.9C177.9,211.3,178.2,211,178.2,210.4z"/>
<path class="st0" d="M198.3,206.9l-1,0.3l-0.1-0.5l1.3-0.4h0.5v5.3h-0.6V206.9z M200.2,209.1c0-1.3,0.5-2.8,2-2.8c1.4,0,2,1.4,2,2.8
	s-0.6,2.8-2,2.8C200.8,211.8,200.2,210.4,200.2,209.1z M203.6,209.1c0-1.3-0.4-2.3-1.4-2.3c-1,0-1.4,1-1.4,2.3s0.4,2.3,1.4,2.3
	C203.1,211.3,203.6,210.3,203.6,209.1z M204.9,207.7c0-0.6,0.4-1.3,1.4-1.3c1,0,1.4,0.7,1.4,1.3c0,0.6-0.4,1.3-1.4,1.3
	C205.3,209,204.9,208.3,204.9,207.7z M207.2,207.7c0-0.5-0.3-0.9-0.9-0.9s-0.9,0.4-0.9,0.9c0,0.5,0.3,0.9,0.9,0.9
	C206.8,208.6,207.2,208.2,207.2,207.7z M209.4,206.4h0.6l-3.4,5.3H206L209.4,206.4z M208.3,210.4c0-0.6,0.4-1.3,1.4-1.3
	c1,0,1.4,0.7,1.4,1.3c0,0.6-0.4,1.3-1.4,1.3C208.7,211.8,208.3,211,208.3,210.4z M210.5,210.4c0-0.5-0.3-0.9-0.9-0.9
	s-0.9,0.4-0.9,0.9c0,0.5,0.3,0.9,0.9,0.9C210.2,211.3,210.5,211,210.5,210.4z"/>
<path class="st0" d="M229.9,211.8l0.1-0.5c0.1,0,0.3,0.1,0.7,0.1c1,0,1.5-0.4,1.5-1.1c0-0.8-0.7-1.1-1.7-1.1v-0.4
	c0.8,0,1.6-0.4,1.6-1.1c0-0.4-0.3-0.7-0.9-0.7c-0.5,0-0.8,0.2-1.1,0.4l-0.3-0.4c0.3-0.2,0.8-0.5,1.4-0.5c1,0,1.5,0.5,1.5,1.2
	c0,0.7-0.6,1.1-1.2,1.3v0c0.7,0.1,1.3,0.6,1.3,1.4c0,1.1-0.9,1.7-2.1,1.7C230.2,211.8,230,211.8,229.9,211.8z M233.7,209.1
	c0-1.3,0.5-2.8,2-2.8c1.4,0,2,1.4,2,2.8s-0.6,2.8-2,2.8C234.3,211.8,233.7,210.4,233.7,209.1z M237.1,209.1c0-1.3-0.4-2.3-1.4-2.3
	c-1,0-1.4,1-1.4,2.3s0.4,2.3,1.4,2.3C236.7,211.3,237.1,210.3,237.1,209.1z M238.5,207.7c0-0.6,0.4-1.3,1.4-1.3c1,0,1.4,0.7,1.4,1.3
	c0,0.6-0.4,1.3-1.4,1.3C238.9,209,238.5,208.3,238.5,207.7z M240.7,207.7c0-0.5-0.3-0.9-0.9-0.9s-0.9,0.4-0.9,0.9
	c0,0.5,0.3,0.9,0.9,0.9C240.4,208.6,240.7,208.2,240.7,207.7z M242.9,206.4h0.6l-3.4,5.3h-0.6L242.9,206.4z M241.8,210.4
	c0-0.6,0.4-1.3,1.4-1.3c1,0,1.4,0.7,1.4,1.3c0,0.6-0.4,1.3-1.4,1.3C242.2,211.8,241.8,211,241.8,210.4z M244,210.4
	c0-0.5-0.3-0.9-0.9-0.9s-0.9,0.4-0.9,0.9c0,0.5,0.3,0.9,0.9,0.9C243.7,211.3,244,211,244,210.4z"/>
<line class="st1" x1="187.3" y1="199.2" x2="187.3" y2="17"/>
<line class="st1" x1="104.1" y1="16.3" x2="104.1" y2="201.5"/>
<line class="st1" x1="137.4" y1="16.3" x2="137.4" y2="201.5"/>
<line class="st1" x1="170.8" y1="16.3" x2="170.8" y2="201.5"/>
<line class="st1" x1="204.1" y1="16.3" x2="204.1" y2="201.5"/>
<line class="st1" x1="237.2" y1="16.3" x2="237.2" y2="201.5"/>
<line class="st1" x1="237.1" y1="16.5" x2="103.9" y2="16.5"/>
<line class="st1" x1="237.1" y1="199.1" x2="103.9" y2="199.1"/>
<rect x="167.4" y="19.2" class="st2" width="19.9" height="5.7"/>
<rect x="187.3" y="36.3" class="st2" width="11.8" height="5.7"/>
<rect x="187.3" y="53.5" class="st2" width="8.4" height="5.7"/>
<rect x="187.3" y="102.1" class="st2" width="10.1" height="5.7"/>
<rect x="187.5" y="119.3" class="st2" width="11.7" height="5.7"/>
<rect x="187.5" y="136.4" class="st2" width="11.7" height="5.7"/>
<rect x="187.5" y="152.2" class="st2" width="6.6" height="5.7"/>
<rect x="187.5" y="169.3" class="st2" width="13.4" height="5.7"/>
<rect x="187.5" y="184.9" class="st2" width="46.4" height="5.7"/>
<rect x="187.3" y="86.4" class="st2" width="35.1" height="5.7"/>
<rect x="187.3" y="69.2" class="st2" width="28.3" height="5.7"/>
<rect x="152.2" y="25" class="st3" width="35.1" height="5.7"/>
<rect x="172.4" y="42" class="st3" width="14.8" height="5.7"/>
<rect x="165.7" y="59.1" class="st3" width="21.6" height="5.7"/>
<rect x="174.1" y="92.1" class="st3" width="13.1" height="5.7"/>
<rect x="174.1" y="107.9" class="st3" width="13.1" height="5.7"/>
<rect x="160.6" y="125" class="st3" width="26.7" height="5.7"/>
<rect x="177.5" y="142.1" class="st3" width="9.7" height="5.7"/>
<rect x="165.6" y="157.9" class="st3" width="21.6" height="5.7"/>
<rect x="165.6" y="175" class="st3" width="21.6" height="5.7"/>
<rect x="130.4" y="190.7" class="st3" width="56.9" height="5.7"/>
<rect x="105.5" y="75" class="st3" width="81.8" height="5.7"/>
<g>
	<path class="st0" d="M10.3,189.1c0-1.4,1-2.7,2.6-2.7c0.7,0,1.1,0.2,1.5,0.4l-0.3,0.5c-0.3-0.2-0.7-0.4-1.2-0.4
		c-1.3,0-1.9,1.1-1.9,2.2c0,1.2,0.6,2.3,2,2.3c0.6,0,1-0.2,1.3-0.5l0.3,0.4c-0.3,0.3-0.9,0.5-1.6,0.5
		C11.2,191.9,10.3,190.5,10.3,189.1z"/>
	<path class="st0" d="M15.1,189.1c0-1.5,1-2.8,2.6-2.8s2.6,1.3,2.6,2.8c0,1.5-1,2.8-2.6,2.8S15.1,190.6,15.1,189.1z M19.7,189.1
		c0-1.2-0.7-2.2-2-2.2s-2,1-2,2.2c0,1.2,0.7,2.2,2,2.2C19,191.4,19.7,190.3,19.7,189.1z"/>
	<path class="st0" d="M20.9,186.5h0.7l1.4,3.7c0.2,0.4,0.3,0.8,0.3,0.9h0c0.1-0.2,0.2-0.5,0.3-0.9l1.3-3.7h0.6l-2,5.3h-0.6
		L20.9,186.5z"/>
	<path class="st0" d="M26.6,186.5h0.6v5.3h-0.6V186.5z"/>
	<path class="st0" d="M28.8,186.5h1.2c2.1,0,3,1.1,3,2.6s-0.9,2.7-3.1,2.7h-1.2V186.5z M30.1,191.3c1.5,0,2.3-0.8,2.3-2.2
		c0-1.4-0.8-2.1-2.4-2.1h-0.6v4.3H30.1z"/>
	<path class="st0" d="M34,189.2h1.6v0.5H34V189.2z"/>
</g>
<path class="st0" d="M37.5,187l-1,0.3l-0.1-0.5l1.3-0.4h0.5v5.3h-0.6V187z M39.5,191.4c0.8,0,1.5-0.2,1.9-0.8
	c0.3-0.4,0.5-0.8,0.6-1.5c-0.3,0.3-0.7,0.5-1.2,0.5c-1,0-1.6-0.7-1.6-1.6s0.6-1.7,1.7-1.7c1.3,0,1.8,1.2,1.8,2.3c0,2-1,3.3-3,3.3
	L39.5,191.4z M42.1,188.7v-0.1c0-1.1-0.4-1.8-1.2-1.8c-0.7,0-1,0.6-1,1.2c0,0.8,0.4,1.2,1.1,1.2C41.4,189.2,41.8,189,42.1,188.7z"/>
<g>
	<path class="st0" d="M10.3,74c0-1.4,1-2.7,2.7-2.7c0.7,0,1.2,0.2,1.7,0.5l-0.3,0.5c-0.4-0.3-0.8-0.4-1.4-0.4c-1.4,0-2,1.1-2,2.2
		c0,1.2,0.6,2.3,2,2.3c0.6,0,1-0.1,1.3-0.3v-1.5h-1.1v-0.5h1.8v2.3c-0.4,0.3-1.1,0.6-2,0.6C11.2,76.8,10.3,75.4,10.3,74z"/>
	<path class="st0" d="M16.3,70.9h0.6v5.8h-0.6V70.9z"/>
	<path class="st0" d="M17.9,74.8c0-0.9,0.5-2,1.8-2s1.8,1.1,1.8,2s-0.5,2-1.8,2C18.4,76.8,17.9,75.7,17.9,74.8z M20.9,74.8
		c0-0.8-0.4-1.5-1.2-1.5c-0.8,0-1.1,0.7-1.1,1.5s0.4,1.5,1.2,1.5C20.5,76.3,20.9,75.6,20.9,74.8z"/>
	<path class="st0" d="M22.5,76.5v-5.6h0.6v2.2c0.2-0.2,0.6-0.4,1-0.4c1,0,1.7,0.8,1.7,2c0,1.2-0.8,2-1.9,2
		C23.3,76.8,22.8,76.6,22.5,76.5z M25.1,74.8c0-0.8-0.3-1.5-1.1-1.5c-0.3,0-0.7,0.2-0.8,0.4v2.5c0.2,0.1,0.4,0.1,0.7,0.1
		C24.7,76.3,25.1,75.5,25.1,74.8z"/>
	<path class="st0" d="M26.5,75.8c0-1,1.1-1.3,2-1.3h0.2v-0.4c0-0.6-0.2-0.8-0.8-0.8c-0.4,0-0.7,0.1-1,0.4l-0.3-0.4
		c0.4-0.4,0.8-0.5,1.4-0.5c0.8,0,1.3,0.4,1.3,1.3v1.8c0,0.4,0,0.7,0.1,0.9h-0.6c0-0.1,0-0.3-0.1-0.5c-0.3,0.3-0.7,0.6-1.2,0.6
		C26.9,76.8,26.5,76.4,26.5,75.8z M28.7,75.7v-0.9h-0.2c-0.8,0-1.4,0.2-1.4,0.9c0,0.4,0.3,0.5,0.6,0.5
		C28.1,76.3,28.4,76.1,28.7,75.7z"/>
	<path class="st0" d="M30.6,70.9h0.6v5.8h-0.6V70.9z"/>
	<path class="st0" d="M34.6,71.4h2.8v0.5h-2.2v1.7h1.9v0.5h-1.9v2.6h-0.6V71.4z"/>
	<path class="st0" d="M38.3,71.7c0-0.2,0.2-0.4,0.4-0.4s0.4,0.2,0.4,0.4s-0.2,0.4-0.4,0.4S38.3,71.9,38.3,71.7z M38.5,72.9h0.6v3.8
		h-0.6V72.9z"/>
	<path class="st0" d="M40.5,72.9h0.6v0.6c0.3-0.4,0.8-0.6,1.2-0.6c0.8,0,1.1,0.5,1.1,1.2v2.7h-0.6v-2.6c0-0.5-0.2-0.8-0.7-0.8
		c-0.4,0-0.8,0.3-1.1,0.7v2.7h-0.6V72.9z"/>
	<path class="st0" d="M44.5,75.8c0-1,1.1-1.3,2-1.3h0.2v-0.4c0-0.6-0.2-0.8-0.8-0.8c-0.4,0-0.7,0.1-1,0.4l-0.3-0.4
		c0.4-0.4,0.8-0.5,1.4-0.5c0.8,0,1.3,0.4,1.3,1.3v1.8c0,0.4,0,0.7,0.1,0.9h-0.6c0-0.1,0-0.3-0.1-0.5c-0.3,0.3-0.7,0.6-1.2,0.6
		C45,76.8,44.5,76.4,44.5,75.8z M46.7,75.7v-0.9h-0.2c-0.8,0-1.4,0.2-1.4,0.9c0,0.4,0.3,0.5,0.6,0.5C46.1,76.3,46.5,76.1,46.7,75.7z
		"/>
	<path class="st0" d="M48.7,72.9h0.6v0.6c0.3-0.4,0.8-0.6,1.2-0.6c0.8,0,1.1,0.5,1.1,1.2v2.7h-0.6v-2.6c0-0.5-0.2-0.8-0.7-0.8
		c-0.4,0-0.8,0.3-1.1,0.7v2.7h-0.6V72.9z"/>
	<path class="st0" d="M52.7,74.8c0-1.3,0.8-2,1.8-2c0.6,0,1,0.2,1.2,0.4l-0.3,0.4c-0.2-0.2-0.5-0.3-0.9-0.3c-0.8,0-1.1,0.7-1.1,1.5
		c0,0.8,0.4,1.5,1.2,1.5c0.5,0,0.8-0.2,0.9-0.3l0.2,0.4c-0.2,0.1-0.5,0.4-1.2,0.4C53.3,76.8,52.7,75.8,52.7,74.8z"/>
	<path class="st0" d="M56.5,71.7c0-0.2,0.2-0.4,0.4-0.4s0.4,0.2,0.4,0.4s-0.2,0.4-0.4,0.4S56.5,71.9,56.5,71.7z M56.7,72.9h0.6v3.8
		h-0.6V72.9z"/>
	<path class="st0" d="M58.4,75.8c0-1,1.1-1.3,2-1.3h0.2v-0.4c0-0.6-0.2-0.8-0.8-0.8c-0.4,0-0.7,0.1-1,0.4l-0.3-0.4
		c0.4-0.4,0.8-0.5,1.4-0.5c0.8,0,1.3,0.4,1.3,1.3v1.8c0,0.4,0,0.7,0.1,0.9h-0.6c0-0.1,0-0.3-0.1-0.5c-0.3,0.3-0.7,0.6-1.2,0.6
		C58.8,76.8,58.4,76.4,58.4,75.8z M60.6,75.7v-0.9h-0.2c-0.8,0-1.4,0.2-1.4,0.9c0,0.4,0.3,0.5,0.6,0.5C60,76.3,60.3,76.1,60.6,75.7z
		"/>
	<path class="st0" d="M62.6,70.9h0.6v5.8h-0.6V70.9z"/>
	<path class="st0" d="M66.2,74c0-1.4,1-2.7,2.6-2.7c0.7,0,1.1,0.2,1.5,0.4L70,72.1c-0.3-0.2-0.7-0.4-1.2-0.4c-1.3,0-1.9,1.1-1.9,2.2
		c0,1.2,0.6,2.3,2,2.3c0.6,0,1-0.2,1.3-0.5l0.3,0.4c-0.3,0.3-0.9,0.5-1.6,0.5C67.1,76.8,66.2,75.4,66.2,74z"/>
	<path class="st0" d="M71.4,72.9H72v0.6c0.2-0.3,0.5-0.7,1-0.7c0.2,0,0.4,0.1,0.4,0.1l-0.1,0.6c0,0-0.1-0.1-0.3-0.1
		c-0.6,0-0.9,0.7-0.9,0.8v2.6h-0.6V72.9z"/>
	<path class="st0" d="M74.2,71.7c0-0.2,0.2-0.4,0.4-0.4s0.4,0.2,0.4,0.4s-0.2,0.4-0.4,0.4S74.2,71.9,74.2,71.7z M74.3,72.9h0.6v3.8
		h-0.6V72.9z"/>
	<path class="st0" d="M76,76.4l0.3-0.4c0.1,0.1,0.5,0.3,1,0.3c0.5,0,0.8-0.2,0.8-0.6c0-0.4-0.3-0.5-0.8-0.7
		c-0.6-0.3-1.1-0.5-1.1-1.2c0-0.6,0.4-1.1,1.2-1.1c0.6,0,1,0.3,1.1,0.4l-0.3,0.4c-0.1-0.1-0.4-0.3-0.9-0.3c-0.4,0-0.6,0.2-0.6,0.5
		c0,0.4,0.3,0.5,0.7,0.7c0.6,0.3,1.2,0.5,1.2,1.2c0,0.7-0.5,1.1-1.4,1.1C76.7,76.8,76.3,76.6,76,76.4z"/>
	<path class="st0" d="M79.6,71.7c0-0.2,0.2-0.4,0.4-0.4s0.4,0.2,0.4,0.4s-0.2,0.4-0.4,0.4S79.6,71.9,79.6,71.7z M79.7,72.9h0.6v3.8
		h-0.6V72.9z"/>
	<path class="st0" d="M81.4,76.4l0.3-0.4c0.1,0.1,0.5,0.3,1,0.3c0.5,0,0.8-0.2,0.8-0.6c0-0.4-0.3-0.5-0.8-0.7
		c-0.6-0.3-1.1-0.5-1.1-1.2c0-0.6,0.4-1.1,1.2-1.1c0.6,0,1,0.3,1.1,0.4l-0.3,0.4c-0.1-0.1-0.4-0.3-0.9-0.3c-0.4,0-0.6,0.2-0.6,0.5
		c0,0.4,0.3,0.5,0.7,0.7c0.6,0.3,1.2,0.5,1.2,1.2c0,0.7-0.5,1.1-1.4,1.1C82.1,76.8,81.7,76.6,81.4,76.4z"/>
</g>
<g>
	<path class="st0" d="M10.2,94.1l0.3-0.4c0.1,0.1,0.5,0.5,1.2,0.5c0.7,0,1.1-0.4,1.1-0.9c0-0.6-0.6-0.9-1.2-1.2
		c-0.6-0.3-1.2-0.7-1.2-1.5c0-0.9,0.7-1.4,1.6-1.4c0.8,0,1.2,0.3,1.4,0.4L13,90c-0.2-0.1-0.5-0.4-1.1-0.4c-0.5,0-0.9,0.3-0.9,0.8
		c0,0.5,0.4,0.8,1,1c0.7,0.3,1.5,0.7,1.5,1.7c0,0.8-0.7,1.4-1.7,1.4C10.9,94.6,10.4,94.3,10.2,94.1z"/>
	<path class="st0" d="M14.2,92.6c0-0.9,0.5-2,1.8-2s1.8,1.1,1.8,2s-0.5,2-1.8,2C14.7,94.6,14.2,93.5,14.2,92.6z M17.2,92.6
		c0-0.8-0.4-1.5-1.2-1.5c-0.8,0-1.1,0.7-1.1,1.5s0.4,1.5,1.2,1.5C16.8,94.1,17.2,93.5,17.2,92.6z"/>
	<path class="st0" d="M18.3,90.7h0.6l1.1,3.1h0l1.1-3.1h0.6l-1.4,3.8h-0.5L18.3,90.7z"/>
	<path class="st0" d="M22.2,92.6c0-1.1,0.7-2,1.7-2c1,0,1.5,0.7,1.5,1.7c0,0.1,0,0.2,0,0.3h-2.6c0,0.8,0.3,1.5,1.2,1.5
		c0.5,0,0.9-0.2,1.1-0.3l0.2,0.5c-0.2,0.1-0.6,0.4-1.3,0.4C22.8,94.6,22.2,93.7,22.2,92.6z M24.8,92.1c0-0.5-0.3-1-0.9-1
		c-0.6,0-1,0.4-1.1,1H24.8z"/>
	<path class="st0" d="M26.5,90.7h0.6v0.6c0.2-0.3,0.5-0.7,1-0.7c0.2,0,0.4,0.1,0.4,0.1l-0.1,0.6c0,0-0.1-0.1-0.3-0.1
		c-0.6,0-0.9,0.7-0.9,0.8v2.6h-0.6V90.7z"/>
	<path class="st0" d="M29,92.6c0-1.1,0.7-2,1.7-2c1,0,1.5,0.7,1.5,1.7c0,0.1,0,0.2,0,0.3h-2.6c0,0.8,0.3,1.5,1.2,1.5
		c0.5,0,0.9-0.2,1.1-0.3l0.2,0.5c-0.2,0.1-0.6,0.4-1.3,0.4C29.6,94.6,29,93.7,29,92.6z M31.6,92.1c0-0.5-0.3-1-0.9-1
		c-0.6,0-1,0.4-1.1,1H31.6z"/>
	<path class="st0" d="M33.3,89.6c0-0.2,0.2-0.4,0.4-0.4s0.4,0.2,0.4,0.4S33.9,90,33.7,90S33.3,89.8,33.3,89.6z M33.4,90.7H34v3.8
		h-0.6V90.7z"/>
	<path class="st0" d="M35.1,95.4c0-0.4,0.3-0.8,0.7-1c-0.2-0.1-0.3-0.3-0.3-0.6c0-0.3,0.2-0.5,0.4-0.6c-0.4-0.2-0.7-0.7-0.7-1.2
		c0-0.8,0.6-1.4,1.5-1.4c0.2,0,0.4,0,0.6,0.1h1.2v0.5H38c0.2,0.2,0.3,0.5,0.3,0.8c0,0.8-0.6,1.4-1.5,1.4c-0.2,0-0.3,0-0.4,0
		c-0.2,0.1-0.3,0.2-0.3,0.3c0,0.2,0.2,0.3,0.5,0.3c0.8,0,2,0,2,1.2c0,0.8-0.9,1.3-1.9,1.3C35.8,96.4,35.1,96.1,35.1,95.4z M38,95.2
		c0-0.6-0.5-0.6-1-0.6c-0.2,0-0.5,0-0.7-0.1c-0.4,0.2-0.5,0.5-0.5,0.8c0,0.4,0.3,0.7,1,0.7C37.5,96,38,95.7,38,95.2z M37.6,92
		c0-0.5-0.3-0.9-0.9-0.9c-0.6,0-0.9,0.4-0.9,0.9c0,0.5,0.3,0.9,0.9,0.9C37.3,92.9,37.6,92.6,37.6,92z"/>
	<path class="st0" d="M39.5,90.7h0.6v0.6c0.3-0.4,0.8-0.6,1.2-0.6c0.8,0,1.1,0.5,1.1,1.2v2.7h-0.6v-2.6c0-0.5-0.2-0.8-0.7-0.8
		c-0.4,0-0.8,0.3-1.1,0.7v2.7h-0.6V90.7z"/>
	<path class="st0" d="M45.4,92.6c0-1.2,0.7-2,1.7-2c0.4,0,0.7,0.1,1,0.3v-2.2h0.6v5c0,0.3,0,0.6,0.1,0.8h-0.6c0-0.1-0.1-0.3-0.1-0.4
		c-0.3,0.3-0.6,0.5-1.1,0.5C46.1,94.6,45.4,93.9,45.4,92.6z M48.1,93.6v-2.1c-0.2-0.2-0.5-0.4-0.9-0.4c-0.7,0-1.1,0.6-1.1,1.5
		c0,0.9,0.3,1.5,1.1,1.5C47.4,94.1,47.8,93.9,48.1,93.6z"/>
	<path class="st0" d="M49.7,92.6c0-1.1,0.7-2,1.7-2c1,0,1.5,0.7,1.5,1.7c0,0.1,0,0.2,0,0.3h-2.6c0,0.8,0.3,1.5,1.2,1.5
		c0.5,0,0.9-0.2,1.1-0.3l0.2,0.5c-0.2,0.1-0.6,0.4-1.3,0.4C50.3,94.6,49.7,93.7,49.7,92.6z M52.3,92.1c0-0.5-0.3-1-0.9-1
		c-0.6,0-1,0.4-1.1,1H52.3z"/>
	<path class="st0" d="M54,94.3v-5.6h0.6V91c0.2-0.2,0.6-0.4,1-0.4c1,0,1.7,0.8,1.7,2c0,1.2-0.8,2-1.9,2C54.7,94.6,54.2,94.5,54,94.3
		z M56.5,92.6c0-0.8-0.3-1.5-1.1-1.5c-0.3,0-0.7,0.2-0.8,0.4V94c0.2,0.1,0.4,0.1,0.7,0.1C56.1,94.1,56.5,93.4,56.5,92.6z"/>
	<path class="st0" d="M58.4,93.6v-2.5h-0.6v-0.5h0.6v-1.1H59v1.1h1v0.5h-1v2.4c0,0.4,0.1,0.6,0.4,0.6c0.2,0,0.5-0.1,0.5-0.2l0.2,0.4
		c-0.1,0.1-0.4,0.2-0.8,0.2C58.7,94.6,58.4,94.3,58.4,93.6z"/>
	<path class="st0" d="M62.6,92.6c0-1.3,0.8-2,1.8-2c0.6,0,1,0.2,1.2,0.4l-0.3,0.4c-0.2-0.2-0.5-0.3-0.9-0.3c-0.8,0-1.1,0.7-1.1,1.5
		c0,0.8,0.4,1.5,1.2,1.5c0.5,0,0.8-0.2,0.9-0.3l0.2,0.4c-0.2,0.1-0.5,0.4-1.2,0.4C63.2,94.6,62.6,93.7,62.6,92.6z"/>
	<path class="st0" d="M66.6,90.7h0.6v0.6c0.2-0.3,0.5-0.7,1-0.7c0.2,0,0.4,0.1,0.4,0.1l-0.1,0.6c0,0-0.1-0.1-0.3-0.1
		c-0.6,0-0.9,0.7-0.9,0.8v2.6h-0.6V90.7z"/>
	<path class="st0" d="M69.3,89.6c0-0.2,0.2-0.4,0.4-0.4s0.4,0.2,0.4,0.4S70,90,69.8,90S69.3,89.8,69.3,89.6z M69.5,90.7h0.6v3.8
		h-0.6V90.7z"/>
	<path class="st0" d="M71.2,94.3l0.3-0.4c0.1,0.1,0.5,0.3,1,0.3c0.5,0,0.8-0.2,0.8-0.6c0-0.4-0.3-0.5-0.8-0.7
		c-0.6-0.3-1.1-0.5-1.1-1.2c0-0.6,0.4-1.1,1.2-1.1c0.6,0,1,0.3,1.1,0.4l-0.3,0.4c-0.1-0.1-0.4-0.3-0.9-0.3c-0.4,0-0.6,0.2-0.6,0.5
		c0,0.4,0.3,0.5,0.7,0.7c0.6,0.3,1.2,0.5,1.2,1.2c0,0.7-0.5,1.1-1.4,1.1C71.8,94.6,71.4,94.4,71.2,94.3z"/>
	<path class="st0" d="M74.7,89.6c0-0.2,0.2-0.4,0.4-0.4s0.4,0.2,0.4,0.4S75.4,90,75.2,90S74.7,89.8,74.7,89.6z M74.9,90.7h0.6v3.8
		h-0.6V90.7z"/>
	<path class="st0" d="M76.6,94.3l0.3-0.4c0.1,0.1,0.5,0.3,1,0.3c0.5,0,0.8-0.2,0.8-0.6c0-0.4-0.3-0.5-0.8-0.7
		c-0.6-0.3-1.1-0.5-1.1-1.2c0-0.6,0.4-1.1,1.2-1.1c0.6,0,1,0.3,1.1,0.4l-0.3,0.4c-0.1-0.1-0.4-0.3-0.9-0.3c-0.4,0-0.6,0.2-0.6,0.5
		c0,0.4,0.3,0.5,0.7,0.7c0.6,0.3,1.2,0.5,1.2,1.2c0,0.7-0.5,1.1-1.4,1.1C77.3,94.6,76.8,94.4,76.6,94.3z"/>
	<path class="st0" d="M82.3,89.2h0.6v5.3h-0.6V89.2z"/>
</g>
<g>
	<path class="st0" d="M10.2,110.3l0.3-0.4c0.1,0.1,0.5,0.5,1.2,0.5c0.7,0,1.1-0.4,1.1-0.9c0-0.6-0.6-0.9-1.2-1.2
		c-0.6-0.3-1.2-0.7-1.2-1.5c0-0.9,0.7-1.4,1.6-1.4c0.8,0,1.2,0.3,1.4,0.4l-0.3,0.5c-0.2-0.1-0.5-0.4-1.1-0.4c-0.5,0-0.9,0.3-0.9,0.8
		c0,0.5,0.4,0.8,1,1c0.7,0.3,1.5,0.7,1.5,1.7c0,0.8-0.7,1.4-1.7,1.4C10.9,110.8,10.4,110.4,10.2,110.3z"/>
	<path class="st0" d="M14.2,108.8c0-0.9,0.5-2,1.8-2s1.8,1.1,1.8,2c0,0.9-0.5,2-1.8,2C14.7,110.8,14.2,109.7,14.2,108.8z
		 M17.2,108.8c0-0.8-0.4-1.5-1.2-1.5c-0.8,0-1.1,0.7-1.1,1.5c0,0.8,0.4,1.5,1.2,1.5C16.8,110.3,17.2,109.6,17.2,108.8z"/>
	<path class="st0" d="M18.3,106.9h0.6l1.1,3.1h0l1.1-3.1h0.6l-1.4,3.8h-0.5L18.3,106.9z"/>
	<path class="st0" d="M22.2,108.8c0-1.1,0.7-2,1.7-2c1,0,1.5,0.7,1.5,1.7c0,0.1,0,0.2,0,0.3h-2.6c0,0.8,0.3,1.5,1.2,1.5
		c0.5,0,0.9-0.2,1.1-0.3l0.2,0.5c-0.2,0.1-0.6,0.4-1.3,0.4C22.8,110.8,22.2,109.9,22.2,108.8z M24.8,108.3c0-0.5-0.3-1-0.9-1
		c-0.6,0-1,0.4-1.1,1H24.8z"/>
	<path class="st0" d="M26.5,106.9h0.6v0.6c0.2-0.3,0.5-0.7,1-0.7c0.2,0,0.4,0.1,0.4,0.1l-0.1,0.6c0,0-0.1-0.1-0.3-0.1
		c-0.6,0-0.9,0.7-0.9,0.8v2.6h-0.6V106.9z"/>
	<path class="st0" d="M29,108.8c0-1.1,0.7-2,1.7-2c1,0,1.5,0.7,1.5,1.7c0,0.1,0,0.2,0,0.3h-2.6c0,0.8,0.3,1.5,1.2,1.5
		c0.5,0,0.9-0.2,1.1-0.3l0.2,0.5c-0.2,0.1-0.6,0.4-1.3,0.4C29.6,110.8,29,109.9,29,108.8z M31.6,108.3c0-0.5-0.3-1-0.9-1
		c-0.6,0-1,0.4-1.1,1H31.6z"/>
	<path class="st0" d="M33.3,105.7c0-0.2,0.2-0.4,0.4-0.4s0.4,0.2,0.4,0.4s-0.2,0.4-0.4,0.4S33.3,106,33.3,105.7z M33.4,106.9H34v3.8
		h-0.6V106.9z"/>
	<path class="st0" d="M35.1,111.5c0-0.4,0.3-0.8,0.7-1c-0.2-0.1-0.3-0.3-0.3-0.6c0-0.3,0.2-0.5,0.4-0.6c-0.4-0.2-0.7-0.7-0.7-1.2
		c0-0.8,0.6-1.4,1.5-1.4c0.2,0,0.4,0,0.6,0.1h1.2v0.5H38c0.2,0.2,0.3,0.5,0.3,0.8c0,0.8-0.6,1.4-1.5,1.4c-0.2,0-0.3,0-0.4,0
		c-0.2,0.1-0.3,0.2-0.3,0.3c0,0.2,0.2,0.3,0.5,0.3c0.8,0,2,0,2,1.2c0,0.8-0.9,1.3-1.9,1.3C35.8,112.6,35.1,112.3,35.1,111.5z
		 M38,111.4c0-0.6-0.5-0.6-1-0.6c-0.2,0-0.5,0-0.7-0.1c-0.4,0.2-0.5,0.5-0.5,0.8c0,0.4,0.3,0.7,1,0.7C37.5,112.1,38,111.8,38,111.4z
		 M37.6,108.2c0-0.5-0.3-0.9-0.9-0.9c-0.6,0-0.9,0.4-0.9,0.9s0.3,0.9,0.9,0.9C37.3,109.1,37.6,108.7,37.6,108.2z"/>
	<path class="st0" d="M39.5,106.9h0.6v0.6c0.3-0.4,0.8-0.6,1.2-0.6c0.8,0,1.1,0.5,1.1,1.2v2.7h-0.6v-2.6c0-0.5-0.2-0.8-0.7-0.8
		c-0.4,0-0.8,0.3-1.1,0.7v2.7h-0.6V106.9z"/>
	<path class="st0" d="M45.4,108.8c0-1.2,0.7-2,1.7-2c0.4,0,0.7,0.1,1,0.3v-2.2h0.6v5c0,0.3,0,0.6,0.1,0.8h-0.6
		c0-0.1-0.1-0.3-0.1-0.4c-0.3,0.3-0.6,0.5-1.1,0.5C46.1,110.8,45.4,110.1,45.4,108.8z M48.1,109.7v-2.1c-0.2-0.2-0.5-0.4-0.9-0.4
		c-0.7,0-1.1,0.6-1.1,1.5c0,0.9,0.3,1.5,1.1,1.5C47.4,110.3,47.8,110.1,48.1,109.7z"/>
	<path class="st0" d="M49.7,108.8c0-1.1,0.7-2,1.7-2c1,0,1.5,0.7,1.5,1.7c0,0.1,0,0.2,0,0.3h-2.6c0,0.8,0.3,1.5,1.2,1.5
		c0.5,0,0.9-0.2,1.1-0.3l0.2,0.5c-0.2,0.1-0.6,0.4-1.3,0.4C50.3,110.8,49.7,109.9,49.7,108.8z M52.3,108.3c0-0.5-0.3-1-0.9-1
		c-0.6,0-1,0.4-1.1,1H52.3z"/>
	<path class="st0" d="M54,110.5v-5.6h0.6v2.2c0.2-0.2,0.6-0.4,1-0.4c1,0,1.7,0.8,1.7,2c0,1.2-0.8,2-1.9,2
		C54.7,110.8,54.2,110.7,54,110.5z M56.5,108.8c0-0.8-0.3-1.5-1.1-1.5c-0.3,0-0.7,0.2-0.8,0.4v2.5c0.2,0.1,0.4,0.1,0.7,0.1
		C56.1,110.3,56.5,109.6,56.5,108.8z"/>
	<path class="st0" d="M58.4,109.8v-2.5h-0.6v-0.5h0.6v-1.1H59v1.1h1v0.5h-1v2.4c0,0.4,0.1,0.6,0.4,0.6c0.2,0,0.5-0.1,0.5-0.2
		l0.2,0.4c-0.1,0.1-0.4,0.2-0.8,0.2C58.7,110.8,58.4,110.4,58.4,109.8z"/>
	<path class="st0" d="M62.6,108.8c0-1.3,0.8-2,1.8-2c0.6,0,1,0.2,1.2,0.4l-0.3,0.4c-0.2-0.2-0.5-0.3-0.9-0.3c-0.8,0-1.1,0.7-1.1,1.5
		c0,0.8,0.4,1.5,1.2,1.5c0.5,0,0.8-0.2,0.9-0.3l0.2,0.4c-0.2,0.1-0.5,0.4-1.2,0.4C63.2,110.8,62.6,109.8,62.6,108.8z"/>
	<path class="st0" d="M66.6,106.9h0.6v0.6c0.2-0.3,0.5-0.7,1-0.7c0.2,0,0.4,0.1,0.4,0.1l-0.1,0.6c0,0-0.1-0.1-0.3-0.1
		c-0.6,0-0.9,0.7-0.9,0.8v2.6h-0.6V106.9z"/>
	<path class="st0" d="M69.3,105.7c0-0.2,0.2-0.4,0.4-0.4s0.4,0.2,0.4,0.4s-0.2,0.4-0.4,0.4S69.3,106,69.3,105.7z M69.5,106.9h0.6
		v3.8h-0.6V106.9z"/>
	<path class="st0" d="M71.2,110.4l0.3-0.4c0.1,0.1,0.5,0.3,1,0.3c0.5,0,0.8-0.2,0.8-0.6c0-0.4-0.3-0.5-0.8-0.7
		c-0.6-0.3-1.1-0.5-1.1-1.2c0-0.6,0.4-1.1,1.2-1.1c0.6,0,1,0.3,1.1,0.4l-0.3,0.4c-0.1-0.1-0.4-0.3-0.9-0.3c-0.4,0-0.6,0.2-0.6,0.5
		c0,0.4,0.3,0.5,0.7,0.7c0.6,0.3,1.2,0.5,1.2,1.2c0,0.7-0.5,1.1-1.4,1.1C71.8,110.8,71.4,110.6,71.2,110.4z"/>
	<path class="st0" d="M74.7,105.7c0-0.2,0.2-0.4,0.4-0.4s0.4,0.2,0.4,0.4s-0.2,0.4-0.4,0.4S74.7,106,74.7,105.7z M74.9,106.9h0.6
		v3.8h-0.6V106.9z"/>
	<path class="st0" d="M76.6,110.4l0.3-0.4c0.1,0.1,0.5,0.3,1,0.3c0.5,0,0.8-0.2,0.8-0.6c0-0.4-0.3-0.5-0.8-0.7
		c-0.6-0.3-1.1-0.5-1.1-1.2c0-0.6,0.4-1.1,1.2-1.1c0.6,0,1,0.3,1.1,0.4l-0.3,0.4c-0.1-0.1-0.4-0.3-0.9-0.3c-0.4,0-0.6,0.2-0.6,0.5
		c0,0.4,0.3,0.5,0.7,0.7c0.6,0.3,1.2,0.5,1.2,1.2c0,0.7-0.5,1.1-1.4,1.1C77.3,110.8,76.8,110.6,76.6,110.4z"/>
	<path class="st0" d="M82.3,105.4h0.6v5.3h-0.6V105.4z"/>
	<path class="st0" d="M84.6,105.4h0.6v5.3h-0.6V105.4z"/>
</g>
<g>
	<path class="st0" d="M10.6,122.4h1.2c2.1,0,3,1.1,3,2.6s-0.9,2.7-3.1,2.7h-1.2V122.4z M11.9,127.2c1.5,0,2.3-0.8,2.3-2.2
		c0-1.4-0.8-2.1-2.4-2.1h-0.6v4.3H11.9z"/>
	<path class="st0" d="M15.7,125.8c0-1.1,0.7-2,1.7-2c1,0,1.5,0.7,1.5,1.7c0,0.1,0,0.2,0,0.3h-2.6c0,0.8,0.3,1.5,1.2,1.5
		c0.5,0,0.9-0.2,1.1-0.3l0.2,0.5c-0.2,0.1-0.6,0.4-1.3,0.4C16.3,127.8,15.7,126.9,15.7,125.8z M18.3,125.3c0-0.5-0.3-1-0.9-1
		c-0.6,0-1,0.4-1.1,1H18.3z"/>
	<path class="st0" d="M20,127.5V122h0.6v2.2c0.2-0.2,0.6-0.4,1-0.4c1,0,1.7,0.8,1.7,2c0,1.2-0.8,2-1.9,2
		C20.7,127.8,20.3,127.7,20,127.5z M22.6,125.8c0-0.8-0.3-1.5-1.1-1.5c-0.3,0-0.7,0.2-0.8,0.4v2.5c0.2,0.1,0.4,0.1,0.7,0.1
		C22.1,127.3,22.6,126.6,22.6,125.8z"/>
	<path class="st0" d="M24.4,126.8v-2.5h-0.6v-0.5h0.6v-1.1H25v1.1h1v0.5h-1v2.4c0,0.4,0.1,0.6,0.4,0.6c0.2,0,0.5-0.1,0.5-0.2
		l0.2,0.4c-0.1,0.1-0.4,0.2-0.8,0.2C24.7,127.8,24.4,127.4,24.4,126.8z"/>
	<path class="st0" d="M28.7,125.8c0-1.3,0.8-2,1.8-2c0.6,0,1,0.2,1.2,0.4l-0.3,0.4c-0.2-0.2-0.5-0.3-0.9-0.3c-0.8,0-1.1,0.7-1.1,1.5
		c0,0.8,0.4,1.5,1.2,1.5c0.5,0,0.8-0.2,0.9-0.3l0.2,0.4c-0.2,0.1-0.5,0.4-1.2,0.4C29.3,127.8,28.7,126.8,28.7,125.8z"/>
	<path class="st0" d="M32.3,125.8c0-1.1,0.7-2,1.7-2c1,0,1.5,0.7,1.5,1.7c0,0.1,0,0.2,0,0.3h-2.6c0,0.8,0.3,1.5,1.2,1.5
		c0.5,0,0.9-0.2,1.1-0.3l0.2,0.5c-0.2,0.1-0.6,0.4-1.3,0.4C32.9,127.8,32.3,126.9,32.3,125.8z M34.9,125.3c0-0.5-0.3-1-0.9-1
		c-0.6,0-1,0.4-1.1,1H34.9z"/>
	<path class="st0" d="M36.5,122.7c0-0.2,0.2-0.4,0.4-0.4s0.4,0.2,0.4,0.4s-0.2,0.4-0.4,0.4S36.5,123,36.5,122.7z M36.6,123.9h0.6
		v3.8h-0.6V123.9z"/>
	<path class="st0" d="M38.7,122h0.6v5.8h-0.6V122z"/>
	<path class="st0" d="M40.6,122.7c0-0.2,0.2-0.4,0.4-0.4s0.4,0.2,0.4,0.4s-0.2,0.4-0.4,0.4S40.6,123,40.6,122.7z M40.7,123.9h0.6
		v3.8h-0.6V123.9z"/>
	<path class="st0" d="M42.7,123.9h0.6v0.6c0.3-0.4,0.8-0.6,1.2-0.6c0.8,0,1.1,0.5,1.1,1.2v2.7h-0.6v-2.6c0-0.5-0.2-0.8-0.7-0.8
		c-0.4,0-0.8,0.3-1.1,0.7v2.7h-0.6V123.9z"/>
	<path class="st0" d="M46.8,128.5c0-0.4,0.3-0.8,0.7-1c-0.2-0.1-0.3-0.3-0.3-0.6c0-0.3,0.2-0.5,0.4-0.6c-0.4-0.2-0.7-0.7-0.7-1.2
		c0-0.8,0.6-1.4,1.5-1.4c0.2,0,0.4,0,0.6,0.1h1.2v0.5h-0.6c0.2,0.2,0.3,0.5,0.3,0.8c0,0.8-0.6,1.4-1.5,1.4c-0.2,0-0.3,0-0.4,0
		c-0.2,0.1-0.3,0.2-0.3,0.3c0,0.2,0.2,0.3,0.5,0.3c0.8,0,2,0,2,1.2c0,0.8-0.9,1.3-1.9,1.3C47.5,129.6,46.8,129.3,46.8,128.5z
		 M49.6,128.4c0-0.6-0.5-0.6-1-0.6c-0.2,0-0.5,0-0.7-0.1c-0.4,0.2-0.5,0.5-0.5,0.8c0,0.4,0.3,0.7,1,0.7
		C49.1,129.1,49.6,128.8,49.6,128.4z M49.3,125.2c0-0.5-0.3-0.9-0.9-0.9c-0.6,0-0.9,0.4-0.9,0.9s0.3,0.9,0.9,0.9
		C48.9,126.1,49.3,125.7,49.3,125.2z"/>
	<path class="st0" d="M52.7,125.8c0-1.3,0.8-2,1.8-2c0.6,0,1,0.2,1.2,0.4l-0.3,0.4c-0.2-0.2-0.5-0.3-0.9-0.3c-0.8,0-1.1,0.7-1.1,1.5
		c0,0.8,0.4,1.5,1.2,1.5c0.5,0,0.8-0.2,0.9-0.3l0.2,0.4c-0.2,0.1-0.5,0.4-1.2,0.4C53.3,127.8,52.7,126.8,52.7,125.8z"/>
	<path class="st0" d="M56.7,123.9h0.6v0.6c0.2-0.3,0.5-0.7,1-0.7c0.2,0,0.4,0.1,0.4,0.1l-0.1,0.6c0,0-0.1-0.1-0.3-0.1
		c-0.6,0-0.9,0.7-0.9,0.8v2.6h-0.6V123.9z"/>
	<path class="st0" d="M59.4,122.7c0-0.2,0.2-0.4,0.4-0.4s0.4,0.2,0.4,0.4s-0.2,0.4-0.4,0.4S59.4,123,59.4,122.7z M59.6,123.9h0.6
		v3.8h-0.6V123.9z"/>
	<path class="st0" d="M61.3,127.4l0.3-0.4c0.1,0.1,0.5,0.3,1,0.3c0.5,0,0.8-0.2,0.8-0.6c0-0.4-0.3-0.5-0.8-0.7
		c-0.6-0.3-1.1-0.5-1.1-1.2c0-0.6,0.4-1.1,1.2-1.1c0.6,0,1,0.3,1.1,0.4l-0.3,0.4c-0.1-0.1-0.4-0.3-0.9-0.3c-0.4,0-0.6,0.2-0.6,0.5
		c0,0.4,0.3,0.5,0.7,0.7c0.6,0.3,1.2,0.5,1.2,1.2c0,0.7-0.5,1.1-1.4,1.1C61.9,127.8,61.5,127.6,61.3,127.4z"/>
	<path class="st0" d="M64.8,122.7c0-0.2,0.2-0.4,0.4-0.4s0.4,0.2,0.4,0.4s-0.2,0.4-0.4,0.4S64.8,123,64.8,122.7z M65,123.9h0.6v3.8
		H65V123.9z"/>
	<path class="st0" d="M66.7,127.4l0.3-0.4c0.1,0.1,0.5,0.3,1,0.3c0.5,0,0.8-0.2,0.8-0.6c0-0.4-0.3-0.5-0.8-0.7
		c-0.6-0.3-1.1-0.5-1.1-1.2c0-0.6,0.4-1.1,1.2-1.1c0.6,0,1,0.3,1.1,0.4l-0.3,0.4c-0.1-0.1-0.4-0.3-0.9-0.3c-0.4,0-0.6,0.2-0.6,0.5
		c0,0.4,0.3,0.5,0.7,0.7c0.6,0.3,1.2,0.5,1.2,1.2c0,0.7-0.5,1.1-1.4,1.1C67.3,127.8,66.9,127.6,66.7,127.4z"/>
</g>
<g>
	<path class="st0" d="M8.6,228.8c0-1.4,1-2.7,2.7-2.7c0.7,0,1.2,0.2,1.7,0.5l-0.3,0.5c-0.4-0.3-0.8-0.4-1.4-0.4c-1.4,0-2,1.1-2,2.2
		c0,1.2,0.6,2.3,2,2.3c0.6,0,1-0.1,1.3-0.3v-1.5h-1.1v-0.5h1.8v2.3c-0.4,0.3-1.1,0.6-2,0.6C9.5,231.6,8.6,230.2,8.6,228.8z"/>
	<path class="st0" d="M14,229.6c0-0.9,0.5-2,1.8-2s1.8,1.1,1.8,2c0,0.9-0.5,2-1.8,2S14,230.5,14,229.6z M16.9,229.6
		c0-0.8-0.4-1.5-1.2-1.5s-1.1,0.7-1.1,1.5c0,0.8,0.4,1.5,1.2,1.5C16.6,231.1,16.9,230.4,16.9,229.6z"/>
	<path class="st0" d="M18.4,225.7H19v5.8h-0.6V225.7z"/>
	<path class="st0" d="M19.8,229.6c0-1.2,0.7-2,1.7-2c0.4,0,0.7,0.1,1,0.3v-2.2h0.6v5c0,0.3,0,0.6,0.1,0.8h-0.6
		c0-0.1-0.1-0.3-0.1-0.4c-0.3,0.3-0.6,0.5-1.1,0.5C20.5,231.6,19.8,230.9,19.8,229.6z M22.5,230.5v-2.1c-0.2-0.2-0.5-0.4-0.9-0.4
		c-0.7,0-1.1,0.6-1.1,1.5c0,0.9,0.3,1.5,1.1,1.5C21.9,231.1,22.3,230.9,22.5,230.5z"/>
</g>
<line class="st4" x1="0" y1="229.8" x2="6" y2="229.8"/>
<g>
	<path class="st0" d="M9.2,238.8c0-1.4,1-2.7,2.7-2.7c0.7,0,1.2,0.2,1.7,0.5l-0.3,0.5c-0.4-0.3-0.8-0.4-1.4-0.4c-1.4,0-2,1.1-2,2.2
		c0,1.2,0.6,2.3,2,2.3c0.6,0,1-0.1,1.3-0.3v-1.5H12v-0.5h1.8v2.3c-0.4,0.3-1.1,0.6-2,0.6C10.1,241.6,9.2,240.2,9.2,238.8z"/>
	<path class="st0" d="M14.9,235.7h0.6v5.8h-0.6V235.7z"/>
	<path class="st0" d="M16.3,239.6c0-0.9,0.5-2,1.8-2s1.8,1.1,1.8,2c0,0.9-0.5,2-1.8,2C16.8,241.6,16.3,240.5,16.3,239.6z
		 M19.3,239.6c0-0.8-0.4-1.5-1.2-1.5s-1.1,0.7-1.1,1.5c0,0.8,0.4,1.5,1.2,1.5C18.9,241.1,19.3,240.4,19.3,239.6z"/>
	<path class="st0" d="M20.7,241.3v-5.6h0.6v2.2c0.2-0.2,0.6-0.4,1-0.4c1,0,1.7,0.8,1.7,2c0,1.2-0.8,2-1.9,2
		C21.4,241.6,21,241.4,20.7,241.3z M23.3,239.6c0-0.8-0.3-1.5-1.1-1.5c-0.3,0-0.7,0.2-0.8,0.4v2.5c0.2,0.1,0.4,0.1,0.7,0.1
		C22.8,241.1,23.3,240.3,23.3,239.6z"/>
	<path class="st0" d="M24.4,240.5c0-1,1.1-1.3,2-1.3h0.2v-0.4c0-0.6-0.2-0.8-0.8-0.8c-0.4,0-0.7,0.1-1,0.4l-0.3-0.4
		c0.4-0.4,0.8-0.5,1.4-0.5c0.8,0,1.3,0.4,1.3,1.3v1.8c0,0.4,0,0.7,0.1,0.9h-0.6c0-0.1,0-0.3-0.1-0.5c-0.3,0.3-0.7,0.6-1.2,0.6
		C24.9,241.6,24.4,241.2,24.4,240.5z M26.6,240.5v-0.9h-0.2c-0.8,0-1.4,0.2-1.4,0.9c0,0.4,0.3,0.5,0.6,0.5
		C26,241.1,26.4,240.8,26.6,240.5z"/>
	<path class="st0" d="M28.4,235.7h0.6v5.8h-0.6V235.7z"/>
	<path class="st0" d="M31.9,236.2h2.7v0.5h-2.1v1.7h1.9v0.5h-1.9v2h2.2v0.5h-2.8V236.2z"/>
	<path class="st0" d="M37.9,241.2c-0.2,0.2-0.5,0.4-1,0.4c-1,0-1.7-0.8-1.7-2c0-1.2,0.8-2,1.9-2c0.8,0,1.2,0.2,1.3,0.3v5.4h-0.6
		V241.2z M37.9,240.7v-2.5c-0.1,0-0.3-0.1-0.7-0.1c-0.9,0-1.3,0.7-1.3,1.5c0,0.8,0.3,1.5,1.1,1.5C37.5,241,37.8,240.7,37.9,240.7z"
		/>
	<path class="st0" d="M39.5,240.4v-2.7h0.6v2.6c0,0.5,0.2,0.8,0.7,0.8c0.6,0,1-0.6,1.1-0.7v-2.7h0.6v3c0,0.3,0,0.7,0.1,0.8h-0.6
		c0-0.1,0-0.4-0.1-0.6c-0.2,0.2-0.6,0.7-1.2,0.7C39.8,241.6,39.5,241,39.5,240.4z"/>
	<path class="st0" d="M43.5,236.5c0-0.2,0.2-0.4,0.4-0.4c0.2,0,0.4,0.2,0.4,0.4c0,0.2-0.2,0.4-0.4,0.4
		C43.7,236.9,43.5,236.7,43.5,236.5z M43.7,237.6h0.6v3.8h-0.6V237.6z"/>
	<path class="st0" d="M45.6,240.6v-2.5H45v-0.5h0.6v-1.1h0.6v1.1h1v0.5h-1v2.4c0,0.4,0.1,0.6,0.4,0.6c0.2,0,0.5-0.1,0.5-0.2l0.2,0.4
		c-0.1,0.1-0.4,0.2-0.8,0.2C45.9,241.6,45.6,241.2,45.6,240.6z"/>
	<path class="st0" d="M48,236.5c0-0.2,0.2-0.4,0.4-0.4c0.2,0,0.4,0.2,0.4,0.4c0,0.2-0.2,0.4-0.4,0.4C48.2,236.9,48,236.7,48,236.5z
		 M48.1,237.6h0.6v3.8h-0.6V237.6z"/>
	<path class="st0" d="M49.6,239.5c0-1.1,0.7-2,1.7-2c1,0,1.5,0.7,1.5,1.7c0,0.1,0,0.2,0,0.3h-2.6c0,0.8,0.3,1.5,1.2,1.5
		c0.5,0,0.9-0.2,1.1-0.3l0.2,0.5c-0.2,0.1-0.6,0.4-1.3,0.4C50.2,241.6,49.6,240.7,49.6,239.5z M52.2,239.1c0-0.5-0.3-1-0.9-1
		c-0.6,0-1,0.4-1.1,1H52.2z"/>
	<path class="st0" d="M53.4,241.2l0.3-0.4c0.1,0.1,0.5,0.3,1,0.3c0.5,0,0.8-0.2,0.8-0.6s-0.3-0.5-0.8-0.7c-0.6-0.3-1.1-0.5-1.1-1.2
		c0-0.6,0.4-1.1,1.2-1.1c0.6,0,1,0.3,1.1,0.4l-0.3,0.4c-0.1-0.1-0.4-0.3-0.9-0.3c-0.4,0-0.6,0.2-0.6,0.5c0,0.4,0.3,0.5,0.7,0.7
		c0.6,0.3,1.2,0.5,1.2,1.2c0,0.7-0.5,1.1-1.4,1.1C54,241.6,53.6,241.4,53.4,241.2z"/>
</g>
<line class="st5" x1="0" y1="239.1" x2="6" y2="239.1"/>
</svg>
