<?xml version="1.0" encoding="utf-8"?>
<!-- Generator: Adobe Illustrator 26.0.1, SVG Export Plug-In . SVG Version: 6.00 Build 0)  -->
<svg version="1.1" id="Layer_3" xmlns="http://www.w3.org/2000/svg" xmlns:xlink="http://www.w3.org/1999/xlink" x="0px" y="0px"
	 viewBox="0 0 250 250" style="enable-background:new 0 0 250 250;" xml:space="preserve">
<style type="text/css">
	.st0{fill:#4D4D4F;}
	.st1{fill:none;stroke:#BCBEC0;stroke-width:0.5;}
	.st2{fill:none;stroke:#B19E4E;stroke-linecap:round;stroke-linejoin:round;stroke-miterlimit:10;}
</style>
<g>
	<path class="st0" d="M18.6,152.5c-1.4,0-2.7-1-2.7-2.7c0-0.7,0.2-1.2,0.5-1.7l0.5,0.3c-0.3,0.4-0.4,0.8-0.4,1.4c0,1.4,1.1,2,2.2,2
		c1.2,0,2.3-0.6,2.3-2c0-0.6-0.1-1-0.3-1.3H19v1.1h-0.5v-1.8h2.3c0.3,0.4,0.6,1.1,0.6,2C21.4,151.5,20,152.5,18.6,152.5z"/>
	<path class="st0" d="M19.4,146.9c-0.9,0-2-0.5-2-1.8s1.1-1.8,2-1.8s2,0.5,2,1.8C21.4,146.4,20.3,146.9,19.4,146.9z M19.4,143.9
		c-0.8,0-1.5,0.4-1.5,1.2s0.7,1.1,1.5,1.1c0.8,0,1.5-0.4,1.5-1.2C20.9,144.3,20.2,143.9,19.4,143.9z"/>
	<path class="st0" d="M15.5,142.2v-0.6h5.8v0.6H15.5z"/>
	<path class="st0" d="M19.4,140.5c-1.2,0-2-0.7-2-1.7c0-0.4,0.1-0.7,0.3-1h-2.2v-0.6h5c0.3,0,0.6,0,0.8-0.1v0.6
		c-0.1,0-0.3,0.1-0.4,0.1c0.3,0.3,0.5,0.6,0.5,1.1C21.4,139.9,20.7,140.5,19.4,140.5z M20.3,137.9h-2.1c-0.2,0.2-0.4,0.5-0.4,0.9
		c0,0.7,0.6,1.1,1.5,1.1c0.9,0,1.5-0.3,1.5-1.1C20.9,138.5,20.7,138.1,20.3,137.9z"/>
	<path class="st0" d="M17.5,134.1v-0.6h0.4c-0.2-0.2-0.5-0.6-0.5-1.1c0-0.9,0.7-1.6,2-1.6c1.2,0,2,0.7,2,1.7c0,0.5-0.2,0.8-0.3,1h2
		v0.6H17.5z M19.4,131.4c-0.9,0-1.5,0.3-1.5,1.1c0,0.5,0.4,0.9,0.5,1h2.1c0.2-0.2,0.4-0.4,0.4-0.9C20.9,131.8,20.3,131.4,19.4,131.4
		z"/>
	<path class="st0" d="M17.5,129.8v-0.6h0.6c-0.3-0.2-0.7-0.5-0.7-1c0-0.2,0.1-0.4,0.1-0.4l0.6,0.1c0,0-0.1,0.1-0.1,0.3
		c0,0.6,0.7,0.9,0.8,0.9h2.6v0.6H17.5z"/>
	<path class="st0" d="M16.3,127c-0.2,0-0.4-0.2-0.4-0.4s0.2-0.4,0.4-0.4s0.4,0.2,0.4,0.4S16.6,127,16.3,127z M17.5,126.9v-0.6h3.8
		v0.6H17.5z"/>
	<path class="st0" d="M19.4,125.2c-1.3,0-2-0.8-2-1.8c0-0.6,0.2-1,0.4-1.2l0.4,0.3c-0.2,0.2-0.3,0.5-0.3,0.9c0,0.8,0.7,1.1,1.5,1.1
		c0.8,0,1.5-0.4,1.5-1.2c0-0.5-0.2-0.8-0.3-0.9l0.4-0.2c0.1,0.2,0.4,0.5,0.4,1.2C21.4,124.6,20.4,125.2,19.4,125.2z"/>
	<path class="st0" d="M19.4,121.6c-1.1,0-2-0.7-2-1.7c0-1,0.7-1.5,1.7-1.5c0.1,0,0.2,0,0.3,0v2.6c0.8,0,1.5-0.3,1.5-1.2
		c0-0.5-0.2-0.9-0.3-1.1l0.5-0.2c0.1,0.2,0.4,0.6,0.4,1.3C21.4,121,20.5,121.6,19.4,121.6z M18.9,118.9c-0.5,0-1,0.3-1,0.9
		c0,0.6,0.4,1,1,1.1V118.9z"/>
	<path class="st0" d="M21.6,117.1c-0.3,0-0.3,0.4-0.7,0.4c-0.2,0-0.4-0.2-0.4-0.4c0-0.3,0.2-0.5,0.6-0.5c0.4,0,0.9,0.2,1.4,0.5v0.4
		C22.1,117.3,21.8,117.1,21.6,117.1z"/>
	<path class="st0" d="M19.3,113.5H16v-0.6h3.3c1.1,0,1.6-0.5,1.6-1.5c0-1-0.6-1.4-1.5-1.4H16v-0.6h3.3c1.3,0,2.1,0.6,2.1,2
		C21.4,112.9,20.6,113.5,19.3,113.5z"/>
	<path class="st0" d="M20.9,108.3l-0.4-0.3c0.1-0.1,0.5-0.5,0.5-1.2c0-0.7-0.4-1.1-0.9-1.1c-0.6,0-0.9,0.6-1.2,1.2
		c-0.3,0.6-0.7,1.2-1.5,1.2c-0.9,0-1.4-0.7-1.4-1.6c0-0.8,0.3-1.2,0.4-1.4l0.5,0.3c-0.1,0.2-0.4,0.5-0.4,1.1c0,0.5,0.3,0.9,0.8,0.9
		c0.5,0,0.8-0.4,1-1c0.3-0.7,0.7-1.5,1.7-1.5c0.8,0,1.4,0.7,1.4,1.7C21.4,107.6,21,108.1,20.9,108.3z"/>
	<path class="st0" d="M16,103.9v-1.2c0-2.1,1.1-3,2.6-3s2.7,0.9,2.7,3.1v1.2H16z M20.8,102.6c0-1.5-0.8-2.3-2.2-2.3
		c-1.4,0-2.1,0.8-2.1,2.4v0.6h4.3V102.6z"/>
	<path class="st0" d="M17.5,96.6V96h0.4c-0.2-0.2-0.5-0.6-0.5-1.1c0-0.9,0.7-1.6,2-1.6c1.2,0,2,0.7,2,1.7c0,0.5-0.2,0.8-0.3,1h2v0.6
		H17.5z M19.4,93.9c-0.9,0-1.5,0.3-1.5,1.1c0,0.5,0.4,0.9,0.5,1h2.1c0.2-0.2,0.4-0.4,0.4-0.9C20.9,94.3,20.3,93.9,19.4,93.9z"/>
	<path class="st0" d="M19.4,92.6c-1.1,0-2-0.7-2-1.7c0-1,0.7-1.5,1.7-1.5c0.1,0,0.2,0,0.3,0V92c0.8,0,1.5-0.3,1.5-1.2
		c0-0.5-0.2-0.9-0.3-1.1l0.5-0.2c0.1,0.2,0.4,0.6,0.4,1.3C21.4,92,20.5,92.6,19.4,92.6z M18.9,90c-0.5,0-1,0.3-1,0.9
		c0,0.6,0.4,1,1,1.1V90z"/>
	<path class="st0" d="M17.5,88.3v-0.6h0.6c-0.3-0.2-0.7-0.5-0.7-1c0-0.2,0.1-0.4,0.1-0.4l0.6,0.1c0,0-0.1,0.1-0.1,0.3
		c0,0.6,0.7,0.9,0.8,0.9h2.6v0.6H17.5z"/>
	<path class="st0" d="M19.4,83.9c-0.9,0-2-0.5-2-1.8s1.1-1.8,2-1.8s2,0.5,2,1.8C21.4,83.4,20.3,83.9,19.4,83.9z M19.4,80.9
		c-0.8,0-1.5,0.4-1.5,1.2s0.7,1.1,1.5,1.1c0.8,0,1.5-0.4,1.5-1.2C20.9,81.3,20.2,80.9,19.4,80.9z"/>
	<path class="st0" d="M20.2,79.3h-2.7v-0.6h2.6c0.5,0,0.8-0.2,0.8-0.7c0-0.6-0.6-1-0.7-1.1h-2.7v-0.6h3c0.3,0,0.7,0,0.8-0.1v0.6
		c-0.1,0-0.4,0-0.6,0.1c0.2,0.2,0.7,0.6,0.7,1.2C21.4,79,20.9,79.3,20.2,79.3z"/>
	<path class="st0" d="M17.5,74.9v-0.6H18c-0.4-0.3-0.6-0.8-0.6-1.2c0-0.8,0.5-1.1,1.2-1.1h2.7v0.6h-2.6c-0.5,0-0.8,0.2-0.8,0.7
		c0,0.4,0.3,0.8,0.7,1.1h2.7v0.6H17.5z"/>
	<path class="st0" d="M19.4,71c-1.3,0-2-0.8-2-1.8c0-0.6,0.2-1,0.4-1.2l0.4,0.3c-0.2,0.2-0.3,0.5-0.3,0.9c0,0.8,0.7,1.1,1.5,1.1
		c0.8,0,1.5-0.4,1.5-1.2c0-0.5-0.2-0.8-0.3-0.9L21,68c0.1,0.2,0.4,0.5,0.4,1.2C21.4,70.4,20.4,71,19.4,71z"/>
	<path class="st0" d="M19.4,67.4c-1.1,0-2-0.7-2-1.7c0-1,0.7-1.5,1.7-1.5c0.1,0,0.2,0,0.3,0v2.6c0.8,0,1.5-0.3,1.5-1.2
		c0-0.5-0.2-0.9-0.3-1.1l0.5-0.2c0.1,0.2,0.4,0.6,0.4,1.3C21.4,66.8,20.5,67.4,19.4,67.4z M18.9,64.7c-0.5,0-1,0.3-1,0.9
		c0,0.6,0.4,1,1,1.1V64.7z"/>
</g>
<line class="st1" x1="50.6" y1="16.9" x2="234.5" y2="16.9"/>
<line class="st1" x1="50.6" y1="64.3" x2="234.5" y2="64.3"/>
<line class="st1" x1="50.6" y1="113.8" x2="234.5" y2="113.8"/>
<line class="st1" x1="50.6" y1="162" x2="234.5" y2="162"/>
<line class="st1" x1="50.6" y1="209.8" x2="234.5" y2="209.8"/>
<path class="st0" d="M28.8,20.4c0.9-0.9,2.5-2.4,2.5-3.6c0-0.7-0.4-1-0.9-1c-0.6,0-0.9,0.3-1.2,0.5L28.9,16c0.3-0.4,0.8-0.7,1.5-0.7
	c0.9,0,1.6,0.5,1.6,1.4c0,1.2-1.3,2.5-2.3,3.5c0,0,0.3,0,0.6,0h1.8v0.5h-3.3V20.4z M33.4,21c0-0.3-0.4-0.3-0.4-0.7
	c0-0.2,0.2-0.4,0.4-0.4c0.3,0,0.5,0.2,0.5,0.6c0,0.4-0.2,0.9-0.5,1.4H33C33.2,21.5,33.4,21.2,33.4,21z M34.8,18.1
	c0-1.3,0.5-2.8,2-2.8c1.4,0,2,1.4,2,2.8s-0.6,2.8-2,2.8C35.4,20.8,34.8,19.4,34.8,18.1z M38.2,18.1c0-1.3-0.4-2.3-1.4-2.3
	c-1,0-1.4,1-1.4,2.3s0.4,2.3,1.4,2.3C37.8,20.3,38.2,19.3,38.2,18.1z M39.7,18.1c0-1.3,0.5-2.8,2-2.8c1.4,0,2,1.4,2,2.8
	s-0.6,2.8-2,2.8C40.2,20.8,39.7,19.4,39.7,18.1z M43.1,18.1c0-1.3-0.4-2.3-1.4-2.3c-1,0-1.4,1-1.4,2.3s0.4,2.3,1.4,2.3
	C42.6,20.3,43.1,19.3,43.1,18.1z M44.5,18.1c0-1.3,0.5-2.8,2-2.8c1.4,0,2,1.4,2,2.8s-0.6,2.8-2,2.8C45.1,20.8,44.5,19.4,44.5,18.1z
	 M47.9,18.1c0-1.3-0.4-2.3-1.4-2.3c-1,0-1.4,1-1.4,2.3s0.4,2.3,1.4,2.3C47.5,20.3,47.9,19.3,47.9,18.1z"/>
<path class="st0" d="M31.8,63.6l-1,0.3l-0.1-0.5l1.3-0.4h0.5v5.3h-0.6V63.6z M34,68.6c0-0.3-0.4-0.3-0.4-0.7c0-0.2,0.2-0.4,0.4-0.4
	c0.3,0,0.5,0.2,0.5,0.6c0,0.4-0.2,0.9-0.5,1.4h-0.4C33.9,69.2,34,68.9,34,68.6z M35.7,68.1c0.8,0,1.5-0.2,1.9-0.8
	c0.3-0.4,0.5-0.8,0.6-1.5c-0.3,0.3-0.7,0.5-1.2,0.5c-1,0-1.6-0.7-1.6-1.6c0-0.9,0.6-1.7,1.7-1.7c1.3,0,1.8,1.2,1.8,2.3
	c0,2-1,3.3-3,3.3L35.7,68.1z M38.2,65.3v-0.1c0-1.1-0.4-1.8-1.2-1.8c-0.7,0-1,0.6-1,1.2c0,0.8,0.4,1.2,1.1,1.2
	C37.6,65.8,37.9,65.6,38.2,65.3z M39.7,65.7c0-1.3,0.5-2.8,2-2.8c1.4,0,2,1.4,2,2.8s-0.6,2.8-2,2.8C40.2,68.5,39.7,67,39.7,65.7z
	 M43.1,65.7c0-1.3-0.4-2.3-1.4-2.3c-1,0-1.4,1-1.4,2.3s0.4,2.3,1.4,2.3C42.6,68,43.1,67,43.1,65.7z M44.5,65.7c0-1.3,0.5-2.8,2-2.8
	c1.4,0,2,1.4,2,2.8s-0.6,2.8-2,2.8C45.1,68.5,44.5,67,44.5,65.7z M47.9,65.7c0-1.3-0.4-2.3-1.4-2.3c-1,0-1.4,1-1.4,2.3
	s0.4,2.3,1.4,2.3C47.5,68,47.9,67,47.9,65.7z"/>
<path class="st0" d="M32,112.2l-1,0.3l-0.1-0.5l1.3-0.4h0.5v5.3H32V112.2z M34.2,117.3c0-0.3-0.4-0.3-0.4-0.7c0-0.2,0.2-0.4,0.4-0.4
	c0.3,0,0.5,0.2,0.5,0.6c0,0.4-0.2,0.9-0.5,1.4h-0.4C34.1,117.8,34.2,117.5,34.2,117.3z M35.6,115.7c0-0.7,0.7-1.2,1.1-1.5
	c-0.5-0.3-1-0.7-1-1.3c0-0.8,0.7-1.3,1.5-1.3c0.9,0,1.5,0.5,1.5,1.3c0,0.7-0.6,1-1.1,1.3c0.5,0.3,1.2,0.7,1.2,1.5
	c0,0.8-0.6,1.4-1.6,1.4C36.1,117.1,35.6,116.4,35.6,115.7z M38.2,115.7c0-0.6-0.6-1-1.1-1.2c-0.4,0.2-0.9,0.6-0.9,1.2
	c0,0.5,0.3,0.9,1,0.9C37.9,116.6,38.2,116.2,38.2,115.7z M38.1,112.9c0-0.4-0.3-0.8-0.8-0.8s-0.9,0.3-0.9,0.8c0,0.5,0.5,0.8,0.9,1
	C37.7,113.7,38.1,113.4,38.1,112.9z M39.7,114.3c0-1.3,0.5-2.8,2-2.8c1.4,0,2,1.4,2,2.8s-0.6,2.8-2,2.8
	C40.2,117.1,39.7,115.7,39.7,114.3z M43.1,114.3c0-1.3-0.4-2.3-1.4-2.3c-1,0-1.4,1-1.4,2.3s0.4,2.3,1.4,2.3
	C42.6,116.6,43.1,115.6,43.1,114.3z M44.5,114.3c0-1.3,0.5-2.8,2-2.8c1.4,0,2,1.4,2,2.8s-0.6,2.8-2,2.8
	C45.1,117.1,44.5,115.7,44.5,114.3z M47.9,114.3c0-1.3-0.4-2.3-1.4-2.3c-1,0-1.4,1-1.4,2.3s0.4,2.3,1.4,2.3
	C47.5,116.6,47.9,115.6,47.9,114.3z"/>
<path class="st0" d="M32.3,161.6l-1,0.3l-0.1-0.5l1.3-0.4h0.5v5.3h-0.6V161.6z M34.6,166.6c0-0.3-0.4-0.3-0.4-0.7
	c0-0.2,0.2-0.4,0.4-0.4c0.3,0,0.5,0.2,0.5,0.6c0,0.4-0.2,0.9-0.5,1.4h-0.4C34.4,167.2,34.6,166.8,34.6,166.6z M36.3,166.4l1.9-4.8
	h-2.4V161h3v0.4l-2,5.1L36.3,166.4z M39.7,163.7c0-1.3,0.5-2.8,2-2.8c1.4,0,2,1.4,2,2.8s-0.6,2.8-2,2.8
	C40.2,166.5,39.7,165,39.7,163.7z M43.1,163.7c0-1.3-0.4-2.3-1.4-2.3c-1,0-1.4,1-1.4,2.3s0.4,2.3,1.4,2.3
	C42.6,166,43.1,165,43.1,163.7z M44.5,163.7c0-1.3,0.5-2.8,2-2.8c1.4,0,2,1.4,2,2.8s-0.6,2.8-2,2.8C45.1,166.5,44.5,165,44.5,163.7z
	 M47.9,163.7c0-1.3-0.4-2.3-1.4-2.3c-1,0-1.4,1-1.4,2.3s0.4,2.3,1.4,2.3C47.5,166,47.9,165,47.9,163.7z"/>
<path class="st0" d="M31.8,208.2l-1,0.3l-0.1-0.5l1.3-0.4h0.5v5.3h-0.6V208.2z M34,213.2c0-0.3-0.4-0.3-0.4-0.7
	c0-0.2,0.2-0.4,0.4-0.4c0.3,0,0.5,0.2,0.5,0.6c0,0.4-0.2,0.9-0.5,1.4h-0.4C33.9,213.7,34,213.4,34,213.2z M35.5,210.8
	c0-2,1.2-3.3,3.1-3.3l0.1,0.5c-0.8,0-1.4,0.2-1.9,0.6c-0.4,0.4-0.6,0.9-0.7,1.6c0.3-0.3,0.7-0.5,1.2-0.5c1,0,1.6,0.7,1.6,1.6
	s-0.6,1.7-1.7,1.7C36,213.1,35.5,211.9,35.5,210.8z M38.3,211.4c0-0.8-0.4-1.2-1.1-1.2c-0.5,0-0.8,0.2-1.1,0.5v0.1
	c0,1.1,0.4,1.8,1.2,1.8C38,212.5,38.3,211.9,38.3,211.4z M39.7,210.3c0-1.3,0.5-2.8,2-2.8c1.4,0,2,1.4,2,2.8s-0.6,2.8-2,2.8
	C40.2,213.1,39.7,211.6,39.7,210.3z M43.1,210.3c0-1.3-0.4-2.3-1.4-2.3c-1,0-1.4,1-1.4,2.3s0.4,2.3,1.4,2.3
	C42.6,212.5,43.1,211.5,43.1,210.3z M44.5,210.3c0-1.3,0.5-2.8,2-2.8c1.4,0,2,1.4,2,2.8s-0.6,2.8-2,2.8
	C45.1,213.1,44.5,211.6,44.5,210.3z M47.9,210.3c0-1.3-0.4-2.3-1.4-2.3c-1,0-1.4,1-1.4,2.3s0.4,2.3,1.4,2.3
	C47.5,212.5,47.9,211.5,47.9,210.3z"/>
<g>
	<path class="st0" d="M46.3,216.1h1.2c2.1,0,3,1.1,3,2.6s-0.9,2.7-3.1,2.7h-1.2V216.1z M47.5,221c1.5,0,2.3-0.8,2.3-2.2
		c0-1.4-0.8-2.1-2.4-2.1h-0.6v4.3H47.5z"/>
</g>
<g>
	<path class="st0" d="M51.4,219.5c0-1.1,0.7-2,1.7-2c1,0,1.5,0.7,1.5,1.7c0,0.1,0,0.2,0,0.3H52c0,0.8,0.3,1.5,1.2,1.5
		c0.5,0,0.9-0.2,1.1-0.3l0.2,0.5c-0.2,0.1-0.6,0.4-1.3,0.4C52,221.6,51.4,220.7,51.4,219.5z M54,219.1c0-0.5-0.3-1-0.9-1
		c-0.6,0-1,0.4-1.1,1H54z"/>
	<path class="st0" d="M55.4,219.5c0-1.3,0.8-2,1.8-2c0.6,0,1,0.2,1.2,0.4l-0.3,0.4c-0.2-0.2-0.5-0.3-0.9-0.3c-0.8,0-1.1,0.7-1.1,1.5
		c0,0.8,0.4,1.5,1.2,1.5c0.5,0,0.8-0.2,0.9-0.3l0.2,0.4c-0.2,0.1-0.5,0.4-1.2,0.4C56,221.6,55.4,220.6,55.4,219.5z"/>
	<path class="st0" d="M59.1,218.9h1.6v0.5h-1.6V218.9z"/>
</g>
<g>
	<path class="st0" d="M79.4,216.1h2.8v0.5H80v1.7h1.9v0.5H80v2.6h-0.6V216.1z"/>
	<path class="st0" d="M82.8,219.5c0-1.1,0.7-2,1.7-2c1,0,1.5,0.7,1.5,1.7c0,0.1,0,0.2,0,0.3h-2.6c0,0.8,0.3,1.5,1.2,1.5
		c0.5,0,0.9-0.2,1.1-0.3l0.2,0.5c-0.2,0.1-0.6,0.4-1.3,0.4C83.4,221.6,82.8,220.7,82.8,219.5z M85.4,219.1c0-0.5-0.3-1-0.9-1
		c-0.6,0-1,0.4-1.1,1H85.4z"/>
	<path class="st0" d="M87.1,221.3v-5.6h0.6v2.2c0.2-0.2,0.6-0.4,1-0.4c1,0,1.7,0.8,1.7,2c0,1.2-0.8,2-1.9,2
		C87.9,221.6,87.4,221.4,87.1,221.3z M89.7,219.5c0-0.8-0.3-1.5-1.1-1.5c-0.3,0-0.7,0.2-0.8,0.4v2.5c0.2,0.1,0.4,0.1,0.7,0.1
		C89.3,221.1,89.7,220.3,89.7,219.5z"/>
	<path class="st0" d="M91.1,218.9h1.6v0.5h-1.6V218.9z"/>
</g>
<g>
	<path class="st0" d="M113.4,216.1h0.6l2,5.3h-0.7l-0.5-1.3h-2.4l-0.5,1.3h-0.6L113.4,216.1z M114.7,219.6l-0.7-1.8
		c-0.2-0.4-0.2-0.7-0.3-0.9h0c-0.1,0.3-0.2,0.5-0.3,0.9l-0.7,1.8H114.7z"/>
	<path class="st0" d="M117,217.6h0.6v0.4c0.2-0.2,0.6-0.5,1.1-0.5c0.9,0,1.6,0.7,1.6,2c0,1.2-0.7,2-1.7,2c-0.5,0-0.8-0.2-1-0.3v2
		H117V217.6z M119.6,219.6c0-0.9-0.3-1.5-1.1-1.5c-0.5,0-0.9,0.4-1,0.5v2.1c0.2,0.2,0.4,0.4,0.9,0.4
		C119.2,221.1,119.6,220.4,119.6,219.6z"/>
	<path class="st0" d="M121.3,217.6h0.6v0.6c0.2-0.3,0.5-0.7,1-0.7c0.2,0,0.4,0.1,0.4,0.1l-0.1,0.6c0,0-0.1-0.1-0.3-0.1
		c-0.6,0-0.9,0.7-0.9,0.8v2.6h-0.6V217.6z"/>
	<path class="st0" d="M123.8,218.9h1.6v0.5h-1.6V218.9z"/>
</g>
<g>
	<path class="st0" d="M140.8,222.9l0.1-0.5c0.1,0,0.2,0.1,0.3,0.1c0.4,0,0.6-0.3,0.6-0.9v-5.3h0.6v5.4c0,0.9-0.4,1.4-1.2,1.4
		C141,223,140.9,222.9,140.8,222.9z"/>
	<path class="st0" d="M143.9,220.4v-2.7h0.6v2.6c0,0.5,0.2,0.8,0.7,0.8c0.6,0,1-0.6,1.1-0.7v-2.7h0.6v3c0,0.3,0,0.7,0.1,0.8h-0.6
		c0-0.1,0-0.4-0.1-0.6c-0.2,0.2-0.6,0.7-1.2,0.7C144.2,221.6,143.9,221,143.9,220.4z"/>
	<path class="st0" d="M148.3,217.6h0.6v0.6c0.3-0.4,0.8-0.6,1.2-0.6c0.8,0,1.1,0.5,1.1,1.2v2.7h-0.6v-2.6c0-0.5-0.2-0.8-0.7-0.8
		c-0.4,0-0.8,0.3-1.1,0.7v2.7h-0.6V217.6z"/>
	<path class="st0" d="M152.4,218.9h1.6v0.5h-1.6V218.9z"/>
</g>
<path class="st0" d="M154.8,221.1c0.9-0.9,2.5-2.4,2.5-3.6c0-0.7-0.4-1-0.9-1c-0.6,0-0.9,0.3-1.2,0.5l-0.3-0.4
	c0.3-0.4,0.8-0.7,1.5-0.7c0.9,0,1.6,0.5,1.6,1.4c0,1.2-1.3,2.5-2.3,3.5c0,0,0.3,0,0.6,0h1.8v0.5h-3.3V221.1z M159.9,216.7l-1,0.3
	l-0.1-0.5l1.3-0.4h0.5v5.3h-0.6V216.7z"/>
<path class="st0" d="M125.9,221.1c0.9-0.9,2.5-2.4,2.5-3.6c0-0.7-0.4-1-0.9-1c-0.6,0-0.9,0.3-1.2,0.5l-0.3-0.4
	c0.3-0.4,0.8-0.7,1.5-0.7c0.9,0,1.6,0.5,1.6,1.4c0,1.2-1.3,2.5-2.3,3.5c0,0,0.3,0,0.6,0h1.8v0.5h-3.3V221.1z M131,216.7l-1,0.3
	l-0.1-0.5l1.3-0.4h0.5v5.3H131V216.7z"/>
<path class="st0" d="M93.3,221.1c0.9-0.9,2.5-2.4,2.5-3.6c0-0.7-0.4-1-0.9-1c-0.6,0-0.9,0.3-1.2,0.5l-0.3-0.4
	c0.3-0.4,0.8-0.7,1.5-0.7c0.9,0,1.6,0.5,1.6,1.4c0,1.2-1.3,2.5-2.3,3.5c0,0,0.3,0,0.6,0h1.8v0.5h-3.3V221.1z M98.4,216.7l-1,0.3
	l-0.1-0.5l1.3-0.4H99v5.3h-0.6V216.7z"/>
<g>
	<path class="st0" d="M174.6,216.1h0.6l2,5.3h-0.7l-0.5-1.3h-2.4l-0.5,1.3h-0.6L174.6,216.1z M175.9,219.6l-0.7-1.8
		c-0.2-0.4-0.2-0.7-0.3-0.9h0c-0.1,0.3-0.2,0.5-0.3,0.9l-0.7,1.8H175.9z"/>
	<path class="st0" d="M178.1,220.4v-2.7h0.6v2.6c0,0.5,0.2,0.8,0.7,0.8c0.6,0,1-0.6,1.1-0.7v-2.7h0.6v3c0,0.3,0,0.7,0.1,0.8h-0.6
		c0-0.1,0-0.4-0.1-0.6c-0.2,0.2-0.6,0.7-1.2,0.7C178.4,221.6,178.1,221,178.1,220.4z"/>
	<path class="st0" d="M182.1,222.3c0-0.4,0.3-0.8,0.7-1c-0.2-0.1-0.3-0.3-0.3-0.6c0-0.3,0.2-0.5,0.4-0.6c-0.4-0.2-0.7-0.7-0.7-1.2
		c0-0.8,0.6-1.4,1.5-1.4c0.2,0,0.4,0,0.6,0.1h1.2v0.5h-0.6c0.2,0.2,0.3,0.5,0.3,0.8c0,0.8-0.6,1.4-1.5,1.4c-0.2,0-0.3,0-0.4,0
		c-0.2,0.1-0.3,0.2-0.3,0.3c0,0.2,0.2,0.3,0.5,0.3c0.8,0,2,0,2,1.2c0,0.8-0.9,1.3-1.9,1.3C182.8,223.4,182.1,223,182.1,222.3z
		 M185,222.1c0-0.6-0.5-0.6-1-0.6c-0.2,0-0.5,0-0.7-0.1c-0.4,0.2-0.5,0.5-0.5,0.8c0,0.4,0.3,0.7,1,0.7
		C184.4,222.9,185,222.6,185,222.1z M184.6,218.9c0-0.5-0.3-0.9-0.9-0.9c-0.6,0-0.9,0.4-0.9,0.9c0,0.5,0.3,0.9,0.9,0.9
		C184.3,219.9,184.6,219.5,184.6,218.9z"/>
	<path class="st0" d="M186.2,218.9h1.6v0.5h-1.6V218.9z"/>
</g>
<path class="st0" d="M188.6,221.1c0.9-0.9,2.5-2.4,2.5-3.6c0-0.7-0.4-1-0.9-1c-0.6,0-0.9,0.3-1.2,0.5l-0.3-0.4
	c0.3-0.4,0.8-0.7,1.5-0.7c0.9,0,1.6,0.5,1.6,1.4c0,1.2-1.3,2.5-2.3,3.5c0,0,0.3,0,0.6,0h1.8v0.5h-3.3V221.1z M193.7,216.7l-1,0.3
	l-0.1-0.5l1.3-0.4h0.5v5.3h-0.6V216.7z"/>
<g>
	<path class="st0" d="M205.9,218.8c0-1.5,1-2.8,2.6-2.8c1.6,0,2.6,1.3,2.6,2.8c0,1.5-1,2.8-2.6,2.8
		C206.8,221.6,205.9,220.3,205.9,218.8z M210.4,218.8c0-1.2-0.7-2.2-2-2.2s-2,1-2,2.2s0.7,2.2,2,2.2S210.4,220,210.4,218.8z"/>
	<path class="st0" d="M211.9,219.5c0-1.3,0.8-2,1.8-2c0.6,0,1,0.2,1.2,0.4l-0.3,0.4c-0.2-0.2-0.5-0.3-0.9-0.3
		c-0.8,0-1.1,0.7-1.1,1.5c0,0.8,0.4,1.5,1.2,1.5c0.5,0,0.8-0.2,0.9-0.3l0.2,0.4c-0.2,0.1-0.5,0.4-1.2,0.4
		C212.5,221.6,211.9,220.6,211.9,219.5z"/>
	<path class="st0" d="M216.1,220.5v-2.5h-0.6v-0.5h0.6v-1.1h0.6v1.1h1v0.5h-1v2.4c0,0.4,0.1,0.6,0.4,0.6c0.2,0,0.5-0.1,0.5-0.2
		l0.2,0.4c-0.1,0.1-0.4,0.2-0.8,0.2C216.4,221.6,216.1,221.2,216.1,220.5z"/>
	<path class="st0" d="M218.4,218.9h1.6v0.5h-1.6V218.9z"/>
</g>
<path class="st0" d="M220.8,221.1c0.9-0.9,2.5-2.4,2.5-3.6c0-0.7-0.4-1-0.9-1c-0.6,0-0.9,0.3-1.2,0.5l-0.3-0.4
	c0.3-0.4,0.8-0.7,1.5-0.7c0.9,0,1.6,0.5,1.6,1.4c0,1.2-1.3,2.5-2.3,3.5c0,0,0.3,0,0.6,0h1.8v0.5h-3.3V221.1z M225.9,216.7l-1,0.3
	l-0.1-0.5l1.3-0.4h0.5v5.3h-0.6V216.7z"/>
<line class="st1" x1="53.3" y1="213.2" x2="53.3" y2="16.8"/>
<line class="st1" x1="234.2" y1="213.2" x2="234.2" y2="16.8"/>
<line class="st1" x1="85.9" y1="213.2" x2="85.9" y2="209.8"/>
<line class="st1" x1="118.5" y1="213.2" x2="118.5" y2="209.8"/>
<polyline class="st2" points="53.8,66 54.4,65 56.3,43.9 56.3,40.8 57,55.5 57.6,57.6 58.2,89.2 60.1,92.3 60.1,87.1 60.7,91.3 
	61.4,90.2 62,99.7 63.3,93.4 63.9,93.4 64.5,78.7 65.1,79.7 65.8,86 67,86 67.7,88.1 68.3,92.3 68.9,92.3 69.6,90.2 70.8,83.9 
	71.5,94.4 72.1,96.5 72.7,115.5 73.3,106 74.6,98.7 75.2,94.4 75.9,92.3 76.5,100.8 77.1,101.8 78.4,103.9 79,115.5 79.6,125 
	80.3,125 80.9,120.8 82.2,108.1 82.8,110.2 83.4,110.2 84.1,127.1 84.7,145 85.9,149.2 86.6,142.9 87.2,155.5 87.8,162.9 
	87.8,160.8 89.7,169.2 90.4,153.4 91,148.1 91.6,150.2 91.6,148.1 93.5,146 94.1,146 94.8,139.7 94.8,143.9 95.4,139.7 97.3,142.9 
	97.9,148.1 98.5,145 98.5,148.1 99.2,146 101.1,155.5 101.7,168.1 102.3,157.6 102.3,147.1 103,147.1 104.8,147.1 105.5,140.8 
	105.5,142.9 106.1,134.4 106.7,139.7 108.6,145 109.3,139.7 109.3,143.9 109.9,130.2 110.5,123.9 112.4,127.1 112.4,122.9 
	113,115.5 113.7,120.8 114.3,123.9 116.2,121.8 116.2,123.9 116.8,121.8 117.4,126 118.1,128.1 119.3,116.5 120,122.9 120.6,119.7 
	121.2,106 121.9,97.6 123.1,95.5 123.7,94.4 124.4,105 125,99.7 125.6,92.3 126.9,80.8 127.5,79.7 128.2,79.7 128.8,75.5 
	129.4,73.4 130.7,74.4 131.3,65 131.9,66 132.6,66 133.2,62.9 134.5,61.8 135.1,65 135.7,60.8 136.3,78.7 137,69.2 138.2,65 
	138.9,68.1 139.5,70.2 140.1,66 140.8,75.5 142,80.8 142.7,85 143.3,107.1 143.9,126 143.9,130.2 145.8,120.8 146.4,122.9 
	147.1,122.9 147.7,125 147.7,121.8 149.6,123.9 150.2,131.3 150.8,127.1 151.5,123.9 151.5,118.7 153.4,116.5 154,114.4 
	154.6,111.3 155.3,109.2 157.1,110.2 157.8,109.2 158.4,99.7 158.4,98.7 159,107.1 160.9,107.1 161.6,108.1 161.6,111.3 
	162.2,109.2 162.8,112.3 164.7,114.4 165.3,113.4 165.3,109.2 166,99.7 166.6,106 168.5,106 169.1,108.1 169.1,107.1 169.7,111.3 
	170.4,131.3 172.3,147.1 172.9,136.5 173.5,135.5 174.2,122.9 176,118.7 176,119.7 176.7,118.7 177.3,122.9 177.9,121.8 
	179.2,110.2 179.8,111.3 180.5,117.6 181.1,116.5 181.7,105 183,108.1 183.6,106 184.2,106 184.9,108.1 185.5,99.7 186.8,101.8 
	187.4,115.5 188,118.7 188.6,115.5 189.3,118.7 190.5,116.5 191.2,111.3 191.8,115.5 192.4,135.5 193.1,135.5 194.3,130.2 
	194.9,125 195.6,128.1 196.2,140.8 196.8,136.5 198.1,136.5 198.7,145 199.4,148.1 200,133.4 200.6,132.3 201.9,128.1 202.5,132.3 
	203.1,131.3 203.8,134.4 203.8,133.4 205.7,135.5 206.3,132.3 206.9,116.5 207.6,115.5 207.6,128.1 209.4,130.2 210.1,128.1 
	210.7,121.8 211.3,120.8 211.3,116.5 213.2,109.2 213.9,116.5 214.5,114.4 214.5,113.4 215.1,120.8 217,116.5 217.6,118.7 
	218.3,127.1 218.3,116.5 218.9,103.9 220.8,101.8 221.4,97.6 221.4,89.2 222,82.9 222.7,81.8 224.6,82.9 225.2,88.1 225.2,80.8 
	225.8,85 226.5,91.3 228.3,111.3 228.3,118.7 229,118.7 229.6,118.7 230.2,111.3 232.1,116.5 "/>
<line class="st1" x1="151.1" y1="213.2" x2="151.1" y2="209.8"/>
<line class="st1" x1="183.7" y1="213.2" x2="183.7" y2="209.8"/>
<line class="st1" x1="216.4" y1="213.2" x2="216.4" y2="209.8"/>
<g>
	<path class="st0" d="M60.9,221.1c0.9-0.9,2.5-2.4,2.5-3.6c0-0.7-0.4-1-0.9-1c-0.6,0-0.9,0.3-1.2,0.5l-0.3-0.4
		c0.3-0.4,0.8-0.7,1.5-0.7c0.9,0,1.6,0.5,1.6,1.4c0,1.2-1.3,2.5-2.3,3.5c0,0,0.3,0,0.6,0h1.8v0.5h-3.3V221.1z"/>
	<path class="st0" d="M65,218.8c0-1.3,0.5-2.8,2-2.8c1.4,0,2,1.4,2,2.8c0,1.3-0.6,2.8-2,2.8C65.6,221.6,65,220.1,65,218.8z
		 M68.4,218.8c0-1.3-0.4-2.3-1.4-2.3c-1,0-1.4,1-1.4,2.3c0,1.3,0.4,2.3,1.4,2.3C68,221.1,68.4,220.1,68.4,218.8z"/>
</g>
</svg>
