<?xml version="1.0" encoding="utf-8"?>
<!-- Generator: Adobe Illustrator 26.0.1, SVG Export Plug-In . SVG Version: 6.00 Build 0)  -->
<svg version="1.1" id="Layer_2" xmlns="http://www.w3.org/2000/svg" xmlns:xlink="http://www.w3.org/1999/xlink" x="0px" y="0px"
	 viewBox="0 0 250 250" style="enable-background:new 0 0 250 250;" xml:space="preserve">
<style type="text/css">
	.st0{fill:none;stroke:#BCBEC0;stroke-width:0.5;}
	.st1{fill:#4D4D4F;}
	.st2{fill:#B19E4E;}
	.st3{fill:none;stroke:#5C5B59;stroke-linecap:round;stroke-linejoin:round;stroke-miterlimit:10;}
	.st4{fill:none;stroke:#B19E4E;stroke-width:1.6;}
	.st5{fill:none;stroke:#5C5B59;stroke-width:1.6;}
</style>
<g>
	<line class="st0" x1="27" y1="16.7" x2="27" y2="169.6"/>
	<line class="st0" x1="218" y1="16.7" x2="218" y2="169.6"/>
	<path class="st1" d="M12.1,18.8c0.8,0,1.5-0.2,1.9-0.8c0.3-0.4,0.5-0.8,0.6-1.5c-0.3,0.3-0.7,0.5-1.2,0.5c-1,0-1.6-0.7-1.6-1.6
		c0-0.9,0.6-1.7,1.7-1.7c1.3,0,1.8,1.2,1.8,2.3c0,2-1,3.3-3,3.3L12.1,18.8z M14.7,16.1V16c0-1.1-0.4-1.8-1.2-1.8c-0.7,0-1,0.6-1,1.2
		c0,0.8,0.4,1.2,1.1,1.2C14,16.6,14.4,16.4,14.7,16.1z M16.2,18.7c0-0.3,0.2-0.5,0.5-0.5s0.5,0.2,0.5,0.5s-0.2,0.5-0.5,0.5
		S16.2,19,16.2,18.7z M18,16.5c0-1.3,0.5-2.8,2-2.8c1.4,0,2,1.4,2,2.8s-0.6,2.8-2,2.8C18.5,19.2,18,17.8,18,16.5z M21.4,16.5
		c0-1.3-0.4-2.3-1.4-2.3c-1,0-1.4,1-1.4,2.3s0.4,2.3,1.4,2.3C20.9,18.7,21.4,17.7,21.4,16.5z"/>
	<path class="st1" d="M11.9,48.4c0-2,1.2-3.3,3.1-3.3l0.1,0.5c-0.8,0-1.4,0.2-1.9,0.6c-0.4,0.4-0.6,0.9-0.7,1.6
		c0.3-0.3,0.7-0.5,1.2-0.5c1,0,1.6,0.7,1.6,1.6s-0.6,1.7-1.7,1.7C12.5,50.7,11.9,49.5,11.9,48.4z M14.8,49c0-0.8-0.4-1.2-1.1-1.2
		c-0.5,0-0.8,0.2-1.1,0.5v0.1c0,1.1,0.4,1.8,1.2,1.8C14.5,50.2,14.8,49.6,14.8,49z M16.2,50.2c0-0.3,0.2-0.5,0.5-0.5
		s0.5,0.2,0.5,0.5s-0.2,0.5-0.5,0.5S16.2,50.4,16.2,50.2z M18,47.9c0-1.3,0.5-2.8,2-2.8c1.4,0,2,1.4,2,2.8s-0.6,2.8-2,2.8
		C18.5,50.7,18,49.2,18,47.9z M21.4,47.9c0-1.3-0.4-2.3-1.4-2.3c-1,0-1.4,1-1.4,2.3s0.4,2.3,1.4,2.3C20.9,50.2,21.4,49.2,21.4,47.9z
		"/>
	<path class="st1" d="M220.6,19.2l0.1-0.5c0.1,0,0.3,0.1,0.7,0.1c1,0,1.5-0.4,1.5-1.1c0-0.8-0.7-1.1-1.7-1.1v-0.4
		c0.8,0,1.6-0.4,1.6-1.1c0-0.4-0.3-0.7-0.9-0.7c-0.5,0-0.8,0.2-1.1,0.4l-0.3-0.4c0.3-0.2,0.8-0.5,1.4-0.5c1,0,1.5,0.5,1.5,1.2
		c0,0.7-0.6,1.1-1.2,1.3v0c0.7,0.1,1.3,0.6,1.3,1.4c0,1.1-0.9,1.7-2.1,1.7C221,19.2,220.7,19.2,220.6,19.2z M224.8,19.4
		c0-0.3-0.4-0.3-0.4-0.7c0-0.2,0.2-0.4,0.4-0.4c0.3,0,0.5,0.2,0.5,0.6c0,0.4-0.2,0.9-0.5,1.4h-0.4C224.7,19.9,224.8,19.6,224.8,19.4
		z M228.6,17.9h-2.5v-0.5l2.4-3.6h0.6v3.6h0.8v0.5h-0.8v1.2h-0.6V17.9z M227.4,17.4h1.2v-2.7h0l-1.8,2.8
		C226.9,17.4,227.2,17.4,227.4,17.4z M230.6,16.5c0-1.3,0.5-2.8,2-2.8c1.4,0,2,1.4,2,2.8s-0.6,2.8-2,2.8
		C231.1,19.2,230.6,17.8,230.6,16.5z M234,16.5c0-1.3-0.4-2.3-1.4-2.3c-1,0-1.4,1-1.4,2.3s0.4,2.3,1.4,2.3
		C233.5,18.7,234,17.7,234,16.5z M235.5,16.5c0-1.3,0.5-2.8,2-2.8c1.4,0,2,1.4,2,2.8s-0.6,2.8-2,2.8C236,19.2,235.5,17.8,235.5,16.5
		z M238.8,16.5c0-1.3-0.4-2.3-1.4-2.3c-1,0-1.4,1-1.4,2.3s0.4,2.3,1.4,2.3C238.4,18.7,238.8,17.7,238.8,16.5z"/>
	<path class="st1" d="M220.6,50.6l0.1-0.5c0.1,0,0.3,0.1,0.7,0.1c1,0,1.5-0.4,1.5-1.1c0-0.8-0.7-1.1-1.7-1.1v-0.4
		c0.8,0,1.6-0.4,1.6-1.1c0-0.4-0.3-0.7-0.9-0.7c-0.5,0-0.8,0.2-1.1,0.4l-0.3-0.4c0.3-0.2,0.8-0.5,1.4-0.5c1,0,1.5,0.5,1.5,1.2
		c0,0.7-0.6,1.1-1.2,1.3v0c0.7,0.1,1.3,0.6,1.3,1.4c0,1.1-0.9,1.7-2.1,1.7C221,50.7,220.7,50.6,220.6,50.6z M224.8,50.8
		c0-0.3-0.4-0.3-0.4-0.7c0-0.2,0.2-0.4,0.4-0.4c0.3,0,0.5,0.2,0.5,0.6c0,0.4-0.2,0.9-0.5,1.4h-0.4C224.7,51.4,224.8,51.1,224.8,50.8
		z M226.2,50.2c0.9-0.9,2.5-2.4,2.5-3.6c0-0.7-0.4-1-0.9-1c-0.6,0-0.9,0.3-1.2,0.5l-0.3-0.4c0.3-0.4,0.8-0.7,1.5-0.7
		c0.9,0,1.6,0.5,1.6,1.4c0,1.2-1.3,2.5-2.3,3.5c0,0,0.3,0,0.6,0h1.8v0.5h-3.3V50.2z M230.3,47.9c0-1.3,0.5-2.8,2-2.8
		c1.4,0,2,1.4,2,2.8s-0.6,2.8-2,2.8C230.9,50.7,230.3,49.2,230.3,47.9z M233.7,47.9c0-1.3-0.4-2.3-1.4-2.3c-1,0-1.4,1-1.4,2.3
		s0.4,2.3,1.4,2.3C233.3,50.2,233.7,49.2,233.7,47.9z M235.2,47.9c0-1.3,0.5-2.8,2-2.8c1.4,0,2,1.4,2,2.8s-0.6,2.8-2,2.8
		C235.8,50.7,235.2,49.2,235.2,47.9z M238.6,47.9c0-1.3-0.4-2.3-1.4-2.3c-1,0-1.4,1-1.4,2.3s0.4,2.3,1.4,2.3
		C238.2,50.2,238.6,49.2,238.6,47.9z"/>
	<path class="st1" d="M12.3,79.4l0.1-0.5c0.1,0,0.3,0.1,0.7,0.1c1,0,1.5-0.4,1.5-1.1c0-0.8-0.7-1.1-1.7-1.1v-0.4
		c0.8,0,1.6-0.4,1.6-1.1c0-0.4-0.3-0.7-0.9-0.7c-0.5,0-0.8,0.2-1.1,0.4l-0.3-0.4c0.3-0.2,0.8-0.5,1.4-0.5c1,0,1.5,0.5,1.5,1.2
		c0,0.7-0.6,1.1-1.2,1.3v0c0.7,0.1,1.3,0.6,1.3,1.4c0,1.1-0.9,1.7-2.1,1.7C12.7,79.4,12.4,79.4,12.3,79.4z M16.2,78.9
		c0-0.3,0.2-0.5,0.5-0.5s0.5,0.2,0.5,0.5s-0.2,0.5-0.5,0.5S16.2,79.2,16.2,78.9z M18,76.7c0-1.3,0.5-2.8,2-2.8c1.4,0,2,1.4,2,2.8
		s-0.6,2.8-2,2.8C18.5,79.4,18,78,18,76.7z M21.4,76.7c0-1.3-0.4-2.3-1.4-2.3c-1,0-1.4,1-1.4,2.3s0.4,2.3,1.4,2.3
		C20.9,78.9,21.4,77.9,21.4,76.7z"/>
	<path class="st1" d="M220.6,79.4l0.1-0.5c0.1,0,0.3,0.1,0.7,0.1c1,0,1.5-0.4,1.5-1.1c0-0.8-0.7-1.1-1.7-1.1v-0.4
		c0.8,0,1.6-0.4,1.6-1.1c0-0.4-0.3-0.7-0.9-0.7c-0.5,0-0.8,0.2-1.1,0.4l-0.3-0.4c0.3-0.2,0.8-0.5,1.4-0.5c1,0,1.5,0.5,1.5,1.2
		c0,0.7-0.6,1.1-1.2,1.3v0c0.7,0.1,1.3,0.6,1.3,1.4c0,1.1-0.9,1.7-2.1,1.7C221,79.4,220.7,79.4,220.6,79.4z M224.8,79.6
		c0-0.3-0.4-0.3-0.4-0.7c0-0.2,0.2-0.4,0.4-0.4c0.3,0,0.5,0.2,0.5,0.6c0,0.4-0.2,0.9-0.5,1.4h-0.4C224.7,80.1,224.8,79.8,224.8,79.6
		z M226.3,76.7c0-1.3,0.5-2.8,2-2.8c1.4,0,2,1.4,2,2.8s-0.6,2.8-2,2.8C226.9,79.4,226.3,78,226.3,76.7z M229.7,76.7
		c0-1.3-0.4-2.3-1.4-2.3c-1,0-1.4,1-1.4,2.3s0.4,2.3,1.4,2.3C229.2,78.9,229.7,77.9,229.7,76.7z M231.2,76.7c0-1.3,0.5-2.8,2-2.8
		c1.4,0,2,1.4,2,2.8s-0.6,2.8-2,2.8C231.7,79.4,231.2,78,231.2,76.7z M234.5,76.7c0-1.3-0.4-2.3-1.4-2.3c-1,0-1.4,1-1.4,2.3
		s0.4,2.3,1.4,2.3C234.1,78.9,234.5,77.9,234.5,76.7z M236,76.7c0-1.3,0.5-2.8,2-2.8c1.4,0,2,1.4,2,2.8s-0.6,2.8-2,2.8
		C236.6,79.4,236,78,236,76.7z M239.4,76.7c0-1.3-0.4-2.3-1.4-2.3c-1,0-1.4,1-1.4,2.3s0.4,2.3,1.4,2.3
		C239,78.9,239.4,77.9,239.4,76.7z"/>
	<path class="st1" d="M220.6,110.5c0.9-0.9,2.5-2.4,2.5-3.6c0-0.7-0.4-1-0.9-1c-0.6,0-0.9,0.3-1.2,0.5l-0.3-0.4
		c0.3-0.4,0.8-0.7,1.5-0.7c0.9,0,1.6,0.5,1.6,1.4c0,1.2-1.3,2.5-2.3,3.5c0,0,0.3,0,0.6,0h1.8v0.5h-3.3V110.5z M225.1,111.1
		c0-0.3-0.4-0.3-0.4-0.7c0-0.2,0.2-0.4,0.4-0.4c0.3,0,0.5,0.2,0.5,0.6c0,0.4-0.2,0.9-0.5,1.4h-0.4
		C225,111.7,225.1,111.4,225.1,111.1z M226.5,109.6c0-0.7,0.7-1.2,1.1-1.5c-0.5-0.3-1-0.7-1-1.3c0-0.8,0.7-1.3,1.5-1.3
		c0.9,0,1.5,0.5,1.5,1.3c0,0.7-0.6,1-1.1,1.3c0.5,0.3,1.2,0.7,1.2,1.5c0,0.8-0.6,1.4-1.6,1.4C227,111,226.5,110.3,226.5,109.6z
		 M229.1,109.5c0-0.6-0.6-1-1.1-1.2c-0.4,0.2-0.9,0.6-0.9,1.2c0,0.5,0.3,0.9,1,0.9C228.7,110.4,229.1,110.1,229.1,109.5z M229,106.7
		c0-0.4-0.3-0.8-0.8-0.8s-0.9,0.3-0.9,0.8c0,0.5,0.5,0.8,0.9,1C228.5,107.5,229,107.2,229,106.7z M230.5,108.2c0-1.3,0.5-2.8,2-2.8
		c1.4,0,2,1.4,2,2.8s-0.6,2.8-2,2.8C231.1,111,230.5,109.5,230.5,108.2z M233.9,108.2c0-1.3-0.4-2.3-1.4-2.3c-1,0-1.4,1-1.4,2.3
		s0.4,2.3,1.4,2.3C233.5,110.5,233.9,109.5,233.9,108.2z M235.4,108.2c0-1.3,0.5-2.8,2-2.8c1.4,0,2,1.4,2,2.8s-0.6,2.8-2,2.8
		C236,111,235.4,109.5,235.4,108.2z M238.8,108.2c0-1.3-0.4-2.3-1.4-2.3c-1,0-1.4,1-1.4,2.3s0.4,2.3,1.4,2.3
		C238.3,110.5,238.8,109.5,238.8,108.2z"/>
	<path class="st1" d="M11.3,108.2c0-1.3,0.5-2.8,2-2.8c1.4,0,2,1.4,2,2.8s-0.6,2.8-2,2.8C11.8,111,11.3,109.5,11.3,108.2z
		 M14.7,108.2c0-1.3-0.4-2.3-1.4-2.3c-1,0-1.4,1-1.4,2.3s0.4,2.3,1.4,2.3C14.2,110.5,14.7,109.5,14.7,108.2z M16.2,110.5
		c0-0.3,0.2-0.5,0.5-0.5s0.5,0.2,0.5,0.5s-0.2,0.5-0.5,0.5S16.2,110.7,16.2,110.5z M18,108.2c0-1.3,0.5-2.8,2-2.8c1.4,0,2,1.4,2,2.8
		s-0.6,2.8-2,2.8C18.5,111,18,109.5,18,108.2z M21.4,108.2c0-1.3-0.4-2.3-1.4-2.3c-1,0-1.4,1-1.4,2.3s0.4,2.3,1.4,2.3
		C20.9,110.5,21.4,109.5,21.4,108.2z"/>
	<path class="st1" d="M221.4,141c0.9-0.9,2.5-2.4,2.5-3.6c0-0.7-0.4-1-0.9-1c-0.6,0-0.9,0.3-1.2,0.5l-0.3-0.4
		c0.3-0.4,0.8-0.7,1.5-0.7c0.9,0,1.6,0.5,1.6,1.4c0,1.2-1.3,2.5-2.3,3.5c0,0,0.3,0,0.6,0h1.8v0.5h-3.3V141z M225.9,141.6
		c0-0.3-0.4-0.3-0.4-0.7c0-0.2,0.2-0.4,0.4-0.4c0.3,0,0.5,0.2,0.5,0.6c0,0.4-0.2,0.9-0.5,1.4h-0.4
		C225.8,142.1,225.9,141.8,225.9,141.6z M227.4,139.2c0-2,1.2-3.3,3.1-3.3l0.1,0.5c-0.8,0-1.4,0.2-1.9,0.6c-0.4,0.4-0.6,0.9-0.7,1.6
		c0.3-0.3,0.7-0.5,1.2-0.5c1,0,1.6,0.7,1.6,1.6s-0.6,1.7-1.7,1.7C227.9,141.4,227.4,140.2,227.4,139.2z M230.2,139.8
		c0-0.8-0.4-1.2-1.1-1.2c-0.5,0-0.8,0.2-1.1,0.5v0.1c0,1.1,0.4,1.8,1.2,1.8C229.9,140.9,230.2,140.3,230.2,139.8z M231.6,138.7
		c0-1.3,0.5-2.8,2-2.8c1.4,0,2,1.4,2,2.8s-0.6,2.8-2,2.8C232.2,141.4,231.6,140,231.6,138.7z M235,138.7c0-1.3-0.4-2.3-1.4-2.3
		c-1,0-1.4,1-1.4,2.3s0.4,2.3,1.4,2.3C234.6,140.9,235,139.9,235,138.7z M236.5,138.7c0-1.3,0.5-2.8,2-2.8c1.4,0,2,1.4,2,2.8
		s-0.6,2.8-2,2.8C237,141.4,236.5,140,236.5,138.7z M239.9,138.7c0-1.3-0.4-2.3-1.4-2.3c-1,0-1.4,1-1.4,2.3s0.4,2.3,1.4,2.3
		C239.4,140.9,239.9,139.9,239.9,138.7z"/>
	<path class="st1" d="M9.9,138.3h1.6v0.5H9.9V138.3z M12.3,141.4l0.1-0.5c0.1,0,0.3,0.1,0.7,0.1c1,0,1.5-0.4,1.5-1.1
		c0-0.8-0.7-1.1-1.7-1.1v-0.4c0.8,0,1.6-0.4,1.6-1.1c0-0.4-0.3-0.7-0.9-0.7c-0.5,0-0.8,0.2-1.1,0.4l-0.3-0.4
		c0.3-0.2,0.8-0.5,1.4-0.5c1,0,1.5,0.5,1.5,1.2c0,0.7-0.6,1.1-1.2,1.3v0c0.7,0.1,1.3,0.6,1.3,1.4c0,1.1-0.9,1.7-2.1,1.7
		C12.7,141.4,12.4,141.4,12.3,141.4z M16.2,140.9c0-0.3,0.2-0.5,0.5-0.5s0.5,0.2,0.5,0.5s-0.2,0.5-0.5,0.5S16.2,141.2,16.2,140.9z
		 M18,138.7c0-1.3,0.5-2.8,2-2.8c1.4,0,2,1.4,2,2.8s-0.6,2.8-2,2.8C18.5,141.4,18,140,18,138.7z M21.4,138.7c0-1.3-0.4-2.3-1.4-2.3
		c-1,0-1.4,1-1.4,2.3s0.4,2.3,1.4,2.3C20.9,140.9,21.4,139.9,21.4,138.7z"/>
	<path class="st1" d="M221.4,171.8c0.9-0.9,2.5-2.4,2.5-3.6c0-0.7-0.4-1-0.9-1c-0.6,0-0.9,0.3-1.2,0.5l-0.3-0.4
		c0.3-0.4,0.8-0.7,1.5-0.7c0.9,0,1.6,0.5,1.6,1.4c0,1.2-1.3,2.5-2.3,3.5c0,0,0.3,0,0.6,0h1.8v0.5h-3.3V171.8z M225.9,172.4
		c0-0.3-0.4-0.3-0.4-0.7c0-0.2,0.2-0.4,0.4-0.4c0.3,0,0.5,0.2,0.5,0.6c0,0.4-0.2,0.9-0.5,1.4h-0.4
		C225.8,173,225.9,172.6,225.9,172.4z M229.7,171h-2.5v-0.5l2.4-3.6h0.6v3.6h0.8v0.5h-0.8v1.2h-0.6V171z M228.5,170.4h1.2v-2.7h0
		l-1.8,2.8C228,170.4,228.3,170.4,228.5,170.4z M231.7,169.5c0-1.3,0.5-2.8,2-2.8c1.4,0,2,1.4,2,2.8s-0.6,2.8-2,2.8
		C232.3,172.3,231.7,170.8,231.7,169.5z M235.1,169.5c0-1.3-0.4-2.3-1.4-2.3c-1,0-1.4,1-1.4,2.3s0.4,2.3,1.4,2.3
		C234.6,171.8,235.1,170.8,235.1,169.5z M236.6,169.5c0-1.3,0.5-2.8,2-2.8c1.4,0,2,1.4,2,2.8s-0.6,2.8-2,2.8
		C237.1,172.3,236.6,170.8,236.6,169.5z M239.9,169.5c0-1.3-0.4-2.3-1.4-2.3c-1,0-1.4,1-1.4,2.3s0.4,2.3,1.4,2.3
		C239.5,171.8,239.9,170.8,239.9,169.5z"/>
	<path class="st1" d="M9.4,169.1H11v0.5H9.4V169.1z M11.9,170c0-2,1.2-3.3,3.1-3.3l0.1,0.5c-0.8,0-1.4,0.2-1.9,0.6
		c-0.4,0.4-0.6,0.9-0.7,1.6c0.3-0.3,0.7-0.5,1.2-0.5c1,0,1.6,0.7,1.6,1.6s-0.6,1.7-1.7,1.7C12.5,172.3,11.9,171.1,11.9,170z
		 M14.8,170.6c0-0.8-0.4-1.2-1.1-1.2c-0.5,0-0.8,0.2-1.1,0.5v0.1c0,1.1,0.4,1.8,1.2,1.8C14.5,171.8,14.8,171.2,14.8,170.6z
		 M16.2,171.8c0-0.3,0.2-0.5,0.5-0.5s0.5,0.2,0.5,0.5s-0.2,0.5-0.5,0.5S16.2,172,16.2,171.8z M18,169.5c0-1.3,0.5-2.8,2-2.8
		c1.4,0,2,1.4,2,2.8s-0.6,2.8-2,2.8C18.5,172.3,18,170.8,18,169.5z M21.4,169.5c0-1.3-0.4-2.3-1.4-2.3c-1,0-1.4,1-1.4,2.3
		s0.4,2.3,1.4,2.3C20.9,171.8,21.4,170.8,21.4,169.5z"/>
	<path class="st1" d="M34.4,181.6c-1.3,0-2.8-0.5-2.8-2c0-1.4,1.4-2,2.8-2s2.8,0.6,2.8,2C37.2,181.1,35.7,181.6,34.4,181.6z
		 M36.8,185.8c-0.9-0.9-2.4-2.5-3.6-2.5c-0.7,0-1,0.4-1,0.9c0,0.6,0.3,0.9,0.5,1.2l-0.4,0.3c-0.4-0.3-0.7-0.8-0.7-1.5
		c0-0.9,0.5-1.6,1.4-1.6c1.2,0,2.5,1.3,3.5,2.3c0,0,0-0.3,0-0.6v-1.8h0.5v3.3H36.8z M37.2,189.3c0,1.6-1.3,2.5-2.8,2.5
		c-1.5,0-2.8-1-2.8-2.6s1.3-2.6,2.8-2.6c1.3,0,2.4,0.7,2.7,2c0.5-0.4,0.8-0.7,0.8-1.4c0-0.3-0.1-0.6-0.2-0.6l0.5-0.2
		c0.1,0.2,0.3,0.5,0.3,0.9C38.4,188,38.1,188.6,37.2,189.3z M32.3,193.8l0.3,1l-0.5,0.1l-0.4-1.3v-0.5h5.3v0.6H32.3z M34.4,178.3
		c-1.3,0-2.3,0.4-2.3,1.4c0,1,1,1.4,2.3,1.4s2.3-0.4,2.3-1.4C36.7,178.7,35.7,178.3,34.4,178.3z M34.4,187.3c-1.2,0-2.2,0.7-2.2,2
		s1,2,2.2,2s2.2-0.7,2.2-2S35.6,187.3,34.4,187.3z"/>
	<path class="st1" d="M50.6,181.6c-1.3,0-2.8-0.5-2.8-2c0-1.4,1.4-2,2.8-2s2.8,0.6,2.8,2C53.4,181.1,51.9,181.6,50.6,181.6z
		 M52.9,185.8c-0.9-0.9-2.4-2.5-3.6-2.5c-0.7,0-1,0.4-1,0.9c0,0.6,0.3,0.9,0.5,1.2l-0.4,0.3c-0.4-0.3-0.7-0.8-0.7-1.5
		c0-0.9,0.5-1.6,1.4-1.6c1.2,0,2.5,1.3,3.5,2.3c0,0,0-0.3,0-0.6v-1.8h0.5v3.3H52.9z M53.4,189.3c0,1.6-1.3,2.5-2.8,2.5
		c-1.5,0-2.8-1-2.8-2.6s1.3-2.6,2.8-2.6c1.3,0,2.4,0.7,2.7,2c0.5-0.4,0.8-0.7,0.8-1.4c0-0.3-0.1-0.6-0.2-0.6l0.5-0.2
		c0.1,0.2,0.3,0.5,0.3,0.9C54.6,188,54.3,188.6,53.4,189.3z M52.9,196.1c-0.9-0.9-2.4-2.5-3.6-2.5c-0.7,0-1,0.4-1,0.9
		c0,0.6,0.3,0.9,0.5,1.2l-0.4,0.3c-0.4-0.3-0.7-0.8-0.7-1.5c0-0.9,0.5-1.6,1.4-1.6c1.2,0,2.5,1.3,3.5,2.3c0,0,0-0.3,0-0.6v-1.8h0.5
		v3.3H52.9z M50.6,178.3c-1.3,0-2.3,0.4-2.3,1.4c0,1,1,1.4,2.3,1.4s2.3-0.4,2.3-1.4C52.9,178.7,51.9,178.3,50.6,178.3z M50.6,187.3
		c-1.2,0-2.2,0.7-2.2,2s1,2,2.2,2s2.2-0.7,2.2-2S51.8,187.3,50.6,187.3z"/>
	<path class="st1" d="M66.5,181.6c-1.3,0-2.8-0.5-2.8-2c0-1.4,1.4-2,2.8-2s2.8,0.6,2.8,2C69.2,181.1,67.8,181.6,66.5,181.6z
		 M68.8,185.8c-0.9-0.9-2.4-2.5-3.6-2.5c-0.7,0-1,0.4-1,0.9c0,0.6,0.3,0.9,0.5,1.2l-0.4,0.3c-0.4-0.3-0.7-0.8-0.7-1.5
		c0-0.9,0.5-1.6,1.4-1.6c1.2,0,2.5,1.3,3.5,2.3c0,0,0-0.3,0-0.6v-1.8h0.5v3.3H68.8z M69.2,189.3c0,1.6-1.3,2.5-2.8,2.5
		c-1.5,0-2.8-1-2.8-2.6s1.3-2.6,2.8-2.6c1.3,0,2.4,0.7,2.7,2c0.5-0.4,0.8-0.7,0.8-1.4c0-0.3-0.1-0.6-0.2-0.6l0.5-0.2
		c0.1,0.2,0.3,0.5,0.3,0.9C70.4,188,70.1,188.6,69.2,189.3z M69.2,195.8l-0.5-0.1c0-0.1,0.1-0.3,0.1-0.7c0-1-0.4-1.5-1.1-1.5
		c-0.8,0-1.1,0.7-1.1,1.7H66c0-0.8-0.4-1.6-1.1-1.6c-0.4,0-0.7,0.3-0.7,0.9c0,0.5,0.2,0.8,0.4,1.1l-0.4,0.3
		c-0.2-0.3-0.5-0.8-0.5-1.4c0-1,0.5-1.5,1.2-1.5c0.7,0,1.1,0.6,1.3,1.2h0c0.1-0.7,0.6-1.3,1.4-1.3c1.1,0,1.7,0.9,1.7,2.1
		C69.2,195.4,69.2,195.7,69.2,195.8z M66.5,178.3c-1.3,0-2.3,0.4-2.3,1.4c0,1,1,1.4,2.3,1.4s2.3-0.4,2.3-1.4
		C68.7,178.7,67.7,178.3,66.5,178.3z M66.5,187.3c-1.2,0-2.2,0.7-2.2,2s1,2,2.2,2s2.2-0.7,2.2-2S67.7,187.3,66.5,187.3z"/>
	<path class="st1" d="M82.3,181.6c-1.3,0-2.8-0.5-2.8-2c0-1.4,1.4-2,2.8-2s2.8,0.6,2.8,2C85.1,181.1,83.7,181.6,82.3,181.6z
		 M84.7,185.8c-0.9-0.9-2.4-2.5-3.6-2.5c-0.7,0-1,0.4-1,0.9c0,0.6,0.3,0.9,0.5,1.2l-0.4,0.3c-0.4-0.3-0.7-0.8-0.7-1.5
		c0-0.9,0.5-1.6,1.4-1.6c1.2,0,2.5,1.3,3.5,2.3c0,0,0-0.3,0-0.6v-1.8H85v3.3H84.7z M85.1,189.3c0,1.6-1.3,2.5-2.8,2.5
		c-1.5,0-2.8-1-2.8-2.6s1.3-2.6,2.8-2.6c1.3,0,2.4,0.7,2.7,2c0.5-0.4,0.8-0.7,0.8-1.4c0-0.3-0.1-0.6-0.2-0.6l0.5-0.2
		c0.1,0.2,0.3,0.5,0.3,0.9C86.3,188,86,188.6,85.1,189.3z M83.8,193.9v2.5h-0.5l-3.6-2.4v-0.6h3.6v-0.8h0.5v0.8H85v0.6H83.8z
		 M82.3,178.3c-1.3,0-2.3,0.4-2.3,1.4c0,1,1,1.4,2.3,1.4s2.3-0.4,2.3-1.4C84.6,178.7,83.6,178.3,82.3,178.3z M82.3,187.3
		c-1.2,0-2.2,0.7-2.2,2s1,2,2.2,2s2.2-0.7,2.2-2S83.5,187.3,82.3,187.3z M83.3,195.1v-1.2h-2.7v0l2.8,1.8
		C83.3,195.6,83.3,195.3,83.3,195.1z"/>
	<path class="st1" d="M100.8,183.7c-0.9-0.9-2.4-2.5-3.6-2.5c-0.7,0-1,0.4-1,0.9c0,0.6,0.3,0.9,0.5,1.2l-0.4,0.3
		c-0.4-0.3-0.7-0.8-0.7-1.5c0-0.9,0.5-1.6,1.4-1.6c1.2,0,2.5,1.3,3.5,2.3c0,0,0-0.3,0-0.6v-1.8h0.5v3.3H100.8z M101.3,187.2
		c0,1.6-1.3,2.5-2.8,2.5c-1.5,0-2.8-1-2.8-2.6s1.3-2.6,2.8-2.6c1.3,0,2.4,0.7,2.7,2c0.5-0.4,0.8-0.7,0.8-1.4c0-0.3-0.1-0.6-0.2-0.6
		l0.5-0.2c0.1,0.2,0.3,0.5,0.3,0.9C102.5,185.9,102.2,186.5,101.3,187.2z M96.4,178.6l0.3,1l-0.5,0.1l-0.4-1.3V178h5.3v0.6H96.4z
		 M96.4,191.7l0.3,1l-0.5,0.1l-0.4-1.3v-0.5h5.3v0.6H96.4z M98.5,185.2c-1.2,0-2.2,0.7-2.2,2s1,2,2.2,2s2.2-0.7,2.2-2
		S99.7,185.2,98.5,185.2z"/>
	<path class="st1" d="M117.3,183.7c-0.9-0.9-2.4-2.5-3.6-2.5c-0.7,0-1,0.4-1,0.9c0,0.6,0.3,0.9,0.5,1.2l-0.4,0.3
		c-0.4-0.3-0.7-0.8-0.7-1.5c0-0.9,0.5-1.6,1.4-1.6c1.2,0,2.5,1.3,3.5,2.3c0,0,0-0.3,0-0.6v-1.8h0.5v3.3H117.3z M117.7,187.2
		c0,1.6-1.3,2.5-2.8,2.5c-1.5,0-2.8-1-2.8-2.6s1.3-2.6,2.8-2.6c1.3,0,2.4,0.7,2.7,2c0.5-0.4,0.8-0.7,0.8-1.4c0-0.3-0.1-0.6-0.2-0.6
		l0.5-0.2c0.1,0.2,0.3,0.5,0.3,0.9C118.9,185.9,118.6,186.5,117.7,187.2z M117.3,194c-0.9-0.9-2.4-2.5-3.6-2.5c-0.7,0-1,0.4-1,0.9
		c0,0.6,0.3,0.9,0.5,1.2l-0.4,0.3c-0.4-0.3-0.7-0.8-0.7-1.5c0-0.9,0.5-1.6,1.4-1.6c1.2,0,2.5,1.3,3.5,2.3c0,0,0-0.3,0-0.6v-1.8h0.5
		v3.3H117.3z M112.8,178.6l0.3,1l-0.5,0.1l-0.4-1.3V178h5.3v0.6H112.8z M114.9,185.2c-1.2,0-2.2,0.7-2.2,2s1,2,2.2,2s2.2-0.7,2.2-2
		S116.1,185.2,114.9,185.2z"/>
	<path class="st1" d="M132.9,183.7c-0.9-0.9-2.4-2.5-3.6-2.5c-0.7,0-1,0.4-1,0.9c0,0.6,0.3,0.9,0.5,1.2l-0.4,0.3
		c-0.4-0.3-0.7-0.8-0.7-1.5c0-0.9,0.5-1.6,1.4-1.6c1.2,0,2.5,1.3,3.5,2.3c0,0,0-0.3,0-0.6v-1.8h0.5v3.3H132.9z M133.3,187.2
		c0,1.6-1.3,2.5-2.8,2.5c-1.5,0-2.8-1-2.8-2.6s1.3-2.6,2.8-2.6c1.3,0,2.4,0.7,2.7,2c0.5-0.4,0.8-0.7,0.8-1.4c0-0.3-0.1-0.6-0.2-0.6
		l0.5-0.2c0.1,0.2,0.3,0.5,0.3,0.9C134.5,185.9,134.2,186.5,133.3,187.2z M133.2,193.7l-0.5-0.1c0-0.1,0.1-0.3,0.1-0.7
		c0-1-0.4-1.5-1.1-1.5c-0.8,0-1.1,0.7-1.1,1.7h-0.4c0-0.8-0.4-1.6-1.1-1.6c-0.4,0-0.7,0.3-0.7,0.9c0,0.5,0.2,0.8,0.4,1.1l-0.4,0.3
		c-0.2-0.3-0.5-0.8-0.5-1.4c0-1,0.5-1.5,1.2-1.5c0.7,0,1.1,0.6,1.3,1.2h0c0.1-0.7,0.6-1.3,1.4-1.3c1.1,0,1.7,0.9,1.7,2.1
		C133.3,193.3,133.2,193.6,133.2,193.7z M128.4,178.6l0.3,1l-0.5,0.1l-0.4-1.3V178h5.3v0.6H128.4z M130.5,185.2
		c-1.2,0-2.2,0.7-2.2,2s1,2,2.2,2s2.2-0.7,2.2-2S131.7,185.2,130.5,185.2z"/>
	<path class="st1" d="M148.4,187.9c-0.9-0.9-2.4-2.5-3.6-2.5c-0.7,0-1,0.4-1,0.9c0,0.6,0.3,0.9,0.5,1.2l-0.4,0.3
		c-0.4-0.3-0.7-0.8-0.7-1.5c0-0.9,0.5-1.6,1.4-1.6c1.2,0,2.5,1.3,3.5,2.3c0,0,0-0.3,0-0.6v-1.8h0.5v3.3H148.4z M148.9,191.4
		c0,1.6-1.3,2.5-2.8,2.5c-1.5,0-2.8-1-2.8-2.6s1.3-2.6,2.8-2.6c1.3,0,2.4,0.7,2.7,2c0.5-0.4,0.8-0.7,0.8-1.4c0-0.3-0.1-0.6-0.2-0.6
		l0.5-0.2c0.1,0.2,0.3,0.5,0.3,0.9C150.1,190.1,149.8,190.7,148.9,191.4z M143.5,180.5v-2.7h0.5v2.1h1.7v-1.9h0.5v1.9h2v-2.2h0.5
		v2.8H143.5z M144,182.8l0.3,1l-0.5,0.1l-0.4-1.3v-0.5h5.3v0.6H144z M147.6,196v2.5h-0.5l-3.6-2.4v-0.6h3.6v-0.8h0.5v0.8h1.2v0.6
		H147.6z M146.1,189.4c-1.2,0-2.2,0.7-2.2,2s1,2,2.2,2s2.2-0.7,2.2-2S147.3,189.4,146.1,189.4z M147,197.2v-1.2h-2.7v0l2.8,1.8
		C147.1,197.8,147,197.5,147,197.2z"/>
	<path class="st1" d="M164.3,185.1c-0.9-0.9-2.4-2.5-3.6-2.5c-0.7,0-1,0.4-1,0.9c0,0.6,0.3,0.9,0.5,1.2l-0.4,0.3
		c-0.4-0.3-0.7-0.8-0.7-1.5c0-0.9,0.5-1.6,1.4-1.6c1.2,0,2.5,1.3,3.5,2.3c0,0,0-0.3,0-0.6v-1.8h0.5v3.3H164.3z M164.3,189.2
		c-0.9-0.9-2.4-2.5-3.6-2.5c-0.7,0-1,0.4-1,0.9c0,0.6,0.3,0.9,0.5,1.2l-0.4,0.3c-0.4-0.3-0.7-0.8-0.7-1.5c0-0.9,0.5-1.6,1.4-1.6
		c1.2,0,2.5,1.3,3.5,2.3c0,0,0-0.3,0-0.6v-1.8h0.5v3.3H164.3z M164.8,192.7c0,1.6-1.3,2.5-2.8,2.5c-1.5,0-2.8-1-2.8-2.6
		s1.3-2.6,2.8-2.6c1.3,0,2.4,0.7,2.7,2c0.5-0.4,0.8-0.7,0.8-1.4c0-0.3-0.1-0.6-0.2-0.6l0.5-0.2c0.1,0.2,0.3,0.5,0.3,0.9
		C166,191.4,165.7,192,164.8,192.7z M159.3,180.5v-2.7h0.5v2.1h1.7v-1.9h0.5v1.9h2v-2.2h0.5v2.8H159.3z M159.9,197.1l0.3,1l-0.5,0.1
		l-0.4-1.3v-0.5h5.3v0.6H159.9z M162,190.6c-1.2,0-2.2,0.7-2.2,2s1,2,2.2,2s2.2-0.7,2.2-2S163.2,190.6,162,190.6z"/>
	<path class="st1" d="M180.5,185.1c-0.9-0.9-2.4-2.5-3.6-2.5c-0.7,0-1,0.4-1,0.9c0,0.6,0.3,0.9,0.5,1.2l-0.4,0.3
		c-0.4-0.3-0.7-0.8-0.7-1.5c0-0.9,0.5-1.6,1.4-1.6c1.2,0,2.5,1.3,3.5,2.3c0,0,0-0.3,0-0.6v-1.8h0.5v3.3H180.5z M180.5,189.2
		c-0.9-0.9-2.4-2.5-3.6-2.5c-0.7,0-1,0.4-1,0.9c0,0.6,0.3,0.9,0.5,1.2l-0.4,0.3c-0.4-0.3-0.7-0.8-0.7-1.5c0-0.9,0.5-1.6,1.4-1.6
		c1.2,0,2.5,1.3,3.5,2.3c0,0,0-0.3,0-0.6v-1.8h0.5v3.3H180.5z M180.9,192.7c0,1.6-1.3,2.5-2.8,2.5c-1.5,0-2.8-1-2.8-2.6
		s1.3-2.6,2.8-2.6c1.3,0,2.4,0.7,2.7,2c0.5-0.4,0.8-0.7,0.8-1.4c0-0.3-0.1-0.6-0.2-0.6l0.5-0.2c0.1,0.2,0.3,0.5,0.3,0.9
		C182.1,191.4,181.8,192,180.9,192.7z M180.5,199.4c-0.9-0.9-2.4-2.5-3.6-2.5c-0.7,0-1,0.4-1,0.9c0,0.6,0.3,0.9,0.5,1.2l-0.4,0.3
		c-0.4-0.3-0.7-0.8-0.7-1.5c0-0.9,0.5-1.6,1.4-1.6c1.2,0,2.5,1.3,3.5,2.3c0,0,0-0.3,0-0.6v-1.8h0.5v3.3H180.5z M175.5,180.5v-2.7
		h0.5v2.1h1.7v-1.9h0.5v1.9h2v-2.2h0.5v2.8H175.5z M178.2,190.6c-1.2,0-2.2,0.7-2.2,2s1,2,2.2,2s2.2-0.7,2.2-2
		S179.4,190.6,178.2,190.6z"/>
	<path class="st1" d="M196.1,185.1c-0.9-0.9-2.4-2.5-3.6-2.5c-0.7,0-1,0.4-1,0.9c0,0.6,0.3,0.9,0.5,1.2l-0.4,0.3
		c-0.4-0.3-0.7-0.8-0.7-1.5c0-0.9,0.5-1.6,1.4-1.6c1.2,0,2.5,1.3,3.5,2.3c0,0,0-0.3,0-0.6v-1.8h0.5v3.3H196.1z M196.1,189.2
		c-0.9-0.9-2.4-2.5-3.6-2.5c-0.7,0-1,0.4-1,0.9c0,0.6,0.3,0.9,0.5,1.2l-0.4,0.3c-0.4-0.3-0.7-0.8-0.7-1.5c0-0.9,0.5-1.6,1.4-1.6
		c1.2,0,2.5,1.3,3.5,2.3c0,0,0-0.3,0-0.6v-1.8h0.5v3.3H196.1z M196.5,192.7c0,1.6-1.3,2.5-2.8,2.5c-1.5,0-2.8-1-2.8-2.6
		s1.3-2.6,2.8-2.6c1.3,0,2.4,0.7,2.7,2c0.5-0.4,0.8-0.7,0.8-1.4c0-0.3-0.1-0.6-0.2-0.6l0.5-0.2c0.1,0.2,0.3,0.5,0.3,0.9
		C197.7,191.4,197.4,192,196.5,192.7z M196.4,199.1l-0.5-0.1c0-0.1,0.1-0.3,0.1-0.7c0-1-0.4-1.5-1.1-1.5c-0.8,0-1.1,0.7-1.1,1.7
		h-0.4c0-0.8-0.4-1.6-1.1-1.6c-0.4,0-0.7,0.3-0.7,0.9c0,0.5,0.2,0.8,0.4,1.1l-0.4,0.3c-0.2-0.3-0.5-0.8-0.5-1.4c0-1,0.5-1.5,1.2-1.5
		c0.7,0,1.1,0.6,1.3,1.2h0c0.1-0.7,0.6-1.3,1.4-1.3c1.1,0,1.7,0.9,1.7,2.1C196.5,198.8,196.5,199,196.4,199.1z M191.1,180.5v-2.7
		h0.5v2.1h1.7v-1.9h0.5v1.9h2v-2.2h0.5v2.8H191.1z M193.8,190.6c-1.2,0-2.2,0.7-2.2,2s1,2,2.2,2s2.2-0.7,2.2-2
		S195,190.6,193.8,190.6z"/>
	<path class="st1" d="M212.5,185.1c-0.9-0.9-2.4-2.5-3.6-2.5c-0.7,0-1,0.4-1,0.9c0,0.6,0.3,0.9,0.5,1.2l-0.4,0.3
		c-0.4-0.3-0.7-0.8-0.7-1.5c0-0.9,0.5-1.6,1.4-1.6c1.2,0,2.5,1.3,3.5,2.3c0,0,0-0.3,0-0.6v-1.8h0.5v3.3H212.5z M212.5,189.2
		c-0.9-0.9-2.4-2.5-3.6-2.5c-0.7,0-1,0.4-1,0.9c0,0.6,0.3,0.9,0.5,1.2l-0.4,0.3c-0.4-0.3-0.7-0.8-0.7-1.5c0-0.9,0.5-1.6,1.4-1.6
		c1.2,0,2.5,1.3,3.5,2.3c0,0,0-0.3,0-0.6v-1.8h0.5v3.3H212.5z M212.9,192.7c0,1.6-1.3,2.5-2.8,2.5c-1.5,0-2.8-1-2.8-2.6
		s1.3-2.6,2.8-2.6c1.3,0,2.4,0.7,2.7,2c0.5-0.4,0.8-0.7,0.8-1.4c0-0.3-0.1-0.6-0.2-0.6l0.5-0.2c0.1,0.2,0.3,0.5,0.3,0.9
		C214.1,191.4,213.8,192,212.9,192.7z M207.5,180.5v-2.7h0.5v2.1h1.7v-1.9h0.5v1.9h2v-2.2h0.5v2.8H207.5z M211.6,197.3v2.5h-0.5
		l-3.6-2.4v-0.6h3.6V196h0.5v0.8h1.2v0.6H211.6z M210.2,190.6c-1.2,0-2.2,0.7-2.2,2s1,2,2.2,2s2.2-0.7,2.2-2
		S211.4,190.6,210.2,190.6z M211.1,198.5v-1.2h-2.7v0l2.8,1.8C211.1,199,211.1,198.7,211.1,198.5z"/>
	<line class="st0" x1="35.1" y1="173.3" x2="35.1" y2="169.6"/>
	<line class="st0" x1="130.8" y1="173.3" x2="130.8" y2="169.6"/>
	<line class="st0" x1="114.9" y1="173.3" x2="114.9" y2="169.6"/>
	<line class="st0" x1="98.7" y1="173.3" x2="98.7" y2="169.6"/>
	<line class="st0" x1="82.9" y1="173.3" x2="82.9" y2="169.6"/>
	<line class="st0" x1="67" y1="173.3" x2="67" y2="169.6"/>
	<line class="st0" x1="51.1" y1="173.3" x2="51.1" y2="169.6"/>
	<line class="st0" x1="209.9" y1="173.3" x2="209.9" y2="169.6"/>
	<line class="st0" x1="177.9" y1="173.3" x2="177.9" y2="169.6"/>
	<line class="st0" x1="193.9" y1="173.3" x2="193.9" y2="169.6"/>
	<line class="st0" x1="162" y1="173.3" x2="162" y2="169.6"/>
	<line class="st0" x1="146.1" y1="173.3" x2="146.1" y2="169.6"/>
	<line class="st0" x1="26.9" y1="16.8" x2="218.3" y2="16.8"/>
	<line class="st0" x1="26.9" y1="47.4" x2="218.3" y2="47.4"/>
	<line class="st0" x1="26.9" y1="78.1" x2="218.3" y2="78.1"/>
	<line class="st0" x1="26.9" y1="138.7" x2="218.3" y2="138.7"/>
	<line class="st0" x1="26.9" y1="169.6" x2="218.3" y2="169.6"/>
	<rect x="32.6" y="58.8" class="st2" width="5" height="49"/>
	<rect x="48.6" y="33.5" class="st2" width="5" height="74.3"/>
	<rect x="64.5" y="108.2" class="st2" width="5" height="24.9"/>
	<rect x="80.4" y="108.2" class="st2" width="5" height="27.1"/>
	<rect x="96.3" y="108.2" class="st2" width="5" height="18.9"/>
	<rect x="112.4" y="108.2" class="st2" width="5" height="18.9"/>
	<rect x="128.3" y="108.2" class="st2" width="5" height="18.9"/>
	<rect x="143.6" y="108.2" class="st2" width="5" height="8"/>
	<rect x="159.5" y="108.2" class="st2" width="5" height="0.9"/>
	<rect x="175.4" y="103.7" class="st2" width="5" height="4.2"/>
	<rect x="191.4" y="105" class="st2" width="5" height="2.9"/>
	<rect x="207.4" y="100.4" class="st2" width="5" height="7.4"/>
	<line class="st0" x1="26.9" y1="108.1" x2="218.3" y2="108.1"/>
	<polyline class="st3" points="35.2,82.7 51.4,46.4 67.4,52.6 82.4,73.9 98.4,91.5 114.4,97.7 130.4,111.5 146.4,116.3 162.4,115.3 
		178.4,105.3 194.4,102.8 209.9,101.5 	"/>
</g>
<path class="st1" d="M8.9,226.3c0-1.5,1-2.8,2.6-2.8s2.6,1.3,2.6,2.8c0,1.5-1,2.8-2.6,2.8S8.9,227.8,8.9,226.3z M13.5,226.3
	c0-1.2-0.7-2.2-2-2.2s-2,1-2,2.2c0,1.2,0.7,2.2,2,2.2C12.8,228.5,13.5,227.5,13.5,226.3z"/>
<path class="st1" d="M15.1,224c0-0.2,0.2-0.4,0.4-0.4s0.4,0.2,0.4,0.4s-0.2,0.4-0.4,0.4S15.1,224.2,15.1,224z M15.2,225.1h0.6v3.8
	h-0.6V225.1z"/>
<path class="st1" d="M17.2,223.2h0.6v5.8h-0.6V223.2z"/>
<path class="st1" d="M21,223.6h1.3c1.1,0,1.9,0.5,1.9,1.5c0,1-0.7,1.6-2,1.6h-0.6v2.2H21V223.6z M22.3,226.3c0.9,0,1.3-0.4,1.3-1.1
	c0-0.6-0.4-1-1.3-1h-0.6v2.1H22.3z"/>
<path class="st1" d="M25.2,225.1h0.6v0.6c0.2-0.3,0.5-0.7,1-0.7c0.2,0,0.4,0.1,0.4,0.1l-0.1,0.6c0,0-0.1-0.1-0.3-0.1
	c-0.6,0-0.9,0.7-0.9,0.8v2.6h-0.6V225.1z"/>
<path class="st1" d="M27.6,227c0-0.9,0.5-2,1.8-2s1.8,1.1,1.8,2s-0.5,2-1.8,2C28.1,229,27.6,227.9,27.6,227z M30.6,227
	c0-0.8-0.4-1.5-1.2-1.5c-0.8,0-1.1,0.7-1.1,1.5s0.4,1.5,1.2,1.5C30.2,228.5,30.6,227.9,30.6,227z"/>
<path class="st1" d="M31.8,227c0-1.2,0.7-2,1.7-2c0.4,0,0.7,0.1,1,0.3v-2.2h0.6v5c0,0.3,0,0.6,0.1,0.8h-0.6c0-0.1-0.1-0.3-0.1-0.4
	c-0.3,0.3-0.6,0.5-1.1,0.5C32.5,229,31.8,228.3,31.8,227z M34.5,228v-2.1c-0.2-0.2-0.5-0.4-0.9-0.4c-0.7,0-1.1,0.6-1.1,1.5
	c0,0.9,0.3,1.5,1.1,1.5C33.9,228.5,34.3,228.3,34.5,228z"/>
<path class="st1" d="M36.3,227.8v-2.7h0.6v2.6c0,0.5,0.2,0.8,0.7,0.8c0.6,0,1-0.6,1.1-0.7v-2.7h0.6v3c0,0.3,0,0.7,0.1,0.8h-0.6
	c0-0.1,0-0.4-0.1-0.6c-0.2,0.2-0.6,0.7-1.2,0.7C36.6,229,36.3,228.5,36.3,227.8z"/>
<path class="st1" d="M40.3,227c0-1.3,0.8-2,1.8-2c0.6,0,1,0.2,1.2,0.4l-0.3,0.4c-0.2-0.2-0.5-0.3-0.9-0.3c-0.8,0-1.1,0.7-1.1,1.5
	c0,0.8,0.4,1.5,1.2,1.5c0.5,0,0.8-0.2,0.9-0.3l0.2,0.4c-0.2,0.1-0.5,0.4-1.2,0.4C40.9,229,40.3,228.1,40.3,227z"/>
<path class="st1" d="M44.3,228v-2.5h-0.6v-0.5h0.6V224h0.6v1.1h1v0.5h-1v2.4c0,0.4,0.1,0.6,0.4,0.6c0.2,0,0.5-0.1,0.5-0.2l0.2,0.4
	c-0.1,0.1-0.4,0.2-0.8,0.2C44.6,229,44.3,228.7,44.3,228z"/>
<path class="st1" d="M46.8,224c0-0.2,0.2-0.4,0.4-0.4s0.4,0.2,0.4,0.4s-0.2,0.4-0.4,0.4S46.8,224.2,46.8,224z M47,225.1h0.6v3.8H47
	V225.1z"/>
<path class="st1" d="M48.6,227c0-0.9,0.5-2,1.8-2s1.8,1.1,1.8,2s-0.5,2-1.8,2S48.6,227.9,48.6,227z M51.6,227c0-0.8-0.4-1.5-1.2-1.5
	c-0.8,0-1.1,0.7-1.1,1.5s0.4,1.5,1.2,1.5C51.2,228.5,51.6,227.9,51.6,227z"/>
<path class="st1" d="M53.2,225.1h0.6v0.6c0.3-0.4,0.8-0.6,1.2-0.6c0.8,0,1.1,0.5,1.1,1.2v2.7h-0.6v-2.6c0-0.5-0.2-0.8-0.7-0.8
	c-0.4,0-0.8,0.3-1.1,0.7v2.7h-0.6V225.1z"/>
<path class="st1" d="M58.9,228.5l0.3-0.4c0.1,0.1,0.5,0.5,1.2,0.5c0.7,0,1.1-0.4,1.1-0.9c0-0.6-0.6-0.9-1.2-1.2
	c-0.6-0.3-1.2-0.7-1.2-1.5c0-0.9,0.7-1.4,1.6-1.4c0.8,0,1.2,0.3,1.4,0.4l-0.3,0.5c-0.2-0.1-0.5-0.4-1.1-0.4c-0.5,0-0.9,0.3-0.9,0.8
	c0,0.5,0.4,0.8,1,1c0.7,0.3,1.5,0.7,1.5,1.7c0,0.8-0.7,1.4-1.7,1.4C59.6,229,59.1,228.7,58.9,228.5z"/>
<path class="st1" d="M63.1,227.8v-2.7h0.6v2.6c0,0.5,0.2,0.8,0.7,0.8c0.6,0,1-0.6,1.1-0.7v-2.7h0.6v3c0,0.3,0,0.7,0.1,0.8h-0.6
	c0-0.1,0-0.4-0.1-0.6c-0.2,0.2-0.6,0.7-1.2,0.7C63.5,229,63.1,228.5,63.1,227.8z"/>
<path class="st1" d="M67.4,225.1H68v0.6c0.2-0.3,0.5-0.7,1-0.7c0.2,0,0.4,0.1,0.4,0.1l-0.1,0.6c0,0-0.1-0.1-0.3-0.1
	c-0.6,0-0.9,0.7-0.9,0.8v2.6h-0.6V225.1z"/>
<path class="st1" d="M70.2,225.1h0.6v0.4c0.2-0.2,0.6-0.5,1.1-0.5c0.9,0,1.6,0.7,1.6,2c0,1.2-0.7,2-1.7,2c-0.5,0-0.8-0.2-1-0.3v2
	h-0.6V225.1z M72.8,227c0-0.9-0.3-1.5-1.1-1.5c-0.5,0-0.9,0.4-1,0.5v2.1c0.2,0.2,0.4,0.4,0.9,0.4C72.4,228.5,72.8,227.9,72.8,227z"
	/>
<path class="st1" d="M74.4,223.2H75v5.8h-0.6V223.2z"/>
<path class="st1" d="M76.3,227.8v-2.7h0.6v2.6c0,0.5,0.2,0.8,0.7,0.8c0.6,0,1-0.6,1.1-0.7v-2.7h0.6v3c0,0.3,0,0.7,0.1,0.8h-0.6
	c0-0.1,0-0.4-0.1-0.6c-0.2,0.2-0.6,0.7-1.2,0.7C76.6,229,76.3,228.5,76.3,227.8z"/>
<path class="st1" d="M80.2,228.7l0.3-0.4c0.1,0.1,0.5,0.3,1,0.3c0.5,0,0.8-0.2,0.8-0.6c0-0.4-0.3-0.5-0.8-0.7
	c-0.6-0.3-1.1-0.5-1.1-1.2c0-0.6,0.4-1.1,1.2-1.1c0.6,0,1,0.3,1.1,0.4l-0.3,0.4c-0.1-0.1-0.4-0.3-0.9-0.3c-0.4,0-0.6,0.2-0.6,0.5
	c0,0.4,0.3,0.5,0.7,0.7c0.6,0.3,1.2,0.5,1.2,1.2c0,0.7-0.5,1.1-1.4,1.1C80.9,229,80.5,228.8,80.2,228.7z"/>
<path class="st1" d="M85.4,226.7c0-1.3,0.6-2.6,1.4-3.5h0.6c-0.7,0.7-1.4,1.9-1.4,3.5c0,1.5,0.5,2.7,1.4,3.7h-0.6
	C85.9,229.4,85.4,228.1,85.4,226.7z"/>
<path class="st1" d="M88.2,223.6h1.2c2.1,0,3,1.1,3,2.6s-0.9,2.7-3.1,2.7h-1.2V223.6z M89.5,228.4c1.5,0,2.3-0.8,2.3-2.2
	c0-1.4-0.8-2.1-2.4-2.1h-0.6v4.3H89.5z"/>
<path class="st1" d="M93.2,227c0-1.1,0.7-2,1.7-2c1,0,1.5,0.7,1.5,1.7c0,0.1,0,0.2,0,0.3h-2.6c0,0.8,0.3,1.5,1.2,1.5
	c0.5,0,0.9-0.2,1.1-0.3l0.2,0.5c-0.2,0.1-0.6,0.4-1.3,0.4C93.8,229,93.2,228.1,93.2,227z M95.8,226.5c0-0.5-0.3-1-0.9-1
	c-0.6,0-1,0.4-1.1,1H95.8z"/>
<path class="st1" d="M97.6,225.6H97v-0.5h0.6v-0.5c0-0.9,0.5-1.5,1.5-1.5c0.7,0,1,0.2,1.2,0.4l-0.3,0.5c-0.2-0.1-0.5-0.3-1-0.3
	c-0.6,0-0.9,0.4-0.9,1v0.5h2.2v3.8h-0.6v-3.4h-1.6v3.4h-0.6V225.6z"/>
<path class="st1" d="M101.4,227c0-1.3,0.8-2,1.8-2c0.6,0,1,0.2,1.2,0.4l-0.3,0.4c-0.2-0.2-0.5-0.3-0.9-0.3c-0.8,0-1.1,0.7-1.1,1.5
	c0,0.8,0.4,1.5,1.2,1.5c0.5,0,0.8-0.2,0.9-0.3l0.2,0.4c-0.2,0.1-0.5,0.4-1.2,0.4C102,229,101.4,228.1,101.4,227z"/>
<path class="st1" d="M105.2,224c0-0.2,0.2-0.4,0.4-0.4c0.2,0,0.4,0.2,0.4,0.4s-0.2,0.4-0.4,0.4C105.4,224.4,105.2,224.2,105.2,224z
	 M105.3,225.1h0.6v3.8h-0.6V225.1z"/>
<path class="st1" d="M107.5,228v-2.5h-0.6v-0.5h0.6V224h0.6v1.1h1v0.5h-1v2.4c0,0.4,0.1,0.6,0.4,0.6c0.2,0,0.5-0.1,0.5-0.2l0.2,0.4
	c-0.1,0.1-0.4,0.2-0.8,0.2C107.8,229,107.5,228.7,107.5,228z"/>
<path class="st1" d="M110.9,226.9c0-1.5-0.5-2.7-1.4-3.7h0.6c0.9,1,1.4,2.3,1.4,3.7c0,1.4-0.6,2.6-1.4,3.5h-0.6
	C110.1,229.7,110.9,228.4,110.9,226.9z"/>
<path class="st1" d="M114.1,226.7c0-1.3,0.6-2.6,1.4-3.5h0.6c-0.7,0.7-1.4,1.9-1.4,3.5c0,1.5,0.5,2.7,1.4,3.7h-0.6
	C114.7,229.4,114.1,228.1,114.1,226.7z"/>
<path class="st1" d="M116.8,225.1h0.6v0.5c0.2-0.2,0.5-0.6,1.2-0.6c0.6,0,0.9,0.3,1,0.6c0.3-0.3,0.7-0.6,1.2-0.6
	c0.8,0,1.1,0.5,1.1,1.2v2.7h-0.6v-2.6c0-0.5-0.1-0.8-0.6-0.8c-0.5,0-0.8,0.4-1,0.6v2.8h-0.6v-2.6c0-0.5-0.2-0.8-0.6-0.8
	c-0.6,0-1,0.6-1,0.7v2.7h-0.6V225.1z"/>
<path class="st1" d="M123.1,228.7v-5.6h0.6v2.2c0.2-0.2,0.6-0.4,1-0.4c1,0,1.7,0.8,1.7,2c0,1.2-0.8,2-1.9,2
	C123.9,229,123.4,228.9,123.1,228.7z M125.7,227c0-0.8-0.3-1.5-1.1-1.5c-0.3,0-0.7,0.2-0.8,0.4v2.5c0.2,0.1,0.4,0.1,0.7,0.1
	C125.3,228.5,125.7,227.8,125.7,227z"/>
<path class="st1" d="M128.9,223.6h0.6l-1.9,5.3h-0.6L128.9,223.6z"/>
<path class="st1" d="M129.6,227c0-1.2,0.7-2,1.7-2c0.4,0,0.7,0.1,1,0.3v-2.2h0.6v5c0,0.3,0,0.6,0.1,0.8h-0.6c0-0.1-0.1-0.3-0.1-0.4
	c-0.3,0.3-0.6,0.5-1.1,0.5C130.3,229,129.6,228.3,129.6,227z M132.3,228v-2.1c-0.2-0.2-0.5-0.4-0.9-0.4c-0.7,0-1.1,0.6-1.1,1.5
	c0,0.9,0.3,1.5,1.1,1.5C131.7,228.5,132,228.3,132.3,228z"/>
<path class="st1" d="M134.9,226.9c0-1.5-0.5-2.7-1.4-3.7h0.6c0.9,1,1.4,2.3,1.4,3.7c0,1.4-0.6,2.6-1.4,3.5h-0.6
	C134.2,229.7,134.9,228.4,134.9,226.9z"/>
<path class="st1" d="M136.7,229.2c0-0.3-0.4-0.3-0.4-0.7c0-0.2,0.2-0.4,0.4-0.4c0.3,0,0.5,0.2,0.5,0.6c0,0.4-0.2,0.9-0.5,1.4h-0.4
	C136.6,229.7,136.7,229.4,136.7,229.2z"/>
<path class="st1" d="M140.3,223.6h0.6v4.8h2.1v0.5h-2.7V223.6z"/>
<path class="st1" d="M143.7,228.5c0-0.3,0.2-0.5,0.5-0.5c0.3,0,0.5,0.2,0.5,0.5c0,0.3-0.2,0.5-0.5,0.5
	C144,229,143.7,228.8,143.7,228.5z"/>
<path class="st1" d="M145.9,223.6h0.6v2.3h3v-2.3h0.6v5.3h-0.6v-2.5h-3v2.5h-0.6V223.6z"/>
<path class="st1" d="M151.3,228.5c0-0.3,0.2-0.5,0.5-0.5c0.3,0,0.5,0.2,0.5,0.5c0,0.3-0.2,0.5-0.5,0.5
	C151.5,229,151.3,228.8,151.3,228.5z"/>
<path class="st1" d="M153,228.5l0.3-0.4c0.1,0.1,0.5,0.5,1.2,0.5c0.7,0,1.1-0.4,1.1-0.9c0-0.6-0.6-0.9-1.2-1.2
	c-0.6-0.3-1.2-0.7-1.2-1.5c0-0.9,0.7-1.4,1.6-1.4c0.8,0,1.2,0.3,1.4,0.4l-0.3,0.5c-0.2-0.1-0.5-0.4-1.1-0.4c-0.5,0-0.9,0.3-0.9,0.8
	c0,0.5,0.4,0.8,1,1c0.7,0.3,1.5,0.7,1.5,1.7c0,0.8-0.7,1.4-1.7,1.4C153.7,229,153.2,228.7,153,228.5z"/>
<path class="st1" d="M157.1,228.5c0-0.3,0.2-0.5,0.5-0.5c0.3,0,0.5,0.2,0.5,0.5c0,0.3-0.2,0.5-0.5,0.5
	C157.3,229,157.1,228.8,157.1,228.5z"/>
<line class="st4" x1="0.3" y1="226.2" x2="6.4" y2="226.2"/>
<path class="st1" d="M9,238.9c0-1.5,1-2.8,2.6-2.8s2.6,1.3,2.6,2.8c0,1.5-1,2.8-2.6,2.8S9,240.4,9,238.9z M13.6,238.9
	c0-1.2-0.7-2.2-2-2.2s-2,1-2,2.2c0,1.2,0.7,2.2,2,2.2C12.9,241.1,13.6,240.1,13.6,238.9z"/>
<path class="st1" d="M15.3,236.2H18v0.5h-2.1v1.7h1.9v0.5h-1.9v2H18v0.5h-2.8V236.2z"/>
<path class="st1" d="M18.8,238.9c0-1.4,1-2.7,2.6-2.7c0.7,0,1.1,0.2,1.5,0.4l-0.3,0.5c-0.3-0.2-0.7-0.4-1.2-0.4
	c-1.3,0-1.9,1.1-1.9,2.2c0,1.2,0.6,2.3,2,2.3c0.6,0,1-0.2,1.3-0.5l0.3,0.4c-0.3,0.3-0.9,0.5-1.6,0.5
	C19.7,241.7,18.8,240.3,18.8,238.9z"/>
<path class="st1" d="M23.9,236.2h1.2c2.1,0,3,1.1,3,2.6s-0.9,2.7-3.1,2.7h-1.2V236.2z M25.2,241.1c1.5,0,2.3-0.8,2.3-2.2
	c0-1.4-0.8-2.1-2.4-2.1h-0.6v4.3H25.2z"/>
<path class="st1" d="M30.9,236.2h0.6v5.3h-0.6V236.2z"/>
<path class="st1" d="M32.8,237.7h0.6v0.6c0.3-0.4,0.8-0.6,1.2-0.6c0.8,0,1.1,0.5,1.1,1.2v2.7h-0.6v-2.6c0-0.5-0.2-0.8-0.7-0.8
	c-0.4,0-0.8,0.3-1.1,0.7v2.7h-0.6V237.7z"/>
<path class="st1" d="M36.3,237.7H37l1.1,3.1h0l1.1-3.1h0.6l-1.4,3.8h-0.5L36.3,237.7z"/>
<path class="st1" d="M40,239.6c0-1.1,0.7-2,1.7-2c1,0,1.5,0.7,1.5,1.7c0,0.1,0,0.2,0,0.3h-2.6c0,0.8,0.3,1.5,1.2,1.5
	c0.5,0,0.9-0.2,1.1-0.3l0.2,0.5c-0.2,0.1-0.6,0.4-1.3,0.4C40.6,241.7,40,240.8,40,239.6z M42.7,239.2c0-0.5-0.3-1-0.9-1
	c-0.6,0-1,0.4-1.1,1H42.7z"/>
<path class="st1" d="M44.1,237.7h0.6v0.6c0.3-0.4,0.8-0.6,1.2-0.6c0.8,0,1.1,0.5,1.1,1.2v2.7h-0.6v-2.6c0-0.5-0.2-0.8-0.7-0.8
	c-0.4,0-0.8,0.3-1.1,0.7v2.7h-0.6V237.7z"/>
<path class="st1" d="M48.4,240.7v-2.5h-0.6v-0.5h0.6v-1.1H49v1.1h1v0.5h-1v2.4c0,0.4,0.1,0.6,0.4,0.6c0.2,0,0.5-0.1,0.5-0.2l0.2,0.4
	c-0.1,0.1-0.4,0.2-0.8,0.2C48.7,241.7,48.4,241.3,48.4,240.7z"/>
<path class="st1" d="M50.5,239.7c0-0.9,0.5-2,1.8-2s1.8,1.1,1.8,2s-0.5,2-1.8,2S50.5,240.6,50.5,239.7z M53.5,239.7
	c0-0.8-0.4-1.5-1.2-1.5c-0.8,0-1.1,0.7-1.1,1.5s0.4,1.5,1.2,1.5C53.1,241.2,53.5,240.5,53.5,239.7z"/>
<path class="st1" d="M54.9,237.7h0.6v0.6c0.2-0.3,0.5-0.7,1-0.7c0.2,0,0.4,0.1,0.4,0.1l-0.1,0.6c0,0-0.1-0.1-0.3-0.1
	c-0.6,0-0.9,0.7-0.9,0.8v2.6h-0.6V237.7z"/>
<path class="st1" d="M57.1,243.4l0.1-0.5c0.1,0,0.1,0,0.3,0c0.5,0,0.8-0.3,1-0.9l0.2-0.5l-1.4-3.8h0.7l1.1,3.1h0l1.1-3.1h0.6
	l-1.6,4.3c-0.3,0.7-0.6,1.3-1.5,1.3C57.2,243.4,57.1,243.4,57.1,243.4z"/>
<path class="st1" d="M62.7,239.3c0-1.3,0.6-2.6,1.4-3.5h0.6c-0.7,0.7-1.4,1.9-1.4,3.5c0,1.5,0.5,2.7,1.4,3.7h-0.6
	C63.2,242,62.7,240.7,62.7,239.3z"/>
<path class="st1" d="M65.2,237.7h0.6v0.5c0.2-0.2,0.5-0.6,1.2-0.6c0.6,0,0.9,0.3,1,0.6c0.3-0.3,0.7-0.6,1.2-0.6
	c0.8,0,1.1,0.5,1.1,1.2v2.7h-0.6v-2.6c0-0.5-0.1-0.8-0.6-0.8c-0.5,0-0.8,0.4-1,0.6v2.8h-0.6v-2.6c0-0.5-0.2-0.8-0.6-0.8
	c-0.6,0-1,0.6-1,0.7v2.7h-0.6V237.7z"/>
<path class="st1" d="M71.3,236.6c0-0.2,0.2-0.4,0.4-0.4s0.4,0.2,0.4,0.4S72,237,71.7,237S71.3,236.8,71.3,236.6z M71.4,237.7H72v3.8
	h-0.6V237.7z"/>
<path class="st1" d="M73.3,235.8h0.6v5.8h-0.6V235.8z"/>
<path class="st1" d="M75.1,235.8h0.6v5.8h-0.6V235.8z"/>
<path class="st1" d="M76.8,236.6c0-0.2,0.2-0.4,0.4-0.4s0.4,0.2,0.4,0.4s-0.2,0.4-0.4,0.4S76.8,236.8,76.8,236.6z M76.9,237.7h0.6
	v3.8h-0.6V237.7z"/>
<path class="st1" d="M78.4,239.7c0-0.9,0.5-2,1.8-2s1.8,1.1,1.8,2s-0.5,2-1.8,2C78.8,241.7,78.4,240.6,78.4,239.7z M81.3,239.7
	c0-0.8-0.4-1.5-1.2-1.5c-0.8,0-1.1,0.7-1.1,1.5s0.4,1.5,1.2,1.5C80.9,241.2,81.3,240.5,81.3,239.7z"/>
<path class="st1" d="M82.8,237.7h0.6v0.6c0.3-0.4,0.8-0.6,1.2-0.6c0.8,0,1.1,0.5,1.1,1.2v2.7h-0.6v-2.6c0-0.5-0.2-0.8-0.7-0.8
	c-0.4,0-0.8,0.3-1.1,0.7v2.7h-0.6V237.7z"/>
<path class="st1" d="M88.5,241.4v-5.6h0.6v2.2c0.2-0.2,0.6-0.4,1-0.4c1,0,1.7,0.8,1.7,2c0,1.2-0.8,2-1.9,2
	C89.2,241.7,88.7,241.5,88.5,241.4z M91.1,239.7c0-0.8-0.3-1.5-1.1-1.5c-0.3,0-0.7,0.2-0.8,0.4v2.5c0.2,0.1,0.4,0.1,0.7,0.1
	C90.6,241.2,91.1,240.4,91.1,239.7z"/>
<path class="st1" d="M92.2,240.6c0-1,1.1-1.3,2-1.3h0.2V239c0-0.6-0.2-0.8-0.8-0.8c-0.4,0-0.7,0.1-1,0.4l-0.3-0.4
	c0.4-0.4,0.8-0.5,1.4-0.5c0.8,0,1.3,0.4,1.3,1.3v1.8c0,0.4,0,0.7,0.1,0.9h-0.6c0-0.1,0-0.3-0.1-0.5c-0.3,0.3-0.7,0.6-1.2,0.6
	C92.7,241.7,92.2,241.3,92.2,240.6z M94.4,240.6v-0.9h-0.2c-0.8,0-1.4,0.2-1.4,0.9c0,0.4,0.3,0.5,0.6,0.5
	C93.8,241.2,94.2,240.9,94.4,240.6z"/>
<path class="st1" d="M96.1,237.7h0.6v0.6c0.2-0.3,0.5-0.7,1-0.7c0.2,0,0.4,0.1,0.4,0.1l-0.1,0.6c0,0-0.1-0.1-0.3-0.1
	c-0.6,0-0.9,0.7-0.9,0.8v2.6h-0.6V237.7z"/>
<path class="st1" d="M98.7,237.7h0.6v0.6c0.2-0.3,0.5-0.7,1-0.7c0.2,0,0.4,0.1,0.4,0.1l-0.1,0.6c0,0-0.1-0.1-0.3-0.1
	c-0.6,0-0.9,0.7-0.9,0.8v2.6h-0.6V237.7z"/>
<path class="st1" d="M101,239.6c0-1.1,0.7-2,1.7-2c1,0,1.5,0.7,1.5,1.7c0,0.1,0,0.2,0,0.3h-2.6c0,0.8,0.3,1.5,1.2,1.5
	c0.5,0,0.9-0.2,1.1-0.3l0.2,0.5c-0.2,0.1-0.6,0.4-1.3,0.4C101.6,241.7,101,240.8,101,239.6z M103.6,239.2c0-0.5-0.3-1-0.9-1
	c-0.6,0-1,0.4-1.1,1H103.6z"/>
<path class="st1" d="M105.1,235.8h0.6v5.8h-0.6V235.8z"/>
<path class="st1" d="M106.5,241.3l0.3-0.4c0.1,0.1,0.5,0.3,1,0.3c0.5,0,0.8-0.2,0.8-0.6c0-0.4-0.3-0.5-0.8-0.7
	c-0.6-0.3-1.1-0.5-1.1-1.2c0-0.6,0.4-1.1,1.2-1.1c0.6,0,1,0.3,1.1,0.4l-0.3,0.4c-0.1-0.1-0.4-0.3-0.9-0.3c-0.4,0-0.6,0.2-0.6,0.5
	c0,0.4,0.3,0.5,0.7,0.7c0.6,0.3,1.2,0.5,1.2,1.2c0,0.7-0.5,1.1-1.4,1.1C107.2,241.7,106.8,241.5,106.5,241.3z"/>
<path class="st1" d="M110.7,239.5c0-1.5-0.5-2.7-1.4-3.7h0.6c0.9,1,1.4,2.3,1.4,3.7c0,1.4-0.6,2.6-1.4,3.5h-0.6
	C110,242.3,110.7,241.1,110.7,239.5z"/>
<path class="st1" d="M112.4,241.8c0-0.3-0.4-0.3-0.4-0.7c0-0.2,0.2-0.4,0.4-0.4c0.3,0,0.5,0.2,0.5,0.6c0,0.4-0.2,0.9-0.5,1.4h-0.4
	C112.3,242.4,112.4,242.1,112.4,241.8z"/>
<path class="st1" d="M115.7,236.2h1.4c1.1,0,1.8,0.5,1.8,1.4c0,0.9-0.6,1.3-1.5,1.4v0c0.1,0.1,0.2,0.2,0.6,0.7l1.3,1.8h-0.7
	l-1.1-1.5c-0.6-0.9-0.7-0.9-1.1-0.9h-0.1v2.5h-0.6V236.2z M117.1,238.6c0.8,0,1.2-0.3,1.2-0.9s-0.4-0.9-1.2-0.9h-0.8v1.8H117.1z"/>
<path class="st1" d="M119.7,241.2c0-0.3,0.2-0.5,0.5-0.5c0.3,0,0.5,0.2,0.5,0.5c0,0.3-0.2,0.5-0.5,0.5
	C119.9,241.6,119.7,241.4,119.7,241.2z"/>
<path class="st1" d="M121.7,236.2h0.6v2.3h3v-2.3h0.6v5.3h-0.6V239h-3v2.5h-0.6V236.2z"/>
<path class="st1" d="M126.9,241.2c0-0.3,0.2-0.5,0.5-0.5c0.3,0,0.5,0.2,0.5,0.5c0,0.3-0.2,0.5-0.5,0.5
	C127.2,241.6,126.9,241.4,126.9,241.2z"/>
<path class="st1" d="M128.5,241.1l0.3-0.4c0.1,0.1,0.5,0.5,1.2,0.5c0.7,0,1.1-0.4,1.1-0.9c0-0.6-0.6-0.9-1.2-1.2
	c-0.6-0.3-1.2-0.7-1.2-1.5c0-0.9,0.7-1.4,1.6-1.4c0.8,0,1.2,0.3,1.4,0.4l-0.3,0.5c-0.2-0.1-0.5-0.4-1.1-0.4c-0.5,0-0.9,0.3-0.9,0.8
	c0,0.5,0.4,0.8,1,1c0.7,0.3,1.5,0.7,1.5,1.7c0,0.8-0.7,1.4-1.7,1.4C129.2,241.7,128.7,241.3,128.5,241.1z"/>
<path class="st1" d="M132.4,241.2c0-0.3,0.2-0.5,0.5-0.5c0.3,0,0.5,0.2,0.5,0.5c0,0.3-0.2,0.5-0.5,0.5
	C132.6,241.6,132.4,241.4,132.4,241.2z"/>
<line class="st5" x1="0.4" y1="238.8" x2="6.4" y2="238.8"/>
</svg>
