<?xml version="1.0" encoding="utf-8"?>
<!-- Generator: Adobe Illustrator 26.0.1, SVG Export Plug-In . SVG Version: 6.00 Build 0)  -->
<svg version="1.1" id="Layer_3" xmlns="http://www.w3.org/2000/svg" xmlns:xlink="http://www.w3.org/1999/xlink" x="0px" y="0px"
	 viewBox="0 0 250 250" style="enable-background:new 0 0 250 250;" xml:space="preserve">
<style type="text/css">
	.st0{fill:none;stroke:#BCBEC0;stroke-width:0.5;}
	.st1{fill:none;stroke:#B19E4E;stroke-miterlimit:10;}
	.st2{fill:#4D4D4F;}
	.st3{fill:none;stroke:#B19E4E;stroke-width:1.6;}
	.st4{fill:none;stroke:#5C5B59;stroke-width:1.6;}
	.st5{fill:#B19E4E;}
	.st6{fill:none;stroke:#5C5B59;stroke-linecap:round;stroke-linejoin:round;stroke-miterlimit:10;}
</style>
<line class="st0" x1="41" y1="99.1" x2="230.3" y2="99.1"/>
<line class="st0" x1="41" y1="140.8" x2="230.3" y2="140.8"/>
<g>
	<rect x="105.8" y="69.3" class="st1" width="0.1" height="112.5"/>
	<rect x="101.6" y="78.1" class="st1" width="0.1" height="103.7"/>
	<rect x="106.6" y="70.5" class="st1" width="0.1" height="111.3"/>
	<rect x="105.2" y="70.1" class="st1" width="0.1" height="111.8"/>
	<rect x="104.5" y="64.4" class="st1" width="0.1" height="117.4"/>
	<rect x="102.3" y="66.2" class="st1" width="0.1" height="115.6"/>
	<rect x="103.1" y="57.6" class="st1" width="0.1" height="124.3"/>
	<rect x="103.8" y="58.2" class="st1" width="0.1" height="123.7"/>
	<rect x="107.3" y="80.2" class="st1" width="0.1" height="101.6"/>
	<rect x="111.6" y="83.8" class="st1" width="0.1" height="98.1"/>
	<rect x="110.9" y="91.9" class="st1" width="0.1" height="89.9"/>
	<rect x="112.2" y="86.9" class="st1" width="0.1" height="94.9"/>
	<rect x="108" y="89.6" class="st1" width="0.1" height="92.3"/>
	<rect x="110.1" y="88.2" class="st1" width="0.1" height="93.6"/>
	<rect x="108.7" y="86.4" class="st1" width="0.1" height="95.4"/>
	<rect x="109.4" y="82.3" class="st1" width="0.1" height="99.6"/>
	<rect x="93.9" y="45.8" class="st1" width="0.1" height="136"/>
	<rect x="93.2" y="41.5" class="st1" width="0.1" height="140.3"/>
	<rect x="112.9" y="92.5" class="st1" width="0.1" height="89.3"/>
	<rect x="94.5" y="43.9" class="st1" width="0.1" height="138"/>
	<rect x="92.5" y="44.8" class="st1" width="0.1" height="137.1"/>
	<rect x="95.2" y="38.1" class="st1" width="0.1" height="143.8"/>
	<rect x="91" y="49.4" class="st1" width="0.1" height="132.4"/>
	<rect x="91.7" y="54.3" class="st1" width="0.1" height="127.5"/>
	<rect x="99.6" y="70.8" class="st1" width="0.1" height="111"/>
	<rect x="100.9" y="74.2" class="st1" width="0.1" height="107.6"/>
	<rect x="100.3" y="77.4" class="st1" width="0.1" height="104.5"/>
	<rect x="98.8" y="63.8" class="st1" width="0.1" height="118"/>
	<rect x="98.1" y="60.8" class="st1" width="0.1" height="121"/>
	<rect x="96.7" y="48.2" class="st1" width="0.1" height="133.6"/>
	<rect x="96" y="42.4" class="st1" width="0.1" height="139.4"/>
	<rect x="97.4" y="51.2" class="st1" width="0.1" height="130.7"/>
	<rect x="115.8" y="126.3" class="st1" width="0.1" height="55.5"/>
	<rect x="129.2" y="123.3" class="st1" width="0.1" height="58.5"/>
	<rect x="130.7" y="105.2" class="st1" width="0.1" height="76.6"/>
	<rect x="127.8" y="141.4" class="st1" width="0.1" height="40.5"/>
	<rect x="129.9" y="114.1" class="st1" width="0.1" height="67.7"/>
	<rect x="128.4" y="137.6" class="st1" width="0.1" height="44.2"/>
	<rect x="125.7" y="157.9" class="st1" width="0.1" height="24"/>
	<rect x="113.6" y="102.1" class="st1" width="0.1" height="79.8"/>
	<rect x="127.1" y="147.2" class="st1" width="0.1" height="34.7"/>
	<rect x="132.1" y="96" class="st1" width="0.1" height="85.9"/>
	<rect x="134.3" y="101.8" class="st1" width="0.1" height="80.1"/>
	<rect x="131.4" y="95.7" class="st1" width="0.1" height="86.2"/>
	<rect x="135.6" y="106.1" class="st1" width="0.1" height="75.7"/>
	<rect x="135" y="103.6" class="st1" width="0.1" height="78.3"/>
	<rect x="133.6" y="93.6" class="st1" width="0.1" height="88.2"/>
	<rect x="124.9" y="148.8" class="st1" width="0.1" height="33"/>
	<rect x="132.9" y="87.3" class="st1" width="0.1" height="94.5"/>
	<rect x="126.4" y="150.9" class="st1" width="0.1" height="31"/>
	<rect x="117.1" y="136.3" class="st1" width="0.1" height="45.5"/>
	<rect x="116.5" y="132.6" class="st1" width="0.1" height="49.3"/>
	<rect x="124.2" y="143.4" class="st1" width="0.1" height="38.4"/>
	<rect x="114.4" y="112.3" class="st1" width="0.1" height="69.5"/>
	<rect x="90.3" y="44.6" class="st1" width="0.1" height="137.2"/>
	<rect x="118.6" y="146.4" class="st1" width="0.1" height="35.4"/>
	<rect x="115.1" y="118.6" class="st1" width="0.1" height="63.2"/>
	<rect x="117.9" y="141.5" class="st1" width="0.1" height="40.3"/>
	<rect x="122.9" y="152.8" class="st1" width="0.1" height="29"/>
	<rect x="119.3" y="152.1" class="st1" width="0.1" height="29.8"/>
	<rect x="123.5" y="145.1" class="st1" width="0.1" height="36.8"/>
	<rect x="122.2" y="160.8" class="st1" width="0.1" height="21"/>
	<rect x="120" y="152.1" class="st1" width="0.1" height="29.8"/>
	<rect x="121.5" y="155" class="st1" width="0.1" height="26.8"/>
	<rect x="120.7" y="153" class="st1" width="0.1" height="28.9"/>
	<rect x="60.6" y="146.9" class="st1" width="0.1" height="35"/>
	<rect x="136.4" y="116.8" class="st1" width="0.1" height="65"/>
	<rect x="59.3" y="124.2" class="st1" width="0.1" height="57.6"/>
	<rect x="58.5" y="115.5" class="st1" width="0.1" height="66.4"/>
	<rect x="60" y="134.7" class="st1" width="0.1" height="47.2"/>
	<rect x="57.8" y="117.2" class="st1" width="0.1" height="64.6"/>
	<rect x="55.7" y="122.3" class="st1" width="0.1" height="59.5"/>
	<rect x="57.1" y="125.1" class="st1" width="0.1" height="56.7"/>
	<rect x="55" y="118.1" class="st1" width="0.1" height="63.7"/>
	<rect x="56.4" y="128" class="st1" width="0.1" height="53.9"/>
	<rect x="64.9" y="146.9" class="st1" width="0.1" height="35"/>
	<rect x="64.2" y="138.5" class="st1" width="0.1" height="43.3"/>
	<rect x="65.5" y="147.2" class="st1" width="0.1" height="34.7"/>
	<rect x="62" y="134.8" class="st1" width="0.1" height="47"/>
	<rect x="61.3" y="146.7" class="st1" width="0.1" height="35.1"/>
	<rect x="63.5" y="132.1" class="st1" width="0.1" height="49.7"/>
	<rect x="62.8" y="134.5" class="st1" width="0.1" height="47.3"/>
	<rect x="45.1" y="133.5" class="st1" width="0.1" height="48.4"/>
	<rect x="89.6" y="48.6" class="st1" width="0.1" height="133.2"/>
	<rect x="45.8" y="121.3" class="st1" width="0.1" height="60.6"/>
	<rect x="47.2" y="115.2" class="st1" width="0.1" height="66.7"/>
	<rect x="66.3" y="143.4" class="st1" width="0.1" height="38.4"/>
	<rect x="43.6" y="161.1" class="st1" width="0.1" height="20.7"/>
	<rect x="44.4" y="157.9" class="st1" width="0.1" height="24"/>
	<rect x="48.6" y="118.3" class="st1" width="0.1" height="63.5"/>
	<rect x="54.2" y="97.9" class="st1" width="0.1" height="83.9"/>
	<rect x="52.2" y="97.9" class="st1" width="0.1" height="83.9"/>
	<rect x="49.3" y="109.8" class="st1" width="0.1" height="72"/>
	<rect x="53.6" y="93.3" class="st1" width="0.1" height="88.5"/>
	<rect x="52.9" y="84.8" class="st1" width="0.1" height="97"/>
	<rect x="50" y="104.9" class="st1" width="0.1" height="76.9"/>
	<rect x="51.5" y="106.4" class="st1" width="0.1" height="75.4"/>
	<rect x="50.7" y="102.2" class="st1" width="0.1" height="79.6"/>
	<rect x="46.5" y="117.4" class="st1" width="0.1" height="64.4"/>
	<rect x="81.9" y="69.9" class="st1" width="0.1" height="111.9"/>
	<rect x="82.6" y="69" class="st1" width="0.1" height="112.8"/>
	<rect x="83.2" y="72.4" class="st1" width="0.1" height="109.4"/>
	<rect x="78.3" y="99.4" class="st1" width="0.1" height="82.4"/>
	<rect x="80.4" y="79.1" class="st1" width="0.1" height="102.7"/>
	<rect x="79" y="87.9" class="st1" width="0.1" height="93.9"/>
	<rect x="83.9" y="64.3" class="st1" width="0.1" height="117.6"/>
	<rect x="79.7" y="73.9" class="st1" width="0.1" height="107.9"/>
	<rect x="81.2" y="70.2" class="st1" width="0.1" height="111.6"/>
	<rect x="88.3" y="35.1" class="st1" width="0.1" height="146.7"/>
	<rect x="88.9" y="42.4" class="st1" width="0.1" height="139.4"/>
	<rect x="84.7" y="66.3" class="st1" width="0.1" height="115.5"/>
	<rect x="87.5" y="36.3" class="st1" width="0.1" height="145.5"/>
	<rect x="85.4" y="57.3" class="st1" width="0.1" height="124.6"/>
	<rect x="86.8" y="41.2" class="st1" width="0.1" height="140.6"/>
	<rect x="86.1" y="43.6" class="st1" width="0.1" height="138.3"/>
	<rect x="71.9" y="136.7" class="st1" width="0.1" height="45.1"/>
	<rect x="70.6" y="110.1" class="st1" width="0.1" height="71.7"/>
	<rect x="71.3" y="115" class="st1" width="0.1" height="66.8"/>
	<rect x="69.9" y="105.5" class="st1" width="0.1" height="76.3"/>
	<rect x="68.4" y="121.1" class="st1" width="0.1" height="60.7"/>
	<rect x="69.1" y="103.9" class="st1" width="0.1" height="78"/>
	<rect x="67.7" y="128.4" class="st1" width="0.1" height="53.4"/>
	<rect x="77.6" y="114.7" class="st1" width="0.1" height="67.1"/>
	<rect x="67" y="138.8" class="st1" width="0.1" height="43"/>
	<rect x="75.5" y="115.3" class="st1" width="0.1" height="66.5"/>
	<rect x="76.2" y="122.7" class="st1" width="0.1" height="59.1"/>
	<rect x="76.8" y="119.3" class="st1" width="0.1" height="62.5"/>
	<rect x="74.1" y="122.5" class="st1" width="0.1" height="59.4"/>
	<rect x="74.8" y="112.6" class="st1" width="0.1" height="69.2"/>
	<rect x="73.3" y="134.4" class="st1" width="0.1" height="47.5"/>
	<rect x="72.6" y="132.3" class="st1" width="0.1" height="49.6"/>
	<rect x="48" y="116.5" class="st1" width="0.1" height="65.3"/>
	<rect x="199.3" y="96.3" class="st1" width="0.1" height="85.6"/>
	<rect x="198.5" y="100.4" class="st1" width="0.1" height="81.4"/>
	<rect x="197.9" y="98.9" class="st1" width="0.1" height="82.9"/>
	<rect x="200" y="96.1" class="st1" width="0.1" height="85.7"/>
	<rect x="197.2" y="97.9" class="st1" width="0.1" height="83.9"/>
	<rect x="195.8" y="95.1" class="st1" width="0.1" height="86.8"/>
	<rect x="196.5" y="92.7" class="st1" width="0.1" height="89.1"/>
	<rect x="200.7" y="97" class="st1" width="0.1" height="84.8"/>
	<rect x="205.6" y="102.2" class="st1" width="0.1" height="79.6"/>
	<rect x="204.9" y="97" class="st1" width="0.1" height="84.8"/>
	<rect x="204.3" y="91.6" class="st1" width="0.1" height="90.2"/>
	<rect x="201.4" y="95.1" class="st1" width="0.1" height="86.8"/>
	<rect x="195" y="97" class="st1" width="0.1" height="84.8"/>
	<rect x="206.4" y="100.1" class="st1" width="0.1" height="81.7"/>
	<rect x="203.6" y="93.9" class="st1" width="0.1" height="88"/>
	<rect x="202.9" y="93.3" class="st1" width="0.1" height="88.5"/>
	<rect x="202.1" y="90" class="st1" width="0.1" height="91.8"/>
	<rect x="186.6" y="107.9" class="st1" width="0.1" height="74"/>
	<rect x="187.2" y="107.6" class="st1" width="0.1" height="74.3"/>
	<rect x="188" y="102.8" class="st1" width="0.1" height="79"/>
	<rect x="185.9" y="110.5" class="st1" width="0.1" height="71.3"/>
	<rect x="188.7" y="107.7" class="st1" width="0.1" height="74.1"/>
	<rect x="184.5" y="113.8" class="st1" width="0.1" height="68"/>
	<rect x="185.2" y="107.6" class="st1" width="0.1" height="74.3"/>
	<rect x="183.7" y="114" class="st1" width="0.1" height="67.9"/>
	<rect x="189.4" y="115.9" class="st1" width="0.1" height="65.9"/>
	<rect x="193" y="96.3" class="st1" width="0.1" height="85.6"/>
	<rect x="194.3" y="93.1" class="st1" width="0.1" height="88.7"/>
	<rect x="192.3" y="95.5" class="st1" width="0.1" height="86.3"/>
	<rect x="190.1" y="110.1" class="st1" width="0.1" height="71.7"/>
	<rect x="191.6" y="94" class="st1" width="0.1" height="87.8"/>
	<rect x="190.8" y="105.3" class="st1" width="0.1" height="76.5"/>
	<rect x="193.6" y="96.4" class="st1" width="0.1" height="85.4"/>
	<rect x="207.1" y="103" class="st1" width="0.1" height="78.9"/>
	<rect x="221.9" y="139.4" class="st1" width="0.1" height="42.4"/>
	<rect x="223.3" y="127.8" class="st1" width="0.1" height="54"/>
	<rect x="221.3" y="139.6" class="st1" width="0.1" height="42.3"/>
	<rect x="219.1" y="134.4" class="st1" width="0.1" height="47.5"/>
	<rect x="220.5" y="141.2" class="st1" width="0.1" height="40.6"/>
	<rect x="224" y="126.2" class="st1" width="0.1" height="55.7"/>
	<rect x="219.8" y="139.3" class="st1" width="0.1" height="42.6"/>
	<rect x="218.4" y="126.2" class="st1" width="0.1" height="55.7"/>
	<rect x="227.5" y="123" class="st1" width="0.1" height="58.8"/>
	<rect x="228" y="125.3" class="st1" width="0.1" height="56.6"/>
	<rect x="228.7" y="130.9" class="st1" width="0.1" height="50.9"/>
	<rect x="226.9" y="121.6" class="st1" width="0.1" height="60.3"/>
	<rect x="224.8" y="119.3" class="st1" width="0.1" height="62.5"/>
	<rect x="225.5" y="121" class="st1" width="0.1" height="60.9"/>
	<rect x="226.2" y="122.2" class="st1" width="0.1" height="59.7"/>
	<rect x="222.6" y="134.5" class="st1" width="0.1" height="47.3"/>
	<rect x="212" y="93.7" class="st1" width="0.1" height="88.1"/>
	<rect x="211.3" y="97.3" class="st1" width="0.1" height="84.5"/>
	<rect x="210" y="106.8" class="st1" width="0.1" height="75"/>
	<rect x="210.6" y="102.5" class="st1" width="0.1" height="79.3"/>
	<rect x="207.8" y="100.1" class="st1" width="0.1" height="81.7"/>
	<rect x="209.2" y="106.7" class="st1" width="0.1" height="75.2"/>
	<rect x="208.5" y="101.2" class="st1" width="0.1" height="80.7"/>
	<rect x="214.2" y="100.9" class="st1" width="0.1" height="81"/>
	<rect x="215.6" y="114.1" class="st1" width="0.1" height="67.7"/>
	<rect x="216.2" y="113.8" class="st1" width="0.1" height="68"/>
	<rect x="216.9" y="119" class="st1" width="0.1" height="62.8"/>
	<rect x="212.7" y="93" class="st1" width="0.1" height="88.8"/>
	<rect x="213.4" y="94" class="st1" width="0.1" height="87.8"/>
	<rect x="217.7" y="127.4" class="st1" width="0.1" height="54.5"/>
	<rect x="214.9" y="100.4" class="st1" width="0.1" height="81.4"/>
	<rect x="178.1" y="89.4" class="st1" width="0.1" height="92.4"/>
	<rect x="152.7" y="125.7" class="st1" width="0.1" height="56.1"/>
	<rect x="154" y="119.2" class="st1" width="0.1" height="62.7"/>
	<rect x="152" y="132" class="st1" width="0.1" height="49.9"/>
	<rect x="153.3" y="120.7" class="st1" width="0.1" height="61.2"/>
	<rect x="151.3" y="136.6" class="st1" width="0.1" height="45.2"/>
	<rect x="149.1" y="130.3" class="st1" width="0.1" height="51.5"/>
	<rect x="148.4" y="120.8" class="st1" width="0.1" height="61"/>
	<rect x="150.5" y="139.1" class="st1" width="0.1" height="42.7"/>
	<rect x="149.8" y="139.6" class="st1" width="0.1" height="42.3"/>
	<rect x="158.4" y="85.2" class="st1" width="0.1" height="96.6"/>
	<rect x="159" y="81.8" class="st1" width="0.1" height="100"/>
	<rect x="157.6" y="86.6" class="st1" width="0.1" height="95.2"/>
	<rect x="155.5" y="119.8" class="st1" width="0.1" height="62.1"/>
	<rect x="156.9" y="90.3" class="st1" width="0.1" height="91.5"/>
	<rect x="154.8" y="108" class="st1" width="0.1" height="73.8"/>
	<rect x="156.2" y="101.3" class="st1" width="0.1" height="80.5"/>
	<rect x="144.2" y="132.3" class="st1" width="0.1" height="49.6"/>
	<rect x="140.7" y="130" class="st1" width="0.1" height="51.8"/>
	<rect x="141.3" y="121" class="st1" width="0.1" height="60.9"/>
	<rect x="140" y="129.3" class="st1" width="0.1" height="52.5"/>
	<rect x="139.2" y="133.2" class="st1" width="0.1" height="48.7"/>
	<rect x="142" y="128" class="st1" width="0.1" height="53.9"/>
	<rect x="147.7" y="120.1" class="st1" width="0.1" height="61.8"/>
	<rect x="138.5" y="137.5" class="st1" width="0.1" height="44.3"/>
	<rect x="137.8" y="140.6" class="st1" width="0.1" height="41.2"/>
	<rect x="146.3" y="131.7" class="st1" width="0.1" height="50.2"/>
	<rect x="146.9" y="119.8" class="st1" width="0.1" height="62.1"/>
	<rect x="145.6" y="129.7" class="st1" width="0.1" height="52.1"/>
	<rect x="142.7" y="130.9" class="st1" width="0.1" height="50.9"/>
	<rect x="143.4" y="134.1" class="st1" width="0.1" height="47.8"/>
	<rect x="144.9" y="123.3" class="st1" width="0.1" height="58.5"/>
	<rect x="159.7" y="91.9" class="st1" width="0.1" height="89.9"/>
	<rect x="172.4" y="88.4" class="st1" width="0.1" height="93.5"/>
	<rect x="171.7" y="89" class="st1" width="0.1" height="92.9"/>
	<rect x="177.4" y="90.6" class="st1" width="0.1" height="91.2"/>
	<rect x="174.6" y="81.7" class="st1" width="0.1" height="100.2"/>
	<rect x="176.7" y="88.2" class="st1" width="0.1" height="93.6"/>
	<rect x="175.3" y="87.6" class="st1" width="0.1" height="94.2"/>
	<rect x="183" y="102.7" class="st1" width="0.1" height="79.2"/>
	<rect x="173.2" y="88.5" class="st1" width="0.1" height="93.3"/>
	<rect x="173.9" y="81.5" class="st1" width="0.1" height="100.3"/>
	<rect x="175.9" y="83.6" class="st1" width="0.1" height="98.2"/>
	<rect x="137.1" y="127.4" class="st1" width="0.1" height="54.5"/>
	<rect x="182.3" y="100" class="st1" width="0.1" height="81.9"/>
	<rect x="181" y="94.5" class="st1" width="0.1" height="87.4"/>
	<rect x="181.6" y="97.3" class="st1" width="0.1" height="84.5"/>
	<rect x="178.8" y="86.9" class="st1" width="0.1" height="94.9"/>
	<rect x="180.2" y="90.3" class="st1" width="0.1" height="91.5"/>
	<rect x="179.5" y="91.3" class="st1" width="0.1" height="90.5"/>
	<rect x="168.2" y="104.3" class="st1" width="0.1" height="77.5"/>
	<rect x="163.3" y="124.2" class="st1" width="0.1" height="57.6"/>
	<rect x="164" y="118.9" class="st1" width="0.1" height="62.9"/>
	<rect x="164.6" y="130.6" class="st1" width="0.1" height="51.2"/>
	<rect x="162.6" y="128.3" class="st1" width="0.1" height="53.6"/>
	<rect x="161.1" y="110.5" class="st1" width="0.1" height="71.3"/>
	<rect x="161.8" y="128.1" class="st1" width="0.1" height="53.7"/>
	<rect x="165.3" y="130.8" class="st1" width="0.1" height="51"/>
	<rect x="166.1" y="116.5" class="st1" width="0.1" height="65.3"/>
	<rect x="169.7" y="76.5" class="st1" width="0.1" height="105.4"/>
	<rect x="168.9" y="97.3" class="st1" width="0.1" height="84.5"/>
	<rect x="170.3" y="75.9" class="st1" width="0.1" height="106"/>
	<rect x="160.4" y="94.6" class="st1" width="0.1" height="87.2"/>
	<rect x="171" y="91.8" class="st1" width="0.1" height="90"/>
	<rect x="166.8" y="117.5" class="st1" width="0.1" height="64.3"/>
	<rect x="167.5" y="117.8" class="st1" width="0.1" height="64"/>
</g>
<line class="st0" x1="43" y1="17.6" x2="43" y2="184.5"/>
<g>
	<g>
		<path class="st2" d="M8.6,223.9c0-1.4,1-2.7,2.6-2.7c0.7,0,1.1,0.2,1.5,0.4l-0.3,0.5c-0.3-0.2-0.7-0.4-1.2-0.4
			c-1.3,0-1.9,1.1-1.9,2.2c0,1.2,0.6,2.3,2,2.3c0.6,0,1-0.2,1.3-0.5l0.3,0.4c-0.3,0.3-0.9,0.5-1.6,0.5
			C9.5,226.6,8.6,225.3,8.6,223.9z"/>
		<path class="st2" d="M13.7,221.2h2.8v0.5h-2.2v1.7h1.9v0.5h-1.9v2.6h-0.6C13.7,226.5,13.7,221.2,13.7,221.2z"/>
		<path class="st2" d="M18.4,221.7h-1.5v-0.5h3.7v0.5H19v4.8h-0.6V221.7z"/>
		<path class="st2" d="M20.8,223.9c0-1.4,1-2.7,2.6-2.7c0.7,0,1.1,0.2,1.5,0.4l-0.3,0.5c-0.3-0.2-0.7-0.4-1.2-0.4
			c-1.3,0-1.9,1.1-1.9,2.2c0,1.2,0.6,2.3,2,2.3c0.6,0,1-0.2,1.3-0.5l0.3,0.4c-0.3,0.3-0.9,0.5-1.6,0.5
			C21.8,226.6,20.8,225.3,20.8,223.9z"/>
		<path class="st2" d="M27.6,221.2h0.6l2.5,3.6c0.2,0.4,0.4,0.6,0.5,0.8l0,0c0-0.1,0-0.3,0-0.7v-3.7h0.6v5.3h-0.6l-2.6-3.8
			c-0.2-0.2-0.3-0.5-0.4-0.7l0,0c0,0.1,0,0.3,0,0.6v3.9h-0.6V221.2z"/>
		<path class="st2" d="M34.3,224.5l-1.8-3.3h0.7l1.4,2.7l0,0l1.4-2.7h0.6l-1.7,3.3v2h-0.6C34.3,226.5,34.3,224.5,34.3,224.5z"/>
		<path class="st2" d="M37.6,221.2h0.6l1.3,3.6c0.2,0.4,0.2,0.7,0.3,1l0,0c0.1-0.3,0.2-0.5,0.3-1l1.3-3.6H42l0.7,5.3h-0.6l-0.5-3.5
			c0-0.4-0.1-0.6-0.1-0.7l0,0c-0.1,0.2-0.1,0.4-0.2,0.7l-1.3,3.5h-0.6l-1.3-3.5c-0.1-0.3-0.2-0.6-0.3-0.7l0,0c0,0.2,0,0.4-0.1,0.8
			l-0.4,3.5h-0.6L37.6,221.2z"/>
		<path class="st2" d="M43.9,221.2h2.7v0.5h-2.1v1.7h1.9v0.5h-1.9v2h2.2v0.5h-2.8C43.9,226.4,43.9,221.2,43.9,221.2z"/>
		<path class="st2" d="M48.9,223.8l-1.6-2.6H48l1.3,2.1l1.2-2.1h0.7l-1.6,2.6l1.7,2.8h-0.7l-1.4-2.3l-1.3,2.3h-0.7L48.9,223.8z"/>
		<path class="st2" d="M53.5,223.9c0-1.4,1-2.7,2.6-2.7c0.7,0,1.1,0.2,1.5,0.4l-0.3,0.5c-0.3-0.2-0.7-0.4-1.2-0.4
			c-1.3,0-1.9,1.1-1.9,2.2c0,1.2,0.6,2.3,2,2.3c0.6,0,1-0.2,1.3-0.5l0.3,0.4c-0.3,0.3-0.9,0.5-1.6,0.5
			C54.4,226.6,53.5,225.3,53.5,223.9z"/>
		<path class="st2" d="M58.5,222.7H59v0.6c0.2-0.3,0.5-0.7,1-0.7c0.2,0,0.4,0.1,0.4,0.1l-0.1,0.6c0,0-0.1-0.1-0.3-0.1
			c-0.6,0-0.9,0.7-0.9,0.8v2.6h-0.6C58.5,226.6,58.5,222.7,58.5,222.7z"/>
		<path class="st2" d="M61,225.4v-2.7h0.6v2.6c0,0.5,0.2,0.8,0.7,0.8c0.6,0,1-0.6,1.1-0.7v-2.7H64v3c0,0.3,0,0.7,0.1,0.8h-0.6
			c0-0.1,0-0.4-0.1-0.6c-0.2,0.2-0.6,0.7-1.2,0.7C61.3,226.6,61,226.1,61,225.4z"/>
		<path class="st2" d="M64.8,224.6c0-1.2,0.7-2,1.7-2c0.4,0,0.7,0.1,1,0.3v-2.2H68v5c0,0.3,0,0.6,0.1,0.8h-0.6
			c0-0.1-0.1-0.3-0.1-0.4c-0.3,0.3-0.6,0.5-1.1,0.5C65.5,226.6,64.8,225.9,64.8,224.6z M67.5,225.6v-2.1c-0.2-0.2-0.5-0.4-0.9-0.4
			c-0.7,0-1.1,0.6-1.1,1.5s0.3,1.5,1.1,1.5C66.8,226.1,67.2,225.9,67.5,225.6z"/>
		<path class="st2" d="M68.8,224.6c0-1.1,0.7-2,1.7-2s1.5,0.7,1.5,1.7c0,0.1,0,0.2,0,0.3h-2.6c0,0.8,0.3,1.5,1.2,1.5
			c0.5,0,0.9-0.2,1.1-0.3l0.2,0.5c-0.2,0.1-0.6,0.4-1.3,0.4C69.4,226.6,68.8,225.7,68.8,224.6z M71.5,224.1c0-0.5-0.3-1-0.9-1
			s-1,0.4-1.1,1H71.5z"/>
		<path class="st2" d="M74.3,223.9c0-1.5,1-2.8,2.6-2.8s2.6,1.3,2.6,2.8s-1,2.8-2.6,2.8C75.3,226.6,74.3,225.3,74.3,223.9z
			 M78.9,223.9c0-1.2-0.7-2.2-2-2.2s-2,1-2,2.2s0.7,2.2,2,2.2S78.9,225.1,78.9,223.9z"/>
		<path class="st2" d="M80.3,221.5c0-0.2,0.2-0.4,0.4-0.4c0.2,0,0.4,0.2,0.4,0.4s-0.2,0.4-0.4,0.4C80.5,222,80.3,221.8,80.3,221.5z
			 M80.5,222.7h0.6v3.8h-0.6V222.7z"/>
		<path class="st2" d="M82.3,220.8h0.6v5.8h-0.6V220.8z"/>
		<path class="st2" d="M85.8,221.2h0.6l2.5,3.6c0.2,0.4,0.4,0.6,0.5,0.8l0,0c0-0.1,0-0.3,0-0.7v-3.7H90v5.3h-0.6l-2.6-3.8
			c-0.2-0.2-0.3-0.5-0.4-0.7l0,0c0,0.1,0,0.3,0,0.6v3.9h-0.6V221.2z"/>
		<path class="st2" d="M90.9,224.6c0-1.1,0.7-2,1.7-2s1.5,0.7,1.5,1.7c0,0.1,0,0.2,0,0.3h-2.6c0,0.8,0.3,1.5,1.2,1.5
			c0.5,0,0.9-0.2,1.1-0.3l0.2,0.5c-0.2,0.1-0.6,0.4-1.3,0.4C91.5,226.6,90.9,225.7,90.9,224.6z M93.5,224.1c0-0.5-0.3-1-0.9-1
			s-1,0.4-1.1,1H93.5z"/>
		<path class="st2" d="M95.2,225.6v-2.5h-0.6v-0.5h0.6v-1.1h0.6v1.1h1v0.5h-1v2.4c0,0.4,0.1,0.6,0.4,0.6c0.2,0,0.5-0.1,0.5-0.2
			l0.2,0.4c-0.1,0.1-0.4,0.2-0.8,0.2C95.5,226.6,95.2,226.3,95.2,225.6z"/>
		<path class="st2" d="M99.4,221.2h0.6l2.5,3.6c0.2,0.4,0.4,0.6,0.5,0.8l0,0c0-0.1,0-0.3,0-0.7v-3.7h0.6v5.3H103l-2.6-3.8
			c-0.2-0.2-0.3-0.5-0.4-0.7l0,0c0,0.1,0,0.3,0,0.6v3.9h-0.6V221.2z"/>
		<path class="st2" d="M104.5,224.6c0-0.9,0.5-2,1.8-2s1.8,1.1,1.8,2s-0.5,2-1.8,2S104.5,225.5,104.5,224.6z M107.4,224.6
			c0-0.8-0.4-1.5-1.2-1.5c-0.8,0-1.1,0.7-1.1,1.5s0.4,1.5,1.2,1.5C107,226.1,107.4,225.5,107.4,224.6z"/>
		<path class="st2" d="M108.9,222.7h0.6v0.6c0.3-0.4,0.8-0.6,1.2-0.6c0.8,0,1.1,0.5,1.1,1.2v2.7h-0.6V224c0-0.5-0.2-0.8-0.7-0.8
			c-0.4,0-0.8,0.3-1.1,0.7v2.7h-0.6L108.9,222.7L108.9,222.7z"/>
		<path class="st2" d="M112.7,224h1.6v0.5h-1.6V224z"/>
		<path class="st2" d="M115,223.9c0-1.4,1-2.7,2.6-2.7c0.7,0,1.1,0.2,1.5,0.4l-0.3,0.5c-0.3-0.2-0.7-0.4-1.2-0.4
			c-1.3,0-1.9,1.1-1.9,2.2c0,1.2,0.6,2.3,2,2.3c0.6,0,1-0.2,1.3-0.5l0.3,0.4c-0.3,0.3-0.9,0.5-1.6,0.5
			C116,226.6,115,225.3,115,223.9z"/>
		<path class="st2" d="M119.6,224.6c0-0.9,0.5-2,1.8-2s1.8,1.1,1.8,2s-0.5,2-1.8,2S119.6,225.5,119.6,224.6z M122.6,224.6
			c0-0.8-0.4-1.5-1.2-1.5c-0.8,0-1.1,0.7-1.1,1.5s0.4,1.5,1.2,1.5C122.2,226.1,122.6,225.5,122.6,224.6z"/>
		<path class="st2" d="M124,222.7h0.6v0.5c0.2-0.2,0.5-0.6,1.2-0.6c0.6,0,0.9,0.3,1,0.6c0.3-0.3,0.7-0.6,1.2-0.6
			c0.8,0,1.1,0.5,1.1,1.2v2.7h-0.6v-2.6c0-0.5-0.1-0.8-0.6-0.8c-0.5,0-0.8,0.4-1,0.6v2.8h-0.6v-2.6c0-0.5-0.2-0.8-0.6-0.8
			c-0.6,0-1,0.6-1,0.7v2.7H124V222.7z"/>
		<path class="st2" d="M130.2,222.7h0.6v0.5c0.2-0.2,0.5-0.6,1.2-0.6c0.6,0,0.9,0.3,1,0.6c0.3-0.3,0.7-0.6,1.2-0.6
			c0.8,0,1.1,0.5,1.1,1.2v2.7h-0.6v-2.6c0-0.5-0.1-0.8-0.6-0.8s-0.8,0.4-1,0.6v2.8h-0.6v-2.6c0-0.5-0.2-0.8-0.6-0.8
			c-0.6,0-1,0.6-1,0.7v2.7h-0.6L130.2,222.7L130.2,222.7z"/>
		<path class="st2" d="M136.1,224.6c0-1.1,0.7-2,1.7-2s1.5,0.7,1.5,1.7c0,0.1,0,0.2,0,0.3h-2.6c0,0.8,0.3,1.5,1.2,1.5
			c0.5,0,0.9-0.2,1.1-0.3l0.2,0.5c-0.2,0.1-0.6,0.4-1.3,0.4C136.7,226.6,136.1,225.7,136.1,224.6z M138.7,224.1c0-0.5-0.3-1-0.9-1
			c-0.6,0-1,0.4-1.1,1H138.7z"/>
		<path class="st2" d="M140.2,222.7h0.6v0.6c0.2-0.3,0.5-0.7,1-0.7c0.2,0,0.4,0.1,0.4,0.1l-0.1,0.6c0,0-0.1-0.1-0.3-0.1
			c-0.6,0-0.9,0.7-0.9,0.8v2.6h-0.6L140.2,222.7L140.2,222.7z"/>
		<path class="st2" d="M142.4,224.6c0-1.3,0.8-2,1.8-2c0.6,0,1,0.2,1.2,0.4l-0.3,0.4c-0.2-0.2-0.5-0.3-0.9-0.3
			c-0.8,0-1.1,0.7-1.1,1.5s0.4,1.5,1.2,1.5c0.5,0,0.8-0.2,0.9-0.3l0.2,0.4c-0.2,0.1-0.5,0.4-1.2,0.4
			C143,226.6,142.4,225.7,142.4,224.6z"/>
		<path class="st2" d="M146,221.5c0-0.2,0.2-0.4,0.4-0.4s0.4,0.2,0.4,0.4s-0.2,0.4-0.4,0.4C146.2,222,146,221.8,146,221.5z
			 M146.1,222.7h0.6v3.8h-0.6V222.7z"/>
		<path class="st2" d="M147.6,225.6c0-1,1.1-1.3,2-1.3h0.2v-0.4c0-0.6-0.2-0.8-0.8-0.8c-0.4,0-0.7,0.1-1,0.4l-0.3-0.4
			c0.4-0.4,0.8-0.5,1.4-0.5c0.8,0,1.3,0.4,1.3,1.3v1.8c0,0.4,0,0.7,0.1,0.9h-0.6c0-0.1,0-0.3-0.1-0.5c-0.3,0.3-0.7,0.6-1.2,0.6
			C148.1,226.6,147.6,226.2,147.6,225.6z M149.8,225.6v-0.9h-0.2c-0.8,0-1.4,0.2-1.4,0.9c0,0.4,0.3,0.5,0.6,0.5
			C149.2,226.1,149.6,225.9,149.8,225.6z"/>
		<path class="st2" d="M151.6,220.8h0.6v5.8h-0.6V220.8z"/>
		<path class="st2" d="M155.1,221.2h2.8v0.5h-2.2v1.7h1.9v0.5h-1.9v2.6h-0.6V221.2z"/>
		<path class="st2" d="M158.5,225.4v-2.7h0.6v2.6c0,0.5,0.2,0.8,0.7,0.8c0.6,0,1-0.6,1.1-0.7v-2.7h0.6v3c0,0.3,0,0.7,0.1,0.8H161
			c0-0.1,0-0.4-0.1-0.6c-0.2,0.2-0.6,0.7-1.2,0.7C158.8,226.6,158.5,226.1,158.5,225.4z"/>
		<path class="st2" d="M162.8,225.6v-2.5h-0.6v-0.5h0.6v-1.1h0.6v1.1h1v0.5h-1v2.4c0,0.4,0.1,0.6,0.4,0.6c0.2,0,0.5-0.1,0.5-0.2
			l0.2,0.4c-0.1,0.1-0.4,0.2-0.8,0.2C163.1,226.6,162.8,226.3,162.8,225.6z"/>
		<path class="st2" d="M165.1,225.4v-2.7h0.6v2.6c0,0.5,0.2,0.8,0.7,0.8c0.6,0,1-0.6,1.1-0.7v-2.7h0.6v3c0,0.3,0,0.7,0.1,0.8h-0.6
			c0-0.1,0-0.4-0.1-0.6c-0.2,0.2-0.6,0.7-1.2,0.7C165.5,226.6,165.1,226.1,165.1,225.4z"/>
		<path class="st2" d="M169.3,222.7h0.6v0.6c0.2-0.3,0.5-0.7,1-0.7c0.2,0,0.4,0.1,0.4,0.1l-0.1,0.6c0,0-0.1-0.1-0.3-0.1
			c-0.6,0-0.9,0.7-0.9,0.8v2.6h-0.6L169.3,222.7L169.3,222.7z"/>
		<path class="st2" d="M171.5,224.6c0-1.1,0.7-2,1.7-2s1.5,0.7,1.5,1.7c0,0.1,0,0.2,0,0.3h-2.6c0,0.8,0.3,1.5,1.2,1.5
			c0.5,0,0.9-0.2,1.1-0.3l0.2,0.5c-0.2,0.1-0.6,0.4-1.3,0.4C172.1,226.6,171.5,225.7,171.5,224.6z M174.1,224.1c0-0.5-0.3-1-0.9-1
			c-0.6,0-1,0.4-1.1,1H174.1z"/>
	</g>
	<g>
		<path class="st2" d="M177.7,221.3h1.3c1.1,0,1.9,0.5,1.9,1.5s-0.7,1.6-2,1.6h-0.5v2.2h-0.7V221.3z M179,224c0.9,0,1.3-0.4,1.3-1.1
			c0-0.6-0.4-1-1.3-1h-0.6v2.1H179z"/>
		<path class="st2" d="M181.3,224.7c0-0.9,0.5-2,1.8-2c1.3,0,1.8,1.1,1.8,2s-0.5,2-1.8,2C181.8,226.7,181.3,225.6,181.3,224.7z
			 M184.3,224.7c0-0.8-0.4-1.5-1.2-1.5c-0.8,0-1.1,0.7-1.1,1.5s0.4,1.5,1.2,1.5C183.9,226.2,184.3,225.6,184.3,224.7z"/>
		<path class="st2" d="M185.4,226.4l0.3-0.4c0.1,0.1,0.5,0.3,1,0.3s0.8-0.2,0.8-0.6s-0.3-0.5-0.8-0.7c-0.6-0.3-1.1-0.5-1.1-1.2
			c0-0.6,0.4-1.1,1.2-1.1c0.6,0,1,0.3,1.1,0.4l-0.3,0.4c-0.1-0.1-0.4-0.3-0.9-0.3c-0.4,0-0.6,0.2-0.6,0.5c0,0.4,0.3,0.5,0.7,0.7
			c0.6,0.3,1.2,0.5,1.2,1.2s-0.5,1.1-1.4,1.1C186.1,226.7,185.6,226.5,185.4,226.4z"/>
		<path class="st2" d="M188.7,221.6c0-0.2,0.2-0.4,0.4-0.4c0.2,0,0.4,0.2,0.4,0.4s-0.2,0.4-0.4,0.4
			C188.9,222.1,188.7,221.9,188.7,221.6z M188.9,222.8h0.6v3.8h-0.6V222.8z"/>
		<path class="st2" d="M190.8,225.7v-2.4h-0.6v-0.5h0.6v-1.1h0.6v1.1h1v0.5h-1v2.4c0,0.4,0.1,0.6,0.4,0.6c0.2,0,0.5-0.1,0.5-0.2
			l0.2,0.4c-0.1,0.1-0.4,0.2-0.8,0.2C191.2,226.7,190.8,226.4,190.8,225.7z"/>
		<path class="st2" d="M193.2,221.6c0-0.2,0.2-0.4,0.4-0.4c0.2,0,0.4,0.2,0.4,0.4s-0.2,0.4-0.4,0.4
			C193.4,222,193.2,221.9,193.2,221.6z M193.3,222.8h0.6v3.8h-0.6V222.8z"/>
		<path class="st2" d="M194.8,224.7c0-0.9,0.5-2,1.8-2c1.3,0,1.8,1.1,1.8,2s-0.5,2-1.8,2C195.3,226.7,194.8,225.6,194.8,224.7z
			 M197.8,224.7c0-0.8-0.4-1.5-1.2-1.5c-0.8,0-1.1,0.7-1.1,1.5s0.4,1.5,1.2,1.5C197.4,226.2,197.8,225.6,197.8,224.7z"/>
		<path class="st2" d="M199.2,222.8h0.6v0.6c0.3-0.4,0.8-0.6,1.2-0.6c0.8,0,1.1,0.5,1.1,1.2v2.7h-0.6v-2.6c0-0.5-0.2-0.8-0.7-0.8
			c-0.4,0-0.8,0.3-1.1,0.7v2.7h-0.6L199.2,222.8L199.2,222.8z"/>
		<path class="st2" d="M203,226.4l0.3-0.4c0.1,0.1,0.5,0.3,1,0.3s0.8-0.2,0.8-0.6s-0.3-0.5-0.8-0.7c-0.6-0.3-1.1-0.5-1.1-1.2
			c0-0.6,0.4-1.1,1.2-1.1c0.6,0,1,0.3,1.1,0.4l-0.3,0.4c-0.1-0.1-0.4-0.3-0.9-0.3c-0.4,0-0.6,0.2-0.6,0.5c0,0.4,0.3,0.5,0.7,0.7
			c0.6,0.3,1.2,0.5,1.2,1.2s-0.5,1.1-1.4,1.1C203.6,226.7,203.2,226.5,203,226.4z"/>
		<path class="st2" d="M206.5,226.9c0-0.3-0.4-0.3-0.4-0.7c0-0.2,0.2-0.4,0.4-0.4c0.3,0,0.5,0.2,0.5,0.6c0,0.4-0.2,0.9-0.5,1.4h-0.4
			C206.4,227.4,206.5,227.1,206.5,226.9z"/>
		<path class="st2" d="M209.8,221.3h0.6v4.8h2.1v0.5h-2.7V221.3z"/>
		<path class="st2" d="M213.1,226.2c0-0.3,0.2-0.5,0.5-0.5c0.3,0,0.5,0.2,0.5,0.5s-0.2,0.5-0.5,0.5
			C213.3,226.7,213.1,226.5,213.1,226.2z"/>
		<path class="st2" d="M215.1,221.3h0.6v2.3h3v-2.3h0.6v5.3h-0.6v-2.5h-3v2.5h-0.6V221.3z"/>
		<path class="st2" d="M220.4,226.2c0-0.3,0.2-0.5,0.5-0.5c0.3,0,0.5,0.2,0.5,0.5s-0.2,0.5-0.5,0.5
			C220.6,226.7,220.4,226.5,220.4,226.2z"/>
		<path class="st2" d="M221.9,226.2l0.3-0.4c0.1,0.1,0.5,0.5,1.2,0.5c0.7,0,1.1-0.4,1.1-0.9c0-0.6-0.6-0.9-1.2-1.2
			c-0.6-0.3-1.2-0.7-1.2-1.5c0-0.9,0.7-1.4,1.6-1.4c0.8,0,1.2,0.3,1.4,0.4l-0.3,0.5c-0.2-0.1-0.5-0.4-1.1-0.4
			c-0.5,0-0.9,0.3-0.9,0.8s0.4,0.8,1,1c0.7,0.3,1.5,0.7,1.5,1.7c0,0.8-0.7,1.4-1.7,1.4C222.6,226.7,222.1,226.4,221.9,226.2z"/>
		<path class="st2" d="M225.8,226.2c0-0.3,0.2-0.5,0.5-0.5s0.5,0.2,0.5,0.5s-0.2,0.5-0.5,0.5S225.8,226.5,225.8,226.2z"/>
	</g>
	<line class="st3" x1="0" y1="223.8" x2="6" y2="223.8"/>
	<g>
		<path class="st2" d="M8.3,232.9H9l0.9,3.6c0.1,0.4,0.2,0.9,0.2,0.9l0,0c0,0,0.1-0.5,0.2-0.9l1-3.6H12l1,3.5
			c0.1,0.4,0.2,0.9,0.2,0.9l0,0c0,0,0.1-0.5,0.2-0.9l0.9-3.5H15l-1.5,5.3H13l-1-3.6c-0.1-0.4-0.2-1-0.2-1l0,0c0,0-0.1,0.6-0.3,1
			l-1.1,3.6H9.8L8.3,232.9z"/>
		<path class="st2" d="M16.8,233.5h-1.5V233H19v0.5h-1.5v4.8h-0.6v-4.8H16.8z"/>
		<path class="st2" d="M19.8,232.9h0.6v5.3h-0.6V232.9z"/>
		<path class="st2" d="M23.2,235.6c0-1.4,1-2.7,2.6-2.7c0.7,0,1.1,0.2,1.5,0.4l-0.3,0.5c-0.3-0.2-0.7-0.4-1.2-0.4
			c-1.3,0-1.9,1.1-1.9,2.2c0,1.2,0.6,2.3,2,2.3c0.6,0,1-0.2,1.3-0.5l0.3,0.4c-0.3,0.3-0.9,0.5-1.6,0.5
			C24.1,238.3,23.2,237,23.2,235.6z"/>
		<path class="st2" d="M28.2,234.4h0.6v0.6c0.2-0.3,0.5-0.7,1-0.7c0.2,0,0.4,0.1,0.4,0.1L30,235c0,0-0.1-0.1-0.3-0.1
			c-0.6,0-0.9,0.7-0.9,0.8v2.6h-0.6V234.4z"/>
		<path class="st2" d="M30.7,237.1v-2.7h0.6v2.6c0,0.5,0.2,0.8,0.7,0.8c0.6,0,1-0.6,1.1-0.7v-2.7h0.6v3c0,0.3,0,0.7,0.1,0.8h-0.6
			c0-0.1,0-0.4-0.1-0.6c-0.2,0.2-0.6,0.7-1.2,0.7C31,238.3,30.7,237.8,30.7,237.1z"/>
		<path class="st2" d="M34.5,236.3c0-1.2,0.7-2,1.7-2c0.4,0,0.7,0.1,1,0.3v-2.2h0.6v5c0,0.3,0,0.6,0.1,0.8h-0.6
			c0-0.1-0.1-0.3-0.1-0.4c-0.3,0.3-0.6,0.5-1.1,0.5C35.2,238.3,34.5,237.6,34.5,236.3z M37.2,237.3v-2.1c-0.2-0.2-0.5-0.4-0.9-0.4
			c-0.7,0-1.1,0.6-1.1,1.5s0.3,1.5,1.1,1.5C36.5,237.8,36.9,237.6,37.2,237.3z"/>
		<path class="st2" d="M38.5,236.3c0-1.1,0.7-2,1.7-2s1.5,0.7,1.5,1.7c0,0.1,0,0.2,0,0.3h-2.6c0,0.8,0.3,1.5,1.2,1.5
			c0.5,0,0.9-0.2,1.1-0.3l0.2,0.5c-0.2,0.1-0.6,0.4-1.3,0.4C39.1,238.3,38.5,237.4,38.5,236.3z M41.2,235.9c0-0.5-0.3-1-0.9-1
			c-0.6,0-1,0.4-1.1,1H41.2z"/>
		<path class="st2" d="M44.1,236c0-1.3,0.6-2.6,1.4-3.5h0.6c-0.7,0.7-1.4,1.9-1.4,3.5c0,1.5,0.5,2.7,1.4,3.7h-0.6
			C44.6,238.7,44.1,237.4,44.1,236z"/>
		<path class="st2" d="M46.7,236.3V233h0.6v3.3c0,1.1,0.5,1.6,1.5,1.6s1.4-0.6,1.4-1.5V233h0.6v3.3c0,1.3-0.6,2.1-2,2.1
			C47.3,238.3,46.7,237.5,46.7,236.3z"/>
		<path class="st2" d="M51.5,237.8l0.3-0.4c0.1,0.1,0.5,0.5,1.2,0.5s1.1-0.4,1.1-0.9c0-0.6-0.6-0.9-1.2-1.2
			c-0.6-0.3-1.2-0.7-1.2-1.5c0-0.9,0.7-1.4,1.6-1.4c0.8,0,1.2,0.3,1.4,0.4l-0.3,0.5c-0.2-0.1-0.5-0.4-1.1-0.4
			c-0.5,0-0.9,0.3-0.9,0.8s0.4,0.8,1,1c0.7,0.3,1.5,0.7,1.5,1.7c0,0.8-0.7,1.4-1.7,1.4C52.2,238.3,51.7,238,51.5,237.8z"/>
		<path class="st2" d="M55.8,232.9H57c2.1,0,3,1.1,3,2.6s-0.9,2.7-3.1,2.7h-1.2L55.8,232.9L55.8,232.9z M57.1,237.7
			c1.5,0,2.3-0.8,2.3-2.2s-0.8-2.1-2.4-2.1h-0.6v4.3H57.1z"/>
		<path class="st2" d="M62.6,234.4h0.6v0.4c0.2-0.2,0.6-0.5,1.1-0.5c0.9,0,1.6,0.7,1.6,2c0,1.2-0.7,2-1.7,2c-0.5,0-0.8-0.2-1-0.3v2
			h-0.6V234.4z M65.2,236.3c0-0.9-0.3-1.5-1.1-1.5c-0.5,0-0.9,0.4-1,0.5v2.1c0.2,0.2,0.4,0.4,0.9,0.4
			C64.8,237.8,65.2,237.2,65.2,236.3z"/>
		<path class="st2" d="M66.4,236.3c0-1.1,0.7-2,1.7-2s1.5,0.7,1.5,1.7c0,0.1,0,0.2,0,0.3H67c0,0.8,0.3,1.5,1.2,1.5
			c0.5,0,0.9-0.2,1.1-0.3l0.2,0.5c-0.2,0.1-0.6,0.4-1.3,0.4C67,238.3,66.4,237.4,66.4,236.3z M69,235.9c0-0.5-0.3-1-0.9-1
			s-1,0.4-1.1,1H69z"/>
		<path class="st2" d="M70.5,234.4H71v0.6c0.2-0.3,0.5-0.7,1-0.7c0.2,0,0.4,0.1,0.4,0.1l-0.1,0.6c0,0-0.1-0.1-0.3-0.1
			c-0.6,0-0.9,0.7-0.9,0.8v2.6h-0.6V234.4z"/>
		<path class="st2" d="M74.7,238v-5.6h0.6v2.2c0.2-0.2,0.6-0.4,1-0.4c1,0,1.7,0.8,1.7,2s-0.8,2-1.9,2
			C75.4,238.3,74.9,238.2,74.7,238z M77.3,236.3c0-0.8-0.3-1.5-1.1-1.5c-0.3,0-0.7,0.2-0.8,0.4v2.5c0.2,0.1,0.4,0.1,0.7,0.1
			C76.8,237.8,77.3,237.1,77.3,236.3z"/>
		<path class="st2" d="M78.4,237.3c0-1,1.1-1.3,2-1.3h0.2v-0.4c0-0.6-0.2-0.8-0.8-0.8c-0.4,0-0.7,0.1-1,0.4l-0.3-0.4
			c0.4-0.4,0.8-0.5,1.4-0.5c0.8,0,1.3,0.4,1.3,1.3v1.8c0,0.4,0,0.7,0.1,0.9h-0.6c0-0.1,0-0.3-0.1-0.5c-0.3,0.3-0.7,0.6-1.2,0.6
			C78.9,238.3,78.4,237.9,78.4,237.3z M80.6,237.3v-0.9h-0.2c-0.8,0-1.4,0.2-1.4,0.9c0,0.4,0.3,0.5,0.6,0.5
			C80,237.8,80.4,237.6,80.6,237.3z"/>
		<path class="st2" d="M82.3,234.4h0.6v0.6c0.2-0.3,0.5-0.7,1-0.7c0.2,0,0.4,0.1,0.4,0.1l-0.1,0.6c0,0-0.1-0.1-0.3-0.1
			c-0.6,0-0.9,0.7-0.9,0.8v2.6h-0.6L82.3,234.4L82.3,234.4z"/>
		<path class="st2" d="M84.9,234.4h0.6v0.6c0.2-0.3,0.5-0.7,1-0.7c0.2,0,0.4,0.1,0.4,0.1l-0.1,0.6c0,0-0.1-0.1-0.3-0.1
			c-0.6,0-0.9,0.7-0.9,0.8v2.6H85L84.9,234.4L84.9,234.4z"/>
		<path class="st2" d="M87.2,236.3c0-1.1,0.7-2,1.7-2s1.5,0.7,1.5,1.7c0,0.1,0,0.2,0,0.3h-2.6c0,0.8,0.3,1.5,1.2,1.5
			c0.5,0,0.9-0.2,1.1-0.3l0.2,0.5c-0.2,0.1-0.6,0.4-1.3,0.4C87.8,238.3,87.2,237.4,87.2,236.3z M89.8,235.9c0-0.5-0.3-1-0.9-1
			s-1,0.4-1.1,1H89.8z"/>
		<path class="st2" d="M91.3,232.5h0.6v5.8h-0.6V232.5z"/>
		<path class="st2" d="M93.8,236.2c0-1.5-0.5-2.7-1.4-3.7H93c0.9,1,1.4,2.3,1.4,3.7s-0.6,2.6-1.4,3.5h-0.6
			C93.1,239,93.8,237.8,93.8,236.2z"/>
		<path class="st2" d="M95.5,238.5c0-0.3-0.4-0.3-0.4-0.7c0-0.2,0.2-0.4,0.4-0.4c0.3,0,0.5,0.2,0.5,0.6c0,0.4-0.2,0.9-0.5,1.4h-0.4
			C95.4,239,95.5,238.7,95.5,238.5z"/>
		<path class="st2" d="M98.7,232.9h1.4c1.1,0,1.8,0.5,1.8,1.4s-0.6,1.3-1.5,1.4l0,0c0.1,0.1,0.2,0.2,0.6,0.7l1.3,1.8h-0.7l-1.1-1.5
			c-0.6-0.9-0.7-0.9-1.1-0.9h-0.1v2.5h-0.6L98.7,232.9L98.7,232.9z M100.2,235.3c0.8,0,1.2-0.3,1.2-0.9s-0.4-0.9-1.2-0.9h-0.8v1.8
			L100.2,235.3L100.2,235.3z"/>
		<path class="st2" d="M102.8,237.8c0-0.3,0.2-0.5,0.5-0.5s0.5,0.2,0.5,0.5s-0.2,0.5-0.5,0.5S102.8,238.1,102.8,237.8z"/>
		<path class="st2" d="M104.8,232.9h0.6v2.3h3v-2.3h0.6v5.3h-0.6v-2.5h-3v2.5h-0.6V232.9z"/>
		<path class="st2" d="M110,237.8c0-0.3,0.2-0.5,0.5-0.5s0.5,0.2,0.5,0.5s-0.2,0.5-0.5,0.5S110,238.1,110,237.8z"/>
		<path class="st2" d="M111.6,237.8l0.3-0.4c0.1,0.1,0.5,0.5,1.2,0.5s1.1-0.4,1.1-0.9c0-0.6-0.6-0.9-1.2-1.2s-1.2-0.7-1.2-1.5
			c0-0.9,0.7-1.4,1.6-1.4c0.8,0,1.2,0.3,1.4,0.4l-0.3,0.5c-0.2-0.1-0.5-0.4-1.1-0.4c-0.5,0-0.9,0.3-0.9,0.8s0.4,0.8,1,1
			c0.7,0.3,1.5,0.7,1.5,1.7c0,0.8-0.7,1.4-1.7,1.4C112.3,238.3,111.8,238,111.6,237.8z"/>
		<path class="st2" d="M115.5,237.8c0-0.3,0.2-0.5,0.5-0.5s0.5,0.2,0.5,0.5s-0.2,0.5-0.5,0.5S115.5,238.1,115.5,237.8z"/>
	</g>
	<line class="st4" x1="0" y1="235.4" x2="6" y2="235.4"/>
</g>
<path class="st2" d="M9.9,19.1c0-0.7,0.7-1.2,1.1-1.5c-0.5-0.3-1-0.7-1-1.3c0-0.8,0.7-1.3,1.5-1.3c0.9,0,1.5,0.5,1.5,1.3
	c0,0.7-0.6,1-1.1,1.3c0.5,0.3,1.2,0.7,1.2,1.5s-0.6,1.4-1.6,1.4C10.4,20.5,9.9,19.8,9.9,19.1z M12.5,19c0-0.6-0.6-1-1.1-1.2
	C11,18,10.5,18.4,10.5,19c0,0.5,0.3,0.9,1,0.9C12.1,19.9,12.5,19.5,12.5,19z M12.4,16.2c0-0.4-0.3-0.8-0.8-0.8s-0.9,0.3-0.9,0.8
	s0.5,0.8,0.9,1C11.9,17,12.4,16.7,12.4,16.2z M13.9,17.7c0-1.3,0.5-2.8,2-2.8c1.4,0,2,1.4,2,2.8s-0.6,2.8-2,2.8S13.9,19,13.9,17.7z
	 M17.3,17.7c0-1.3-0.4-2.3-1.4-2.3s-1.4,1-1.4,2.3S15,20,15.9,20C16.9,20,17.3,19,17.3,17.7z M18.8,17.7c0-1.3,0.5-2.8,2-2.8
	c1.4,0,2,1.4,2,2.8s-0.6,2.8-2,2.8S18.8,19,18.8,17.7z M22.2,17.7c0-1.3-0.4-2.3-1.4-2.3s-1.4,1-1.4,2.3s0.4,2.3,1.4,2.3
	C21.7,20,22.2,19,22.2,17.7z M24,20.6c0-0.3-0.4-0.3-0.4-0.7c0-0.2,0.2-0.4,0.4-0.4c0.3,0,0.5,0.2,0.5,0.6S24.3,21,24,21.5h-0.4
	C23.9,21.2,24,20.8,24,20.6z M25.5,17.7c0-1.3,0.5-2.8,2-2.8c1.4,0,2,1.4,2,2.8s-0.6,2.8-2,2.8C26,20.5,25.5,19,25.5,17.7z
	 M28.9,17.7c0-1.3-0.4-2.3-1.4-2.3s-1.4,1-1.4,2.3s0.4,2.3,1.4,2.3C28.4,20,28.9,19,28.9,17.7z M30.3,17.7c0-1.3,0.5-2.8,2-2.8
	c1.4,0,2,1.4,2,2.8s-0.6,2.8-2,2.8C30.9,20.5,30.3,19,30.3,17.7z M33.7,17.7c0-1.3-0.4-2.3-1.4-2.3s-1.4,1-1.4,2.3s0.4,2.3,1.4,2.3
	S33.7,19,33.7,17.7z M35.2,17.7c0-1.3,0.5-2.8,2-2.8c1.4,0,2,1.4,2,2.8s-0.6,2.8-2,2.8S35.2,19,35.2,17.7z M38.6,17.7
	c0-1.3-0.4-2.3-1.4-2.3s-1.4,1-1.4,2.3s0.4,2.3,1.4,2.3C38.1,20,38.6,19,38.6,17.7z"/>
<path class="st2" d="M232.1,20c0.8,0,1.5-0.2,1.9-0.8c0.3-0.4,0.5-0.8,0.6-1.5c-0.3,0.3-0.7,0.5-1.2,0.5c-1,0-1.6-0.7-1.6-1.6
	s0.6-1.7,1.7-1.7c1.3,0,1.8,1.2,1.8,2.3c0,2-1,3.3-3,3.3L232.1,20z M234.7,17.3v-0.1c0-1.1-0.4-1.8-1.2-1.8c-0.7,0-1,0.6-1,1.2
	c0,0.8,0.4,1.2,1.1,1.2C234,17.8,234.4,17.6,234.7,17.3z M236.1,17.7c0-1.3,0.5-2.8,2-2.8c1.4,0,2,1.4,2,2.8s-0.6,2.8-2,2.8
	C236.7,20.5,236.1,19,236.1,17.7z M239.5,17.7c0-1.3-0.4-2.3-1.4-2.3s-1.4,1-1.4,2.3s0.4,2.3,1.4,2.3S239.5,19,239.5,17.7z"/>
<path class="st2" d="M232.2,61.4l1.9-4.8h-2.4v-0.5h3v0.4l-2,5.1L232.2,61.4z M235.6,58.7c0-1.3,0.5-2.8,2-2.8c1.4,0,2,1.4,2,2.8
	s-0.6,2.8-2,2.8C236.1,61.5,235.6,60.1,235.6,58.7z M238.9,58.7c0-1.3-0.4-2.3-1.4-2.3s-1.4,1-1.4,2.3s0.4,2.3,1.4,2.3
	S238.9,60,238.9,58.7z"/>
<path class="st2" d="M10.9,59.2c0-2,1.2-3.3,3.1-3.3l0.1,0.5c-0.8,0-1.4,0.2-1.9,0.6c-0.4,0.4-0.6,0.9-0.7,1.6
	c0.3-0.3,0.7-0.5,1.2-0.5c1,0,1.6,0.7,1.6,1.6s-0.6,1.7-1.7,1.7C11.4,61.5,10.9,60.3,10.9,59.2z M13.8,59.8c0-0.8-0.4-1.2-1.1-1.2
	c-0.5,0-0.8,0.2-1.1,0.5v0.1c0,1.1,0.4,1.8,1.2,1.8C13.5,61,13.8,60.4,13.8,59.8z M15.1,61.5l0.1-0.5c0.1,0,0.2,0,0.5,0
	c0.9,0,1.7-0.4,1.7-1.3c0-0.9-0.7-1.2-1.6-1.2c-0.2,0-0.4,0-0.4,0l0.2-2.5H18v0.5h-2L15.9,58c1.3,0,2,0.6,2,1.6c0,1.2-1,1.8-2.4,1.8
	C15.3,61.5,15.2,61.5,15.1,61.5z M18.8,58.7c0-1.3,0.5-2.8,2-2.8c1.4,0,2,1.4,2,2.8s-0.6,2.8-2,2.8C19.3,61.5,18.8,60.1,18.8,58.7z
	 M22.1,58.7c0-1.3-0.4-2.3-1.4-2.3s-1.4,1-1.4,2.3s0.4,2.3,1.4,2.3S22.1,60,22.1,58.7z M24,61.7c0-0.3-0.4-0.3-0.4-0.7
	c0-0.2,0.2-0.4,0.4-0.4c0.3,0,0.5,0.2,0.5,0.6c0,0.4-0.2,0.9-0.5,1.4h-0.4C23.9,62.2,24,61.9,24,61.7z M25.5,58.7
	c0-1.3,0.5-2.8,2-2.8c1.4,0,2,1.4,2,2.8s-0.6,2.8-2,2.8C26,61.5,25.5,60.1,25.5,58.7z M28.8,58.7c0-1.3-0.4-2.3-1.4-2.3
	s-1.4,1-1.4,2.3s0.4,2.3,1.4,2.3S28.8,60,28.8,58.7z M30.3,58.7c0-1.3,0.5-2.8,2-2.8c1.4,0,2,1.4,2,2.8s-0.6,2.8-2,2.8
	C30.9,61.5,30.3,60.1,30.3,58.7z M33.7,58.7c0-1.3-0.4-2.3-1.4-2.3s-1.4,1-1.4,2.3s0.4,2.3,1.4,2.3S33.7,60,33.7,58.7z M35.2,58.7
	c0-1.3,0.5-2.8,2-2.8c1.4,0,2,1.4,2,2.8s-0.6,2.8-2,2.8S35.2,60.1,35.2,58.7z M38.6,58.7c0-1.3-0.4-2.3-1.4-2.3s-1.4,1-1.4,2.3
	s0.4,2.3,1.4,2.3C38.2,61,38.6,60,38.6,58.7z"/>
<path class="st2" d="M231.8,102.3l0.1-0.5c0.1,0,0.2,0,0.5,0c0.9,0,1.7-0.4,1.7-1.3s-0.7-1.2-1.6-1.2c-0.2,0-0.4,0-0.4,0l0.2-2.5
	h2.4v0.5h-1.8l-0.1,1.4c1.3,0,2,0.6,2,1.6c0,1.2-1,1.8-2.4,1.8C232.1,102.3,231.9,102.3,231.8,102.3z M235.5,99.6
	c0-1.3,0.5-2.8,2-2.8c1.4,0,2,1.4,2,2.8s-0.6,2.8-2,2.8C236.1,102.3,235.5,100.9,235.5,99.6z M238.9,99.6c0-1.3-0.4-2.3-1.4-2.3
	s-1.4,1-1.4,2.3s0.4,2.3,1.4,2.3C238.5,101.8,238.9,100.8,238.9,99.6z"/>
<path class="st2" d="M231.9,143.6l0.1-0.5c0.1,0,0.3,0.1,0.7,0.1c1,0,1.5-0.4,1.5-1.1c0-0.8-0.7-1.1-1.7-1.1v-0.4
	c0.8,0,1.6-0.4,1.6-1.1c0-0.4-0.3-0.7-0.9-0.7c-0.5,0-0.8,0.2-1.1,0.4l-0.3-0.4c0.3-0.2,0.8-0.5,1.4-0.5c1,0,1.5,0.5,1.5,1.2
	s-0.6,1.1-1.2,1.3l0,0c0.7,0.1,1.3,0.6,1.3,1.4c0,1.1-0.9,1.7-2.1,1.7C232.2,143.7,232,143.7,231.9,143.6z M235.7,141
	c0-1.3,0.5-2.8,2-2.8c1.4,0,2,1.4,2,2.8s-0.6,2.8-2,2.8C236.3,143.7,235.7,142.3,235.7,141z M239.1,141c0-1.3-0.4-2.3-1.4-2.3
	s-1.4,1-1.4,2.3s0.4,2.3,1.4,2.3C238.7,143.2,239.1,142.2,239.1,141z"/>
<path class="st2" d="M10.2,102.3l0.1-0.5c0.1,0,0.2,0,0.5,0c0.9,0,1.7-0.4,1.7-1.3s-0.7-1.2-1.6-1.2c-0.2,0-0.4,0-0.4,0l0.2-2.5h2.4
	v0.5h-1.8L11,98.9c1.3,0,2,0.6,2,1.6c0,1.2-1,1.8-2.4,1.8C10.5,102.3,10.3,102.3,10.2,102.3z M13.9,99.6c0-1.3,0.5-2.8,2-2.8
	c1.4,0,2,1.4,2,2.8s-0.6,2.8-2,2.8C14.5,102.3,13.9,100.9,13.9,99.6z M17.3,99.6c0-1.3-0.4-2.3-1.4-2.3s-1.4,1-1.4,2.3
	s0.4,2.3,1.4,2.3C16.9,101.8,17.3,100.8,17.3,99.6z M18.8,99.6c0-1.3,0.5-2.8,2-2.8c1.4,0,2,1.4,2,2.8s-0.6,2.8-2,2.8
	C19.3,102.3,18.8,100.9,18.8,99.6z M22.1,99.6c0-1.3-0.4-2.3-1.4-2.3s-1.4,1-1.4,2.3s0.4,2.3,1.4,2.3
	C21.7,101.8,22.1,100.8,22.1,99.6z M24,102.5c0-0.3-0.4-0.3-0.4-0.7c0-0.2,0.2-0.4,0.4-0.4c0.3,0,0.5,0.2,0.5,0.6s-0.2,0.9-0.5,1.4
	h-0.4C23.9,103,24,102.7,24,102.5z M25.5,99.6c0-1.3,0.5-2.8,2-2.8c1.4,0,2,1.4,2,2.8s-0.6,2.8-2,2.8C26,102.3,25.5,100.9,25.5,99.6
	z M28.8,99.6c0-1.3-0.4-2.3-1.4-2.3s-1.4,1-1.4,2.3s0.4,2.3,1.4,2.3C28.4,101.8,28.8,100.8,28.8,99.6z M30.3,99.6
	c0-1.3,0.5-2.8,2-2.8c1.4,0,2,1.4,2,2.8s-0.6,2.8-2,2.8C30.9,102.3,30.3,100.9,30.3,99.6z M33.7,99.6c0-1.3-0.4-2.3-1.4-2.3
	s-1.4,1-1.4,2.3s0.4,2.3,1.4,2.3C33.3,101.8,33.7,100.8,33.7,99.6z M35.2,99.6c0-1.3,0.5-2.8,2-2.8c1.4,0,2,1.4,2,2.8
	s-0.6,2.8-2,2.8C35.8,102.3,35.2,100.9,35.2,99.6z M38.6,99.6c0-1.3-0.4-2.3-1.4-2.3s-1.4,1-1.4,2.3s0.4,2.3,1.4,2.3
	C38.2,101.8,38.6,100.8,38.6,99.6z"/>
<path class="st2" d="M11.3,143.6l0.1-0.5c0.1,0,0.3,0.1,0.7,0.1c1,0,1.5-0.4,1.5-1.1c0-0.8-0.7-1.1-1.7-1.1v-0.4
	c0.8,0,1.6-0.4,1.6-1.1c0-0.4-0.3-0.7-0.9-0.7c-0.5,0-0.8,0.2-1.1,0.4l-0.3-0.4c0.3-0.2,0.8-0.5,1.4-0.5c1,0,1.5,0.5,1.5,1.2
	s-0.6,1.1-1.2,1.3l0,0c0.7,0.1,1.3,0.6,1.3,1.4c0,1.1-0.9,1.7-2.1,1.7C11.7,143.7,11.4,143.7,11.3,143.6z M15.1,143.7l0.1-0.5
	c0.1,0,0.2,0,0.5,0c0.9,0,1.7-0.4,1.7-1.3c0-0.9-0.7-1.2-1.6-1.2c-0.2,0-0.4,0-0.4,0l0.2-2.5H18v0.5h-2l-0.1,1.4c1.3,0,2,0.6,2,1.6
	c0,1.2-1,1.8-2.4,1.8C15.3,143.7,15.2,143.7,15.1,143.7z M18.8,141c0-1.3,0.5-2.8,2-2.8c1.4,0,2,1.4,2,2.8s-0.6,2.8-2,2.8
	C19.3,143.7,18.8,142.3,18.8,141z M22.1,141c0-1.3-0.4-2.3-1.4-2.3s-1.4,1-1.4,2.3s0.4,2.3,1.4,2.3C21.7,143.2,22.1,142.2,22.1,141z
	 M24,143.9c0-0.3-0.4-0.3-0.4-0.7c0-0.2,0.2-0.4,0.4-0.4c0.3,0,0.5,0.2,0.5,0.6c0,0.4-0.2,0.9-0.5,1.4h-0.4
	C23.9,144.4,24,144.1,24,143.9z M25.5,141c0-1.3,0.5-2.8,2-2.8c1.4,0,2,1.4,2,2.8s-0.6,2.8-2,2.8C26,143.7,25.5,142.3,25.5,141z
	 M28.8,141c0-1.3-0.4-2.3-1.4-2.3s-1.4,1-1.4,2.3s0.4,2.3,1.4,2.3C28.4,143.2,28.8,142.2,28.8,141z M30.3,141c0-1.3,0.5-2.8,2-2.8
	c1.4,0,2,1.4,2,2.8s-0.6,2.8-2,2.8C30.9,143.7,30.3,142.3,30.3,141z M33.7,141c0-1.3-0.4-2.3-1.4-2.3s-1.4,1-1.4,2.3
	s0.4,2.3,1.4,2.3C33.3,143.2,33.7,142.2,33.7,141z M35.2,141c0-1.3,0.5-2.8,2-2.8c1.4,0,2,1.4,2,2.8s-0.6,2.8-2,2.8
	C35.8,143.7,35.2,142.3,35.2,141z M38.6,141c0-1.3-0.4-2.3-1.4-2.3s-1.4,1-1.4,2.3s0.4,2.3,1.4,2.3C38.2,143.2,38.6,142.2,38.6,141z
	"/>
<path class="st2" d="M9.9,184.1c0.9-0.9,2.5-2.4,2.5-3.6c0-0.7-0.4-1-0.9-1c-0.6,0-0.9,0.3-1.2,0.5l-0.3-0.4
	c0.3-0.4,0.8-0.7,1.5-0.7c0.9,0,1.6,0.5,1.6,1.4c0,1.2-1.3,2.5-2.3,3.5c0,0,0.3,0,0.6,0h1.8v0.5H9.9V184.1z M14,181.8
	c0-1.3,0.5-2.8,2-2.8c1.4,0,2,1.4,2,2.8s-0.6,2.8-2,2.8C14.6,184.5,14,183.1,14,181.8z M17.4,181.8c0-1.3-0.4-2.3-1.4-2.3
	s-1.4,1-1.4,2.3S15,184,16,184C16.9,184,17.4,183,17.4,181.8z M18.8,181.8c0-1.3,0.5-2.8,2-2.8c1.4,0,2,1.4,2,2.8s-0.6,2.8-2,2.8
	C19.4,184.5,18.8,183.1,18.8,181.8z M22.2,181.8c0-1.3-0.4-2.3-1.4-2.3s-1.4,1-1.4,2.3s0.4,2.3,1.4,2.3
	C21.8,184,22.2,183,22.2,181.8z M24.1,184.7c0-0.3-0.4-0.3-0.4-0.7c0-0.2,0.2-0.4,0.4-0.4c0.3,0,0.5,0.2,0.5,0.6
	c0,0.4-0.2,0.9-0.5,1.4h-0.4C23.9,185.2,24.1,184.9,24.1,184.7z M25.5,181.8c0-1.3,0.5-2.8,2-2.8c1.4,0,2,1.4,2,2.8s-0.6,2.8-2,2.8
	C26.1,184.5,25.5,183.1,25.5,181.8z M28.9,181.8c0-1.3-0.4-2.3-1.4-2.3s-1.4,1-1.4,2.3s0.4,2.3,1.4,2.3
	C28.5,184,28.9,183,28.9,181.8z M30.4,181.8c0-1.3,0.5-2.8,2-2.8c1.4,0,2,1.4,2,2.8s-0.6,2.8-2,2.8
	C30.9,184.5,30.4,183.1,30.4,181.8z M33.7,181.8c0-1.3-0.4-2.3-1.4-2.3s-1.4,1-1.4,2.3s0.4,2.3,1.4,2.3
	C33.3,184,33.7,183,33.7,181.8z M35.2,181.8c0-1.3,0.5-2.8,2-2.8c1.4,0,2,1.4,2,2.8s-0.6,2.8-2,2.8
	C35.8,184.5,35.2,183.1,35.2,181.8z M38.6,181.8c0-1.3-0.4-2.3-1.4-2.3s-1.4,1-1.4,2.3s0.4,2.3,1.4,2.3
	C38.2,184,38.6,183,38.6,181.8z"/>
<path class="st2" d="M232.9,179.7l-1,0.3l-0.1-0.5l1.3-0.4h0.5v5.3H233L232.9,179.7L232.9,179.7z M234.7,181.8c0-1.3,0.5-2.8,2-2.8
	c1.4,0,2,1.4,2,2.8s-0.6,2.8-2,2.8C235.3,184.5,234.7,183.1,234.7,181.8z M238.1,181.8c0-1.3-0.4-2.3-1.4-2.3s-1.4,1-1.4,2.3
	s0.4,2.3,1.4,2.3C237.7,184,238.1,183,238.1,181.8z"/>
<g>
	<path class="st2" d="M32.3,186.5h0.6l2.5,3.6c0.2,0.4,0.4,0.6,0.5,0.8l0,0c0-0.1,0-0.3,0-0.7v-3.7h0.6v5.3h-0.6l-2.6-3.8
		c-0.2-0.2-0.3-0.5-0.4-0.7l0,0c0,0.1,0,0.3,0,0.6v3.9h-0.6V186.5z"/>
</g>
<g>
	<path class="st2" d="M37.6,190c0-0.9,0.5-2,1.8-2s1.8,1.1,1.8,2s-0.5,2-1.8,2S37.6,190.8,37.6,190z M40.6,190
		c0-0.8-0.4-1.5-1.2-1.5s-1.1,0.7-1.1,1.5s0.4,1.5,1.2,1.5C40.2,191.5,40.6,190.8,40.6,190z"/>
	<path class="st2" d="M41.7,188h0.6l1.1,3.1l0,0l1.1-3.1h0.6l-1.4,3.8h-0.5L41.7,188z"/>
</g>
<path class="st2" d="M45.8,188.8h1.6v0.5h-1.6V188.8z M49.2,187.1l-1,0.3l-0.1-0.5l1.3-0.4h0.5v5.3h-0.6v-4.7H49.2z M51.1,189.7
	c0-2,1.2-3.3,3.1-3.3l0.1,0.5c-0.8,0-1.4,0.2-1.9,0.6c-0.4,0.4-0.6,0.9-0.7,1.6c0.3-0.3,0.7-0.5,1.2-0.5c1,0,1.6,0.7,1.6,1.6
	s-0.6,1.7-1.7,1.7C51.6,192,51.1,190.8,51.1,189.7z M53.9,190.3c0-0.8-0.4-1.2-1.1-1.2c-0.5,0-0.8,0.2-1.1,0.5v0.1
	c0,1.1,0.4,1.8,1.2,1.8C53.6,191.5,53.9,190.9,53.9,190.3z"/>
<g>
	<path class="st2" d="M69.6,187.6h0.6l2.5,3.6c0.2,0.4,0.4,0.6,0.5,0.8l0,0c0-0.1,0-0.3,0-0.7v-3.7h0.6v5.3h-0.6l-2.6-3.8
		c-0.2-0.2-0.3-0.5-0.4-0.7l0,0c0,0.1,0,0.3,0,0.6v3.9h-0.6V187.6z"/>
</g>
<g>
	<path class="st2" d="M74.9,191c0-0.9,0.5-2,1.8-2s1.8,1.1,1.8,2s-0.5,2-1.8,2S74.9,191.9,74.9,191z M77.9,191
		c0-0.8-0.4-1.5-1.2-1.5c-0.8,0-1.1,0.7-1.1,1.5s0.4,1.5,1.2,1.5C77.5,192.5,77.9,191.8,77.9,191z"/>
	<path class="st2" d="M79,189.1h0.6l1.1,3.1l0,0l1.1-3.1h0.6l-1.4,3.8h-0.5L79,189.1z"/>
</g>
<path class="st2" d="M83,189.9h1.6v0.5H83V189.9z M86.5,188.2l-1,0.3l-0.1-0.5l1.3-0.4h0.5v5.3h-0.6v-4.7H86.5z M88.6,192.9l1.9-4.8
	h-2.4v-0.5h3v0.4l-2,5.1L88.6,192.9z"/>
<g>
	<path class="st2" d="M106.5,187.6h0.6l2.5,3.6c0.2,0.4,0.4,0.6,0.5,0.8l0,0c0-0.1,0-0.3,0-0.7v-3.7h0.6v5.3h-0.6l-2.6-3.8
		c-0.2-0.2-0.3-0.5-0.4-0.7l0,0c0,0.1,0,0.3,0,0.6v3.9h-0.6V187.6z"/>
</g>
<g>
	<path class="st2" d="M111.9,191c0-0.9,0.5-2,1.8-2s1.8,1.1,1.8,2s-0.5,2-1.8,2S111.9,191.9,111.9,191z M114.8,191
		c0-0.8-0.4-1.5-1.2-1.5s-1.1,0.7-1.1,1.5s0.4,1.5,1.2,1.5S114.8,191.8,114.8,191z"/>
	<path class="st2" d="M115.9,189.1h0.6l1.1,3.1l0,0l1.1-3.1h0.6l-1.4,3.8h-0.5L115.9,189.1z"/>
</g>
<path class="st2" d="M120,189.9h1.6v0.5H120V189.9z M123.4,188.2l-1,0.3l-0.1-0.5l1.3-0.4h0.5v5.3h-0.6v-4.7H123.4z M125.2,191.6
	c0-0.7,0.7-1.2,1.1-1.5c-0.5-0.3-1-0.7-1-1.3c0-0.8,0.7-1.3,1.5-1.3c0.9,0,1.5,0.5,1.5,1.3c0,0.7-0.6,1-1.1,1.3
	c0.5,0.3,1.2,0.7,1.2,1.5s-0.6,1.4-1.6,1.4C125.7,193,125.2,192.4,125.2,191.6z M127.8,191.6c0-0.6-0.6-1-1.1-1.2
	c-0.4,0.2-0.9,0.6-0.9,1.2c0,0.5,0.3,0.9,1,0.9S127.8,192.1,127.8,191.6z M127.7,188.8c0-0.4-0.3-0.8-0.8-0.8s-0.9,0.3-0.9,0.8
	s0.5,0.8,0.9,1C127.3,189.6,127.7,189.3,127.7,188.8z"/>
<g>
	<path class="st2" d="M143.5,187.6h0.6l2.5,3.6c0.2,0.4,0.4,0.6,0.5,0.8l0,0c0-0.1,0-0.3,0-0.7v-3.7h0.6v5.3h-0.6l-2.6-3.8
		c-0.2-0.2-0.3-0.5-0.4-0.7l0,0c0,0.1,0,0.3,0,0.6v3.9h-0.6V187.6z"/>
</g>
<g>
	<path class="st2" d="M148.9,191c0-0.9,0.5-2,1.8-2s1.8,1.1,1.8,2s-0.5,2-1.8,2S148.9,191.9,148.9,191z M151.8,191
		c0-0.8-0.4-1.5-1.2-1.5s-1.1,0.7-1.1,1.5s0.4,1.5,1.2,1.5S151.8,191.8,151.8,191z"/>
	<path class="st2" d="M152.9,189.1h0.6l1.1,3.1l0,0l1.1-3.1h0.6l-1.4,3.8h-0.5L152.9,189.1z"/>
</g>
<path class="st2" d="M157,189.9h1.6v0.5H157V189.9z M160.4,188.2l-1,0.3l-0.1-0.5l1.3-0.4h0.5v5.3h-0.6L160.4,188.2L160.4,188.2z
	 M162.5,192.6c0.8,0,1.5-0.2,1.9-0.8c0.3-0.4,0.5-0.8,0.6-1.5c-0.3,0.3-0.7,0.5-1.2,0.5c-1,0-1.6-0.7-1.6-1.6s0.6-1.7,1.7-1.7
	c1.3,0,1.8,1.2,1.8,2.3c0,2-1,3.3-3,3.3L162.5,192.6z M165,189.9v-0.1c0-1.1-0.4-1.8-1.2-1.8c-0.7,0-1,0.6-1,1.2
	c0,0.8,0.4,1.2,1.1,1.2C164.4,190.3,164.7,190.2,165,189.9z"/>
<g>
	<path class="st2" d="M179.6,187.6h0.6l2.5,3.6c0.2,0.4,0.4,0.6,0.5,0.8l0,0c0-0.1,0-0.3,0-0.7v-3.7h0.6v5.3h-0.6l-2.6-3.8
		c-0.2-0.2-0.3-0.5-0.4-0.7l0,0c0,0.1,0,0.3,0,0.6v3.9h-0.6V187.6z"/>
</g>
<g>
	<path class="st2" d="M185,191c0-0.9,0.5-2,1.8-2s1.8,1.1,1.8,2s-0.5,2-1.8,2S185,191.9,185,191z M188,191c0-0.8-0.4-1.5-1.2-1.5
		s-1.1,0.7-1.1,1.5s0.4,1.5,1.2,1.5C187.6,192.5,188,191.8,188,191z"/>
	<path class="st2" d="M189.1,189.1h0.6l1.1,3.1l0,0l1.1-3.1h0.6l-1.4,3.8h-0.5L189.1,189.1z"/>
</g>
<path class="st2" d="M193.1,189.9h1.6v0.5h-1.6V189.9z M195.5,192.6c0.9-0.9,2.5-2.4,2.5-3.6c0-0.7-0.4-1-0.9-1
	c-0.6,0-0.9,0.3-1.2,0.5l-0.3-0.4c0.3-0.4,0.8-0.7,1.5-0.7c0.9,0,1.6,0.5,1.6,1.4c0,1.2-1.3,2.5-2.3,3.5c0,0,0.3,0,0.6,0h1.8v0.5
	h-3.3L195.5,192.6L195.5,192.6z M199.7,190.3c0-1.3,0.5-2.8,2-2.8c1.4,0,2,1.4,2,2.8s-0.6,2.8-2,2.8
	C200.2,193,199.7,191.6,199.7,190.3z M203.1,190.3c0-1.3-0.4-2.3-1.4-2.3s-1.4,1-1.4,2.3s0.4,2.3,1.4,2.3
	C202.6,192.5,203.1,191.5,203.1,190.3z"/>
<g>
	<path class="st2" d="M217.8,187.6h0.6l2.5,3.6c0.2,0.4,0.4,0.6,0.5,0.8l0,0c0-0.1,0-0.3,0-0.7v-3.7h0.6v5.3h-0.6l-2.6-3.8
		c-0.2-0.2-0.3-0.5-0.4-0.7l0,0c0,0.1,0,0.3,0,0.6v3.9h-0.6V187.6z"/>
</g>
<g>
	<path class="st2" d="M223.2,191c0-0.9,0.5-2,1.8-2s1.8,1.1,1.8,2s-0.5,2-1.8,2S223.2,191.9,223.2,191z M226.1,191
		c0-0.8-0.4-1.5-1.2-1.5s-1.1,0.7-1.1,1.5s0.4,1.5,1.2,1.5S226.1,191.8,226.1,191z"/>
	<path class="st2" d="M227.2,189.1h0.6l1.1,3.1l0,0l1.1-3.1h0.6l-1.4,3.8h-0.5L227.2,189.1z"/>
</g>
<path class="st2" d="M231.3,189.9h1.6v0.5h-1.6V189.9z M233.7,192.6c0.9-0.9,2.5-2.4,2.5-3.6c0-0.7-0.4-1-0.9-1
	c-0.6,0-0.9,0.3-1.2,0.5l-0.3-0.4c0.3-0.4,0.8-0.7,1.5-0.7c0.9,0,1.6,0.5,1.6,1.4c0,1.2-1.3,2.5-2.3,3.5c0,0,0.3,0,0.6,0h1.8v0.5
	h-3.3L233.7,192.6L233.7,192.6z M238.8,188.2l-1,0.3l-0.1-0.5l1.3-0.4h0.5v5.3h-0.6L238.8,188.2L238.8,188.2z"/>
<line class="st0" x1="80.1" y1="184.4" x2="80.1" y2="181.6"/>
<line class="st0" x1="117.3" y1="184.4" x2="117.3" y2="181.6"/>
<line class="st0" x1="154.4" y1="184.4" x2="154.4" y2="181.6"/>
<line class="st0" x1="191.5" y1="184.4" x2="191.5" y2="181.6"/>
<line class="st0" x1="228.6" y1="184.4" x2="228.6" y2="17.7"/>
<line class="st0" x1="41" y1="181.8" x2="230.3" y2="181.8"/>
<line class="st0" x1="41" y1="17.5" x2="230.3" y2="17.5"/>
<line class="st0" x1="41" y1="59.1" x2="230.3" y2="59.1"/>
<g>
	<rect x="101.6" y="78.1" class="st5" width="0.1" height="103.7"/>
	<rect x="103.8" y="58.2" class="st5" width="0.1" height="123.7"/>
	<rect x="105.2" y="70.1" class="st5" width="0.1" height="111.8"/>
	<rect x="112.2" y="86.9" class="st5" width="0.1" height="94.9"/>
	<rect x="100.9" y="74.2" class="st5" width="0.1" height="107.6"/>
	<rect x="105.8" y="69.3" class="st5" width="0.1" height="112.5"/>
	<rect x="103.1" y="57.6" class="st5" width="0.1" height="124.3"/>
	<rect x="102.3" y="66.2" class="st5" width="0.1" height="115.6"/>
	<rect x="110.9" y="91.9" class="st5" width="0.1" height="89.9"/>
	<rect x="110.1" y="88.2" class="st5" width="0.1" height="93.6"/>
	<rect x="109.4" y="82.3" class="st5" width="0.1" height="99.6"/>
	<rect x="106.6" y="70.5" class="st5" width="0.1" height="111.3"/>
	<rect x="111.6" y="83.8" class="st5" width="0.1" height="98.1"/>
	<rect x="107.3" y="80.2" class="st5" width="0.1" height="101.6"/>
	<rect x="108" y="89.6" class="st5" width="0.1" height="92.3"/>
	<rect x="108.7" y="86.4" class="st5" width="0.1" height="95.4"/>
	<rect x="104.5" y="64.4" class="st5" width="0.1" height="117.4"/>
	<rect x="94.5" y="43.9" class="st5" width="0.1" height="138"/>
	<rect x="92.5" y="44.8" class="st5" width="0.1" height="137.1"/>
	<rect x="93.9" y="45.8" class="st5" width="0.1" height="136"/>
	<rect x="93.2" y="41.5" class="st5" width="0.1" height="140.3"/>
	<rect x="90.3" y="44.6" class="st5" width="0.1" height="137.2"/>
	<rect x="91" y="49.4" class="st5" width="0.1" height="132.4"/>
	<rect x="91.7" y="54.3" class="st5" width="0.1" height="127.5"/>
	<rect x="98.8" y="63.8" class="st5" width="0.1" height="118"/>
	<rect x="100.3" y="77.4" class="st5" width="0.1" height="104.5"/>
	<rect x="98.1" y="60.8" class="st5" width="0.1" height="121"/>
	<rect x="99.6" y="70.8" class="st5" width="0.1" height="111"/>
	<rect x="96.7" y="48.2" class="st5" width="0.1" height="133.6"/>
	<rect x="97.4" y="51.2" class="st5" width="0.1" height="130.7"/>
	<rect x="96" y="42.4" class="st5" width="0.1" height="139.4"/>
	<rect x="95.2" y="38.1" class="st5" width="0.1" height="143.8"/>
	<rect x="117.1" y="136.3" class="st5" width="0.1" height="45.5"/>
	<rect x="124.2" y="143.4" class="st5" width="0.1" height="38.4"/>
	<rect x="129.9" y="114.1" class="st5" width="0.1" height="67.7"/>
	<rect x="129.2" y="123.3" class="st5" width="0.1" height="58.5"/>
	<rect x="127.1" y="147.2" class="st5" width="0.1" height="34.7"/>
	<rect x="127.8" y="141.4" class="st5" width="0.1" height="40.5"/>
	<rect x="124.9" y="148.8" class="st5" width="0.1" height="33"/>
	<rect x="125.7" y="157.9" class="st5" width="0.1" height="24"/>
	<rect x="126.4" y="150.9" class="st5" width="0.1" height="31"/>
	<rect x="128.4" y="137.6" class="st5" width="0.1" height="44.2"/>
	<rect x="130.7" y="105.2" class="st5" width="0.1" height="76.6"/>
	<rect x="134.3" y="101.8" class="st5" width="0.1" height="80.1"/>
	<rect x="135" y="103.6" class="st5" width="0.1" height="78.3"/>
	<rect x="133.6" y="93.6" class="st5" width="0.1" height="88.2"/>
	<rect x="132.9" y="87.3" class="st5" width="0.1" height="94.5"/>
	<rect x="131.4" y="95.7" class="st5" width="0.1" height="86.2"/>
	<rect x="132.1" y="96" class="st5" width="0.1" height="85.9"/>
	<rect x="135.6" y="106.1" class="st5" width="0.1" height="75.7"/>
	<rect x="116.5" y="132.6" class="st5" width="0.1" height="49.3"/>
	<rect x="89.6" y="48.6" class="st5" width="0.1" height="133.2"/>
	<rect x="115.8" y="126.3" class="st5" width="0.1" height="55.5"/>
	<rect x="113.6" y="102.1" class="st5" width="0.1" height="79.8"/>
	<rect x="117.9" y="141.5" class="st5" width="0.1" height="40.3"/>
	<rect x="114.4" y="112.3" class="st5" width="0.1" height="69.5"/>
	<rect x="123.5" y="145.1" class="st5" width="0.1" height="36.8"/>
	<rect x="115.1" y="118.6" class="st5" width="0.1" height="63.2"/>
	<rect x="122.2" y="160.8" class="st5" width="0.1" height="21"/>
	<rect x="121.5" y="155" class="st5" width="0.1" height="26.8"/>
	<rect x="112.9" y="92.5" class="st5" width="0.1" height="89.3"/>
	<rect x="118.6" y="146.4" class="st5" width="0.1" height="35.4"/>
	<rect x="119.3" y="152.1" class="st5" width="0.1" height="29.8"/>
	<rect x="120" y="152.1" class="st5" width="0.1" height="29.8"/>
	<rect x="120.7" y="153" class="st5" width="0.1" height="28.9"/>
	<rect x="122.9" y="152.8" class="st5" width="0.1" height="29"/>
	<rect x="58.5" y="115.5" class="st5" width="0.1" height="66.4"/>
	<rect x="60.6" y="146.9" class="st5" width="0.1" height="35"/>
	<rect x="60" y="134.7" class="st5" width="0.1" height="47.2"/>
	<rect x="57.8" y="117.2" class="st5" width="0.1" height="64.6"/>
	<rect x="59.3" y="124.2" class="st5" width="0.1" height="57.6"/>
	<rect x="55.7" y="122.3" class="st5" width="0.1" height="59.5"/>
	<rect x="57.1" y="125.1" class="st5" width="0.1" height="56.7"/>
	<rect x="56.4" y="128" class="st5" width="0.1" height="53.9"/>
	<rect x="61.3" y="146.7" class="st5" width="0.1" height="35.1"/>
	<rect x="64.9" y="146.9" class="st5" width="0.1" height="35"/>
	<rect x="64.2" y="138.5" class="st5" width="0.1" height="43.3"/>
	<rect x="65.5" y="147.2" class="st5" width="0.1" height="34.7"/>
	<rect x="63.5" y="132.1" class="st5" width="0.1" height="49.7"/>
	<rect x="55" y="118.1" class="st5" width="0.1" height="63.7"/>
	<rect x="62" y="134.8" class="st5" width="0.1" height="47"/>
	<rect x="62.8" y="134.5" class="st5" width="0.1" height="47.3"/>
	<rect x="47.2" y="115.2" class="st5" width="0.1" height="66.7"/>
	<rect x="46.5" y="117.4" class="st5" width="0.1" height="64.4"/>
	<rect x="66.3" y="143.4" class="st5" width="0.1" height="38.4"/>
	<rect x="45.8" y="121.3" class="st5" width="0.1" height="60.6"/>
	<rect x="48" y="116.5" class="st5" width="0.1" height="65.3"/>
	<rect x="43.6" y="161.1" class="st5" width="0.1" height="20.7"/>
	<rect x="44.4" y="157.9" class="st5" width="0.1" height="24"/>
	<rect x="45.1" y="133.5" class="st5" width="0.1" height="48.4"/>
	<rect x="53.6" y="93.3" class="st5" width="0.1" height="88.5"/>
	<rect x="52.2" y="97.9" class="st5" width="0.1" height="83.9"/>
	<rect x="54.2" y="97.9" class="st5" width="0.1" height="83.9"/>
	<rect x="51.5" y="106.4" class="st5" width="0.1" height="75.5"/>
	<rect x="50.7" y="102.2" class="st5" width="0.1" height="79.6"/>
	<rect x="88.9" y="42.4" class="st5" width="0.1" height="139.4"/>
	<rect x="49.3" y="109.8" class="st5" width="0.1" height="72"/>
	<rect x="50" y="104.9" class="st5" width="0.1" height="76.9"/>
	<rect x="48.6" y="118.3" class="st5" width="0.1" height="63.5"/>
	<rect x="81.9" y="69.9" class="st5" width="0.1" height="111.9"/>
	<rect x="82.6" y="69" class="st5" width="0.1" height="112.8"/>
	<rect x="81.2" y="70.2" class="st5" width="0.1" height="111.6"/>
	<rect x="79" y="87.9" class="st5" width="0.1" height="93.9"/>
	<rect x="83.2" y="72.4" class="st5" width="0.1" height="109.4"/>
	<rect x="80.4" y="79.1" class="st5" width="0.1" height="102.7"/>
	<rect x="79.7" y="73.9" class="st5" width="0.1" height="107.9"/>
	<rect x="86.8" y="41.2" class="st5" width="0.1" height="140.6"/>
	<rect x="78.3" y="99.4" class="st5" width="0.1" height="82.4"/>
	<rect x="87.5" y="36.3" class="st5" width="0.1" height="145.5"/>
	<rect x="88.3" y="35.1" class="st5" width="0.1" height="146.7"/>
	<rect x="83.9" y="64.3" class="st5" width="0.1" height="117.6"/>
	<rect x="86.1" y="43.6" class="st5" width="0.1" height="138.3"/>
	<rect x="84.7" y="66.3" class="st5" width="0.1" height="115.5"/>
	<rect x="85.4" y="57.3" class="st5" width="0.1" height="124.6"/>
	<rect x="73.3" y="134.4" class="st5" width="0.1" height="47.5"/>
	<rect x="69.9" y="105.5" class="st5" width="0.1" height="76.3"/>
	<rect x="70.6" y="110.1" class="st5" width="0.1" height="71.7"/>
	<rect x="71.3" y="115" class="st5" width="0.1" height="66.8"/>
	<rect x="67.7" y="128.4" class="st5" width="0.1" height="53.4"/>
	<rect x="69.1" y="103.9" class="st5" width="0.1" height="78"/>
	<rect x="71.9" y="136.7" class="st5" width="0.1" height="45.1"/>
	<rect x="68.4" y="121.1" class="st5" width="0.1" height="60.7"/>
	<rect x="76.8" y="119.3" class="st5" width="0.1" height="62.5"/>
	<rect x="76.2" y="122.7" class="st5" width="0.1" height="59.1"/>
	<rect x="77.6" y="114.7" class="st5" width="0.1" height="67.1"/>
	<rect x="75.5" y="115.3" class="st5" width="0.1" height="66.5"/>
	<rect x="67" y="138.8" class="st5" width="0.1" height="43"/>
	<rect x="72.6" y="132.3" class="st5" width="0.1" height="49.6"/>
	<rect x="74.8" y="112.6" class="st5" width="0.1" height="69.2"/>
	<rect x="74.1" y="122.5" class="st5" width="0.1" height="59.4"/>
	<rect x="52.9" y="84.8" class="st5" width="0.1" height="97"/>
	<rect x="183" y="102.7" class="st5" width="0.1" height="79.2"/>
	<rect x="200" y="96.1" class="st5" width="0.1" height="85.7"/>
	<rect x="194.3" y="93.1" class="st5" width="0.1" height="88.7"/>
	<rect x="199.3" y="96.3" class="st5" width="0.1" height="85.6"/>
	<rect x="197.9" y="98.9" class="st5" width="0.1" height="82.9"/>
	<rect x="195" y="97" class="st5" width="0.1" height="84.8"/>
	<rect x="195.8" y="95.1" class="st5" width="0.1" height="86.8"/>
	<rect x="205.6" y="102.2" class="st5" width="0.1" height="79.6"/>
	<rect x="198.5" y="100.4" class="st5" width="0.1" height="81.4"/>
	<rect x="203.6" y="93.9" class="st5" width="0.1" height="88"/>
	<rect x="204.3" y="91.6" class="st5" width="0.1" height="90.2"/>
	<rect x="204.9" y="97" class="st5" width="0.1" height="84.8"/>
	<rect x="202.9" y="93.3" class="st5" width="0.1" height="88.5"/>
	<rect x="201.4" y="95.1" class="st5" width="0.1" height="86.8"/>
	<rect x="202.1" y="90" class="st5" width="0.1" height="91.8"/>
	<rect x="200.7" y="97" class="st5" width="0.1" height="84.8"/>
	<rect x="196.5" y="92.7" class="st5" width="0.1" height="89.1"/>
	<rect x="185.9" y="110.5" class="st5" width="0.1" height="71.3"/>
	<rect x="186.6" y="107.9" class="st5" width="0.1" height="74"/>
	<rect x="187.2" y="107.6" class="st5" width="0.1" height="74.3"/>
	<rect x="184.5" y="113.8" class="st5" width="0.1" height="68"/>
	<rect x="183.7" y="114" class="st5" width="0.1" height="67.9"/>
	<rect x="188" y="102.8" class="st5" width="0.1" height="79"/>
	<rect x="185.2" y="107.6" class="st5" width="0.1" height="74.3"/>
	<rect x="189.4" y="115.9" class="st5" width="0.1" height="65.9"/>
	<rect x="192.3" y="95.5" class="st5" width="0.1" height="86.3"/>
	<rect x="193" y="96.3" class="st5" width="0.1" height="85.6"/>
	<rect x="191.6" y="94" class="st5" width="0.1" height="87.8"/>
	<rect x="190.8" y="105.3" class="st5" width="0.1" height="76.5"/>
	<rect x="193.6" y="96.4" class="st5" width="0.1" height="85.4"/>
	<rect x="190.1" y="110.1" class="st5" width="0.1" height="71.7"/>
	<rect x="188.7" y="107.7" class="st5" width="0.1" height="74.1"/>
	<rect x="197.2" y="97.9" class="st5" width="0.1" height="83.9"/>
	<rect x="221.9" y="139.4" class="st5" width="0.1" height="42.4"/>
	<rect x="221.3" y="139.6" class="st5" width="0.1" height="42.3"/>
	<rect x="222.6" y="134.5" class="st5" width="0.1" height="47.3"/>
	<rect x="220.5" y="141.2" class="st5" width="0.1" height="40.6"/>
	<rect x="219.8" y="139.3" class="st5" width="0.1" height="42.6"/>
	<rect x="223.3" y="127.8" class="st5" width="0.1" height="54"/>
	<rect x="218.4" y="126.2" class="st5" width="0.1" height="55.7"/>
	<rect x="219.1" y="134.4" class="st5" width="0.1" height="47.5"/>
	<rect x="226.2" y="122.2" class="st5" width="0.1" height="59.7"/>
	<rect x="227.5" y="123" class="st5" width="0.1" height="58.8"/>
	<rect x="228" y="125.3" class="st5" width="0.1" height="56.6"/>
	<rect x="226.9" y="121.6" class="st5" width="0.1" height="60.3"/>
	<rect x="225.5" y="121" class="st5" width="0.1" height="60.9"/>
	<rect x="224.8" y="119.3" class="st5" width="0.1" height="62.5"/>
	<rect x="217.7" y="127.4" class="st5" width="0.1" height="54.5"/>
	<rect x="224" y="126.2" class="st5" width="0.1" height="55.7"/>
	<rect x="212.7" y="93" class="st5" width="0.1" height="88.8"/>
	<rect x="210" y="106.8" class="st5" width="0.1" height="75"/>
	<rect x="216.9" y="119" class="st5" width="0.1" height="62.8"/>
	<rect x="210.6" y="102.5" class="st5" width="0.1" height="79.3"/>
	<rect x="209.2" y="106.7" class="st5" width="0.1" height="75.2"/>
	<rect x="207.1" y="103" class="st5" width="0.1" height="78.9"/>
	<rect x="207.8" y="100.1" class="st5" width="0.1" height="81.7"/>
	<rect x="208.5" y="101.2" class="st5" width="0.1" height="80.7"/>
	<rect x="211.3" y="97.3" class="st5" width="0.1" height="84.5"/>
	<rect x="215.6" y="114.1" class="st5" width="0.1" height="67.7"/>
	<rect x="216.2" y="113.8" class="st5" width="0.1" height="68"/>
	<rect x="214.9" y="100.4" class="st5" width="0.1" height="81.4"/>
	<rect x="206.4" y="100.1" class="st5" width="0.1" height="81.7"/>
	<rect x="212" y="93.7" class="st5" width="0.1" height="88.1"/>
	<rect x="214.2" y="100.9" class="st5" width="0.1" height="81"/>
	<rect x="213.4" y="94" class="st5" width="0.1" height="87.8"/>
	<rect x="141.3" y="121" class="st5" width="0.1" height="60.9"/>
	<rect x="150.5" y="139.1" class="st5" width="0.1" height="42.7"/>
	<rect x="153.3" y="120.7" class="st5" width="0.1" height="61.2"/>
	<rect x="151.3" y="136.6" class="st5" width="0.1" height="45.2"/>
	<rect x="152.7" y="125.7" class="st5" width="0.1" height="56.1"/>
	<rect x="152" y="132" class="st5" width="0.1" height="49.9"/>
	<rect x="159" y="81.8" class="st5" width="0.1" height="100"/>
	<rect x="148.4" y="120.8" class="st5" width="0.1" height="61"/>
	<rect x="149.1" y="130.3" class="st5" width="0.1" height="51.5"/>
	<rect x="147.7" y="120.1" class="st5" width="0.1" height="61.8"/>
	<rect x="157.6" y="86.6" class="st5" width="0.1" height="95.2"/>
	<rect x="158.4" y="85.2" class="st5" width="0.1" height="96.6"/>
	<rect x="156.9" y="90.3" class="st5" width="0.1" height="91.5"/>
	<rect x="155.5" y="119.8" class="st5" width="0.1" height="62.1"/>
	<rect x="154.8" y="108" class="st5" width="0.1" height="73.8"/>
	<rect x="156.2" y="101.3" class="st5" width="0.1" height="80.5"/>
	<rect x="154" y="119.2" class="st5" width="0.1" height="62.7"/>
	<rect x="149.8" y="139.6" class="st5" width="0.1" height="42.3"/>
	<rect x="140" y="129.3" class="st5" width="0.1" height="52.5"/>
	<rect x="136.4" y="116.8" class="st5" width="0.1" height="65"/>
	<rect x="139.2" y="133.2" class="st5" width="0.1" height="48.7"/>
	<rect x="140.7" y="130" class="st5" width="0.1" height="51.8"/>
	<rect x="137.1" y="127.4" class="st5" width="0.1" height="54.5"/>
	<rect x="138.5" y="137.5" class="st5" width="0.1" height="44.3"/>
	<rect x="137.8" y="140.6" class="st5" width="0.1" height="41.2"/>
	<rect x="144.9" y="123.3" class="st5" width="0.1" height="58.5"/>
	<rect x="146.9" y="119.8" class="st5" width="0.1" height="62.1"/>
	<rect x="142" y="128" class="st5" width="0.1" height="53.9"/>
	<rect x="146.3" y="131.7" class="st5" width="0.1" height="50.2"/>
	<rect x="145.6" y="129.7" class="st5" width="0.1" height="52.1"/>
	<rect x="142.7" y="130.9" class="st5" width="0.1" height="50.9"/>
	<rect x="144.2" y="132.3" class="st5" width="0.1" height="49.6"/>
	<rect x="143.4" y="134.1" class="st5" width="0.1" height="47.8"/>
	<rect x="178.8" y="86.9" class="st5" width="0.1" height="94.9"/>
	<rect x="159.7" y="91.9" class="st5" width="0.1" height="89.9"/>
	<rect x="173.9" y="81.5" class="st5" width="0.1" height="100.3"/>
	<rect x="174.6" y="81.7" class="st5" width="0.1" height="100.2"/>
	<rect x="175.9" y="83.6" class="st5" width="0.1" height="98.2"/>
	<rect x="171" y="91.8" class="st5" width="0.1" height="90"/>
	<rect x="171.7" y="89" class="st5" width="0.1" height="92.9"/>
	<rect x="173.2" y="88.5" class="st5" width="0.1" height="93.3"/>
	<rect x="172.4" y="88.4" class="st5" width="0.1" height="93.5"/>
	<rect x="175.3" y="87.6" class="st5" width="0.1" height="94.2"/>
	<rect x="177.4" y="90.6" class="st5" width="0.1" height="91.2"/>
	<rect x="181.6" y="97.3" class="st5" width="0.1" height="84.5"/>
	<rect x="180.2" y="90.3" class="st5" width="0.1" height="91.5"/>
	<rect x="181" y="94.5" class="st5" width="0.1" height="87.4"/>
	<rect x="178.1" y="89.4" class="st5" width="0.1" height="92.4"/>
	<rect x="182.3" y="100" class="st5" width="0.1" height="81.8"/>
	<rect x="179.5" y="91.3" class="st5" width="0.1" height="90.5"/>
	<rect x="176.7" y="88.2" class="st5" width="0.1" height="93.6"/>
	<rect x="163.3" y="124.2" class="st5" width="0.1" height="57.6"/>
	<rect x="162.6" y="128.3" class="st5" width="0.1" height="53.6"/>
	<rect x="164" y="118.9" class="st5" width="0.1" height="63"/>
	<rect x="160.4" y="94.6" class="st5" width="0.1" height="87.2"/>
	<rect x="164.6" y="130.6" class="st5" width="0.1" height="51.2"/>
	<rect x="161.1" y="110.5" class="st5" width="0.1" height="71.3"/>
	<rect x="161.8" y="128.1" class="st5" width="0.1" height="53.7"/>
	<rect x="168.9" y="97.3" class="st5" width="0.1" height="84.5"/>
	<rect x="170.3" y="75.9" class="st5" width="0.1" height="106"/>
	<rect x="169.7" y="76.5" class="st5" width="0.1" height="105.4"/>
	<rect x="168.2" y="104.3" class="st5" width="0.1" height="77.5"/>
	<rect x="166.8" y="117.5" class="st5" width="0.1" height="64.3"/>
	<rect x="167.5" y="117.8" class="st5" width="0.1" height="64"/>
	<rect x="166.1" y="116.5" class="st5" width="0.1" height="65.3"/>
	<rect x="165.3" y="130.8" class="st5" width="0.1" height="51"/>
</g>
<g>
	<polyline class="st6" points="87.7,72.4 88.3,81.4 88.9,76.4 89.6,72.5 90.3,77.2 91,75.6 91.8,75 92.1,72.3 	"/>
	<polygon class="st6" points="86.1,72.9 86.1,72.5 85.9,72.5 	"/>
	<polygon class="st6" points="85.2,72.5 85.9,72.5 85.4,71 	"/>
	<polygon class="st6" points="93.8,75.6 94.1,72.2 93.5,72.2 	"/>
	<polyline class="st6" points="114.9,71.4 115.1,73.4 115.8,79.5 116.4,87.1 117.2,99.4 117.9,98.4 118.6,95 119.3,97.8 120,109.3 
		120.7,109.7 121.5,104.4 122.2,97.1 122.8,92.4 123.5,92.7 124.2,89.5 125,94.7 125.7,88.9 126.4,85.4 127.1,88.4 127.7,87.8 
		128.5,82.8 129.2,81.7 129.9,79.5 130.7,73.5 131.4,71.9 132.2,71.6 132.9,73.1 133.6,75.9 134.3,76.4 134.9,74.1 135.7,82.6 
		136.4,93 137.1,92.1 137.8,95.1 138.5,85 139.2,82.9 140,84.8 140.6,79.3 141.3,88.7 142,87.5 142.7,88.7 143.5,91.1 144.2,90.4 
		144.9,91.7 145.6,89.8 146.2,86.9 147,90.4 147.7,83.7 148.4,88.1 149.1,94.5 149.8,90.7 150.6,92.4 151.3,86.6 152,87.5 
		152.6,85.4 153.3,84.4 154.1,84.4 154.8,89.6 155.5,81.4 156.2,79.6 156.9,78.9 157.5,76.4 158.3,73.5 159,81.7 159.7,82.8 
		160.4,91.7 161.1,97.1 161.9,99.6 162.6,96 163.3,93.3 163.9,110.9 164.6,118.1 165.4,137.6 166.1,156.6 166.8,158.4 167.5,144.4 
		168.2,155.9 169,165.1 169.6,167.8 170.3,162 171,151.9 171.7,142.3 172.4,134.4 173.2,129.8 173.9,121.6 174.6,128.3 175.2,121.2 
		175.9,123.7 176.7,119.4 177.4,119.5 178.1,119.4 178.8,118.1 179.5,120.1 180.3,118.2 180.9,116.6 181.6,115.8 182.3,114.6 
		183,121.2 183.8,126.1 184.5,118.4 185.2,120.1 185.9,126.7 186.5,119.4 187.3,118.8 188,121 188.7,129.2 189.4,126.5 190.1,120.4 
		190.8,116.3 191.6,109.4 192.2,107.9 192.9,107.2 193.6,102.1 194.3,103.9 195.1,103.3 195.8,95.7 196.5,95.4 197.8,95.7 
		198.6,86.2 199.3,80.8 200,81.4 200.7,76.8 201.3,68 	"/>
	<polyline class="st6" points="201.9,68 202.2,68.3 202.9,76.9 203.5,77.8 204.2,76.8 204.9,81.1 205.7,73.4 206.4,75.5 207.1,72.5 
		207.8,69.8 208.5,68.8 209.1,72.5 209.8,67.7 	"/>
	<polyline class="st6" points="43.2,74.1 43.2,108.8 43.7,108.2 44.4,96.8 45.1,97.2 45.8,96.3 46.5,94.1 47.3,92.6 48,92.1 
		48.6,95.4 49.3,95.3 50,93.8 50.7,92.4 51.5,92.3 52.2,93.3 52.9,92.1 53.6,93.5 54.2,103.3 55,102.7 55.7,104.4 56.4,99 
		57.1,95.7 57.8,93.8 58.6,101.1 59.3,101.7 59.9,107.9 60.6,104.7 61.3,99.6 62.1,100.6 62.8,104.9 63.5,108.8 64.2,110.9 
		64.9,114.5 65.7,108.4 66.3,111.9 67,107.3 67.7,108.8 68.4,100.8 69.1,101.1 69.9,102.7 70.6,103.3 71.2,104.7 71.9,105.8 
		72.6,105.4 73.4,100.5 74.1,98.8 74.8,96.8 75.5,101.7 76.2,97.2 77,97.2 77.6,92.3 78.3,88.7 79,86.5 79.7,86.8 80.5,82 
		81.2,83.2 81.9,85.1 82.5,85.3 83.2,82.9 84,78.9 84.7,76.8 85.2,72.5 	"/>
	<polyline class="st6" points="218,67.4 217.7,62.5 217,62.9 216.2,51.3 215.5,55.2 214.8,55.6 214.2,50 213.5,48.8 212.7,51 
		212,55.9 211.3,57.4 210.6,60.1 209.9,66.8 209.8,67.7 	"/>
	<polyline class="st6" points="228.7,67 228,63.1 227.5,46.9 226.8,37.3 226.1,36.3 225.5,31.7 224.8,31.2 224,34.2 223.3,40.3 
		222.6,47.3 221.9,51.2 221.2,55.4 220.6,60 219.8,60.9 219.1,61.9 218.8,67.4 	"/>
	<polyline class="st6" points="87.7,72.4 87.5,68.6 86.8,67.3 86.1,72.5 	"/>
	<polygon class="st6" points="218.8,67.4 218,67.4 218.4,75 	"/>
	<polyline class="st6" points="93.5,72.2 93.2,69.6 92.5,67.7 92.1,72.3 	"/>
	<polyline class="st6" points="114.9,71.4 114.4,64.3 113.7,61.2 112.9,56.7 112.2,50.4 111.5,52.7 110.9,57.7 110.2,61.5 109.4,64 
		108.7,59.8 108,62.1 107.3,67.7 106.6,64.1 105.8,62.5 105.1,62.1 104.5,58.5 103.8,57.3 103.1,51.6 102.3,50.9 101.6,62.2 
		100.9,69.5 100.2,68 99.6,67.9 98.9,63.7 98.1,56.7 97.4,57.9 96.7,60 96,63.2 95.3,62.6 94.5,64.7 94.1,72.2 	"/>
	<polygon class="st6" points="201.3,68 201.9,68 201.4,67.4 	"/>
</g>
</svg>
