<?xml version="1.0" encoding="utf-8"?>
<!-- Generator: Adobe Illustrator 26.0.0, SVG Export Plug-In . SVG Version: 6.00 Build 0)  -->
<svg version="1.1" id="Layer_1" xmlns="http://www.w3.org/2000/svg" xmlns:xlink="http://www.w3.org/1999/xlink" x="0px" y="0px"
	 viewBox="0 0 226.4 31" style="enable-background:new 0 0 226.4 31;" xml:space="preserve">
<style type="text/css">
	.st0{fill:#FFCA34;}
	.st1{fill:#A97A5C;}
	.st2{fill:#FECF08;}
</style>
<g id="Group_51" transform="translate(-73 -160.502)">
	<g id="Maybank" transform="translate(73 163.938)">
		<path id="Maybank-2" class="st0" d="M64.1,24.9l2-4.5L61,9h4.5l2.7,8.1L71,9h4.5l-7,15.9H64.1z M88.8,16.9c0-3,3.6-3.7,7.7-3.9
			v-0.4c0-0.9-0.7-1.3-2.1-1.3c-1.3,0-2.6,0.3-3.8,0.7l-1-2.3c1.7-0.6,3.5-0.9,5.3-0.9c3.7,0,5.5,1.3,5.5,4.3V20
			c-1.7,0.6-3.5,0.9-5.2,0.8C90.9,20.6,88.8,19.3,88.8,16.9z M92.6,16.8c0,0.9,0.9,1.4,2.4,1.4c0.5,0,1-0.1,1.5-0.2v-2.9
			C94.3,15.2,92.6,15.4,92.6,16.8L92.6,16.8z M49.7,16.9c0-3,3.6-3.7,7.7-3.9v-0.4c0-0.9-0.7-1.3-2.1-1.3c-1.3,0-2.6,0.3-3.8,0.7
			l-1-2.3c1.7-0.6,3.5-0.9,5.3-0.9c3.7,0,5.5,1.3,5.5,4.3V20c-1.7,0.6-3.5,0.9-5.2,0.8C51.8,20.6,49.7,19.3,49.7,16.9z M53.5,16.8
			c0,0.9,0.9,1.4,2.4,1.4c0.5,0,1-0.1,1.5-0.2v-2.9C55.2,15.2,53.5,15.4,53.5,16.8z M76.2,19.8v-16h4.1v5.4C81,9,81.7,8.9,82.4,8.9
			c3.5,0,5.9,2,5.9,5.5c0,4.3-2.5,6.3-7.1,6.3C79.5,20.6,77.8,20.4,76.2,19.8z M80.3,11.7v6.1c0.4,0.1,0.8,0.2,1.2,0.2
			c1.7,0,2.7-1.2,2.7-3.3c0-2-0.9-3.1-2.6-3.1C81.1,11.5,80.7,11.6,80.3,11.7L80.3,11.7z M123.5,20.4l-4.1-5.7h-0.1v5.7h-4.1V3.8
			h4.1v10.1h0.1l3.7-4.9h4.6l-4.2,5.3l4.5,6.1H123.5z M109.5,20.4V13c0-0.9-0.5-1.6-2-1.6c-0.5,0-1,0.1-1.4,0.3v8.7H102V9.6
			c1.8-0.6,3.7-0.9,5.6-0.9c4.2,0,6.1,1.5,6.1,3.9v7.8L109.5,20.4z M45.2,20.4L44,9.9l-3.7,10.5h-2.6L34,9.9l-1.2,10.5h-3.9L31,5.1
			h4.8l3.2,9.4l3.2-9.4H47l2.2,15.3L45.2,20.4z"/>
	</g>
	<g id="Premier" transform="translate(209.12 163)">
		<path id="Premier-2" class="st1" d="M15.2,28c-0.9,0-1.7-0.2-2.6-0.5c1.4,0.2,2.5-0.5,4.6-1.7s5.8-6,7.2-8.2l0,0l1.2-1.5l1.4-1.8
			c-1.1-1-1.7-2.3-1.7-3.8c-0.1-2.1,1.1-4,3-4.9c-1.1,0.8-1.8,2-2,3.3c0.9-2.7,2.7-4,5.2-4c1.3,0,2.5,0.6,3.2,1.6
			c-0.9-0.7-2-1.1-3.1-1c-1.3,0.1-2.4,0.7-3.1,1.8c-0.7,1-1.1,2.2-1.1,3.4c0,0.8,0.2,1.7,0.6,2.4c5.1-5.9,9.3-8.7,12.6-8.5
			c0.6,0,1.1,0.2,1.6,0.5c-1.2,0.1-2.4,0.3-3.6,0.8c-1.1,0.5-2.1,1.2-2.9,2.1l-3.3,3.6c-1.1,1.2-2,2.2-2.9,3.2
			c0.1,0.1,0.3,0.2,0.4,0.3c1.2,0.6,2.6,0.7,3.9,0.5c1-0.1,1.9-0.4,2.8-0.9c-1.3,0.9-2.9,1.4-4.4,1.5c0.9,0.2,1.9,0.3,2.8,0.1
			c2.3-0.5,4.4-1.6,6.1-3.2c0.3-0.2,0.5-0.5,0.8-0.7c-0.1-0.1-0.2-0.1-0.3-0.1s-0.3,0-0.4,0c-0.1,0-0.2,0-0.2-0.1s0.1-0.1,0.2-0.1
			c0.3,0,0.7,0,1,0c1.6-1.6,2.4-3.1,2.4-4.6c0-1.8-1.1-3.1-3.2-3.9c-1.8-0.6-3.7-0.9-5.6-0.8C32.7,3,29.5,3.3,26.4,4
			c-3.1,0.6-6.3,1-9.5,1.1C11.7,5,8.1,3.3,6.1,0c2.4,2.1,6.6,3.2,12.4,3.2c3.5,0,7-0.3,10.4-0.7l5.8-0.7c1.9-0.2,3.9-0.2,5.8,0
			C41.9,2,43.2,2.4,44.3,3c1.2,0.6,2,1.8,2,3.1c0,1.7-1.1,3.7-3.3,6c0.4,0,0.9,0,1.2,0c0.7-0.1,1.4,0.1,2,0.5
			c0.5,0.4,0.7,0.9,0.7,1.5c-0.1,1-0.6,1.9-1.5,2.4c1,1.2,1.7,2.2,2.4,2.9c0.3,0.4,0.7,0.6,1.2,0.7c0.1,0,0.2,0,0.3,0s0.1,0,0.1,0.1
			s-0.1,0.1-0.2,0.1h-1c-0.4,0-0.8,0-1.2-0.2c-0.6-0.4-1.1-1-1.5-1.6s-0.9-1.3-1.1-1.5c0-0.1-0.1-0.1-0.2-0.1h-1
			c-0.1,0-0.1,0-0.1,0.1v0.2c0,1,0,1.9,0,2.3c0,0.3,0.1,0.6,0.4,0.6c0.2,0,0.4,0,0.5,0s0.1,0,0.1,0.1s-0.1,0.1-0.2,0.1
			c-0.6,0-1.4,0-1.6,0c-0.2,0-0.9,0-1.3,0c-0.1,0-0.2,0-0.2-0.1c0,0,0-0.1,0.2-0.1c0.1,0,0.3,0,0.4,0c0.2,0,0.3-0.3,0.3-0.6
			c0.1-0.5,0.1-1.3,0.1-2.3v-1.9c0-1.4,0-1.8,0-2.2c-1.9,1.8-4.2,3-6.7,3.6c-0.8,0.2-1.7,0.3-2.6,0.3c-1.4,0-2.8-0.4-4.1-1.1l-1.5,2
			c-1.4,1.9-2.7,3.5-4.1,5.1c-2.8,3.4-5.3,5.1-7.5,5.1C15.4,28,15.3,28,15.2,28z M43.5,12.6c-0.1,0-0.1,0.1-0.1,0.2v3.3
			c0,0.1,0,0.2,0.1,0.2c0.3,0.1,0.6,0.1,0.8,0.1c0.3,0,0.5,0,0.8-0.2c0.5-0.4,0.7-1,0.7-1.6c0.1-1-0.5-1.8-1.5-2c-0.1,0-0.1,0-0.2,0
			C43.8,12.6,43.6,12.6,43.5,12.6L43.5,12.6z M0,25.5V5.1h0.5v20.4H0z M77.2,20.4c-0.5,0-0.8,0-1.1,0c-0.1,0-0.4,0-0.6,0
			s-0.5,0-0.8,0c-0.1,0-0.2,0-0.2-0.1c0,0,0-0.1,0.2-0.1c0.1,0,0.3,0,0.4,0c0.2,0,0.3-0.3,0.3-0.6c0.1-0.5,0.1-1.3,0.1-2.3v-1.9
			c0-1.7,0-2,0-2.3c0-0.4-0.1-0.5-0.5-0.6c-0.1,0-0.3,0-0.4,0s-0.2,0-0.2-0.1s0.1-0.1,0.2-0.1c0.3,0,0.6,0,0.9,0s0.5,0,0.7,0
			c0.4,0,2.5,0,2.7,0s0.3,0,0.5-0.1c0.1,0,0.1,0,0.2,0s0.1,0.1,0.1,0.1c0,0.1-0.1,0.2-0.1,0.7c0,0.1,0,0.6-0.1,0.7
			c0,0.1,0,0.1-0.1,0.1s-0.1-0.1-0.1-0.2c0-0.1,0-0.3-0.1-0.4c-0.1-0.2-0.2-0.3-0.7-0.4c-0.2,0-1.3,0-1.6,0c-0.1,0-0.1,0-0.1,0.1
			v2.8c0,0.1,0,0.1,0.1,0.1c0.2,0,1.5,0,1.7,0s0.4,0,0.5-0.2c0.1-0.1,0.1-0.1,0.2-0.1s0.1,0,0.1,0.1s0,0.2-0.1,0.8
			c0,0.2,0,0.7,0,0.7c0,0.1,0,0.2-0.1,0.2s-0.1,0-0.1-0.1s0-0.3,0-0.4c-0.1-0.2-0.2-0.4-0.6-0.4c-0.2,0-1.3,0-1.6,0
			c-0.1,0-0.1,0-0.1,0.1v0.9c0,0.4,0,1.4,0,1.7c0,0.8,0.2,0.9,1.3,0.9c0.3,0,0.7,0,1-0.1s0.4-0.4,0.5-0.8c0-0.1,0-0.2,0.1-0.2
			s0.1,0.1,0.1,0.2c0,0.4-0.1,0.8-0.1,1.2c-0.1,0.3-0.2,0.3-0.6,0.3C78.2,20.4,77.6,20.4,77.2,20.4L77.2,20.4z M88.5,20.4
			c-0.4,0-0.8,0-1.2-0.2c-0.6-0.4-1.1-1-1.5-1.6s-0.9-1.3-1.1-1.5c0-0.1-0.1-0.1-0.2-0.1h-0.9c-0.1,0-0.1,0-0.1,0.1v0.2
			c0,1,0,1.9,0,2.3c0,0.3,0.1,0.6,0.4,0.6c0.2,0,0.4,0,0.5,0s0.1,0,0.1,0.1s-0.1,0.1-0.2,0.1c-0.6,0-1.4,0-1.6,0s-0.9,0-1.3,0
			c-0.1,0-0.2,0-0.2-0.1c0,0,0-0.1,0.2-0.1c0.1,0,0.3,0,0.4,0c0.2,0,0.3-0.3,0.3-0.6c0.1-0.5,0.1-1.3,0.1-2.3v-1.9c0-1.7,0-2,0-2.3
			c0-0.4-0.1-0.5-0.5-0.6c-0.1,0-0.3,0-0.4,0s-0.2,0-0.2-0.1s0.1-0.1,0.2-0.1c0.6,0,1.3,0,1.5,0c0.4,0,1.2,0,1.5,0
			c0.7,0,1.4,0.1,2,0.5c0.5,0.4,0.7,0.9,0.7,1.5c-0.1,1-0.6,1.9-1.5,2.4c1,1.2,1.7,2.2,2.4,2.9c0.3,0.4,0.7,0.6,1.2,0.7
			c0.1,0,0.2,0,0.3,0c0.1,0,0.1,0,0.1,0.1s-0.1,0.1-0.2,0.1L88.5,20.4z M83.7,12.7c-0.1,0-0.1,0.1-0.1,0.2v3.3c0,0.1,0,0.2,0.1,0.2
			c0.3,0.1,0.5,0.1,0.8,0.1s0.6,0,0.8-0.2c0.5-0.4,0.7-1,0.6-1.6c0.1-1-0.5-1.8-1.5-2c-0.1,0-0.1,0-0.2,0h-0.1
			C84,12.7,83.8,12.7,83.7,12.7L83.7,12.7z M53,20.4c-0.5,0-0.8,0-1.1,0c-0.1,0-0.4,0-0.6,0c-0.2,0-0.5,0-0.8,0
			c-0.1,0-0.2,0-0.2-0.1c0,0,0.1-0.1,0.2-0.1c0.1,0,0.3,0,0.4,0c0.2,0,0.3-0.3,0.3-0.6c0.1-0.5,0.1-1.3,0.1-2.3v-1.9
			c0-1.7,0-2,0-2.3c0-0.4-0.1-0.5-0.5-0.6c-0.1,0-0.3,0-0.4,0c-0.1,0-0.2,0-0.2-0.1s0.1-0.1,0.2-0.1c0.3,0,0.6,0,0.9,0s0.5,0,0.7,0
			c0.4,0,2.5,0,2.7,0s0.3,0,0.5-0.1c0.1,0,0.1,0,0.2,0c0.1,0,0.1,0.1,0.1,0.1c0,0.2-0.1,0.5-0.1,0.7c0,0.1,0,0.6-0.1,0.7
			c0,0.1,0,0.1-0.1,0.1s-0.1-0.1-0.1-0.1c0-0.1,0-0.3-0.1-0.4c-0.1-0.2-0.2-0.3-0.7-0.4c-0.2,0-1.3,0-1.6,0c-0.1,0-0.1,0-0.1,0.1
			v2.8c0,0.1,0,0.1,0.1,0.1c0.2,0,1.5,0,1.8,0c0.2,0,0.4,0,0.5-0.2c0.1-0.1,0.1-0.1,0.2-0.1s0.1,0,0.1,0.1s0,0.2-0.1,0.8
			c0,0.2,0,0.7,0,0.7s0,0.2-0.1,0.2s-0.1,0-0.1-0.1s0-0.3,0-0.4c-0.1-0.2-0.2-0.4-0.6-0.4c-0.2,0-1.3,0-1.6,0c0,0-0.1,0-0.1,0.1v0.9
			c0,0.4,0,1.4,0,1.7c0,0.8,0.2,0.9,1.3,0.9c0.3,0,0.7,0,1-0.1s0.4-0.4,0.5-0.8c0-0.1,0-0.2,0.1-0.2s0.1,0.1,0.1,0.2
			c0,0.4-0.1,0.8-0.1,1.2c-0.1,0.3-0.2,0.3-0.6,0.3C54.1,20.4,53.5,20.4,53,20.4L53,20.4z M71,20.4c-0.2,0-0.9,0-1.4,0
			c-0.1,0-0.2,0-0.2-0.1c0,0,0-0.1,0.2-0.1c0.1,0,0.3,0,0.4,0c0.2,0,0.3-0.2,0.3-0.5c0.1-0.5,0.1-1.3,0.1-2.4v-1.9c0-1.7,0-2,0-2.3
			c0-0.4-0.1-0.6-0.4-0.6c-0.1,0-0.3,0-0.4,0s-0.2,0-0.2-0.1s0.1-0.1,0.3-0.1c0.4,0,1.1,0,1.4,0s0.9,0,1.3,0c0.1,0,0.2,0,0.2,0.1
			s-0.1,0.1-0.2,0.1s-0.2,0-0.3,0c-0.3,0.1-0.4,0.2-0.4,0.6c0,0.3,0,0.7,0,2.3v1.9c0,1.1,0,1.9,0,2.4c0,0.3,0.1,0.5,0.4,0.5
			c0.2,0,0.4,0,0.6,0c0.1,0,0.2,0,0.2,0.1s-0.1,0.1-0.2,0.1C72,20.4,71.3,20.4,71,20.4L71,20.4z M67.9,20.4c-0.3,0-1.8,0-2.2-0.1
			c-0.2,0-0.3-0.1-0.3-0.1s0-0.1,0.1-0.1s0.1-0.2,0.1-0.5L65,14.8l0,0l-2.4,5c-0.2,0.5-0.3,0.6-0.4,0.6s-0.2-0.2-0.4-0.5
			c-0.3-0.5-1.1-2.2-1.3-2.5c-0.1-0.2-0.8-1.6-1.1-2.4l0,0l-0.6,4.3c0,0.2,0,0.3,0,0.5s0.1,0.3,0.3,0.3s0.3,0.1,0.5,0.1
			c0.1,0,0.2,0,0.2,0.1s-0.1,0.1-0.3,0.1c-0.5,0-1,0-1.1,0s-0.7,0-1.1,0c-0.1,0-0.2,0-0.2-0.1s0.1-0.1,0.2-0.1c0.1,0,0.2,0,0.3,0
			c0.3-0.1,0.4-0.5,0.5-0.9l1.1-7.1c0-0.2,0.1-0.3,0.2-0.3s0.2,0.1,0.3,0.3l3,6.2l3-6.2c0.1-0.2,0.1-0.3,0.2-0.3s0.2,0.1,0.2,0.3
			l1,6.8c0.1,0.7,0.2,1,0.5,1.1c0.2,0.1,0.4,0.1,0.7,0.1c0.1,0,0.2,0,0.2,0.1C68.1,20.4,68,20.4,67.9,20.4L67.9,20.4z"/>
	</g>
</g>
<path class="st2" d="M8.4,21.3c0.2-0.1,0.4-0.4,0.4-0.4s-0.4-0.1-0.7-0.3C8.1,21,8.4,21.2,8.4,21.3 M10.5,18.8
	c0.1,0.1,0.3,0.6,0.1,0.7c-0.2,0.1-0.3,0-0.5,0c-0.1,0.3-0.1,0.6-0.2,0.7c0.9-0.4,1.2-0.6,1.3-1.1C11.2,18.8,10.8,18.8,10.5,18.8
	L10.5,18.8C10.6,18.8,10.5,18.8,10.5,18.8 M6.7,19c0,0.3,0.7,0.7,0.7,0.7s-0.2-0.7-0.1-1.2C7.1,18.6,6.8,18.8,6.7,19 M4.4,15.4
	c-0.3,0.1-0.6,0.4-0.7,0.4c0,0.2,0.5,0.7,0.8,0.9c0.3-0.2,0.2-0.4,0.1-0.4c-0.1-0.1-0.4-0.2-0.3-0.5c0.1-0.2,0.3-0.2,0.3-0.3
	c0-0.1-0.1-0.2-0.2-0.2h0C4.5,15.4,4.4,15.4,4.4,15.4 M10,11.6c0.2,0.5-0.1,0.6-0.3,0.3c0,0.2,0.1,0.3,0.2,0.3
	c0.2,0,0.3-0.4,0.7-0.6C10.2,11.6,10.1,11.6,10,11.6 M7.8,16c0.7,0.2,0.7,0.7,0.3,1.1c-0.3-0.9-1.6,0.1-2,0.7
	C6.2,16.8,7.3,15.9,7.8,16 M7.8,15.5c-0.9-0.2-1.6,0.8-2,1.6C5.9,16.1,7.2,14.4,7.8,15.5 M7.3,14.5c-0.5,0.2-0.9,0.4-1.3,1.1
	C6.2,14.6,6.9,14.2,7.3,14.5 M21.1,11.5c3.1,5.5,0.1,12.6-6.4,14.1c0.8-1,1.4-2.4,1.3-2.9c-0.9,0.6-2.5,0.9-2.9,0.7
	c1.6-1.4,1.3-2.9,0.4-3c-0.9-0.1-2,1.3-1.9,3.2c-0.8-0.3-3.2,0.1-3.5-1.8c-0.3-0.4-0.4-1.2-0.3-1.5c2.2,1.3,1.3-1.6,2.6-1.9
	C10.3,18,9.2,17,7.7,18.5c-0.1,0.2-0.1,1.2,0.1,1.6c-0.7-0.1-1.2-0.8-1.4-0.9c-0.7-0.1-1.5-0.3-2.1-2.1c-0.6-0.4-0.9-0.8-1.1-1.2
	c0-0.1,0.1-0.6,0.5-1c0,0-0.2,0.4-0.1,0.6C4.4,14.9,4.7,15,5,15.2c0.2,0.1,0.3,0.2,0.5,0.1c0,0.7-0.7,1.2-0.7,1.9
	c0.4,1.1,0.7,1.3,1.6,1.4c1-0.5,1.9-1.7,3.1-1.7c1,0,2.3,0.5,2.5,1.9c0.1,1-2,2.4-2.8,2.2c-1.4,1.5,0.9,2,1.7,1.8
	c0.6-2.5,1.9-3.3,3-2.9c1.2,0.4,1.3,1.9,0.5,2.8c0.7-0.2,1.6-0.7,1.9-1.9c0.3,0.3,0.3,0.9,0.4,1.1c0.7-1,0.5-3.2-0.1-4
	c0.4,0,0.9,0.2,1.3,0.6c0.3-1.6-0.7-3.6-1.2-3.9c0.3,0,0.7,0,1.3,0.3c-0.2-1-1-1.6-1-2.3c0.3,0.7,2.2,0.9,2.1,3.4
	c-0.2-0.2-0.7-0.4-0.9-0.4c0.6,1.6,0.6,3.2,0.3,4.4c-0.1-0.2-0.4-0.5-0.6-0.6c0.2,0.9-0.1,3.4-0.7,4.4c4.1-2.8,1.3-7.2,3.1-8.9
	c-0.4,1.9,0.6,3.5,0.5,4.6C21.7,17.4,22,14.5,21.1,11.5 M12.5,11.6c0.3-0.2,1.1-0.2,1.5,0.1c-0.6,0-1.3,0.7-1.7,2.7
	c0.2,0.2,1.3,1.9,0,4.1c0.4-1.6-0.6-4.7-1.7-3.1c0.7,0.3,1,0.9,0.8,1.5c-0.3-0.6-1.1-1.2-1.8-0.9c-0.4,0.1-0.9,0.1-1.3-0.4
	C7.8,14.9,8.6,14,7.2,14c1.7-0.9,1.2,0.8,2,1c1,0.2,1.1-0.4,1.4-0.7c0.3-0.3,0.8-0.6,1.3-0.2C12.2,13.4,11.8,12.2,12.5,11.6
	 M13.6,16.6c-0.2-1.3,2-3.5,0.6-5.7c2.6,2.1,0.6,3.4,1.9,5.2c-0.5-0.2-1-0.6-1.2-0.9c-0.7,1,1.8,2.3,0.1,4.6
	C15.1,18.5,13.9,17.9,13.6,16.6 M10.8,9.3c0.3,0,0.8,0.2,0.6,0.5c-0.7,0.7-1.7,0.4-2.5,1.1C9.2,10,10.7,9.9,10.8,9.3 M11.1,11.2
	c0.1-1.1,2.2-1.2,0.9-1.9c1.3,0.2,1.5,0.6,1.2,1c-0.3,0.3-1.4,0.7-1.8,1.1c1.3,0-0.2,0.7-0.7,2.2c-0.2,0.7-1.7,0.5-2,0.1
	c0.4,0.1,1.6-0.2,2.1-1.8c0,0,0-0.1-0.1,0c-0.6,0.7-1,0.8-1.3,0.6c-0.3,0.2-0.4,0.4-0.6,0.8c-0.4-0.4-0.2-0.7,0.2-1.1
	C9.1,12.1,9,12,9,11.9c-0.4-0.2-0.5-0.7-0.1-0.9c-0.1,0.3,0.3,0.5,0.6,0.3c0.2-0.2,0.4-0.1,0.7-0.1c0.1,0,0.3,0,0.4,0h0
	C10.7,11.2,10.9,11.2,11.1,11.2 M13.8,9.4c-0.1-0.3,0.2-1.3,0.5-1.1c0.6,0.3,0.9,1.6,0.9,2.3C14.8,10.1,14.5,9.8,13.8,9.4 M12.7,7.9
	c0.1-0.3,0.3-1.3,0.6-1.7c0.3-0.4,0.8-0.5,1.5,0.1c0.7,0.6,1.2,0.8,2.2,2.1c0.8,0.4,2.1,0.9,3.3,2.2c-0.5-0.3-1-0.4-1.5-0.5
	c0.9,0.8,1.5,2.1,1.1,4.1c-0.2-1.8-1.5-2.6-2.3-3.2c0.4,1.5-1.5,1-2.1-0.2c0.2,0.1,0.4,0.1,0.5,0c-0.1-2.4-1.2-3.7-1.7-4.1
	c-0.6-0.5-1,0.7-1.2,1.7C13.1,8.8,12.8,9,12.5,9c0.1-0.1,0.2-0.4,0.2-0.5c-1,0.1-2.1,0.6-2.8,0.9c-1.7,0.8-2.1,1.2-2.5,2.5
	C6,12.4,4.5,14,3.8,14.7c0.4-1.1,1.4-2.3,3-3.3c0.4-1,0.2-1.6,4.1-3.1C11,7.8,11,7.1,11.2,7.1c0.2,0,0.7,0.3,1.1,0.8
	C12.5,7.9,12.6,7.9,12.7,7.9 M1.6,16.1c0,6.1,4.9,11.1,11,11.1c6.1,0,11.1-4.9,11.1-11c0-6.1-4.9-11.1-11-11.1h0
	C6.5,5,1.6,10,1.6,16.1 M12.6,28.1c-6.6,0-12-5.4-12-12.1c0-6.6,5.4-12,12.1-12c6.6,0,12,5.4,12,12.1C24.6,22.8,19.3,28.1,12.6,28.1
	L12.6,28.1 M0.1,16.1c0,6.9,5.6,12.5,12.5,12.5c6.9,0,12.5-5.6,12.5-12.5c0-6.9-5.6-12.5-12.5-12.5h0C5.7,3.6,0.1,9.2,0.1,16.1"/>
</svg>
