<?xml version="1.0" encoding="utf-8"?>
<!-- Generator: Adobe Illustrator 26.0.0, SVG Export Plug-In . SVG Version: 6.00 Build 0)  -->
<svg version="1.1" id="Layer_1" xmlns="http://www.w3.org/2000/svg" xmlns:xlink="http://www.w3.org/1999/xlink" x="0px" y="0px"
	 viewBox="0 0 219.7 28" style="enable-background:new 0 0 219.7 28;" xml:space="preserve">
<style type="text/css">
	.st0{fill:#FFCA34;}
	.st1{fill:#FECF08;}
	.st2{fill:#A0A0A0;}
</style>
<path class="st0" d="M64.1,25.9l2-4.5L61,9.9h4.5l2.7,8.1L71,9.9h4.5l-7,15.9L64.1,25.9z M88.8,17.8c0-3,3.6-3.7,7.7-3.9v-0.4
	c0-0.9-0.7-1.3-2.1-1.3c-1.3,0-2.6,0.3-3.8,0.7l-1-2.3c1.7-0.6,3.5-0.9,5.3-0.9c3.7,0,5.5,1.3,5.5,4.3v6.9c-1.7,0.6-3.5,0.9-5.2,0.8
	C90.9,21.6,88.8,20.2,88.8,17.8z M92.6,17.7c0,0.9,0.9,1.4,2.4,1.4c0.5,0,1-0.1,1.5-0.2v-2.9C94.3,16.2,92.6,16.4,92.6,17.7
	L92.6,17.7z M49.7,17.8c0-3,3.6-3.7,7.7-3.9v-0.4c0-0.9-0.7-1.3-2.1-1.3c-1.3,0-2.6,0.3-3.8,0.7l-1-2.3c1.7-0.6,3.5-0.9,5.3-0.9
	c3.7,0,5.5,1.3,5.5,4.3v6.9c-1.7,0.6-3.5,0.9-5.2,0.8C51.8,21.6,49.7,20.2,49.7,17.8z M53.5,17.7c0,0.9,0.9,1.4,2.4,1.4
	c0.5,0,1-0.1,1.5-0.2v-2.9C55.2,16.2,53.5,16.4,53.5,17.7z M76.2,20.8v-16h4.1v5.4c0.7-0.2,1.4-0.3,2.1-0.3c3.5,0,5.9,2,5.9,5.5
	c0,4.3-2.5,6.3-7.1,6.3C79.5,21.6,77.8,21.3,76.2,20.8z M80.3,12.6v6.1c0.4,0.1,0.8,0.2,1.2,0.2c1.7,0,2.7-1.2,2.7-3.3
	c0-2-0.9-3.1-2.6-3.1C81.1,12.4,80.7,12.5,80.3,12.6L80.3,12.6z M123.5,21.3l-4.1-5.7h-0.1v5.7h-4.1V4.7h4.1v10.1h0.1l3.7-4.9h4.6
	l-4.2,5.3l4.5,6.1H123.5z M109.5,21.3v-7.4c0-0.9-0.5-1.6-2-1.6c-0.5,0-1,0.1-1.4,0.3v8.7H102V10.5c1.8-0.6,3.7-0.9,5.6-0.9
	c4.2,0,6.1,1.5,6.1,3.9v7.8L109.5,21.3z M45.2,21.3L44,10.8l-3.7,10.5h-2.6L34,10.8l-1.2,10.5h-3.9L31,6h4.8l3.2,9.4L42.2,6H47
	l2.2,15.3L45.2,21.3z"/>
<path class="st1" d="M8.3,18.9c0.2-0.1,0.4-0.4,0.4-0.4S8.3,18.4,8,18.2C8,18.5,8.2,18.8,8.3,18.9 M10.4,16.3
	c0.1,0.1,0.3,0.6,0.1,0.7c-0.2,0.1-0.3,0-0.5,0c-0.1,0.3-0.1,0.6-0.2,0.7c0.9-0.4,1.2-0.6,1.3-1.1C11.1,16.4,10.7,16.3,10.4,16.3
	L10.4,16.3C10.4,16.3,10.4,16.3,10.4,16.3 M6.6,16.5c0,0.3,0.7,0.7,0.7,0.7s-0.2-0.7-0.1-1.2C7,16.1,6.7,16.4,6.6,16.5 M4.3,13
	c-0.3,0.1-0.6,0.4-0.7,0.4c0,0.2,0.5,0.7,0.8,0.9c0.3-0.2,0.2-0.4,0.1-0.4c-0.1-0.1-0.4-0.2-0.3-0.5c0.1-0.2,0.3-0.2,0.3-0.3
	c0-0.1-0.1-0.2-0.2-0.2h0C4.3,13,4.3,13,4.3,13 M9.8,9.1C10,9.6,9.7,9.7,9.6,9.4c0,0.2,0.1,0.3,0.2,0.3c0.2,0,0.3-0.4,0.7-0.6
	C10.1,9.1,9.9,9.1,9.8,9.1 M7.7,13.6c0.7,0.2,0.7,0.7,0.3,1.1c-0.3-0.9-1.6,0.1-2,0.7C6.1,14.4,7.2,13.5,7.7,13.6 M7.7,13.1
	c-0.9-0.2-1.6,0.8-2,1.6C5.8,13.6,7.1,11.9,7.7,13.1 M7.1,12.1c-0.5,0.2-0.9,0.4-1.3,1.1C6.1,12.1,6.8,11.8,7.1,12.1 M21,9
	c3.1,5.5,0.1,12.6-6.4,14.1c0.8-1,1.4-2.4,1.3-2.9c-0.9,0.6-2.5,0.9-2.9,0.7c1.6-1.4,1.3-2.9,0.4-3c-0.9-0.1-2,1.3-1.9,3.2
	c-0.8-0.3-3.2,0.1-3.5-1.8c-0.3-0.4-0.4-1.2-0.3-1.5c2.2,1.3,1.3-1.6,2.6-1.9c-0.1-0.4-1.3-1.3-2.8,0.2c-0.1,0.2-0.1,1.2,0.1,1.6
	c-0.7-0.1-1.2-0.8-1.4-0.9c-0.7-0.1-1.5-0.3-2.1-2.1c-0.6-0.4-0.9-0.8-1.1-1.2c0-0.1,0.1-0.6,0.5-1c0,0-0.2,0.4-0.1,0.6
	c0.8-0.6,1.1-0.4,1.4-0.3c0.2,0.1,0.3,0.2,0.5,0.1c0,0.7-0.7,1.2-0.7,1.9c0.4,1.1,0.7,1.3,1.6,1.4c1-0.5,1.9-1.7,3.1-1.7
	c1,0,2.3,0.5,2.5,1.9c0.1,1-2,2.4-2.8,2.2c-1.4,1.5,0.9,2,1.7,1.8c0.6-2.5,1.9-3.3,3-2.9c1.2,0.4,1.3,1.9,0.5,2.8
	c0.7-0.2,1.6-0.7,1.9-1.9c0.3,0.3,0.3,0.9,0.4,1.1c0.7-1,0.5-3.2-0.1-4c0.4,0,0.9,0.2,1.3,0.6c0.3-1.6-0.7-3.6-1.2-3.9
	c0.3,0,0.7,0,1.3,0.3c-0.2-1-1-1.6-1-2.3c0.3,0.7,2.2,0.9,2.1,3.4c-0.2-0.2-0.7-0.4-0.9-0.4c0.6,1.6,0.6,3.2,0.3,4.4
	c-0.1-0.2-0.4-0.5-0.6-0.6c0.2,0.9-0.1,3.4-0.7,4.4c4.1-2.8,1.3-7.2,3.1-8.9c-0.4,1.9,0.6,3.5,0.5,4.6C21.6,15,21.8,12.1,21,9
	 M12.4,9.1c0.3-0.2,1.1-0.2,1.5,0.1c-0.6,0-1.3,0.7-1.7,2.7c0.2,0.2,1.3,1.9,0,4.1c0.4-1.6-0.6-4.7-1.7-3.1c0.7,0.3,1,0.9,0.8,1.5
	c-0.3-0.6-1.1-1.2-1.8-0.9c-0.4,0.1-0.9,0.1-1.3-0.4c-0.5-0.7,0.3-1.6-1.1-1.5c1.7-0.9,1.2,0.8,2,1c1,0.2,1.1-0.4,1.4-0.7
	c0.3-0.3,0.8-0.6,1.3-0.2C12,10.9,11.7,9.7,12.4,9.1 M13.5,14.1c-0.2-1.3,2-3.5,0.6-5.7c2.6,2.1,0.6,3.4,1.9,5.2
	c-0.5-0.2-1-0.6-1.2-0.9c-0.7,1,1.8,2.3,0.1,4.6C15,16.1,13.7,15.4,13.5,14.1 M10.7,6.8c0.3,0,0.8,0.2,0.6,0.5
	C10.6,8,9.6,7.7,8.8,8.4C9.1,7.5,10.6,7.4,10.7,6.8 M10.9,8.7c0.1-1.1,2.2-1.2,0.9-1.9c1.3,0.2,1.5,0.6,1.2,1
	c-0.3,0.3-1.4,0.7-1.8,1.1c1.3,0-0.2,0.7-0.7,2.2c-0.2,0.7-1.7,0.5-2,0.1c0.4,0.1,1.6-0.2,2.1-1.8c0,0,0-0.1-0.1,0
	c-0.6,0.7-1,0.8-1.3,0.6c-0.3,0.2-0.4,0.4-0.6,0.8c-0.4-0.4-0.2-0.7,0.2-1.1c0.1-0.1,0-0.1-0.1-0.2C8.4,9.3,8.4,8.8,8.8,8.6
	C8.7,8.9,9,9.1,9.4,8.8C9.5,8.7,9.8,8.7,10,8.8c0.1,0,0.3,0,0.4,0h0C10.6,8.8,10.8,8.8,10.9,8.7 M13.7,7c-0.1-0.3,0.2-1.3,0.5-1.1
	c0.6,0.3,0.9,1.6,0.9,2.3C14.6,7.7,14.3,7.4,13.7,7 M12.6,5.5c0.1-0.3,0.3-1.3,0.6-1.7c0.3-0.4,0.8-0.5,1.5,0.1
	c0.7,0.6,1.2,0.8,2.2,2.1c0.8,0.4,2.1,0.9,3.3,2.2c-0.5-0.3-1-0.4-1.5-0.5c0.9,0.8,1.5,2.1,1.1,4.1c-0.2-1.8-1.5-2.6-2.3-3.2
	c0.4,1.5-1.5,1-2.1-0.2c0.2,0.1,0.4,0.1,0.5,0c-0.1-2.4-1.2-3.7-1.7-4.1c-0.6-0.5-1,0.7-1.2,1.7c-0.1,0.3-0.3,0.5-0.7,0.5
	c0.1-0.1,0.2-0.4,0.2-0.5c-1,0.1-2.1,0.6-2.8,0.9C8.1,7.7,7.6,8.1,7.3,9.4c-1.4,0.6-2.9,2.1-3.6,2.9c0.4-1.1,1.4-2.3,3-3.3
	c0.4-1,0.2-1.6,4.1-3.1c0.1-0.6,0.1-1.3,0.2-1.3c0.2,0,0.7,0.3,1.1,0.8C12.4,5.5,12.5,5.5,12.6,5.5 M1.4,13.6
	c0,6.1,4.9,11.1,11,11.1c6.1,0,11.1-4.9,11.1-11c0-6.1-4.9-11.1-11-11.1h0C6.4,2.6,1.4,7.5,1.4,13.6 M12.5,25.7
	c-6.6,0-12-5.4-12-12.1c0-6.6,5.4-12,12.1-12c6.6,0,12,5.4,12,12.1C24.5,20.3,19.1,25.7,12.5,25.7L12.5,25.7 M0,13.6
	c0,6.9,5.6,12.5,12.5,12.5c6.9,0,12.5-5.6,12.5-12.5c0-6.9-5.6-12.5-12.5-12.5h0C5.6,1.2,0,6.7,0,13.6"/>
<path class="st2" d="M151.4,28c-0.9,0-1.7-0.2-2.5-0.5c1.4,0.2,2.4-0.5,4.6-1.7c2.1-1.3,5.8-6,7.1-8.2v0l1.1-1.5l1.4-1.8
	c-1.1-1-1.7-2.4-1.7-3.8c-0.1-2.1,1.1-4,2.9-4.9c-1.1,0.8-1.8,2-1.9,3.3c0.9-2.7,2.6-4.1,5.1-4c1.3,0,2.4,0.6,3.2,1.6
	c-0.9-0.7-1.9-1.1-3.1-1c-1.2,0.1-2.4,0.7-3.1,1.8c-0.7,1-1.1,2.2-1.1,3.4c0,0.8,0.2,1.7,0.6,2.4c5-5.9,9.2-8.7,12.4-8.5
	c0.6,0,1.1,0.2,1.6,0.5c-1.2,0.1-2.4,0.3-3.5,0.8c-1.1,0.5-2.1,1.2-2.9,2.1l-3.3,3.6c-1.1,1.2-2,2.2-2.9,3.2
	c0.1,0.1,0.3,0.2,0.4,0.3c1.2,0.6,2.5,0.8,3.9,0.5c1-0.1,1.9-0.4,2.8-0.9c-1.3,0.9-2.8,1.4-4.4,1.5c0.9,0.2,1.9,0.3,2.8,0.1
	c2.3-0.5,4.4-1.6,6-3.2l0.1-0.1c0-0.1,0-0.1,0-0.2c0-0.4-0.1-0.5-0.5-0.6c-0.1,0-0.3,0-0.4,0c-0.1,0-0.2,0-0.2-0.1s0.1-0.1,0.2-0.1
	c0.6,0,1.3,0,1.5,0h0.4c1.6-1.6,2.3-3.1,2.3-4.6c0-1.8-1-3.1-3.2-3.9c-1.8-0.6-3.6-0.9-5.5-0.8c-3.1,0.2-6.2,0.5-9.2,1.1
	c-3.1,0.6-6.2,1-9.4,1.1c-5.2,0-8.8-1.7-10.8-5c2.4,2.1,6.5,3.2,12.3,3.2c3.4,0,6.9-0.3,10.3-0.7l5.7-0.7c1.9-0.2,3.8-0.2,5.7,0
	c1.3,0.1,2.6,0.5,3.7,1.2c1.2,0.6,1.9,1.8,2,3.1c0,1.6-1.1,3.6-3.2,5.9c0.2,0,0.4,0,0.5,0c0.7,0,1.4,0.1,2.1,0.5
	c0.5,0.4,0.8,0.9,0.8,1.5c0,0.8-0.4,1.5-1.5,2.4c1,1.2,1.7,2.2,2.4,2.9c0.3,0.4,0.7,0.6,1.2,0.7c0.1,0,0.2,0,0.3,0
	c0.1,0,0.1,0,0.1,0.1c0,0.1-0.1,0.1-0.2,0.1h-1c-0.4,0-0.8,0-1.2-0.2c-0.6-0.4-1.1-1-1.5-1.6c-0.4-0.6-0.9-1.3-1-1.5
	c-0.1-0.1-0.1-0.1-0.2-0.1l-1,0c0,0-0.1,0-0.1,0.1c0,0,0,0,0,0v0.2c0,1,0,1.8,0.1,2.3c0,0.3,0.1,0.5,0.4,0.6c0.2,0,0.4,0,0.5,0
	c0.1,0,0.1,0,0.1,0.1c0,0.1-0.1,0.1-0.2,0.1c-0.6,0-1.5,0-1.7,0c-0.1,0-0.3,0-0.6,0c-0.3,0-0.6,0-0.8,0c-0.1,0-0.2,0-0.2-0.1
	c0-0.1,0-0.1,0.2-0.1c0.1,0,0.3,0,0.4,0c0.2-0.1,0.3-0.3,0.3-0.6c0.1-0.5,0.1-1.3,0.1-2.3v-1.9c0-0.6,0-1,0-1.3
	c-1.7,1.4-3.7,2.4-5.8,2.8c-0.8,0.2-1.7,0.3-2.5,0.3c-1.4,0-2.8-0.4-4-1.1l-1.5,2c-1.4,1.9-2.7,3.5-4,5.1c-2.8,3.4-5.3,5-7.4,5
	C151.6,28,151.5,28,151.4,28z M178.5,12.6c-0.1,0-0.1,0.1-0.1,0.1l0,3.2c0,0.1,0,0.2,0.1,0.2c0.3,0.1,0.5,0.1,0.8,0.1
	c0.3,0,0.5,0,0.8-0.2c0.5-0.4,0.7-1,0.7-1.6c0.1-0.9-0.5-1.8-1.4-1.9c-0.1,0-0.2,0-0.2,0h-0.1C178.9,12.6,178.7,12.6,178.5,12.6z
	 M138.1,25.5V5.1h0.5v20.4H138.1z M193.2,19.8l-2.7-6.6c-0.2-0.6-0.4-0.7-0.8-0.8c-0.1,0-0.3,0-0.4,0c-0.1,0-0.1-0.1-0.1-0.1
	c0-0.1,0.1-0.1,0.3-0.1c0.6,0,1.2,0,1.6,0c0.3,0,0.8,0,1.4,0c0.1,0,0.3,0,0.3,0.1s-0.1,0.1-0.2,0.1c-0.1,0-0.3,0-0.4,0.1
	c-0.1,0-0.1,0.1-0.1,0.2c0,0.3,0.1,0.6,0.2,0.8l1.8,4.9h0c0.5-1.1,1.9-4.6,2.1-5.3c0-0.1,0.1-0.3,0.1-0.4c0-0.1-0.1-0.2-0.1-0.2
	c-0.1,0-0.3-0.1-0.4-0.1c-0.1,0-0.2,0-0.2-0.1s0.1-0.1,0.3-0.1c0.5,0,1,0,1.2,0c0.2,0,0.7,0,1,0c0.1,0,0.2,0,0.2,0.1
	c0,0.1-0.1,0.1-0.2,0.1c-0.2,0-0.4,0-0.5,0.1c-0.1,0.1-0.3,0.3-0.6,1c-0.4,1-0.7,1.6-1.3,2.9c-0.7,1.6-1.2,2.8-1.5,3.3
	c-0.3,0.6-0.4,0.8-0.5,0.8S193.4,20.3,193.2,19.8L193.2,19.8z M218.9,20.3c-0.8,0-1.5,0-2,0c-0.5,0-0.9,0-1.3,0c-0.1,0-0.4,0-0.6,0
	c-0.3,0-0.5,0-0.8,0c-0.1,0-0.2,0-0.2-0.1c0-0.1,0-0.1,0.2-0.1c0.1,0,0.3,0,0.4,0c0.2-0.1,0.3-0.3,0.3-0.6c0-0.5,0-1.3,0-2.3v-1.9
	c0-1.6,0-2,0-2.3c0-0.4-0.1-0.5-0.5-0.6c-0.1,0-0.3,0-0.4,0c-0.1,0-0.2,0-0.2-0.1s0.1-0.1,0.2-0.1c0.6,0,1.3,0,1.6,0
	c0.3,0,2.8,0,3,0c0.2,0,0.4-0.1,0.5-0.1c0.1,0,0.1-0.1,0.2-0.1s0.1,0.1,0.1,0.1c0,0.2-0.1,0.5-0.1,0.7c0,0.1,0,0.6-0.1,0.7
	c0,0.1,0,0.2-0.1,0.2c-0.1,0-0.1,0-0.1-0.1c0-0.1,0-0.3-0.1-0.4c-0.1-0.2-0.2-0.3-0.7-0.4c-0.2,0-1.5-0.1-1.7-0.1c0,0-0.1,0-0.1,0.1
	v2.7c0,0.1,0,0.1,0.1,0.1c0.2,0,1.7,0,1.9,0c0.2,0,0.4-0.1,0.5-0.2c0.1-0.1,0.1-0.1,0.2-0.1c0.1,0,0.1,0.1,0.1,0.1
	c0,0.1,0,0.2-0.1,0.8c0,0.2,0,0.7,0,0.7s0,0.2-0.1,0.2c-0.1,0-0.1,0-0.1-0.1c0-0.1,0-0.3,0-0.4c-0.1-0.2-0.2-0.4-0.6-0.4
	c-0.2,0-1.4-0.1-1.7-0.1c0,0-0.1,0-0.1,0.1v0.9c0,0.4,0,1.3,0,1.6c0,0.7,0.4,0.9,1.5,0.9c0.3,0,0.7,0,1-0.1c0.3-0.1,0.4-0.4,0.5-0.8
	c0-0.1,0.1-0.2,0.1-0.2s0.1,0.1,0.1,0.3c0,0.4-0.1,0.8-0.2,1.2c-0.1,0.3-0.2,0.3-0.5,0.3L218.9,20.3z M208.9,20.3c-0.2,0-1,0-1.4,0
	c-0.1,0-0.2,0-0.2-0.1c0-0.1,0-0.1,0.2-0.1c0.1,0,0.3,0,0.4,0c0.2-0.1,0.3-0.3,0.3-0.6c0-0.5,0-1.3,0.1-2.3l0-4.4l-1.6,0
	c-0.6,0-0.9,0.1-1,0.3c-0.1,0.1-0.1,0.2-0.2,0.4c0,0.1-0.1,0.1-0.1,0.1s-0.1-0.1-0.1-0.2c0-0.2,0.2-1.2,0.2-1.3
	c0-0.1,0.1-0.2,0.1-0.2c0.2,0.1,0.3,0.1,0.5,0.1c0.4,0,0.7,0.1,1.1,0.1l4.4,0c0.2,0,0.5,0,0.7-0.1c0.2,0,0.3,0,0.3,0
	c0.1,0,0.1,0.1,0.1,0.2c0,0.2,0,1,0,1.3c0,0.1,0,0.2-0.1,0.2c-0.1,0-0.1,0-0.1-0.2l0-0.1c0-0.3-0.3-0.6-1.3-0.6l-1.4,0v4.4
	c0,1,0,1.8,0.1,2.3c0,0.3,0.1,0.5,0.4,0.6c0.2,0,0.4,0,0.6,0c0.1,0,0.2,0.1,0.2,0.1c0,0.1-0.1,0.1-0.2,0.1
	C209.9,20.3,209.2,20.3,208.9,20.3L208.9,20.3z M205.4,20.3c-0.4,0-1.2,0-2.1,0c-0.2,0-0.3,0-0.3-0.1s0-0.1,0.1-0.1
	c0.1,0,0.1-0.1,0.1-0.2c0,0,0,0,0,0l-0.8-2.2c0,0-0.1-0.1-0.1-0.1h-2.6c-0.1,0-0.1,0-0.1,0.1l-0.6,1.5c-0.1,0.2-0.1,0.4-0.2,0.7
	c0,0.2,0.1,0.3,0.4,0.3h0.2c0.1,0,0.2,0,0.2,0.1c0,0.1-0.1,0.1-0.2,0.1c-0.4,0-0.9,0-1.2,0c-0.1,0-0.7,0-1.3,0c-0.1,0-0.2,0-0.2-0.1
	c0-0.1,0-0.1,0.1-0.1s0.2,0,0.3,0c0.5-0.1,0.7-0.4,0.9-1l2.8-6.8c0.1-0.3,0.2-0.4,0.3-0.4c0.2,0,0.2,0.1,0.3,0.3
	c0.3,0.6,2.1,5,2.8,6.6c0.4,1,0.7,1.1,0.9,1.2c0.1,0,0.3,0,0.4,0c0.1,0,0.1,0,0.1,0.1S205.8,20.3,205.4,20.3L205.4,20.3z
	 M200.9,14.2l-1.1,2.7c0,0,0,0.1,0,0.1l2.1,0c0,0,0.1,0,0-0.1l-1-2.7c0,0,0-0.1-0.1-0.1C201,14.1,200.9,14.1,200.9,14.2z
	 M186.7,20.2c-0.1,0-0.4,0-0.6,0s-0.6,0-0.8,0c-0.1,0-0.2,0-0.2-0.1c0-0.1,0-0.1,0.2-0.1c0.1,0,0.3,0,0.4,0c0.2-0.1,0.3-0.2,0.3-0.5
	c0.1-0.5,0.1-1.3,0.1-2.4v-1.9c0-1.6,0-1.9,0-2.3c0-0.4-0.1-0.5-0.4-0.6c-0.1,0-0.3-0.1-0.4-0.1c-0.1,0-0.2,0-0.2-0.1
	c0-0.1,0.1-0.1,0.3-0.1c0.4,0,1.2,0,1.5,0c0.3,0,1,0,1.4,0c0.1,0,0.2,0,0.2,0.1c0,0.1-0.1,0.1-0.2,0.1c-0.1,0-0.2,0-0.3,0
	c-0.3,0-0.4,0.2-0.4,0.6c0,0.3,0,0.7,0,2.3v1.9c0,1,0,1.9,0,2.4c0,0.3,0.1,0.5,0.4,0.5c0.2,0,0.4,0,0.6,0c0.1,0,0.2,0.1,0.2,0.1
	c0,0.1-0.1,0.1-0.2,0.1C187.7,20.3,187,20.2,186.7,20.2z"/>
</svg>
